<?xml version="1.0" encoding="UTF-8" standalone="no"?>
<!-- Created with Inkscape (http://www.inkscape.org/) -->
<svg
   xmlns:dc="http://purl.org/dc/elements/1.1/"
   xmlns:cc="http://web.resource.org/cc/"
   xmlns:rdf="http://www.w3.org/1999/02/22-rdf-syntax-ns#"
   xmlns:svg="http://www.w3.org/2000/svg"
   xmlns="http://www.w3.org/2000/svg"
   xmlns:sodipodi="http://sodipodi.sourceforge.net/DTD/sodipodi-0.dtd"
   xmlns:inkscape="http://www.inkscape.org/namespaces/inkscape"
   id="svg2"
   sodipodi:version="0.32"
   inkscape:version="0.45"
   width="300"
   height="300"
   version="1.0"
   sodipodi:docbase="/home/lyhana8/Desktop"
   sodipodi:docname="丿-seal.svg"
   inkscape:output_extension="org.inkscape.output.svg.inkscape"
   sodipodi:modified="true">
  <metadata
     id="metadata7">
    <rdf:RDF>
      <cc:Work
         rdf:about="">
        <dc:format>image/svg+xml</dc:format>
        <dc:type
           rdf:resource="http://purl.org/dc/dcmitype/StillImage" />
      </cc:Work>
    </rdf:RDF>
  </metadata>
  <defs
     id="defs5" />
  <sodipodi:namedview
     inkscape:window-height="771"
     inkscape:window-width="1272"
     inkscape:pageshadow="2"
     inkscape:pageopacity="0.0"
     guidetolerance="10.0"
     gridtolerance="10.0"
     objecttolerance="10.0"
     borderopacity="1.0"
     bordercolor="#666666"
     pagecolor="#ffffff"
     id="base"
     width="300px"
     height="300px"
     inkscape:zoom="1.9166667"
     inkscape:cx="150"
     inkscape:cy="171.42127"
     inkscape:window-x="0"
     inkscape:window-y="0"
     inkscape:current-layer="svg2" />
  <path
     style="fill:#000000"
     d="M 129.07602,265.82834 C 113.90534,253.89508 108.94936,239.47738 108.94936,207.2768 C 108.94936,191.17056 110.53948,177.00999 112.48295,175.80886 C 114.42643,174.60774 116.01654,169.04233 116.01654,163.4413 C 116.01654,157.84027 117.60665,152.27488 119.55013,151.07373 C 121.49361,149.87261 123.08372,144.72378 123.08372,139.63192 C 123.08372,134.54004 124.53009,125.49073 126.29786,119.52231 C 133.6925,94.556463 136.78114,82.446376 142.76378,54.961719 C 146.23253,39.026119 150.18813,26.678567 151.55401,27.522731 C 154.81202,29.536288 163.35391,57.323579 168.89548,83.93555 C 171.32369,95.596396 174.68871,109.11236 176.37332,113.97105 C 190.77514,155.50817 195.8692,228.13574 185.79144,248.24743 C 174.32579,271.12888 146.70097,279.69213 129.07602,265.82834 z "
     id="path2194" />
</svg>
