<?xml version="1.0" encoding="UTF-8" standalone="no"?>
<!-- Created with Inkscape (http://www.inkscape.org/) -->
<svg
   xmlns:dc="http://purl.org/dc/elements/1.1/"
   xmlns:cc="http://web.resource.org/cc/"
   xmlns:rdf="http://www.w3.org/1999/02/22-rdf-syntax-ns#"
   xmlns:svg="http://www.w3.org/2000/svg"
   xmlns="http://www.w3.org/2000/svg"
   xmlns:sodipodi="http://sodipodi.sourceforge.net/DTD/sodipodi-0.dtd"
   xmlns:inkscape="http://www.inkscape.org/namespaces/inkscape"
   id="svg2"
   sodipodi:version="0.32"
   inkscape:version="0.45"
   width="300"
   height="300"
   version="1.0"
   sodipodi:docbase="/home/lyhana8/Desktop"
   sodipodi:docname="丿-seal.svg"
   inkscape:output_extension="org.inkscape.output.svg.inkscape"
   sodipodi:modified="true">
  <metadata
     id="metadata7">
    <rdf:RDF>
      <cc:Work
         rdf:about="">
        <dc:format>image/svg+xml</dc:format>
        <dc:type
           rdf:resource="http://purl.org/dc/dcmitype/StillImage" />
      </cc:Work>
    </rdf:RDF>
  </metadata>
  <defs
     id="defs5" />
  <sodipodi:namedview
     inkscape:window-height="771"
     inkscape:window-width="1272"
     inkscape:pageshadow="2"
     inkscape:pageopacity="0.0"
     guidetolerance="10.0"
     gridtolerance="10.0"
     objecttolerance="10.0"
     borderopacity="1.0"
     bordercolor="#666666"
     pagecolor="#ffffff"
     id="base"
     width="300px"
     height="300px"
     inkscape:zoom="1.9166667"
     inkscape:cx="150"
     inkscape:cy="161.13906"
     inkscape:window-x="0"
     inkscape:window-y="0"
     inkscape:current-layer="svg2" />
  <path
     style="fill:#000000"
     d="M 88.08416,262.91059 C 91.695768,224.89396 91.378132,186.31521 99.178483,148.79228 C 102.8304,137.08106 109.2414,125.37662 119.39073,118.16097 C 127.9447,114.28365 136.9535,112.22817 145.95561,108.51196 C 158.65069,101.92883 173.68363,96.571272 181.39428,83.708164 C 189.2018,67.302317 187.39161,48.447394 189.28537,30.81119 C 189.31078,25.878905 198.24435,13.136747 204.56798,23.912599 C 210.84378,30.467108 210.03941,40.123809 209.457,48.974528 C 208.37358,64.24345 203.51116,78.987358 198.52196,93.361502 C 194.33503,106.73272 181.6399,114.03931 169.30785,118.63601 C 159.84774,122.96562 149.07557,125.51425 141.04933,132.24456 C 131.16837,134.22064 123.70156,143.05077 119.44669,150.88762 C 113.2866,157.94292 114.42279,169.13417 112.76042,178.13105 C 109.7277,207.14979 110.37201,236.37283 108.67817,265.45781 C 110.86275,273.09729 101.98154,294.06412 94.98192,283.91589 C 91.941151,279.5073 87.273757,271.44109 88.08416,262.91059 z "
     id="path2163"
     sodipodi:nodetypes="ccccccccccccccss" />
</svg>
