<?xml version="1.0" encoding="UTF-8" standalone="no"?>
<!-- Created with Inkscape (http://www.inkscape.org/) -->
<svg
   xmlns:dc="http://purl.org/dc/elements/1.1/"
   xmlns:cc="http://web.resource.org/cc/"
   xmlns:rdf="http://www.w3.org/1999/02/22-rdf-syntax-ns#"
   xmlns:svg="http://www.w3.org/2000/svg"
   xmlns="http://www.w3.org/2000/svg"
   xmlns:sodipodi="http://sodipodi.sourceforge.net/DTD/sodipodi-0.dtd"
   xmlns:inkscape="http://www.inkscape.org/namespaces/inkscape"
   id="svg2"
   sodipodi:version="0.32"
   inkscape:version="0.45"
   width="300"
   height="300"
   version="1.0"
   sodipodi:docbase="/home/lyhana8/Desktop"
   sodipodi:docname="丶-seal.svg"
   inkscape:output_extension="org.inkscape.output.svg.inkscape"
   sodipodi:modified="true">
  <metadata
     id="metadata7">
    <rdf:RDF>
      <cc:Work
         rdf:about="">
        <dc:format>image/svg+xml</dc:format>
        <dc:type
           rdf:resource="http://purl.org/dc/dcmitype/StillImage" />
      </cc:Work>
    </rdf:RDF>
  </metadata>
  <defs
     id="defs5" />
  <sodipodi:namedview
     inkscape:window-height="575"
     inkscape:window-width="738"
     inkscape:pageshadow="2"
     inkscape:pageopacity="0.0"
     guidetolerance="10.0"
     gridtolerance="10.0"
     objecttolerance="10.0"
     borderopacity="1.0"
     bordercolor="#666666"
     pagecolor="#ffffff"
     id="base"
     width="300px"
     height="300px"
     inkscape:zoom="1.9166667"
     inkscape:cx="150"
     inkscape:cy="154.28425"
     inkscape:window-x="379"
     inkscape:window-y="60"
     inkscape:current-layer="svg2" />
  <path
     style="fill:#000000"
     d="M 179.58274,283.79898 C 176.98781,282.30062 173.6294,279.9444 172.11961,278.56287 C 170.60982,277.18138 165.9294,273.40866 161.71865,270.17908 C 150.16072,261.31432 130.47473,241.56456 125.24601,233.58829 C 121.54841,227.94768 120.60938,222.44102 120.61981,206.45931 C 120.63387,184.96335 124.10602,175.4474 142.56918,146.30376 C 159.48544,119.60184 154.65292,100.89349 124.79328,77.487076 C 113.43244,68.581522 105.03426,49.577875 104.51992,31.611844 C 104.1738,19.521959 108.99128,14.479778 112.10932,13.841188 C 118.79614,12.471683 123.4858,19.581292 122.25205,29.217682 C 120.6833,41.470428 128.71902,60.239555 138.3884,66.907586 C 149.89561,74.842996 157.4168,82.00607 163.75654,91.067856 C 168.58208,97.965311 169.48671,102.05037 169.50305,117.01731 C 169.52302,135.30878 165.39935,147.11894 155.06383,158.37105 C 151.07016,162.7189 147.12228,170.01269 142.29518,181.96147 C 135.67628,198.34559 137.49821,219.03351 146.47156,229.38412 C 149.73076,233.14353 154.14536,238.37119 156.28179,241.00112 C 158.41824,243.63105 163.88174,248.35697 168.42289,251.50314 C 172.96405,254.64934 177.21032,257.81144 177.85905,258.53007 C 178.50779,259.2487 183.01946,262.80398 187.88498,266.43067 C 202.23586,277.12762 194.49698,292.41061 179.58274,283.79898 z "
     id="path2206"
     sodipodi:nodetypes="csssssssssssssssssssc" />
</svg>
