<?xml version="1.0" encoding="UTF-8" standalone="no"?>
<!-- Created with Inkscape (http://www.inkscape.org/) -->
<svg
   xmlns:dc="http://purl.org/dc/elements/1.1/"
   xmlns:cc="http://web.resource.org/cc/"
   xmlns:rdf="http://www.w3.org/1999/02/22-rdf-syntax-ns#"
   xmlns:svg="http://www.w3.org/2000/svg"
   xmlns="http://www.w3.org/2000/svg"
   xmlns:sodipodi="http://sodipodi.sourceforge.net/DTD/sodipodi-0.dtd"
   xmlns:inkscape="http://www.inkscape.org/namespaces/inkscape"
   id="svg2"
   sodipodi:version="0.32"
   inkscape:version="0.45"
   width="300"
   height="300"
   version="1.0"
   sodipodi:docbase="/home/lyhana8/Desktop"
   sodipodi:docname="乙-seal.svg"
   inkscape:output_extension="org.inkscape.output.svg.inkscape"
   sodipodi:modified="true">
  <metadata
     id="metadata7">
    <rdf:RDF>
      <cc:Work
         rdf:about="">
        <dc:format>image/svg+xml</dc:format>
        <dc:type
           rdf:resource="http://purl.org/dc/dcmitype/StillImage" />
      </cc:Work>
    </rdf:RDF>
  </metadata>
  <defs
     id="defs5" />
  <sodipodi:namedview
     inkscape:window-height="771"
     inkscape:window-width="1272"
     inkscape:pageshadow="2"
     inkscape:pageopacity="0.0"
     guidetolerance="10.0"
     gridtolerance="10.0"
     objecttolerance="10.0"
     borderopacity="1.0"
     bordercolor="#666666"
     pagecolor="#ffffff"
     id="base"
     width="300px"
     height="300px"
     inkscape:zoom="1.9166667"
     inkscape:cx="150"
     inkscape:cy="162.54762"
     inkscape:window-x="200"
     inkscape:window-y="25"
     inkscape:current-layer="svg2" />
  <path
     style="fill:#000000"
     d="M 124.01944,261.32171 C 98.754907,262.94458 78.891379,250.38341 68.557719,226.29591 C 62.090455,211.22088 60.474375,194.39325 65.954617,178.83018 C 72.833598,159.29491 89.208218,144.93217 108.33642,137.72376 C 137.96769,126.5573 171.57059,125.54144 198.49374,108.19242 C 210.05985,100.73933 218.94166,85.289888 206.10889,71.341448 C 196.87658,61.306483 181.48029,70.034347 170.1216,73.854857 C 140.02366,83.978332 112.80384,101.15945 86.569633,118.90668 C 73.400077,127.81577 52.61165,115.53346 46.326089,102.64681 C 39.93033,89.53423 44.56741,72.873238 53.844971,60.896021 C 67.69974,43.009687 85.184439,22.887496 106.79006,19.845341 C 132.7114,16.195517 119.18112,40.100629 103.41836,44.99539 C 80.825068,52.011218 68.406645,66.443953 61.49353,82.310626 C 55.550538,95.95072 68.5381,102.79701 80.24115,95.466881 C 108.57885,77.717769 142.56385,55.356165 174.61119,44.396961 C 187.44198,40.009224 204.62992,37.821511 217.16359,45.840184 C 230.24677,54.210412 235.05669,67.404513 238.11684,82.024002 C 241.08183,96.188908 235.18914,110.43108 225.29889,120.6903 C 208.24492,138.38051 183.0527,141.54597 160.5035,147.2939 C 140.09982,152.49493 117.58485,154.41426 99.967074,165.84421 C 86.679402,174.46491 83.028288,193.51765 85.314283,208.04065 C 87.910647,224.53543 101.32332,232.01266 115.27647,232.83428 C 142.60836,234.44369 170.21724,233.27993 197.26754,238.78496 C 214.54105,242.30031 234.1994,244.73888 246.87196,257.11874 C 273.46286,283.09547 238.6096,284.846 226.51448,274.98292 C 197.6329,257.41853 162.3557,258.85918 124.01944,261.32171 z "
     id="path2218"
     sodipodi:nodetypes="cssssssssssssssssssssssscs" />
</svg>
