<?xml version="1.0" encoding="UTF-8" standalone="no"?>
<!-- Created with Inkscape (http://www.inkscape.org/) -->
<svg
   xmlns:dc="http://purl.org/dc/elements/1.1/"
   xmlns:cc="http://web.resource.org/cc/"
   xmlns:rdf="http://www.w3.org/1999/02/22-rdf-syntax-ns#"
   xmlns:svg="http://www.w3.org/2000/svg"
   xmlns="http://www.w3.org/2000/svg"
   xmlns:sodipodi="http://sodipodi.sourceforge.net/DTD/sodipodi-0.dtd"
   xmlns:inkscape="http://www.inkscape.org/namespaces/inkscape"
   id="svg2"
   sodipodi:version="0.32"
   inkscape:version="0.45"
   width="300"
   height="300"
   version="1.0"
   sodipodi:docbase="/home/lyhana8/Desktop"
   sodipodi:docname="乙-bigseal.svg"
   inkscape:output_extension="org.inkscape.output.svg.inkscape"
   sodipodi:modified="true">
  <metadata
     id="metadata7">
    <rdf:RDF>
      <cc:Work
         rdf:about="">
        <dc:format>image/svg+xml</dc:format>
        <dc:type
           rdf:resource="http://purl.org/dc/dcmitype/StillImage" />
      </cc:Work>
    </rdf:RDF>
  </metadata>
  <defs
     id="defs5" />
  <sodipodi:namedview
     inkscape:window-height="771"
     inkscape:window-width="1272"
     inkscape:pageshadow="2"
     inkscape:pageopacity="0.0"
     guidetolerance="10.0"
     gridtolerance="10.0"
     objecttolerance="10.0"
     borderopacity="1.0"
     bordercolor="#666666"
     pagecolor="#ffffff"
     id="base"
     width="300px"
     height="300px"
     inkscape:zoom="1.9166667"
     inkscape:cx="150"
     inkscape:cy="149.14315"
     inkscape:window-x="-10"
     inkscape:window-y="0"
     inkscape:current-layer="svg2" />
  <path
     style="fill:#000000"
     d="M 220.38646,284.14572 C 192.62748,277.99014 161.03271,268.92989 145.15629,242.66572 C 126.88731,212.82155 127.54768,176.46764 126.24883,142.69664 C 125.77238,117.63515 129.49632,97.172367 120.34064,73.338412 C 110.2334,54.016994 89.855719,42.588021 67.19177,37.001781 C 59.265341,34.721427 25.285416,32.219386 41.080174,24.066967 C 56.295127,18.401566 68.659425,18.851601 82.367305,16.608508 C 100.24654,15.303989 118.66364,13.881095 136.24322,17.958069 C 154.97164,25.848733 172.1765,40.064179 180.43337,58.907227 C 187.51776,80.141321 185.32894,102.92291 187.18046,124.9264 C 188.50387,156.47517 182.76184,190.76393 194.96695,219.45396 C 203.9575,240.58765 222.46628,254.47799 242.41864,262.40041 C 260.51159,270.54934 282.19644,275.50768 254.80334,281.40118 C 243.49133,283.60385 231.6307,286.63914 220.38646,284.14572 z M 192.4373,248.73779 C 179.66881,234.68236 167.77764,198.41383 167.77003,174.88698 C 166.12226,138.04588 168.69427,104.03894 161.07281,68.054975 C 157.31366,50.30651 139.2689,35.516857 122.42295,30.537798 C 101.81347,26.187453 99.691595,30.140098 112.79872,38.111819 C 125.54746,49.6436 137.669,57.88028 143.28631,74.473344 C 150.49961,113.09219 148.41014,152.57179 151.81439,191.53038 C 154.38929,213.43204 161.02543,241.16408 190.99523,253.54796 C 201.09747,257.64098 193.54607,249.64149 192.4373,248.73779 z "
     id="path2246"
     sodipodi:nodetypes="ccccccccccsccsccscccccc" />
</svg>
