<?xml version="1.0" encoding="UTF-8" standalone="no"?>
<!-- Created with Inkscape (http://www.inkscape.org/) -->
<svg
   xmlns:dc="http://purl.org/dc/elements/1.1/"
   xmlns:cc="http://web.resource.org/cc/"
   xmlns:rdf="http://www.w3.org/1999/02/22-rdf-syntax-ns#"
   xmlns:svg="http://www.w3.org/2000/svg"
   xmlns="http://www.w3.org/2000/svg"
   xmlns:sodipodi="http://sodipodi.sourceforge.net/DTD/sodipodi-0.dtd"
   xmlns:inkscape="http://www.inkscape.org/namespaces/inkscape"
   width="300"
   height="300"
   id="svg2"
   sodipodi:version="0.32"
   inkscape:version="0.45.1"
   version="1.0"
   sodipodi:docbase="C:\Documents and Settings\L'équipage\Mes documents\Bertrand\Gifs"
   sodipodi:docname="人-bronze.svg"
   inkscape:output_extension="org.inkscape.output.svg.inkscape">
  <defs
     id="defs4" />
  <sodipodi:namedview
     id="base"
     pagecolor="#ffffff"
     bordercolor="#666666"
     borderopacity="1.0"
     inkscape:pageopacity="0.0"
     inkscape:pageshadow="2"
     inkscape:zoom="1.5"
     inkscape:cx="214.15918"
     inkscape:cy="164.84177"
     inkscape:document-units="px"
     inkscape:current-layer="layer1"
     width="300px"
     height="300px"
     inkscape:window-width="1024"
     inkscape:window-height="721"
     inkscape:window-x="-4"
     inkscape:window-y="-4" />
  <metadata
     id="metadata7">
    <rdf:RDF>
      <cc:Work
         rdf:about="">
        <dc:format>image/svg+xml</dc:format>
        <dc:type
           rdf:resource="http://purl.org/dc/dcmitype/StillImage" />
      </cc:Work>
    </rdf:RDF>
  </metadata>
  <g
     inkscape:label="Calque 1"
     inkscape:groupmode="layer"
     id="layer1">
    <path
       style="fill:#000000"
       d="M 175.84417,289.25872 C 173.23347,277.46622 174.73615,265.20895 172.79337,253.2791 C 170.66214,238.11632 170.73477,222.39554 164.95335,207.85967 C 159.61588,199.93326 158.65641,189.82625 153.30963,182.90954 C 152.48438,162.92623 158.01623,142.94071 155.91305,122.95401 C 154.5147,115.9668 143.02542,99.5305 138.03172,113.33651 C 132.62237,122.34879 127.60788,131.73315 125.07492,141.59499 C 120.23499,150.42889 119.00569,160.5237 115.48499,170.04614 C 113.8385,178.92406 95.159506,180.90841 101.55541,169.56234 C 105.01653,159.63915 109.50253,149.99788 111.26468,139.68407 C 118.48663,115.91264 133.67691,94.398172 139.08922,70.200651 C 141.76027,55.797693 130.51465,42.316834 116.39676,35.6919 C 105.62356,27.799314 94.919404,19.303096 87.419516,8.873774 C 92.285414,-0.103776 106.33523,13.578458 114.13304,15.764073 C 127.97673,22.586984 142.62993,30.052998 151.37582,41.921409 C 157.17292,51.256347 156.93945,61.77052 155.78114,72.088962 C 155.75305,81.300033 148.46618,92.358491 160.94295,97.567083 C 166.56987,106.14811 172.32791,114.31226 175.89697,123.93961 C 179.21763,134.40801 184.00124,144.57795 184.00905,155.61266 C 186.81854,189.64019 186.44272,223.828 183.3918,257.82837 C 182.01528,268.5611 184.46625,280.02696 180.08847,290.27768 C 178.7899,291.64653 176.73175,290.05412 175.84417,289.25872 z "
       id="path2187" />
  </g>
</svg>
