<?xml version="1.0" encoding="UTF-8" standalone="no"?>
<!-- Created with Inkscape (http://www.inkscape.org/) -->
<svg
   xmlns:svg="http://www.w3.org/2000/svg"
   xmlns="http://www.w3.org/2000/svg"
   version="1.0"
   width="300"
   height="300"
   id="svg2">
  <defs
     id="defs5" />
  <path
     d="M 86.635383,65.742682 C 89.930903,114.7116 87.343052,123.72898 86.229547,133.25574 C 83.109402,159.95065 78.755601,186.38961 76.047994,200.21259 C 73.824245,211.56536 70.191372,229.68027 68.987287,237.90962"
     style="fill:none;fill-opacity:0.75;fill-rule:evenodd;stroke:#000000;stroke-width:18;stroke-linecap:round;stroke-linejoin:miter;stroke-miterlimit:4;stroke-dasharray:none;stroke-opacity:1"
     id="path1317" />
  <path
     d="M 43.851885,65.165703 C 43.850689,65.170487 113.95818,66.260388 138.86573,65.415078 C 168.25753,64.417581 195.51284,65.243934 223.34233,65.243934 C 238.26916,65.243934 247.48764,72.755051 249.43244,94.547807 C 249.86477,99.39242 252.89852,119.64545 243.84847,139.14048 C 239.72447,148.02411 203.25144,144.94697 193.35514,144.94697 C 186.00671,144.94697 166.57278,143.89898 160.18964,151.7583 C 155.67562,157.31625 152.38537,196.91433 156.01052,210.68188 C 159.17421,222.6969 184.6286,218.95718 189.7649,218.95718 C 211.19016,218.95718 238.05921,217.39085 259.95627,216.30698"
     style="fill:none;fill-opacity:0.75;fill-rule:evenodd;stroke:#000000;stroke-width:18;stroke-linecap:round;stroke-linejoin:miter;stroke-miterlimit:4;stroke-dasharray:none;stroke-opacity:1"
     id="path1319" />
</svg>
