<?xml version="1.0" encoding="UTF-8" standalone="no"?>
<!-- Created with Inkscape (http://www.inkscape.org/) -->
<svg
   xmlns:svg="http://www.w3.org/2000/svg"
   xmlns="http://www.w3.org/2000/svg"
   version="1.0"
   width="300"
   height="300"
   id="svg2">
  <defs
     id="defs5" />
  <path
     d="M 188.24689,263.74792 C 176.46256,214.70215 174.43502,162.4882 177.33295,112.13898 C 177.74192,93.789538 180.64605,75.256953 177.86483,56.9962 C 176.66826,47.681146 166.75289,44.57933 158.77953,43.605137 C 150.9464,42.919139 136.32314,35.785244 134.26929,47.983304 C 130.78912,59.123303 129.97328,70.785003 129.06595,82.325623 C 120.92504,146.48651 120.83409,155.08947 114.97472,191.33611 C 112.15286,215.08459 112.33896,239.30464 106.96428,262.68234 C 103.33256,276.85884 89.346695,263.79272 90.682929,254.49657 C 92.552032,241.28139 94.835125,227.97718 96.29049,214.63971 C 100.88598,174.5817 105.69341,134.53472 112.19109,94.735048 C 114.16793,77.317544 117.04989,59.773796 116.32595,42.230459 C 110.24968,34.872456 98.829954,42.242888 91.385791,37.677765 C 90.270986,34.975687 87.112089,27.395833 89.282176,25.947508 C 115.92691,27.667283 142.8045,27.644971 169.14719,32.350551 C 179.40288,33.83187 189.08545,40.140661 192.42427,50.29439 C 196.62313,64.216171 194.42738,79.091628 194.75591,93.417944 C 193.36936,150.18092 190.4474,207.85364 203.60442,263.58738 C 203.66794,274.29272 190.22237,273.47314 188.24689,263.74792 z "
     style="fill:black;fill-opacity:1"
     id="path1875" />
</svg>
