<?xml version="1.0" encoding="UTF-8" standalone="no"?>
<!-- Created with Inkscape (http://www.inkscape.org/) -->

<svg
   xmlns:dc="http://purl.org/dc/elements/1.1/"
   xmlns:cc="http://creativecommons.org/ns#"
   xmlns:rdf="http://www.w3.org/1999/02/22-rdf-syntax-ns#"
   xmlns:svg="http://www.w3.org/2000/svg"
   xmlns="http://www.w3.org/2000/svg"
   xmlns:sodipodi="http://sodipodi.sourceforge.net/DTD/sodipodi-0.dtd"
   xmlns:inkscape="http://www.inkscape.org/namespaces/inkscape"
   width="300"
   height="300"
   id="svg2"
   version="1.1"
   inkscape:version="0.47 r22583"
   sodipodi:docname="儿-bronze.svg">
  <defs
     id="defs4">
    <inkscape:perspective
       sodipodi:type="inkscape:persp3d"
       inkscape:vp_x="0 : 526.18109 : 1"
       inkscape:vp_y="0 : 1000 : 0"
       inkscape:vp_z="744.09448 : 526.18109 : 1"
       inkscape:persp3d-origin="372.04724 : 350.78739 : 1"
       id="perspective10" />
    <inkscape:perspective
       id="perspective2824"
       inkscape:persp3d-origin="0.5 : 0.33333333 : 1"
       inkscape:vp_z="1 : 0.5 : 1"
       inkscape:vp_y="0 : 1000 : 0"
       inkscape:vp_x="0 : 0.5 : 1"
       sodipodi:type="inkscape:persp3d" />
    <inkscape:perspective
       id="perspective2840"
       inkscape:persp3d-origin="0.5 : 0.33333333 : 1"
       inkscape:vp_z="1 : 0.5 : 1"
       inkscape:vp_y="0 : 1000 : 0"
       inkscape:vp_x="0 : 0.5 : 1"
       sodipodi:type="inkscape:persp3d" />
    <inkscape:perspective
       id="perspective3673"
       inkscape:persp3d-origin="0.5 : 0.33333333 : 1"
       inkscape:vp_z="1 : 0.5 : 1"
       inkscape:vp_y="0 : 1000 : 0"
       inkscape:vp_x="0 : 0.5 : 1"
       sodipodi:type="inkscape:persp3d" />
    <inkscape:perspective
       id="perspective3689"
       inkscape:persp3d-origin="0.5 : 0.33333333 : 1"
       inkscape:vp_z="1 : 0.5 : 1"
       inkscape:vp_y="0 : 1000 : 0"
       inkscape:vp_x="0 : 0.5 : 1"
       sodipodi:type="inkscape:persp3d" />
    <inkscape:perspective
       id="perspective3732"
       inkscape:persp3d-origin="0.5 : 0.33333333 : 1"
       inkscape:vp_z="1 : 0.5 : 1"
       inkscape:vp_y="0 : 1000 : 0"
       inkscape:vp_x="0 : 0.5 : 1"
       sodipodi:type="inkscape:persp3d" />
    <inkscape:perspective
       id="perspective3749"
       inkscape:persp3d-origin="0.5 : 0.33333333 : 1"
       inkscape:vp_z="1 : 0.5 : 1"
       inkscape:vp_y="0 : 1000 : 0"
       inkscape:vp_x="0 : 0.5 : 1"
       sodipodi:type="inkscape:persp3d" />
    <inkscape:perspective
       id="perspective3771"
       inkscape:persp3d-origin="0.5 : 0.33333333 : 1"
       inkscape:vp_z="1 : 0.5 : 1"
       inkscape:vp_y="0 : 1000 : 0"
       inkscape:vp_x="0 : 0.5 : 1"
       sodipodi:type="inkscape:persp3d" />
  </defs>
  <sodipodi:namedview
     id="base"
     pagecolor="#ffffff"
     bordercolor="#666666"
     borderopacity="1.0"
     inkscape:pageopacity="0.0"
     inkscape:pageshadow="2"
     inkscape:zoom="0.98994949"
     inkscape:cx="144.83995"
     inkscape:cy="27.05288"
     inkscape:document-units="px"
     inkscape:current-layer="layer1"
     showgrid="false"
     inkscape:window-width="1280"
     inkscape:window-height="950"
     inkscape:window-x="0"
     inkscape:window-y="25"
     inkscape:window-maximized="1" />
  <metadata
     id="metadata7">
    <rdf:RDF>
      <cc:Work
         rdf:about="">
        <dc:format>image/svg+xml</dc:format>
        <dc:type
           rdf:resource="http://purl.org/dc/dcmitype/StillImage" />
        <dc:title></dc:title>
      </cc:Work>
    </rdf:RDF>
  </metadata>
  <g
     inkscape:label="Calque 1"
     inkscape:groupmode="layer"
     id="layer1"
     transform="translate(0,-752.36218)">
    <path
       style="fill:#bababa;fill-opacity:1"
       d="m 120.02723,849.03948 c -19.41397,-4.52076 -42.088675,-8.99378 -53.407285,-27.36319 -8.82843,-15.49996 -12.66983,-34.52586 -9.22506,-52.12365 4.69377,-13.44733 20.21839,0.1413 29.05393,2.43024 16.417875,8.04997 33.510465,15.57995 47.810555,27.12124 -1.30043,10.13962 -19.07629,2.75703 -26.50794,0.88603 -8.02737,-0.63951 -23.914275,-14.70935 -26.919965,-2.3053 -4.19285,12.61288 4.80843,23.62611 16.40191,27.43723 15.320165,7.89059 32.217205,12.87873 49.501585,13.00169 8.56718,4.73407 17.72926,7.70259 28.35836,3.42304 16.11438,-4.51817 32.49738,-9.99859 46.50317,-19.29892 7.56456,-9.46055 4.96045,-23.79889 2.87958,-34.89702 -6.36041,-9.92769 -29.03709,-2.27437 -24.11102,10.9268 5.50221,8.07679 8.08928,25.92878 -7.44207,20.22896 -4.24685,-10.85407 -14.66466,-18.21449 -21.35404,-28.45928 -8.79908,-7.89142 -5.63053,-15.36824 6.28207,-12.99953 19.10744,0.67781 37.3037,-5.947 56.02097,-8.27664 14.38263,-3.19427 19.25748,12.8461 16.27629,23.96684 -2.46432,13.31173 -6.30452,27.50302 -15.84041,37.55413 -9.27705,4.73376 -16.54183,13.68771 -28.39501,15.81267 -12.4197,4.89378 -26.33729,6.69719 -37.52953,14.22597 -24.73365,-6.29821 -3.88356,-5.90172 -48.35609,-11.29131 z"
       id="path3738-9"
       sodipodi:nodetypes="cccccccccccccccccccccc" />
    <path
       style="fill:#000000"
       d="m 211.395,1011.8419 c 0.47534,-9.0286 7.95507,-32.47416 -8.67118,-28.61496 -31.92594,8.1278 -59.95333,26.68906 -91.27612,36.53666 -10.93933,0.1615 -17.429302,-11.6652 -22.07607,-20.18546 -6.026738,-9.7377 -2.541302,-23.4384 8.838479,-27.17 13.173611,-3.0144 21.390421,-14.3127 20.300501,-27.769 2.14079,-23.6846 -0.0222,-48.26107 7.56648,-71.0993 20.27049,-33.79054 32.63567,-14.6015 48.47236,-15.60781 -0.11869,11.8007 9.34749,24.16769 11.32485,36.76948 3.72652,14.78832 10.8569,29.85273 8.19559,45.37783 -4.52799,12.2902 -19.36058,14.5012 -30.12022,18.9481 -16.03027,6.1532 -32.97815,10.8585 -47.54652,20.1363 -14.19117,9.0356 3.98608,17.2335 13.29968,13.0904 8.56685,-5.651 19.0592,-6.0541 29.25511,-9.6959 22.1724,-7.9903 43.07254,-20.3159 66.48306,-24.4323 15.32953,-3.1855 22.17559,12.9505 15.83327,25.0904 -4.55991,16.4808 -8.51839,34.83226 -21.28113,47.13236 -8.21274,8.3249 -14.06851,-1.1593 -10.05726,-9.657 0.43924,-2.9575 0.94436,-5.9048 1.45912,-8.8498 z m -35.06341,-74.89176 c 7.48755,-11.7379 -4.94197,-23.41657 -8.15929,-34.52686 -2.22458,-8.022 -13.70749,-32.13662 -19.17541,-13.62537 -3.52511,17.46857 -2.85785,35.51963 -2.59118,53.24623 1.68952,14.26 19.81024,1.4421 26.86447,-2.4278 l 1.71828,-1.3617 1.34313,-1.3045 z"
       id="path3738"
       sodipodi:nodetypes="cccccccccccccccccccccccccc" />
  </g>
</svg>
