<?xml version="1.0" encoding="UTF-8" standalone="no"?>
<!-- Created with Inkscape (http://www.inkscape.org/) -->

<svg
   xmlns:dc="http://purl.org/dc/elements/1.1/"
   xmlns:cc="http://creativecommons.org/ns#"
   xmlns:rdf="http://www.w3.org/1999/02/22-rdf-syntax-ns#"
   xmlns:svg="http://www.w3.org/2000/svg"
   xmlns="http://www.w3.org/2000/svg"
   xmlns:sodipodi="http://sodipodi.sourceforge.net/DTD/sodipodi-0.dtd"
   xmlns:inkscape="http://www.inkscape.org/namespaces/inkscape"
   width="300"
   height="300"
   id="svg2"
   version="1.1"
   inkscape:version="0.47 r22583"
   sodipodi:docname="儿-bigseal.svg">
  <defs
     id="defs4">
    <inkscape:perspective
       sodipodi:type="inkscape:persp3d"
       inkscape:vp_x="0 : 526.18109 : 1"
       inkscape:vp_y="0 : 1000 : 0"
       inkscape:vp_z="744.09448 : 526.18109 : 1"
       inkscape:persp3d-origin="372.04724 : 350.78739 : 1"
       id="perspective10" />
    <inkscape:perspective
       id="perspective2824"
       inkscape:persp3d-origin="0.5 : 0.33333333 : 1"
       inkscape:vp_z="1 : 0.5 : 1"
       inkscape:vp_y="0 : 1000 : 0"
       inkscape:vp_x="0 : 0.5 : 1"
       sodipodi:type="inkscape:persp3d" />
    <inkscape:perspective
       id="perspective2840"
       inkscape:persp3d-origin="0.5 : 0.33333333 : 1"
       inkscape:vp_z="1 : 0.5 : 1"
       inkscape:vp_y="0 : 1000 : 0"
       inkscape:vp_x="0 : 0.5 : 1"
       sodipodi:type="inkscape:persp3d" />
    <inkscape:perspective
       id="perspective3673"
       inkscape:persp3d-origin="0.5 : 0.33333333 : 1"
       inkscape:vp_z="1 : 0.5 : 1"
       inkscape:vp_y="0 : 1000 : 0"
       inkscape:vp_x="0 : 0.5 : 1"
       sodipodi:type="inkscape:persp3d" />
    <inkscape:perspective
       id="perspective3689"
       inkscape:persp3d-origin="0.5 : 0.33333333 : 1"
       inkscape:vp_z="1 : 0.5 : 1"
       inkscape:vp_y="0 : 1000 : 0"
       inkscape:vp_x="0 : 0.5 : 1"
       sodipodi:type="inkscape:persp3d" />
  </defs>
  <sodipodi:namedview
     id="base"
     pagecolor="#ffffff"
     bordercolor="#666666"
     borderopacity="1.0"
     inkscape:pageopacity="0.0"
     inkscape:pageshadow="2"
     inkscape:zoom="0.98994949"
     inkscape:cx="144.83995"
     inkscape:cy="27.05288"
     inkscape:document-units="px"
     inkscape:current-layer="layer1"
     showgrid="false"
     inkscape:window-width="1280"
     inkscape:window-height="950"
     inkscape:window-x="0"
     inkscape:window-y="25"
     inkscape:window-maximized="1" />
  <metadata
     id="metadata7">
    <rdf:RDF>
      <cc:Work
         rdf:about="">
        <dc:format>image/svg+xml</dc:format>
        <dc:type
           rdf:resource="http://purl.org/dc/dcmitype/StillImage" />
        <dc:title></dc:title>
      </cc:Work>
    </rdf:RDF>
  </metadata>
  <g
     inkscape:label="Calque 1"
     inkscape:groupmode="layer"
     id="layer1"
     transform="translate(0,-752.36218)">
    <path
       style="fill:#000000"
       d="m 211.8097,1037.8782 c -1.27118,-1.2068 -2.21586,-8.7709 -2.09927,-16.8093 0.11644,-8.0383 -0.80253,-32.17603 -2.04255,-53.63941 -2.24226,-38.81112 -2.31479,-39.07562 -13.27577,-48.42258 -9.67169,-8.24751 -29.36924,-17.71488 -36.90615,-17.73842 -4.67466,-0.0153 -23.98104,18.23313 -28.67597,27.1036 -2.5255,4.77166 -7.68229,12.57982 -11.4595,17.35148 -3.7772,4.77166 -9.01654,12.84807 -11.64297,17.94757 -3.21315,6.23857 -6.58947,9.04963 -10.320573,8.59262 -3.049874,-0.37353 -5.298196,-2.10579 -4.996272,-3.84945 0.502649,-2.90285 9.332504,-18.64883 16.373105,-29.19754 1.5924,-2.38583 4.7715,-8.24196 7.06469,-13.01362 5.60233,-11.65725 19.14072,-29.28063 22.49357,-29.28063 10.23213,-5.01915 21.22288,-48.21687 35.8338,-25.00901 0.81267,10.19337 3.22229,14.11528 13.80826,22.47426 27.61164,21.80291 37.64173,28.52498 40.26549,26.98559 1.2523,-0.73472 1.38508,9.32362 0.29501,22.35188 -1.08992,13.02823 -2.5001,37.352 -3.13367,54.05281 -0.63355,16.70085 -1.41313,33.04915 -1.73239,36.32965 -0.58217,5.9827 -5.52525,7.875 -9.84895,3.7705 l 1.1e-4,0 z"
       id="path3679"
       sodipodi:nodetypes="csssssssssssccssssscc" />
    <path
       style="fill:#b4b4b4;fill-opacity:1"
       d="m 123.84199,857.85249 c -41.249484,-3.31717 -55.156154,-12.54706 -69.158964,-45.90106 -2.00326,-4.77166 -5.35179,-11.93056 -7.44122,-15.90867 -5.21567,-9.93036 -0.96594,-22.54204 7.28328,-21.61428 3.44228,0.3871 8.05674,3.95581 10.25438,7.93041 l 3.99576,7.22653 14.91076,-8.92455 c 10.0543,-6.01777 16.880304,-8.48113 20.957704,-7.56312 6.44108,1.45014 8.4562,7.40409 2.50594,7.40409 -1.94755,0 -7.933154,4.39716 -13.301364,9.77147 -5.36819,5.3743 -12.35153,10.62226 -15.51854,11.66209 -3.37341,1.10761 -5.62645,4.60927 -5.4401,8.45486 0.31644,6.52954 12.57586,22.85875 20.7717,27.66728 12.662844,7.42939 63.383624,10.30817 90.329724,5.1269 16.2473,-3.12406 30.20998,-8.19348 30.20998,-10.96826 0,-1.10562 3.15767,-3.99873 7.01701,-6.42918 10.66347,-6.71538 11.69775,-16.30948 2.3932,-22.19987 -17.86494,-11.30969 -34.55435,-24.49175 -37.05025,-29.26398 -2.39223,-4.57406 -1.77767,-4.93791 6.01848,-3.56332 4.77552,0.842 15.33504,6.01374 23.46563,11.49276 l 14.78285,9.96186 2.33956,-6.39853 c 1.28678,-3.51922 2.53637,-10.05863 2.77696,-14.53206 0.46838,-8.71033 6.91513,-10.75438 15.27619,-4.84361 5.03708,3.56088 3.21477,24.56869 -4.4111,50.85239 -3.41833,11.78174 -6.25762,15.25193 -17.80494,21.76126 -7.55597,4.25934 -21.04801,9.51938 -29.98226,11.68897 -31.70652,20.07288 -36.94867,16.61214 -75.18037,7.10962 z"
       id="path3679-7"
       sodipodi:nodetypes="cssscccsssssssssssscccsssscc" />
  </g>
</svg>
