<?xml version="1.0" encoding="UTF-8" standalone="no"?>
<!-- Created with Inkscape (http://www.inkscape.org/) -->

<svg
   xmlns:dc="http://purl.org/dc/elements/1.1/"
   xmlns:cc="http://creativecommons.org/ns#"
   xmlns:rdf="http://www.w3.org/1999/02/22-rdf-syntax-ns#"
   xmlns:svg="http://www.w3.org/2000/svg"
   xmlns="http://www.w3.org/2000/svg"
   xmlns:sodipodi="http://sodipodi.sourceforge.net/DTD/sodipodi-0.dtd"
   xmlns:inkscape="http://www.inkscape.org/namespaces/inkscape"
   width="300"
   height="300"
   id="svg2"
   version="1.1"
   inkscape:version="0.47 r22583"
   sodipodi:docname="儿-bigseal.svg">
  <defs
     id="defs4">
    <inkscape:perspective
       sodipodi:type="inkscape:persp3d"
       inkscape:vp_x="0 : 526.18109 : 1"
       inkscape:vp_y="0 : 1000 : 0"
       inkscape:vp_z="744.09448 : 526.18109 : 1"
       inkscape:persp3d-origin="372.04724 : 350.78739 : 1"
       id="perspective10" />
    <inkscape:perspective
       id="perspective2824"
       inkscape:persp3d-origin="0.5 : 0.33333333 : 1"
       inkscape:vp_z="1 : 0.5 : 1"
       inkscape:vp_y="0 : 1000 : 0"
       inkscape:vp_x="0 : 0.5 : 1"
       sodipodi:type="inkscape:persp3d" />
    <inkscape:perspective
       id="perspective2840"
       inkscape:persp3d-origin="0.5 : 0.33333333 : 1"
       inkscape:vp_z="1 : 0.5 : 1"
       inkscape:vp_y="0 : 1000 : 0"
       inkscape:vp_x="0 : 0.5 : 1"
       sodipodi:type="inkscape:persp3d" />
  </defs>
  <sodipodi:namedview
     id="base"
     pagecolor="#ffffff"
     bordercolor="#666666"
     borderopacity="1.0"
     inkscape:pageopacity="0.0"
     inkscape:pageshadow="2"
     inkscape:zoom="0.98994949"
     inkscape:cx="144.83995"
     inkscape:cy="27.05288"
     inkscape:document-units="px"
     inkscape:current-layer="layer1"
     showgrid="false"
     inkscape:window-width="1280"
     inkscape:window-height="950"
     inkscape:window-x="0"
     inkscape:window-y="25"
     inkscape:window-maximized="1" />
  <metadata
     id="metadata7">
    <rdf:RDF>
      <cc:Work
         rdf:about="">
        <dc:format>image/svg+xml</dc:format>
        <dc:type
           rdf:resource="http://purl.org/dc/dcmitype/StillImage" />
      </cc:Work>
    </rdf:RDF>
  </metadata>
  <g
     inkscape:label="Calque 1"
     inkscape:groupmode="layer"
     id="layer1"
     transform="translate(0,-752.36218)">
    <path
       style="fill:#a6a6a6;fill-opacity:1"
       d="m 218.38692,889.78527 c 1.19781,-9.86077 10.43387,-30.5538 -2.88145,-33.45955 -10.26811,6.35233 -18.06733,16.17617 -30.22165,20.04993 -6.76403,6.17755 -18.09907,0.39583 -9.34566,-7.19347 12.18448,-15.55913 29.6808,-26.73308 40.50016,-43.27747 8.07871,-12.0244 -5.66836,-17.33349 -13.13748,-7.65056 -11.14284,8.1309 -20.70679,18.50691 -33.42096,24.45079 -14.21427,-7.88758 6.28414,-20.96212 12.61202,-27.86337 8.96523,-5.50808 7.77346,-18.51714 -4.68826,-17.08778 -12.29742,-1.11216 -19.0012,-20.61 -2.47506,-19.67127 18.60663,-1.37718 40.03632,-4.2547 55.84883,7.60012 9.92772,8.64119 18.6508,22.25582 13.67172,35.52112 -4.20952,14.57339 -4.06631,29.87738 -4.63107,44.89648 0.1966,10.95195 4.28095,21.90772 0.53557,32.75449 -2.10194,8.06457 -7.0441,15.88021 -14.89607,19.68574 -15.07389,0.54746 -9.1326,-20.30256 -7.47064,-28.7552 z M 48.911349,912.77579 c -5.767207,-27.2791 -4.691801,-55.36298 -5.432932,-83.05973 0.41593,-15.39018 1.033671,-32.56443 11.127329,-45.2189 11.825198,-11.09302 29.965738,-8.32039 44.676714,-5.99265 10.52673,-2.22384 31.89343,8.62886 17.44664,18.42605 -8.85385,0.79423 -24.140084,6.49122 -13.34299,16.46254 6.58724,8.08676 32.48653,16.98531 19.47175,28.52442 -13.5688,0.29702 -26.017726,-8.56864 -37.020576,-15.58037 -6.817586,-3.18395 -16.184706,-22.2955 -15.495652,-6.36969 -1.410784,11.66187 9.631971,19.45207 16.428991,27.51432 8.807714,8.92909 18.338557,17.3481 25.430747,27.70938 -10.97303,7.35529 -23.464492,-3.05264 -33.297155,-7.9313 -6.226747,-5.79552 -16.57325,-3.77659 -12.14677,6.20856 0.798517,13.44777 6.460388,32.48902 -7.933683,41.05074 -3.182289,1.72265 -7.907282,1.71441 -9.912413,-1.74337 z"
       id="path2830" />
    <path
       style="fill:#000000"
       d="m 184.30307,1016.7064 c -14.73529,-7.5593 -22.38233,-22.04597 -31.71244,-34.26163 -9.70519,-9.98217 -9.02533,-24.37302 -5.10778,-36.58502 3.70393,-13.65403 11.69617,-27.67727 7.65054,-42.07594 -8.70375,-13.60652 -24.90831,3.84581 -27.75788,13.86501 -4.92659,12.59376 -16.00263,21.58797 -20.53269,34.31776 -4.93977,10.7419 -6.6979,22.70713 -11.553968,33.33502 -7.748517,12.09821 -24.183527,3.42129 -18.120728,-9.43791 4.365526,-29.78886 20.01834,-56.9891 39.333586,-80.07437 7.03016,-9.87973 16.08469,-20.49296 15.75868,-33.02835 6.27694,-13.99549 23.90018,0.6123 18.69155,12.02316 -3.19738,13.63859 14.5058,5.32352 20.78083,12.63276 11.22932,7.16617 17.08175,22.74632 9.80376,34.48373 -5.14077,11.73905 -15.02058,22.18228 -16.09061,35.1885 3.81855,16.85469 19.91606,26.88173 32.97156,36.87748 9.79534,6.7125 20.6355,13.333 26.0797,24.1572 0.47292,16.3132 -22.89105,12.2644 -31.15574,4.2775 -3.0655,-1.8181 -6.0582,-3.7485 -9.03837,-5.6949 z"
       id="path2830-7" />
  </g>
</svg>
