<?xml version="1.0" encoding="UTF-8" standalone="no"?>
<!-- Created with Inkscape (http://www.inkscape.org/) -->
<svg
   xmlns:dc="http://purl.org/dc/elements/1.1/"
   xmlns:cc="http://web.resource.org/cc/"
   xmlns:rdf="http://www.w3.org/1999/02/22-rdf-syntax-ns#"
   xmlns:svg="http://www.w3.org/2000/svg"
   xmlns="http://www.w3.org/2000/svg"
   xmlns:sodipodi="http://sodipodi.sourceforge.net/DTD/sodipodi-0.dtd"
   xmlns:inkscape="http://www.inkscape.org/namespaces/inkscape"
   width="300"
   height="300"
   id="svg2"
   sodipodi:version="0.32"
   inkscape:version="0.45.1"
   version="1.0"
   sodipodi:docbase="C:\Documents and Settings\Martin\桌面"
   sodipodi:docname="drawing.svg"
   inkscape:output_extension="org.inkscape.output.svg.inkscape">
  <defs
     id="defs4" />
  <sodipodi:namedview
     id="base"
     pagecolor="#ffffff"
     bordercolor="#666666"
     borderopacity="1.0"
     gridtolerance="10000"
     guidetolerance="10"
     objecttolerance="10"
     inkscape:pageopacity="0.0"
     inkscape:pageshadow="2"
     inkscape:zoom="0.65666667"
     inkscape:cx="259.75458"
     inkscape:cy="94.192298"
     inkscape:document-units="px"
     inkscape:current-layer="layer1"
     width="300px"
     height="300px"
     inkscape:window-width="742"
     inkscape:window-height="577"
     inkscape:window-x="44"
     inkscape:window-y="0" />
  <metadata
     id="metadata7">
    <rdf:RDF>
      <cc:Work
         rdf:about="">
        <dc:format>image/svg+xml</dc:format>
        <dc:type
           rdf:resource="http://purl.org/dc/dcmitype/StillImage" />
      </cc:Work>
    </rdf:RDF>
  </metadata>
  <g
     inkscape:label="Layer 1"
     inkscape:groupmode="layer"
     id="layer1">
    <path
       style="fill:#000000"
       d="M 22.893014,227.90009 C 22.893014,225.70664 35.059015,211.14931 49.928558,195.55046 C 64.798109,179.9516 80.701621,161.85285 85.269702,155.331 C 89.837783,148.80915 105.72072,130.87144 120.56509,115.46943 C 135.40947,100.0674 149.00619,83.484958 150.77993,78.619546 C 155.78805,64.882551 168.39435,68.161996 177.38062,85.539537 C 181.86478,94.210938 198.41507,115.43602 214.15898,132.70637 C 252.78732,175.07979 258.43169,182.43183 270.50819,206.1037 C 283.55456,231.67677 276.51991,232.35883 255.88627,207.52136 C 247.22497,197.09547 236.1843,183.9728 231.35146,178.35985 C 226.51859,172.74691 210.05338,152.9771 194.76209,134.42695 C 179.4708,115.8768 164.39035,100.56525 161.24995,100.40129 C 158.10959,100.23733 147.40584,109.77082 137.46393,121.58682 C 85.299601,183.58404 22.893014,241.49271 22.893014,227.90009 z "
       id="path2251" />
  </g>
</svg>
