<?xml version="1.0" encoding="UTF-8" standalone="no"?>
<!-- Created with Inkscape (http://www.inkscape.org/) -->
<svg
   xmlns:dc="http://purl.org/dc/elements/1.1/"
   xmlns:cc="http://web.resource.org/cc/"
   xmlns:rdf="http://www.w3.org/1999/02/22-rdf-syntax-ns#"
   xmlns:svg="http://www.w3.org/2000/svg"
   xmlns="http://www.w3.org/2000/svg"
   xmlns:sodipodi="http://sodipodi.sourceforge.net/DTD/sodipodi-0.dtd"
   xmlns:inkscape="http://www.inkscape.org/namespaces/inkscape"
   width="300"
   height="300"
   id="svg2"
   sodipodi:version="0.32"
   inkscape:version="0.45.1"
   version="1.0"
   sodipodi:docbase="C:\Documents and Settings\Martin\桌面"
   sodipodi:docname="drawing.svg"
   inkscape:output_extension="org.inkscape.output.svg.inkscape">
  <defs
     id="defs4" />
  <sodipodi:namedview
     id="base"
     pagecolor="#ffffff"
     bordercolor="#666666"
     borderopacity="1.0"
     gridtolerance="10000"
     guidetolerance="10"
     objecttolerance="10"
     inkscape:pageopacity="0.0"
     inkscape:pageshadow="2"
     inkscape:zoom="1.3133333"
     inkscape:cx="192.49677"
     inkscape:cy="141.70453"
     inkscape:document-units="px"
     inkscape:current-layer="layer1"
     width="300px"
     height="300px"
     inkscape:window-width="742"
     inkscape:window-height="577"
     inkscape:window-x="44"
     inkscape:window-y="0" />
  <metadata
     id="metadata7">
    <rdf:RDF>
      <cc:Work
         rdf:about="">
        <dc:format>image/svg+xml</dc:format>
        <dc:type
           rdf:resource="http://purl.org/dc/dcmitype/StillImage" />
      </cc:Work>
    </rdf:RDF>
  </metadata>
  <g
     inkscape:label="Layer 1"
     inkscape:groupmode="layer"
     id="layer1">
    <path
       style="fill:#000000"
       d="M 54.443459,280.17812 C 46.526872,274.38938 50.960986,266.17696 74.780913,242.51106 C 88.369114,229.24174 99.731553,214.4113 113.52911,201.3916 C 123.05198,192.57511 130.07703,183.90435 130.84339,182.58064 C 131.651,181.18567 133.54737,178.17246 135.35664,175.28637 C 137.86922,171.27839 139.87958,164.7115 139.90729,147.35678 C 139.92783,134.47781 140.12544,115.49974 140.34636,105.18331 C 140.56732,94.866874 139.87677,73.1872 138.81186,57.006247 C 137.09165,30.869253 137.47437,26.846911 142.24138,20.95989 C 147.52738,14.431974 147.69709,14.414807 153.65388,19.805613 C 159.47903,25.077312 159.70123,27.878059 159.71954,96.251993 C 159.74218,180.63675 155.68688,170.09774 210.20053,227.44335 C 238.65777,257.37893 249.15767,269.44592 249.15767,272.21477 C 249.15767,275.68692 240.98764,284.09758 237.61481,284.09758 C 234.43043,284.09758 227.98697,277.60701 218.09259,264.43254 C 213.75194,258.65294 198.51339,241.77847 184.22911,226.93372 C 169.94483,212.08897 157.21922,198.10086 155.94999,195.84901 C 154.68078,193.59714 152.57121,191.75473 151.26206,191.75473 C 148.31927,191.75473 122.62616,218.19194 99.378893,245.14045 C 69.364731,279.93327 61.981588,285.69016 54.443459,280.17812 z "
       id="path2315"
       sodipodi:nodetypes="cccssssssssssssssssc" />
  </g>
</svg>
