<?xml version="1.0" encoding="UTF-8" standalone="no"?>
<!-- Created with Inkscape (http://www.inkscape.org/) -->
<svg
   xmlns:dc="http://purl.org/dc/elements/1.1/"
   xmlns:cc="http://web.resource.org/cc/"
   xmlns:rdf="http://www.w3.org/1999/02/22-rdf-syntax-ns#"
   xmlns:svg="http://www.w3.org/2000/svg"
   xmlns="http://www.w3.org/2000/svg"
   xmlns:sodipodi="http://sodipodi.sourceforge.net/DTD/sodipodi-0.dtd"
   xmlns:inkscape="http://www.inkscape.org/namespaces/inkscape"
   width="300"
   height="300"
   id="svg2"
   sodipodi:version="0.32"
   inkscape:version="0.45.1"
   version="1.0"
   sodipodi:docbase="C:\Documents and Settings\Martin\桌面"
   sodipodi:docname="drawing.svg"
   inkscape:output_extension="org.inkscape.output.svg.inkscape">
  <defs
     id="defs4" />
  <sodipodi:namedview
     id="base"
     pagecolor="#ffffff"
     bordercolor="#666666"
     borderopacity="1.0"
     gridtolerance="10000"
     guidetolerance="10"
     objecttolerance="10"
     inkscape:pageopacity="0.0"
     inkscape:pageshadow="2"
     inkscape:zoom="0.92866688"
     inkscape:cx="92.062263"
     inkscape:cy="142.45976"
     inkscape:document-units="px"
     inkscape:current-layer="layer1"
     width="300px"
     height="300px"
     inkscape:window-width="742"
     inkscape:window-height="577"
     inkscape:window-x="50"
     inkscape:window-y="0" />
  <metadata
     id="metadata7">
    <rdf:RDF>
      <cc:Work
         rdf:about="">
        <dc:format>image/svg+xml</dc:format>
        <dc:type
           rdf:resource="http://purl.org/dc/dcmitype/StillImage" />
      </cc:Work>
    </rdf:RDF>
  </metadata>
  <g
     inkscape:label="Layer 1"
     inkscape:groupmode="layer"
     id="layer1">
    <path
       style="fill:#000000"
       d="M 82.191327,280.56099 C 77.807767,277.75018 78.240807,260.87629 84.896757,175.14254 C 87.043867,147.48576 88.613377,100.56532 88.384577,70.874925 C 88.039857,26.148021 88.685017,16.892392 92.147327,16.892392 C 101.03246,16.892392 105.73113,30.460442 105.92467,56.676419 C 106.0279,70.658115 107.1454,82.736145 108.40803,83.516495 C 109.67068,84.296855 128.77556,85.581784 150.8633,86.371885 C 190.5528,87.791635 191.04101,87.730985 192.57553,81.190395 C 194.47752,73.083595 196.69986,46.446511 196.89111,29.463667 C 197.0094,18.960963 197.99491,16.892392 202.88041,16.892392 C 209.12548,16.892392 219.33859,29.65777 216.61687,34.061617 C 214.86295,36.899504 210.82237,115.0408 211.92193,124.85747 C 212.83717,133.02862 212.79018,145.62525 211.77299,164.78974 C 210.67211,185.53059 214.48513,240.00579 217.98429,253.52813 C 219.45773,259.22218 220.6707,268.20695 220.67979,273.49428 C 220.69393,281.7337 219.65855,283.10761 213.43546,283.10761 C 207.5201,283.10761 205.8996,281.32619 204.69061,273.49428 C 203.87439,268.20695 202.42352,259.22218 201.46642,253.52813 C 196.65014,224.87494 194.42972,200.22631 192.47339,153.69743 L 190.32806,102.67286 L 151.52961,102.71815 C 130.19048,102.74307 110.92003,103.91098 108.70635,105.31355 C 105.74198,107.19175 104.0404,121.01349 102.24826,157.7718 C 97.630707,252.48297 95.822037,271.42155 90.821547,277.42072 C 87.756817,281.09751 84.739947,282.19525 82.191327,280.56099 z "
       id="path2424" />
  </g>
</svg>
