<?xml version="1.0" encoding="UTF-8" standalone="no"?>
<!-- Created with Inkscape (http://www.inkscape.org/) -->
<svg
   xmlns:dc="http://purl.org/dc/elements/1.1/"
   xmlns:cc="http://web.resource.org/cc/"
   xmlns:rdf="http://www.w3.org/1999/02/22-rdf-syntax-ns#"
   xmlns:svg="http://www.w3.org/2000/svg"
   xmlns="http://www.w3.org/2000/svg"
   xmlns:sodipodi="http://sodipodi.sourceforge.net/DTD/sodipodi-0.dtd"
   xmlns:inkscape="http://www.inkscape.org/namespaces/inkscape"
   width="300"
   height="300"
   id="svg2"
   sodipodi:version="0.32"
   inkscape:version="0.45.1"
   version="1.0"
   sodipodi:docbase="C:\Documents and Settings\Martin\桌面"
   sodipodi:docname="冂-bronze.svg"
   inkscape:output_extension="org.inkscape.output.svg.inkscape">
  <defs
     id="defs4" />
  <sodipodi:namedview
     id="base"
     pagecolor="#ffffff"
     bordercolor="#666666"
     borderopacity="1.0"
     gridtolerance="10000"
     guidetolerance="10"
     objecttolerance="10"
     inkscape:pageopacity="0.0"
     inkscape:pageshadow="2"
     inkscape:zoom="0.92866691"
     inkscape:cx="323.59458"
     inkscape:cy="127.81134"
     inkscape:document-units="px"
     inkscape:current-layer="layer1"
     width="300px"
     height="300px"
     inkscape:window-width="742"
     inkscape:window-height="577"
     inkscape:window-x="50"
     inkscape:window-y="0" />
  <metadata
     id="metadata7">
    <rdf:RDF>
      <cc:Work
         rdf:about="">
        <dc:format>image/svg+xml</dc:format>
        <dc:type
           rdf:resource="http://purl.org/dc/dcmitype/StillImage" />
      </cc:Work>
    </rdf:RDF>
  </metadata>
  <g
     inkscape:label="Layer 1"
     inkscape:groupmode="layer"
     id="layer1">
    <path
       style="fill:#000000"
       d="M 261.02341,231.17461 C 260.44812,250.34655 256.68549,257.56154 247.2625,257.56154 C 240.8251,257.56154 240.19197,256.41163 237.42528,239.69465 C 235.79894,229.86787 234.44386,196.21856 234.414,164.91841 C 234.35847,106.65692 232.5173,75.805512 228.96489,73.610003 C 226.46067,72.062331 206.44587,69.701786 195.85983,69.705593 C 169.52728,68.307597 149.2745,68.69423 123.06879,71.62005 C 110.23264,71.156966 83.016596,74.937154 77.3285,77.973142 C 73.28126,80.133343 72.64671,84.113239 72.834404,106.16003 C 67.109311,146.8696 77.403989,221.74942 61.055013,256.42672 C 56.423363,261.05837 49.108632,261.16399 43.21812,256.68426 C 36.626525,251.6714 35.723705,241.70035 34.731158,162.95175 C 33.472185,63.062946 36.344496,52.603827 67.13921,44.942082 C 94.693205,38.086595 235.17447,38.517836 252.05437,45.509716 C 258.21423,48.061214 260.36846,51.222805 262.7133,61.153119 C 265.96621,74.929046 266.59682,211.88457 263.41638,213.85018 C 262.36668,214.49892 266.67391,198.06665 261.02341,231.17461"
       id="path2412"
       sodipodi:nodetypes="cssssccscccssssss" />
  </g>
</svg>
