<?xml version="1.0" encoding="UTF-8" standalone="no"?>
<!-- Created with Inkscape (http://www.inkscape.org/) -->

<svg
   xmlns:dc="http://purl.org/dc/elements/1.1/"
   xmlns:cc="http://creativecommons.org/ns#"
   xmlns:rdf="http://www.w3.org/1999/02/22-rdf-syntax-ns#"
   xmlns:svg="http://www.w3.org/2000/svg"
   xmlns="http://www.w3.org/2000/svg"
   xmlns:sodipodi="http://sodipodi.sourceforge.net/DTD/sodipodi-0.dtd"
   xmlns:inkscape="http://www.inkscape.org/namespaces/inkscape"
   width="300"
   height="300"
   id="svg2"
   version="1.1"
   inkscape:version="0.48.2 r9819"
   sodipodi:docname="Nouveau document 1">
  <defs
     id="defs4" />
  <sodipodi:namedview
     id="base"
     pagecolor="#ffffff"
     bordercolor="#666666"
     borderopacity="1.0"
     inkscape:pageopacity="0.0"
     inkscape:pageshadow="2"
     inkscape:zoom="1.979899"
     inkscape:cx="180.1012"
     inkscape:cy="146.91729"
     inkscape:document-units="px"
     inkscape:current-layer="layer1"
     showgrid="false"
     inkscape:window-width="1280"
     inkscape:window-height="999"
     inkscape:window-x="0"
     inkscape:window-y="24"
     inkscape:window-maximized="1" />
  <metadata
     id="metadata7">
    <rdf:RDF>
      <cc:Work
         rdf:about="">
        <dc:format>image/svg+xml</dc:format>
        <dc:type
           rdf:resource="http://purl.org/dc/dcmitype/StillImage" />
        <dc:title></dc:title>
      </cc:Work>
    </rdf:RDF>
  </metadata>
  <g
     inkscape:label="Calque 1"
     inkscape:groupmode="layer"
     id="layer1"
     transform="translate(0,-752.36218)">
    <path
       style="fill:#000000"
       d="m 92.817293,933.82103 c -10.679233,-1.25149 -24.142282,-1.79179 -27.705535,9.90593 -5.652544,8.47369 -10.36724,17.56726 -13.861051,26.82245 -4.503924,7.09094 -21.41977,11.97359 -19.55396,-1.0729 0.189309,-10.95683 2.614884,-22.13797 8.044032,-31.96686 11.12012,-11.22853 17.463045,-25.7542 22.970527,-39.83806 8.73363,-33.28427 10.854179,-67.63742 13.071394,-101.6825 -0.02387,-5.70501 1.951097,-15.90392 9.656369,-8.27203 9.692497,6.07881 18.428671,15.43902 16.941341,26.85819 0,3.92365 0,7.84729 0,11.77095 30.43545,-0.43419 74.68666,0.84762 104.9484,-2.76811 3.72492,-9.55485 4.69087,-14.78424 11.02663,-20.66479 4.73354,-10.26736 14.74292,-17.98495 20.85269,-26.75512 7.37121,5.94821 11.68987,16.08319 8.35752,24.97056 -8.88459,28.32518 -10.5515,58.71854 -4.29185,87.63371 -0.009,11.98416 10.31004,18.51815 14.87596,28.07388 7.33835,15.35797 17.39937,30.05313 20.08351,46.94806 -1.17994,14.63902 -17.80456,2.28016 -22.74153,-4.12846 -8.5829,-8.82606 -12.64286,-20.77901 -23.42787,-27.95802 -9.28036,-3.67001 -21.00432,-1.0125 -31.28438,-2.05873 -36.08645,-1.25052 -71.96001,2.77367 -107.962197,4.18185 z m 125.451677,-30.0635 c -1.64558,-20.09261 -5.63351,-40.05092 -10.13932,-59.78448 -33.15266,1.49928 -74.14227,-0.0714 -106.98177,4.76494 -3.795987,13.36505 -3.770906,18.85776 -6.346413,28.35255 -0.670539,9.38808 -7.850106,21.7733 -2.484982,29.42961 38.869525,1.13335 77.814155,-0.0771 116.651675,-1.74042 3.10334,-0.25763 6.2834,-0.246 9.30081,-1.0222 z"
       id="path2996"
       inkscape:connector-curvature="0"
       sodipodi:nodetypes="cccccccccccccccacccccccccccc" />
  </g>
</svg>
