<?xml version="1.0" encoding="UTF-8" standalone="no"?>
<!-- Created with Inkscape (http://www.inkscape.org/) -->
<svg
   xmlns:dc="http://purl.org/dc/elements/1.1/"
   xmlns:cc="http://web.resource.org/cc/"
   xmlns:rdf="http://www.w3.org/1999/02/22-rdf-syntax-ns#"
   xmlns:svg="http://www.w3.org/2000/svg"
   xmlns="http://www.w3.org/2000/svg"
   xmlns:sodipodi="http://sodipodi.sourceforge.net/DTD/sodipodi-0.dtd"
   xmlns:inkscape="http://www.inkscape.org/namespaces/inkscape"
   width="300"
   height="300"
   id="svg2"
   sodipodi:version="0.32"
   inkscape:version="0.45.1"
   version="1.0"
   sodipodi:docbase="C:\Documents and Settings\Martin\桌面"
   sodipodi:docname="drawing.svg"
   inkscape:output_extension="org.inkscape.output.svg.inkscape">
  <defs
     id="defs4" />
  <sodipodi:namedview
     id="base"
     pagecolor="#ffffff"
     bordercolor="#666666"
     borderopacity="1.0"
     gridtolerance="10000"
     guidetolerance="10"
     objecttolerance="10"
     inkscape:pageopacity="0.0"
     inkscape:pageshadow="2"
     inkscape:zoom="1.3133333"
     inkscape:cx="55.683535"
     inkscape:cy="151.57317"
     inkscape:document-units="px"
     inkscape:current-layer="layer1"
     width="300px"
     height="300px"
     inkscape:window-width="742"
     inkscape:window-height="577"
     inkscape:window-x="50"
     inkscape:window-y="0" />
  <metadata
     id="metadata7">
    <rdf:RDF>
      <cc:Work
         rdf:about="">
        <dc:format>image/svg+xml</dc:format>
        <dc:type
           rdf:resource="http://purl.org/dc/dcmitype/StillImage" />
      </cc:Work>
    </rdf:RDF>
  </metadata>
  <g
     inkscape:label="Layer 1"
     inkscape:groupmode="layer"
     id="layer1">
    <path
       style="fill:#000000"
       d="M 63.581258,277.67367 C 60.194539,276.319 59.206299,261.93796 62.499915,261.93796 C 66.219537,261.93796 72.766648,244.77389 75.446994,227.99562 C 88.638255,171.89222 75.166755,116.50666 79.110648,58.920052 C 81.649672,43.405168 82.624421,41.567238 91.667271,35.243938 C 110.35732,22.174776 143.16681,17.793468 179.73567,23.483484 C 197.99235,26.324175 205.69188,29.547077 214.22986,37.922238 C 219.63865,43.227884 220.00926,45.056288 218.51038,59.041227 C 213.9255,101.81964 215.74981,198.61891 216.91249,207.10521 C 218.98977,215.09319 219.89874,223.49192 222.28765,231.38488 C 228.39044,246.53944 235.28441,259.45338 237.27176,259.45338 C 241.22022,259.45338 239.56834,276.9237 235.47123,278.4959 C 229.56083,280.76393 219.48906,274.29227 219.48906,268.22651 C 215.75953,254.72283 210.44159,242.69265 206.90247,228.39605 C 201.9356,171.00776 207.18599,112.54352 204.58154,56.007072 C 204.58154,44.191779 192.41964,36.520154 168.36663,33.163032 C 135.02274,28.509152 103.58633,35.353502 94.937309,49.150098 C 90.37546,56.426985 90.153612,59.863101 91.684341,99.534177 C 93.743195,152.89225 93.756761,199.81808 91.718028,215.97312 C 89.905894,230.33241 81.027224,259.85248 75.328013,270.46707 C 71.202125,278.15138 68.665715,279.70746 63.581258,277.67367 z "
       id="path2365"
       sodipodi:nodetypes="csccssssccsscccsssssc" />
  </g>
</svg>
