<?xml version="1.0" encoding="utf-8"?>
<!-- Generator: Adobe Illustrator 11.0, SVG Export Plug-In . SVG Version: 6.0.0 Build 78)  -->
<!DOCTYPE svg PUBLIC "-//W3C//DTD SVG 1.0//EN"    "http://www.w3.org/TR/2001/REC-SVG-20010904/DTD/svg10.dtd" [
	<!ENTITY ns_flows "http://ns.adobe.com/Flows/1.0/">
	<!ENTITY ns_extend "http://ns.adobe.com/Extensibility/1.0/">
	<!ENTITY ns_ai "http://ns.adobe.com/AdobeIllustrator/10.0/">
	<!ENTITY ns_graphs "http://ns.adobe.com/Graphs/1.0/">
	<!ENTITY ns_vars "http://ns.adobe.com/Variables/1.0/">
	<!ENTITY ns_imrep "http://ns.adobe.com/ImageReplacement/1.0/">
	<!ENTITY ns_sfw "http://ns.adobe.com/SaveForWeb/1.0/">
	<!ENTITY ns_custom "http://ns.adobe.com/GenericCustomNamespace/1.0/">
	<!ENTITY ns_adobe_xpath "http://ns.adobe.com/XPath/1.0/">
	<!ENTITY ns_svg "http://www.w3.org/2000/svg">
	<!ENTITY ns_xlink "http://www.w3.org/1999/xlink">
]>
<svg 
	 xmlns:x="&ns_extend;" xmlns:i="&ns_ai;" xmlns:graph="&ns_graphs;" i:viewOrigin="241.875 659.8071" i:rulerOrigin="0 0" i:pageBounds="0 841.8896 595.2754 0"
	 xmlns="&ns_svg;" xmlns:xlink="&ns_xlink;" xmlns:a="http://ns.adobe.com/AdobeSVGViewerExtensions/3.0/"
	 width="100.98" height="114.256" viewBox="0 0 100.98 114.256" overflow="visible" enable-background="new 0 0 100.98 114.256"
	 xml:space="preserve">
	<metadata>
		<variableSets  xmlns="&ns_vars;">
			<variableSet  varSetName="binding1" locked="none">
				<variables></variables>
				<v:sampleDataSets  xmlns="&ns_custom;" xmlns:v="&ns_vars;"></v:sampleDataSets>
			</variableSet>
		</variableSets>
		<sfw  xmlns="&ns_sfw;">
			<slices></slices>
			<sliceSourceBounds  x="241.875" y="545.551" width="100.98" height="114.256" bottomLeftOrigin="true"></sliceSourceBounds>
		</sfw>
<?xpacket begin='﻿' id='W5M0MpCehiHzreSzNTczkc9d'?><x:xmpmeta xmlns:x='adobe:ns:meta/' x:xmptk='XMP toolkit 3.0-29, framework 1.6'>
<rdf:RDF xmlns:rdf='http://www.w3.org/1999/02/22-rdf-syntax-ns#' xmlns:iX='http://ns.adobe.com/iX/1.0/'>

 <rdf:Description rdf:about=''
  xmlns:pdf='http://ns.adobe.com/pdf/1.3/'>
 </rdf:Description>

 <rdf:Description rdf:about=''
  xmlns:tiff='http://ns.adobe.com/tiff/1.0/'>
 </rdf:Description>

 <rdf:Description rdf:about=''
  xmlns:xap='http://ns.adobe.com/xap/1.0/'
  xmlns:xapGImg='http://ns.adobe.com/xap/1.0/g/img/'>
  <xap:CreateDate>2009-10-10T15:29:32Z</xap:CreateDate>
  <xap:ModifyDate>2009-10-10T15:29:32Z</xap:ModifyDate>
  <xap:CreatorTool>Illustrator</xap:CreatorTool>
  <xap:Thumbnails>
   <rdf:Alt>
    <rdf:li rdf:parseType='Resource'>
     <xapGImg:format>JPEG</xapGImg:format>
     <xapGImg:width>228</xapGImg:width>
     <xapGImg:height>256</xapGImg:height>
     <xapGImg:image>/9j/4AAQSkZJRgABAgEASABIAAD/7QAsUGhvdG9zaG9wIDMuMAA4QklNA+0AAAAAABAASAAAAAEA&#xA;AQBIAAAAAQAB/+4ADkFkb2JlAGTAAAAAAf/bAIQABgQEBAUEBgUFBgkGBQYJCwgGBggLDAoKCwoK&#xA;DBAMDAwMDAwQDA4PEA8ODBMTFBQTExwbGxscHx8fHx8fHx8fHwEHBwcNDA0YEBAYGhURFRofHx8f&#xA;Hx8fHx8fHx8fHx8fHx8fHx8fHx8fHx8fHx8fHx8fHx8fHx8fHx8fHx8fHx8f/8AAEQgBAADkAwER&#xA;AAIRAQMRAf/EAaIAAAAHAQEBAQEAAAAAAAAAAAQFAwIGAQAHCAkKCwEAAgIDAQEBAQEAAAAAAAAA&#xA;AQACAwQFBgcICQoLEAACAQMDAgQCBgcDBAIGAnMBAgMRBAAFIRIxQVEGE2EicYEUMpGhBxWxQiPB&#xA;UtHhMxZi8CRygvElQzRTkqKyY3PCNUQnk6OzNhdUZHTD0uIIJoMJChgZhJRFRqS0VtNVKBry4/PE&#xA;1OT0ZXWFlaW1xdXl9WZ2hpamtsbW5vY3R1dnd4eXp7fH1+f3OEhYaHiImKi4yNjo+Ck5SVlpeYmZ&#xA;qbnJ2en5KjpKWmp6ipqqusra6voRAAICAQIDBQUEBQYECAMDbQEAAhEDBCESMUEFURNhIgZxgZEy&#xA;obHwFMHR4SNCFVJicvEzJDRDghaSUyWiY7LCB3PSNeJEgxdUkwgJChgZJjZFGidkdFU38qOzwygp&#xA;0+PzhJSktMTU5PRldYWVpbXF1eX1RlZmdoaWprbG1ub2R1dnd4eXp7fH1+f3OEhYaHiImKi4yNjo&#xA;+DlJWWl5iZmpucnZ6fkqOkpaanqKmqq6ytrq+v/aAAwDAQACEQMRAD8A9U4q7FXYq7FXYq7FXYq7&#xA;FXYq7FXYq7FXyT/zmV+ZGpHWrPyLp9y0NhDAt3qyxsV9WWYn0opKdVRF506Et7DFXznpXmXzHpDB&#xA;tJ1W809l3VrS4lgIINdvTZe5xV9O/wDOMf8AzkD5q1zzND5J81XB1M3ccraVqMgH1hXgjMrxSsKe&#xA;opjRiGb4gRSpB2VfUuKuxV2KuxV2KuxV2KuxV2KuxV2KuxV2KuxV2KuxV2KuxV2KuxV2KuxV2Kux&#xA;V2KuxV+e3/OSF817+dnmmU1/dzxQAHbaC3ii/wCNMVeaYqzX8ldXGkfmx5UvSeKDUoIZG8EuG9Bz&#xA;9CyHFX6P4q7FXYq7FXYq7FXYq7FXYq7FXYq7FXYq7FXYq7FXYq7FXYq7FXYq7FXYq7FXYq7FX5t/&#xA;nFcGf82PODkUprN9HStf7u4dK/TxxVh+KqtrczWt1DdQNxmgdZYm8GQhlP3jFX6i6TqMOp6VZalD&#xA;tDewRXEQrX4ZUDrv8mxVFYq7FXYq7FXYq7FXYq7FXYq7FXYq7FXYq7FXYq7FXYq7FXYq7FXYq7FX&#xA;Yq7FXYq/Mr8wZBL598yyBuYfVb1g4NQwNw5rXvXFUgxV2Kv0e/JK9a8/KPyjM1arpdtDv/xRGIu3&#xA;+pirNsVdirsVdirsVdirsVdirsVdirsVdirsVdirsVdirsVdirsVdirsVdirsVdirsVfmB5s/wCU&#xA;p1n/AJjrn/k82KpVirsVfoL/AM4yzib8jvK7gcaR3SU6/wB3ezpX6eOKvT8VdirsVdirsVdirsVd&#xA;irsVdirsVdirsVdirsVdirsVdirsVdirsVdirsVdirsVfmJ5zheDzhrsMn24tQukam4qs7g4qk2K&#xA;uxV99/8AOK04k/I3y+gFDC96hPiTezPX/h8Ves4q7FXYq7FXYq7FXYq7FXYq7FXYq7FXYq7FXYq7&#xA;FXYq7FXYq7FXYq7FXYq7FXYq/NT81LQ2f5m+bbahAj1i/CcqElfrLlSaeK0xVi2KuxV99/8AOK0A&#xA;j/I3y+4NTM965HgRezJT/hMVes4q7FXYq7FXYq7FXYq7FXYq7FXYq7FXYq7FXYq7FXYq7FXYq7FX&#xA;Yq7FXYq7FXYq/Nz849Sg1P8ANXzXeQUML6pcpGyigZY5DGGG5+1xrirDsVdir79/5xZlR/yL8uKp&#xA;qY2vlceBN/O1PuYYq9XxV2KuxV2KuxV2KuxV2KuxV2KuxV2KuxV2KuxV2KuxV2KuxV2KuxV2KuxV&#xA;2KsT/NTzza+SPIereYZnVZ7eFk0+N6fvLuQcYEA7/Huf8kE9sVfmzJI8kjSSMXkclnY7kkmpJxVb&#xA;irsVfb3/ADhvq63n5UTWJb95pmpTw8PBJUjmU/ItI33Yq92xV2KuxV2KuxV2KuxV2KuxV2KuxV2K&#xA;uxV2KuxV2KuxV2KuxV2KuxV2KuxVAa9r2j6BpF1rGsXUdlptmhkuLiU0VQOw7lidgo3J2GKvgr89&#xA;fzt1L8y9dVYVe08taezDTLFj8TE7G4mANPUYdB+yNh3JVeX4q7FXYq+iv+cMfO0GmecNT8r3UgSP&#xA;XYUls+R2+s2nI8B7vE7H/YjFX2VirsVdirsVdirsVdirsVdirsVdirsVdirsVdirsVdirsVdirsV&#xA;dirsVYB+Zv53eRPy8t2XVrv6xq5XlBo9rR7lqiqlx0iU/wAz09q9MVfFP5sfnR5u/MjURJqcn1XS&#xA;IGLWOjwsfQi7cmO3qSU/bYeNABtirAMVdirsVdiqrbXNxa3EVzbSvBcQsJIZo2KOjqaqystCCD0I&#xA;xV9M/lP/AM5hXdmkOk/mDE13AtEj123UGZQNh9YhFPU93T4v8ljvir6j8u+Z/L3mTTI9U0HUINSs&#xA;Jfsz27hgDSvFh1Rh3VgCO+KpnirsVdirsVdirsVdirsVdirsVdirsVdirsVdirsVdirsVQOua7o2&#xA;g6ZPqms3kVhp9uOU1zOwRB4Cp6k9ABue2KvlD83P+cvdS1EzaR+X6vp9iapJrkq0uZAdj6EZr6K+&#xA;DH4/9U4q+bbm6ubq4lubqV57mZi808rF3d2NSzM1SST1JxVSxV2KuxV6b5K/5xz/ADW83aYNUsNL&#xA;W00+RS1vPfyC39UAVHpoQZCG7Nx4nxxVh3m7yT5p8oaq2l+Y9Om0+7FeAkHwSKDTnFIKpIvupOKp&#xA;HirsVTXy55q8yeWtQXUNA1K40y8Gxlt3Kch/K4HwuvswIxV9BeQ/+c0des/TtfOulpqcFQG1Gx4w&#xA;XAHi0J/dSH/VKYq+jPI35vfl553jUeX9YhmuyvJtOl/c3S7VI9GSjNx7lKr74qzHFXYq7FXYq7FX&#xA;Yq7FXYq7FXYq7FXYq7FXYq7FXmX5u/n75O/Lq3e2lcan5jZawaNA4DLUVDXD/EIl+Y5HsO+Kvif8&#xA;xvzU85fmBqn13zBeF4I2JtNOiqlrAD2jjr18WarHxxViGKuxV2Ksk8kfl15x876kLDy3psl44I9e&#xA;enCCEHvLK1EX5VqewOKvr/8AKP8A5xY8peURBqnmMR6/5hWjgSLWyt3/AOKomH7wj+eT5hVOKvcc&#xA;VSrzL5V8ueZ9LfS/MGnw6lYSbmGdeXFqU5I32kYV2ZSCMVfL35n/APOG9/betqXkC6+uQ7sdEu2C&#xA;zKOtIZzRX9lfj/rE4q+bdW0fVtHv5dP1azmsL6E0ltriNopF+asAcVQeKuxVdHJJFIskbFJEIZHU&#xA;kMGBqCCOhGKvYPIH/OU35neVTFb31yPMWlpQNbagS04X/iu6H7wHb9vmB4Yq+l/y8/5yd/LPzgYr&#xA;Se6Og6vJRRZagQiMx7RXA/dNvsA3Fj/Lir1sEEVG4PQ4q7FXYq7FXYq7FXYq7FXYq7FXYqlfmTzT&#xA;5e8s6XJquv6hDp1hF9qedqVP8qKKs7Hsqgk4q+Ufza/5y91fVfW0nyEj6Xp7VSTWZQBeSDofRXcQ&#xA;r/lbv/qnFXzjPPNPM888jSzSsXklclmZmNSzMdyTiqnirsVTzyp5I82ebb8WHlzS7jUrioD+iv7u&#xA;OvQyymkcY93YYq+mvy0/5w0sbZodQ8/XovJRRv0LZMywj/JmuPhdvcR8f9Y4q+kdG0PR9D06LTdH&#xA;sodPsIRSK2tkWOMeJ4qBue56nFUbirsVdirsVY153/LjyZ530/6l5k0yK9CqRBc04XENe8Uy0dd9&#xA;6Voe4OKvlX8z/wDnEHzTofq6h5MmbX9MWrGxei38Y9gKJNT/ACaN4Lir5/uba4tbiS3uYnguIWKS&#xA;wyKUdGU0KsrUII8DiqlirsVdir0b8uPz8/MbyGY7fTr/AOu6OlAdIvuU1uF8Itw8X+wYCvUHFX1T&#xA;+W3/ADlL+Xfm70rPUpf8Oay9F+rXrj6u7HtFc0VPocIT2BxV7KCGAINQdwR0IxV2KuxV2KuxV2Ku&#xA;xVSu7y0srWW7vJ47a1gUvNcTMscaKOrM7EAAeJxV88/mh/zmB5c0gTad5IhGtaiKr+k5Qy2UbdKo&#xA;PheYj24r4McVfKnnHz15s85aodT8yalLqFzuIw5pHEp34xRLRI19lGKpDirsVZP5J/LTzx52ujb+&#xA;W9JmvVVgs1zQJbx1/wB+TPxjXbela+AxV9N/l1/zhr5f08Q3vne9Or3Yox0y0LRWin+V5Phml+jh&#xA;9OKvoXRtD0bRNPj07R7GDT7CL+7traNYowT1PFQBU9z3xVG4q7FXYq7FXYq7FXYq7FWDfmR+THkL&#xA;8wLc/pyxCaiF4w6vbUiu0p0HOhDqP5XBGKvkX80v+cZPPnkkTahZIdf8vx1Y31oh9aJBvWe3+Jlo&#xA;OrLyWnUjFXj2KuxV2KuxV6Z+Wn/OQf5h+Q2itrW7/SeiR0U6RfFpIlXwhevOGnbiePipxV9Zflp/&#xA;zkl+XXndYbVrkaJrklAdMvmChnPaGf4Y5fYbMf5cVerYq7FXYq7FXk/5vf8AORfk/wDL0SafERrH&#xA;mWm2lwOAsJPQ3MoDCPx40LewBrir43/MX83vPXn+8Muv37GzVuVvpcFY7SLw4xgnk3+U5Le+KsLx&#xA;V2Kso8j/AJZed/PF59W8t6XLeKrBZrsj07aL/jJM1EG29K1PYHFX1F+W3/OHXljSfSvvOlz+nL9a&#xA;N+j4S0VkjeDH4ZZqe/EeKnFX0Fp+nafptnFY6dbRWdlAvGG2gRY40XwVFAUYqiMVdirsVdirsVdi&#xA;rsVdirsVdirsVdirxz81f+cYvI/nb1tQ01V0DzDIS7Xlsg9CZz/v+AFVJJ6ulG7nlir5H/MP8l/z&#xA;B8hTN+m9NZtPDUj1W2rNaP4fvAPgJ/lkCn2xVg2KuxV2KuxV6p+XH/OSP5k+SVjtFuxrOjR0Uadq&#xA;BaQIo7Qy19SPboKlR/Lir6l/LT/nJn8u/O00OnyyNoeuTUVLC9I4SOf2YbgUR99gG4sey4q9bxV8&#xA;2f8AOSH/ADkfcaBPceTPJs/DV1BTVtWQgm2qN4YCP93fzN+x0HxfZVfIMssssryyu0ksjFpJGJZm&#xA;ZjUkk7kk4qsxVkvkr8ufOnna++qeWtKmvipAmuAOFvFX/fsz0jXbehNT2BxV9Qflt/zhv5e0z0r/&#xA;AM8Xf6ZvRRv0ZbForNT4O/wyy/8ACDxBxV9D6fp2n6bZxWOnW0VnZQLxhtoEWONF8FRAFGKojFXY&#xA;q7FXYq7FXYq7FXYq7FXYq7FXYq7FXYq7FVskccsbRyKHjcFXRgCrKRQgg9QcVeQ+ef8AnFj8rPM7&#xA;SXNpaN5f1F9/X03ikJb/ACrZgYqf6gU++KvDvMv/ADhh+Ydi7voWo2Os24rwV2a0nP8AsH5xD/kb&#xA;iryrzP8AlJ+ZXlcM+ueXL21hT7dysfrW4p4zwmSL/hsVYjirsVbFainXtTFX3B9T/Nz/AKFZ9D1L&#xA;j/Gn1Dl1b679U9flwr9r1/qfw/z9vt74q+Ldeh1WHXNRh1fn+lY7mZdQ9T7f1gSES8vfnWuKoOGG&#xA;aeVIYUaWaRgscaAszMTQBQNyTir6f/Jn/nEZruGDXfzEDwwuBJb+XkYxyFTuPrbijJX/AH2vxeJB&#xA;quKvqfSdH0rR7CLTtKs4bCwgFIbW3RYo1HsqgDFUXirsVdirsVdirsVdirsVdirsVdirsVdirsVd&#xA;irsVdirsVdirsVdirBfOf5I/lh5vV21fQrdbx6n9IWg+rXPI/tGSLjz/ANnyGKvI9Q/5wg8sSTlt&#xA;O8zXttASaRzwRTsB2+NDAP8AhcVZz+W//OMf5deSdRj1bjNrWrQnlb3N/wAGjhYdHihVQoYdmbkR&#xA;2pir13FWAec/yI/K3zjqp1fXNFWTU3AE11BLNbvIFFB6npOiuabciK++Kpr5S/Kv8u/KDCTy7oNr&#xA;Y3AFBdBTLcUIoR68pklp7csVZVirsVdirsVdirsVdirsVdirsVYH+dP5oJ+W/kptfFmL66luI7Oz&#xA;tmf00Msis9XYAniqRsaDr7dcVeA6F/zm5r41KIa95etH01mAnNi8qTqp6svqtIrU/lNK+IxV9VeX&#xA;9f0nzBotnrWkXC3Wm38Ymtp1rRlPiDuGB2YHcHY4qmGKuxV2KuxV2KuxV2KuxV2KuxV2KuxV2Kux&#xA;V2KuxV2KuxV2KuxV2KuxV2KuxV2KuxV87/8AObMjj8vdDjB+BtXVmXsSttMAf+GOKvjPFX2d/wA4&#xA;V67Ld/l/q2kSyF/0XqHOFT+xFdRqwUe3qRu304q+hsVdirsVdirsVdirsVdirsVdirsVdirsVdir&#xA;sVdirsVdirsVdirsVdirsVdirsVdir5x/wCc3J0Hkjy/AQecmps4PaiW7g/8TGKvjnFX09/zg7qH&#xA;DWPNmnV/v7e0uAv/ABheVCf+S2KvrbFXYq7FXYq7FXYq7FXYq7FXYq7FXYq7FXYq7FXYq7FXYq7F&#xA;XYq7FXYq7FXYq7FXYq+a/wDnN7/lFvLX/MdN/wAmcVfH+Kvf/wDnC27MX5o6lbknjcaPMAAB9tLi&#xA;3YEn/V5Yq+1cVdirsVdirsVdirsVdirsVdirsVdirsVdirsVdirsVdirsVdirsVdirsVdirsVdir&#xA;5q/5zfI/wv5ZFdzfTkDvQQjFXyBir2X/AJxJuvR/OnT4/wDlptbyLrTpCZOnf+7xV934q7FXYq7F&#xA;XYq7FXYq7FXYq7FXYq7FXYq7FXYq7FXYq7FXYq7FXYq7FXYq7FXYq7FXy7/znJNGLDyfCW/eNLfu&#xA;q/5KrACf+GGKvk3FWZ/k35utvKH5neX/ADBdmlnaXJS7frwhuI2t5X/2CSlvoxV+j8UsUsSSxOsk&#xA;Uiho5FIZWVhUEEbEEYquxV2KuxV2KuxV2KuxV2KuxV2KuxV2KuxV2KuxV2KuxV2KuxV2KuxV2Kux&#xA;V2KuxV8Of85eecY9c/M8aTbPztfL1sto1DVfrMp9WYj5BkQ+64q8OxV2KvbfyY/5yb8yeR1t9G1w&#xA;Sa15XjokcRat1aoNgLd2NGRR0jY0/lK4q+yvJ3njyt5x0lNV8uahFf2jUEgQ0kiY/sSxmjxt7MPw&#xA;xVPcVdirsVdirsVdirsVdirsVdirsVdirsVdirsVdirsVdirsVdirsVdirsVec/nZ+cWjflz5Zmm&#xA;MscvmK6jK6PppNWZzVRNIo3ESHcnvTiN8Vfnxe3t1fXk97eStPd3UjzXE7mrPJIxZ3Y+LManFVDF&#xA;XYq7FU68p+cvM3lHV49W8u6hLp96lAXjPwuta8JENUkQ/wArAjFX13+Uf/OWXlrzJ6Ok+cBHoWtt&#xA;REvKkWM7Hb7TEmBj4OeP+V2xV78rKyhlIZWFVYbgg9xireKuxV2KuxV2KuxV2KuxV2KuxV2KuxV2&#xA;KuxV2KuxV2KuxV2KrZZYoonlldY4o1LSSMQqqqipJJ2AAxV85/nB/wA5b6Po4m0byH6eqaoKpLrD&#xA;DlZwnp+5H+72Hj9jp9rpir5I1zXdY17VJ9V1m8lv9Rum5T3MzFnY9APYAbADYDYYqiPLflLzP5mv&#xA;fqPl/S7nU7nbkltGzhAe7sPhRfdiBir1jR/+cPvzgv4RJcrp2lMRX0ry5LP8v9GjuBX6cVRd1/zh&#xA;j+bEMReO80e5b/fcVxcBv+SlvGv44q8986/kp+Zvky2a817Q5YtPQgNfwslxAK7Au8LPwqdvjpir&#xA;B8Vdir1X8rP+cjPPvkERWAlGseXkIH6Ku2Y+mncW8u7Rew3T/JxV9Z/l1/zkN+W3ngRW9tfjTNYk&#xA;ov6KvysUrOe0T19OWvYK3LxAxV6ZirsVdirsVdirsVdirsVdirsVdirsVdirsVdirsVdiryj8zP+&#xA;ck/y78jiW0S4/TmuJVf0bYurBGHaefdI/cfE3+Tir5J/M/8APrz9+YLvb3919R0QtWPR7MlIaA/D&#xA;6rV5TN/rbV6AYq84xV6p+Rn5F6x+ZGri4uBJZeVbNx9f1ACjSEb+hb1FDIR1PRBud6Aqvuvyz5W8&#xA;veV9Ih0jQLCLT9PgHwQwilTShd2NWdzTdmJJxVNcVdiqyeCC4heCeNZYZVKSROAysrChVlOxBxV8&#xA;1fm//wA4h2GotPrP5fFLG9ary6FK3G2kPX/R3P8AdE/yt8HuoxV8p67oGt6Bqc2l61ZTafqEBpLb&#xA;XCFHHgRXqp7EbHtiqX4q7FXpPkX/AJyG/NPyasdvY6sb/TY6BdO1IG5hCjoqMSJY1HgjgYq9/wDJ&#xA;P/OZ/lDUGjtvNmmzaJOaBry3Jurb3ZlAWZPkFf54q938uea/LXmawF/oGp2+p2m3KS2kV+JIrxdR&#xA;8SN/ksAcVTXFXYq7FXYq7FXYq7FXYq7FXYq7FXYq8q/Mj/nJL8t/JIltRdfprWkqBptgyvxbwmm3&#xA;jj9xuw/lxV8q/mT/AM5I/mP539W0+tfoXRZKj9G2DMnNT2mm/vJNuo2U/wAuKvKsVdir3X8lf+cY&#xA;PMXm65t9Y80wy6R5YFJBG4Md1djqFjQ7xxt/vxhuPs16hV9p6Po+l6NpdtpWlW0dnp1nGIra2iFE&#xA;RB2H6yTuTucVRmKuxV2KuxV2Ksd86/l75O866b9Q8yaZFfRAH0ZiOM8RPeKZaOn0Gh71GKvlb8zf&#xA;+cPvM+jCXUPJc513TwSx0+TjHfRr1+HpHNT24t4KcVfPt7Y3thdy2d9byWt3AxSa3nRo5EYdVZGA&#xA;ZT88VUMVdiqP0bXda0O/TUNGvp9Ovo/sXNtI0TgeHJCNj3GKvffIf/OZvmvTI47Tzdp0euQLRfr8&#xA;BFtdAeLqAYpD8gnucVe0eX/+crvya1ZUFxqU+kTvQejf28gofeSETRD5lsVZ7pn5k/l7qig6d5m0&#xA;u6J34R3kBcfNOfIfSMVZDFNFNGJInWSNvsuhDA0NNiMVXYq7FXYq7FXYqhtS1TTNLs5L7U7uGxso&#xA;hWW5uJFijUf5TuQoxV4h59/5y/8Ay+0L1LXy5FL5k1BagSRVgs1YbbzOOT/7BCD/ADYq+bfzB/5y&#xA;E/M3zsJba91H9H6VLVTpen8oIWU/syNUySA9w7EewxV5riqvZWN7f3cVnY28l1dzsEht4EaSR2PR&#xA;VRQWY/LFXtvkT/nET8x/MCx3WutF5asHoaXA9W7KnuLdCAvykdT7Yq+kPy6/5xz/AC08kPDdwWR1&#xA;XWYiGXU9QpK6OO8UYAijoehC8v8AKOKvUMVdirsVdirsVdirsVdirsVYf+YP5S+RfP1p6PmHTlku&#xA;lXhBqUNI7uIdRwlANR/ksCvtir5I/NL/AJxX88eURLqOhhvMehJVmkt0Iu4VH+/bcciwH80dfEhc&#xA;VeJkEGh2IxVrFXYq7FXYqmOi+Y/MGhXIutF1K6024BB9W0meFjTx4EV+nFX1x/zjJ/zkBr3nDUJf&#xA;KPmphdapFA1xYaoqhGlSMgPHMqALzAaoYAVANd9yq+i8VdiqA13X9G0DSrjVtavIrDTbVeU9zM3F&#xA;VHQDxLE7BRuTsMVfLn5k/wDOZl7JJLYeQLJYIQSo1q+UPI3+VDbn4V9jJy91GKvnXzL5x80+aLz6&#xA;55h1W51O4qShuJGdUr1EafYQeygDFUnxVUt7e4uZ47e3ieaeVgkUUal3ZjsFVRUknFXv35Xf84i+&#xA;atf9LUfOMj+X9KajCyABv5F8CrVWD/Zgt/k4q+qfI/5Y+RvJFoLfy5pUNo5XjLeEepcy+PqTPVz/&#xA;AKteI7DFWU4q7FXYq7FXYq7FXYq7FXYq7FXYq7FXYq8o/NT/AJxw8h+fPVvki/QvmF6t+lLRRSRv&#xA;+XiH4Vk/1tm/ysVfHv5lfkt58/L65b9M2Rl0wtSDWLaslq9dlBegMbH+VwD4VG+KsExV2KuxV2Kv&#xA;sP8A5xK/Jq/0G1l8869C0F/qUHo6RaSCjx2rkM8zqejS8Rw8F/1sVfSOKuxV8x/85leVfPmrfoS+&#xA;0u1uL/y3ZRyfWoLVWkMNyzf3ssa1PEx0VWptv0ruq+S/Qm9b0fTb1q8fToeXLwp1rirItE/LL8w9&#xA;cdV0ny3qN2r0pKltKIt9xWVlEY+lsVew+Rf+cNfOmpulx5tvYdCs9i1rCVursjuPgPop8+bfLFX0&#xA;v+X/AOTP5eeQ41bQdLQX4XjJqlyfWu32of3jfYr3WMKvtirNsVdirsVdirsVdirsVdirsVdirsVd&#xA;irsVdirsVdiqncW9vcwSW9zEk0EqlJYZFDoynYqymoIOKvGfPP8Azib+WHmN5LnS4pPLl+9TysaG&#xA;2Le9s/wAe0ZTFXjWvf8AOFn5hWjs2jarp2qQA0USGS1mI8eBWSMf8jMVY9B/ziV+dUkyxvptrChN&#xA;DM95AVHueDO3/C4q90/KL/nE/wAv+VLqHWfNU0eu63CQ9vbKpFlA43DBXAaZgejOAB/LXfFXvmKu&#xA;xV//2Q==</xapGImg:image>
    </rdf:li>
   </rdf:Alt>
  </xap:Thumbnails>
 </rdf:Description>

 <rdf:Description rdf:about=''
  xmlns:dc='http://purl.org/dc/elements/1.1/'>
  <dc:format>image/svg+xml</dc:format>
 </rdf:Description>

</rdf:RDF>
</x:xmpmeta>
                                                                                                                                                                                                                                                                                                                                                                                                                                                                                                                                                                                                                                                                                                                                                                                                                                                                                                                                                                                                                                                                                                                                                                                                                                                                                                                                                                                                                                                                                                                                                                                                                                                                                                                                                                                                                                                                                                                                                                                                                                                                                                                                <?xpacket end='w'?>
			</metadata>
		<g id="レイヤー_1" i:layer="yes" i:dimmedPercent="50" i:rgbTrio="#4F008000FFFF">
			<g i:knockout="Off">
				<path i:knockout="Off" d="M2.845,64.765c-1.537,0.09-2.573-1.241-2.302-2.958c0.271-1.717,4.487-5.193,9.369-7.724
					c4.881-2.531,11.242-6.303,14.135-8.383s7.701-5.186,10.684-6.903s6.385-4.824,7.561-6.903s1.915-5.26,1.644-7.068
					c-0.271-1.808-0.419-6.394-0.329-10.19c0.09-3.797,0.386-8.53,0.657-10.519C44.535,2.127,45.422,0.5,46.236,0.5
					s2.441,0.222,3.616,0.493c1.175,0.271,2.211,1.233,2.302,2.137c0.09,0.904,0.608,4.01,1.15,6.903s0.838,9.476,0.657,14.628
					c-0.181,5.153,0.928,10.404,2.465,11.669c1.537,1.266,5.162,3.263,8.054,4.438s7.774,3.247,10.848,4.603
					c3.074,1.356,8.474,4.019,11.998,5.917c3.525,1.898,7.964,4.117,9.862,4.931s3.378,1.997,3.288,2.629
					c-0.091,0.633-1.2,1.742-2.466,2.466s-3.706,0.724-5.424,0s-5.268-1.759-7.89-2.301s-7.355-2.539-10.52-4.437
					c-3.164-1.898-9.525-5.449-14.135-7.89c-4.611-2.441-8.9-4.808-9.533-5.26c-0.633-0.452-1.816-0.452-2.63,0
					s-2.959,1.783-4.767,2.958C41.305,45.56,36.645,48,32.758,49.809s-9.508,4.544-12.491,6.082
					c-2.983,1.537-6.755,3.459-8.382,4.273c-1.627,0.813-3.698,2.145-4.603,2.958C6.378,63.935,4.381,64.675,2.845,64.765z"/>
				<path i:knockout="Off" fill="none" stroke="#000000" d="M2.845,64.765c-1.537,0.09-2.573-1.241-2.302-2.958
					c0.271-1.717,4.487-5.193,9.369-7.724c4.881-2.531,11.242-6.303,14.135-8.383s7.701-5.186,10.684-6.903s6.385-4.824,7.561-6.903
					s1.915-5.26,1.644-7.068c-0.271-1.808-0.419-6.394-0.329-10.19c0.09-3.797,0.386-8.53,0.657-10.519
					C44.535,2.127,45.422,0.5,46.236,0.5s2.441,0.222,3.616,0.493c1.175,0.271,2.211,1.233,2.302,2.137
					c0.09,0.904,0.608,4.01,1.15,6.903s0.838,9.476,0.657,14.628c-0.181,5.153,0.928,10.404,2.465,11.669
					c1.537,1.266,5.162,3.263,8.054,4.438s7.774,3.247,10.848,4.603c3.074,1.356,8.474,4.019,11.998,5.917
					c3.525,1.898,7.964,4.117,9.862,4.931s3.378,1.997,3.288,2.629c-0.091,0.633-1.2,1.742-2.466,2.466s-3.706,0.724-5.424,0
					s-5.268-1.759-7.89-2.301s-7.355-2.539-10.52-4.437c-3.164-1.898-9.525-5.449-14.135-7.89c-4.611-2.441-8.9-4.808-9.533-5.26
					c-0.633-0.452-1.816-0.452-2.63,0s-2.959,1.783-4.767,2.958C41.305,45.56,36.645,48,32.758,49.809s-9.508,4.544-12.491,6.082
					c-2.983,1.537-6.755,3.459-8.382,4.273c-1.627,0.813-3.698,2.145-4.603,2.958C6.378,63.935,4.381,64.675,2.845,64.765z"/>
			</g>
			<g i:knockout="Off">
				<path i:knockout="Off" d="M8.268,113.746c-1.989-0.09-3.172-0.978-2.629-1.972c0.542-0.995,3.427-2.696,6.41-3.78
					c2.983-1.085,7.865-3.156,10.848-4.603c2.983-1.447,7.495-3.74,10.026-5.096s6.304-3.797,8.383-5.424
					c2.079-1.627,3.854-5.621,3.944-8.875c0.09-3.254,0.164-8.284,0.164-11.177s0.148-5.629,0.329-6.082
					c0.181-0.452,1.29-0.674,2.465-0.493c1.175,0.181,2.359,1.512,2.63,2.958s0.641,4.479,0.822,6.739s0.402,5.292,0.493,6.739
					c0.09,1.446,0.978,3.221,1.973,3.944c0.994,0.724,2.843,1.981,4.108,2.794c1.267,0.813,4.299,2.736,6.74,4.273
					c2.44,1.537,6.804,3.608,9.697,4.603c2.893,0.995,6.738,2.548,8.547,3.452c1.808,0.904,6.098,1.866,9.533,2.137
					c3.435,0.271,5.949,1.75,5.588,3.287c-0.362,1.537-2.655,3.83-5.096,5.095c-2.441,1.266-8.284,0.008-12.985-2.794
					c-4.701-2.802-10.322-5.982-12.491-7.067c-2.169-1.084-5.275-2.786-6.902-3.78c-1.628-0.994-3.625-2.325-4.438-2.958
					c-0.813-0.633-3.698-1.151-6.41-1.151c-2.712,0-6.115,1.183-7.562,2.629c-1.446,1.446-3.591,3.444-4.767,4.438
					c-1.175,0.994-4.133,2.548-6.574,3.452s-6.213,2.679-8.382,3.944s-5.498,2.893-7.396,3.616
					C13.437,113.318,10.257,113.836,8.268,113.746z"/>
				<path i:knockout="Off" fill="none" stroke="#000000" d="M8.268,113.746c-1.989-0.09-3.172-0.978-2.629-1.972
					c0.542-0.995,3.427-2.696,6.41-3.78c2.983-1.085,7.865-3.156,10.848-4.603c2.983-1.447,7.495-3.74,10.026-5.096
					s6.304-3.797,8.383-5.424c2.079-1.627,3.854-5.621,3.944-8.875c0.09-3.254,0.164-8.284,0.164-11.177s0.148-5.629,0.329-6.082
					c0.181-0.452,1.29-0.674,2.465-0.493c1.175,0.181,2.359,1.512,2.63,2.958s0.641,4.479,0.822,6.739s0.402,5.292,0.493,6.739
					c0.09,1.446,0.978,3.221,1.973,3.944c0.994,0.724,2.843,1.981,4.108,2.794c1.267,0.813,4.299,2.736,6.74,4.273
					c2.44,1.537,6.804,3.608,9.697,4.603c2.893,0.995,6.738,2.548,8.547,3.452c1.808,0.904,6.098,1.866,9.533,2.137
					c3.435,0.271,5.949,1.75,5.588,3.287c-0.362,1.537-2.655,3.83-5.096,5.095c-2.441,1.266-8.284,0.008-12.985-2.794
					c-4.701-2.802-10.322-5.982-12.491-7.067c-2.169-1.084-5.275-2.786-6.902-3.78c-1.628-0.994-3.625-2.325-4.438-2.958
					c-0.813-0.633-3.698-1.151-6.41-1.151c-2.712,0-6.115,1.183-7.562,2.629c-1.446,1.446-3.591,3.444-4.767,4.438
					c-1.175,0.994-4.133,2.548-6.574,3.452s-6.213,2.679-8.382,3.944s-5.498,2.893-7.396,3.616
					C13.437,113.318,10.257,113.836,8.268,113.746z"/>
			</g>
		</g>
	</svg>
