<?xml version="1.0" encoding="utf-8"?>
<!-- Generator: Adobe Illustrator 11.0, SVG Export Plug-In . SVG Version: 6.0.0 Build 78)  -->
<!DOCTYPE svg PUBLIC "-//W3C//DTD SVG 1.0//EN"    "http://www.w3.org/TR/2001/REC-SVG-20010904/DTD/svg10.dtd" [
	<!ENTITY ns_flows "http://ns.adobe.com/Flows/1.0/">
	<!ENTITY ns_extend "http://ns.adobe.com/Extensibility/1.0/">
	<!ENTITY ns_ai "http://ns.adobe.com/AdobeIllustrator/10.0/">
	<!ENTITY ns_graphs "http://ns.adobe.com/Graphs/1.0/">
	<!ENTITY ns_vars "http://ns.adobe.com/Variables/1.0/">
	<!ENTITY ns_imrep "http://ns.adobe.com/ImageReplacement/1.0/">
	<!ENTITY ns_sfw "http://ns.adobe.com/SaveForWeb/1.0/">
	<!ENTITY ns_custom "http://ns.adobe.com/GenericCustomNamespace/1.0/">
	<!ENTITY ns_adobe_xpath "http://ns.adobe.com/XPath/1.0/">
	<!ENTITY ns_svg "http://www.w3.org/2000/svg">
	<!ENTITY ns_xlink "http://www.w3.org/1999/xlink">
]>
<svg 
	 xmlns:x="&ns_extend;" xmlns:i="&ns_ai;" xmlns:graph="&ns_graphs;" i:viewOrigin="226.6294 565.144" i:rulerOrigin="0 0" i:pageBounds="0 841.8896 595.2754 0"
	 xmlns="&ns_svg;" xmlns:xlink="&ns_xlink;" xmlns:a="http://ns.adobe.com/AdobeSVGViewerExtensions/3.0/"
	 width="49.956" height="60.711" viewBox="0 0 49.956 60.711" overflow="visible" enable-background="new 0 0 49.956 60.711"
	 xml:space="preserve">
	<metadata>
		<variableSets  xmlns="&ns_vars;">
			<variableSet  varSetName="binding1" locked="none">
				<variables></variables>
				<v:sampleDataSets  xmlns="&ns_custom;" xmlns:v="&ns_vars;"></v:sampleDataSets>
			</variableSet>
		</variableSets>
		<sfw  xmlns="&ns_sfw;">
			<slices></slices>
			<sliceSourceBounds  x="226.629" y="504.433" width="49.956" height="60.711" bottomLeftOrigin="true"></sliceSourceBounds>
		</sfw>
<?xpacket begin='﻿' id='W5M0MpCehiHzreSzNTczkc9d'?><x:xmpmeta xmlns:x='adobe:ns:meta/' x:xmptk='XMP toolkit 3.0-29, framework 1.6'>
<rdf:RDF xmlns:rdf='http://www.w3.org/1999/02/22-rdf-syntax-ns#' xmlns:iX='http://ns.adobe.com/iX/1.0/'>

 <rdf:Description rdf:about=''
  xmlns:pdf='http://ns.adobe.com/pdf/1.3/'>
 </rdf:Description>

 <rdf:Description rdf:about=''
  xmlns:tiff='http://ns.adobe.com/tiff/1.0/'>
 </rdf:Description>

 <rdf:Description rdf:about=''
  xmlns:xap='http://ns.adobe.com/xap/1.0/'
  xmlns:xapGImg='http://ns.adobe.com/xap/1.0/g/img/'>
  <xap:CreateDate>2009-10-10T15:19:28Z</xap:CreateDate>
  <xap:ModifyDate>2009-10-10T15:19:28Z</xap:ModifyDate>
  <xap:CreatorTool>Illustrator</xap:CreatorTool>
  <xap:Thumbnails>
   <rdf:Alt>
    <rdf:li rdf:parseType='Resource'>
     <xapGImg:format>JPEG</xapGImg:format>
     <xapGImg:width>212</xapGImg:width>
     <xapGImg:height>256</xapGImg:height>
     <xapGImg:image>/9j/4AAQSkZJRgABAgEASABIAAD/7QAsUGhvdG9zaG9wIDMuMAA4QklNA+0AAAAAABAASAAAAAEA&#xA;AQBIAAAAAQAB/+4ADkFkb2JlAGTAAAAAAf/bAIQABgQEBAUEBgUFBgkGBQYJCwgGBggLDAoKCwoK&#xA;DBAMDAwMDAwQDA4PEA8ODBMTFBQTExwbGxscHx8fHx8fHx8fHwEHBwcNDA0YEBAYGhURFRofHx8f&#xA;Hx8fHx8fHx8fHx8fHx8fHx8fHx8fHx8fHx8fHx8fHx8fHx8fHx8fHx8fHx8f/8AAEQgBAADUAwER&#xA;AAIRAQMRAf/EAaIAAAAHAQEBAQEAAAAAAAAAAAQFAwIGAQAHCAkKCwEAAgIDAQEBAQEAAAAAAAAA&#xA;AQACAwQFBgcICQoLEAACAQMDAgQCBgcDBAIGAnMBAgMRBAAFIRIxQVEGE2EicYEUMpGhBxWxQiPB&#xA;UtHhMxZi8CRygvElQzRTkqKyY3PCNUQnk6OzNhdUZHTD0uIIJoMJChgZhJRFRqS0VtNVKBry4/PE&#xA;1OT0ZXWFlaW1xdXl9WZ2hpamtsbW5vY3R1dnd4eXp7fH1+f3OEhYaHiImKi4yNjo+Ck5SVlpeYmZ&#xA;qbnJ2en5KjpKWmp6ipqqusra6voRAAICAQIDBQUEBQYECAMDbQEAAhEDBCESMUEFURNhIgZxgZEy&#xA;obHwFMHR4SNCFVJicvEzJDRDghaSUyWiY7LCB3PSNeJEgxdUkwgJChgZJjZFGidkdFU38qOzwygp&#xA;0+PzhJSktMTU5PRldYWVpbXF1eX1RlZmdoaWprbG1ub2R1dnd4eXp7fH1+f3OEhYaHiImKi4yNjo&#xA;+DlJWWl5iZmpucnZ6fkqOkpaanqKmqq6ytrq+v/aAAwDAQACEQMRAD8A9U4q7FXYq7FUJrGq2Oj6&#xA;Te6tfyelZafBJc3Mn8scKF3P3DFX5z+fPzT82+cPN8vmS6v7i3kSZpNLgimdVso6/AkBUrxIWlWW&#xA;hY7nFX2L/wA42/nBJ+YHlF7XVZA3mXReEN+3QzxMD6VxTxbiVen7QrsGAxV69irsVdirsVdirsVd&#xA;irsVdirsVdirsVdirsVdirsVdirsVdirsVdirsVdirsVeVf85RXV7bfkh5ha1JXn9VincGhEUl3E&#xA;rjr+1XifY4q+AMVekf8AOPvnv/Bn5o6TfTy+lpt836P1Mn7Po3BADN7RyhHPyxV+hmKuxV2KuxV2&#xA;KuxV2KuxV2KuxV2KuxV2KuxV2KuxV2KuxV2KuxV2KuxV2KuxVjH5neWm8zfl75h0JE5z31jMlsvj&#xA;Oq84f+Sqrir80yCDQ7EYq1ir9CP+cePzFXzv+WthcTy89X0sDT9VBNWaWFQElP8Axlj4sT/NyHbF&#xA;XpmKuxV2KuxV2KuxV2KuxV2KuxV2KuxV2KuxV2KuxV2KuxV2KuxV2KuxV2KuxV+dn59eTj5T/NbX&#xA;tOROFncTm+sQNl9C7/eqq+0bM0f+xxV59ir1j/nHD81U8g+elGoS8PL2shbTVGJ+GI1rDcH/AIxs&#xA;SG/yWbFX32rKyhlIZWFVYbgg9xireKuxVjn5j+Zbjyx5D17zBbRiW602ymnt0YVX1QtIyw/lDEFv&#xA;bFX5xat5n8xavq0msanqVzd6pKxdruSRjJU9lNfhA7Bdh0GKvTPy3/5ye/MjyjcQwahdv5i0VSBJ&#xA;ZX7l5lT/AIpuTykU+Abkvtir7U8ieedA87+WrXzDoUpks7iqvG4Cywyr9uKVQTR1+49RUEHFWQYq&#xA;7FXYq7FXYq7FXYq7FXYq7FXYq7FXYq7FXYq7FXYq+Zv+c1PI5utG0jznbR1l09zp+oMBv6ExLwMf&#xA;8lJeS/N8VfImKuxV9o/84l/m4fMXl1vJmrz89Z0OMGwkc1aexBCqP9aAkL/qlfA4q+g8VdiqSeed&#xA;EOu+S9e0YDk+o6fc20Y785YWVSPkxGKvzGxV2KvZv+cYfzYPkrzquk6jNw8u6+6QXJY/BBcE8YZ/&#xA;YVPBz/Kan7OKvu7FXYq7FXYq7FXYq7FXYq7FXYq7FXYq7FXYq7FXYq7FUk87+VbLzZ5R1by5eUEG&#xA;p2zwByK+nIRWKQDxjkCuPcYq/NHVtLvdJ1S70u/jMN7YzSW1zEeqyRMUcfQRiqExVOfJ3mvVvKXm&#xA;bT/MWkycL7TpRKgNeLr9l43p+zIhKt7HFX6Q+TPNmlebvLGneYtKflZajEJUUkFkb7Mkb0/ajcFW&#xA;9xiqdYq7FX5wfnN5Tk8qfmd5h0cx+nbrdyXFkKUH1a4PrQ08eKOFPuMVYVirsVffH/OMv5mSedvy&#xA;8igv5fU1vQSljfsxJaSML/o8zE1JLovFierKxxV65irsVdirsVdirsVdirsVdirsVdirsVdirsVd&#xA;irsVdir4t/5zE/L/APQ3na2812kXGx8wpS6Kj4VvbcBW6Cg9SPiw8SGOKvn3FXYq+if+cQvzUOi+&#xA;YpPJGpS00zXH9TTWY7RXwWnD5TqoX/WC+JxV9l4q7FXzl/zmH+WT6v5etvO+nRcr7RF9DUwoqz2T&#xA;tVX2/wB8yMT/AKrMT0xV8cYq7FXsH/OLHnZvLX5r2NnLJx0/zAp0y4U9PVkNbZqfzesFT5McVfem&#xA;KuxV2KuxV2KuxV2KuxV2KuxV2KuxV2KuxV2KuxV2KsG/Ov8AL9fPf5dapocaBtQVfrWlMdqXcALR&#xA;ip6cxWMnwbFX5zOjxu0cilHQlWVhQgjYgg4qtxVUt7ie2uIri3kaKeF1kilQ0ZXQ1VlI6EEYq/Rz&#xA;8nvzBg8++QNM8wAr9dZPq+qRLtwu4QBKKDoG2dR/KwxVmmKqV1a213azWl1Gs1tcI0U8Liqujgqy&#xA;sD1BBocVfnF+b3kKTyL+YOreXt2tIZPW06RqktazDnFuepUHgx/mBxVhuKoiwvbiwvra+tm4XFrK&#xA;k8LeDxsGU/eMVfqLYXkd7Y215F/d3MSTJ/qyKGH68VV8VdirsVdirsVdirsVdirsVdiriQBU7AdT&#xA;ir5T/Mv/AJzKvodTuNN8iWNu1rA7Rfpi9DS+qVNOcESsiqu3ws5ao/ZGKsK0b/nMT82rK6El+LDV&#xA;LctV4Jbf0iF/lR4Wjp7Fg304q+lvyh/Pryj+ZMBt7UNpuvwpzudInYM3EdXhkAUSoK77AjuMVel4&#xA;q7FXYq+E/wDnKr8uv8KfmNJqlpD6ekeYw17AV+ytyCPrUY/2bCT/AGeKvF8Vdir6E/5w58/HSPOt&#xA;15TupKWXmCPnahjst5bqWFK7D1IuQ9yFGKvtDFXYq+WP+c3fKqel5d82RIA4aTS7t6bkEGe3Ffak&#xA;2KvlLFXYq/UDypFLD5W0eGavqx2NsknIUbksKg1HY1xVNMVdirsVdirsVdirsVdirsVdiq2aKOaJ&#xA;4pByjkUo67ioYUI2xV+cv5uflZrf5dea59KvUaTTpmaTSNQp8Fxb123GwkSoDr2PsQSqwfFUfoOu&#xA;6roOs2es6TcNa6jYyrNbTp1Vl8R0II2IOxGxxV+jH5V/mFp/n/yTYeYrQCOWUGK/tga+jdRgCWPq&#xA;dtwy1/ZIOKstxV2KvOvz7/Lceffy6vtOt4w+sWX+naQe5uIgf3QP/FqFk8KkHtir88nR0dkdSrqS&#xA;GUihBHUEYqtxVH6DrN7oet2Gs2LcLzTriK6t27c4XDrX2qN8VfptoGs2euaHp+s2RraalbRXcBPX&#xA;hMgdQfejb4qj8VeY/wDOSHk6881flLq1pYRtNf2Jj1C1hQVZzbmsigdSxiZ+IHU0GKvz5xV7d/zj&#xA;f+Rl/wCdNet/MWsW5j8pabKJGMgp9cmjNVhjB6oG/vG/2PU7KvubFXYq7FUBrmv6JoOnSanrV9Bp&#xA;1hF/eXNy6xoCegqx3Y9gNzirxTzL/wA5kfljpsjw6PbX2uSL9maOMW9u3+zmKy/8ksVYJqP/ADnF&#xA;qzkjTfKdvAN+LXN283jQkJFD91cVSC7/AOc0/wA0Jai30zR7dTSh9G5dx47m44/8LiqWzf8AOYH5&#xA;xSPySTT4h/IlrUf8O7H8cVbt/wDnML84YpOTtp06/wC+5LUhev8AxW6H8cVZ35Q/5zaZp44fOGgK&#xA;kLUD3ulu3w+/1eYtUf8APX78VfRH/Kw/Jv8Agv8Axr+lIv8ADPo/WP0hvx414ceNOfqc/g4U5cvh&#xA;pXFWRYqkvm/yb5b836JLovmGyS+sJfi4NUMjgELJG4oyOK7EHFXwj+en5M335Z+Y0hjke78v6hyf&#xA;Sr5wOdFI5wy8QB6kdRuBRhuKbgKvM8Ve8f8AOIn5hyaB5+byzdSU0zzIvpoGOyXkQLQsP+Mg5R+5&#xA;K+GKvtzFXYq7FXwh/wA5U+QI/Kv5mTX9nF6emeYkOoQgD4VnLUuUH+zo/wDsxirxrFXYq+8/+cT/&#xA;ADBJq35NafDK3OTSLm408sTU8VYTID4cY51UewxV7DirsVed6r/zj3+Tmq60+s3vlqB76V/UlMck&#xA;8MTuTUs0EUiREk9fh371xVn9nZ2llaxWlnClvawKI4IIlCIiKKBVVaAAe2KquKuxV2Kvhz/nL7UP&#xA;Msv5ry2WovKNHtrW3bRITURGOSMGaRR9ksZ+as3X4QOwxV4dirsVdirsVdirsVfTv+A/Mf8A0JxT&#xA;hJ631n9O/VafF9S9TrSn2fT/AH/y+7FX1virsVeX/wDOSvlaHzB+T2u1i53OlRjU7V+6G1PKVh/z&#xA;w9QYq/PvFUdoerXGj63p+r2xpc6dcw3cB/y4JBIv4rir9QrW5huraK5hbnDOiyRMOhVxyU/ccVVM&#xA;Vdir5/8A+czvLqX35cWGtKlZ9Hv0DP4QXSGNx9MixYq+K8Vdir7W/wCcK0dfyr1MspAbW7gqSOo+&#xA;qWoqPpGKvfsVdirsVdirsVdirsVYn+Yv5XeTvzB0ldP8x2hkMJLWl7CRHc27Nsxiko3Wm6sCp2qN&#xA;hirwPUv+cHIzKzaZ5uKxE/DFc2QZgvvIkygn/YDFUiuv+cI/Oyj/AEXzBpspof71biLft9lJcVSe&#xA;7/5w0/NqAH0rnSLqgrSK5mFT4fvYI98VSyb/AJxL/OqOQKum2sq/zpeQAf8ADMp/DFUfZf8AOHP5&#xA;u3EnGZ9Ms1/nmuXYdP8AiqKQ4q9O/L3/AJwz0bS7+DUfOGqDWGgZZF0u2jMdszKa0lkcl5E/yQq+&#xA;9Rtir6Q9CD0PQ9NfQ48PSoOHClOPHpSm1MVX4q7FUNqen2+pabd6dcCtveQyW8w8UlQo34HFX5e6&#xA;lYT6dqN1p9wONxZzSW8y9KPExRh94xVDYq/S/wDLK5luvy38qXUprLPo2nyyGpPxPaxsdzv1OKsl&#xA;xV2KvNv+cj7Jbz8k/NMTU+C3imFfGC4il7f6mKvz0xV2KvvL/nE3S2sfyW02Zl4tqNzd3VDsaesY&#xA;Ad/EQjFXsWKuxV2KuxV2KuxV2KuxV2KuxV2KuxV2KuxV2KuxV2KuxV+e3/OR3lx9C/OTzFFwKw38&#xA;41GBuzC8USuR/wA9WdfoxV5pir9OfI+mtpfkry/pjrwex02ztmTfYwwIhG/+riqd4q7FXlf/ADk9&#xA;rMWmfkrr4ZqS33oWcA/maWdCw/5Fq5xV+f8AirsVfpf+Wfl5vLv5e+XdFdeE1lp9vHcL/wAXmMNN&#xA;/wAlC2KslxV2KuxV2KuxV2KuxV2KuxV2KuxV2KuxV2KuxV2KuxV2KvBf+cpvyX1Tzrpll5i8u25u&#xA;tf0lTBNaKQHuLRiXolerxOSyr3DN1NBirxn8mf8AnGnztrnmiyvvNOlTaP5dsZlmu0vUMU1x6Z5C&#xA;BIWo9HIozEAca0NcVfcGKuxV2Kvjn/nMj8x01XzHZ+SrGQNZ6J/pOolTUNeypRE/55RN97kdsVfO&#xA;OKs1/Jnyi3mz8zvL+isnO2kulnvR2+rW376YE9uSIVHucVfo/irsVdirsVdirsVdirsVdirsVdir&#xA;sVdirsVdirsVdirsVdirsVdirsVdirAPzr/NXT/y58mzak7LJrF2Gg0Wzbf1J6fbZevpxV5P9A6k&#xA;Yq/PK/vrzUL64v72Zri8u5HnuZ3NWeSRizsx8SxriqHxV9Zf84V+QzFaav54u4/iuD+jdMJ6+mhE&#xA;lw4/1n4KD/ktir6ixV2KuxV2KuxV2KuxV2KuxV2KuxV2KuxV2KuxV2KuxV2KuxV2KuxV2Ksa/MD8&#xA;w/LPkPy/LrWv3PpQiq21uu81xLQkRRL3Y0+Q6kgYq/P38zvzJ138wvNM+u6q3BDWOwslNY7a3BJW&#xA;NdhU71ZqfEfuxViWKpj5e0LUdf1yw0TTY/Vv9RnS2t07c5G41J7KOpPYYq/SnyX5V0/yn5V0vy5Y&#xA;f7y6ZbrAr0oXYbySED9qRyzH3OKp1irsVdirsVdirsVdirsVdirsVdirsVdirsVdirsVdirsVdir&#xA;sVdiqC1vWdO0TR73WNSlEFhp8L3F1Kd+McalmoO522HfFX51/mx+Z2s/mH5suNav2aOzQtHpdhWq&#xA;W9vX4VArTm3V27n2oMVYZirsVfVv/OHf5UNGJvzD1aChdXtdARx2Pwz3Ir47xof9f2xV9T4q7FXY&#xA;q7FXYq7FXYq7FXYq7FXYq7FXYq7FXYq7FXYq7FXYq7FXYq7FXzV/zmj58ey0HS/JdpJxl1Vvr2pA&#xA;Eg/V4GpCh8Vklq3+wxV8gYq7FXpv5C/lBcfmR5t+r3HOLy9poWbWLlNiVYn04EPZ5eJ37AE4q/QD&#xA;T7Cy06xt7CxhW3srSNYbaCMURI4wFVVHgAMVV8VdirsVdirsVdirsVdirsVdirsVdirsVdirsVdi&#xA;rsVdirsVdirsVdir8+/+clfMj67+cmvvz5QabIum26/yi1UJIv8AyO9Q/Tiry/FXYq/RD8hPy8Ty&#xA;N+W+m6dNEI9WvFF9qx/a+sTAH02/4xJxT6PfFXomKuxV2KuxV2KuxV2KuxV2KuxV2KuxV2KuxV2K&#xA;uxV2KuxV2KuxV2KuxV2KvzB8237ah5q1m/ckveX1zOxbqTLMzmvXxxVKcVZ/+Q/lJPNX5r+X9Mmj&#xA;9SzjuPrl4pFVMNoDMVb2coE+nFX6K4q7FXYq7FXYq7FXYq7FXYq7FXYq7FXYq7FXYq7FXYq7FXYq&#xA;7FXYq7FXYq7FX5e+ZrN7LzHqtnJvJbXlxC56bxysp7nwxVLcVfRX/OE+nJL5+1vUGFTa6X6SV7Ge&#xA;eM1+6IjFX2VirsVdirsVdirsVdirsVdirsVdirsVdirsVdirsVdirsVdirsVdirsVdirsVfnl/zk&#xA;RoDaJ+cvme3pSO6uvr8bdmF6guGI+TyMv0Yq84xV9N/84PXCLr/mq2P25LW1kX5RyOD/AMnBir65&#xA;xV2KpN5y82aT5R8sah5j1Zylhp0XqSBd2diQkcaD+Z3YKvucVfKcn/Obfnb9LmWPQNNGj86i0Yzm&#xA;59Pw+sCQR8vf0foxV9Nflr+ZPl38wfLUeuaK5UA+leWclPVt5gATG4HXrVWGxH3YqyvFXYq7FXYq&#xA;7FXYq7FXYq7FXYq7FXYq7FXYq+EPzW/5yU8/+Y/Ml6mgaxc6L5eglePT4bGQwSPGpKiWWWOkhZx8&#xA;VOVB0HiVUv8AK3/OTn5w6BMpbWTq9sDV7XU0Fwrf89PhmH0SYq+rfyY/P7y1+ZUL2YjOmeY7dOdx&#xA;pkjcg6CgaW3eg5qCdwQGHy3xV6lirsVfI/8Azm35V9HWfL/mmJPgu4JNOumA2DwN6sVfdllf/gcV&#xA;fMeKvWP+cZPPVt5R/NSya9f09P1mNtLuZCfhQzujROe20sagnsCcVffmKuxV89/85p629r+XelaV&#xA;G3E6lqStKK/aitonYin+u6H6MVfF+KvV/wDnGn8wLnyj+Z+nwNIRpWvSJpuoRVPEmVuMEnzjlYb/&#xA;AMpbxxV9+4q7FXYq7FXYq7FXYq7FXYq7FXYq7FXYq7FX5jedvL03lzzfrOhTLxbTbye3XqKokhCM&#xA;K9mSjD2xVJMVTnyb5p1Dyp5p0zzDp7EXWm3CTqoNA6g0kjY/yyISp9jir9LtD1mw1vRrHWNPf1bH&#xA;UYI7q2fxjlUOtR2NDuMVRuKvM/8AnI3ycfNP5Sa1bRR+pe6cg1OyA3PO1qzgDuWhMij54q/PfFWw&#xA;SDUbEYq/Qz/nH/8AMI+ePy007ULmX1NWsf8AQNVJ+0Z4AKSH/jLGVc+5OKvR8VfLH/Oc0jiPyXED&#xA;8DNqTMviVFqAf+GOKvlLFVexvJrK+t7yGnrW0qTR13HKNgw/EYq/T3y9rdjr2hafrVg3Oz1G3juo&#xA;DUH4ZVDAGncVoffFUwxV2KuxV2KuxV2KuxV2KuxV2KuxV2KuxV8bf85l+Q203zdY+cbaOlnrcYt7&#xA;1h2u7ZQFJ/4yQhaf6hxV86Yq7FX2z/zh350Osfl3ceXp35Xfl244Rgmp+q3RaSL7pBIvyAxV73ir&#xA;TKrKVYBlYUZTuCD2OKvzf/OHyO/kr8xdZ0EIVs4pjNpxI2NrP+8hoe/FW4E+IOKsMxV7x/ziD58O&#xA;hfmFJ5duZeOn+ZI/SQE/Ct5AC8J36c15p7krir7cxV81/wDObuhzXHlfy3raKTHp95PaSEdvrkau&#xA;CfatrSuKvj/FXYq+sf8AnDT8zJ7iG8/L/UZeS2qNfaKW6hC/+kQj5M4kUe7Yq+o8VdirsVdiriQB&#xA;U7AdTir5/wDP/wDzmH5K0K6nsPLdlJ5iu4WKNdBxb2fIGh4SFXeSniqcT2bFXkWs/wDOZH5r3rML&#xA;CHTtLj/Y9KBpZAPdpnkU/wDAjFWK3n/OSv53XZPqeaJUBFKQwWsNBWu3pxL9/XFUF/yv785P+psv&#xA;v+CX/mnFVe1/5yK/Oq2blH5qumNQf3qQSio9pI3H0YqynQf+cwfzc0+Rf0i9jrMX7YuLdYXI9mtj&#xA;CAf9icVfUH5L/nNpH5n6LdXdraPp+o6c6R6jYO4lCeqGMbpIAvJH4N1UGoPzKr0TFWL/AJl+Q9N8&#xA;9+TNR8t31F+spytLgiphuU3hlHf4W+0O61HfFX5v6xpN/o+rXmk6hEYb6wmkt7mI/syRMVYfeMVQ&#xA;eKvYf+cVvOv+G/zXs7SeThYa+h02ep2ErkNbtTx9VQnyY4q+88Vdir5t/wCczPy9/SHl2w87Wcdb&#xA;nSGFpqTDqbWd/wB0x/4xzNT/AGeKvj3FUVpepXml6laalYyGK8spo7i2lHVZImDo30MMVfpd5H81&#xA;2Xm3yjpPmOy2g1O3SYpWvCTpLGT4xyBkPyxVKvzf8l/4z/LjW9AjQPdzwGWwBNP9JgIlhFe3J0Cn&#xA;2OKvzekjkikaORSkiEq6MCGDA0IIPQjFVuKs4/JHXpdD/NryrfxtxB1CG1lPX91dn6tJsP8AIlOK&#xA;v0cxV2KuxV2KoXVrI3+lXtiH9M3UEsAk68TIhWv0VxV+Y3mDQNW8v61eaLq9s1pqNjIYriBxQhh3&#xA;HirDdWGxG4xVLsVdirsVdiqpBBNcTRwQRtLPKwSKJAWdnY0VVUbkk7ADFX3t/wA42/lPc/l/5Jdt&#xA;UXh5g1tkudRi2PoqgIhgJHUoGYt/lMR2rir1rFXYq+Qf+czfy8Fjrmn+eLKLjb6oBZaoVGwuolrC&#xA;7e8kK8f9hir5pxVVtbm4tbmK6t5DFcQOssMq7MroeSsPcEYq/UXSrqS70uzupU9OW4gjleM7FWdA&#xA;xH0E4qisVQOuaLp2uaNfaPqUXrWGoQSW1zH4pKpU0PY77HscVfmz5+8m6j5M836n5a1D4ptPmKJL&#xA;SgliYcopVHg6MG9umKsfxV9Tf84ZfmQkcl/5Bv5iDMWv9FDHbkF/0mFf9iBIB7OcVfV2KvjD/nK7&#xA;8mp9A1+bzvo0BOhavJz1NEFRbXsh+Jj4RztuD/OSO64q+esVZF+XMbyfmF5XjjHJ31exVVHUk3KA&#xA;DFX6ZYq7FXYq7FXYqxXzr+VvkDzsqf4m0aC/miHGK5+OKdV68RNE0cnGprx5UxV5lqf/ADhp+VF0&#xA;S1pc6pp534pDcRSIPmJopG/4bFWPXX/OD/l1m/0XzReRLU7S20Upp2FVaLFUu/6EYFf+U228P0Z/&#xA;2d4qmlh/zhD5WRwdQ8zX1wld1ghhgNPm5n/Vir1P8vvyF/LXyJcre6Ppxn1RRRdTvX9edaih4bKk&#xA;ZIO5RQcVehYq7FXYqx38w/JWnedvJ2p+Wr/4Y76KkM1KmKZDyilH+o4B9xt3xV+cHmXy5q3lrXr7&#xA;QtXhMGo6fK0NxH2qvRlP7SsPiU9xviqa/ln5KvPOnnjSfLtsjMl3Opu3Ff3dsh5TyE9uMYNPeg74&#xA;q/StEREVEUKigBVAoABsAAMVbxV2Kvnr/nLv8qzr3lqLznpkPLVdCQpqCqPilsCSxbbqYGJb/VLe&#xA;AxV8YYqmHl/XdT0DW7HW9Ll9HUNPmS4tpOwdDWjDup6MO42xV+jn5Z+fNO89+S9O8yWQEf1pON1b&#xA;V5GG4j+GWInb7LfZPdaHviqf6npmn6pp9xp2o28d3Y3cbRXNtKoZHRhQqwOKvk/8yf8AnDbW4tRl&#xA;vfIVzDc6bKSy6VeSGOeEnfhHKwKSJ4F2Vh35dcVTX8iv+cWvMug+bbPzT5xeCAaY3rWOmQSCZ2nA&#xA;IR5XUcFVK8gFYkmnQdVX1JirsVdirsVdirsVdirsVdirsVdirsVdirsVdirzv8zvyH8g/mNPBea1&#xA;FPa6lbrwGo2DpFO8Y6RyeokqOo7VWo7HFUd+Wn5PeSPy6tZo/L1s5u7kBbrUbphLcyKu4UsAiqtd&#xA;+KKBirNsVdirsVWTQxTwyQzIskMqlJI2AKsrChUg9QRir89fz4/K2f8ALzz1cWMKN+g7/ldaLMak&#xA;eix+KEn+aFvhPenFv2sVecYq+of+cI/NUiaj5h8qSPWKaJNUtU7B42WCenuwkj/4HFX1nirsVdir&#xA;sVdirsVdirsVdirsVdirsVdirsVdirsVdirsVdirsVdirsVdirsVee/nl+Vtt+Yvke401FVdas63&#xA;Oi3DUHG4Vf7tmPRJR8LfQ37OKvzzu7S5s7qa0uomgureRop4XBV0kQlWVgehUihxV7D/AM4j3E0X&#xA;50WKRglJ7O7jmpWgURc96f5SDrir7txV2KuxV2KuxV2KuxV2KuxV2KuxV2KuxV2KuxV2KuxV2Kux&#xA;V2KuxV2KuxV2KuxV8sf85X/kdPPLJ+YHlu1aWQgDzBZQoWb4RQXaqvsKS/8ABfzHFUm/5ww8kalN&#xA;5p1HzfcQPHplnaNZ2kzKQstxO6luDH7QjjQhqfzDFX2BirsVdirsVdirsVdirsVdirsVdirsVdir&#xA;sVdirsVf/9k=</xapGImg:image>
    </rdf:li>
   </rdf:Alt>
  </xap:Thumbnails>
 </rdf:Description>

 <rdf:Description rdf:about=''
  xmlns:dc='http://purl.org/dc/elements/1.1/'>
  <dc:format>image/svg+xml</dc:format>
 </rdf:Description>

</rdf:RDF>
</x:xmpmeta>
                                                                                                                                                                                                                                                                                                                                                                                                                                                                                                                                                                                                                                                                                                                                                                                                                                                                                                                                                                                                                                                                                                                                                                                                                                                                                                                                                                                                                                                                                                                                                                                                                                                                                                                                                                                                                                                                                                                                                                                                                                                                                                                                <?xpacket end='w'?>
			</metadata>
		<g id="レイヤー_1" i:layer="yes" i:dimmedPercent="50" i:rgbTrio="#4F008000FFFF">
			<g i:knockout="Off">
				<path i:knockout="Off" d="M19.094,60.198c-0.397-0.132-2.51-3.383-4.695-7.223c-2.185-3.84-4.135-9.419-4.334-12.399
					s1.102-6.663,2.889-8.186c1.788-1.523,3.63-4.34,4.093-6.26c0.463-1.92-0.078-5.17-1.204-7.223
					c-1.126-2.053-3.076-6.224-4.334-9.27c-1.258-3.045-2.179-6.133-2.046-6.861c0.132-0.728,0.566-1.703,0.963-2.167
					s1.264,0.566,1.926,2.287s1.637,3.726,2.167,4.454s2.101,3.274,3.491,5.658s2.745,5.742,3.01,7.463s-0.276,5.188-1.204,7.704
					s-2.444,5.387-3.371,6.38s-2.01,3.376-2.408,5.296c-0.397,1.92-0.289,4.25,0.241,5.177c0.53,0.927,1.505,3.094,2.167,4.815
					s1.691,3.78,2.287,4.575c0.596,0.794,1.083,2.474,1.083,3.731S19.491,60.331,19.094,60.198z"/>
				<path i:knockout="Off" fill="none" stroke="#000000" d="M19.094,60.198c-0.397-0.132-2.51-3.383-4.695-7.223
					c-2.185-3.84-4.135-9.419-4.334-12.399s1.102-6.663,2.889-8.186c1.788-1.523,3.63-4.34,4.093-6.26
					c0.463-1.92-0.078-5.17-1.204-7.223c-1.126-2.053-3.076-6.224-4.334-9.27c-1.258-3.045-2.179-6.133-2.046-6.861
					c0.132-0.728,0.566-1.703,0.963-2.167s1.264,0.566,1.926,2.287s1.637,3.726,2.167,4.454s2.101,3.274,3.491,5.658
					s2.745,5.742,3.01,7.463s-0.276,5.188-1.204,7.704s-2.444,5.387-3.371,6.38s-2.01,3.376-2.408,5.296
					c-0.397,1.92-0.289,4.25,0.241,5.177c0.53,0.927,1.505,3.094,2.167,4.815s1.691,3.78,2.287,4.575
					c0.596,0.794,1.083,2.474,1.083,3.731S19.491,60.331,19.094,60.198z"/>
			</g>
			<g i:knockout="Off">
				<path i:knockout="Off" d="M28.243,18.789c-0.794,0.529-1.607-0.121-1.806-1.445s-0.849-3.166-1.444-4.093
					c-0.596-0.927-1.246-2.227-1.445-2.889s-0.47-1.962-0.602-2.889c-0.132-0.927,0.518-1.469,1.445-1.204s1.956,0.86,2.287,1.324
					c0.331,0.463,1.089,1.709,1.685,2.769s1.246,2.685,1.445,3.611s0.253,2.173,0.121,2.769S29.037,18.259,28.243,18.789z"/>
				<path i:knockout="Off" fill="none" stroke="#000000" d="M28.243,18.789c-0.794,0.529-1.607-0.121-1.806-1.445
					s-0.849-3.166-1.444-4.093c-0.596-0.927-1.246-2.227-1.445-2.889s-0.47-1.962-0.602-2.889c-0.132-0.927,0.518-1.469,1.445-1.204
					s1.956,0.86,2.287,1.324c0.331,0.463,1.089,1.709,1.685,2.769s1.246,2.685,1.445,3.611s0.253,2.173,0.121,2.769
					S29.037,18.259,28.243,18.789z"/>
			</g>
			<g i:knockout="Off">
				<path i:knockout="Off" d="M20.779,43.947c0.265-0.993,1.077-1.318,1.806-0.722c0.729,0.596,1.378,1.733,1.444,2.527
					c0.066,0.795,0.445,1.878,0.843,2.408c0.397,0.529,0.831,1.667,0.963,2.528s0.078,2.052-0.121,2.648
					c-0.199,0.596-0.957,0.813-1.686,0.481c-0.729-0.331-1.812-1.468-2.408-2.527c-0.596-1.06-1.138-2.739-1.204-3.732
					S20.515,44.94,20.779,43.947z"/>
				<path i:knockout="Off" fill="none" stroke="#000000" d="M20.779,43.947c0.265-0.993,1.077-1.318,1.806-0.722
					c0.729,0.596,1.378,1.733,1.444,2.527c0.066,0.795,0.445,1.878,0.843,2.408c0.397,0.529,0.831,1.667,0.963,2.528
					s0.078,2.052-0.121,2.648c-0.199,0.596-0.957,0.813-1.686,0.481c-0.729-0.331-1.812-1.468-2.408-2.527
					c-0.596-1.06-1.138-2.739-1.204-3.732S20.515,44.94,20.779,43.947z"/>
			</g>
			<g i:knockout="Off">
				<path i:knockout="Off" d="M0.556,46.114c-0.265-1.125,0.439-1.884,1.565-1.686c1.125,0.199,2.317,0.849,2.648,1.445
					s0.873,1.896,1.204,2.889s0.818,2.348,1.083,3.01s0.103,1.854-0.361,2.648c-0.463,0.794-1.222,1.065-1.686,0.602
					s-1.168-1.601-1.565-2.528c-0.397-0.927-1.102-2.281-1.565-3.009S0.82,47.239,0.556,46.114z"/>
				<path i:knockout="Off" fill="none" stroke="#000000" d="M0.556,46.114c-0.265-1.125,0.439-1.884,1.565-1.686
					c1.125,0.199,2.317,0.849,2.648,1.445s0.873,1.896,1.204,2.889s0.818,2.348,1.083,3.01s0.103,1.854-0.361,2.648
					c-0.463,0.794-1.222,1.065-1.686,0.602s-1.168-1.601-1.565-2.528c-0.397-0.927-1.102-2.281-1.565-3.009
					S0.82,47.239,0.556,46.114z"/>
			</g>
			<g i:knockout="Off">
				<path i:knockout="Off" d="M7.779,27.696c-0.397,0-0.939-1.029-1.204-2.287s-0.645-2.991-0.843-3.852s-0.957-1.944-1.685-2.408
					s-1.487-1.222-1.686-1.685C2.163,17,2.813,16.459,3.806,16.26c0.993-0.198,2.401,0.452,3.13,1.445s1.541,2.51,1.806,3.371
					c0.265,0.86,0.481,2.323,0.481,3.25c0,0.927-0.163,2.064-0.361,2.528S8.176,27.696,7.779,27.696z"/>
				<path i:knockout="Off" fill="none" stroke="#000000" d="M7.779,27.696c-0.397,0-0.939-1.029-1.204-2.287
					s-0.645-2.991-0.843-3.852s-0.957-1.944-1.685-2.408s-1.487-1.222-1.686-1.685C2.163,17,2.813,16.459,3.806,16.26
					c0.993-0.198,2.401,0.452,3.13,1.445s1.541,2.51,1.806,3.371c0.265,0.86,0.481,2.323,0.481,3.25
					c0,0.927-0.163,2.064-0.361,2.528S8.176,27.696,7.779,27.696z"/>
			</g>
			<g i:knockout="Off">
				<path i:knockout="Off" d="M40.16,18.547c-1.92,0.265-3.329,0.969-3.13,1.565s1.011,1.138,1.806,1.204
					c0.794,0.066,3.069,0.229,5.056,0.361s4.099-0.139,4.695-0.602c0.596-0.464,0.975-1.276,0.843-1.806
					c-0.132-0.53-1.486-1.018-3.009-1.084C44.897,18.12,42.081,18.283,40.16,18.547z"/>
				<path i:knockout="Off" fill="none" stroke="#000000" d="M40.16,18.547c-1.92,0.265-3.329,0.969-3.13,1.565
					s1.011,1.138,1.806,1.204c0.794,0.066,3.069,0.229,5.056,0.361s4.099-0.139,4.695-0.602c0.596-0.464,0.975-1.276,0.843-1.806
					c-0.132-0.53-1.486-1.018-3.009-1.084C44.897,18.12,42.081,18.283,40.16,18.547z"/>
			</g>
			<g i:knockout="Off">
				<path i:knockout="Off" d="M36.428,49.605c0.132-0.662,2.841-1.258,6.019-1.324c3.178-0.066,5.616,0.421,5.417,1.083
					s-0.903,1.475-1.565,1.806c-0.662,0.331-2.558,0.548-4.213,0.481c-1.655-0.066-3.66-0.283-4.454-0.481
					C36.837,50.971,36.296,50.267,36.428,49.605z"/>
				<path i:knockout="Off" fill="none" stroke="#000000" d="M36.428,49.605c0.132-0.662,2.841-1.258,6.019-1.324
					c3.178-0.066,5.616,0.421,5.417,1.083s-0.903,1.475-1.565,1.806c-0.662,0.331-2.558,0.548-4.213,0.481
					c-1.655-0.066-3.66-0.283-4.454-0.481C36.837,50.971,36.296,50.267,36.428,49.605z"/>
			</g>
		</g>
	</svg>
