<?xml version="1.0" encoding="UTF-8" standalone="no"?>
<!-- Created with Inkscape (http://www.inkscape.org/) -->
<svg xmlns:dc="http://purl.org/dc/elements/1.1/" xmlns:cc="http://web.resource.org/cc/" xmlns:rdf="http://www.w3.org/1999/02/22-rdf-syntax-ns#" xmlns:svg="http://www.w3.org/2000/svg" xmlns="http://www.w3.org/2000/svg" xmlns:sodipodi="http://sodipodi.sourceforge.net/DTD/sodipodi-0.dtd" xmlns:inkscape="http://www.inkscape.org/namespaces/inkscape" width="300" height="300" id="svg2" sodipodi:version="0.32" inkscape:version="0.45.1" version="1.0" sodipodi:docbase="C:\Documents and Settings\Martin\桌面" sodipodi:docname="drawing.svg" inkscape:output_extension="org.inkscape.output.svg.inkscape">
  <defs id="defs4"/>
  <sodipodi:namedview id="base" pagecolor="#ffffff" bordercolor="#666666" borderopacity="1.0" gridtolerance="10000" guidetolerance="10" objecttolerance="10" inkscape:pageopacity="0.0" inkscape:pageshadow="2" inkscape:zoom="0.65666665" inkscape:cx="158.8367" inkscape:cy="74.320984" inkscape:document-units="px" inkscape:current-layer="layer1" width="300px" height="300px" inkscape:window-width="742" inkscape:window-height="577" inkscape:window-x="50" inkscape:window-y="0"/>
  <metadata id="metadata7">
    <rdf:RDF>
      <cc:Work rdf:about="">
        <dc:format>image/svg+xml</dc:format>
        <dc:type rdf:resource="http://purl.org/dc/dcmitype/StillImage"/>
      </cc:Work>
    </rdf:RDF>
  </metadata>
  <g inkscape:label="Layer 1" inkscape:groupmode="layer" id="layer1">
    <path style="fill: rgb(0, 0, 0);" d="M 85.948728,277.90667 C 85.218761,276.00436 86.389156,263.56934 88.549612,250.27327 C 92.70835,224.67934 94.036814,142.76687 91.308661,80.151012 C 90.041635,51.069992 90.467952,45.499259 94.683278,36.05652 C 97.33696,30.112001 101.98941,23.920373 105.02204,22.297357 C 108.3296,20.527205 123.54249,19.317188 143.04082,19.273364 C 178.68748,19.19326 186.79453,21.938561 190.49413,35.342555 C 191.46583,38.863221 192.4913,70.549202 192.77291,105.75585 C 190.70461,137.94491 194.82805,165.90624 200.41692,196.65301 C 204.19325,220.3108 204.92516,223.88587 206.96936,228.65905 C 209.75076,235.15356 212.20667,246.22847 213.84464,259.66313 C 214.82844,267.73228 214.17911,270.5472 211.05752,271.74508 C 204.7328,274.1721 199.99388,271.20988 198.17706,263.69368 C 197.26381,259.91556 195.34378,252.2155 193.91034,246.58243 C 183.79131,206.81744 176.87523,147.18956 176.4162,95.754943 C 176.0687,56.817354 174.55719,44.07637 169.28669,35.658073 C 165.74318,29.998223 164.28622,29.662493 148.46502,30.860242 C 127.4561,32.450719 110.04042,39.206846 107.11499,46.901287 C 104.69873,53.25657 103.77001,87.975356 105.64339,101.91512 C 107.26779,114.00213 107.35296,221.56503 105.74577,231.21953 C 105.04245,235.44434 103.84471,244.66207 103.08409,251.7034 C 101.0736,270.31527 89.706135,287.69831 85.948728,277.90667 z " id="path2353" sodipodi:nodetypes="cssssssccssssssssssssc"/>
  </g>
</svg>