<?xml version="1.0" encoding="UTF-8" standalone="no"?>
<!-- Created with Inkscape (http://www.inkscape.org/) -->
<svg xmlns:dc="http://purl.org/dc/elements/1.1/" xmlns:cc="http://web.resource.org/cc/" xmlns:rdf="http://www.w3.org/1999/02/22-rdf-syntax-ns#" xmlns:svg="http://www.w3.org/2000/svg" xmlns="http://www.w3.org/2000/svg" xmlns:sodipodi="http://sodipodi.sourceforge.net/DTD/sodipodi-0.dtd" xmlns:inkscape="http://www.inkscape.org/namespaces/inkscape" width="300" height="300" id="svg2" sodipodi:version="0.32" inkscape:version="0.45.1" version="1.0" sodipodi:docbase="C:\Documents and Settings\Martin\桌面" sodipodi:docname="drawing.svg" inkscape:output_extension="org.inkscape.output.svg.inkscape">
  <defs id="defs4"/>
  <sodipodi:namedview id="base" pagecolor="#ffffff" bordercolor="#666666" borderopacity="1.0" gridtolerance="10000" guidetolerance="10" objecttolerance="10" inkscape:pageopacity="0.0" inkscape:pageshadow="2" inkscape:zoom="0.65666665" inkscape:cx="158.8367" inkscape:cy="74.320984" inkscape:document-units="px" inkscape:current-layer="layer1" width="300px" height="300px" inkscape:window-width="742" inkscape:window-height="577" inkscape:window-x="50" inkscape:window-y="0"/>
  <metadata id="metadata7">
    <rdf:RDF>
      <cc:Work rdf:about="">
        <dc:format>image/svg+xml</dc:format>
        <dc:type rdf:resource="http://purl.org/dc/dcmitype/StillImage"/>
      </cc:Work>
    </rdf:RDF>
  </metadata>
  <g inkscape:label="Layer 1" inkscape:groupmode="layer" id="layer1">
    <path style="fill: rgb(0, 0, 0);" d="M 55.470966,268.58941 C 55.470966,265.80606 58.540305,259.55046 62.291735,254.68807 C 73.361054,240.34055 78.07512,222.07471 80.359162,184.68151 C 82.067918,156.70648 84.628465,145.06329 92.811343,128.06 C 109.2829,93.833548 109.62249,87.579104 96.276036,64.251949 C 89.857629,53.033729 85.140442,40.109762 85.793435,35.532014 C 88.012495,19.975196 97.717361,24.655775 113.89561,49.085446 C 134.71828,70.008942 128.22503,84.478411 125.90437,105.43289 C 125.90437,108.49934 120.96097,121.32912 114.91906,133.94351 C 107.56717,149.29288 103.16123,165.46165 101.59814,182.82797 C 97.999467,222.81023 89.476395,249.90024 76.50627,262.58091 C 64.466459,274.35208 55.470966,276.92152 55.470966,268.58941 z M 230.15269,254.08379 C 227.86538,251.79648 225.99392,247.0607 225.99392,243.55975 C 225.99392,240.05884 222.88095,229.96648 219.07618,221.13228 C 213.1108,207.28144 209.47552,204.0494 192.67063,197.65608 C 145.88505,179.85671 138.18094,134.07226 178.01191,110.54106 C 202.02852,96.35262 211.16584,86.291691 211.16584,74.03599 C 211.16584,60.641815 206.50493,58.642782 175.27528,58.642782 C 152.53812,58.642782 150.33549,57.86615 137.95217,45.482857 C 128.55318,36.083849 125.93304,31.182167 128.78398,28.331215 C 131.63494,25.480272 136.4214,26.592651 145.53245,32.223586 C 155.2016,38.199477 164.26829,40.10768 182.99304,40.10768 C 212.31791,40.10768 229.62203,46.467061 236.79092,59.878747 C 241.19067,68.109871 241.26284,72.862305 237.24251,89.621004 C 232.67961,108.64125 231.57962,109.95012 213.53717,117.82825 C 182.64799,131.31584 174.09563,138.94659 174.09563,153.01951 C 174.09563,164.64592 175.46184,165.93148 198.45006,175.93594 C 229.23005,189.33142 244.52903,209.54555 244.52903,236.81872 C 244.52903,254.8751 238.35661,262.28776 230.15269,254.08379 z " id="path2341" sodipodi:nodetypes="csssssccsssccssssssssssssssssc"/>
  </g>
</svg>