<?xml version="1.0" encoding="UTF-8" standalone="no"?>
<!-- Created with Inkscape (http://www.inkscape.org/) -->
<svg
   xmlns:dc="http://purl.org/dc/elements/1.1/"
   xmlns:cc="http://web.resource.org/cc/"
   xmlns:rdf="http://www.w3.org/1999/02/22-rdf-syntax-ns#"
   xmlns:svg="http://www.w3.org/2000/svg"
   xmlns="http://www.w3.org/2000/svg"
   xmlns:sodipodi="http://sodipodi.sourceforge.net/DTD/sodipodi-0.dtd"
   xmlns:inkscape="http://www.inkscape.org/namespaces/inkscape"
   width="300"
   height="300"
   id="svg2"
   sodipodi:version="0.32"
   inkscape:version="0.45.1"
   version="1.0"
   sodipodi:docbase="C:\Documents and Settings\Martin\桌面"
   sodipodi:docname="drawing.svg"
   inkscape:output_extension="org.inkscape.output.svg.inkscape">
  <defs
     id="defs4" />
  <sodipodi:namedview
     id="base"
     pagecolor="#ffffff"
     bordercolor="#666666"
     borderopacity="1.0"
     gridtolerance="10000"
     guidetolerance="10"
     objecttolerance="10"
     inkscape:pageopacity="0.0"
     inkscape:pageshadow="2"
     inkscape:zoom="0.92866688"
     inkscape:cx="123.23439"
     inkscape:cy="165.47122"
     inkscape:document-units="px"
     inkscape:current-layer="layer1"
     width="300px"
     height="300px"
     inkscape:window-width="742"
     inkscape:window-height="577"
     inkscape:window-x="50"
     inkscape:window-y="0" />
  <metadata
     id="metadata7">
    <rdf:RDF>
      <cc:Work
         rdf:about="">
        <dc:format>image/svg+xml</dc:format>
        <dc:type
           rdf:resource="http://purl.org/dc/dcmitype/StillImage" />
      </cc:Work>
    </rdf:RDF>
  </metadata>
  <g
     inkscape:label="Layer 1"
     inkscape:groupmode="layer"
     id="layer1">
    <path
       style="fill:#000000"
       d="M 97.993035,268.26992 C 88.552905,264.76245 80.243155,261.20149 79.527015,260.35666 C 70.922495,250.20642 67.325375,224.2584 62.849985,140.05618 C 58.071045,50.14243 58.257965,40.028632 64.820305,33.466321 C 70.647875,27.638757 73.376845,27.300223 78.727785,31.741092 C 84.220915,36.299963 85.354535,53.105816 85.210515,127.84739 C 85.108865,180.61364 86.991525,223.39745 89.720185,230.33074 C 95.712325,245.55632 119.63495,253.76878 150.44187,251.17604 C 180.3503,248.65893 197.98098,239.80687 208.26566,222.14372 C 220.12199,201.78133 224.86742,79.434408 214.89802,51.147081 C 208.64858,33.414763 208.7321,31.651893 216.00597,27.759017 C 221.38958,24.877807 226.54772,25.511332 232.34679,29.765984 C 240.21433,35.538243 240.78695,42.723299 240.34866,130.16651 C 239.83083,233.46953 237.85665,242.22267 210.47232,262.63443 C 194.36944,274.63721 124.54584,278.13554 97.993035,268.26992 z "
       id="path2387" />
  </g>
</svg>
