<?xml version="1.0" encoding="UTF-8" standalone="no"?>
<!-- Created with Inkscape (http://www.inkscape.org/) -->
<svg
   xmlns:dc="http://purl.org/dc/elements/1.1/"
   xmlns:cc="http://web.resource.org/cc/"
   xmlns:rdf="http://www.w3.org/1999/02/22-rdf-syntax-ns#"
   xmlns:svg="http://www.w3.org/2000/svg"
   xmlns="http://www.w3.org/2000/svg"
   xmlns:sodipodi="http://sodipodi.sourceforge.net/DTD/sodipodi-0.dtd"
   xmlns:inkscape="http://www.inkscape.org/namespaces/inkscape"
   width="300"
   height="300"
   id="svg2"
   sodipodi:version="0.32"
   inkscape:version="0.45.1"
   version="1.0"
   sodipodi:docbase="C:\Documents and Settings\Martin\桌面"
   sodipodi:docname="drawing.svg"
   inkscape:output_extension="org.inkscape.output.svg.inkscape">
  <defs
     id="defs4" />
  <sodipodi:namedview
     id="base"
     pagecolor="#ffffff"
     bordercolor="#666666"
     borderopacity="1.0"
     gridtolerance="10000"
     guidetolerance="10"
     objecttolerance="10"
     inkscape:pageopacity="0.0"
     inkscape:pageshadow="2"
     inkscape:zoom="0.92866688"
     inkscape:cx="123.23439"
     inkscape:cy="165.47122"
     inkscape:document-units="px"
     inkscape:current-layer="layer1"
     width="300px"
     height="300px"
     inkscape:window-width="742"
     inkscape:window-height="577"
     inkscape:window-x="50"
     inkscape:window-y="0" />
  <metadata
     id="metadata7">
    <rdf:RDF>
      <cc:Work
         rdf:about="">
        <dc:format>image/svg+xml</dc:format>
        <dc:type
           rdf:resource="http://purl.org/dc/dcmitype/StillImage" />
      </cc:Work>
    </rdf:RDF>
  </metadata>
  <g
     inkscape:label="Layer 1"
     inkscape:groupmode="layer"
     id="layer1">
    <path
       style="fill:#000000"
       d="M 118.65819,273.3665 C 89.320798,270.13121 83.503572,263.77032 78.637587,229.60556 C 73.028825,190.22602 79.441939,31.266017 86.838595,26.329014 C 96.933096,19.591289 102.32276,30.598202 98.525862,50.197094 C 96.951963,58.321279 95.512178,104.61752 95.326335,153.07764 C 94.953696,250.2513 94.576973,248.39844 115.95248,254.52884 C 138.77874,261.07534 186.63019,256.2737 196.59248,246.43708 C 202.12551,240.97383 206.14905,199.75736 205.02984,160.00596 C 208.80943,119.39802 205.49734,81.560343 207.04293,41.095942 C 207.47138,30.936845 219.78796,30.936845 222.05188,41.095942 C 222.95992,45.170714 223.35858,93.072893 222.9378,147.54524 C 222.9378,147.54524 224.60238,218.89154 222.17273,246.58588 C 216.7109,282.28115 152.78575,276.29559 118.65819,273.3665 z "
       id="path2399"
       sodipodi:nodetypes="cssssssccsccc" />
  </g>
</svg>
