<?xml version="1.0" encoding="UTF-8" standalone="no"?>
<!-- Created with Inkscape (http://www.inkscape.org/) -->

<svg
   xmlns:dc="http://purl.org/dc/elements/1.1/"
   xmlns:cc="http://creativecommons.org/ns#"
   xmlns:rdf="http://www.w3.org/1999/02/22-rdf-syntax-ns#"
   xmlns:svg="http://www.w3.org/2000/svg"
   xmlns="http://www.w3.org/2000/svg"
   xmlns:sodipodi="http://sodipodi.sourceforge.net/DTD/sodipodi-0.dtd"
   xmlns:inkscape="http://www.inkscape.org/namespaces/inkscape"
   width="300"
   height="300"
   id="svg2"
   version="1.1"
   inkscape:version="0.48.2 r9819"
   sodipodi:docname="丞-oracle.svg">
  <defs
     id="defs4" />
  <sodipodi:namedview
     id="base"
     pagecolor="#ffffff"
     bordercolor="#666666"
     borderopacity="1.0"
     inkscape:pageopacity="0.0"
     inkscape:pageshadow="2"
     inkscape:zoom="1.979899"
     inkscape:cx="174.45254"
     inkscape:cy="167.03007"
     inkscape:document-units="px"
     inkscape:current-layer="layer1"
     showgrid="false"
     inkscape:window-width="1280"
     inkscape:window-height="999"
     inkscape:window-x="0"
     inkscape:window-y="24"
     inkscape:window-maximized="1" />
  <metadata
     id="metadata7">
    <rdf:RDF>
      <cc:Work
         rdf:about="">
        <dc:format>image/svg+xml</dc:format>
        <dc:type
           rdf:resource="http://purl.org/dc/dcmitype/StillImage" />
        <dc:title></dc:title>
      </cc:Work>
    </rdf:RDF>
  </metadata>
  <g
     inkscape:label="Calque 1"
     inkscape:groupmode="layer"
     id="layer1"
     transform="translate(0,-752.36218)">
    <path
       style="fill:#000000"
       d="m 141.95906,1021.0306 c -6.39104,-3.9497 -18.92097,-15.8755 -27.84429,-26.50187 -8.92332,-10.62634 -23.408475,-24.89754 -32.189229,-31.71377 -8.780755,-6.81624 -16.908637,-14.34508 -18.061963,-16.73076 -1.153321,-2.38568 -3.256467,-4.3376 -4.673652,-4.3376 -15.263869,0 -13.667059,-83.08027 2.142726,-111.48384 l 3.418745,-6.14204 6.104049,8.30847 c 5.260428,7.16019 5.569766,10.40701 2.238223,23.49247 -2.126204,8.35119 -3.331808,27.16993 -2.679122,41.81942 1.128503,25.32917 1.76708,27.27412 13.020703,39.65809 6.508698,7.16245 16.77259,17.15349 22.80864,22.20231 6.03607,5.04882 13.21448,12.29881 15.95205,16.11109 2.73756,3.81229 10.57176,12.20043 17.40933,18.64034 6.83757,6.43989 14.93734,14.17079 17.9995,17.17979 l 5.56756,5.471 27.88585,-11.7023 c 39.20039,-16.4504 46.36321,-21.11718 49.99319,-32.57193 1.72804,-5.45299 2.53046,-31.38565 1.78316,-57.62815 -1.14311,-40.14156 -0.56053,-47.71363 3.67091,-47.71363 9.95536,0 12.08003,6.82158 14.66811,47.09397 3.195,49.7167 3.19509,50.74423 0.006,63.52909 -3.08894,12.38332 -12.86017,20.86096 -31.67128,27.47845 -16.99905,5.9801 -28.74267,10.602 -40.49623,15.9382 -4.84194,2.1983 -14.79514,4.6241 -22.11822,5.3907 -11.22861,1.1755 -15.13526,0.2687 -24.93476,-5.7875 z"
       id="path3028-8"
       inkscape:connector-curvature="0"
       sodipodi:nodetypes="sssssscsssssssscssssssssss" />
    <path
       style="fill:#808080"
       d="m 139.07171,987.21076 c -4.48963,-4.43055 -8.45193,-10.28631 -8.80511,-13.0128 -0.35317,-2.7265 -1.6732,-10.41381 -2.93337,-17.08294 -1.89357,-10.02117 -1.01815,-13.33768 5.0439,-19.10901 6.29342,-5.99158 7.33514,-10.53828 7.33514,-32.01482 0,-13.76732 1.85956,-35.68221 4.13236,-48.69978 3.16221,-18.1117 3.16221,-24.76174 0,-28.32582 -2.2728,-2.56162 -4.06796,-7.73994 -3.98925,-11.50736 l 0.14311,-6.84987 9.57307,7.86655 c 5.26519,4.32661 11.68003,13.24968 14.2552,19.82905 2.57518,6.57936 10.01126,24.2317 16.52463,39.22741 18.67684,42.9997 18.7122,38.95163 -0.45314,51.87731 -9.23784,6.23028 -18.63517,11.32777 -20.88297,11.32777 -4.41923,0 -12.26019,10.37837 -12.26019,16.22773 0,6.92071 9.35154,3.51072 21.35435,-7.78675 14.46108,-13.61129 23.8657,-17.90806 28.52945,-13.03449 15.92438,16.6408 28.33804,47.19321 21.2127,52.20855 -3.02104,2.12644 -6.24517,-0.69707 -12.91161,-11.30729 -4.88682,-7.77778 -8.88513,-15.78271 -8.88513,-17.7887 0,-2.006 -2.1947,-3.64727 -4.87712,-3.64727 -4.91564,0 -10.44965,4.97175 -22.897,20.57063 -11.43457,14.32968 -16.07371,19.08745 -18.6115,19.08745 -1.33901,0 -6.10789,-3.625 -10.59752,-8.05555 z m 28.29623,-74.59224 c 7.50623,-5.62396 7.58818,-6.26066 2.55623,-19.8588 -6.99264,-18.89657 -10.13887,-21.98368 -12.9939,-12.74971 -3.41431,11.04283 -3.57447,38.41877 -0.22477,38.41877 1.59916,0 6.39726,-2.61461 10.66244,-5.81026 z m -62.49358,-2.85531 c -4.08046,-6.11019 -7.419023,-12.72886 -7.419023,-14.70813 0,-1.97927 -1.493078,-4.24819 -3.317952,-5.04204 -6.568505,-2.85742 -8.227946,-23.32159 -2.827456,-34.86811 2.876224,-6.14951 4.051915,-11.69321 2.612644,-12.31931 -4.987769,-2.16978 -21.376163,-28.15784 -26.516466,-42.04877 -6.466589,-17.47501 -6.677517,-28.58726 -0.542635,-28.58726 4.28444,0 12.789867,11.63161 26.280644,35.94014 3.026307,5.45299 7.473944,11.97658 9.883654,14.49687 4.03419,4.21933 5.03314,3.77903 12.60971,-5.55783 8.5124,-10.4901 17.04932,-13.42165 17.00876,-5.84076 -0.0127,2.38569 -3.17158,7.68376 -7.01961,11.7735 -9.45904,10.05319 -8.87386,14.58401 3.52141,27.26493 5.81032,5.94424 10.56423,11.93514 10.56423,13.31312 0,5.05777 -6.45202,5.07785 -15.53598,0.0484 -17.51168,-9.69566 -24.563011,-1.14001 -14.99564,18.19478 2.51704,5.08672 5.66245,10.013 6.9898,10.94728 3.5575,2.50404 2.9379,25.13805 -0.73186,26.73446 -1.72986,0.75251 -6.48377,-3.63103 -10.56423,-9.74123 z m 98.09787,0.61002 c -0.12353,-7.93203 -7.27224,-31.17925 -12.19521,-39.65809 -1.38517,-2.38567 -4.55637,-4.3376 -7.04711,-4.3376 -6.4319,0 -8.79742,-5.85267 -5.67562,-14.0424 2.80574,-7.36058 -0.50147,-17.27792 -13.32566,-39.95956 -8.72105,-15.42461 -8.71637,-15.39968 -2.88643,-15.39968 4.2627,0 15.3045,10.79665 20.89388,20.42999 3.67053,6.32617 9.31292,5.3386 11.96315,-2.09389 2.3285,-6.53018 -0.40346,-34.74085 -4.35606,-44.98138 -4.61003,-11.94384 6.23053,-4.90369 16.31631,10.59625 12.62821,19.40719 13.4337,32.69649 3.15398,52.03545 -6.46916,12.17025 -6.92162,15.74095 -3.70217,29.21688 5.91758,24.76975 6.20176,56.24958 0.50779,56.24958 -1.93677,0 -3.57786,-3.625 -3.64685,-8.05555 z"
       id="path3028"
       inkscape:connector-curvature="0"
       sodipodi:nodetypes="sssssssscsssssssssssssssssssscssssssssscsssssssccssssssssssssss" />
  </g>
</svg>
