<?xml version="1.0" encoding="UTF-8" standalone="no"?>
<!-- Created with Inkscape (http://www.inkscape.org/) -->
<svg
   xmlns:dc="http://purl.org/dc/elements/1.1/"
   xmlns:cc="http://web.resource.org/cc/"
   xmlns:rdf="http://www.w3.org/1999/02/22-rdf-syntax-ns#"
   xmlns:svg="http://www.w3.org/2000/svg"
   xmlns="http://www.w3.org/2000/svg"
   xmlns:sodipodi="http://sodipodi.sourceforge.net/DTD/sodipodi-0.dtd"
   xmlns:inkscape="http://www.inkscape.org/namespaces/inkscape"
   width="300"
   height="300"
   id="svg2"
   sodipodi:version="0.32"
   inkscape:version="0.45.1"
   version="1.0"
   sodipodi:docbase="C:\Documents and Settings\L'équipage\Mes documents\Bertrand\Gifs"
   sodipodi:docname="刀-bronze.svg"
   inkscape:output_extension="org.inkscape.output.svg.inkscape">
  <defs
     id="defs4" />
  <sodipodi:namedview
     id="base"
     pagecolor="#ffffff"
     bordercolor="#666666"
     borderopacity="1.0"
     inkscape:pageopacity="0.0"
     inkscape:pageshadow="2"
     inkscape:zoom="1.5"
     inkscape:cx="214.15918"
     inkscape:cy="158.11654"
     inkscape:document-units="px"
     inkscape:current-layer="layer1"
     width="300px"
     height="300px"
     inkscape:window-width="1024"
     inkscape:window-height="721"
     inkscape:window-x="-4"
     inkscape:window-y="-4"
     showguides="true"
     inkscape:guide-bbox="true" />
  <metadata
     id="metadata7">
    <rdf:RDF>
      <cc:Work
         rdf:about="">
        <dc:format>image/svg+xml</dc:format>
        <dc:type
           rdf:resource="http://purl.org/dc/dcmitype/StillImage" />
      </cc:Work>
    </rdf:RDF>
  </metadata>
  <g
     inkscape:label="Calque 1"
     inkscape:groupmode="layer"
     id="layer1">
    <path
       style="fill:#000000"
       d="M 129.07885,293.17221 C 127.87722,280.39422 137.45654,269.74647 138.2435,257.13802 C 141.10443,235.19156 141.63489,212.20825 135.10934,190.85246 C 133.69553,186.36435 126.62352,173.56012 127.73221,185.69264 C 125.23232,198.83062 114.8013,209.0698 104.32777,216.59344 C 96.381336,216.42702 107.41099,202.44674 107.171,196.99487 C 112.86623,176.07273 117.711,154.01145 114.56231,132.28113 C 109.4809,123.49476 108.14238,113.37016 108.52011,103.20523 C 108.63678,80.446526 109.38065,56.671769 120.69502,36.248869 C 126.81695,24.520056 132.09379,11.691016 141.87199,2.4773621 C 152.09838,0.93803027 144.17873,18.876574 141.69433,24.004009 C 133.52916,39.135227 125.67181,55.088844 124.87043,72.612864 C 122.97625,101.13346 133.2409,128.65755 143.97529,154.56626 C 154.36326,173.24863 157.19443,194.94324 160.46996,215.77088 C 162.85832,236.09651 165.2381,258.63689 153.26226,276.62804 C 147.60695,284.22402 143.41573,296.07109 133.38605,298.28264 C 131.02645,297.71202 129.9084,295.19675 129.07885,293.17221 z "
       id="path2231" />
  </g>
</svg>
