<?xml version="1.0" encoding="UTF-8" standalone="no"?>
<!-- Created with Inkscape (http://www.inkscape.org/) -->

<svg
   xmlns:dc="http://purl.org/dc/elements/1.1/"
   xmlns:cc="http://creativecommons.org/ns#"
   xmlns:rdf="http://www.w3.org/1999/02/22-rdf-syntax-ns#"
   xmlns:svg="http://www.w3.org/2000/svg"
   xmlns="http://www.w3.org/2000/svg"
   xmlns:sodipodi="http://sodipodi.sourceforge.net/DTD/sodipodi-0.dtd"
   xmlns:inkscape="http://www.inkscape.org/namespaces/inkscape"
   width="300"
   height="300"
   id="svg2"
   version="1.1"
   inkscape:version="0.48.2 r9819"
   sodipodi:docname="男-oracle.svg">
  <defs
     id="defs4" />
  <sodipodi:namedview
     id="base"
     pagecolor="#ffffff"
     bordercolor="#666666"
     borderopacity="1.0"
     inkscape:pageopacity="0.0"
     inkscape:pageshadow="2"
     inkscape:zoom="1.4"
     inkscape:cx="103.15466"
     inkscape:cy="127.92893"
     inkscape:document-units="px"
     inkscape:current-layer="layer1"
     showgrid="false"
     inkscape:window-width="1280"
     inkscape:window-height="999"
     inkscape:window-x="0"
     inkscape:window-y="24"
     inkscape:window-maximized="1" />
  <metadata
     id="metadata7">
    <rdf:RDF>
      <cc:Work
         rdf:about="">
        <dc:format>image/svg+xml</dc:format>
        <dc:type
           rdf:resource="http://purl.org/dc/dcmitype/StillImage" />
        <dc:title></dc:title>
      </cc:Work>
    </rdf:RDF>
  </metadata>
  <g
     inkscape:label="Calque 1"
     inkscape:groupmode="layer"
     id="layer1"
     transform="translate(0,-752.36218)">
    <path
       style="fill:#000000"
       d="m 205.7717,1019.4364 c -3.50669,-10.9199 -9.04242,-27.14522 -12.30164,-36.05637 l -5.92587,-16.20205 -15.3019,8.43298 c -15.03503,8.28592 -25.53038,10.41178 -31.64171,6.40911 -1.69954,-1.11312 6.19827,-10.04756 17.55074,-19.85432 11.35242,-9.80675 20.65101,-19.95721 20.66351,-22.55657 0.01,-2.59937 -5.15874,-14.61447 -11.4916,-26.70023 -6.33287,-12.08572 -9.9488,-22.99938 -8.03547,-24.25255 5.49524,-3.59909 20.50092,6.26916 28.43399,18.69914 3.98803,6.24869 9.33213,10.51879 11.87583,9.48915 2.54365,-1.02966 8.73738,-10.43546 13.76384,-20.90182 7.34874,-15.30205 8.52287,-26.29206 5.99377,-56.1036 -1.72981,-20.39063 -4.45929,-42.9007 -6.06551,-50.02236 -3.47254,-15.3969 -0.28259,-16.10692 16.13708,-3.59162 31.50559,24.01402 29.31243,96.86956 -4.26296,141.61207 -13.6304,18.16387 -15.53745,23.7671 -12.3397,36.25571 11.72409,45.78703 12.96771,75.19763 3.17971,75.19763 -2.12093,0 -6.72541,-8.9344 -10.23211,-19.8543 z"
       id="path3092"
       inkscape:connector-curvature="0"
       sodipodi:nodetypes="sscssscscscssssssss" />
    <path
       style="fill:#b3b3b3"
       d="m 111.33005,877.3072 c -24.312903,-1.53541 -47.443934,-3.60565 -51.402285,-4.60051 -5.502627,-1.38296 -7.197019,-11.13492 -7.197019,-41.42204 0,-22.68417 -2.253043,-40.52522 -5.272028,-41.74725 -9.629279,-3.89776 -5.46947,-8.55859 11.862063,-13.29078 11.108839,-3.03315 21.42611,-3.64374 29.339363,-1.73635 6.712895,1.61804 25.995566,2.9419 42.850416,2.9419 16.85478,0 39.23829,2.35157 49.74106,5.22572 l 19.09591,5.22573 0,34.27912 c 0,19.12812 -2.33017,35.22235 -5.27202,36.41316 -2.89961,1.17371 -5.27203,6.70379 -5.27203,12.28902 0,11.56285 1.27404,11.45857 -78.47343,6.42228 z m -0.60699,-26.9409 c 0,-6.95318 -3.08814,-10.48497 -10.23878,-11.7097 -13.190034,-2.25911 -16.121361,-0.0985 -16.121361,11.88248 0,8.13354 2.222516,9.78328 13.180065,9.78328 11.011366,0 13.180076,-1.6382 13.180076,-9.95606 z m 60.89893,2.64975 c 1.84995,-8.42625 -6.0632,-14.68177 -15.55459,-12.29629 -4.7453,1.19261 -8.44015,6.05277 -8.44015,11.10208 0,7.24058 2.20608,8.76702 11.38485,7.87744 6.26169,-0.60685 11.93613,-3.61432 12.60989,-6.68323 z m -5.46313,-34.21303 c 1.83576,-1.94545 1.78726,-8.16072 -0.10754,-13.81171 -2.66469,-7.94607 -6.3375,-10.27452 -16.20669,-10.27452 -9.38189,0 -12.76121,1.88885 -12.76121,7.13285 0,15.31886 19.75087,26.83516 29.07566,16.95338 z m -61.7076,-12.86423 c -1.31432,-10.40096 -3.97002,-13.16554 -13.498309,-14.05184 -10.634157,-0.98917 -11.862066,0.3512 -11.862066,12.94847 0,12.77502 1.226513,14.05184 13.498323,14.05184 12.374262,0 13.362052,-1.07827 11.862052,-12.94847 z"
       id="path3092-3"
       inkscape:connector-curvature="0"
       sodipodi:nodetypes="sssssssscssssssssssssssccssccsssss" />
  </g>
</svg>
