<?xml version="1.0" encoding="UTF-8" standalone="no"?>
<!-- Created with Inkscape (http://www.inkscape.org/) -->

<svg
   xmlns:dc="http://purl.org/dc/elements/1.1/"
   xmlns:cc="http://creativecommons.org/ns#"
   xmlns:rdf="http://www.w3.org/1999/02/22-rdf-syntax-ns#"
   xmlns:svg="http://www.w3.org/2000/svg"
   xmlns="http://www.w3.org/2000/svg"
   xmlns:sodipodi="http://sodipodi.sourceforge.net/DTD/sodipodi-0.dtd"
   xmlns:inkscape="http://www.inkscape.org/namespaces/inkscape"
   width="200"
   height="200"
   id="svg2"
   version="1.1"
   inkscape:version="0.48.2 r9819"
   sodipodi:docname="勹-oracle.svg">
  <defs
     id="defs4" />
  <sodipodi:namedview
     id="base"
     pagecolor="#ffffff"
     bordercolor="#666666"
     borderopacity="1.0"
     inkscape:pageopacity="0.0"
     inkscape:pageshadow="2"
     inkscape:zoom="3.959798"
     inkscape:cx="135.65826"
     inkscape:cy="103.65861"
     inkscape:document-units="px"
     inkscape:current-layer="layer1"
     showgrid="false"
     inkscape:window-width="1280"
     inkscape:window-height="999"
     inkscape:window-x="0"
     inkscape:window-y="24"
     inkscape:window-maximized="1" />
  <metadata
     id="metadata7">
    <rdf:RDF>
      <cc:Work
         rdf:about="">
        <dc:format>image/svg+xml</dc:format>
        <dc:type
           rdf:resource="http://purl.org/dc/dcmitype/StillImage" />
        <dc:title></dc:title>
      </cc:Work>
    </rdf:RDF>
  </metadata>
  <g
     inkscape:label="Calque 1"
     inkscape:groupmode="layer"
     id="layer1"
     transform="translate(0,-852.36218)">
    <path
       style="fill:#000000"
       d="m 100.31691,1032.4112 c -15.022483,-3.6734 -26.783042,-10.7711 -30.968158,-18.6897 -1.856861,-3.5133 -4.049207,-6.9448 -4.871832,-7.6255 -3.110599,-2.5739 -7.418593,-18.42432 -7.418593,-27.29526 0,-12.41545 7.77355,-24.76363 13.431155,-29.71826 6.294492,-5.51238 14.883608,-9.04583 17.569042,-10.93308 3.337942,-2.34581 19.280376,-2.94673 22.774746,0.45243 4.13026,4.01768 0.7541,10.56259 -5.44862,10.56259 -9.707195,0 -25.63035,9.80849 -29.152871,17.95783 -1.848007,4.27536 -2.966802,8.9456 -2.486199,10.3783 0.480628,1.4327 2.071043,7.16352 3.534303,12.73515 4.969979,18.9242 16.146955,26.3879 39.046797,26.0743 14.1194,-0.1933 15.98044,-0.8904 23.39227,-8.7617 16.81133,-17.8536 17.44094,-52.18125 1.30632,-71.22195 -12.13463,-14.32029 -28.61122,-20.30881 -53.934644,-19.60292 l -9.409353,0.26228 -0.769139,12.99525 c -0.997899,16.86025 -6.097069,17.12268 -12.023774,0.61882 l -4.444489,-12.37643 -12.811896,0.76464 c -9.390344,0.56045 -13.953794,-0.34612 -17.087599,-3.39452 -6.907458,-6.71924 -3.833372,-11.90424 9.339248,-15.75232 6.647013,-1.94179 12.085457,-4.4644 12.085457,-5.60578 0,-1.1414 -3.721511,-4.26003 -8.270024,-6.93033 -14.937622,-8.76936 -17.176203,-10.95057 -17.176203,-16.73621 0,-11.22034 14.546437,-10.35498 27.759315,1.65136 4.397972,3.9964 8.825693,7.62791 9.839343,8.07002 1.01365,0.44214 3.70179,4.02857 5.97368,7.9699 3.975566,6.89696 4.942598,7.19878 25.754712,8.0378 26.225236,1.05728 36.043916,4.76469 50.905506,19.22135 16.60164,16.14922 22.9566,30.7853 23.27633,53.60748 0.21196,15.12822 -0.88686,20.90048 -5.72069,30.05277 -8.03063,15.20509 -24.74375,30.21439 -37.57083,33.74059 -11.83639,3.2539 -10.96707,3.2706 -26.42331,-0.5089 z"
       id="path3060"
       inkscape:connector-curvature="0"
       sodipodi:nodetypes="ssssssssscssssscsscssssssscsssssss" />
  </g>
</svg>
