<?xml version="1.0" encoding="UTF-8" standalone="no"?>
<!-- Created by Hugo Lopez, using Inkscape (http://www.inkscape.org/). -->
<svg
   xmlns:dc="http://purl.org/dc/elements/1.1/"
   xmlns:cc="http://web.resource.org/cc/"
   xmlns:rdf="http://www.w3.org/1999/02/22-rdf-syntax-ns#"
   xmlns:svg="http://www.w3.org/2000/svg"
   xmlns="http://www.w3.org/2000/svg"
   xmlns:sodipodi="http://sodipodi.sourceforge.net/DTD/sodipodi-0.dtd"
   xmlns:inkscape="http://www.inkscape.org/namespaces/inkscape"
   version="0.32"
   height="300.00000px"
   width="300.00000px"
   docname="Optimized Model 龍 300px.svg"
   docbase="/home/yug/svg to optized txt"
   id="svg2"
   sodipodi:version="0.32"
   inkscape:version="0.45.1"
   sodipodi:docname="b12540匕-bronze.svg"
   sodipodi:docbase="/home/yug/Desktop"
   inkscape:output_extension="org.inkscape.output.svg.inkscape">
  <sodipodi:namedview
     inkscape:window-height="591"
     inkscape:window-width="826"
     inkscape:pageshadow="2"
     inkscape:pageopacity="0.0"
     guidetolerance="10.0"
     gridtolerance="10.0"
     objecttolerance="10.0"
     borderopacity="1.0"
     bordercolor="#666666"
     pagecolor="#ffffff"
     id="base"
     inkscape:zoom="1.9433333"
     inkscape:cx="150"
     inkscape:cy="155.06888"
     inkscape:window-x="220"
     inkscape:window-y="25"
     inkscape:current-layer="svg2" />
  <namedview
     id="namedview4" />
  <namedview
     id="namedview6" />
  <metadata
     id="metadata8">
    <rdf:RDF>
      <cc:Work
         rdf:about="">
        <dc:format>image/svg+xml</dc:format>
        <dc:type
           rdf:resource="http://purl.org/dc/dcmitype/StillImage" />
      </cc:Work>
    </rdf:RDF>
  </metadata>
  <defs
     id="defs10" />
  <namedview
     document-units="px"
     pageopacity="0.0000000"
     borderopacity="1.0000000"
     id="namedview12" />
  <path
     style="fill:#000000;fill-opacity:1"
     d="M 215.54273,184.51313 C 199.73673,177.69687 187.41966,168.68456 164.52708,158.15799 C 158.79496,203.04165 161.89913,213.84138 138.90726,241.83359 C 114.94229,271.01053 79.34685,278.219 68.702176,282.54623 C 54.338297,288.38536 50.205945,283.05037 57.346227,274.45091 C 73.732044,254.71649 125.9052,240.90974 131.56565,202.23569 C 134.16692,184.46294 132.71798,138.42918 134.21951,110.18891 C 136.96039,58.639039 188.4649,40.162934 203.23399,30.35106 C 242.67374,4.1491758 256.47748,16.208656 237.95521,31.663401 C 201.20101,62.330659 166.79074,73.296753 166.63887,117.53432 C 173.65901,137.03185 221.97414,158.65759 232.89458,170.57567 C 257.76651,197.7198 231.20452,191.26719 215.54273,184.51313 z "
     id="path2209"
     sodipodi:nodetypes="ccssssssscss" />
</svg>
