<?xml version="1.0" encoding="UTF-8" standalone="no"?>
<!-- Created by Hugo Lopez, using Inkscape (http://www.inkscape.org/). -->
<svg
   xmlns:dc="http://purl.org/dc/elements/1.1/"
   xmlns:cc="http://web.resource.org/cc/"
   xmlns:rdf="http://www.w3.org/1999/02/22-rdf-syntax-ns#"
   xmlns:svg="http://www.w3.org/2000/svg"
   xmlns="http://www.w3.org/2000/svg"
   xmlns:sodipodi="http://sodipodi.sourceforge.net/DTD/sodipodi-0.dtd"
   xmlns:inkscape="http://www.inkscape.org/namespaces/inkscape"
   version="0.32"
   height="300.00000px"
   width="300.00000px"
   docname="Optimized Model 龍 300px.svg"
   docbase="/home/yug/svg to optized txt"
   id="svg2"
   sodipodi:version="0.32"
   inkscape:version="0.45.1"
   sodipodi:docname="j19328匕-oracle.svg"
   sodipodi:docbase="/home/yug/Desktop"
   inkscape:output_extension="org.inkscape.output.svg.inkscape">
  <sodipodi:namedview
     inkscape:window-height="591"
     inkscape:window-width="826"
     inkscape:pageshadow="2"
     inkscape:pageopacity="0.0"
     guidetolerance="10.0"
     gridtolerance="10.0"
     objecttolerance="10.0"
     borderopacity="1.0"
     bordercolor="#666666"
     pagecolor="#ffffff"
     id="base"
     inkscape:zoom="1.9433333"
     inkscape:cx="150"
     inkscape:cy="387.77199"
     inkscape:window-x="220"
     inkscape:window-y="25"
     inkscape:current-layer="svg2" />
  <namedview
     id="namedview4" />
  <namedview
     id="namedview6" />
  <metadata
     id="metadata8">
    <rdf:RDF>
      <cc:Work
         rdf:about="">
        <dc:format>image/svg+xml</dc:format>
        <dc:type
           rdf:resource="http://purl.org/dc/dcmitype/StillImage" />
      </cc:Work>
    </rdf:RDF>
  </metadata>
  <defs
     id="defs10" />
  <namedview
     document-units="px"
     pageopacity="0.0000000"
     borderopacity="1.0000000"
     id="namedview12" />
  <path
     style="fill:#000000;fill-opacity:1"
     d="M 174.4302,141.5793 C 141.1834,122.8559 142.46965,108.46803 134.64177,110.90476 C 127.01917,142.73754 166.34858,159.01699 161.4337,195.29498 C 157.47631,224.50549 157.33819,234.18489 146.66321,261.19276 C 138.04577,282.99501 120.63178,293.27915 125.47065,277.05535 C 136.68375,239.45998 138.05213,230.46678 136.66484,195.82269 C 135.42492,164.85882 102.75992,141.34709 108.04497,106.26259 C 113.16293,72.287317 127.60471,67.091481 133.83964,37.540057 C 142.29926,-2.5555558 166.08101,18.487466 162.68396,41.845081 C 160.22939,58.722333 151.14768,67.822186 144.74553,83.240164 C 156.14585,95.268709 169.69804,111.54718 181.85179,126.50126 C 202.76736,152.23599 188.97142,149.7684 174.4302,141.5793 z "
     id="path2209"
     sodipodi:nodetypes="ccssssssscss" />
</svg>
