<?xml version="1.0" encoding="UTF-8" standalone="no"?>
<!-- Created by Hugo Lopez, using Inkscape (http://www.inkscape.org/). -->
<svg
   xmlns:dc="http://purl.org/dc/elements/1.1/"
   xmlns:cc="http://web.resource.org/cc/"
   xmlns:rdf="http://www.w3.org/1999/02/22-rdf-syntax-ns#"
   xmlns:svg="http://www.w3.org/2000/svg"
   xmlns="http://www.w3.org/2000/svg"
   xmlns:sodipodi="http://sodipodi.sourceforge.net/DTD/sodipodi-0.dtd"
   xmlns:inkscape="http://www.inkscape.org/namespaces/inkscape"
   version="0.32"
   height="300.00000px"
   width="300.00000px"
   docname="Optimized Model 龍 300px.svg"
   docbase="/home/yug/svg to optized txt"
   id="svg2"
   sodipodi:version="0.32"
   inkscape:version="0.45.1"
   sodipodi:docname="L13730匕-bigseal.svg"
   sodipodi:docbase="/home/yug/Desktop"
   inkscape:output_extension="org.inkscape.output.svg.inkscape">
  <sodipodi:namedview
     inkscape:window-height="591"
     inkscape:window-width="826"
     inkscape:pageshadow="2"
     inkscape:pageopacity="0.0"
     guidetolerance="10.0"
     gridtolerance="10.0"
     objecttolerance="10.0"
     borderopacity="1.0"
     bordercolor="#666666"
     pagecolor="#ffffff"
     id="base"
     inkscape:zoom="1.26"
     inkscape:cx="162.8684"
     inkscape:cy="147.93127"
     inkscape:window-x="220"
     inkscape:window-y="25"
     inkscape:current-layer="svg2" />
  <namedview
     id="namedview4" />
  <namedview
     id="namedview6" />
  <metadata
     id="metadata8">
    <rdf:RDF>
      <cc:Work
         rdf:about="">
        <dc:format>image/svg+xml</dc:format>
        <dc:type
           rdf:resource="http://purl.org/dc/dcmitype/StillImage" />
      </cc:Work>
    </rdf:RDF>
  </metadata>
  <defs
     id="defs10" />
  <namedview
     document-units="px"
     pageopacity="0.0000000"
     borderopacity="1.0000000"
     id="namedview12" />
  <path
     style="fill:#000004;fill-opacity:1"
     d="M 196.00349,225.61948 C 156.05461,153.80562 148.65245,108.07183 161.74469,41.241413 C 110.99712,43.711135 82.550713,50.726241 82.353395,90.579661 C 81.577755,247.2398 126.75489,274.3391 105.24278,283.81228 C 92.940069,289.22996 88.027487,274.79866 82.19664,267.00854 C 74.469315,256.6847 52.751978,133.38513 60.509238,67.345422 C 61.781878,56.511044 74.367064,37.003028 94.832209,30.676512 C 121.81988,22.333644 216.25119,11.05871 230.78601,16.369619 C 251.3172,23.871558 239.90965,41.025176 208.92866,43.204095 C 192.23907,44.377886 193.65918,34.933619 175.96971,37.961826 C 171.22932,124.02713 199.27752,191.02446 218.8898,211.26904 C 236.36861,229.31136 203.38858,238.89525 196.00349,225.61948 z "
     id="path2209"
     sodipodi:nodetypes="ccssssssscss" />
</svg>
