<?xml version="1.0" encoding="UTF-8" standalone="no"?>
<!-- Created by Hugo Lopez, using Inkscape (http://www.inkscape.org/). -->
<svg
   xmlns:dc="http://purl.org/dc/elements/1.1/"
   xmlns:cc="http://web.resource.org/cc/"
   xmlns:rdf="http://www.w3.org/1999/02/22-rdf-syntax-ns#"
   xmlns:svg="http://www.w3.org/2000/svg"
   xmlns="http://www.w3.org/2000/svg"
   xmlns:sodipodi="http://sodipodi.sourceforge.net/DTD/sodipodi-0.dtd"
   xmlns:inkscape="http://www.inkscape.org/namespaces/inkscape"
   version="0.32"
   height="300.00000px"
   width="300.00000px"
   docname="Optimized Model 龍 300px.svg"
   docbase="/home/yug/svg to optized txt"
   id="svg2"
   sodipodi:version="0.32"
   inkscape:version="0.45.1"
   sodipodi:docname="s05933匕-seal.svg"
   sodipodi:docbase="/home/yug/Desktop"
   inkscape:output_extension="org.inkscape.output.svg.inkscape">
  <sodipodi:namedview
     inkscape:window-height="591"
     inkscape:window-width="826"
     inkscape:pageshadow="2"
     inkscape:pageopacity="0.0"
     guidetolerance="10.0"
     gridtolerance="10.0"
     objecttolerance="10.0"
     borderopacity="1.0"
     bordercolor="#666666"
     pagecolor="#ffffff"
     id="base"
     inkscape:zoom="1.26"
     inkscape:cx="162.8684"
     inkscape:cy="150"
     inkscape:window-x="220"
     inkscape:window-y="25"
     inkscape:current-layer="svg2" />
  <namedview
     id="namedview4" />
  <namedview
     id="namedview6" />
  <metadata
     id="metadata8">
    <rdf:RDF>
      <cc:Work
         rdf:about="">
        <dc:format>image/svg+xml</dc:format>
        <dc:type
           rdf:resource="http://purl.org/dc/dcmitype/StillImage" />
      </cc:Work>
    </rdf:RDF>
  </metadata>
  <defs
     id="defs10" />
  <namedview
     document-units="px"
     pageopacity="0.0000000"
     borderopacity="1.0000000"
     id="namedview12" />
  <path
     style="fill:#000000"
     d="M 195.81616,279.92664 C 158.4564,205.94898 150.39877,126.09285 145.34316,44.435009 C 106.08901,43.750147 104.66977,42.163754 102.26073,82.268416 C 98.3042,148.13491 102.30146,214.23443 102.25629,280.21017 C 96.78213,292.88248 74.743916,269.49586 79.81699,260.88928 C 79.90407,193.72653 72.419374,125.42086 80.239512,58.845847 C 81.522467,47.923649 85.320693,25.670018 106.84069,23.879711 C 160.2376,19.437472 195.89757,13.714081 211.35681,15.806058 C 232.05442,18.6069 238.07821,47.391624 219.54451,47.207251 C 202.67899,47.032029 192.2465,37.282435 168.85809,41.92249 C 164.07927,128.68541 188.6643,198.65766 218.47528,277.74559 C 220.53913,287.78276 198.6404,287.25051 195.81616,279.92664 z "
     id="path2209"
     sodipodi:nodetypes="ccsccssssccc" />
</svg>
