<?xml version="1.0" encoding="UTF-8" standalone="no"?>
<!-- Created with Inkscape (http://www.inkscape.org/) -->
<svg
   xmlns:dc="http://purl.org/dc/elements/1.1/"
   xmlns:cc="http://web.resource.org/cc/"
   xmlns:rdf="http://www.w3.org/1999/02/22-rdf-syntax-ns#"
   xmlns:svg="http://www.w3.org/2000/svg"
   xmlns="http://www.w3.org/2000/svg"
   xmlns:sodipodi="http://sodipodi.sourceforge.net/DTD/sodipodi-0.dtd"
   xmlns:inkscape="http://www.inkscape.org/namespaces/inkscape"
   width="300"
   height="300"
   id="svg2"
   sodipodi:version="0.32"
   inkscape:version="0.45.1"
   version="1.0"
   sodipodi:docbase="C:\Documents and Settings\Martin\桌面"
   sodipodi:docname="drawing.svg"
   inkscape:output_extension="org.inkscape.output.svg.inkscape">
  <defs
     id="defs4" />
  <sodipodi:namedview
     id="base"
     pagecolor="#ffffff"
     bordercolor="#666666"
     borderopacity="1.0"
     gridtolerance="10000"
     guidetolerance="10"
     objecttolerance="10"
     inkscape:pageopacity="0.0"
     inkscape:pageshadow="2"
     inkscape:zoom="1.2311444"
     inkscape:cx="193.36843"
     inkscape:cy="132.50972"
     inkscape:document-units="px"
     inkscape:current-layer="layer1"
     width="300px"
     height="300px"
     inkscape:window-width="1024"
     inkscape:window-height="712"
     inkscape:window-x="0"
     inkscape:window-y="22" />
  <metadata
     id="metadata7">
    <rdf:RDF>
      <cc:Work
         rdf:about="">
        <dc:format>image/svg+xml</dc:format>
        <dc:type
           rdf:resource="http://purl.org/dc/dcmitype/StillImage" />
      </cc:Work>
    </rdf:RDF>
  </metadata>
  <g
     inkscape:label="Layer 1"
     inkscape:groupmode="layer"
     id="layer1">
    <path
       style="fill:#000000"
       d="M 101.02193,279.15661 C 99.238858,275.24315 98.503188,269.27552 99.387148,265.89522 C 101.26024,258.73258 94.928068,233.8648 91.231148,233.8648 C 89.847308,233.8648 88.715118,229.16904 88.715118,223.42975 C 88.715118,213.40034 89.024228,213.08669 96.667758,215.36097 C 103.68158,217.44792 155.34541,217.29306 157.50831,215.17861 C 160.46905,212.28422 157.2214,104.76008 154.07831,101.61699 C 153.26448,100.80316 138.137,100.11535 120.46173,100.08852 C 80.896078,100.02848 80.232228,99.405523 78.542048,60.75194 C 77.914398,46.397448 75.837168,32.148992 73.925988,29.088707 C 72.014808,26.028423 71.244788,21.456219 72.214868,18.928255 C 73.737058,14.961496 79.443818,14.477777 113.88039,15.396592 C 203.54006,17.788833 210.15832,20.167443 210.19543,50.012283 C 210.20746,59.67583 211.46976,75.39041 213.00057,84.933573 C 214.53137,94.476743 217.81744,123.10623 220.30289,148.55468 C 222.78833,174.00312 225.70645,202.63261 226.78758,212.17578 C 229.30749,234.41914 228.30723,268.94154 225.04841,272.20035 C 222.49356,274.7552 219.38553,275.08911 155.22809,279.70143 C 135.34649,281.13074 115.74616,283.19383 111.67181,284.28608 C 105.60464,285.91256 103.67715,284.98421 101.02193,279.15661 z M 187.52708,258.17537 C 216.66558,255.89534 217.0102,255.47429 212.87712,227.20323 C 203.28973,161.62367 200.70189,139.47783 199.63164,113.85226 C 198.96735,97.946983 197.16322,80.378883 195.62252,74.812035 C 194.08179,69.245192 192.49612,58.900241 192.0988,51.823261 L 191.37644,38.95602 L 171.13337,35.562901 C 159.85665,33.672715 138.99982,32.837991 124.04559,33.678378 L 97.200928,35.186972 L 99.122138,52.830606 C 101.66476,76.181353 104.22213,80.539183 115.56664,80.852753 C 141.97243,81.582633 153.94219,80.039613 157.45451,75.453004 C 160.79899,71.085552 161.75735,71.337352 168.18875,78.273343 C 175.01229,85.632213 175.31391,87.776583 177.12474,141.80286 C 178.15549,172.55533 178.86229,201.87301 178.69541,206.95328 C 178.52848,212.03354 179.68676,216.99037 181.26934,217.96846 C 191.53272,224.31157 171.65064,233.28148 146.55248,233.63119 C 122.26527,233.96959 116.12248,235.10725 116.47706,239.20125 C 116.63611,241.03778 116.96145,247.2623 117.20002,253.03351 L 117.63381,263.5266 L 140.04578,261.83179 C 152.37237,260.89966 173.73894,259.25427 187.52708,258.17537 z "
       id="path2252" />
  </g>
</svg>
