<?xml version="1.0" encoding="UTF-8" standalone="no"?>
<!-- Created with Inkscape (http://www.inkscape.org/) -->

<svg
   xmlns:dc="http://purl.org/dc/elements/1.1/"
   xmlns:cc="http://creativecommons.org/ns#"
   xmlns:rdf="http://www.w3.org/1999/02/22-rdf-syntax-ns#"
   xmlns:svg="http://www.w3.org/2000/svg"
   xmlns="http://www.w3.org/2000/svg"
   xmlns:sodipodi="http://sodipodi.sourceforge.net/DTD/sodipodi-0.dtd"
   xmlns:inkscape="http://www.inkscape.org/namespaces/inkscape"
   width="300"
   height="300"
   id="svg2"
   version="1.1"
   inkscape:version="0.48.2 r9819"
   sodipodi:docname="Nouveau document 1">
  <defs
     id="defs4" />
  <sodipodi:namedview
     id="base"
     pagecolor="#ffffff"
     bordercolor="#666666"
     borderopacity="1.0"
     inkscape:pageopacity="0.0"
     inkscape:pageshadow="2"
     inkscape:zoom="1.979899"
     inkscape:cx="194.95507"
     inkscape:cy="174.86109"
     inkscape:document-units="px"
     inkscape:current-layer="layer1"
     showgrid="false"
     inkscape:window-width="1280"
     inkscape:window-height="999"
     inkscape:window-x="0"
     inkscape:window-y="24"
     inkscape:window-maximized="1" />
  <metadata
     id="metadata7">
    <rdf:RDF>
      <cc:Work
         rdf:about="">
        <dc:format>image/svg+xml</dc:format>
        <dc:type
           rdf:resource="http://purl.org/dc/dcmitype/StillImage" />
        <dc:title></dc:title>
      </cc:Work>
    </rdf:RDF>
  </metadata>
  <g
     inkscape:label="Calque 1"
     inkscape:groupmode="layer"
     id="layer1"
     transform="translate(0,-752.36218)">
    <path
       style="fill:#000000"
       d="m 97.111418,1024.8631 c -8.924433,-1.53 -16.821489,-3.5719 -17.548937,-4.5376 -0.727483,-0.9657 -5.328553,-8.7578 -10.224704,-17.3157 -8.526636,-14.90385 -8.918587,-19.15695 -9.294001,-100.85155 -0.377339,-82.13262 -0.07484,-85.75919 8.16988,-97.91863 9.088573,-13.4038 12.400276,-14.70624 60.462914,-23.77851 39.6675,-7.48763 63.96787,-7.42151 91.96631,0.25011 28.11214,7.70295 32.66175,11.59707 32.66175,27.95595 0,21.10293 -8.02406,24.97781 -57.52065,27.77721 -61.18282,3.46033 -71.73258,5.75644 -74.39444,16.1917 -1.20727,4.73281 -2.21861,30.71325 -2.2474,57.73423 -0.0419,39.33676 1.14873,50.39263 5.97363,55.46832 4.91383,5.16929 16.10222,6.33924 60.62244,6.33924 62.59115,0 68.90677,2.30043 66.90957,24.37142 -1.15133,12.72341 -3.08754,14.70661 -22.3514,22.89381 -18.11909,7.7007 -27.8451,8.9101 -69.02478,8.5828 -26.36363,-0.2094 -55.2357,-1.6329 -64.160182,-3.1629 z m 60.325482,-22.2877 c 0,-12.54245 -9.95974,-18.29518 -31.67453,-18.29518 -13.09698,0 -18.88374,2.28876 -26.035868,10.29762 -12.455179,13.94716 -6.011291,17.79916 29.908748,17.87906 27.00866,0.06 27.80165,-0.2219 27.80165,-9.8815 z m 70.68645,-2.3027 c 5.81078,-6.09778 1.37717,-7.55226 -26.76039,-8.77882 -25.59078,-1.11553 -26.72246,-0.77132 -27.96923,8.50792 -1.29295,9.6228 -1.17039,9.6565 24.92561,6.8486 14.42374,-1.552 27.83555,-4.512 29.80401,-6.5777 z M 106.326,965.77861 c 1.08242,-2.96746 0.51446,-16.81033 -1.26216,-30.76193 l -3.23025,-25.36658 -13.421467,0 -13.421487,0 1.084828,34.28952 c 1.448998,45.79989 1.970749,46.94395 16.459012,36.09108 6.502891,-4.87121 12.709064,-11.28464 13.791524,-14.25209 z m -6.603632,-76.05306 c 2.518982,-3.19295 4.887292,-17.11385 5.262942,-30.93535 0.66433,-24.44321 0.33745,-25.34503 -11.960463,-33.0005 -6.953862,-4.32883 -13.710153,-6.74838 -15.013989,-5.3768 -1.303817,1.37162 -3.180637,17.21447 -4.170681,35.20642 -1.379374,25.06667 -0.559013,33.53941 3.50988,36.25029 7.926531,5.28096 17.217039,4.3906 22.372311,-2.14406 z m 48.607092,-66.80774 c 7.56289,0 9.10744,-2.0524 9.10744,-12.10217 l 0,-12.10219 -23.26035,0 c -12.79321,0 -26.61301,1.88753 -30.71066,4.19454 -7.140851,4.02034 -7.013919,4.61996 3.05545,14.43705 8.05408,7.85234 13.09541,9.69768 21.60318,7.90764 6.10363,-1.28416 15.19584,-2.33487 20.20494,-2.33487 z m 76.9711,-7.22787 c 8.94844,-5.98432 -1.06981,-12.01004 -24.72318,-14.87039 -23.9567,-2.89705 -23.96695,-2.8938 -23.96695,7.58295 0,10.07756 0.84925,10.47888 22.04959,10.41949 12.12727,-0.0323 24.11553,-1.44338 26.64054,-3.13205 z"
       id="path2996"
       inkscape:connector-curvature="0" />
  </g>
</svg>
