<?xml version="1.0" encoding="UTF-8" standalone="no"?>
<!-- Created with Inkscape (http://www.inkscape.org/) -->
<svg
   xmlns:dc="http://purl.org/dc/elements/1.1/"
   xmlns:cc="http://web.resource.org/cc/"
   xmlns:rdf="http://www.w3.org/1999/02/22-rdf-syntax-ns#"
   xmlns:svg="http://www.w3.org/2000/svg"
   xmlns="http://www.w3.org/2000/svg"
   xmlns:sodipodi="http://sodipodi.sourceforge.net/DTD/sodipodi-0.dtd"
   xmlns:inkscape="http://www.inkscape.org/namespaces/inkscape"
   width="300"
   height="300"
   id="svg2"
   sodipodi:version="0.32"
   inkscape:version="0.45.1"
   version="1.0"
   sodipodi:docbase="C:\Documents and Settings\Martin\桌面"
   sodipodi:docname="drawing.svg"
   inkscape:output_extension="org.inkscape.output.svg.inkscape">
  <defs
     id="defs4" />
  <sodipodi:namedview
     id="base"
     pagecolor="#ffffff"
     bordercolor="#666666"
     borderopacity="1.0"
     gridtolerance="10000"
     guidetolerance="10"
     objecttolerance="10"
     inkscape:pageopacity="0.0"
     inkscape:pageshadow="2"
     inkscape:zoom="1.2311444"
     inkscape:cx="193.36843"
     inkscape:cy="132.50972"
     inkscape:document-units="px"
     inkscape:current-layer="layer1"
     width="300px"
     height="300px"
     inkscape:window-width="1024"
     inkscape:window-height="712"
     inkscape:window-x="0"
     inkscape:window-y="22" />
  <metadata
     id="metadata7">
    <rdf:RDF>
      <cc:Work
         rdf:about="">
        <dc:format>image/svg+xml</dc:format>
        <dc:type
           rdf:resource="http://purl.org/dc/dcmitype/StillImage" />
      </cc:Work>
    </rdf:RDF>
  </metadata>
  <g
     inkscape:label="Layer 1"
     inkscape:groupmode="layer"
     id="layer1">
    <path
       style="fill:#000000"
       d="M 91.507366,283.50438 C 87.848446,279.09564 85.731736,267.52184 84.097416,242.98789 C 83.798146,238.49557 83.181186,233.6476 82.726376,232.21463 C 81.630036,228.76035 79.354296,207.21085 77.812596,185.68504 C 77.128396,176.13165 75.971526,162.30263 75.241796,154.95387 C 70.580916,108.01615 71.673106,33.056606 77.078056,28.925576 C 78.361376,27.944735 87.927846,26.049584 108.64368,22.672318 C 134.52168,18.453475 152.90733,16.689943 184.13546,15.431233 C 214.83634,14.193774 222.12704,15.37788 225.64054,22.172206 C 228.41608,27.539533 228.36158,84.30384 225.57734,87.98065 C 223.13454,91.20658 215.22284,92.69253 200.1023,92.76529 C 190.61282,92.42496 181.52087,94.91474 172.15593,95.40854 C 167.03694,95.5693 160.96461,96.48804 158.66186,97.45019 L 154.47504,99.19956 L 153.74731,124.9073 C 153.34707,139.04655 153.55709,152.48919 154.21405,154.77984 C 154.87099,157.07048 155.4085,168.79968 155.4085,180.84471 C 155.4085,203.52237 156.5505,210.8094 161.15536,217.51502 C 163.71691,221.24517 163.86301,221.27856 174.60832,220.58916 C 180.58311,220.20581 193.64496,219.51025 203.63465,219.04344 L 221.7977,218.19473 L 223.27141,221.98195 C 225.15423,226.82055 226.81333,255.2604 225.66103,262.94447 C 224.70695,269.30675 224.25123,269.58085 208.854,273.05308 C 203.20667,274.32661 199.57646,274.86337 184.80352,276.60913 C 181.49658,276.99993 177.32944,277.63444 175.5432,278.01916 C 168.34604,279.56932 149.55794,281.38098 128.68575,282.5374 C 116.5603,283.20923 103.61318,284.1576 99.914356,284.64489 C 94.730506,285.32785 92.803776,285.06645 91.507366,283.50438 z M 138.03871,267.07922 C 162.37809,266.10278 186.94386,263.98676 196.16069,262.07277 C 197.63044,261.76756 201.29182,261.44111 204.29707,261.34731 C 208.77116,261.20769 210.04215,260.56018 211.31179,257.77359 C 214.43175,250.92606 212.3352,232.89081 208.23641,231.31796 C 205.8618,230.40674 187.47835,231.87591 187.46875,232.97767 C 187.46487,233.42225 181.00131,233.97697 173.10526,234.21038 C 165.20923,234.4438 158.54843,235.19538 158.30346,235.88055 C 158.05851,236.56574 156.475,237.12632 154.78457,237.12632 C 150.33675,237.12632 142.10926,227.58864 141.81456,222.09093 C 141.68666,219.7047 141.38838,215.94855 141.15175,213.74392 C 140.9151,211.53929 140.36101,204.02352 139.92045,197.04221 C 139.47988,190.06088 139.02008,184.24219 138.89866,184.11179 C 137.99575,183.14188 108.94398,188.6314 98.799106,191.68886 C 93.745456,193.21193 93.651716,193.355 94.565476,198.15062 C 95.079426,200.84792 95.727366,208.00952 96.005366,214.06523 C 96.283366,220.12097 97.026576,226.13359 97.656936,227.42661 C 98.287296,228.71965 98.955956,233.65566 99.142826,238.39552 C 99.329706,243.1354 100.04069,248.05629 100.72281,249.33082 C 101.40491,250.60536 101.96299,254.87437 101.96299,258.81753 C 101.96299,268.76383 103.17151,269.64104 115.32436,268.51609 C 120.83593,268.00588 131.0574,267.35929 138.03871,267.07922 z M 105.6182,176.81779 C 109.11941,175.98262 112.88592,174.98991 113.98823,174.61177 C 115.09054,174.23363 116.89433,173.76129 117.99664,173.56213 C 119.09896,173.36296 124.43044,172.11331 129.84437,170.78513 L 139.68789,168.37024 L 138.72716,158.32171 C 138.19877,152.79502 137.6774,145.56751 137.56855,142.26056 L 137.37065,136.24794 L 131.26128,136.44393 C 127.90113,136.55173 121.389,137.60394 116.78989,138.78217 C 112.19076,139.96042 105.7919,142.54679 102.57016,142.54679 C 97.822626,142.9298 95.955336,143.55445 92.358956,144.77932 C 90.931996,142.74786 91.856836,174.70049 93.292226,177.02298 C 94.353056,178.73945 97.802966,178.68202 105.6182,176.81779 z M 102.63106,128.23293 C 109.24494,127.1372 117.6626,125.91727 121.33698,125.52198 C 125.01136,125.12667 130.27242,124.12544 133.0282,123.29701 C 138.59961,121.62216 138.7369,121.13541 138.10638,105.29202 C 137.65479,93.94475 138.86529,89.25004 142.45627,88.42184 C 144.06842,88.05002 148.39378,86.59943 152.06816,85.19832 C 155.74254,83.7972 162.95768,81.97373 168.10181,81.14617 C 186.7223,78.15059 196.95535,76.78983 200.86197,76.78983 C 209.40712,75.64281 210.7151,73.99455 210.74787,65.43266 C 210.60251,53.111904 208.11645,35.43371 206.26943,33.586677 C 204.09653,31.413789 146.27584,30.578695 138.99326,32.615022 C 135.8962,33.481008 130.95719,34.380271 128.01769,34.613387 C 108.80846,36.136758 100.47749,37.202579 99.850576,38.216936 C 99.455916,38.855512 97.438336,39.377983 95.367056,39.377983 C 93.295786,39.377983 90.950436,40.161981 90.155196,41.1202 C 88.196396,43.480387 87.659486,130.24011 89.603716,130.23024 C 90.154876,130.22745 96.017176,129.32865 102.63106,128.23293 z "
       id="path2239"
       sodipodi:nodetypes="cssssssssscccccsssscccssssssccssssssssssssssssssssccssccccccsccsccssssssccsssssssc" />
  </g>
</svg>
