<?xml version="1.0" encoding="UTF-8" standalone="no"?>
<!-- Created with Inkscape (http://www.inkscape.org/) -->
<svg
   xmlns:dc="http://purl.org/dc/elements/1.1/"
   xmlns:cc="http://web.resource.org/cc/"
   xmlns:rdf="http://www.w3.org/1999/02/22-rdf-syntax-ns#"
   xmlns:svg="http://www.w3.org/2000/svg"
   xmlns="http://www.w3.org/2000/svg"
   xmlns:sodipodi="http://sodipodi.sourceforge.net/DTD/sodipodi-0.dtd"
   xmlns:inkscape="http://www.inkscape.org/namespaces/inkscape"
   width="300"
   height="300"
   id="svg2"
   sodipodi:version="0.32"
   inkscape:version="0.45.1"
   version="1.0"
   sodipodi:docbase="C:\Documents and Settings\Martin\桌面"
   sodipodi:docname="drawing.svg"
   inkscape:output_extension="org.inkscape.output.svg.inkscape">
  <defs
     id="defs4" />
  <sodipodi:namedview
     id="base"
     pagecolor="#ffffff"
     bordercolor="#666666"
     borderopacity="1.0"
     gridtolerance="10000"
     guidetolerance="10"
     objecttolerance="10"
     inkscape:pageopacity="0.0"
     inkscape:pageshadow="2"
     inkscape:zoom="0.92866688"
     inkscape:cx="166.70872"
     inkscape:cy="158.1572"
     inkscape:document-units="px"
     inkscape:current-layer="layer1"
     width="300px"
     height="300px"
     inkscape:window-width="742"
     inkscape:window-height="577"
     inkscape:window-x="50"
     inkscape:window-y="0" />
  <metadata
     id="metadata7">
    <rdf:RDF>
      <cc:Work
         rdf:about="">
        <dc:format>image/svg+xml</dc:format>
        <dc:type
           rdf:resource="http://purl.org/dc/dcmitype/StillImage" />
      </cc:Work>
    </rdf:RDF>
  </metadata>
  <g
     inkscape:label="Layer 1"
     inkscape:groupmode="layer"
     id="layer1">
    <path
       style="fill:#000000"
       d="M 111.09137,275.71153 C 109.44805,273.73146 108.81231,262.49816 109.42291,246.23124 C 109.9655,231.77653 111.11335,175.72117 111.97373,121.66374 C 113.3328,36.271512 114.04683,23.182274 117.41642,21.88924 C 126.22575,18.508779 127.71018,24.570055 127.97453,65.000672 C 128.15951,93.289729 129.10183,104.82266 131.34469,106.24707 C 133.05705,107.33457 146.63061,108.24163 161.50815,108.26276 C 183.31469,108.29374 188.84055,109.03691 190.01467,112.09658 C 193.42557,120.98529 186.42015,123.35495 156.73151,123.35495 C 135.57332,123.35495 128.18284,124.1666 128.17477,126.49115 C 128.05047,162.24268 125.36209,255.94222 124.17957,265.73851 C 122.93555,276.04432 121.62743,278.91053 118.16795,278.91053 C 115.73606,278.91053 112.55159,277.47097 111.09137,275.71153 z "
       id="path2255" />
  </g>
</svg>
