<?xml version="1.0" encoding="UTF-8" standalone="no"?>
<!-- Created with Inkscape (http://www.inkscape.org/) -->
<svg
   xmlns:dc="http://purl.org/dc/elements/1.1/"
   xmlns:cc="http://web.resource.org/cc/"
   xmlns:rdf="http://www.w3.org/1999/02/22-rdf-syntax-ns#"
   xmlns:svg="http://www.w3.org/2000/svg"
   xmlns="http://www.w3.org/2000/svg"
   xmlns:sodipodi="http://sodipodi.sourceforge.net/DTD/sodipodi-0.dtd"
   xmlns:inkscape="http://www.inkscape.org/namespaces/inkscape"
   width="300"
   height="300"
   id="svg2"
   sodipodi:version="0.32"
   inkscape:version="0.45.1"
   version="1.0"
   sodipodi:docbase="C:\Documents and Settings\Martin\桌面"
   sodipodi:docname="drawing.svg"
   inkscape:output_extension="org.inkscape.output.svg.inkscape">
  <defs
     id="defs4" />
  <sodipodi:namedview
     id="base"
     pagecolor="#ffffff"
     bordercolor="#666666"
     borderopacity="1.0"
     gridtolerance="10000"
     guidetolerance="10"
     objecttolerance="10"
     inkscape:pageopacity="0.0"
     inkscape:pageshadow="2"
     inkscape:zoom="0.65666665"
     inkscape:cx="158.8367"
     inkscape:cy="161.87663"
     inkscape:document-units="px"
     inkscape:current-layer="layer1"
     width="300px"
     height="300px"
     inkscape:window-width="742"
     inkscape:window-height="577"
     inkscape:window-x="50"
     inkscape:window-y="0" />
  <metadata
     id="metadata7">
    <rdf:RDF>
      <cc:Work
         rdf:about="">
        <dc:format>image/svg+xml</dc:format>
        <dc:type
           rdf:resource="http://purl.org/dc/dcmitype/StillImage" />
      </cc:Work>
    </rdf:RDF>
  </metadata>
  <g
     inkscape:label="Layer 1"
     inkscape:groupmode="layer"
     id="layer1">
    <path
       style="fill:#000000"
       d="M 45.99464,269.88388 C 44.856934,268.04297 50.736999,252.64132 59.061487,235.65797 C 78.7707,195.44794 83.582542,168.54449 80.356935,116.59289 C 77.080505,63.822293 79.787907,48.516533 93.645159,41.47101 C 110.9312,32.682187 152.53382,27.302478 203.21394,27.302478 C 242.85148,27.302478 251.22971,28.328235 253.18371,33.420308 C 257.87974,45.657951 247.25005,48.153863 179.45736,50.731678 C 142.36261,52.142209 108.78728,54.720059 104.8456,56.460233 C 98.193509,59.396978 97.877274,63.475589 100.44203,113.25473 C 102.98982,162.7051 102.51728,168.97597 94.379466,193.70862 C 76.495435,248.06229 54.200928,283.16191 45.99464,269.88388 z "
       id="path2317" />
  </g>
</svg>
