<?xml version="1.0" encoding="UTF-8" standalone="no"?>
<!-- Created with Inkscape (http://www.inkscape.org/) -->
<svg
   xmlns:dc="http://purl.org/dc/elements/1.1/"
   xmlns:cc="http://web.resource.org/cc/"
   xmlns:rdf="http://www.w3.org/1999/02/22-rdf-syntax-ns#"
   xmlns:svg="http://www.w3.org/2000/svg"
   xmlns="http://www.w3.org/2000/svg"
   xmlns:sodipodi="http://sodipodi.sourceforge.net/DTD/sodipodi-0.dtd"
   xmlns:inkscape="http://www.inkscape.org/namespaces/inkscape"
   width="300"
   height="300"
   id="svg2"
   sodipodi:version="0.32"
   inkscape:version="0.45.1"
   version="1.0"
   sodipodi:docbase="C:\Documents and Settings\Martin\桌面"
   sodipodi:docname="厶-seal.svg"
   inkscape:output_extension="org.inkscape.output.svg.inkscape">
  <defs
     id="defs4" />
  <sodipodi:namedview
     id="base"
     pagecolor="#ffffff"
     bordercolor="#666666"
     borderopacity="1.0"
     gridtolerance="10000"
     guidetolerance="10"
     objecttolerance="10"
     inkscape:pageopacity="0.0"
     inkscape:pageshadow="2"
     inkscape:zoom="0.92866688"
     inkscape:cx="150.44773"
     inkscape:cy="113.07676"
     inkscape:document-units="px"
     inkscape:current-layer="layer1"
     width="300px"
     height="300px"
     inkscape:window-width="742"
     inkscape:window-height="577"
     inkscape:window-x="44"
     inkscape:window-y="0" />
  <metadata
     id="metadata7">
    <rdf:RDF>
      <cc:Work
         rdf:about="">
        <dc:format>image/svg+xml</dc:format>
        <dc:type
           rdf:resource="http://purl.org/dc/dcmitype/StillImage" />
      </cc:Work>
    </rdf:RDF>
  </metadata>
  <g
     inkscape:label="Layer 1"
     inkscape:groupmode="layer"
     id="layer1">
    <path
       style="fill:#000000"
       d="M 98.508165,268.09857 C 74.777955,257.3704 67.247965,231.54751 66.832975,208.2955 C 65.290725,181.53602 79.131705,153.69365 105.29387,144.17337 C 140.62379,134.66003 158.86305,98.280385 147.43173,60.126105 C 144.52874,50.436785 141.02586,46.949215 128.36163,41.139388 C 119.82899,37.224963 111.2336,34.02225 109.26074,34.02225 C 104.55729,34.02225 104.69498,29.822233 109.55781,24.959405 C 115.41484,19.102365 121.25574,20.1897 136.50751,29.976337 C 159.18107,44.525305 170.63125,68.250255 166.57829,92.283395 C 166.46153,123.50873 145.21023,149.11593 116.63136,159.71143 C 97.404155,165.16478 88.485265,173.5632 83.333285,191.06642 C 77.362895,212.24469 88.798245,239.40467 108.01729,250.15236 C 112.95903,252.00078 119.91535,254.63836 123.47575,256.01365 C 146.32733,264.84058 193.05458,254.5734 209.27668,237.16101 C 222.27375,223.2103 215.20661,167.39105 199.53893,160.24803 C 174.18328,148.68822 163.93488,142.47557 163.93488,138.66463 C 163.93488,116.70615 225.17091,155.27866 229.88836,180.20866 C 231.01185,186.14593 232.49687,193.91675 233.1884,197.47715 C 234.32062,230.94543 225.48711,250.11407 198.2007,267.24223 C 168.7749,280.1527 139.19173,281.34569 110.71248,274.50119"
       id="path2279"
       sodipodi:nodetypes="cccsssssccccsssssccs" />
  </g>
</svg>
