<?xml version="1.0" encoding="UTF-8" standalone="no"?>
<!-- Created with Inkscape (http://www.inkscape.org/) -->
<svg
   xmlns:dc="http://purl.org/dc/elements/1.1/"
   xmlns:cc="http://web.resource.org/cc/"
   xmlns:rdf="http://www.w3.org/1999/02/22-rdf-syntax-ns#"
   xmlns:svg="http://www.w3.org/2000/svg"
   xmlns="http://www.w3.org/2000/svg"
   xmlns:sodipodi="http://sodipodi.sourceforge.net/DTD/sodipodi-0.dtd"
   xmlns:inkscape="http://www.inkscape.org/namespaces/inkscape"
   id="svg2"
   sodipodi:version="0.32"
   inkscape:version="0.45.1"
   width="300"
   height="300"
   version="1.0"
   sodipodi:docbase="/home/yug/Desktop"
   sodipodi:docname="j05682åˆ-oracle.svg"
   inkscape:output_extension="org.inkscape.output.svg.inkscape">
  <metadata
     id="metadata7">
    <rdf:RDF>
      <cc:Work
         rdf:about="">
        <dc:format>image/svg+xml</dc:format>
        <dc:type
           rdf:resource="http://purl.org/dc/dcmitype/StillImage" />
      </cc:Work>
    </rdf:RDF>
  </metadata>
  <defs
     id="defs5" />
  <sodipodi:namedview
     inkscape:window-height="575"
     inkscape:window-width="738"
     inkscape:pageshadow="2"
     inkscape:pageopacity="0.0"
     guidetolerance="10.0"
     gridtolerance="10.0"
     objecttolerance="10.0"
     borderopacity="1.0"
     bordercolor="#666666"
     pagecolor="#ffffff"
     id="base"
     width="300px"
     height="300px"
     inkscape:zoom="1.2633333"
     inkscape:cx="150"
     inkscape:cy="133.67885"
     inkscape:window-x="255"
     inkscape:window-y="175"
     inkscape:current-layer="svg2" />
  <path
     style="fill:#000000;fill-opacity:1"
     d="M 144.17495,73.392686 C 146.16599,58.19322 140.56541,41.131433 134.99883,30.649197 C 132.16013,23.895745 111.90817,8.1182711 136.20665,18.370193 C 174.10155,34.35866 175.47259,87.524234 172.62923,101.43814 C 214.25495,172.4217 233.69718,285 220.83838,285 C 203.71857,277.29128 203.29782,204.27396 155.73671,142.9327 C 82.16158,232.67089 64.754227,224.20015 80.65233,204.95998 C 86.397757,198.00677 125.33161,144.64223 132.34016,112.19113 C 116.04115,81.301965 56.228703,46.08829 87.31922,47.748939 C 101.47883,48.505251 123.26028,53.903035 144.17495,73.392686 z "
     id="path2161"
     sodipodi:nodetypes="ccscccscsc" />
</svg>
