<?xml version="1.0" encoding="UTF-8" standalone="no"?>
<!-- Created with Inkscape (http://www.inkscape.org/) -->
<svg
   xmlns:dc="http://purl.org/dc/elements/1.1/"
   xmlns:cc="http://web.resource.org/cc/"
   xmlns:rdf="http://www.w3.org/1999/02/22-rdf-syntax-ns#"
   xmlns:svg="http://www.w3.org/2000/svg"
   xmlns="http://www.w3.org/2000/svg"
   xmlns:sodipodi="http://sodipodi.sourceforge.net/DTD/sodipodi-0.dtd"
   xmlns:inkscape="http://www.inkscape.org/namespaces/inkscape"
   id="svg2"
   sodipodi:version="0.32"
   inkscape:version="0.45.1"
   width="300"
   height="300"
   version="1.0"
   sodipodi:docbase="/home/yug/Desktop"
   sodipodi:docname="L24484åˆ-bigseal.svg"
   inkscape:output_extension="org.inkscape.output.svg.inkscape">
  <metadata
     id="metadata7">
    <rdf:RDF>
      <cc:Work
         rdf:about="">
        <dc:format>image/svg+xml</dc:format>
        <dc:type
           rdf:resource="http://purl.org/dc/dcmitype/StillImage" />
      </cc:Work>
    </rdf:RDF>
  </metadata>
  <defs
     id="defs5" />
  <sodipodi:namedview
     inkscape:window-height="575"
     inkscape:window-width="738"
     inkscape:pageshadow="2"
     inkscape:pageopacity="0.0"
     guidetolerance="10.0"
     gridtolerance="10.0"
     objecttolerance="10.0"
     borderopacity="1.0"
     bordercolor="#666666"
     pagecolor="#ffffff"
     id="base"
     width="300px"
     height="300px"
     inkscape:zoom="0.5"
     inkscape:cx="150"
     inkscape:cy="169.04134"
     inkscape:window-x="255"
     inkscape:window-y="174"
     inkscape:current-layer="svg2" />
  <path
     style="fill:#000000"
     d="M 195.78531,103.0247 C 206.39215,88.810422 213.26842,55.82966 177.83911,39.289493 C 139.87084,21.564007 121.86591,50.758931 83.127523,32.953774 C 51.967933,18.632019 184.07008,-0.61207075 214.86077,36.424076 C 240.18999,66.890974 230.93908,107.10293 210.46563,130.67744 C 222.50022,178.4229 222.5064,208.41897 223.92089,250.08738 C 225.64107,300.76146 201.56975,289.45975 201.42227,259.20485 C 200.98427,226.83924 196.98972,205.68251 184.17511,149.97985 C 154.89096,162.43805 87.331993,188.33815 70.880653,169.95584 C 59.699233,157.46198 137.2642,153.85535 172.55701,121.40046 C 153.02539,85.867137 84.121373,104.11444 74.014353,90.171291 C 60.464533,71.478616 170.5366,64.150034 195.78531,103.0247 z "
     id="path8081"
     sodipodi:nodetypes="cssscsccscsc" />
</svg>
