<?xml version="1.0" encoding="UTF-8" standalone="no"?>
<!-- Created with Inkscape (http://www.inkscape.org/) -->
<svg
   xmlns:svg="http://www.w3.org/2000/svg"
   xmlns="http://www.w3.org/2000/svg"
   version="1.0"
   width="300"
   height="300"
   id="svg2">
  <defs
     id="defs5" />
  <path
     d="M 115.26543,234.19123 C 90.96987,223.42334 85.15385,210.37469 85.15385,166.6338 C 85.15385,137.75031 83.96012,132.18258 74.0636,114.90706 C 67.79717,103.9683 54.51681,89.10821 43.53132,80.74291 C 27.24188,68.33871 25.10067,65.3721 30.32641,62.44762 C 33.75682,60.52787 40.73551,60.00427 45.83461,61.28406 C 58.53915,64.4727 83.23624,87.46264 89.05941,101.52102 L 93.84831,113.08244 L 132.02429,110.72897 C 183.18024,107.57531 184.33852,107.19083 191.88658,90.85821 C 199.64223,74.07639 219.78015,59.81608 245.19602,53.108077 C 265.49159,47.751472 270.36606,49.045564 270.36606,59.79032 C 270.36606,64.59914 266.85221,67.88641 259.97149,69.51464 C 254.25448,70.86748 241.84787,76.23599 232.40123,81.44464 C 217.18569,89.83415 214.50871,93.33614 208.94444,112.13054 C 205.48984,123.79913 200.79433,152.05636 198.50998,174.9244 C 193.92814,220.79204 190.98658,225.85873 164.53051,233.45238 C 149.69944,237.70933 124.07055,238.09369 115.26543,234.19123 z M 163.10404,208.95187 C 168.84708,207.2032 180.50657,158.31951 178.98352,142.37536 C 178.08864,133.00721 175.98304,129.65093 171.14523,129.8813 L 103.12836,131.45623 L 104.73873,165.13853 C 106.42213,200.34831 110.11757,209.2538 124.17171,211.96919 C 131.9486,213.47176 153.82895,211.776 163.10404,208.95187 z "
     style="fill:black;fill-opacity:1"
     id="path1875" />
</svg>
