<?xml version="1.0" encoding="UTF-8" standalone="no"?>
<!-- Created with Inkscape (http://www.inkscape.org/) -->
<svg
   xmlns:svg="http://www.w3.org/2000/svg"
   xmlns="http://www.w3.org/2000/svg"
   version="1.0"
   width="300"
   height="300"
   id="svg2">
  <defs
     id="defs5" />
  <path
     d="M 122.96239,276.78745 C 102.34306,275.14935 77.609485,260.75927 73.245735,247.86212 C 71.833245,243.68749 70.717075,195.99735 70.765345,141.88403 C 70.868505,26.256664 73.648355,12.290925 93.649505,26.916122 C 98.482635,30.450196 99.269405,34.063034 97.510005,44.643576 L 91.475795,89.09131 C 127.83977,85.013415 173.31918,91.879295 208.43466,83.006586 C 210.12312,81.43899 211.9384,70.20861 212.4686,58.050184 C 213.51983,33.943767 215.13227,29.23077 222.32849,29.23077 C 233.24496,29.23077 234.544,42.080307 233.18811,136.64952 C 231.62194,245.8861 230.40675,251.90825 207.05305,266.16747 C 190.78972,276.09749 161.24474,279.82878 122.96239,276.78745 z M 209.56027,218.09646 C 212.22731,204.95408 213.60286,179.03841 213.04313,152.47878 L 212.11804,108.58223 C 184.50163,116.47058 120.14751,107.89377 89.692845,112.72482 C 89.370064,136.34252 86.580795,216.50889 89.711835,231.76949 C 94.133765,253.3219 106.79036,258.15512 153.01834,255.94456 C 185.08079,253.15469 202.09702,251.8669 209.56027,218.09646 z "
     style="fill:black;fill-opacity:1"
     id="path1875" />
</svg>
