<?xml version="1.0" encoding="UTF-8" standalone="no"?>
<!-- Created with Inkscape (http://www.inkscape.org/) -->
<svg
   xmlns:dc="http://purl.org/dc/elements/1.1/"
   xmlns:cc="http://web.resource.org/cc/"
   xmlns:rdf="http://www.w3.org/1999/02/22-rdf-syntax-ns#"
   xmlns:svg="http://www.w3.org/2000/svg"
   xmlns="http://www.w3.org/2000/svg"
   xmlns:sodipodi="http://sodipodi.sourceforge.net/DTD/sodipodi-0.dtd"
   xmlns:inkscape="http://www.inkscape.org/namespaces/inkscape"
   width="300"
   height="300"
   id="svg2"
   sodipodi:version="0.32"
   inkscape:version="0.45.1"
   version="1.0"
   sodipodi:docbase="C:\Documents and Settings\Martin\桌面"
   sodipodi:docname="drawing.svg"
   inkscape:output_extension="org.inkscape.output.svg.inkscape">
  <defs
     id="defs4" />
  <sodipodi:namedview
     id="base"
     pagecolor="#ffffff"
     bordercolor="#666666"
     borderopacity="1.0"
     gridtolerance="10000"
     guidetolerance="10"
     objecttolerance="10"
     inkscape:pageopacity="0.0"
     inkscape:pageshadow="2"
     inkscape:zoom="0.92866688"
     inkscape:cx="100.13682"
     inkscape:cy="126.37031"
     inkscape:document-units="px"
     inkscape:current-layer="layer1"
     width="300px"
     height="300px"
     inkscape:window-width="742"
     inkscape:window-height="577"
     inkscape:window-x="22"
     inkscape:window-y="0" />
  <metadata
     id="metadata7">
    <rdf:RDF>
      <cc:Work
         rdf:about="">
        <dc:format>image/svg+xml</dc:format>
        <dc:type
           rdf:resource="http://purl.org/dc/dcmitype/StillImage" />
      </cc:Work>
    </rdf:RDF>
  </metadata>
  <g
     inkscape:label="Layer 1"
     inkscape:groupmode="layer"
     id="layer1">
    <path
       style="fill:#000000"
       d="M 58.394401,231.84743 C 50.071117,211.62026 46.387349,155.38171 49.38122,94.247119 C 51.964818,41.490425 56.845353,19.559291 66.002123,19.559291 C 71.542838,19.559291 78.454047,46.571376 81.721597,80.997802 C 85.752975,123.47237 89.41707,126.44123 139.20583,127.57499 C 182.34753,128.5574 204.4856,123.16005 210.04342,110.30458 C 211.73474,106.39251 216.32955,86.925577 220.2541,67.044692 C 227.72128,29.21755 236.33378,16.524672 247.13846,27.423277 C 251.16822,31.48807 252.27808,47.91271 251.33415,89.515104 C 250.2465,137.45211 248.0546,152.94925 236.96416,191.11306 C 219.62467,250.78084 216.27742,256.78694 194.71814,266.91701 C 178.50378,274.53568 161.32593,277.77234 128.24105,279.4428 C 93.266716,285.63938 73.920562,262.15325 58.394401,231.84743 z M 173.98124,227.46042 C 182.07447,224.26167 200.24827,185.72027 198.3432,175.79584 C 197.01391,168.87098 191.54215,166.84924 164.64266,164.29603 C 7.0447419,149.43288 138.86259,157.99386 125.08261,156.79055 C 101.62868,154.74247 83.767329,155.03002 85.383243,170.58261 C 85.94375,175.97722 86.648658,186.56397 86.949686,194.10873 C 87.542804,208.97322 101.56925,227.20604 115.38546,231.07214 C 124.5912,233.64811 164.55865,231.18459 173.98124,227.46042 z "
       id="path2204"
       sodipodi:nodetypes="csssssssssscccssssssc" />
  </g>
</svg>
