<?xml version="1.0" encoding="UTF-8" standalone="no"?>
<!-- Created with Inkscape (http://www.inkscape.org/) -->
<svg
   xmlns:svg="http://www.w3.org/2000/svg"
   xmlns="http://www.w3.org/2000/svg"
   version="1.0"
   width="300"
   height="300"
   id="svg2">
  <defs
     id="defs5" />
  <path
     d="M 119.75378,280.05656 C 96.397162,275.34057 92.036172,273.24546 80.926982,261.40352 C 66.224372,245.73114 64.735702,232.61957 66.298362,132.56052 C 67.056762,83.998767 67.954952,41.430512 68.294352,37.964401 C 69.620702,24.418822 96.363242,19.249755 165.11593,19.249755 L 217.5462,19.249755 L 225.2339,26.937452 C 235.05009,36.753641 235.46883,39.792218 238.16722,120.78797 C 239.72481,167.54095 239.35396,197.58411 236.96836,217.91149 C 235.06864,234.09874 233.41312,249.01043 233.28944,251.04857 C 232.98612,256.04689 218.61611,270.18881 209.51946,274.4412 C 192.7109,282.29873 145.48857,285.25276 119.75378,280.05656 z M 190.38907,261.14005 C 209.26274,256.71722 216.76962,256.35428 218.27279,240.96099 C 224.12397,181.04182 225.53623,106.16073 219.7518,46.712478 C 218.29947,40.083174 215.46051,36.70887 209.9351,35.0446 C 171.41475,29.789255 124.54289,29.127719 94.668592,38.353851 C 85.407648,41.213924 84.056462,40.913827 81.068182,53.793712 C 79.287592,61.468289 77.675862,98.126254 77.477702,135.45757 C 76.978072,229.57971 82.298202,251.13286 108.26234,260.17361 C 132.47715,268.60523 157.28692,268.89719 190.38907,261.14005 z "
     style="fill:black;fill-opacity:1"
     id="path1875" />
</svg>
