<?xml version="1.0" encoding="UTF-8" standalone="no"?>
<!-- Created with Inkscape (http://www.inkscape.org/) -->
<svg
   xmlns:dc="http://purl.org/dc/elements/1.1/"
   xmlns:cc="http://web.resource.org/cc/"
   xmlns:rdf="http://www.w3.org/1999/02/22-rdf-syntax-ns#"
   xmlns:svg="http://www.w3.org/2000/svg"
   xmlns="http://www.w3.org/2000/svg"
   xmlns:sodipodi="http://sodipodi.sourceforge.net/DTD/sodipodi-0.dtd"
   xmlns:inkscape="http://www.inkscape.org/namespaces/inkscape"
   id="svg2178"
   sodipodi:version="0.32"
   inkscape:version="0.45.1"
   width="300"
   height="300"
   version="1.0"
   sodipodi:docbase="C:\Documents and Settings\L'équipage\Mes documents\Bertrand\Gifs"
   sodipodi:docname="囗-oracle.svg"
   inkscape:output_extension="org.inkscape.output.svg.inkscape">
  <metadata
     id="metadata2183">
    <rdf:RDF>
      <cc:Work
         rdf:about="">
        <dc:format>image/svg+xml</dc:format>
        <dc:type
           rdf:resource="http://purl.org/dc/dcmitype/StillImage" />
      </cc:Work>
    </rdf:RDF>
  </metadata>
  <defs
     id="defs2181" />
  <sodipodi:namedview
     inkscape:window-height="579"
     inkscape:window-width="752"
     inkscape:pageshadow="2"
     inkscape:pageopacity="0.0"
     guidetolerance="10.0"
     gridtolerance="10.0"
     objecttolerance="10.0"
     borderopacity="1.0"
     bordercolor="#666666"
     pagecolor="#ffffff"
     id="base"
     width="300px"
     height="300px"
     inkscape:showpageshadow="false"
     borderlayer="false"
     inkscape:zoom="1"
     inkscape:cx="29.5"
     inkscape:cy="129.03299"
     inkscape:window-x="44"
     inkscape:window-y="44"
     inkscape:current-layer="svg2178" />
  <path
     style="fill:#000000"
     d="M 33.054199,267.56152 C 25.634807,239.8844 26.958906,210.87552 25.821871,182.49127 C 25.332434,134.65649 25.416336,86.506555 32.516918,39.107516 C 37.904336,26.418875 37.323689,2.2074878 56.626645,8.4636644 C 112.44574,9.317703 168.56137,7.7514078 224.05045,14.835668 C 233.67872,18.821421 253.38604,16.362155 248.37381,31.480178 C 245.79669,106.01987 246.21993,181.24323 231.92304,254.73468 C 231.72803,272.30187 217.91794,286.55131 199.87907,279.90631 C 180.14096,277.98846 160.23262,277.4206 140.45659,275.40354 C 113.83697,273.4013 86.886962,271.1062 60.308897,273.47461 C 51.224232,278.81298 36.762158,283.70569 33.898963,269.36097 C 33.617375,268.76115 33.335787,268.16134 33.054199,267.56152 z M 223.814,59.804176 C 229.44781,43.967936 213.51872,36.490311 199.10627,37.752909 C 180.69382,38.015507 120.47544,32.743272 105.45824,32.249412 C 90.441037,31.755552 67.162441,28.862376 63.732164,48.716965 C 58.038754,79.520972 58.282581,111.07111 56.202026,142.26114 C 54.703938,176.13201 53.056117,209.99556 51.368435,243.85735 C 93.664827,244.96787 136.45699,242.68211 178.19519,250.95683 C 190.91121,259.82041 205.53487,256.38147 203.89313,238.93012 C 205.20493,232.01638 206.15833,225.04046 206.99783,218.0555 C 209.44943,193.95185 213.77653,170.05902 216.35657,145.99128"
     id="path2315"
     sodipodi:nodetypes="cccccccccccccccccccccc" />
  </svg>
