<?xml version="1.0" encoding="UTF-8" standalone="no"?>
<!-- Created with Inkscape (http://www.inkscape.org/) -->
<svg
   xmlns:svg="http://www.w3.org/2000/svg"
   xmlns="http://www.w3.org/2000/svg"
   version="1.0"
   width="300"
   height="300"
   id="svg2">
  <defs
     id="defs5" />
  <path
     d="M 68.905167,262.75281 C 60.528698,259.37259 62.92687,247.53225 72.313632,250.64901 C 95.559935,250.22775 118.81042,250.13406 142.05911,249.91113 C 145.14234,212.0882 145.40595,174.0708 146.42136,136.13847 C 126.17419,136.5033 105.82654,138.93368 85.647063,136.56544 C 74.217961,136.53875 78.333061,122.39941 88.227807,125.16115 C 107.5129,124.26053 126.83161,124.78678 146.13261,124.64456 C 146.42284,98.143994 145.34479,71.58994 147.16913,45.136195 C 144.8476,35.517941 158.75832,25.96316 162.70429,37.68854 C 164.8046,66.195992 161.95094,94.614461 164.37534,123.2507 C 182.77405,123.81345 201.323,122.61965 219.5863,125.15511 C 226.48535,125.42835 232.28203,136.81675 221.48454,134.86967 C 202.09861,137.02181 181.55075,135.54848 163.61902,137.41825 C 161.46099,174.91878 160.09447,213.9936 160.72679,251.55244 C 181.60159,251.35614 202.52351,249.69283 223.36686,251.23271 C 235.9237,250.61735 235.9028,268.29525 222.84871,264.98927 C 174.79068,262.15155 146.40026,268.7756 68.905167,262.75281 z "
     style="fill:black;fill-opacity:1"
     id="path1875" />
</svg>
