<?xml version="1.0" encoding="UTF-8" standalone="no"?>
<!-- Created with Inkscape (http://www.inkscape.org/) -->
<svg
   xmlns:dc="http://purl.org/dc/elements/1.1/"
   xmlns:cc="http://web.resource.org/cc/"
   xmlns:rdf="http://www.w3.org/1999/02/22-rdf-syntax-ns#"
   xmlns:svg="http://www.w3.org/2000/svg"
   xmlns="http://www.w3.org/2000/svg"
   xmlns:sodipodi="http://sodipodi.sourceforge.net/DTD/sodipodi-0.dtd"
   xmlns:inkscape="http://www.inkscape.org/namespaces/inkscape"
   width="300"
   height="300"
   id="svg2"
   sodipodi:version="0.32"
   inkscape:version="0.45.1"
   version="1.0"
   sodipodi:docbase="C:\Documents and Settings\Martin\桌面"
   sodipodi:docname="drawing.svg"
   inkscape:output_extension="org.inkscape.output.svg.inkscape">
  <defs
     id="defs4" />
  <sodipodi:namedview
     id="base"
     pagecolor="#ffffff"
     bordercolor="#666666"
     borderopacity="1.0"
     gridtolerance="10000"
     guidetolerance="10"
     objecttolerance="10"
     inkscape:pageopacity="0.0"
     inkscape:pageshadow="2"
     inkscape:zoom="0.98994949"
     inkscape:cx="151.5992"
     inkscape:cy="181.18273"
     inkscape:document-units="px"
     inkscape:current-layer="layer1"
     width="300px"
     height="300px"
     inkscape:window-width="742"
     inkscape:window-height="577"
     inkscape:window-x="50"
     inkscape:window-y="0" />
  <metadata
     id="metadata7">
    <rdf:RDF>
      <cc:Work
         rdf:about="">
        <dc:format>image/svg+xml</dc:format>
        <dc:type
           rdf:resource="http://purl.org/dc/dcmitype/StillImage" />
      </cc:Work>
    </rdf:RDF>
  </metadata>
  <g
     inkscape:label="Layer 1"
     inkscape:groupmode="layer"
     id="layer1">
    <path
       style="fill:#000000"
       d="M 52.479408,271.12569 C 51.603523,269.70848 52.083606,266.3129 53.546242,263.57993 C 55.865358,259.24665 61.329355,256.97779 77.441374,253.65779 C 79.61205,253.21053 86.716053,251.64215 93.228053,250.17254 C 99.740064,248.70293 113.35606,246.58794 123.48586,245.47258 L 141.90365,243.44462 L 141.90365,219.23194 C 141.90365,203.58027 140.75972,193.87761 138.66832,191.79038 C 135.66576,188.7938 122.57799,188.4118 102.43695,190.7329 C 63.962023,195.16686 44.005742,197.79481 41.054499,198.81608 C 39.130601,199.48185 34.627167,199.29134 31.04686,198.39274 C 26.376133,197.22047 24.762807,195.24548 25.335916,191.40166 C 27.135523,179.33169 63.30162,169.10715 107.85812,168.07173 C 121.47973,167.75519 134.01749,166.63541 135.71977,165.58333 C 140.05576,162.90355 138.70792,111.64343 133.68526,88.208965 C 126.43531,54.382498 126.41013,52.951283 132.82433,39.25668 C 136.14204,32.173299 139.64787,26.377803 140.61509,26.377803 C 141.5823,26.377803 146.34517,30.742167 151.19918,36.076389 L 160.02472,45.774976 L 160.21562,102.51199 C 160.3206,133.71735 161.35767,160.74913 162.52023,162.58265 C 164.16702,165.17985 175.01118,165.52672 211.60831,164.15278 C 261.72293,162.27139 274.77486,164.25605 274.77486,173.75784 C 274.77486,180.70482 270.13881,181.55572 223.81643,183.11074 C 200.47109,183.89441 177.52234,185.89198 172.81922,187.54976 L 164.26811,190.5639 L 164.26811,213.41278 C 164.26811,243.61162 165.03447,244.13972 212.16849,246.41954 C 231.40732,247.35012 249.22017,249.17512 251.75262,250.47508 C 257.88109,253.62098 257.56451,258.34355 250.83915,264.10197 C 246.06566,268.18917 242.42714,268.5735 223.87024,266.95076 C 181.89848,263.28044 133.88284,264.9543 102.96522,271.16561 C 86.565572,274.4603 54.524647,274.43496 52.479408,271.12569 z "
       id="path2496" />
  </g>
</svg>
