<?xml version="1.0" encoding="UTF-8" standalone="no"?>
<!-- Created with Inkscape (http://www.inkscape.org/) -->
<svg
   xmlns:dc="http://purl.org/dc/elements/1.1/"
   xmlns:cc="http://web.resource.org/cc/"
   xmlns:rdf="http://www.w3.org/1999/02/22-rdf-syntax-ns#"
   xmlns:svg="http://www.w3.org/2000/svg"
   xmlns="http://www.w3.org/2000/svg"
   xmlns:sodipodi="http://sodipodi.sourceforge.net/DTD/sodipodi-0.dtd"
   xmlns:inkscape="http://www.inkscape.org/namespaces/inkscape"
   width="300"
   height="300"
   id="svg2"
   sodipodi:version="0.32"
   inkscape:version="0.45.1"
   version="1.0"
   sodipodi:docbase="/home/yug/Desktop"
   sodipodi:docname="士-bigseal.svg"
   inkscape:output_extension="org.inkscape.output.svg.inkscape">
  <defs
     id="defs4" />
  <sodipodi:namedview
     id="base"
     pagecolor="#ffffff"
     bordercolor="#666666"
     borderopacity="1.0"
     gridtolerance="10000"
     guidetolerance="10"
     objecttolerance="10"
     inkscape:pageopacity="0.0"
     inkscape:pageshadow="2"
     inkscape:zoom="3.1011348"
     inkscape:cx="157.84827"
     inkscape:cy="147.31064"
     inkscape:document-units="px"
     inkscape:current-layer="layer1"
     width="300px"
     height="300px"
     inkscape:window-width="1280"
     inkscape:window-height="732"
     inkscape:window-x="0"
     inkscape:window-y="21" />
  <metadata
     id="metadata7">
    <rdf:RDF>
      <cc:Work
         rdf:about="">
        <dc:format>image/svg+xml</dc:format>
        <dc:type
           rdf:resource="http://purl.org/dc/dcmitype/StillImage" />
      </cc:Work>
    </rdf:RDF>
  </metadata>
  <g
     inkscape:label="Layer 1"
     inkscape:groupmode="layer"
     id="layer1">
    <path
       style="fill:#000000;fill-opacity:1"
       d="M 53.345329,279.71711 C 49.948262,269.8584 64.605219,274.01979 64.767813,197.19982 C 64.81821,173.6989 56.354931,133.41226 101.40563,118.02053 C 89.028898,134.66489 80.788243,168.12763 84.070113,201.56306 C 89.837261,260.31832 56.614727,289.20531 53.345329,279.71711 z M 213.29594,181.70074 C 213.5389,119.06287 183.19077,130.58264 177.64612,114.37552 C 173.83832,103.24522 209.81675,112.54883 217.59758,122.69675 C 235.84912,146.50078 228.37693,171.13474 229.04541,205.46284 C 229.93023,250.90107 253.97644,289.43351 245.26828,284.58736 C 213.06517,266.6661 213.17276,213.45678 213.29594,181.70074 z M 110.93411,191.05576 C 111.45624,179.36684 120.77546,181.8562 133.83146,177.77853 C 129.78143,173.39969 132.33576,110.11425 132.69112,80.096911 C 109.21032,79.726599 47.411558,84.157314 58.733434,74.195258 C 75.676911,59.28678 76.490706,64.685111 133.73373,60.99139 C 133.61987,30.761981 131.08201,23.343624 139.0404,18.495128 C 157.19392,7.4354324 151.10844,22.947517 151.08346,60.425283 C 222.89036,60.782682 227.77409,62.741024 223.26187,67.895449 C 211.25375,81.612615 206.39983,73.641726 152.84036,79.503745 C 149.69588,133.45454 149.46385,169.44612 140.80356,177.45916 C 160.88155,178.81715 178.3818,176.49966 188.89756,183.32984 C 201.17135,194.03461 110.75016,195.17381 110.93411,191.05576 z "
       id="path2208"
       sodipodi:nodetypes="cscsscssssscccscscscccs" />
  </g>
</svg>
