<?xml version="1.0" encoding="UTF-8" standalone="no"?>
<!-- Created with Inkscape (http://www.inkscape.org/) -->
<svg
   xmlns:dc="http://purl.org/dc/elements/1.1/"
   xmlns:cc="http://web.resource.org/cc/"
   xmlns:rdf="http://www.w3.org/1999/02/22-rdf-syntax-ns#"
   xmlns:svg="http://www.w3.org/2000/svg"
   xmlns="http://www.w3.org/2000/svg"
   xmlns:sodipodi="http://sodipodi.sourceforge.net/DTD/sodipodi-0.dtd"
   xmlns:inkscape="http://www.inkscape.org/namespaces/inkscape"
   width="300"
   height="300"
   id="svg2"
   sodipodi:version="0.32"
   inkscape:version="0.45.1"
   version="1.0"
   sodipodi:docbase="/home/yug/Desktop"
   sodipodi:docname="士-seal.svg"
   inkscape:output_extension="org.inkscape.output.svg.inkscape">
  <defs
     id="defs4" />
  <sodipodi:namedview
     id="base"
     pagecolor="#ffffff"
     bordercolor="#666666"
     borderopacity="1.0"
     gridtolerance="10000"
     guidetolerance="10"
     objecttolerance="10"
     inkscape:pageopacity="0.0"
     inkscape:pageshadow="2"
     inkscape:zoom="1.27"
     inkscape:cx="93.315571"
     inkscape:cy="154.0615"
     inkscape:document-units="px"
     inkscape:current-layer="layer1"
     width="300px"
     height="300px"
     inkscape:window-width="742"
     inkscape:window-height="577"
     inkscape:window-x="472"
     inkscape:window-y="114" />
  <metadata
     id="metadata7">
    <rdf:RDF>
      <cc:Work
         rdf:about="">
        <dc:format>image/svg+xml</dc:format>
        <dc:type
           rdf:resource="http://purl.org/dc/dcmitype/StillImage" />
      </cc:Work>
    </rdf:RDF>
  </metadata>
  <g
     inkscape:label="Layer 1"
     inkscape:groupmode="layer"
     id="layer1">
    <path
       style="fill:#000000"
       d="M 70.323582,282.59223 C 65.713487,281.07215 63.350838,278.46519 63.915252,275.52115 L 134.86501,267.27461 L 140.90466,126.36497 C 86.723843,122.83268 61.181787,135.44797 56.464503,117.64935 C 51.857261,100.26593 91.144785,102.52548 140.23574,103.12395 C 144.08221,53.34464 135.69903,8.5622469 155.61768,15.357987 C 178.72573,23.241869 160.91048,41.501009 164.83245,101.77035 C 213.31221,102.36849 241.42605,95.954248 244.34555,116.64568 C 247.04774,135.79702 224.98627,125.7163 163.23575,127.33579 L 161.74884,265.4436 C 179.34318,266.94791 215.6667,262.35155 222.19271,280.76705 C 223.00798,284.43999 213.5074,285 150.3791,285 C 110.36486,285 74.339875,283.91651 70.323582,282.59223 z "
       id="path4187"
       sodipodi:nodetypes="ccccscscscccsc" />
  </g>
</svg>
