<?xml version="1.0" encoding="UTF-8" standalone="no"?>
<!-- Created with Inkscape (http://www.inkscape.org/) -->
<svg
   xmlns:dc="http://purl.org/dc/elements/1.1/"
   xmlns:cc="http://web.resource.org/cc/"
   xmlns:rdf="http://www.w3.org/1999/02/22-rdf-syntax-ns#"
   xmlns:svg="http://www.w3.org/2000/svg"
   xmlns="http://www.w3.org/2000/svg"
   xmlns:sodipodi="http://sodipodi.sourceforge.net/DTD/sodipodi-0.dtd"
   xmlns:inkscape="http://www.inkscape.org/namespaces/inkscape"
   width="300"
   height="300"
   id="svg2"
   sodipodi:version="0.32"
   inkscape:version="0.45.1"
   version="1.0"
   sodipodi:docbase="C:\Documents and Settings\Martin\桌面"
   sodipodi:docname="drawing.svg"
   inkscape:output_extension="org.inkscape.output.svg.inkscape">
  <defs
     id="defs4" />
  <sodipodi:namedview
     id="base"
     pagecolor="#ffffff"
     bordercolor="#666666"
     borderopacity="1.0"
     gridtolerance="10000"
     guidetolerance="10"
     objecttolerance="10"
     inkscape:pageopacity="0.0"
     inkscape:pageshadow="2"
     inkscape:zoom="1.7411011"
     inkscape:cx="225.48726"
     inkscape:cy="111.95112"
     inkscape:document-units="px"
     inkscape:current-layer="layer1"
     width="300px"
     height="300px"
     inkscape:window-width="1024"
     inkscape:window-height="712"
     inkscape:window-x="0"
     inkscape:window-y="22" />
  <metadata
     id="metadata7">
    <rdf:RDF>
      <cc:Work
         rdf:about="">
        <dc:format>image/svg+xml</dc:format>
        <dc:type
           rdf:resource="http://purl.org/dc/dcmitype/StillImage" />
      </cc:Work>
    </rdf:RDF>
  </metadata>
  <g
     inkscape:label="Layer 1"
     inkscape:groupmode="layer"
     id="layer1">
    <path
       style="fill:#000000"
       d="M 216.41116,275.19254 C 201.30198,256.96886 188.0382,236.45209 176.82627,215.50107 C 171.44815,205.02341 163.05843,188.6844 158.18239,179.19216 C 153.30635,169.69992 148.90585,161.41434 148.40355,160.77976 C 147.90121,160.14517 139.44652,163.30075 129.61529,167.79216 C 93.542967,184.27183 84.681888,187.60167 75.736645,188.03885 C 68.456956,188.39463 66.602424,187.48745 66.602424,183.57074 C 66.602424,180.10443 70.123368,177.48618 78.5507,174.68576 C 91.694362,168.05436 105.53504,164.43359 118.79302,157.95078 C 127.41434,153.56976 136.36025,149.98527 138.67285,149.98527 C 143.82555,149.98527 142.76458,142.56768 134.21044,118.787 C 130.10878,107.38431 126.84542,102.19217 123.78023,102.19217 C 121.32674,102.19217 111.9196,105.77666 102.87547,110.1577 C 83.59884,119.49543 73.240354,120.53714 73.240354,113.13798 C 73.240354,106.79117 76.981812,104.04009 91.826561,99.471655 C 111.82269,93.317886 119.61307,87.962142 120.58226,79.702624 C 117.87823,61.618064 109.94109,45.387177 106.44068,25.923533 C 105.28926,16.532718 107.94308,13.429804 115.16556,15.722131 C 120.19904,17.319693 123.8692,28.204927 129.30928,57.670395 C 131.12435,67.501512 133.38913,76.806747 134.3421,78.348693 C 137.0417,82.716707 190.04655,59.511633 190.05844,53.956554 C 188.59665,48.543311 185.03093,44.962744 183.54194,39.131844 C 182.12415,32.559247 182.58318,30.502536 185.46794,30.502536 C 201.49136,34.864499 207.40131,59.630306 214.05244,73.221599 C 217.59024,80.403605 219.5688,105.76983 217.22996,113.95944 C 215.60085,119.66388 209.72384,125.16161 195.23566,134.53427 C 184.36151,141.56894 172.89218,148.44696 169.74827,149.81874 C 166.60433,151.19052 163.27573,153.53662 162.35136,155.03229 C 160.77023,157.59064 167.18494,171.26518 179.91244,192.46802 C 182.98058,197.57923 190.39656,210.12491 196.39238,220.34733 C 202.38824,230.56974 210.23663,242.27489 213.83328,246.35873 C 226.06507,260.24746 234.604,275.17878 233.25812,280.32538 C 231.34164,287.65398 228.12341,286.67347 216.41116,275.19254 z M 193.96247,117.64615 C 205.48717,107.50171 206.45471,105.73406 205.22571,97.068563 C 204.48622,91.854656 202.55945,84.209343 200.94396,80.078979 C 198.3061,73.334738 197.13732,72.760176 189.47792,74.44246 C 184.78708,75.472741 179.11768,77.219194 176.87921,78.323467 C 174.64076,79.42774 169.82223,81.499852 166.17137,82.928158 C 139.85812,93.222554 139.11748,93.808442 140.91373,102.90815 C 144.6993,122.08541 152.41942,139.36459 157.20202,139.36459 C 170.8673,136.40342 182.97434,126.03689 193.96247,117.64615 z "
       id="path2264"
       sodipodi:nodetypes="ccsssssccssssssccsssccccssssssssccsssssscc" />
  </g>
</svg>
