<?xml version="1.0" encoding="UTF-8" standalone="no"?>
<!-- Created with Inkscape (http://www.inkscape.org/) -->
<svg
   xmlns:svg="http://www.w3.org/2000/svg"
   xmlns="http://www.w3.org/2000/svg"
   version="1.0"
   width="300"
   height="300"
   id="svg2">
  <defs
     id="defs5" />
  <path
     d="M 70.407642,276.38536 C 67.757022,274.70914 70.418302,270.79549 83.855922,256.60846 C 93.069982,246.88051 103.41634,235.67904 106.84783,231.71628 C 118.91945,217.79388 123.54312,200.23211 130.60205,183.82106 C 136.90634,169.61817 139.17324,162.26145 141.81774,147.42307 C 145.04771,129.29963 146.97721,95.274904 144.84956,93.959944 C 128.31419,100.06855 112.85063,111.65141 98.647242,122.20755 C 84.656082,133.37203 79.407912,135.00459 74.914372,129.59022 C 71.450992,125.4171 72.539902,123.81698 84.260602,115.85627 C 93.484842,109.07416 102.3077,102.12348 112.47511,96.787174 C 128.40516,88.796884 144.01202,78.348995 145.6504,74.578249 C 146.45384,72.729111 147.62239,60.89212 148.24719,48.273827 C 149.46189,23.741991 151.55199,19.06033 158.89097,24.432632 C 162.95459,27.407296 163.85367,29.909545 162.71458,51.328473 C 162.06482,63.546212 161.76521,68.639108 162.48168,76.843084 C 169.97153,84.670993 199.33277,100.8702 225.56565,115.83069 C 237.30418,122.52512 236.51329,128.37135 226.03523,128.37135 C 212.70229,127.18844 203.46658,117.12167 192.5053,110.59595 C 159.76034,91.429886 160.86064,91.163449 158.79167,118.75965 C 156.15191,153.96915 162.42548,172.54952 192.3004,218.00206 C 201.03561,233.42518 213.82963,246.28595 221.94376,262.05015 C 225.1472,268.80091 225.23961,270.2967 222.55812,271.99425 C 216.46347,275.85254 213.8265,273.90536 200.31503,255.56962 C 182.1193,232.71645 166.4019,208.11316 156.40173,180.54473 C 153.82266,166.79709 150.25478,169.99838 142.1063,193.37135 C 131.65183,223.35876 109.11054,254.89795 85.628992,272.3929 C 76.583672,279.13212 75.288382,279.47187 70.407642,276.38536 z "
     style="fill:black;fill-opacity:1"
     id="path1875" />
</svg>
