<?xml version="1.0" encoding="UTF-8" standalone="no"?>
<!-- Created with Inkscape (http://www.inkscape.org/) -->
<svg
   xmlns:svg="http://www.w3.org/2000/svg"
   xmlns="http://www.w3.org/2000/svg"
   version="1.0"
   width="300"
   height="300"
   id="svg2">
  <defs
     id="defs5" />
  <path
     d="M 102.03498,272.9629 C 98.266277,270.63371 98.512297,266.01394 103.3764,247.77374 C 114.61052,205.64623 119.87417,169.26505 120.40567,130.07123 C 120.69831,108.49166 119.91661,89.814523 118.66857,88.566485 C 114.69351,84.591423 103.30165,93.030453 94.017537,106.82785 C 84.226687,121.37832 80.822967,144.21096 79.212487,206.14218 C 78.210807,244.66192 75.446647,256.10688 67.514277,254.57847 C 60.111477,253.1521 55.492707,235.84851 57.862827,218.42064 C 58.912427,210.70275 61.232097,184.95506 63.017647,161.20355 C 65.788497,124.34539 67.619867,115.70553 75.518737,102.22712 C 87.555611,78.213024 101.37132,68.801086 127.19992,64.326134 C 143.61217,61.915884 143.86434,61.683761 143.91725,48.938436 C 143.9468,41.821142 145.40514,33.731427 147.15801,30.961289 C 152.22903,22.947339 161.40418,32.93124 161.40418,46.463194 C 161.40418,57.497054 161.91396,57.883819 179.14755,59.924883 C 198.1251,62.172493 214.14695,72.727609 225.58755,90.519316 C 232.17275,100.76022 233.20443,107.03342 236.81403,158.78243 C 238.02529,176.14768 241.33708,201.97768 244.17358,216.18244 C 249.89335,244.82627 248.39537,255.256 238.56159,255.256 C 231.28939,255.256 229.96358,248.77497 226.36154,195.61779 C 222.05719,132.09649 218.58763,108.61195 211.77876,96.910957 C 203.10722,82.008987 188.01195,78.746914 184.71345,91.062171 C 181.51274,103.01233 182.21257,186.84234 185.73274,213.15844 C 187.41036,225.70001 189.93007,244.24924 191.33211,254.37896 C 193.67209,271.28538 193.30795,272.79664 186.89436,272.79664 C 180.91493,272.79664 179.35043,269.1292 176.04447,247.36271 C 164.26342,169.7962 162.66218,122.14044 170.62229,85.988749 L 172.74651,76.341393 L 132.43524,76.341393 L 134.75909,93.859459 C 137.31356,113.116 131.72849,193.21723 125.70713,223.68283 C 123.60971,234.29492 121.14241,248.93249 120.22424,256.21077 C 118.47358,270.08815 110.00434,277.88823 102.03498,272.9629 z "
     style="fill:black;fill-opacity:1"
     id="path1875" />
</svg>
