<?xml version="1.0" encoding="UTF-8" standalone="no"?>
<!-- Created with Inkscape (http://www.inkscape.org/) -->
<svg
   xmlns:dc="http://purl.org/dc/elements/1.1/"
   xmlns:cc="http://web.resource.org/cc/"
   xmlns:rdf="http://www.w3.org/1999/02/22-rdf-syntax-ns#"
   xmlns:svg="http://www.w3.org/2000/svg"
   xmlns="http://www.w3.org/2000/svg"
   xmlns:sodipodi="http://sodipodi.sourceforge.net/DTD/sodipodi-0.dtd"
   xmlns:inkscape="http://www.inkscape.org/namespaces/inkscape"
   id="svg2"
   sodipodi:version="0.32"
   inkscape:version="0.45.1"
   width="300"
   height="300"
   version="1.0"
   sodipodi:docbase="C:\Documents and Settings\Martin\桌面"
   sodipodi:docname="大-oracle.svg"
   inkscape:output_extension="org.inkscape.output.svg.inkscape">
  <metadata
     id="metadata7">
    <rdf:RDF>
      <cc:Work
         rdf:about="">
        <dc:format>image/svg+xml</dc:format>
        <dc:type
           rdf:resource="http://purl.org/dc/dcmitype/StillImage" />
      </cc:Work>
    </rdf:RDF>
  </metadata>
  <defs
     id="defs5" />
  <sodipodi:namedview
     inkscape:window-height="578"
     inkscape:window-width="800"
     inkscape:pageshadow="2"
     inkscape:pageopacity="0.0"
     guidetolerance="10.0"
     gridtolerance="10.0"
     objecttolerance="10.0"
     borderopacity="1.0"
     bordercolor="#666666"
     pagecolor="#ffffff"
     id="base"
     width="300px"
     height="300px"
     inkscape:zoom="1.607021"
     inkscape:cx="167.42253"
     inkscape:cy="223.22002"
     inkscape:window-x="0"
     inkscape:window-y="0"
     inkscape:current-layer="svg2" />
  <path
     style="fill:#000000"
     d="M 98.732034,270.9698 C 96.639066,259.0368 94.762636,237.12153 94.562202,222.26915 C 94.175512,193.61209 105.85838,172.79299 118.95562,161.53118 C 131.5878,150.66924 135.40514,136.9737 133.16025,110.56891 C 130.55219,79.892508 128.757,77.101211 118.39881,87.616995 C 112.64486,93.458478 109.28639,101.56979 106.76873,115.70568 C 103.02084,136.74889 94.754661,158.81467 91.704896,155.917 C 88.573662,152.94188 85.119723,125.97292 90.133856,96.455689 C 91.066044,90.968112 100.90071,85.382089 108.90436,75.920424 C 125.62905,56.148936 126.17319,54.089614 128.05753,35.206542 C 129.54851,21.007627 128.96128,26.510679 129.88686,13.960117 C 133.19664,6.4102761 140.20404,16.868529 142.39464,35.265535 C 145.5106,61.433607 149.01932,65.996749 170.89159,75.590963 C 181.25469,80.136715 193.1485,86.132379 195.31371,90.307307 C 214.0554,126.44481 209.16585,132.08897 204.92223,137.61778 C 202.29002,141.04718 199.10357,140.06718 196.1289,137.00801 C 193.59048,134.39748 189.94532,124.25258 187.01147,115.22607 C 184.07761,106.19956 180.65144,97.411484 179.39777,95.697023 C 176.64376,91.930832 153.44615,81.012839 150.3861,79.418414 C 151.12972,105.35571 146.02772,138.24719 169.47154,155.9571 C 195.71221,174.26621 201.46167,204.04955 208.41912,236.05322 C 211.19126,248.80486 212.99444,259.87139 212.21871,260.41683 C 208.45999,263.05971 198.57898,243.09502 180.48653,195.80905 C 177.15634,187.10534 166.2283,176.35164 159.74944,170.3407 L 147.96975,159.41164 L 135.2984,170.28862 C 122.91577,180.91783 113.31471,196.07961 113.02487,212.96528 C 111.74584,289.52347 104.87673,306.00314 98.732034,270.9698 z "
     id="path2195"
     sodipodi:nodetypes="cssssssssccsssssssccssscccsc" />
</svg>
