<?xml version="1.0" encoding="UTF-8" standalone="no"?>
<!-- Created with Inkscape (http://www.inkscape.org/) -->
<svg
   xmlns:dc="http://purl.org/dc/elements/1.1/"
   xmlns:cc="http://web.resource.org/cc/"
   xmlns:rdf="http://www.w3.org/1999/02/22-rdf-syntax-ns#"
   xmlns:svg="http://www.w3.org/2000/svg"
   xmlns="http://www.w3.org/2000/svg"
   xmlns:sodipodi="http://sodipodi.sourceforge.net/DTD/sodipodi-0.dtd"
   xmlns:inkscape="http://www.inkscape.org/namespaces/inkscape"
   width="300"
   height="300"
   id="svg2"
   sodipodi:version="0.32"
   inkscape:version="0.45.1"
   version="1.0"
   sodipodi:docbase="C:\Documents and Settings\Martin\桌面"
   sodipodi:docname="女-seal.svg"
   inkscape:output_extension="org.inkscape.output.svg.inkscape">
  <defs
     id="defs4" />
  <sodipodi:namedview
     id="base"
     pagecolor="#ffffff"
     bordercolor="#666666"
     borderopacity="1.0"
     gridtolerance="10000"
     guidetolerance="10"
     objecttolerance="10"
     inkscape:pageopacity="0.0"
     inkscape:pageshadow="2"
     inkscape:zoom="2.8"
     inkscape:cx="150.9816"
     inkscape:cy="188.08617"
     inkscape:document-units="px"
     inkscape:current-layer="layer1"
     width="300px"
     height="300px"
     inkscape:window-width="742"
     inkscape:window-height="577"
     inkscape:window-x="22"
     inkscape:window-y="0" />
  <metadata
     id="metadata7">
    <rdf:RDF>
      <cc:Work
         rdf:about="">
        <dc:format>image/svg+xml</dc:format>
        <dc:type
           rdf:resource="http://purl.org/dc/dcmitype/StillImage" />
      </cc:Work>
    </rdf:RDF>
  </metadata>
  <g
     inkscape:label="Layer 1"
     inkscape:groupmode="layer"
     id="layer1">
    <path
       style="fill:#000000"
       d="M 85.050547,279.31816 C 82.825068,275.1598 82.498831,262.59309 83.80258,231.24818 C 85.46285,191.33282 88.809617,169.41097 95.012676,157.82048 C 98.404141,151.48346 98.377451,151.04523 94.35495,147.02272 C 92.52157,145.18935 87.275719,135.85363 82.697527,126.27672 C 76.177367,112.63747 74.333501,105.53145 74.188805,93.485183 C 74.019407,79.381783 74.624418,77.572723 81.48334,71.673744 C 89.89676,64.833874 99.541085,63.216255 109.4967,58.14517 C 127.06428,51.457547 128.76162,53.881963 130.09846,30.758979 C 130.09846,17.370029 130.70587,15.373519 134.77935,15.373519 C 142.72243,15.373519 145.57778,21.416949 143.66409,34.178364 L 141.91904,45.815235 L 154.08359,44.455365 C 160.77411,43.70744 175.08303,41.82241 185.88119,40.266408 C 198.8091,38.403511 206.35534,38.278426 207.97706,39.900143 C 212.09274,44.015818 208.02538,47.12127 196.19579,48.895223 C 183.98168,50.726846 183.90724,50.794895 187.14849,57.166491 C 194.66127,71.934997 196.1312,77.390263 195.83781,89.414973 C 195.45208,105.22414 192.23434,109.5988 174.06605,119.0146 C 167.02381,122.6643 159.85963,126.77888 158.14564,128.15812 C 152.36548,132.80942 154.88007,138.78566 164.37835,142.97101 C 175.89918,148.04755 191.75559,162.87185 195.11454,171.70655 C 198.75517,181.28211 195.87999,190.3677 185.72582,201.37509 C 180.80158,206.71308 175.21386,214.76765 173.30869,219.27413 C 170.14582,226.75562 170.34661,228.48906 175.61906,239.21881 C 180.78809,249.73805 183.73567,252.18965 203.73777,262.60635 C 216.02718,269.00642 225.96996,275.45726 225.83284,276.94158 C 225.20286,283.76081 224.52506,284.62648 219.81561,284.62648 C 217.05462,284.62648 212.84754,283.63548 210.46654,282.42426 C 208.08556,281.21306 203.11096,278.81112 199.4119,277.0866 C 190.02082,272.70852 171.77567,255.20935 165.37658,244.4429 C 158.07035,232.15018 158.5111,221.03521 166.73962,210.06932 C 170.43794,205.14069 174.208,200.54726 175.11755,199.86166 C 176.02711,199.17607 178.678,194.89449 181.0084,190.34706 C 188.41274,175.8987 185.85197,170.64291 164.51307,156.49145 C 139.95213,141.58058 148.06641,125.35276 120.60734,147.01176 L 114.85588,152.07779 L 126.21678,163.43869 C 138.21307,175.43495 138.79401,176.62922 135.3098,182.1311 C 133.67858,184.70693 132.25413,184.88845 129.73853,182.84109 C 127.87969,181.3282 122.28411,176.68571 117.30391,172.52445 C 102.70853,160.32907 102.63675,160.4084 97.779581,194.1065 C 96.358223,203.96752 95.195294,227.10931 95.195294,245.53272 C 95.195294,271.54053 94.398057,279.69143 91.629536,281.9891 C 88.765963,284.36566 87.470407,283.83969 85.050547,279.31816 z M 121.57869,129.7785 L 133.0036,123.82262 L 131.09921,100.13835 C 130.05179,87.111993 129.11768,73.103753 129.02337,69.008941 C 126.38523,51.492995 92.85092,76.797 87.306658,83.451693 C 82.451458,92.523713 88.236498,116.32222 99.695812,134.41823 C 108.39926,145.35675 111.90048,135.11923 121.57869,129.7785 z M 175.67979,97.739123 C 182.18751,85.963873 182.7134,81.701383 179.41922,67.430222 C 176.1103,53.095191 171.29141,50.713444 152.82242,54.284702 L 141.31733,56.509385 L 140.72954,78.947143 C 140.08069,103.71557 143.10816,115.09685 150.34558,115.09685 C 159.85281,111.19889 169.95834,106.65122 175.67979,97.739123 z "
       id="path3578"
       sodipodi:nodetypes="cssssscccscccsssssssssssssssssssssccccsssssscccccccccsccccc" />
  </g>
</svg>
