<?xml version="1.0" encoding="UTF-8" standalone="no"?>
<!-- Created with Inkscape (http://www.inkscape.org/) -->
<svg
   xmlns:dc="http://purl.org/dc/elements/1.1/"
   xmlns:cc="http://web.resource.org/cc/"
   xmlns:rdf="http://www.w3.org/1999/02/22-rdf-syntax-ns#"
   xmlns:svg="http://www.w3.org/2000/svg"
   xmlns="http://www.w3.org/2000/svg"
   xmlns:sodipodi="http://sodipodi.sourceforge.net/DTD/sodipodi-0.dtd"
   xmlns:inkscape="http://www.inkscape.org/namespaces/inkscape"
   width="300"
   height="300"
   id="svg2"
   sodipodi:version="0.32"
   inkscape:version="0.45.1"
   version="1.0"
   sodipodi:docbase="C:\Documents and Settings\Martin\桌面"
   sodipodi:docname="drawing.svg"
   inkscape:output_extension="org.inkscape.output.svg.inkscape">
  <defs
     id="defs4" />
  <sodipodi:namedview
     id="base"
     pagecolor="#ffffff"
     bordercolor="#666666"
     borderopacity="1.0"
     gridtolerance="10000"
     guidetolerance="10"
     objecttolerance="10"
     inkscape:pageopacity="0.0"
     inkscape:pageshadow="2"
     inkscape:zoom="1.4"
     inkscape:cx="185.4264"
     inkscape:cy="128.25235"
     inkscape:document-units="px"
     inkscape:current-layer="layer1"
     width="300px"
     height="300px"
     inkscape:window-width="742"
     inkscape:window-height="577"
     inkscape:window-x="22"
     inkscape:window-y="0"
     showguides="true"
     inkscape:guide-bbox="true" />
  <metadata
     id="metadata7">
    <rdf:RDF>
      <cc:Work
         rdf:about="">
        <dc:format>image/svg+xml</dc:format>
        <dc:type
           rdf:resource="http://purl.org/dc/dcmitype/StillImage" />
      </cc:Work>
    </rdf:RDF>
  </metadata>
  <g
     inkscape:label="Layer 1"
     inkscape:groupmode="layer"
     id="layer1">
    <path
       style="fill:#000000"
       d="M 217.01072,109.35788 C 226.50086,125.24353 217.9232,152.93663 212.92739,171.11713 C 208.5411,185.72338 196.84694,195.68108 184.05923,195.69863 C 179.84935,195.70442 170.54311,197.80265 163.37879,200.36142 C 150.67974,204.89687 150.29978,205.33804 148.24163,217.93602 C 145.38978,235.39259 138.98546,254.46435 131.69524,267.21067 C 128.0721,271.92087 125.86375,293.06159 116.79588,284.768 C 116.08126,283.61175 119.38585,273.35374 124.13942,261.97245 C 133.4726,239.62641 139.78066,215.30177 138.26929,207.48583 C 137.57632,203.90217 133.53272,201.83055 122.9981,199.66207 C 115.11735,198.03987 104.78924,194.65723 100.04676,192.14511 C 88.632832,186.09906 81.314791,169.07882 81.314791,148.57843 C 80.137136,141.81488 74.594,112.09552 84.571302,110.35939 C 86.642042,111.04438 88.602566,120.17102 89.955468,135.4236 C 93.344394,173.63027 99.200724,182.21287 124.78158,186.46206 C 135.04699,188.16722 135.92129,187.81262 139.76151,180.38646 C 142.72605,174.65373 143.83709,164.81661 143.83,144.3647 C 143.81834,110.59438 140.37615,102.90877 120.82619,93.002054 C 94.396067,79.608885 87.583087,63.609016 98.218705,39.909681 C 107.74423,18.684023 118.77666,13.323686 152.93702,13.323686 C 176.80097,13.323686 177.80164,13.56558 186.8681,21.526027 C 192.00617,26.037326 197.90867,33.013163 199.98478,37.027887 C 205.14843,47.013327 204.75323,66.827357 199.20039,76.351136 C 191.72878,89.165877 162.07619,101.56513 162.07619,91.874651 C 162.07619,90.568974 168.52408,84.63248 176.40483,78.68245 C 189.00649,69.168081 190.73348,66.759829 190.73348,58.701012 C 190.73348,44.848589 184.57856,35.519757 171.33045,29.2924 C 158.04134,23.045793 144.3394,22.286826 130.69704,27.041631 C 113.22536,33.131094 108.14623,38.123682 106.1966,51.124715 C 103.93797,66.186422 107.32257,71.842321 126.06717,84.32958 C 152.85751,102.1768 152.77626,101.99605 154.26058,147.04012 L 155.56318,186.56993 L 169.20884,186.46038 C 181.01551,186.36562 184.0383,185.20343 191.63904,177.83651 C 202.35659,167.44864 206.36469,154.98305 206.36469,132.03836 C 206.36469,122.43855 208.25672,112.42674 209.1951,109.29554 C 209.1951,109.29554 210.07164,107.32754 212.02553,107.34312 C 213.97944,107.35871 215.76443,108.02013 217.01072,109.35788"
       id="path2237"
       sodipodi:nodetypes="ccsssccssssccssssssssssssssssscccssscc" />
  </g>
</svg>
