<?xml version="1.0" encoding="UTF-8" standalone="no"?>
<!-- Created with Inkscape (http://www.inkscape.org/) -->
<svg
   xmlns:svg="http://www.w3.org/2000/svg"
   xmlns="http://www.w3.org/2000/svg"
   version="1.0"
   width="300"
   height="300"
   id="svg2">
  <defs
     id="defs5" />
  <path
     d="M 234.22283,283.07257 C 234.13669,282.52037 233.68489,237.61714 233.21883,183.2876 C 232.58996,109.97802 234.12204,89.67745 227.23131,78.315623 C 222.54017,70.580602 169.14636,64.331547 152.70535,64.975904 C 134.21313,65.700654 96.040819,65.038645 79.136255,91.942222 C 72.688439,102.20391 76.849401,154.79671 76.372987,213.7344 C 75.962354,264.53434 78.182794,281.49727 66.700225,279.30616 C 60.612955,278.14458 59.345765,271.06027 57.129805,225.8021 C 52.835605,138.0986 53.364055,90.107317 58.739155,79.648285 C 67.212755,63.160118 82.129474,55.430058 111.71504,52.195424 C 137.09054,49.421083 139.86547,48.221286 141.99958,39.101261 C 145.2921,25.030904 160.9332,23.047351 164.25414,36.279013 C 166.52793,45.338497 168.98507,46.18275 199.0824,48.245667 C 244.01858,51.325662 247.63008,55.372686 251.04495,106.4745 C 255.27954,169.84312 254.85104,267.80884 250.3021,276.30861 C 247.00578,282.46785 234.9215,287.55127 234.22283,283.07257 z "
     style="fill:black;fill-opacity:1"
     id="path1875" />
</svg>
