<?xml version="1.0" encoding="UTF-8" standalone="no"?>
<!-- Created with Inkscape (http://www.inkscape.org/) -->
<svg
   xmlns:svg="http://www.w3.org/2000/svg"
   xmlns="http://www.w3.org/2000/svg"
   version="1.0"
   width="300"
   height="300"
   id="svg2">
  <defs
     id="defs5" />
  <path
     d="M 210.40997,273.9246 C 208.46995,270.78557 202.42758,243.73098 199.33119,224.3196 C 193.61008,181.26651 197.85135,138.08054 201.43546,95.103886 C 202.90803,76.773788 202.85043,76.499108 196.6868,72.460545 C 192.56193,69.757823 173.06555,65.318528 155.76508,64.666164 C 134.8769,63.878514 115.66327,67.520899 110.63524,72.165926 C 103.21642,79.019632 105.9803,98.330136 105.09404,131.27297 C 103.55666,188.41808 99.219971,217.46146 97.004311,223.16689 C 93.427333,238.4835 92.383571,254.30709 87.169241,269.27545 C 86.191031,271.17743 83.428861,272.73359 81.031081,272.73359 C 75.942031,272.73359 73.773721,263.78154 77.713071,259.03492 C 81.009901,255.06249 86.919561,228.18977 88.389391,210.48704 C 94.497174,171.41197 94.571872,131.82327 93.998771,92.385486 C 93.653851,76.746238 94.373731,70.334982 96.716821,68.178489 C 104.09443,61.388412 112.29085,58.383473 129.69633,56.08767 L 148.13975,53.65496 L 148.83878,38.789575 C 149.62525,22.064855 152.51464,16.266725 157.85427,20.698228 C 160.15668,22.609061 161.04995,27.449569 160.73125,36.288294 C 160.07269,54.552537 159.85842,54.1321 170.61768,55.686883 C 198.17853,59.669609 203.25799,61.263695 208.75638,67.655957 C 214.95132,74.858003 214.95173,74.076857 208.72161,133.43341 C 205.56862,163.47314 206.84527,211.87173 211.21022,227.77775 C 213.77108,237.10959 217.64822,255.08293 219.78895,267.54638 C 221.10535,275.21054 220.73691,276.19173 216.54251,276.19173 C 213.94026,276.19173 211.18061,275.17151 210.40997,273.9246 z "
     style="fill:black;fill-opacity:1"
     id="path1875" />
</svg>
