<?xml version="1.0" encoding="UTF-8" standalone="no"?>
<!-- Created with Inkscape (http://www.inkscape.org/) -->
<svg
   xmlns:dc="http://purl.org/dc/elements/1.1/"
   xmlns:cc="http://web.resource.org/cc/"
   xmlns:rdf="http://www.w3.org/1999/02/22-rdf-syntax-ns#"
   xmlns:svg="http://www.w3.org/2000/svg"
   xmlns="http://www.w3.org/2000/svg"
   xmlns:sodipodi="http://sodipodi.sourceforge.net/DTD/sodipodi-0.dtd"
   xmlns:inkscape="http://www.inkscape.org/namespaces/inkscape"
   width="300"
   height="300"
   id="svg2"
   sodipodi:version="0.32"
   inkscape:version="0.45.1"
   version="1.0"
   sodipodi:docbase="C:\Documents and Settings\Martin\桌面"
   sodipodi:docname="drawing.svg"
   inkscape:output_extension="org.inkscape.output.svg.inkscape">
  <defs
     id="defs4" />
  <sodipodi:namedview
     id="base"
     pagecolor="#ffffff"
     bordercolor="#666666"
     borderopacity="1.0"
     gridtolerance="10000"
     guidetolerance="10"
     objecttolerance="10"
     inkscape:pageopacity="0.0"
     inkscape:pageshadow="2"
     inkscape:zoom="1"
     inkscape:cx="123.18664"
     inkscape:cy="174.5919"
     inkscape:document-units="px"
     inkscape:current-layer="layer1"
     width="300px"
     height="300px"
     inkscape:window-width="742"
     inkscape:window-height="577"
     inkscape:window-x="50"
     inkscape:window-y="0" />
  <metadata
     id="metadata7">
    <rdf:RDF>
      <cc:Work
         rdf:about="">
        <dc:format>image/svg+xml</dc:format>
        <dc:type
           rdf:resource="http://purl.org/dc/dcmitype/StillImage" />
      </cc:Work>
    </rdf:RDF>
  </metadata>
  <g
     inkscape:label="Layer 1"
     inkscape:groupmode="layer"
     id="layer1">
    <path
       style="fill:#000000"
       d="M 200.97127,281.582 C 199.92905,279.37692 198.8272,255.92291 198.52271,229.46198 C 198.05045,188.42029 195.14025,148.53368 191.77576,136.98971 C 190.82486,133.72707 189.17279,133.99017 173.73861,139.86224 C 156.1541,146.55241 131.51178,143.39447 106.2661,131.21555 C 99.432802,127.91906 92.473298,125.22193 90.800533,125.22193 C 89.127759,125.22193 85.747392,121.91387 83.288582,117.87069 C 79.154488,111.07275 79.097545,110.2106 82.531845,106.41575 C 87.500177,100.9258 88.978719,101.18392 97.117936,108.96221 C 100.94527,112.6198 109.95667,117.93528 117.14326,120.77438 C 137.68014,131.58376 141.94543,129.57129 164.73188,126.23252 C 172.50203,125.96269 184.04807,121.28922 184.04807,118.41395 C 184.04807,114.80482 164.66505,97.918715 154.83731,92.966087 C 148.85244,89.950069 143.44028,86.953043 142.81025,86.306018 C 129.33633,77.556692 112.2135,74.077761 96.497968,71.209268 C 85.915346,69.401791 81.469951,64.827421 85.535496,59.928729 C 88.779977,56.019377 96.853462,55.521156 107.13724,58.595667 C 133.43728,66.433011 176.64805,79.64281 193.21203,104.49313 C 193.21203,109.0167 201.59971,106.89815 204.11497,101.73929 C 209.29398,91.117032 209.78901,79.003001 205.41723,69.871646 C 197.62443,55.998673 161.2393,43.082596 147.46419,38.187844 C 119.78633,29.143136 102.93754,19.998614 106.81195,16.12421 C 110.17386,12.762296 128.84884,14.616733 138.77604,19.298264 C 146.63662,23.125158 154.98041,25.299281 162.88817,29.000365 C 170.36372,32.61774 178.27513,34.648347 185.79807,38.164325 C 203.60027,44.408309 209.91534,50.031155 220.37025,67.293166 C 229.27515,84.748203 225.02284,107.25159 210.68903,118.52656 C 205.99359,122.21998 205.745,123.63569 207.43672,137.04699 C 208.44415,145.03372 209.75716,163.93966 210.35448,179.0602 C 210.95181,194.18073 212.01618,214.79964 212.71974,224.88 C 213.4233,234.96036 214.55714,251.25279 215.2394,261.08545 C 216.54805,279.94588 214.63214,285.59123 206.92254,285.59123 C 204.69156,285.59123 202.01349,283.78707 200.97127,281.582 z M 78.077795,185.40732 C 70.026343,176.51056 75.451541,175.12195 121.35034,174.33145 C 173.3324,173.4362 184.04807,174.4615 184.04807,180.33061 C 184.04807,182.63326 182.96535,185.18642 181.642,186.00429 C 180.31868,186.82215 157.3226,187.95859 130.53962,188.52971 C 85.628507,189.48739 81.550567,189.24467 78.077795,185.40732 z "
       id="path2271"
       sodipodi:nodetypes="cssssssssccssccsccsccsccccssssssccssssc" />
  </g>
</svg>
