<?xml version="1.0" encoding="UTF-8" standalone="no"?>
<!-- Created with Inkscape (http://www.inkscape.org/) -->
<svg
   xmlns:dc="http://purl.org/dc/elements/1.1/"
   xmlns:cc="http://web.resource.org/cc/"
   xmlns:rdf="http://www.w3.org/1999/02/22-rdf-syntax-ns#"
   xmlns:svg="http://www.w3.org/2000/svg"
   xmlns="http://www.w3.org/2000/svg"
   xmlns:sodipodi="http://sodipodi.sourceforge.net/DTD/sodipodi-0.dtd"
   xmlns:inkscape="http://www.inkscape.org/namespaces/inkscape"
   width="300"
   height="300"
   id="svg2"
   sodipodi:version="0.32"
   inkscape:version="0.45.1"
   version="1.0"
   sodipodi:docbase="C:\Documents and Settings\Martin\桌面"
   sodipodi:docname="drawing.svg"
   inkscape:output_extension="org.inkscape.output.svg.inkscape">
  <defs
     id="defs4" />
  <sodipodi:namedview
     id="base"
     pagecolor="#ffffff"
     bordercolor="#666666"
     borderopacity="1.0"
     gridtolerance="10000"
     guidetolerance="10"
     objecttolerance="10"
     inkscape:pageopacity="0.0"
     inkscape:pageshadow="2"
     inkscape:zoom="0.98994949"
     inkscape:cx="151.5992"
     inkscape:cy="150.67034"
     inkscape:document-units="px"
     inkscape:current-layer="layer1"
     width="300px"
     height="300px"
     inkscape:window-width="742"
     inkscape:window-height="577"
     inkscape:window-x="50"
     inkscape:window-y="0" />
  <metadata
     id="metadata7">
    <rdf:RDF>
      <cc:Work
         rdf:about="">
        <dc:format>image/svg+xml</dc:format>
        <dc:type
           rdf:resource="http://purl.org/dc/dcmitype/StillImage" />
      </cc:Work>
    </rdf:RDF>
  </metadata>
  <g
     inkscape:label="Layer 1"
     inkscape:groupmode="layer"
     id="layer1">
    <path
       style="fill:#000000"
       d="M 205.24563,284.28448 C 182.55727,268.86735 162.81117,239.74426 161.22146,219.3542 C 159.63619,199.02131 161.61651,193.55614 176.22984,177.93441 C 183.71511,169.93266 189.83941,162.21491 189.83941,160.78387 C 192.82553,157.22373 194.23988,154.84081 194.47502,149.28318 C 194.47502,138.88266 186.25597,130.00441 168.82683,121.57784 C 155.37228,115.0729 154.46056,115.12913 145.30232,123.02846 C 141.1149,126.6403 132.99527,132.11611 127.2587,135.19694 C 114.74438,141.91778 107.26688,149.76385 105.58116,157.94301 C 99.917357,185.42431 97.279347,210.4364 97.209457,237.31877 C 97.123627,270.32697 95.991967,273.84151 86.60868,270.24082 C 82.28527,268.58176 81.994495,239.40091 85.884712,197.58464 C 90.38159,149.24739 95.531177,136.86779 115.3951,126.64207 C 137.11527,115.46072 141.97259,108.98922 145.61349,86.381191 C 148.40883,69.023711 146.05853,62.114984 138.12712,64.375025 C 126.85646,67.586584 81.877837,84.71038 79.312426,86.766359 C 75.778815,89.598278 66.995799,85.100839 66.995799,80.459477 C 86.214694,62.261448 119.5091,57.535181 143.20416,45.574209 C 143.68801,45.138279 144.43347,40.310133 144.86071,34.844937 C 145.84113,22.304016 148.04067,9.8425267 149.27381,9.8425267 C 149.79346,9.8425267 152.87523,11.052958 156.12221,12.532385 C 161.67116,15.060666 162.02576,16.248356 162.02576,32.306454 C 162.02576,44.013121 162.93773,49.635903 164.92301,50.169763 C 180.61634,58.838556 227.62365,63.000691 232.52771,78.610266 C 235.19523,87.298878 226.56518,87.501664 209.08896,79.161047 C 193.45342,71.698877 183.37395,68.366246 169.8794,66.196941 L 162.66733,65.037553 L 161.02579,81.696447 C 159.12635,100.97281 160.10153,102.7499 177.55078,111.81064 C 200.1128,123.52629 212.45613,139.93156 209.47047,154.23445 C 207.57107,163.33366 192.83491,185.48003 186.42095,188.87466 C 180.80795,191.84538 173.7116,199.60936 173.36919,203.15434 C 172.54224,211.71536 174.7312,221.16874 180.12995,232.3517 C 188.41058,249.50415 198.05187,261.11627 214.76962,274.07217 C 219.23799,277.53508 222.25506,281.96512 222.26762,285.08174 C 222.296,292.11148 216.35456,291.8332 205.24563,284.28448 z "
       id="path2523"
       sodipodi:nodetypes="cssccsssssssssssccssssccscccsssssssc" />
  </g>
</svg>
