<?xml version="1.0" encoding="UTF-8" standalone="no"?>
<!-- Created with Inkscape (http://www.inkscape.org/) -->
<svg
   xmlns:dc="http://purl.org/dc/elements/1.1/"
   xmlns:cc="http://web.resource.org/cc/"
   xmlns:rdf="http://www.w3.org/1999/02/22-rdf-syntax-ns#"
   xmlns:svg="http://www.w3.org/2000/svg"
   xmlns="http://www.w3.org/2000/svg"
   xmlns:sodipodi="http://sodipodi.sourceforge.net/DTD/sodipodi-0.dtd"
   xmlns:inkscape="http://www.inkscape.org/namespaces/inkscape"
   width="300"
   height="300"
   id="svg2"
   sodipodi:version="0.32"
   inkscape:version="0.45.1"
   version="1.0"
   sodipodi:docbase="C:\Documents and Settings\Martin\桌面"
   sodipodi:docname="drawing.svg"
   inkscape:output_extension="org.inkscape.output.svg.inkscape">
  <defs
     id="defs4" />
  <sodipodi:namedview
     id="base"
     pagecolor="#ffffff"
     bordercolor="#666666"
     borderopacity="1.0"
     gridtolerance="10000"
     guidetolerance="10"
     objecttolerance="10"
     inkscape:pageopacity="0.0"
     inkscape:pageshadow="2"
     inkscape:zoom="0.70710678"
     inkscape:cx="291.1534"
     inkscape:cy="78.274581"
     inkscape:document-units="px"
     inkscape:current-layer="layer1"
     width="300px"
     height="300px"
     inkscape:window-width="742"
     inkscape:window-height="577"
     inkscape:window-x="50"
     inkscape:window-y="0" />
  <metadata
     id="metadata7">
    <rdf:RDF>
      <cc:Work
         rdf:about="">
        <dc:format>image/svg+xml</dc:format>
        <dc:type
           rdf:resource="http://purl.org/dc/dcmitype/StillImage" />
      </cc:Work>
    </rdf:RDF>
  </metadata>
  <g
     inkscape:label="Layer 1"
     inkscape:groupmode="layer"
     id="layer1">
    <path
       style="fill:#000000"
       d="M 149.03389,280.08015 C 146.01137,275.4669 144.99919,269.38527 145.51525,258.93609 C 145.91309,250.86847 146.00261,231.18745 145.71445,215.20089 L 145.18954,186.13428 L 132.30646,185.74374 C 122.16354,185.43559 117.46039,183.76697 110.19322,177.89621 C 98.613463,168.54175 97.515825,162.4507 95.583197,96.830367 L 94.144064,47.966797 L 100.08124,48.807367 C 105.83066,49.621367 106.02071,50.407547 106.09347,73.659477 C 106.19717,106.91849 109.93685,152.25801 113.07686,158.33144 C 117.32808,166.5544 123.04269,169.54001 134.69296,169.62522 L 145.67432,169.70547 L 145.11118,97.038857 C 144.5204,20.761927 141.15332,14.941967 146.90444,14.999687 C 151.02366,15.038397 148.30453,15.432367 151.55062,15.496247 C 155.08637,15.565837 156.4091,17.213807 156.56909,37.093007 C 161.53241,80.560937 155.9755,127.64012 161.95294,170.23712 C 173.18588,175.44158 189.76525,166.92294 191.95455,157.46122 C 194.01806,140.88408 191.95455,98.537837 191.95455,98.537837 C 191.95455,46.976497 192.45057,39.517727 195.92704,38.845207 C 203.96547,37.290487 205.85594,49.562417 205.85594,103.29715 C 205.85594,159.49642 204.1505,169.74082 193.32787,178.55179 C 189.91315,181.33186 181.95159,184.17548 175.63557,184.87059 L 164.15163,186.13428 L 162.8878,232.1783 C 161.83692,270.47013 160.9216,278.924 157.45018,282.38888 C 153.57325,286.26009 152.97606,286.09643 149.03389,280.08015 z "
       id="path3239"
       sodipodi:nodetypes="cscccscccsscccssccccssscccsc" />
  </g>
</svg>
