<?xml version="1.0" encoding="UTF-8" standalone="no"?>
<!-- Created with Inkscape (http://www.inkscape.org/) -->
<svg
   xmlns:svg="http://www.w3.org/2000/svg"
   xmlns="http://www.w3.org/2000/svg"
   version="1.0"
   width="300"
   height="300"
   id="svg2">
  <defs
     id="defs5" />
  <path
     d="M 52.838776,228.74226 C 43.568736,221.23583 42.815176,217.42711 40.445396,166.10258 C 39.057646,136.04657 38.749956,109.1541 39.761656,106.34153 C 45.571756,90.189205 64.214166,113.86272 58.891256,130.63372 C 55.759516,140.50096 60.891966,204.59838 65.397546,211.88857 C 71.455086,221.68988 80.730026,208.61201 83.821406,185.91047 C 87.624176,157.98494 99.636656,128.00453 114.5857,109.12982 C 121.21392,100.76102 126.637,90.266705 126.637,85.809129 C 126.637,64.155728 131.75189,52.135608 140.966,52.135608 C 154.5083,52.135608 160.74392,61.912744 157.66588,78.320157 C 155.3593,90.615263 156.51868,93.374815 167.18042,100.96664 C 180.95259,110.77329 196.54899,141.13188 206.85085,178.18564 C 211.67516,195.53774 216.28825,204.13874 221.69018,205.85325 C 226.00149,207.22161 230.70219,207.16792 232.13618,205.73393 C 243.1515,182.80744 227.20013,95.237173 244.01744,93.81491 C 260.55137,92.416613 267.4396,113.01433 266.35472,162.59296 C 265.41404,205.58111 260.60713,227.58455 251.93933,228.57884 C 249.39974,228.87015 210.50277,229.37506 165.50163,229.70085 C 120.50048,230.02665 78.962576,231.74254 73.195166,233.51393 C 65.430306,235.89882 60.147486,234.66049 52.838776,228.74226 z M 164.96841,208.05612 C 166.31862,204.53755 158.65219,193.07804 156.01498,187.29 L 144.29904,166.46165 C 144.29904,166.46165 122.5968,198.76578 122.54879,209.74995 C 122.5078,219.12505 128.61314,215.05876 144.26765,214.14593 C 154.818,213.53072 163.48884,211.91184 164.96841,208.05612 z M 110.27295,202.3226 C 111.81095,199.42327 134.07216,162.22215 131.83561,160.23946 C 124.35879,153.61131 128.56984,157.01689 120.50089,150.32026 C 115.34186,146.03865 113.47356,147.42461 108.7679,159.02412 C 105.68962,166.61212 101.98578,180.64456 100.53713,190.2073 C 98.423936,204.15677 99.125956,207.5941 104.08808,207.5941 C 107.48976,207.5941 109.04255,205.22193 110.27295,202.3226 z M 191.41523,193.22588 C 193.02629,179.45207 176.68165,142.1379 169.03727,142.1379 C 166.12597,142.1379 154.96006,149.8319 155.05713,154.93685 C 155.29496,167.4442 169.37897,182.63564 175.72916,195.5889 C 183.72678,211.28157 189.43694,210.13938 191.41523,193.22588 z M 159.47389,132.56863 C 162.58545,127.6273 155.36592,120.58632 151.46768,115.88923 C 144.0942,107.00473 136.67697,108.16901 130.58806,117.85332 C 119.37711,135.68416 129.83825,143.63974 141.48933,149.5396 C 151.93836,144.68377 155.89367,138.25421 159.47389,132.56863 z "
     style="fill:black;fill-opacity:1"
     id="path1875" />
</svg>
