<?xml version="1.0" encoding="UTF-8" standalone="no"?>
<!-- Created with Inkscape (http://www.inkscape.org/) -->
<svg
   xmlns:svg="http://www.w3.org/2000/svg"
   xmlns="http://www.w3.org/2000/svg"
   version="1.0"
   width="300"
   height="300"
   id="svg2576">
  <defs
     id="defs2578" />
  <g
     transform="matrix(1.2802492,0,0,1.2802492,-41.998196,-42.033871)"
     id="layer1">
    <path
       d="M 53.540817,252.07568 C 53.540817,247.52811 83.42551,240.69792 108.13473,239.07322 C 120.15287,238.283 135.23472,238.64788 136.93112,236.95148 C 138.80785,235.07475 139.35045,201.93097 139.8934,150.72389 L 140.0281,98.638616 C 138.14539,87.997409 146.3642,69.52752 125.28859,68.482763 C 123.49005,68.19562 92.902172,62.857714 90.598562,62.318032 C 86.339604,60.424618 65.239871,49.592191 71.571532,45.228573 C 73.772897,43.711449 221.56928,45.280171 234.59481,44.791827 C 241.95107,44.516031 244.12188,52.387983 218.73746,60.210783 C 202.80278,65.121433 184.94388,69.249483 179.05103,69.384223 C 162.25093,69.768383 160.68368,72.155433 160.68368,97.359183 C 160.68368,109.88736 161.43037,120.13769 162.34299,120.13769 C 166.33663,120.13769 188.60378,98.683835 191.17654,96.520913 C 192.56248,95.355751 195.14759,92.01227 197.41837,89.525453 C 201.05357,85.5444 203.6759,84.163414 203.54082,81.764683 C 203.14336,74.706615 208.33658,76.525673 212.23551,85.082893 C 215.42759,92.088743 214.77463,93.885613 205.83913,102.68493 C 192.26803,116.0492 179.16703,124.8435 169.10205,127.34541 C 161.19686,129.31045 160.68368,130.46082 160.68368,146.21643 C 160.68368,168.80349 164.8578,168.16065 190.87824,141.56627 C 202.40961,129.78055 212.73116,120.13769 213.81504,120.13769 C 217.34846,120.13769 215.6937,139.90064 211.72319,145.12087 C 205.88635,152.79488 171.23568,169.45021 165.60351,167.28895 C 161.24573,165.61671 160.68368,169.78671 160.68368,203.79055 C 161.18876,236.03249 159.42099,234.18178 160.68368,236.87676 C 163.05652,238.55186 180.83524,237.17628 190.78422,238.85138 C 225.87636,240.60298 246.39797,248.41484 246.39797,251.71952 C 246.39797,257.52965 210.47046,254.78958 146.67652,254.86462 C 104.91964,254.91374 53.540817,253.59142 53.540817,252.07568 z M 170.25783,212.98214 C 172.56858,210.16903 181.51357,200.79377 190.13559,192.14824 C 198.7576,183.50271 206.77135,173.40638 207.94392,169.71196 C 210.68894,161.06315 214.57378,161.13702 216.9175,169.88259 C 220.07091,181.64949 219.0247,185.65384 210.31916,195.13769 C 200.81542,205.49112 189.67925,208.60925 183.6844,211.97443 C 181.89966,212.97628 179.84663,214.51005 179.05103,215.03565 C 177.59425,215.99804 176.12725,218.09688 172.55375,218.09688 C 166.84761,218.09688 166.56805,217.47408 170.25783,212.98214 z"
       id="path2653"
       style="fill:#000000" />
  </g>
</svg>
