<?xml version="1.0" encoding="UTF-8" standalone="no"?>
<!-- Created with Inkscape (http://www.inkscape.org/) -->
<svg
   xmlns:svg="http://www.w3.org/2000/svg"
   xmlns="http://www.w3.org/2000/svg"
   version="1.0"
   width="300"
   height="300"
   id="svg2">
  <defs
     id="defs5" />
  <path
     d="M 143.24724,277.86406 C 142.65531,276.23558 142.66662,262.11221 143.27239,246.47879 L 147.40752,78.900958 L 139.42591,80.206384 C 120.98337,83.222739 110.63095,86.255756 107.255,89.631701 C 102.58635,94.300361 100.11374,120.04492 98.545226,180.31695 C 97.276036,229.08757 95.378376,240.55703 88.578306,240.55703 C 84.392196,240.55703 84.412026,247.88837 88.289776,133.89863 C 89.265476,105.21695 90.033066,100.56526 95.604516,89.570551 C 103.1418,74.696439 106.76137,72.567157 127.31045,70.91893 C 136.09799,70.214088 144.19112,68.764756 145.29518,67.698194 C 146.39924,66.631633 147.23962,55.474329 147.1627,42.904188 C 147.04712,24.017091 147.68334,19.79593 150.82743,18.58943 C 156.5688,16.386261 161.49076,24.626818 159.57564,33.236049 C 158.69892,37.177244 157.87324,46.797349 157.7408,54.61406 L 157.50001,68.826262 L 166.97481,69.576728 C 178.75622,71.827187 191.66865,74.509849 201.50318,81.671906 C 208.21261,88.381344 208.42774,89.316766 208.44887,111.87283 C 208.49562,161.79521 210.29269,223.61452 211.7665,225.99918 C 214.07658,229.73698 206.6309,245.87894 203.13119,244.72019 C 199.50196,243.51855 196.70998,184.91005 197.96869,136.35017 C 199.2013,88.796912 196.22363,82.823414 170.52786,81.301207 L 159.86871,80.669763 L 158.37201,112.64722 C 157.54882,130.23482 156.74938,173.20798 156.59548,208.14313 C 156.42501,246.83942 155.35743,273.45205 153.86362,276.24326 C 151.10098,281.40529 144.87966,282.3551 143.24724,277.86406 z "
     style="fill:black;fill-opacity:1"
     id="path1875" />
</svg>
