<?xml version="1.0" encoding="UTF-8" standalone="no"?>
<!-- Created with Inkscape (http://www.inkscape.org/) -->
<svg
   xmlns:svg="http://www.w3.org/2000/svg"
   xmlns="http://www.w3.org/2000/svg"
   version="1.0"
   width="300"
   height="300"
   id="svg2">
  <defs
     id="defs5" />
  <path
     d="M 139.37181,275.41247 C 130.012,244.89092 149.05733,108.80455 133.02261,89.596813 C 130.15245,86.158693 119.58822,94.340013 113.12101,100.13727 C 101.81896,110.2685 101.16023,112.61218 96.15335,160.5053 C 90.47425,214.82862 86.2546,232.51772 76.36952,243.4406 C 69.36742,251.17784 59.59947,253.0138 59.59947,246.59266 C 66.678265,230.67671 71.889589,214.70549 76.44457,197.87599 C 79.19808,189.97065 82.63966,168.93575 84.09253,151.13177 C 86.7921,118.05019 95.50032,91.820573 106.91134,82.400332 C 110.42906,79.496311 118.90217,75.983562 125.74047,74.594219 C 137.74149,72.155964 138.2147,71.340118 139.35154,51.127573 C 140.68747,27.375015 144.62661,20.901882 153.34287,28.13574 C 157.17749,31.318192 159.25465,39.549766 159.25465,51.563542 C 159.25465,69.842971 159.43756,70.119311 173.25173,72.710867 C 181.097,74.182647 195.20499,79.948398 201.99842,88.662113 C 214.34612,104.50012 216.74802,112.02551 216.74802,141.04261 C 216.74802,170.61628 218.73102,186.09412 224.91619,204.79753 C 229.40868,218.38243 234.58308,231.1359 236.41486,233.13859 C 241.50335,238.70183 240.37816,250.57824 234.76261,250.57824 C 219.67093,247.63179 220.9816,230.22087 213.41957,219.47379 C 203.58792,206.92444 197.58357,175.88036 197.58357,137.59749 C 197.58357,107.47085 196.95896,104.99345 187.48444,97.540783 C 181.92992,93.171603 173.30591,89.596813 168.31998,89.596813 L 159.25465,89.596813 L 159.25465,176.08884 C 159.25465,228.38018 157.68572,265.51244 155.2869,269.99468 C 151.51182,277.04849 143.67547,279.71613 139.37181,275.41247 z "
     style="fill:black;fill-opacity:1"
     id="path1875" />
</svg>
