<?xml version="1.0" encoding="UTF-8" standalone="no"?>
<!-- Created with Inkscape (http://www.inkscape.org/) -->
<svg
   xmlns:dc="http://purl.org/dc/elements/1.1/"
   xmlns:cc="http://web.resource.org/cc/"
   xmlns:rdf="http://www.w3.org/1999/02/22-rdf-syntax-ns#"
   xmlns:svg="http://www.w3.org/2000/svg"
   xmlns="http://www.w3.org/2000/svg"
   xmlns:sodipodi="http://sodipodi.sourceforge.net/DTD/sodipodi-0.dtd"
   xmlns:inkscape="http://www.inkscape.org/namespaces/inkscape"
   width="300"
   height="300"
   id="svg2"
   sodipodi:version="0.32"
   inkscape:version="0.45.1"
   version="1.0"
   sodipodi:docbase="C:\Documents and Settings\Martin\桌面"
   sodipodi:docname="drawing.svg"
   inkscape:output_extension="org.inkscape.output.svg.inkscape">
  <defs
     id="defs4" />
  <sodipodi:namedview
     id="base"
     pagecolor="#ffffff"
     bordercolor="#666666"
     borderopacity="1.0"
     gridtolerance="10000"
     guidetolerance="10"
     objecttolerance="10"
     inkscape:pageopacity="0.0"
     inkscape:pageshadow="2"
     inkscape:zoom="1.2311444"
     inkscape:cx="167.68035"
     inkscape:cy="125.48552"
     inkscape:document-units="px"
     inkscape:current-layer="layer1"
     width="300px"
     height="300px"
     inkscape:window-width="1024"
     inkscape:window-height="712"
     inkscape:window-x="0"
     inkscape:window-y="22" />
  <metadata
     id="metadata7">
    <rdf:RDF>
      <cc:Work
         rdf:about="">
        <dc:format>image/svg+xml</dc:format>
        <dc:type
           rdf:resource="http://purl.org/dc/dcmitype/StillImage" />
      </cc:Work>
    </rdf:RDF>
  </metadata>
  <g
     inkscape:label="Layer 1"
     inkscape:groupmode="layer"
     id="layer1">
    <path
       style="fill:#000000"
       d="M 137.79742,282.3977 C 136.89904,280.94407 136.90499,272.83532 137.81066,264.37824 C 138.71634,255.92116 139.81863,227.35721 140.26018,200.9028 L 141.06298,152.80389 L 126.02164,152.6202 C 117.74888,152.51917 102.16448,152.43581 91.389636,152.43497 C 70.489055,152.43336 61.97002,149.1365 64.671984,142.09529 C 66.383348,137.63553 66.878452,137.59196 110.19282,138.08994 L 141.24015,138.44687 L 142.61443,127.87136 C 143.37029,122.05486 144.27564,111.23503 144.62629,103.82731 L 145.26387,90.358765 L 133.46889,89.60572 C 119.40076,88.707547 107.19837,82.483374 103.11664,74.123687 C 101.48535,70.782695 99.604282,58.531229 98.936486,46.898211 C 97.914149,29.088937 98.409792,24.898284 102.07363,20.373637 L 106.42493,15.000003 L 111.46798,21.411184 C 115.42619,26.443241 116.24642,30.16975 115.28102,38.73474 C 113.47173,54.786833 116.37134,66.50301 123.27243,71.024776 C 129.29082,74.968184 172.67555,77.908541 183.41266,75.100729 C 190.023,73.372082 195.23255,59.975861 195.87167,43.062613 C 196.59652,23.880422 200.72539,18.83101 208.95575,27.061377 C 212.27732,30.38295 212.68039,33.778702 211.20841,46.039799 C 210.22238,54.252958 209.20554,64.058545 208.9487,67.829998 C 208.09972,80.297281 200.14105,87.699508 185.40618,89.72645 C 159.31075,93.316166 161.18126,91.278326 161.18126,116.11812 C 161.18126,135.34408 161.72039,138.13965 165.46671,138.3393 C 167.82371,138.46493 174.16005,139.10345 179.54748,139.75827 C 190.05119,141.03494 202.76225,141.94689 219.16602,142.60073 C 230.45453,143.05065 237.71189,148.3468 235.37718,154.43099 C 233.83776,158.44262 230.34803,158.42626 171.55849,154.13201 C 165.8177,153.7127 160.54728,154.29738 159.84645,155.43133 C 159.14562,156.5653 157.96646,183.71183 157.22606,215.75698 C 156.1926,260.48524 155.06029,275.30095 152.35203,279.53079 C 148.65028,285.31229 140.58107,286.90176 137.79742,282.3977 z "
       id="path2226" />
  </g>
</svg>
