<?xml version="1.0" encoding="UTF-8" standalone="no"?>
<!-- Created with Inkscape (http://www.inkscape.org/) -->
<svg
   xmlns:svg="http://www.w3.org/2000/svg"
   xmlns="http://www.w3.org/2000/svg"
   version="1.0"
   width="300"
   height="300"
   id="svg2">
  <defs
     id="defs5" />
  <path
     d="M 49.039436,264.12956 C 49.039436,262.73197 53.625976,252.52656 59.231736,241.45087 C 74.430266,211.42209 83.226556,131.78372 75.568146,93.546991 C 74.080506,86.119529 75.462516,82.976319 81.678566,79.649589 C 86.096646,77.285109 100.63871,65.087709 113.99427,52.544261 C 127.34983,40.000808 141.09081,29.737986 144.52977,29.737986 C 147.96873,29.737986 159.71502,35.87248 170.63264,43.370194 C 181.55026,50.867906 202.16537,61.484279 216.44399,66.962129 C 230.72262,72.439979 242.40513,78.390839 242.40513,80.186269 C 242.40513,90.221769 181.24507,68.977229 155.64163,50.048114 C 144.52758,41.83129 147.5495,40.299952 112.75287,71.781669 C 103.48228,80.169089 94.195326,87.031519 92.115206,87.031519 C 89.620296,87.031519 88.616066,101.96012 89.164436,130.89689 C 89.621646,155.02284 88.832216,178.06225 87.410156,182.09559 C 85.285046,188.12295 86.899206,190.18922 96.473996,193.69814 C 102.88117,196.04621 112.7614,201.7025 118.43007,206.26769 C 131.14426,216.50687 129.30245,224.47215 111.01809,238.32226 C 91.193426,253.33913 84.000996,250.43542 102.12439,234.73173 C 119.96891,219.26968 119.65225,213.04306 100.55837,203.93783 C 86.235056,197.10752 81.369706,198.58995 81.033686,209.88683 C 80.554616,225.99343 49.039436,279.42394 49.039436,264.12956 z "
     style="fill:black;fill-opacity:1"
     id="path1875" />
</svg>
