<?xml version="1.0" encoding="UTF-8" standalone="no"?>
<!-- Created with Inkscape (http://www.inkscape.org/) -->
<svg
   xmlns:svg="http://www.w3.org/2000/svg"
   xmlns="http://www.w3.org/2000/svg"
   version="1.0"
   width="300"
   height="300"
   id="svg2">
  <defs
     id="defs5" />
  <path
     d="M 66.506668,270.86608 C 66.506668,267.14811 68.022158,258.03024 69.874418,250.60414 C 84.168249,189.28562 78.714997,125.81016 87.837568,63.873565 C 90.345448,48.755613 90.856788,47.872374 100.30794,42.333636 C 108.50558,37.529501 114.28144,36.324858 134.64793,35.171516 L 159.13267,33.784958 C 158.92558,26.442494 159.16444,14.121857 168.89367,14.226265 L 177.72455,36.798408 C 187.16985,38.10198 225.74464,31.16058 224.92427,44.606444 C 224.20952,46.472978 207.89814,47.022646 167.79287,46.53168 C 97.582158,45.672164 101.19596,43.860265 97.144478,81.953577 C 91.697773,131.1753 93.165384,180.97623 87.397698,230.15517 C 79.434928,276.06559 78.891138,277.62599 70.854428,277.62599 C 67.594078,277.62599 66.506668,275.93526 66.506668,270.86608 z "
     style="fill:black;fill-opacity:1"
     id="path1875" />
</svg>
