<?xml version="1.0" encoding="UTF-8" standalone="no"?>
<!-- Created with Inkscape (http://www.inkscape.org/) -->

<svg
   xmlns:dc="http://purl.org/dc/elements/1.1/"
   xmlns:cc="http://creativecommons.org/ns#"
   xmlns:rdf="http://www.w3.org/1999/02/22-rdf-syntax-ns#"
   xmlns:svg="http://www.w3.org/2000/svg"
   xmlns="http://www.w3.org/2000/svg"
   xmlns:sodipodi="http://sodipodi.sourceforge.net/DTD/sodipodi-0.dtd"
   xmlns:inkscape="http://www.inkscape.org/namespaces/inkscape"
   width="300"
   height="300"
   id="svg2"
   version="1.1"
   inkscape:version="0.48.3.1 r9886"
   sodipodi:docname="廴-.svg">
  <defs
     id="defs4" />
  <sodipodi:namedview
     id="base"
     pagecolor="#ffffff"
     bordercolor="#666666"
     borderopacity="1.0"
     inkscape:pageopacity="0.0"
     inkscape:pageshadow="2"
     inkscape:zoom="1.979899"
     inkscape:cx="118.38441"
     inkscape:cy="142.97099"
     inkscape:document-units="px"
     inkscape:current-layer="layer1"
     showgrid="false"
     inkscape:window-width="1215"
     inkscape:window-height="1000"
     inkscape:window-x="65"
     inkscape:window-y="24"
     inkscape:window-maximized="1" />
  <metadata
     id="metadata7">
    <rdf:RDF>
      <cc:Work
         rdf:about="">
        <dc:format>image/svg+xml</dc:format>
        <dc:type
           rdf:resource="http://purl.org/dc/dcmitype/StillImage" />
        <dc:title></dc:title>
      </cc:Work>
    </rdf:RDF>
  </metadata>
  <g
     inkscape:label="Calque 1"
     inkscape:groupmode="layer"
     id="layer1"
     transform="translate(0,-752.36218)">
    <path
       style="fill:#000000"
       d="m 240.09589,1029.3828 c -4.22139,-4.4501 -11.42752,-12.5786 -16.01363,-18.0635 -6.12466,-7.3249 -15.90463,-11.96955 -36.83741,-17.49457 -37.92413,-10.00978 -40.81758,-11.75226 -45.83584,-27.60308 -3.801,-12.00604 -3.1242,-16.254 5.77884,-36.27195 13.23885,-29.76666 12.01008,-37.77803 -6.01294,-39.20337 -12.05131,-0.9531 -15.21622,0.6376 -25.34252,12.73717 -13.25886,15.84258 -27.38402,52.35086 -27.38402,70.7775 0,23.24841 -13.291518,39.8922 -23.008758,28.8117 -3.593074,-4.09707 -2.901693,-11.8997 3.247249,-36.64532 9.82592,-39.54307 16.630256,-54.78471 31.717059,-71.0458 22.03644,-23.75165 46.77999,-29.75371 65.42923,-15.8712 12.55567,9.34645 13.30447,26.2823 2.08243,47.09921 -5.71853,10.60786 -7.25074,18.13457 -5.49483,26.99229 2.65078,13.37177 5.89283,15.3184 40.49292,24.31317 31.45707,8.17772 64.11786,41.43265 54.76218,55.75845 -3.83004,5.8646 -9.18671,4.5572 -17.57996,-4.2907 z M 71.538321,857.96322 c -7.16188,-10.96647 38.165229,-28.24705 83.362649,-31.78132 28.54113,-2.23179 34.36883,-3.73323 35.46252,-9.13646 1.73019,-8.54753 -5.13519,-15.90116 -22.81372,-24.43621 -16.40473,-7.9201 -17.96131,-12.0439 -6.69901,-17.74797 9.78591,-4.95627 25.69808,3.72769 39.67018,21.64982 11.81081,15.14981 12.1571,28.86032 0.97341,38.54171 -7.0939,6.14094 -15.02004,7.68238 -46.54835,9.05241 -28.95771,1.25833 -41.80501,3.49666 -53.99669,9.40768 -17.242841,8.35996 -25.993055,9.68401 -29.410989,4.45034 z"
       id="path3028"
       inkscape:connector-curvature="0" />
  </g>
</svg>
