<?xml version="1.0" encoding="UTF-8" standalone="no"?>
<!-- Created with Inkscape (http://www.inkscape.org/) -->

<svg
   xmlns:dc="http://purl.org/dc/elements/1.1/"
   xmlns:cc="http://creativecommons.org/ns#"
   xmlns:rdf="http://www.w3.org/1999/02/22-rdf-syntax-ns#"
   xmlns:svg="http://www.w3.org/2000/svg"
   xmlns="http://www.w3.org/2000/svg"
   xmlns:sodipodi="http://sodipodi.sourceforge.net/DTD/sodipodi-0.dtd"
   xmlns:inkscape="http://www.inkscape.org/namespaces/inkscape"
   width="300"
   height="300"
   id="svg2"
   version="1.1"
   inkscape:version="0.48.2 r9819"
   sodipodi:docname="廾-seal.svg">
  <defs
     id="defs4" />
  <sodipodi:namedview
     id="base"
     pagecolor="#ffffff"
     bordercolor="#666666"
     borderopacity="1.0"
     inkscape:pageopacity="0.0"
     inkscape:pageshadow="2"
     inkscape:zoom="1.979899"
     inkscape:cx="154.88178"
     inkscape:cy="143.49634"
     inkscape:document-units="px"
     inkscape:current-layer="layer1"
     showgrid="false"
     inkscape:window-width="1280"
     inkscape:window-height="999"
     inkscape:window-x="0"
     inkscape:window-y="24"
     inkscape:window-maximized="1" />
  <metadata
     id="metadata7">
    <rdf:RDF>
      <cc:Work
         rdf:about="">
        <dc:format>image/svg+xml</dc:format>
        <dc:type
           rdf:resource="http://purl.org/dc/dcmitype/StillImage" />
        <dc:title></dc:title>
      </cc:Work>
    </rdf:RDF>
  </metadata>
  <g
     inkscape:label="Calque 1"
     inkscape:groupmode="layer"
     id="layer1"
     transform="translate(0,-752.36218)">
    <path
       style="fill:#000000"
       d="m 68.28372,1016.7456 c 1.497022,-6.4604 3.712644,-24.35061 4.923602,-39.75608 l 2.201747,-28.00994 -10.705521,0 c -5.888033,0 -14.873276,-3.73053 -19.967202,-8.29007 -15.455986,-13.83454 -17.941706,-52.66648 -2.836399,-44.31026 2.414279,1.33558 4.389598,7.77261 4.389598,14.30452 0,12.66301 10.0871,23.83906 21.516272,23.83906 5.655376,0 6.748172,-4.04875 6.748172,-25.00164 l 0,-25.00165 -15.084943,-6.62248 c -8.296718,-3.64236 -17.816639,-11.04918 -21.155381,-16.45958 -5.515916,-8.93849 -5.336676,-11.72227 1.962165,-30.4743 9.205046,-23.64941 20.843928,-31.79065 16.656785,-11.6512 -8.118642,39.04929 -8.170727,38.2282 2.834362,44.68255 13.363986,7.83781 18.82479,4.57791 18.82479,-11.23772 0,-19.95664 14.843678,-46.55061 31.881663,-57.11926 14.26555,-8.84892 24.64722,-11.84656 24.64722,-7.11673 0,1.19878 -8.13155,10.27504 -18.0701,20.16946 -28.485246,28.35873 -37.408573,71.64961 -11.40884,55.34915 4.49741,-2.81964 10.46496,-10.07054 13.26122,-16.11312 2.79627,-6.04257 6.57345,-10.9865 8.39373,-10.9865 15.88028,0 0.29291,30.28833 -20.46574,39.7676 l -16.12582,7.36373 0,23.41875 c 0,17.20785 1.440324,23.41876 5.430859,23.41876 8.237911,0 20.327381,-13.63975 24.891041,-28.08291 5.12631,-16.22384 14.12799,-19.85504 14.00498,-5.64949 -0.15622,18.03819 -13.86329,39.38494 -30.05074,46.79956 l -14.86935,6.81086 -1.650353,32.18864 c -2.011383,39.23009 -4.033013,45.51639 -14.637929,45.51639 -7.187418,0 -7.907806,-1.5274 -5.539888,-11.7461 z m 148.07084,2.207 c -2.67062,-5.2465 -5.93619,-22.7301 -7.25681,-38.85248 -2.71036,-33.08843 -5.66414,-38.34891 -21.53307,-38.34891 -19.95549,0 -28.42848,-9.8998 -29.38626,-34.33477 -0.67436,-17.20434 0.40148,-21.68512 5.20668,-21.68512 4.17181,0 6.71755,5.06137 8.1803,16.26384 2.77591,21.25924 6.02121,25.2993 20.32244,25.2993 11.64059,0 11.87394,-0.37461 11.8199,-18.97447 -0.0787,-27.08974 -3.05535,-34.13956 -15.44418,-36.57771 -5.91043,-1.16318 -14.15066,-6.38277 -18.31163,-11.59908 -6.38114,-7.9996 -7.01319,-12.39663 -4.03777,-28.0899 2.41275,-12.72559 5.44174,-18.6057 9.58427,-18.6057 4.71074,0 6.05667,4.81892 6.05667,21.68512 0,20.96979 0.36626,21.72284 11.10389,22.82872 10.7639,1.1086 11.10389,0.60641 11.10389,-16.40157 0,-21.20492 13.43897,-46.41542 29.11066,-54.60941 16.82032,-8.79455 17.69722,-2.64457 2.07504,14.55295 -10.39193,11.43986 -14.88721,20.58119 -16.98167,34.53286 -2.57991,17.18537 -2.11769,18.97447 4.90212,18.97447 11.34647,0 25.2725,-15.06694 28.04119,-30.33851 3.26145,-17.98953 11.60322,-14.40508 10.63111,4.56819 -0.96638,18.86156 -13.37739,34.84279 -31.65256,40.7579 -13.2095,4.27552 -14.0094,5.47771 -13.95743,20.97678 0.0767,22.87439 3.69421,32.70518 12.03473,32.70518 10.37332,0 15.26538,-6.98743 19.05407,-27.21528 3.42034,-18.26119 13.62567,-25.18595 16.61838,-11.2763 4.2756,19.87233 -15.54678,52.94832 -31.73184,52.94832 -11.79308,0 -12.52977,4.68382 -6.00459,38.17655 3.36888,17.29191 6.12523,36.10593 6.12523,41.80893 0,13.1679 -9.14589,13.6523 -15.67276,0.8301 z"
       id="path3165"
       inkscape:connector-curvature="0" />
  </g>
</svg>
