<?xml version="1.0" encoding="UTF-8" standalone="no"?>
<!-- Created with Inkscape (http://www.inkscape.org/) -->

<svg
   xmlns:dc="http://purl.org/dc/elements/1.1/"
   xmlns:cc="http://creativecommons.org/ns#"
   xmlns:rdf="http://www.w3.org/1999/02/22-rdf-syntax-ns#"
   xmlns:svg="http://www.w3.org/2000/svg"
   xmlns="http://www.w3.org/2000/svg"
   xmlns:sodipodi="http://sodipodi.sourceforge.net/DTD/sodipodi-0.dtd"
   xmlns:inkscape="http://www.inkscape.org/namespaces/inkscape"
   width="300"
   height="300"
   id="svg2"
   version="1.1"
   inkscape:version="0.48.2 r9819"
   sodipodi:docname="Nouveau document 1">
  <defs
     id="defs4" />
  <sodipodi:namedview
     id="base"
     pagecolor="#ffffff"
     bordercolor="#666666"
     borderopacity="1.0"
     inkscape:pageopacity="0.0"
     inkscape:pageshadow="2"
     inkscape:zoom="1.979899"
     inkscape:cx="315.10769"
     inkscape:cy="143.92017"
     inkscape:document-units="px"
     inkscape:current-layer="layer1"
     showgrid="false"
     inkscape:window-width="1280"
     inkscape:window-height="999"
     inkscape:window-x="0"
     inkscape:window-y="24"
     inkscape:window-maximized="1" />
  <metadata
     id="metadata7">
    <rdf:RDF>
      <cc:Work
         rdf:about="">
        <dc:format>image/svg+xml</dc:format>
        <dc:type
           rdf:resource="http://purl.org/dc/dcmitype/StillImage" />
        <dc:title></dc:title>
      </cc:Work>
    </rdf:RDF>
  </metadata>
  <g
     inkscape:label="Calque 1"
     inkscape:groupmode="layer"
     id="layer1"
     transform="translate(0,-752.36218)">
    <path
       style="fill:#808080"
       d="m 228.37792,973.27072 c -9.5036,-3.26763 -35.31581,-22.53081 -35.31581,-26.35555 -6.06042,-11.39889 -18.51341,-22.01685 -19.21484,-35.85267 -0.0412,-3.76402 -2.30677,-4.24847 -15.29835,-3.27127 -32.81162,2.46804 -41.79969,-6.33539 -11.23684,-11.00601 10.15329,-1.55163 20.26646,-3.28129 22.47369,-3.84369 4.8127,-1.22627 5.68911,-35.0328 0.96703,-37.30231 -1.67537,-0.80522 -12.61956,-0.27471 -24.32041,1.1789 -23.88628,2.96743 -43.26508,1.18256 -43.26508,-3.9849 0,-3.88983 3.47156,-4.55395 42.99143,-8.22442 15.69923,-1.45809 29.27477,-3.21932 30.16786,-3.91384 0.89309,-0.69452 2.63813,-10.23431 3.87787,-21.19954 2.29237,-20.27552 8.10411,-31.00194 13.32771,-24.59822 1.45317,1.78148 2.66425,6.32871 2.69129,10.10495 0.0605,8.44342 6.25127,8.90758 24.97527,1.87253 7.30953,-2.74637 15.88814,-4.94773 19.06357,-4.89192 7.86655,0.13824 -12.84706,13.92337 -26.82947,17.85529 -9.77651,2.7492 -17.16021,10.65034 -17.16021,18.36277 0,2.491 3.57064,3.62757 11.39629,3.62757 6.26795,0 15.29757,1.58456 20.0658,3.52125 13.03449,5.29416 45.5906,34.34269 45.5906,40.67869 0,5.18052 -8.71149,3.74751 -16.70934,-2.74862 -4.0533,-3.29222 -12.90577,-10.54001 -19.67218,-16.10621 -9.52796,-7.83792 -15.53496,-10.4973 -26.63517,-11.79178 -7.88294,-0.91928 -14.78842,-1.25519 -15.34551,-0.74647 -0.5571,0.50872 -1.85104,9.07042 -2.87543,19.02598 l -1.86252,18.10103 9.87494,0 c 11.27356,0 34.69887,4.98477 34.69887,7.38372 0,2.6371 -20.58478,7.59645 -31.5306,7.59645 -19.86857,3.78973 13.05363,38.86199 24.54881,49.98919 15.79604,15.12081 16.02439,21.85596 0.56073,16.5391 z"
       id="path3009"
       inkscape:connector-curvature="0"
       sodipodi:nodetypes="sccssssssssssssssssssssssscssccs" />
    <path
       style="fill:#000000"
       d="m 55.760263,1014.6857 c 0,-3.0833 13.55412,-28.10194 22.5601,-41.64221 2.03959,-3.06647 -0.22556,-5.92284 -9.12068,-11.50123 -14.73566,-9.24117 -29.2871,-28.11124 -21.67767,-28.11124 2.75809,0 11.14994,4.49405 18.64854,9.98677 7.4986,5.49273 15.21568,9.98678 17.14907,9.98678 3.85928,0 10.96698,-10.59383 10.96698,-16.34599 0,-2.01729 2.98403,-3.62756 6.722327,-3.62756 6.19444,0 6.55391,0.95227 4.57761,12.12674 l -2.14471,12.12674 12.27766,1.57759 c 24.81842,3.18901 24.2895,3.549 21.76119,-14.81073 -2.24327,-16.28986 -2.19323,-16.43546 5.36289,-15.60433 6.13951,0.6753 8.79698,3.6392 13.62397,15.19494 6.65258,15.92619 10.28556,17.23557 25.0845,9.04078 8.62384,-4.77538 10.09854,-4.92649 14.52023,-1.48793 6.32755,4.92066 4.25695,7.26253 -11.66852,13.1972 -7.14494,2.66258 -13.00737,6.195 -13.02763,7.84982 -0.0202,1.65482 4.42531,10.27321 9.87905,19.15194 13.07468,21.28582 11.71637,27.22902 -3.57573,15.64532 -6.22477,-4.7153 -13.44845,-11.78003 -16.05264,-15.69952 -7.28266,-10.96089 -9.76207,-12.22749 -30.15194,-15.40302 -26.14233,-4.07141 -37.188257,-3.82969 -37.188257,0.81381 0,7.33039 -14.01265,27.52513 -23.79751,34.29653 -11.17646,7.7343 -14.72883,8.5155 -14.72883,3.2388 z"
       id="path3009-9"
       inkscape:connector-curvature="0"
       sodipodi:nodetypes="ssssssssscssssssscsssssss" />
  </g>
</svg>
