<?xml version="1.0" encoding="UTF-8" standalone="no"?>
<!-- Created with Inkscape (http://www.inkscape.org/) -->

<svg
   xmlns:dc="http://purl.org/dc/elements/1.1/"
   xmlns:cc="http://creativecommons.org/ns#"
   xmlns:rdf="http://www.w3.org/1999/02/22-rdf-syntax-ns#"
   xmlns:svg="http://www.w3.org/2000/svg"
   xmlns="http://www.w3.org/2000/svg"
   xmlns:sodipodi="http://sodipodi.sourceforge.net/DTD/sodipodi-0.dtd"
   xmlns:inkscape="http://www.inkscape.org/namespaces/inkscape"
   width="300"
   height="300"
   id="svg2"
   version="1.1"
   inkscape:version="0.48.2 r9819"
   sodipodi:docname="異-oracle.svg">
  <defs
     id="defs4" />
  <sodipodi:namedview
     id="base"
     pagecolor="#ffffff"
     bordercolor="#666666"
     borderopacity="1.0"
     inkscape:pageopacity="0.0"
     inkscape:pageshadow="2"
     inkscape:zoom="1.979899"
     inkscape:cx="154.88178"
     inkscape:cy="143.49634"
     inkscape:document-units="px"
     inkscape:current-layer="layer1"
     showgrid="false"
     inkscape:window-width="1280"
     inkscape:window-height="999"
     inkscape:window-x="0"
     inkscape:window-y="24"
     inkscape:window-maximized="1" />
  <metadata
     id="metadata7">
    <rdf:RDF>
      <cc:Work
         rdf:about="">
        <dc:format>image/svg+xml</dc:format>
        <dc:type
           rdf:resource="http://purl.org/dc/dcmitype/StillImage" />
        <dc:title></dc:title>
      </cc:Work>
    </rdf:RDF>
  </metadata>
  <g
     inkscape:label="Calque 1"
     inkscape:groupmode="layer"
     id="layer1"
     transform="translate(0,-752.36218)">
    <path
       style="fill:#000000"
       d="m 234.01203,1023.4829 c -3.92378,-5.2562 -5.08089,-17.7463 -5.29765,-57.18414 -0.15253,-27.75246 -1.05073,-51.32587 -1.99597,-52.38535 -0.94525,-1.05948 -2.27747,-5.25126 -2.96051,-9.31506 -1.52279,-9.05996 -4.37895,-11.31027 -9.68773,-7.63272 -5.6391,3.90636 -52.05002,3.71233 -56.782,-0.23739 -6.41748,-5.35659 1.43572,-9.41344 20.39513,-10.53582 26.96194,-1.59612 37.12784,-5.16094 37.12784,-13.0194 0,-8.27514 -24.97511,-26.82375 -39.32913,-29.20912 -12.78628,-2.12484 -18.80821,-5.31478 -18.80821,-9.96311 0,-2.936 3.23767,-3.32781 17.69649,-2.14156 9.73307,0.79853 18.58191,2.2796 19.6641,3.29126 1.08219,1.01166 9.39006,5.97236 18.46195,11.02378 19.81817,11.03517 23.81095,9.55948 23.81095,-8.80029 0,-19.74584 -16.13076,-33.78958 -45.06185,-39.23164 -24.07537,-4.52868 -31.15179,-6.93605 -31.15179,-10.59769 0,-5.00736 7.20608,-6.00879 25.91806,-3.60184 38.25437,4.9207 56.95838,13.68165 65.56274,30.70954 4.89306,9.6833 5.77747,47.59932 1.25396,53.75922 -11.3514,15.4578 -11.63749,16.78254 -7.92577,36.70098 2.03056,10.89671 3.5918,29.3435 3.46943,40.99288 -0.12236,11.64938 0.15048,33.65871 0.60633,48.90964 0.67607,22.61883 -0.16402,28.41673 -4.55862,31.46093 -4.90336,3.3968 -5.83854,3.1278 -10.40775,-2.9931 z m -183.482113,1.252 c -0.981883,-22.5835 0.914218,-100.23952 2.490659,-102.00649 1.159552,-1.29969 2.770511,-9.92893 3.579909,-19.17607 1.174938,-13.42335 0.10796,-18.72346 -5.292324,-26.28908 -16.135712,-22.60563 -18.1199,-28.70237 -13.665151,-41.98838 1.868125,-5.57157 3.694794,-11.19618 4.059266,-12.49914 2.154605,-7.70258 11.664695,-17.95389 19.119736,-20.60994 4.755187,-1.69416 11.378855,-4.78439 14.719266,-6.86718 3.340407,-2.08279 12.573983,-5.12548 20.519059,-6.76152 7.945073,-1.63605 17.859543,-3.89146 22.032153,-5.01204 5.92152,-1.59026 8.70484,-0.93144 12.6818,3.0018 6.24093,6.17234 4.15533,9.00512 -6.62991,9.00512 -7.82364,0 -13.75407,1.34492 -38.237657,8.67166 -11.978359,3.58453 -23.604779,12.53808 -26.677216,20.54422 -1.083823,2.82422 -3.65185,9.02748 -5.706726,13.78502 -2.895622,6.70408 -2.680881,10.30153 0.95454,15.9909 2.579873,4.03746 5.750906,7.34083 7.046741,7.34083 1.295835,0 7.95907,-4.73669 14.807189,-10.52598 6.84812,-5.78929 19.941745,-13.85573 29.096939,-17.92542 13.77453,-6.12309 17.86023,-6.94921 23.68619,-4.78932 9.78195,3.62654 8.817,6.42337 -3.7721,10.93308 -15.53466,5.56489 -36.920956,19.89978 -39.240715,26.30242 -1.09227,3.01472 -3.358039,5.48131 -5.035048,5.48131 -6.699264,0 -2.485241,4.30268 6.355464,6.48918 21.855129,5.40524 34.283529,7.72495 41.388249,7.72495 9.73013,0 13.27133,6.38572 6.24167,11.25537 -4.52364,3.13365 -7.67723,3.33927 -18.42182,1.20112 -38.194609,-7.60063 -38.195471,-7.60068 -40.845586,-2.14143 -2.731696,5.62729 -3.515746,20.21054 -4.474992,83.2343 -0.388367,25.51631 -2.085133,43.81441 -4.228783,45.60371 -4.621668,3.8576 -16.38342,3.8768 -16.550802,0.027 z"
       id="path3127"
       inkscape:connector-curvature="0" />
  </g>
</svg>
