<?xml version="1.0" encoding="UTF-8" standalone="no"?>
<!-- Created with Inkscape (http://www.inkscape.org/) -->
<svg
   xmlns:dc="http://purl.org/dc/elements/1.1/"
   xmlns:cc="http://web.resource.org/cc/"
   xmlns:rdf="http://www.w3.org/1999/02/22-rdf-syntax-ns#"
   xmlns:svg="http://www.w3.org/2000/svg"
   xmlns="http://www.w3.org/2000/svg"
   xmlns:sodipodi="http://sodipodi.sourceforge.net/DTD/sodipodi-0.dtd"
   xmlns:inkscape="http://www.inkscape.org/namespaces/inkscape"
   width="300"
   height="300"
   id="svg2"
   sodipodi:version="0.32"
   inkscape:version="0.45.1"
   version="1.0"
   sodipodi:docbase="C:\Documents and Settings\Martin\桌面"
   sodipodi:docname="drawing.svg"
   inkscape:output_extension="org.inkscape.output.svg.inkscape">
  <defs
     id="defs4" />
  <sodipodi:namedview
     id="base"
     pagecolor="#ffffff"
     bordercolor="#666666"
     borderopacity="1.0"
     gridtolerance="10000"
     guidetolerance="10"
     objecttolerance="10"
     inkscape:pageopacity="0.0"
     inkscape:pageshadow="2"
     inkscape:zoom="0.87055055"
     inkscape:cx="169.28754"
     inkscape:cy="282.18681"
     inkscape:document-units="px"
     inkscape:current-layer="layer1"
     width="300px"
     height="300px"
     inkscape:window-width="1024"
     inkscape:window-height="712"
     inkscape:window-x="0"
     inkscape:window-y="22" />
  <metadata
     id="metadata7">
    <rdf:RDF>
      <cc:Work
         rdf:about="">
        <dc:format>image/svg+xml</dc:format>
        <dc:type
           rdf:resource="http://purl.org/dc/dcmitype/StillImage" />
      </cc:Work>
    </rdf:RDF>
  </metadata>
  <g
     inkscape:label="Layer 1"
     inkscape:groupmode="layer"
     id="layer1">
    <path
       style="fill:#000000"
       d="M 94.01072,282.02837 C 92.77316,241.38164 87.96337,193.80609 98.42366,153.67767 C 102.89167,141.46655 112.50754,126.51279 113.73248,124.89736 C 117.27481,120.22585 115.33517,120.29683 107.03636,111.49753 C 95.47521,99.239143 91.14122,82.407076 90.76445,48.301705 C 90.51991,26.16752 91.23509,19.86201 94.27635,17.33799 C 97.14567,14.95666 98.94669,14.87511 101.5191,17.01002 C 104.06465,19.12265 104.72993,25.46024 104.11263,41.71715 C 103.656,53.743253 104.08613,64.858621 105.06846,66.417973 C 120.58295,67.776564 146.70974,65.097192 160.91752,55.119252 C 165.95886,51.037016 166.74586,48.12578 166.8257,33.26413 C 166.9049,18.51676 167.57594,15.99063 171.62317,15.20375 C 178.68396,13.83097 180.6017,19.1019 180.64395,39.99717 C 180.67741,56.555995 179.9557,59.638922 174.94347,64.347663 C 168.97626,69.953576 135.2834,79.743433 121.72302,79.811497 C 117.51264,79.83263 111.97391,81.380993 109.41474,83.252303 C 104.90684,86.548554 104.92894,86.889541 110.12281,94.183645 C 113.07139,98.324573 118.95498,103.15038 123.19743,104.90765 C 130.03685,107.74064 132.37109,107.42359 143.79592,102.10988 C 150.88263,98.813823 159.54726,93.737232 163.05064,90.828564 C 172.44506,83.028855 179.46323,81.491033 184.17251,86.20032 C 186.38224,88.410035 188.19017,91.079849 188.19017,92.13324 C 188.19017,93.186632 180.86996,97.8806 171.92304,102.56428 C 162.97614,107.24795 155.65593,111.84924 155.65593,112.78935 C 155.65593,113.72946 159.31604,115.71023 163.7895,117.19106 C 185.48289,124.37211 195.17843,146.58716 203.19702,207.48432 C 204.73759,219.18414 207.06054,236.30239 208.35911,245.52488 C 210.86762,263.34032 208.14295,275.05548 201.49102,275.05548 C 195.91788,275.05548 193.69309,265.11428 190.77431,227.16975 C 187.78689,188.33258 182.77724,162.2502 175.13244,145.73158 C 169.86597,134.35203 154.48435,124.89736 141.2376,124.89736 C 132.31448,124.89736 116.76758,137.58771 114.49511,146.72623 C 109.39522,167.23494 107.60038,185.60521 106.6027,227.5054 C 105.99636,252.96972 104.9389,276.33808 104.25275,279.43509 C 102.90976,285.49685 97.06844,286.97588 94.01072,282.02837 z "
       id="path2275"
       sodipodi:nodetypes="ccssssssccssssssssssssssssssssssssc" />
  </g>
</svg>
