<?xml version="1.0" encoding="UTF-8" standalone="no"?>
<!-- Created with Inkscape (http://www.inkscape.org/) -->
<svg
   xmlns:dc="http://purl.org/dc/elements/1.1/"
   xmlns:cc="http://web.resource.org/cc/"
   xmlns:rdf="http://www.w3.org/1999/02/22-rdf-syntax-ns#"
   xmlns:svg="http://www.w3.org/2000/svg"
   xmlns="http://www.w3.org/2000/svg"
   xmlns:sodipodi="http://sodipodi.sourceforge.net/DTD/sodipodi-0.dtd"
   xmlns:inkscape="http://www.inkscape.org/namespaces/inkscape"
   width="300"
   height="300"
   id="svg2"
   sodipodi:version="0.32"
   inkscape:version="0.45.1"
   version="1.0"
   sodipodi:docbase="C:\Documents and Settings\Martin\桌面"
   sodipodi:docname="drawing.svg"
   inkscape:output_extension="org.inkscape.output.svg.inkscape">
  <defs
     id="defs4" />
  <sodipodi:namedview
     id="base"
     pagecolor="#ffffff"
     bordercolor="#666666"
     borderopacity="1.0"
     gridtolerance="10000"
     guidetolerance="10"
     objecttolerance="10"
     inkscape:pageopacity="0.0"
     inkscape:pageshadow="2"
     inkscape:zoom="0.98994949"
     inkscape:cx="204.37265"
     inkscape:cy="133.20475"
     inkscape:document-units="px"
     inkscape:current-layer="layer1"
     width="300px"
     height="300px"
     inkscape:window-width="742"
     inkscape:window-height="577"
     inkscape:window-x="50"
     inkscape:window-y="0" />
  <metadata
     id="metadata7">
    <rdf:RDF>
      <cc:Work
         rdf:about="">
        <dc:format>image/svg+xml</dc:format>
        <dc:type
           rdf:resource="http://purl.org/dc/dcmitype/StillImage" />
      </cc:Work>
    </rdf:RDF>
  </metadata>
  <g
     inkscape:label="Layer 1"
     inkscape:groupmode="layer"
     id="layer1">
    <path
       style="fill:#000000"
       d="M 96.512265,284.22137 C 96.512265,277.06215 108.63128,251.64275 120.47406,233.96194 C 122.78909,230.50568 127.09813,223.89164 130.04965,219.26406 C 133.00121,214.63648 136.43471,209.67852 137.67964,208.24636 C 138.92461,206.81416 141.36026,202.99455 143.09227,199.75833 C 144.82424,196.52207 149.37761,190.52862 153.21087,186.43954 C 165.85236,169.96838 176.7877,152.02103 193.13746,138.58567 C 193.65989,138.58567 198.81597,134.17631 204.59539,128.7871 C 216.43832,117.74374 217.15342,117.49278 221.57978,122.82623 C 224.31991,126.12788 222.30873,129.02458 207.18187,143.56343 C 182.67097,167.84483 162.29016,196.1824 142.14826,224.13046 C 138.92632,227.84229 133.77986,236.70997 117.86767,265.96736 C 110.21593,280.03645 101.98659,290.46383 98.534919,290.46383 C 97.422459,290.46383 96.512265,287.65472 96.512265,284.22137 z M 89.293277,193.85933 C 87.031194,191.13367 87.046238,189.06496 89.360052,184.67318 C 91.002564,181.55561 93.00814,178.45369 93.816937,177.78003 C 95.153208,176.66704 108.66656,159.47882 114.81802,151.06787 C 116.20194,149.17559 123.67274,141.00726 131.41975,132.91599 C 139.16676,124.82473 145.50522,117.86595 145.50522,117.45199 C 145.50522,117.03805 153.49719,108.67128 163.26515,98.859171 C 182.18545,79.853377 207.14133,64.511335 211.70809,69.078066 C 214.23131,71.601288 212.58055,79.788813 209.54639,79.799892 C 208.68006,79.803057 204.11303,83.107489 199.39746,87.143091 C 172.14928,105.88732 149.73575,130.6645 128.22042,155.73321 C 120.28967,165.83801 112.3763,175.77397 110.63517,177.81314 C 108.89405,179.85232 104.92906,185.08843 101.82407,189.44896 C 95.531963,198.28543 93.546549,198.98422 89.293277,193.85933 z M 79.558431,114.26076 C 76.576891,112.37366 76.628383,111.23717 79.917327,106.33691 C 86.157778,97.039186 111.74749,71.318347 121.00875,65.034946 C 128.95816,59.248267 135.48721,52.198881 143.56226,46.524795 C 149.34646,42.599962 154.63016,38.834465 155.30381,38.157021 C 166.09642,31.896693 176.69062,24.769508 187.76163,18.959792 C 192.14038,17.178465 199.79749,14.012829 204.77745,11.925051 C 214.32792,7.9211317 222.53358,9.116736 220.85309,14.267358 C 220.30383,15.950783 214.42488,19.908122 207.78873,23.061445 C 201.15257,26.214769 190.02448,32.553233 183.05962,37.146919 C 163.11483,48.063502 144.87791,60.497494 128.37027,76.409687 C 122.31788,82.986712 112.03323,92.384122 105.51547,97.292829 C 98.997749,102.20152 92.038491,108.54 90.05046,111.3783 C 86.043504,117.09904 84.64838,117.48231 79.558431,114.26076 z "
       id="path2220"
       sodipodi:nodetypes="cssssccssccssccssssssssccssccsccccsssccssc" />
  </g>
</svg>
