<?xml version="1.0" encoding="UTF-8" standalone="no"?>
<!-- Created with Inkscape (http://www.inkscape.org/) -->
<svg
   xmlns:dc="http://purl.org/dc/elements/1.1/"
   xmlns:cc="http://web.resource.org/cc/"
   xmlns:rdf="http://www.w3.org/1999/02/22-rdf-syntax-ns#"
   xmlns:svg="http://www.w3.org/2000/svg"
   xmlns="http://www.w3.org/2000/svg"
   xmlns:sodipodi="http://sodipodi.sourceforge.net/DTD/sodipodi-0.dtd"
   xmlns:inkscape="http://www.inkscape.org/namespaces/inkscape"
   id="svg2464"
   sodipodi:version="0.32"
   inkscape:version="0.45.1"
   width="300"
   height="300"
   version="1.0"
   sodipodi:docbase="/home/michelet/Images/Temp"
   sodipodi:docname="彳-bronze.svg"
   inkscape:output_extension="org.inkscape.output.svg.inkscape">
  <metadata
     id="metadata2469">
    <rdf:RDF>
      <cc:Work
         rdf:about="">
        <dc:format>image/svg+xml</dc:format>
        <dc:type
           rdf:resource="http://purl.org/dc/dcmitype/StillImage" />
      </cc:Work>
    </rdf:RDF>
  </metadata>
  <defs
     id="defs2467" />
  <sodipodi:namedview
     inkscape:window-height="941"
     inkscape:window-width="1269"
     inkscape:pageshadow="2"
     inkscape:pageopacity="0.0"
     guidetolerance="10.0"
     gridtolerance="10.0"
     objecttolerance="10.0"
     borderopacity="1.0"
     bordercolor="#666666"
     pagecolor="#ffffff"
     id="base"
     width="300px"
     height="300px"
     inkscape:zoom="2.9379845"
     inkscape:cx="115.77859"
     inkscape:cy="154.70972"
     inkscape:window-x="0"
     inkscape:window-y="27"
     inkscape:current-layer="svg2464" />
  <path
     style="fill:#000000;"
     d="M 41.026166,290.3546 C 40.147063,289.04716 42.324843,285.09728 45.865679,281.5771 C 49.406514,278.05691 58.140976,269.41144 65.275591,262.36494 C 95.321147,232.69047 98.056065,222.18652 94.21804,151.20615 C 92.678773,122.73895 90.654428,98.744495 89.719501,97.885141 C 88.784571,97.025785 83.624963,99.876461 78.253706,104.21997 C 59.690184,119.23151 51.121401,124.84446 46.70368,124.88669 C 40.986129,124.94134 41.007052,119.94328 46.742782,115.54673 C 49.203529,113.66052 57.471607,107.40019 65.116289,101.63487 C 72.76097,95.869551 79.400435,90.353651 79.870655,89.377313 C 80.340878,88.400976 86.043,84.285624 92.542039,80.232086 C 99.04108,76.17855 107.6308,69.780333 111.63032,66.013826 C 117.34401,60.633007 119.37203,59.847361 121.09505,62.347235 C 122.30114,64.097115 123.3054,66.154626 123.32675,66.919477 C 123.39752,69.455661 113.94811,78.340654 111.18005,78.340654 C 109.68348,78.340654 107.67672,79.504133 106.72056,80.926163 C 105.76441,82.348191 105.1172,114.48969 105.28232,152.35171 C 105.5831,221.32328 104.13673,235.83064 96.213499,243.31361 C 94.420901,245.00658 92.954231,247.27074 92.954231,248.34502 C 92.954231,250.9341 59.886877,281.4335 50.220286,287.76032 C 45.54381,290.82109 42.010235,291.81815 41.026166,290.3546 z M 49.871526,78.714561 C 49.871526,76.357846 52.542613,73.310974 55.807276,71.943732 C 59.071937,70.576492 73.46062,59.139657 87.782127,46.528544 C 102.10363,33.917434 115.11338,23.59925 116.69268,23.59925 C 122.97074,23.59925 121.0721,33.400584 113.98916,37.555617 C 110.08614,39.845234 98.440849,49.417397 88.110742,58.827093 C 77.780635,68.236791 67.231708,76.5474 64.668682,77.295117 C 62.105657,78.042835 60.008634,79.632204 60.008634,80.827051 C 60.008634,82.021895 57.727785,82.999497 54.94008,82.999497 C 51.708474,82.999497 49.871526,81.446549 49.871526,78.714561 z "
     id="path2473"
     sodipodi:nodetypes="csssssssssssssssssssccssssssssc" />
  <path
     style="fill:#a0a0a0;fill-opacity:1"
     d="M 132.13065,282.83045 C 128.74565,277.79613 135.20495,275.71122 169.05277,270.91285 C 180.90051,269.23329 190.41994,266.83121 190.20705,265.57493 C 189.99416,264.31865 189.11573,245.5983 188.25498,223.97416 C 187.39423,202.35002 186.14949,183.85368 185.48888,182.8712 C 184.82828,181.88871 179.74568,182.14458 174.19423,183.43979 C 168.64278,184.73499 162.36384,185.18209 160.24103,184.43334 C 154.30173,182.33844 155.61664,175.99093 162.08351,175.53905 C 165.21968,175.3199 169.49627,174.90721 171.58705,174.62195 C 173.67782,174.3367 178.01431,173.99188 181.22369,173.85569 C 186.82292,173.61809 187.04402,172.87795 186.69055,155.55506 C 186.20083,131.55523 182.80153,119.15293 177.24992,121.11108 C 168.717,124.12078 133.5729,125.47011 133.5729,122.78802 C 133.5729,119.48385 141.84479,115.37254 148.4927,115.37254 C 151.30646,115.37254 156.55009,114.14065 160.14522,112.63501 C 166.66974,109.90254 166.67956,109.85413 165.46405,86.429015 C 164.79428,73.521362 164.93202,51.646003 165.77015,37.817108 C 167.06267,16.490848 167.90845,12.783832 171.34124,13.399335 C 174.61225,13.98583 175.34647,17.244408 175.1695,30.389804 C 175.04907,39.335444 174.51575,51.371681 173.98434,57.136999 C 173.02775,67.515266 175.70586,98.774618 178.22523,106.63721 C 179.79124,111.52449 187.54632,111.99847 191.64642,107.4575 C 193.26346,105.66659 195.17655,93.349775 195.89774,80.086795 C 196.61893,66.823817 198.26401,49.15873 199.55348,40.831049 C 200.84295,32.503367 201.92056,20.186551 201.94817,13.460347 C 201.99812,1.2901614 203.05347,-0.30255664 208.83069,3.0733044 C 211.95581,4.8994384 211.62806,32.509365 208.20965,55.389933 C 206.56785,66.379042 206.60641,66.454685 213.85067,66.454685 C 224.14194,66.454685 232.39143,60.471365 232.49997,52.928424 C 232.59224,46.515997 238.01438,24.291462 241.27657,16.954479 C 242.27346,14.712411 244.08577,12.877992 245.30392,12.877992 C 249.8455,12.877992 250.5349,24.771064 246.60745,35.365744 C 244.37409,41.390483 242.5468,49.121378 242.5468,52.545514 C 242.5468,68.945978 232.92963,78.101792 215.70278,78.101792 C 206.84392,78.101792 205.1104,80.366071 205.8941,90.91361 C 206.17968,94.757156 206.56039,100.80376 206.74013,104.35051 L 207.06692,110.79915 L 231.3842,110.51265 C 244.94177,110.35292 256.84246,111.27491 258.28015,112.59638 C 264.42129,118.24112 256.68419,120.03138 226.14769,120.03138 L 194.84205,120.03138 L 196.11648,145.07266 C 196.81741,158.84536 197.92966,170.61715 198.58813,171.23218 C 199.2466,171.84721 205.67671,172.37133 212.87727,172.39689 C 223.29954,172.43389 226.14697,173.27462 226.84099,176.51985 C 227.59561,180.04842 225.61061,180.59634 212.07265,180.59634 L 196.43252,180.59634 L 197.92261,211.46117 C 198.74216,228.43682 200.1067,248.45918 200.95491,255.95531 L 202.49712,269.58464 L 234.52374,268.76713 C 263.04619,268.03909 266.64106,268.38186 267.37937,271.90008 C 268.12356,275.44635 265.01565,275.83957 237.00409,275.74332 C 205.29519,275.63438 169.42004,278.51724 148.77856,282.83299 C 134.15293,285.89094 134.18848,285.89094 132.13065,282.83045 z "
     id="path3461"
     sodipodi:nodetypes="csssssssssssssssssssssssssssssssssscccscccsssccccccsssc" />
</svg>
