<?xml version="1.0" encoding="UTF-8" standalone="no"?>
<!-- Created with Inkscape (http://www.inkscape.org/) -->
<svg
   xmlns:svg="http://www.w3.org/2000/svg"
   xmlns="http://www.w3.org/2000/svg"
   version="1.0"
   width="300"
   height="300"
   id="svg2">
  <defs
     id="defs5" />
  <path
     d="M 129.3896,272.74356 C 144.08311,255.91497 165.23938,245.40191 177.48895,226.21467 C 193.35084,203.12226 194.55388,173.22246 189.82043,146.45976 C 188.54137,138.13409 182.49723,127.95238 172.67874,129.92939 C 156.18831,132.87574 142.50011,145.68777 137.89521,161.71506 C 130.35651,183.48251 130.9424,206.85848 126.3453,229.20709 C 123.80374,244.41619 108.68775,232.65499 112.98053,222.07503 C 116.04531,195.17686 123.01867,168.0193 137.51514,144.88407 C 146.75009,130.25474 162.75248,115.46272 181.44926,119.11146 C 191.81053,120.34477 198.66684,128.97126 202.50126,137.98807 C 209.77866,153.76948 215.20612,172.44809 208.31758,189.3324 C 199.00789,214.50455 185.14057,238.37051 166.58575,257.85717 C 156.8801,266.57262 145.47224,275.00667 132.27069,276.93498 C 129.7389,277.2562 128.15991,275.01483 129.3896,272.74356 z M 76.31144,130.27114 C 73.856001,120.49829 86.003182,114.76967 92.594232,109.87524 C 114.95767,96.404 140.41932,88.511703 166.3158,85.741731 C 179.59281,83.03433 195.82812,78.73399 201.3321,64.907414 C 204.51078,52.56713 194.95487,39.155593 182.45788,37.27173 C 168.55955,33.645172 153.84662,37.198177 140.02693,33.456542 C 134.40214,25.212867 152.95533,25.90787 158.66494,25.266855 C 174.47531,25.265282 190.6687,23.655324 206.22413,27.09524 C 221.79332,33.631585 227.24168,53.87879 222.58977,69.122315 C 218.97345,83.304652 205.1279,91.850927 191.24178,93.418101 C 164.15601,98.094319 133.9431,96.006098 110.7784,113.3249 C 101.25593,119.83733 93.273323,128.55789 83.07978,134.05243 C 79.870358,135.76605 77.675782,132.64986 76.31144,130.27114 z "
     style="fill:black;fill-opacity:1"
     id="path1875" />
</svg>
