<?xml version="1.0" encoding="UTF-8" standalone="no"?>
<!-- Created with Inkscape (http://www.inkscape.org/) -->
<svg
   xmlns:svg="http://www.w3.org/2000/svg"
   xmlns="http://www.w3.org/2000/svg"
   version="1.0"
   width="300"
   height="300"
   id="svg2">
  <defs
     id="defs5" />
  <path
     d="M 177.5222,277.58066 C 161.34714,269.06846 146.99496,256.65848 141.83781,246.7253 C 134.06027,235.06667 129.29449,222.07648 125.72804,208.51488 C 124.38073,201.59833 121.63782,198.98995 108.48722,192.11968 C 96.938345,186.0862 83.481747,171.44058 81.621895,160.31411 C 74.72983,119.08268 73.965987,108.71264 99.992388,79.622234 C 112.66224,66.092254 113.59277,64.353943 112.50538,56.246861 C 111.63739,49.775532 108.82544,45.225174 101.73694,38.821133 C 96.460405,34.054103 92.143235,28.828355 92.143235,27.208365 C 92.143235,22.822418 96.957609,19.924589 100.24719,21.242162 C 109.5071,24.951025 119.49317,33.619073 126.334,43.792532 C 131.412,62.983061 121.06089,80.176108 108.40538,93.542984 C 93.356755,108.76947 91.438895,113.65039 92.586225,133.80246 C 93.799665,155.11552 100.8507,171.50336 111.08439,176.79541 C 115.03489,178.83829 118.90326,179.8736 119.68077,179.09609 C 120.45828,178.31858 121.22227,165.36699 121.37853,150.31477 C 121.39325,139.92018 123.13767,107.56235 131.52316,100.76044 C 134.18024,99.297521 136.51823,127.20417 135.2945,151.59336 C 134.23992,172.61142 137.17023,201.35061 141.50622,212.51525 C 143.27284,217.06408 144.23851,217.51032 147.12733,215.11281 C 157.81106,206.24611 162.07945,184.86892 162.14928,139.87903 C 162.19809,108.42967 162.72498,103.09588 165.78282,103.09588 C 167.74987,103.09588 169.94706,104.93504 170.66547,107.1829 C 171.38388,109.43076 173.07237,113.57376 174.41768,116.38958 C 175.95103,119.59895 176.3904,132.88806 175.59522,152.005 L 174.32674,182.50077 L 179.86323,182.50077 C 188.60549,182.50077 198.98144,170.65969 200.61508,158.81867 C 205.93422,120.2642 198.24321,93.819364 178.89583,84.139038 C 172.92785,81.153004 165.02127,75.658933 161.32564,71.929996 C 155.14992,65.698611 154.71097,64.136161 155.89986,52.616956 C 157.06206,41.35626 158.33703,39.014285 168.45777,29.549508 C 177.90937,20.710505 181.03448,19.109571 187.87676,19.601531 C 200.78902,20.529924 199.88113,26.943786 185.82955,34.064264 C 170.671,41.74568 164.07859,53.557698 169.74136,62.890432 C 171.74201,66.187671 177.63889,70.550997 182.84556,72.586716 C 202.59868,80.309871 213.32933,96.271094 215.13247,120.61167 C 217.38792,151.05805 216.15163,166.29829 210.62734,176.14778 C 206.4689,183.56206 196.71057,191.83635 192.12103,191.83966 C 181.39938,193.25369 169.29492,200.62098 163.74058,210.22724 C 161.37317,215.17139 156.86764,221.98669 153.72829,225.37235 C 148.87999,230.60102 148.43018,232.29382 150.7415,236.61255 C 155.69308,245.86467 164.47523,252.81753 183.88758,262.85442 C 199.88368,271.12497 203.19949,273.81442 203.81552,279.01791 C 204.46643,284.51612 203.77063,285.2376 197.97692,285.07181 C 194.35926,284.96828 185.15463,281.59726 177.5222,277.58066 z "
     style="fill:black;fill-opacity:1"
     id="path1875" />
</svg>
