<?xml version="1.0" encoding="UTF-8" standalone="no"?>
<!-- Created with Inkscape (http://www.inkscape.org/) -->

<svg
   xmlns:dc="http://purl.org/dc/elements/1.1/"
   xmlns:cc="http://creativecommons.org/ns#"
   xmlns:rdf="http://www.w3.org/1999/02/22-rdf-syntax-ns#"
   xmlns:svg="http://www.w3.org/2000/svg"
   xmlns="http://www.w3.org/2000/svg"
   version="1.1"
   width="300"
   height="300"
   id="svg2">
  <defs
     id="defs4" />
  <metadata
     id="metadata7">
    <rdf:RDF>
      <cc:Work
         rdf:about="">
        <dc:format>image/svg+xml</dc:format>
        <dc:type
           rdf:resource="http://purl.org/dc/dcmitype/StillImage" />
        <dc:title></dc:title>
      </cc:Work>
    </rdf:RDF>
  </metadata>
  <g
     transform="translate(0,-752.36218)"
     id="layer1">
    <path
       d="M 69.64953,1029.3069 C 69.64953,1025.0155 71.559176,1017.8196 73.893188,1013.3162 76.2272,1008.8127 79.050988,1001.6741 80.168273,997.45256 81.285558,993.23106 85.174425,978.83941 88.8102,965.47118 95.150897,942.15734 95.399547,938.65913 94.902389,879.761 94.066417,780.72346 93.898628,781.83733 110.66352,775.12936 130.40929,767.22867 225.38428,764.27323 229.80246,771.42199 230.55249,772.63557 230.52976,775.63302 229.75194,778.083 228.47233,782.11354 223.6473,782.5375 179.05616,782.5375 143.58356,782.5375 127.49615,783.49928 121.64327,785.96989 112.48919,789.834 111.70977,791.2046 109.21832,807.81877 106.3008,827.27421 106.80235,827.45908 157.55033,825.63321 181.67478,824.76522 202.85213,822.91979 204.6111,821.53223 206.37008,820.14466 207.80925,815.66023 207.80925,811.56682 207.80925,802.84629 214.10677,799.25182 219.65851,804.80356 223.94896,809.09402 227.70573,865.80922 224.74491,881.5918 222.90514,891.39862 219.54828,893.49415 197.57519,898.55263 173.7236,904.04357 167.43259,904.89924 140.00864,906.38248 L 111.865,907.90464 110.28525,937.32754 C 109.41639,953.51014 106.83835,972.50709 104.55629,979.543 102.27422,986.57886 100.39462,994.80916 100.37938,997.83236 100.34789,1004.0838 86.202801,1032.1988 81.624115,1035.1107 74.560184,1039.603 69.64953,1037.223 69.64953,1029.3069 z M 185.69232,886.76583 C 202.93284,883.11624 206.15074,881.58805 208.32163,876.01909 211.25922,868.48335 209.41796,840.68935 205.73732,837.00871 204.33468,835.60607 196.64571,835.12104 188.25157,835.90569 180.01133,836.67596 160.33894,838.259 144.53515,839.42356 128.73135,840.58813 114.57806,842.76386 113.0834,844.25853 111.46872,845.8732 110.67003,855.66149 111.11541,868.37711 111.82887,888.74666 112.17328,889.86366 118.26128,891.55286 127.60553,894.14557 162.54953,891.66483 185.69232,886.76583 z"
       id="path2996"
       style="fill:#000000" />
  </g>
</svg>
