<?xml version="1.0" encoding="UTF-8" standalone="no"?>
<!-- Created with Inkscape (http://www.inkscape.org/) -->
<svg
   xmlns:dc="http://purl.org/dc/elements/1.1/"
   xmlns:cc="http://web.resource.org/cc/"
   xmlns:rdf="http://www.w3.org/1999/02/22-rdf-syntax-ns#"
   xmlns:svg="http://www.w3.org/2000/svg"
   xmlns="http://www.w3.org/2000/svg"
   xmlns:sodipodi="http://sodipodi.sourceforge.net/DTD/sodipodi-0.dtd"
   xmlns:inkscape="http://www.inkscape.org/namespaces/inkscape"
   id="svg2178"
   sodipodi:version="0.32"
   inkscape:version="0.45.1"
   width="300"
   height="300"
   version="1.0"
   sodipodi:docbase="C:\Documents and Settings\Martin\桌面"
   sodipodi:docname="手-oracle.svg"
   inkscape:output_extension="org.inkscape.output.svg.inkscape">
  <metadata
     id="metadata2183">
    <rdf:RDF>
      <cc:Work
         rdf:about="">
        <dc:format>image/svg+xml</dc:format>
        <dc:type
           rdf:resource="http://purl.org/dc/dcmitype/StillImage" />
      </cc:Work>
    </rdf:RDF>
  </metadata>
  <defs
     id="defs2181" />
  <sodipodi:namedview
     inkscape:window-height="577"
     inkscape:window-width="742"
     inkscape:pageshadow="2"
     inkscape:pageopacity="0.0"
     guidetolerance="10.0"
     gridtolerance="10.0"
     objecttolerance="10.0"
     borderopacity="1.0"
     bordercolor="#666666"
     pagecolor="#ffffff"
     id="base"
     width="300px"
     height="300px"
     inkscape:zoom="0.95891819"
     inkscape:cx="82.935037"
     inkscape:cy="188.84974"
     inkscape:window-x="44"
     inkscape:window-y="0"
     inkscape:current-layer="svg2178" />
  <path
     style="fill:#000000"
     d="M 179.65546,274.1838 C 173.74062,272.02399 163.20224,257.55273 148.30942,231.13954 C 140.14131,216.65296 134.64156,195.92945 134.64156,179.6379 L 134.64156,167.54809 L 114.84961,147.08937 C 101.8042,133.60447 95.789093,125.89919 97.203453,124.48484 C 100.5897,121.0986 113.5968,127.63202 123.818,137.85323 C 128.81613,142.85135 133.68495,146.11068 134.63761,145.09617 C 135.59026,144.08166 137.03118,138.25472 137.83964,132.14741 C 139.1795,122.02579 138.78722,120.48961 133.40641,114.78683 C 125.5542,106.46475 114.13717,81.510251 116.91227,78.735154 C 120.55355,75.093873 128.08663,79.259965 133.98922,88.179383 C 137.18574,93.009648 141.11352,96.500742 142.95055,96.144404 C 144.83309,95.779235 147.56701,90.670323 149.39261,84.106022 C 152.95947,71.280656 155.06945,76.111344 131.26963,42.614488 C 121.08024,28.273524 120.257,24.441985 127.08093,23.11947 C 132.48006,22.073085 173.70286,64.898442 173.70286,71.553854 C 173.70286,74.132032 171.26153,82.470972 168.27768,90.084833 C 165.29383,97.69869 162.8525,105.27365 162.8525,106.91809 C 162.8525,112.51146 177.15216,105.33823 191.47641,92.559309 C 195.42801,89.03401 198.58359,87.85505 201.24173,88.910875 C 204.58543,90.238995 203.39563,92.093824 193.23351,101.3951 C 186.66904,107.40349 176.07271,114.75738 169.68612,117.73708 C 157.1957,123.56454 153.42891,129.22457 150.70512,146.25827 C 148.79457,158.20619 152.07326,159.14221 174.80261,153.13775 C 193.04127,148.31959 202.99883,147.89375 202.99883,151.9319 C 202.99883,155.34453 189.53044,161.07174 168.27768,166.69651 L 148.74702,171.86551 L 148.09011,180.67462 C 146.95879,195.84516 153.48637,215.45543 164.47863,229.90931 C 198.51139,274.65946 201.0229,281.98614 179.65546,274.1838 z "
     id="path2187" />
</svg>
