<?xml version="1.0" encoding="UTF-8" standalone="no"?>
<!-- Created with Inkscape (http://www.inkscape.org/) -->
<svg
   xmlns:svg="http://www.w3.org/2000/svg"
   xmlns="http://www.w3.org/2000/svg"
   version="1.0"
   width="300"
   height="300"
   id="svg2">
  <defs
     id="defs5" />
  <path
     d="M 65.495271,219.35611 C 66.720441,188.45143 69.352291,157.50574 71.343831,150.5879 C 75.493101,136.17491 90.244481,125.70558 106.40323,125.70558 C 120.66096,125.70558 143.71114,115.75559 141.8786,110.39205 C 140.86174,107.41587 129.50665,106.08356 105.158,106.08356 C 74.441891,106.08356 69.748981,105.28076 68.661311,99.840189 C 67.541901,94.240843 70.947811,93.59682 101.67929,93.59682 C 129.2726,93.59682 136.35682,92.524741 138.05801,88.091496 C 141.28492,79.682309 138.51771,78.711116 105.45287,76.648275 C 79.691311,75.041067 73.923161,73.541321 69.563371,67.316857 C 55.817741,47.692215 71.246591,29.34362 101.41813,29.433942 C 119.4364,29.487882 132.37484,33.915173 127.82137,38.46864 C 126.53326,39.75675 116.14441,42.653556 104.73504,44.905992 C 87.734251,48.262281 83.990721,50.288967 83.990721,56.136607 C 83.990721,62.611565 86.714541,63.367776 113.42374,64.308078 C 141.23179,65.287066 142.85676,64.932593 142.85676,57.88754 C 142.85676,47.385797 152.12662,30.692624 159.53752,27.848792 C 165.77772,25.454206 220.59686,28.826378 225.97761,31.935821 C 227.54454,32.841323 226.94661,35.847416 224.64887,38.61603 C 221.75107,42.107664 212.49681,43.649869 194.44248,43.649869 C 162.66122,43.649869 157.12732,45.558278 157.12732,56.518305 C 157.12732,64.977959 157.46654,65.055705 194.37698,65.055705 C 231.84217,65.055705 240.13245,67.568475 230.11004,75.886334 C 226.12708,79.191902 215.22192,79.813748 189.12147,78.223641 L 153.55968,76.057124 L 153.55968,84.82697 C 153.55968,93.574048 153.65509,93.59682 190.30636,93.59682 C 229.97212,93.59682 235.61538,95.82252 235.61538,111.46666 C 235.61538,129.2934 229.15849,133.15466 198.06444,133.9223 C 174.84147,134.49562 169.61406,133.64141 169.61406,129.27321 C 169.61406,125.22963 175.42895,123.4858 193.40695,122.13794 C 219.15417,120.20759 223.36021,118.2653 220.11372,109.80506 C 218.43805,105.43834 211.70621,104.29974 187.56422,104.29974 L 157.12732,104.29974 L 157.12732,114.79211 C 157.12732,127.88565 155.58731,128.79908 120.2204,136.68279 C 104.23432,140.24629 89.478211,145.66634 87.170501,148.82232 C 84.720191,152.17331 81.997291,176.89735 80.565941,208.79183 C 77.816021,270.06795 76.861011,275.54643 68.929231,275.54643 C 63.904281,275.54643 63.518151,269.22829 65.495271,219.35611 z "
     style="fill:black;fill-opacity:1"
     id="path1875" />
</svg>
