<?xml version="1.0" encoding="UTF-8" standalone="no"?>
<!-- Created with Inkscape (http://www.inkscape.org/) -->
<svg
   xmlns:dc="http://purl.org/dc/elements/1.1/"
   xmlns:cc="http://web.resource.org/cc/"
   xmlns:rdf="http://www.w3.org/1999/02/22-rdf-syntax-ns#"
   xmlns:svg="http://www.w3.org/2000/svg"
   xmlns="http://www.w3.org/2000/svg"
   xmlns:sodipodi="http://sodipodi.sourceforge.net/DTD/sodipodi-0.dtd"
   xmlns:inkscape="http://www.inkscape.org/namespaces/inkscape"
   id="svg2178"
   sodipodi:version="0.32"
   inkscape:version="0.45.1"
   width="300"
   height="300"
   version="1.0"
   sodipodi:docbase="C:\Documents and Settings\Martin\桌面"
   sodipodi:docname="手-bronze.svg"
   inkscape:output_extension="org.inkscape.output.svg.inkscape">
  <metadata
     id="metadata2183">
    <rdf:RDF>
      <cc:Work
         rdf:about="">
        <dc:format>image/svg+xml</dc:format>
        <dc:type
           rdf:resource="http://purl.org/dc/dcmitype/StillImage" />
      </cc:Work>
    </rdf:RDF>
  </metadata>
  <defs
     id="defs2181" />
  <sodipodi:namedview
     inkscape:window-height="577"
     inkscape:window-width="742"
     inkscape:pageshadow="2"
     inkscape:pageopacity="0.0"
     guidetolerance="10.0"
     gridtolerance="10.0"
     objecttolerance="10.0"
     borderopacity="1.0"
     bordercolor="#666666"
     pagecolor="#ffffff"
     id="base"
     width="300px"
     height="300px"
     inkscape:zoom="1.0836555"
     inkscape:cx="153.5663"
     inkscape:cy="148.19186"
     inkscape:window-x="44"
     inkscape:window-y="0"
     inkscape:current-layer="svg2178" />
  <path
     style="fill:#000000"
     d="M 131.39962,283.39635 C 130.56983,282.05371 131.59244,277.53407 133.67212,273.35271 C 144.16658,252.25277 148.66203,236.62046 148.66203,221.22742 C 148.66203,209.62569 147.85411,207.88658 140.76014,204.21814 C 136.41409,201.97071 130.93889,200.1319 128.59303,200.1319 C 123.18288,200.1319 98.528591,177.21978 93.523,167.54003 C 88.935685,158.66915 88.607078,147.58184 92.853698,144.95729 C 96.297407,142.82896 107.20393,154.24129 114.27768,167.37482 C 119.47786,177.02976 138.91504,190.79297 143.41899,188.00937 C 146.79357,185.92378 145.3695,165.91095 140.21512,142.98429 C 137.59395,131.32535 136.17852,129.54688 126.07336,125.21531 C 113.27842,119.73073 92.983089,98.182727 90.895785,87.866452 C 90.125832,84.061034 88.345441,76.589356 86.939344,71.262724 C 83.971518,60.019808 83.620637,49.123707 86.145112,46.599224 C 89.806644,42.937692 94.720946,50.983446 100.67441,70.386762 C 106.79439,90.332869 121.56566,110.49679 128.40739,108.24445 C 129.97251,107.72919 131.85569,97.095417 132.59222,84.61384 C 134.21926,57.041578 136.60786,52.966338 162.5383,33.522355 C 189.42265,13.363098 192.78889,11.749104 197.10448,16.949075 C 201.57897,22.34051 197.829,28.73579 187.25034,33.754505 C 161.95138,45.756817 143.30542,67.208402 143.30542,84.311736 C 143.30542,94.704227 149.14244,111.74797 152.70157,111.74797 C 156.61866,111.74797 174.93266,98.548537 181.88633,90.713664 C 186.89834,85.06649 197.96687,82.915332 200.5453,87.087311 C 202.73658,90.63285 180.29969,112.99759 166.44112,121.08186 L 153.41974,128.67774 L 155.06497,140.96969 C 159.19949,171.85998 160.92629,179.68638 163.81817,180.64191 C 165.52527,181.20597 176.82081,173.67568 188.9194,163.90796 C 203.65318,152.01272 211.80539,147.037 213.60776,148.83938 C 219.30979,154.54138 212.42834,165.26666 192.45432,181.80873 C 162.12538,206.92649 162.05355,207.01295 162.05355,218.39157 C 162.05355,248.37769 139.42023,296.37396 131.39962,283.39635 z "
     id="path2187" />
</svg>
