<?xml version="1.0" encoding="UTF-8" standalone="no"?>
<!-- Created with Inkscape (http://www.inkscape.org/) -->
<svg
   xmlns:svg="http://www.w3.org/2000/svg"
   xmlns="http://www.w3.org/2000/svg"
   version="1.0"
   width="300"
   height="300"
   id="svg2">
  <defs
     id="defs5" />
  <path
     d="M 139.15611,289.50873 C 140.47011,263.66753 142.9798,266.69193 147.24087,213.40312 C 149.14772,201.25479 136.76067,202.44627 126.31672,199.37904 C 108.39559,195.32976 97.136304,184.47004 94.410254,165.80061 C 93.52212,155.48234 91.068173,144.49178 93.855127,134.41548 C 103.38415,135.5604 100.85746,151.05906 102.96913,158.66489 C 102.90168,169.56224 108.60866,179.26431 119.72578,181.99355 C 127.84016,184.79684 138.80722,191.53812 147.51739,189.59125 C 150.99003,176.28438 149.24533,165.97485 150.78302,155.46535 C 151.81027,145.3402 152.59701,147.10975 150.96746,131.6915 C 139.62718,129.68542 115.23177,126.26474 110.38412,113.93454 C 105.84379,101.47998 104.69908,87.984293 103.85801,74.834053 C 99.840258,64.162233 118.33764,57.36693 116.2574,70.955317 C 116.44634,82.104288 111.46723,94.851432 119.69985,104.34787 C 126.68083,113.01539 141.13276,120.20607 152.68226,117.32624 C 157.74969,108.01417 155.27984,100.48727 157.09061,91.979306 C 158.97703,79.366732 158.22805,66.027778 162.80685,54.012871 C 164.86352,43.735193 175.34221,39.108694 184.11514,34.788026 C 190.05718,29.804942 207.49691,26.601136 200.89613,39.071171 C 191.69488,48.507619 174.7271,50.253663 170.86412,64.66354 C 167.31713,80.754978 167.06915,97.389348 164.69421,113.68887 C 162.49459,119.14668 168.592,116.04587 171.71734,116.01083 C 179.21224,114.53111 190.34139,114.77902 191.98904,105.40685 C 195.4314,94.148826 197.55768,82.445384 197.94761,70.676553 C 204.74072,60.34402 211.69736,75.990979 209.50999,83.191054 C 209.17719,99.00475 207.28374,116.46955 193.89347,127.06611 C 185.20421,133.11843 173.8139,130.05342 164.56872,133.74876 C 161.72207,144.67728 162.34958,156.43889 161.42984,166.8396 C 161.33934,173.95964 161.33728,181.08054 161.28722,188.20097 C 173.36984,188.08081 186.87631,186.99882 195.95072,178.15693 C 203.45256,167.36643 199.40119,152.86735 205.48587,141.57453 C 217.35539,135.69388 216.71518,153.02724 213.89084,160.2241 C 211.24022,171.33141 211.07672,184.3864 202.49114,192.86728 C 192.21005,199.71922 179.37173,201.3224 167.41063,203.29413 C 154.5142,200.73327 159.05751,215.85907 157.64823,223.58152 C 155.81149,242.66183 153.7044,261.75992 150.62911,280.67423 C 149.5785,285.07973 144.79884,295.08586 139.15611,289.50873 z "
     style="fill:black;fill-opacity:1"
     id="path1875" />
</svg>
