<?xml version="1.0" encoding="UTF-8" standalone="no"?>
<!-- Created with Inkscape (http://www.inkscape.org/) -->

<svg
   xmlns:dc="http://purl.org/dc/elements/1.1/"
   xmlns:cc="http://creativecommons.org/ns#"
   xmlns:rdf="http://www.w3.org/1999/02/22-rdf-syntax-ns#"
   xmlns:svg="http://www.w3.org/2000/svg"
   xmlns="http://www.w3.org/2000/svg"
   xmlns:sodipodi="http://sodipodi.sourceforge.net/DTD/sodipodi-0.dtd"
   xmlns:inkscape="http://www.inkscape.org/namespaces/inkscape"
   width="300"
   height="300"
   id="svg2"
   version="1.1"
   inkscape:version="0.48.2 r9819"
   sodipodi:docname="支-seal.svg">
  <defs
     id="defs4" />
  <sodipodi:namedview
     id="base"
     pagecolor="#ffffff"
     bordercolor="#666666"
     borderopacity="1.0"
     inkscape:pageopacity="0.0"
     inkscape:pageshadow="2"
     inkscape:zoom="1.979899"
     inkscape:cx="202.69582"
     inkscape:cy="124.97897"
     inkscape:document-units="px"
     inkscape:current-layer="layer1"
     showgrid="false"
     inkscape:window-width="1280"
     inkscape:window-height="999"
     inkscape:window-x="0"
     inkscape:window-y="24"
     inkscape:window-maximized="1" />
  <metadata
     id="metadata7">
    <rdf:RDF>
      <cc:Work
         rdf:about="">
        <dc:format>image/svg+xml</dc:format>
        <dc:type
           rdf:resource="http://purl.org/dc/dcmitype/StillImage" />
        <dc:title></dc:title>
      </cc:Work>
    </rdf:RDF>
  </metadata>
  <g
     inkscape:label="Calque 1"
     inkscape:groupmode="layer"
     id="layer1"
     transform="translate(0,-752.36218)">
    <path
       style="fill:#000000"
       d="m 68.99175,1002.0041 c -2.611892,-3.66633 33.17296,-34.16838 53.26078,-45.39802 6.25849,-3.49867 11.22066,-9.30205 11.22066,-13.12287 0,-7.51794 -0.18928,-7.50812 -38.938885,2.02055 -48.227115,11.85923 -16.601534,-9.99561 34.048775,-23.5294 2.68956,-0.71864 4.89011,-4.4091 4.89011,-8.20099 0,-6.29727 -2.46168,-6.89437 -28.42362,-6.89437 -20.129378,0 -32.340491,-1.82241 -41.84638,-6.24523 -17.666355,-8.21966 -21.193654,-16.11328 -5.548111,-12.41592 6.197829,1.46467 25.35227,2.82627 42.565421,3.02577 28.82796,0.33413 31.29664,-0.17268 31.29664,-6.42512 0,-6.20861 -2.25338,-6.70907 -26.40654,-5.86476 -20.605112,0.7203 -26.406539,-0.12708 -26.406539,-3.85704 0,-3.11356 6.478663,-5.59104 18.582381,-7.10601 36.406298,-4.55683 36.186748,-4.43019 36.186748,-20.87327 0,-8.1976 -1.30474,-14.90473 -2.89941,-14.90473 -1.59468,0 -15.30903,5.31956 -30.47634,11.82125 -30.826359,13.21416 -54.694823,18.85097 -52.187238,12.32461 0.852864,-2.21971 17.372673,-11.99897 36.710681,-21.73169 29.695827,-14.94576 36.539377,-20.06867 44.035677,-32.96399 9.66656,-16.62867 21.56009,-20.52107 23.65454,-7.74142 1.42517,8.69594 23.85646,24.82734 43.75537,31.46656 38.04803,12.69462 27.78754,23.15112 -12.09251,12.32353 -9.48645,-2.57561 -20.32886,-5.79354 -24.09423,-7.15096 -5.98482,-2.15753 -6.84614,-0.34027 -6.84614,14.44442 l 0,16.91246 22.16635,1.59474 c 24.75651,1.78108 38.81208,11.62172 34.94126,24.46321 -1.43213,4.75112 0.99328,9.09483 7.68905,13.77046 5.96872,4.16793 10.69463,11.79077 12.12488,19.55731 2.87103,15.59022 -3.15556,16.78034 -18.86285,3.72499 -9.50709,-7.90196 -11.63431,-8.42047 -17.40479,-4.2424 -3.61567,2.61789 -13.80183,7.08796 -22.63591,9.93347 -22.47442,7.23916 -23.63314,17.20096 -2.99638,25.76068 20.76457,8.61273 52.63146,34.54494 49.93684,40.63693 -3.12469,7.06425 -8.42588,5.91895 -22.76747,-4.91913 -11.70076,-8.84235 -34.74754,-20.83418 -40.04067,-20.83418 -1.18267,0 -2.15031,4.6822 -2.15031,10.40489 0,11.01245 -5.98082,23.53437 -11.24069,23.53437 -1.72768,0 -4.74651,-8.7818 -6.7085,-19.51508 l -3.56726,-19.51506 -21.51644,17.38913 c -22.369221,18.07831 -36.647477,24.46471 -41.00895,18.34231 z m 106.7319,-89.01604 c 7.98486,-6.92726 5.23694,-9.97854 -7.98773,-8.86953 -15.6043,1.30855 -20.98993,12.94224 -5.9914,12.94224 5.10655,0 11.39716,-1.83272 13.97913,-4.07271 z m 9.64106,-21.71352 c 6.18907,-5.36933 -2.96013,-11.54692 -17.10135,-11.54692 -12.62172,0 -15.22977,1.1624 -15.22977,6.78784 0,5.60736 2.60805,6.78785 14.9963,6.78785 8.24798,0 16.04864,-0.91295 17.33482,-2.02877 z"
       id="path3030"
       inkscape:connector-curvature="0" />
  </g>
</svg>
