<?xml version="1.0" encoding="UTF-8" standalone="no"?>
<!-- Created with Inkscape (http://www.inkscape.org/) -->

<svg
   xmlns:dc="http://purl.org/dc/elements/1.1/"
   xmlns:cc="http://creativecommons.org/ns#"
   xmlns:rdf="http://www.w3.org/1999/02/22-rdf-syntax-ns#"
   xmlns:svg="http://www.w3.org/2000/svg"
   xmlns="http://www.w3.org/2000/svg"
   xmlns:sodipodi="http://sodipodi.sourceforge.net/DTD/sodipodi-0.dtd"
   xmlns:inkscape="http://www.inkscape.org/namespaces/inkscape"
   width="300"
   height="300"
   id="svg2"
   version="1.1"
   inkscape:version="0.48.2 r9819"
   sodipodi:docname="Nouveau document 1">
  <defs
     id="defs4" />
  <sodipodi:namedview
     id="base"
     pagecolor="#ffffff"
     bordercolor="#666666"
     borderopacity="1.0"
     inkscape:pageopacity="0.0"
     inkscape:pageshadow="2"
     inkscape:zoom="1.979899"
     inkscape:cx="202.69582"
     inkscape:cy="124.97897"
     inkscape:document-units="px"
     inkscape:current-layer="layer1"
     showgrid="false"
     inkscape:window-width="1280"
     inkscape:window-height="999"
     inkscape:window-x="0"
     inkscape:window-y="24"
     inkscape:window-maximized="1" />
  <metadata
     id="metadata7">
    <rdf:RDF>
      <cc:Work
         rdf:about="">
        <dc:format>image/svg+xml</dc:format>
        <dc:type
           rdf:resource="http://purl.org/dc/dcmitype/StillImage" />
        <dc:title></dc:title>
      </cc:Work>
    </rdf:RDF>
  </metadata>
  <g
     inkscape:label="Calque 1"
     inkscape:groupmode="layer"
     id="layer1"
     transform="translate(0,-752.36218)">
    <path
       style="fill:#000000"
       d="m 245.98357,1022.2242 c -20.79679,-17.3779 -36.97817,-39.34041 -53.83515,-60.35738 -14.55006,-4.24975 -29.55821,1.08112 -44.26811,1.6975 -30.92558,3.77376 -62.141125,7.0336 -93.314626,5.47334 -6.091946,0.20846 -18.210458,-10.69263 -5.131284,-9.31911 25.007755,-2.9202 50.362632,-3.1936 75.10185,-8.0821 17.9881,-0.68758 36.07008,-2.14918 53.5685,-6.58639 -11.00199,-13.47139 -30.24295,-12.26613 -45.9774,-13.04378 -30.15547,-0.73914 -60.243485,1.87645 -90.351881,3.06315 -3.939584,-15.06388 11.694205,-14.54776 21.808621,-13.69827 32.069593,-0.69779 64.12575,-3.6749 96.19808,-3.05873 13.68517,1.27351 26.38096,8.20213 35.549,18.30252 13.57517,4.16535 22.38482,-15.48627 22.53959,-26.80313 -1.03027,-15.69205 -18.63133,-17.7253 -30.96225,-16.67237 -26.36809,0.68578 -52.61279,3.78566 -78.9163,5.62868 -17.421982,1.6835 -34.926328,3.55351 -52.426401,3.28698 -11.773073,-5.54301 3.342427,-16.05751 11.19199,-11.71016 22.639468,-1.26149 45.319921,-2.9039 67.660951,-6.93256 8.81088,-11.09372 1.04583,-26.0045 3.54455,-38.77577 2.96044,-13.6102 -10.96115,-20.44042 -20.52359,-10.92117 -21.710914,10.71816 -44.186272,21.16586 -61.773497,38.19371 -10.891617,6.68909 -18.656058,-9.7638 -6.695619,-14.23179 12.147157,-9.24382 23.893374,-19.23822 36.900735,-27.21698 15.510831,-8.12489 33.368401,-10.65511 48.481111,-19.64829 5.01242,-9.24092 4.12319,-30.84769 20.66741,-22.09286 7.09474,9.37198 3.7488,25.37371 18.64394,28.98304 12.61195,5.00903 23.58819,12.94562 36.08432,17.8199 14.7366,6.5372 27.87847,16.28555 41.47653,24.60316 6.76744,15.24456 -17.06053,12.92052 -22.96487,4.05228 -14.49587,-11.91704 -30.83966,-21.30173 -46.8423,-31.03013 -7.74746,-6.10545 -25.77675,-12.27208 -22.80006,4.52554 0.97792,15.50782 0.80102,31.05687 1.76346,46.60076 22.58391,-0.0575 45.95614,-3.43321 67.85502,3.6466 14.10522,5.35871 14.51301,21.98368 8.65574,33.58719 -4.72885,13.33354 -15.14409,24.20518 -27.57707,30.64833 -0.48413,8.8238 11.98616,14.85202 14.98302,23.67021 6.77977,7.46571 14.56991,15.7463 22.29303,23.21473 6.36708,8.39585 26.67101,14.25245 20.62803,26.80025 -6.5596,3.9619 -15.30014,-0.1912 -21.23507,-3.6169 z"
       id="path2996"
       inkscape:connector-curvature="0" />
  </g>
</svg>
