<?xml version="1.0" encoding="UTF-8" standalone="no"?>
<!-- Created with Inkscape (http://www.inkscape.org/) -->
<svg
   xmlns:dc="http://purl.org/dc/elements/1.1/"
   xmlns:cc="http://web.resource.org/cc/"
   xmlns:rdf="http://www.w3.org/1999/02/22-rdf-syntax-ns#"
   xmlns:svg="http://www.w3.org/2000/svg"
   xmlns="http://www.w3.org/2000/svg"
   xmlns:sodipodi="http://sodipodi.sourceforge.net/DTD/sodipodi-0.dtd"
   xmlns:inkscape="http://www.inkscape.org/namespaces/inkscape"
   width="300"
   height="300"
   id="svg2"
   sodipodi:version="0.32"
   inkscape:version="0.45.1"
   version="1.0"
   sodipodi:docbase="C:\Documents and Settings\Martin\桌面"
   sodipodi:docname="drawing.svg"
   inkscape:output_extension="org.inkscape.output.svg.inkscape">
  <defs
     id="defs4" />
  <sodipodi:namedview
     id="base"
     pagecolor="#ffffff"
     bordercolor="#666666"
     borderopacity="1.0"
     gridtolerance="10000"
     guidetolerance="10"
     objecttolerance="10"
     inkscape:pageopacity="0.0"
     inkscape:pageshadow="2"
     inkscape:zoom="0.70710678"
     inkscape:cx="59.634906"
     inkscape:cy="62.208557"
     inkscape:document-units="px"
     inkscape:current-layer="layer1"
     width="300px"
     height="300px"
     inkscape:window-width="742"
     inkscape:window-height="577"
     inkscape:window-x="22"
     inkscape:window-y="0" />
  <metadata
     id="metadata7">
    <rdf:RDF>
      <cc:Work
         rdf:about="">
        <dc:format>image/svg+xml</dc:format>
        <dc:type
           rdf:resource="http://purl.org/dc/dcmitype/StillImage" />
      </cc:Work>
    </rdf:RDF>
  </metadata>
  <g
     inkscape:label="Layer 1"
     inkscape:groupmode="layer"
     id="layer1">
    <path
       style="fill:#000000"
       d="M 209.22042,282.34534 C 205.80318,270.06068 204.54192,257.43257 201.55565,245.03083 C 199.26723,236.21734 197.37722,225.43512 197.35563,221.07047 C 197.31422,212.69069 190.95221,193.52312 188.21229,193.52312 C 187.32436,193.52312 181.62022,195.02121 175.53639,196.8521 C 162.88204,200.66055 108.1252,204.06522 96.028221,201.79576 C 89.792361,200.62595 87.695741,198.97212 86.851791,194.55742 C 86.250201,191.41025 86.392441,188.52218 87.167871,188.13948 C 87.943311,187.7567 97.849161,188.1836 109.18085,189.08815 C 141.71441,191.68499 183.58099,184.96987 183.58099,177.15486 C 183.58099,174.99742 180.27906,166.98113 176.24337,159.34073 L 168.90577,145.44918 C 152.82481,143.84843 143.5107,143.17132 126.92245,144.78866 C 120.94186,144.71637 109.09003,146.05551 100.58512,147.76467 C 85.990301,150.69757 84.933311,150.62331 81.771711,146.44369 C 79.929281,144.00817 78.389091,140.35602 78.349081,138.32801 C 78.254171,133.52129 92.635931,131.76006 132.19736,131.73374 C 161.48259,131.71423 162.29849,131.85143 172.90709,138.57926 C 178.86116,142.35509 185.86061,149.05119 188.46143,153.45916 C 191.06223,157.86727 193.58968,161.47381 194.07795,161.47381 C 197.00311,161.47381 201.89487,142.88911 201.89487,131.77586 C 201.89487,115.68751 198.37363,104.88707 192.52294,103.03014 C 187.13791,101.32103 162.97789,104.11403 162.97789,106.44576 C 162.97789,107.36713 160.93346,110.47819 158.43472,113.35925 C 154.67811,117.69064 153.29091,118.09907 150.4224,115.71849 C 148.51438,114.13492 146.95326,110.78577 146.95326,108.27587 C 146.95326,103.92048 145.6765,103.75065 118.94755,104.55007 C 93.119561,105.32251 90.877691,105.05718 90.117451,101.13833 C 89.664041,98.801181 90.304481,95.877551 91.540731,94.641381 C 92.776861,93.405161 106.00793,91.876751 120.94311,91.244921 C 135.87822,90.613041 148.32858,89.872101 148.61052,89.598451 C 148.89249,89.324721 149.70418,73.288281 150.41432,53.961951 C 151.12445,34.635611 152.24225,17.954541 152.89833,16.892991 C 154.84948,13.735961 162.1966,14.697021 165.37339,18.524861 C 167.17089,20.690671 168.12834,27.059131 167.81623,34.773491 L 167.30296,47.460221 L 185.97287,46.310371 C 201.08106,45.379831 205.47248,45.870921 208.9919,48.884371 C 211.38392,50.932471 213.34104,53.836591 213.34104,55.337911 C 213.34104,57.828881 208.95835,58.477061 172.13482,61.432791 C 166.77103,61.863391 166.36895,62.790391 165.73021,76.199911 L 165.04866,90.507601 L 176.03176,90.846551 C 182.07246,91.032961 188.56008,91.290501 190.44869,91.418841 C 197.01341,91.865001 210.52958,102.03405 213.23314,108.56103 C 217.48816,118.83354 213.71704,156.25067 206.36525,176.70437 C 203.27676,185.29693 202.68022,190.27104 204.16892,195.01823 C 209.52254,217.3244 223.92874,257.58669 221.34385,280.54398 C 219.73418,285.61563 213.4277,286.55272 209.22042,282.34534 z "
       id="path2189"
       sodipodi:nodetypes="ccsssssssscccssssssssssssssssssssscccssscccsssccc" />
  </g>
</svg>
