<?xml version="1.0" encoding="UTF-8" standalone="no"?>
<!-- Created with Inkscape (http://www.inkscape.org/) -->

<svg
   xmlns:dc="http://purl.org/dc/elements/1.1/"
   xmlns:cc="http://creativecommons.org/ns#"
   xmlns:rdf="http://www.w3.org/1999/02/22-rdf-syntax-ns#"
   xmlns:svg="http://www.w3.org/2000/svg"
   xmlns="http://www.w3.org/2000/svg"
   xmlns:sodipodi="http://sodipodi.sourceforge.net/DTD/sodipodi-0.dtd"
   xmlns:inkscape="http://www.inkscape.org/namespaces/inkscape"
   width="300"
   height="300"
   id="svg2"
   version="1.1"
   inkscape:version="0.47 r22583"
   sodipodi:docname="攴-bigseal.svg">
  <defs
     id="defs4">
    <inkscape:perspective
       sodipodi:type="inkscape:persp3d"
       inkscape:vp_x="0 : 526.18109 : 1"
       inkscape:vp_y="0 : 1000 : 0"
       inkscape:vp_z="744.09448 : 526.18109 : 1"
       inkscape:persp3d-origin="372.04724 : 350.78739 : 1"
       id="perspective10" />
    <inkscape:perspective
       id="perspective2824"
       inkscape:persp3d-origin="0.5 : 0.33333333 : 1"
       inkscape:vp_z="1 : 0.5 : 1"
       inkscape:vp_y="0 : 1000 : 0"
       inkscape:vp_x="0 : 0.5 : 1"
       sodipodi:type="inkscape:persp3d" />
    <inkscape:perspective
       id="perspective2861"
       inkscape:persp3d-origin="0.5 : 0.33333333 : 1"
       inkscape:vp_z="1 : 0.5 : 1"
       inkscape:vp_y="0 : 1000 : 0"
       inkscape:vp_x="0 : 0.5 : 1"
       sodipodi:type="inkscape:persp3d" />
    <inkscape:perspective
       id="perspective2900"
       inkscape:persp3d-origin="0.5 : 0.33333333 : 1"
       inkscape:vp_z="1 : 0.5 : 1"
       inkscape:vp_y="0 : 1000 : 0"
       inkscape:vp_x="0 : 0.5 : 1"
       sodipodi:type="inkscape:persp3d" />
    <inkscape:perspective
       id="perspective2940"
       inkscape:persp3d-origin="0.5 : 0.33333333 : 1"
       inkscape:vp_z="1 : 0.5 : 1"
       inkscape:vp_y="0 : 1000 : 0"
       inkscape:vp_x="0 : 0.5 : 1"
       sodipodi:type="inkscape:persp3d" />
    <inkscape:perspective
       id="perspective2979"
       inkscape:persp3d-origin="0.5 : 0.33333333 : 1"
       inkscape:vp_z="1 : 0.5 : 1"
       inkscape:vp_y="0 : 1000 : 0"
       inkscape:vp_x="0 : 0.5 : 1"
       sodipodi:type="inkscape:persp3d" />
    <inkscape:perspective
       id="perspective3016"
       inkscape:persp3d-origin="0.5 : 0.33333333 : 1"
       inkscape:vp_z="1 : 0.5 : 1"
       inkscape:vp_y="0 : 1000 : 0"
       inkscape:vp_x="0 : 0.5 : 1"
       sodipodi:type="inkscape:persp3d" />
    <inkscape:perspective
       id="perspective3054"
       inkscape:persp3d-origin="0.5 : 0.33333333 : 1"
       inkscape:vp_z="1 : 0.5 : 1"
       inkscape:vp_y="0 : 1000 : 0"
       inkscape:vp_x="0 : 0.5 : 1"
       sodipodi:type="inkscape:persp3d" />
    <inkscape:perspective
       id="perspective3091"
       inkscape:persp3d-origin="0.5 : 0.33333333 : 1"
       inkscape:vp_z="1 : 0.5 : 1"
       inkscape:vp_y="0 : 1000 : 0"
       inkscape:vp_x="0 : 0.5 : 1"
       sodipodi:type="inkscape:persp3d" />
    <inkscape:perspective
       id="perspective3131"
       inkscape:persp3d-origin="0.5 : 0.33333333 : 1"
       inkscape:vp_z="1 : 0.5 : 1"
       inkscape:vp_y="0 : 1000 : 0"
       inkscape:vp_x="0 : 0.5 : 1"
       sodipodi:type="inkscape:persp3d" />
  </defs>
  <sodipodi:namedview
     id="base"
     pagecolor="#ffffff"
     bordercolor="#666666"
     borderopacity="1.0"
     inkscape:pageopacity="0.0"
     inkscape:pageshadow="2"
     inkscape:zoom="1.4"
     inkscape:cx="94.084538"
     inkscape:cy="146.21162"
     inkscape:document-units="px"
     inkscape:current-layer="layer1"
     showgrid="false"
     inkscape:window-width="1280"
     inkscape:window-height="950"
     inkscape:window-x="0"
     inkscape:window-y="25"
     inkscape:window-maximized="1" />
  <metadata
     id="metadata7">
    <rdf:RDF>
      <cc:Work
         rdf:about="">
        <dc:format>image/svg+xml</dc:format>
        <dc:type
           rdf:resource="http://purl.org/dc/dcmitype/StillImage" />
        <dc:title></dc:title>
      </cc:Work>
    </rdf:RDF>
  </metadata>
  <g
     inkscape:label="Calque 1"
     inkscape:groupmode="layer"
     id="layer1"
     transform="translate(0,-752.36218)">
    <path
       style="fill:#000000"
       d="m 174.80764,1026.871 c -3.62931,-55.17608 0.4307,-110.4597 1.21697,-165.66471 1.01674,-30.2072 2.48861,-60.41153 5.23639,-90.50654 10.21905,-10.98721 24.40589,3.16265 24.95673,15.12395 -1.48154,16.42302 -2.05638,33.21993 -3.63067,49.7928 -2.21136,10.30118 -1.77789,21.51665 11.40505,20.0906 12.29138,-0.18401 24.28665,3.38879 34.31387,10.87469 8.88881,6.33503 17.99299,14.27301 21.69031,25.04645 -1.78496,18.91613 -25.00786,2.36831 -34.06279,-2.28456 -10.07798,-4.76667 -23.16043,-16.18865 -32.01333,-15.57637 -5.47004,41.26509 -1.84202,83.05467 -4.70855,124.5101 -0.84735,10.08629 -1.0496,20.63589 -4.39909,30.17089 -4.44939,7.5738 -18.24241,9.1787 -20.00489,-1.5773 z m -133.538388,-1.6904 c 1.036238,-18.3048 22.957948,-26.84397 21.825552,-45.94556 1.725343,-19.99081 2.520808,-40.10949 5.835666,-59.91045 -1.430245,-17.48631 -24.534746,-14.34106 -33.355888,-25.88633 -11.106677,-13.03278 6.809793,-22.66619 17.306739,-14.69878 9.827421,4.68855 31.37645,5.63385 26.75818,-11.20231 -8.470437,-14.07548 -26.016828,-17.64163 -35.916292,-30.60334 -7.855686,-6.90328 -22.894399,-17.51745 -14.191944,-29.41907 15.790331,-7.24786 27.952557,11.77539 40.371538,19.00732 18.415596,5.57702 14.04434,-20.13533 15.482313,-31.27566 -1.388837,-12.81435 13.440387,-37.83403 24.362154,-19.82661 4.45691,14.1303 -4.63026,28.19782 -3.06571,42.2768 4.79612,17.66944 21.52728,6.07329 30.20704,-0.95448 8.99442,-9.01965 20.02866,1.00776 7.81542,8.61278 -13.00671,13.92374 -32.33783,20.44688 -43.02128,36.8 -6.269084,14.35452 11.95735,22.91746 21.28376,13.02343 7.45357,-2.78969 25.21715,-16.85314 27.51117,-3.51027 -8.50185,14.07132 -23.79317,20.90002 -36.02595,30.70653 -16.387088,7.05757 -20.522354,24.59433 -18.502629,41.16046 -1.454121,27.165 -4.605002,59.01234 -27.488782,76.30974 -6.794478,5.3477 -20.944064,18.2139 -27.191057,5.3358 z"
       id="path3137" />
  </g>
</svg>
