<?xml version="1.0" encoding="UTF-8" standalone="no"?>
<!-- Created with Inkscape (http://www.inkscape.org/) -->

<svg
   xmlns:dc="http://purl.org/dc/elements/1.1/"
   xmlns:cc="http://creativecommons.org/ns#"
   xmlns:rdf="http://www.w3.org/1999/02/22-rdf-syntax-ns#"
   xmlns:svg="http://www.w3.org/2000/svg"
   xmlns="http://www.w3.org/2000/svg"
   xmlns:sodipodi="http://sodipodi.sourceforge.net/DTD/sodipodi-0.dtd"
   xmlns:inkscape="http://www.inkscape.org/namespaces/inkscape"
   width="300"
   height="300"
   id="svg2"
   version="1.1"
   inkscape:version="0.47 r22583"
   sodipodi:docname="攴-oracle.svg">
  <defs
     id="defs4">
    <inkscape:perspective
       sodipodi:type="inkscape:persp3d"
       inkscape:vp_x="0 : 526.18109 : 1"
       inkscape:vp_y="0 : 1000 : 0"
       inkscape:vp_z="744.09448 : 526.18109 : 1"
       inkscape:persp3d-origin="372.04724 : 350.78739 : 1"
       id="perspective10" />
    <inkscape:perspective
       id="perspective2824"
       inkscape:persp3d-origin="0.5 : 0.33333333 : 1"
       inkscape:vp_z="1 : 0.5 : 1"
       inkscape:vp_y="0 : 1000 : 0"
       inkscape:vp_x="0 : 0.5 : 1"
       sodipodi:type="inkscape:persp3d" />
    <inkscape:perspective
       id="perspective2861"
       inkscape:persp3d-origin="0.5 : 0.33333333 : 1"
       inkscape:vp_z="1 : 0.5 : 1"
       inkscape:vp_y="0 : 1000 : 0"
       inkscape:vp_x="0 : 0.5 : 1"
       sodipodi:type="inkscape:persp3d" />
    <inkscape:perspective
       id="perspective2900"
       inkscape:persp3d-origin="0.5 : 0.33333333 : 1"
       inkscape:vp_z="1 : 0.5 : 1"
       inkscape:vp_y="0 : 1000 : 0"
       inkscape:vp_x="0 : 0.5 : 1"
       sodipodi:type="inkscape:persp3d" />
    <inkscape:perspective
       id="perspective2940"
       inkscape:persp3d-origin="0.5 : 0.33333333 : 1"
       inkscape:vp_z="1 : 0.5 : 1"
       inkscape:vp_y="0 : 1000 : 0"
       inkscape:vp_x="0 : 0.5 : 1"
       sodipodi:type="inkscape:persp3d" />
    <inkscape:perspective
       id="perspective2979"
       inkscape:persp3d-origin="0.5 : 0.33333333 : 1"
       inkscape:vp_z="1 : 0.5 : 1"
       inkscape:vp_y="0 : 1000 : 0"
       inkscape:vp_x="0 : 0.5 : 1"
       sodipodi:type="inkscape:persp3d" />
    <inkscape:perspective
       id="perspective3016"
       inkscape:persp3d-origin="0.5 : 0.33333333 : 1"
       inkscape:vp_z="1 : 0.5 : 1"
       inkscape:vp_y="0 : 1000 : 0"
       inkscape:vp_x="0 : 0.5 : 1"
       sodipodi:type="inkscape:persp3d" />
    <inkscape:perspective
       id="perspective3054"
       inkscape:persp3d-origin="0.5 : 0.33333333 : 1"
       inkscape:vp_z="1 : 0.5 : 1"
       inkscape:vp_y="0 : 1000 : 0"
       inkscape:vp_x="0 : 0.5 : 1"
       sodipodi:type="inkscape:persp3d" />
    <inkscape:perspective
       id="perspective3091"
       inkscape:persp3d-origin="0.5 : 0.33333333 : 1"
       inkscape:vp_z="1 : 0.5 : 1"
       inkscape:vp_y="0 : 1000 : 0"
       inkscape:vp_x="0 : 0.5 : 1"
       sodipodi:type="inkscape:persp3d" />
  </defs>
  <sodipodi:namedview
     id="base"
     pagecolor="#ffffff"
     bordercolor="#666666"
     borderopacity="1.0"
     inkscape:pageopacity="0.0"
     inkscape:pageshadow="2"
     inkscape:zoom="1.4"
     inkscape:cx="94.084538"
     inkscape:cy="146.21162"
     inkscape:document-units="px"
     inkscape:current-layer="layer1"
     showgrid="false"
     inkscape:window-width="1280"
     inkscape:window-height="950"
     inkscape:window-x="0"
     inkscape:window-y="25"
     inkscape:window-maximized="1" />
  <metadata
     id="metadata7">
    <rdf:RDF>
      <cc:Work
         rdf:about="">
        <dc:format>image/svg+xml</dc:format>
        <dc:type
           rdf:resource="http://purl.org/dc/dcmitype/StillImage" />
        <dc:title></dc:title>
      </cc:Work>
    </rdf:RDF>
  </metadata>
  <g
     inkscape:label="Calque 1"
     inkscape:groupmode="layer"
     id="layer1"
     transform="translate(0,-752.36218)">
    <path
       style="fill:#000000"
       d="m 209.04107,1036.703 c -6.90183,-26.5218 -4.76622,-54.26106 -12.8622,-80.59165 -8.21948,-11.63955 -25.26968,-7.06446 -37.88997,-6.12707 -31.06673,0.85492 -66.332195,-13.67358 -75.566952,-41.81795 -1.989944,-17.19734 28.715662,-21.24521 32.930602,-4.56173 14.254,13.5439 35.2069,19.89648 55.28883,22.69871 18.43245,-4.95842 -2.69215,-20.50554 -11.24057,-25.0269 -18.05104,-11.19286 -39.91151,-16.79079 -56.87186,-29.47878 -5.815106,-14.67884 22.26206,-7.75901 30.42061,-3.93117 25.39534,7.63156 47.3256,22.07128 66.81015,37.95471 20.03261,5.83781 17.20479,-22.55018 3.15874,-27.47302 -11.66858,-10.39332 -27.50351,-15.76117 -40.17676,-24.99865 -5.18552,-16.85956 22.898,-10.9009 32.04682,-5.34391 20.99682,9.13512 40.69347,25.87275 43.96096,47.21967 2.85359,14.93772 -11.26951,26.02562 -12.39716,40.05977 -0.57704,17.15341 6.68076,33.51449 8.61742,50.46533 2.85339,16.27114 5.08956,34.19344 -3.6398,49.36924 -5.03978,5.9971 -17.26037,8.8913 -22.58886,1.5834 z M 30.707039,843.23906 c 15.516176,-17.35584 37.549085,-28.68522 57.201988,-41.89679 20.228063,-12.23996 41.285013,-23.34513 62.313853,-34.45489 40.41102,9.95024 80.65743,23.5485 113.66313,47.04951 12.02199,4.37265 9.29096,18.73492 -4.50862,15.6942 -21.29952,-5.26277 -40.34339,-15.92837 -60.80406,-23.25126 -13.85652,-3.44993 -27.66556,-14.99627 -41.70474,-12.77742 -31.68787,10.94002 -63.433402,22.94395 -90.527219,41.49045 -10.173776,4.78372 -24.282033,16.84619 -35.634332,8.1462 z"
       id="path3097" />
  </g>
</svg>
