<?xml version="1.0" encoding="UTF-8" standalone="no"?>
<!-- Created with Inkscape (http://www.inkscape.org/) -->
<svg
   xmlns:dc="http://purl.org/dc/elements/1.1/"
   xmlns:cc="http://web.resource.org/cc/"
   xmlns:rdf="http://www.w3.org/1999/02/22-rdf-syntax-ns#"
   xmlns:svg="http://www.w3.org/2000/svg"
   xmlns="http://www.w3.org/2000/svg"
   xmlns:sodipodi="http://sodipodi.sourceforge.net/DTD/sodipodi-0.dtd"
   xmlns:inkscape="http://www.inkscape.org/namespaces/inkscape"
   id="svg2"
   sodipodi:version="0.32"
   inkscape:version="0.45.1"
   width="300"
   height="300"
   version="1.0"
   sodipodi:docbase="/home/lyhana8/Desktop"
   sodipodi:docname="b13862交-bronze.svg"
   inkscape:output_extension="org.inkscape.output.svg.inkscape">
  <metadata
     id="metadata7">
    <rdf:RDF>
      <cc:Work
         rdf:about="">
        <dc:format>image/svg+xml</dc:format>
        <dc:type
           rdf:resource="http://purl.org/dc/dcmitype/StillImage" />
      </cc:Work>
    </rdf:RDF>
  </metadata>
  <defs
     id="defs5" />
  <sodipodi:namedview
     inkscape:window-height="783"
     inkscape:window-width="1280"
     inkscape:pageshadow="2"
     inkscape:pageopacity="0.0"
     guidetolerance="10.0"
     gridtolerance="10.0"
     objecttolerance="10.0"
     borderopacity="1.0"
     bordercolor="#666666"
     pagecolor="#ffffff"
     id="base"
     width="300px"
     height="300px"
     inkscape:zoom="1.9566667"
     inkscape:cx="150"
     inkscape:cy="139.22609"
     inkscape:window-x="0"
     inkscape:window-y="17"
     inkscape:current-layer="svg2" />
  <g
     id="g5126"
     style="fill:#000000;fill-opacity:1"
     transform="matrix(0.910702,0,0,0.910702,14.478484,-1.4628726)">
    <g
       style="fill:#000000;fill-opacity:1"
       transform="translate(5.8773403,20.698464)"
       inkscape:label="Layer 1"
       id="layer1">
      <path
         style="fill:#000000;fill-opacity:1"
         d="M 119.17781,280.02803 C 119.0064,248.81604 125.92632,213.44093 137.84916,187.10415 C 129.31684,169.57263 103.35158,151.53349 96.302263,148.30016 C 66.084598,179.71951 44.918131,186.61537 58.385341,168.7964 C 135.48194,66.786985 130.33462,67.605338 134.89031,17.434548 C 137.14877,-7.4374387 154.75147,-13.169981 156.12885,18.651696 C 159.17057,88.925013 191.70009,101.54671 228.87023,151.80838 C 241.05878,168.2898 211.20615,146.65213 198.33331,136.15665 C 181.88314,146.31722 168.8077,168.96808 159.25779,183.83892 C 165.75995,194.93308 198.10495,240.21468 202.26388,265.87789 C 212.75084,330.58909 186.42634,244.94966 152.20933,203.65446 C 142.42021,226.57581 118.33115,330.93135 119.17781,280.02803 z M 185.77843,123.86145 C 168.66424,107.18702 163.54556,101.12397 145.55819,77.444551 C 132.78936,101.02506 118.09681,120.59941 105.21717,135.60707 C 122.25916,143.55612 133.22275,153.42672 146.96124,170.42809 C 161.27956,147.33269 167.56167,143.03468 185.77843,123.86145 z "
         id="path2186"
         sodipodi:nodetypes="cccssssccsccccccc" />
    </g>
    <path
       id="path3182"
       d="M 136.44455,126.6411 C 126.58395,135.04547 126.09705,152.38603 136.50137,160.50956 C 134.9695,169.35971 141.14644,179.37901 150.70794,179.34747 C 162.38308,180.17572 171.43281,168.33439 169.68792,157.21363 C 178.48402,148.42135 176.19396,129.64944 163.12448,126.35697 C 158.7361,126.64332 160.86535,131.98434 163.04769,133.77998 C 165.64277,137.76231 167.60568,143.01039 165.39754,147.55317 C 163.47907,143.65788 156.64372,144.5599 157.66916,149.45685 C 159.03377,153.93885 162.81374,158.73105 159.65808,163.49294 C 157.21311,167.87714 149.15414,171.28378 145.73564,166.4479 C 143.15167,161.15006 145.76421,155.41361 147.5825,150.42289 C 147.68445,146.00052 141.42469,146.7877 140.25191,150.16718 C 138.98288,151.76568 137.65597,146.90826 137.43901,145.62107 C 136.07114,139.52068 140.34872,134.35871 140.70652,128.57319 C 140.417,126.71792 137.86282,125.34773 136.44455,126.6411 z "
       style="fill:#000000;fill-opacity:1" />
    <path
       inkscape:transform-center-y="3.3732372"
       inkscape:transform-center-x="-6.4199259"
       id="path1875"
       d="M 148.15226,153.37911 C 145.55966,150.8472 143.73131,134.75298 145.8704,133.2929 C 147.05981,132.48103 155.11484,139.9941 157.20777,143.86747 C 159.93377,148.91247 152.0538,157.18934 148.15226,153.37911 z "
       style="fill:#000000;fill-opacity:1" />
  </g>
</svg>
