<?xml version="1.0" encoding="UTF-8" standalone="no"?>
<!-- Created with Inkscape (http://www.inkscape.org/) -->
<svg
   xmlns:dc="http://purl.org/dc/elements/1.1/"
   xmlns:cc="http://web.resource.org/cc/"
   xmlns:rdf="http://www.w3.org/1999/02/22-rdf-syntax-ns#"
   xmlns:svg="http://www.w3.org/2000/svg"
   xmlns="http://www.w3.org/2000/svg"
   xmlns:sodipodi="http://sodipodi.sourceforge.net/DTD/sodipodi-0.dtd"
   xmlns:inkscape="http://www.inkscape.org/namespaces/inkscape"
   width="300"
   height="300"
   id="svg2"
   sodipodi:version="0.32"
   inkscape:version="0.45.1"
   version="1.0"
   sodipodi:docbase="C:\Documents and Settings\Martin\桌面"
   sodipodi:docname="drawing.svg"
   inkscape:output_extension="org.inkscape.output.svg.inkscape">
  <defs
     id="defs4" />
  <sodipodi:namedview
     id="base"
     pagecolor="#ffffff"
     bordercolor="#666666"
     borderopacity="1.0"
     gridtolerance="10000"
     guidetolerance="10"
     objecttolerance="10"
     inkscape:pageopacity="0.0"
     inkscape:pageshadow="2"
     inkscape:zoom="1"
     inkscape:cx="148.40455"
     inkscape:cy="143.79939"
     inkscape:document-units="px"
     inkscape:current-layer="layer1"
     width="300px"
     height="300px"
     inkscape:window-width="742"
     inkscape:window-height="577"
     inkscape:window-x="44"
     inkscape:window-y="0" />
  <metadata
     id="metadata7">
    <rdf:RDF>
      <cc:Work
         rdf:about="">
        <dc:format>image/svg+xml</dc:format>
        <dc:type
           rdf:resource="http://purl.org/dc/dcmitype/StillImage" />
      </cc:Work>
    </rdf:RDF>
  </metadata>
  <g
     inkscape:label="Layer 1"
     inkscape:groupmode="layer"
     id="layer1">
    <path
       style="fill:#000000"
       d="M 244.22566,277.22697 C 236.85667,273.22839 230.25248,269.19026 229.54968,268.25331 C 228.84692,267.31636 223.86915,263.26394 218.48788,259.24791 C 213.10665,255.23188 199.40544,242.85529 188.04046,231.74437 C 176.67546,220.6335 166.5443,211.5427 165.52626,211.5427 C 164.50812,211.5427 160.97843,214.01932 157.68187,217.04626 C 154.38574,220.07315 150.20804,223.74617 148.39835,225.20858 C 146.58866,226.671 138.58569,235.20137 130.614,244.16505 C 122.6423,253.12872 114.10256,260.46262 111.63679,260.46262 C 107.76388,260.46262 107.57003,259.79584 110.21277,255.56414 C 111.89533,252.8699 122.88993,240.48703 134.64521,228.04666 C 146.40048,215.60628 156.0401,204.12917 156.06658,202.54214 C 156.10919,200.00635 130.96281,148.88506 128.42432,146.34686 C 127.88577,145.80819 120.96264,148.61454 113.03959,152.58315 C 91.146191,163.54932 77.942938,169.07372 63.334636,173.38142 C 49.007199,177.60608 33.815123,178.56549 33.815123,175.24533 C 39.250692,167.34932 49.911609,168.94029 57.696785,165.18436 C 60.032802,163.90237 69.07936,160.43784 77.800236,157.48493 C 86.521118,154.5325 96.977756,150.26989 101.03721,148.01338 C 105.09666,145.75686 115.57258,140.16688 124.31701,135.59135 C 133.06146,131.01579 140.76635,126.69413 141.43899,125.98712 C 142.11164,125.28037 145.89873,123.05264 149.85476,121.03679 C 176.64853,101.19426 213.07166,70.489424 200.16975,33.596419 C 195.11477,25.305815 191.81612,24.391963 170.12922,25.274475 C 153.54303,25.949425 123.82725,35.475198 101.0952,47.404308 C 88.830467,53.84048 73.903378,60.817562 67.92389,62.908934 C 61.944403,65.000307 55.125873,67.495968 52.771601,68.454849 C 49.601963,69.745818 48.498603,69.019495 48.51999,65.656078 C 48.54152,62.270688 56.484057,57.256384 79.706454,45.967354 C 134.30759,19.424277 146.21926,15.374917 170.74353,15.019453 C 192.63616,14.70212 202.05824,18.328828 210.18008,30.199182 C 217.98712,41.609447 217.64765,63.653262 209.4849,75.330153 C 200.30933,88.456038 158.51494,128.30309 148.63759,133.342 C 143.51561,135.95502 138.77633,138.98053 138.10584,140.06522 C 135.64105,144.05337 162.08749,191.9748 166.75356,191.9748 C 168.45513,191.9748 176.23572,185.37063 184.04344,177.29859 C 191.85116,169.22695 199.19049,162.62276 200.35293,162.62276 C 204.35549,162.62276 199.56379,178.52749 194.45751,182.19085 C 191.64472,184.20876 185.53492,189.65814 180.88015,194.30054 L 172.4172,202.74154 L 203.9729,232.90971 C 221.32848,249.5022 242.42623,267.57194 250.85671,273.06454 C 259.28715,278.55726 266.18488,283.47227 266.18488,283.98696 C 266.18488,286.75668 256.023,283.62846 244.22566,277.22697 z "
       id="path2185"
       sodipodi:nodetypes="cssssssssssssssccssssccssssssssssssssscccssc" />
  </g>
</svg>
