<?xml version="1.0" encoding="UTF-8" standalone="no"?>
<!-- Created with Inkscape (http://www.inkscape.org/) -->
<svg
   xmlns:dc="http://purl.org/dc/elements/1.1/"
   xmlns:cc="http://web.resource.org/cc/"
   xmlns:rdf="http://www.w3.org/1999/02/22-rdf-syntax-ns#"
   xmlns:svg="http://www.w3.org/2000/svg"
   xmlns="http://www.w3.org/2000/svg"
   xmlns:sodipodi="http://sodipodi.sourceforge.net/DTD/sodipodi-0.dtd"
   xmlns:inkscape="http://www.inkscape.org/namespaces/inkscape"
   width="300"
   height="300"
   id="svg2"
   sodipodi:version="0.32"
   inkscape:version="0.45.1"
   version="1.0"
   sodipodi:docbase="C:\Documents and Settings\Martin\桌面"
   sodipodi:docname="drawing.svg"
   inkscape:output_extension="org.inkscape.output.svg.inkscape">
  <defs
     id="defs4" />
  <sodipodi:namedview
     id="base"
     pagecolor="#ffffff"
     bordercolor="#666666"
     borderopacity="1.0"
     gridtolerance="10000"
     guidetolerance="10"
     objecttolerance="10"
     inkscape:pageopacity="0.0"
     inkscape:pageshadow="2"
     inkscape:zoom="1"
     inkscape:cx="74.879794"
     inkscape:cy="143.79939"
     inkscape:document-units="px"
     inkscape:current-layer="layer1"
     width="300px"
     height="300px"
     inkscape:window-width="742"
     inkscape:window-height="577"
     inkscape:window-x="22"
     inkscape:window-y="0" />
  <metadata
     id="metadata7">
    <rdf:RDF>
      <cc:Work
         rdf:about="">
        <dc:format>image/svg+xml</dc:format>
        <dc:type
           rdf:resource="http://purl.org/dc/dcmitype/StillImage" />
      </cc:Work>
    </rdf:RDF>
  </metadata>
  <g
     inkscape:label="Layer 1"
     inkscape:groupmode="layer"
     id="layer1">
    <path
       style="fill:#000000"
       d="M 175.67961,131.17181 C 167.68455,134.05523 163.35958,138.58964 164.13517,146.68223 C 164.70705,152.6491 166.00684,154.44623 170.17796,155.037 C 173.10075,155.45093 181.43034,159.26989 188.68811,163.52361 C 198.93432,169.52872 202.96365,173.55418 206.7135,181.53167 C 217.27763,205.0847 224.63213,256.9326 217.48127,281.22894 C 213.87402,285.98093 212.85565,286.12364 209.69857,282.3196 C 208.37756,280.72786 206.7831,270.22504 206.15536,258.98005 C 204.73516,233.53909 202.95324,217.28161 199.72212,200.28563 C 197.59789,189.11213 195.77702,185.84901 187.86911,179.04442 C 182.73039,174.62261 175.32654,169.6551 171.41615,168.00549 C 161.6948,163.90457 152.34005,155.4189 152.34005,150.70183 C 152.34005,142.1276 143.48825,144.27365 130.84813,155.91249 C 118.8349,162.92704 108.79026,172.05389 99.005408,182.17801 C 88.71391,193.28717 79.474993,195.38273 79.474993,186.60782 C 79.474993,179.08491 107.95019,151.97639 115.774,149.31568 C 116.51772,149.06271 117.12972,148.17927 126.04468,143.10379 C 137.49249,137.67141 148.08985,128.14718 146.13864,125.04462 C 145.22588,123.59334 144.24896,118.95547 143.96769,114.73823 C 143.68642,110.52103 142.96083,106.57509 142.35527,105.96953 C 140.62659,104.24082 123.25679,114.44479 105.72984,127.48526 C 96.925328,134.03605 88.440808,139.41552 86.87535,139.4397 C 76.074335,133.69216 98.391066,115.07183 103.17683,111.02072 C 109.80503,104.60693 119.09292,102.88401 127.29268,98.980529 L 139.81636,92.804469 L 140.49428,78.573029 C 141.03709,67.177709 140.49579,64.341559 137.77814,64.341559 C 132.90073,64.341559 118.95556,72.700829 104.83002,84.091819 C 98.111219,89.510019 91.674907,93.942999 90.527103,93.942999 C 86.485168,93.942999 85.79709,86.894439 89.445478,82.862939 C 105.53418,60.893629 139.09667,50.133459 164.26012,40.599679 C 180.72821,35.137069 185.50134,32.602409 186.01493,29.047529 C 187.9931,15.354739 188.81491,13.955389 193.97176,15.498489 C 200.44695,17.436079 206.87321,25.407849 206.93823,31.583349 C 206.99878,37.341909 196.80535,48.135649 190.12374,49.388039 C 187.50201,49.879499 179.59615,51.527999 172.55511,53.051319 L 159.75317,55.821139 L 159.45092,69.189489 C 159.17344,81.465989 162.66741,84.483339 169.61742,82.477259 C 184.13631,78.286529 191.4461,77.649749 196.79039,59.502289 C 198.6663,48.398619 200.95006,46.999049 206.85308,53.335279 C 210.11611,56.837669 211.54294,61.419829 211.54294,68.396549 C 211.54294,74.976069 213.10877,80.414659 216.09693,84.213509 C 221.20657,90.709359 222.08424,104.50406 217.73236,109.91659 C 214.16926,118.01973 183.86194,126.96988 179.38988,129.55185 M 182.94537,112.09384 C 193.66452,107.04833 202.54933,101.66886 202.68929,100.13941 C 202.82929,98.609929 203.32921,94.028359 203.8002,89.958189 C 204.76792,81.595319 203.69624,81.233179 191.66492,85.857449 C 186.94325,87.672249 178.60738,90.305169 173.14086,91.708339 C 167.67431,93.111489 160.75634,96.704909 157.76753,99.693689 C 152.40571,105.05545 152.38645,105.23465 156.3215,113.14162 C 158.51502,117.54919 161.01756,121.18054 161.88276,121.21136 C 162.74805,121.24215 172.22615,117.1393 182.94537,112.09384 z "
       id="path2201"
       sodipodi:nodetypes="cssscccsssssccsscsssscccccsssccsssscccscssscscsssssssc" />
  </g>
</svg>
