<?xml version="1.0" standalone="no"?>
<!DOCTYPE svg PUBLIC "-//W3C//DTD SVG 20010904//EN"
 "http://www.w3.org/TR/2001/REC-SVG-20010904/DTD/svg10.dtd">
<svg version="1.0" xmlns="http://www.w3.org/2000/svg"
 width="468pt" height="468pt" viewBox="0 0 468 468"
 preserveAspectRatio="xMidYMid meet">
<metadata>
Created by potrace 1.8, written by Peter Selinger 2001-2007
</metadata>
<g transform="translate(0,468) scale(0.563855,-0.563855)"
fill="#000000" stroke="none">
<path d="M420 715 c-137 -18 -160 -24 -160 -46 0 -14 10 -20 49 -25 59 -8 63
-10 79 -55 24 -71 23 -72 -74 -66 -48 3 -90 10 -94 16 -3 7 -23 14 -43 18
l-37 6 0 -54 c0 -72 9 -101 29 -97 9 2 22 16 29 31 l14 28 101 -2 c56 -1 108
-6 115 -12 6 -5 12 -25 12 -43 0 -52 -37 -105 -81 -119 -11 -4 -19 -11 -19
-16 0 -5 -7 -9 -16 -9 -20 0 -115 -41 -131 -56 -33 -32 30 -31 122 2 39 13 78
27 88 31 9 3 17 9 17 13 0 12 28 20 45 14 25 -10 19 -72 -11 -111 -14 -18 -32
-33 -40 -33 -7 0 -14 -4 -14 -8 0 -4 -21 -13 -47 -20 -55 -15 -96 -36 -101
-51 -5 -16 64 -24 105 -11 103 31 161 81 186 160 7 22 -11 128 -28 173 -8 20
-15 51 -15 67 0 28 3 30 38 31 20 0 47 2 60 3 14 2 35 -8 54 -26 48 -45 56
-39 63 49 5 71 -10 108 -45 108 -20 0 -26 -6 -28 -27 -4 -31 -13 -35 -92 -44
-76 -8 -90 2 -90 66 l0 47 45 6 c67 10 115 33 115 55 0 17 -7 20 -52 19 -29 0
-96 -5 -148 -12z"/>
</g>
</svg>
