<?xml version="1.0" encoding="UTF-8" standalone="no"?>
<!-- Created with Inkscape (http://www.inkscape.org/) -->

<svg
   xmlns:dc="http://purl.org/dc/elements/1.1/"
   xmlns:cc="http://creativecommons.org/ns#"
   xmlns:rdf="http://www.w3.org/1999/02/22-rdf-syntax-ns#"
   xmlns:svg="http://www.w3.org/2000/svg"
   xmlns="http://www.w3.org/2000/svg"
   version="1.0"
   width="300"
   height="300"
   viewBox="0 0 240 240"
   id="svg2">
  <defs
     id="defs12" />
  <metadata
     id="metadata4">
Created by potrace 1.8, written by Peter Selinger 2001-2007
<rdf:RDF>
  <cc:Work
     rdf:about="">
    <dc:format>image/svg+xml</dc:format>
    <dc:type
       rdf:resource="http://purl.org/dc/dcmitype/StillImage" />
    <dc:title></dc:title>
  </cc:Work>
</rdf:RDF>
</metadata>
  <g
     transform="matrix(0.17710189,0,0,-0.17710189,1.6639453,231.60635)"
     id="g6"
     style="fill:#000000;stroke:none">
    <path
       d="M 624,1216 C 621,1202 621,1186 625,1180 640,1156 616,1128 562,1104 530,1090 497,1074 488,1069 448,1049 433,1041 383,1020 329,996 310,973 335,964 343,960 361,961 374,964 388,967 401,966 405,961 413,947 369,920 338,920 322,920 310,916 310,912 310,895 336,880 366,880 395,880 398,876 405,844 408,824 420,792 430,772 444,745 448,720 446,682 444,653 440,626 437,623 423,609 410,636 410,680 410,706 407,735 404,744 395,767 370,764 369,740 366,681 367,662 373,629 377,609 391,583 405,570 433,544 438,512 415,504 396,496 354,425 346,385 331,313 322,115 333,102 355,75 370,119 370,209 371,297 390,404 409,423 421,435 425,364 421,215 418,119 425,60 440,60 459,60 469,154 470,338 470,436 478,461 499,423 508,405 515,342 526,190 533,80 535,74 556,91 571,103 572,123 567,242 560,391 551,425 499,490 L 467,529 500,560 C 518,576 536,590 541,590 546,590 550,569 550,543 550,480 569,431 605,398 L 635,371 637,223 C 638,142 639,63 639,48 640,12 667,11 680,46 690,72 685,336 673,374 670,385 655,408 639,424 603,462 603,483 636,509 659,527 690,528 690,510 690,506 701,491 715,476 739,450 740,447 732,347 723,233 727,70 740,56 764,32 770,68 770,224 770,371 772,389 789,404 804,418 810,419 816,408 821,401 826,321 827,230 830,47 832,31 855,50 867,60 870,95 870,242 870,406 871,421 887,418 915,413 928,345 930,210 931,88 940,50 967,50 983,50 990,129 980,210 974,251 968,317 964,355 958,422 956,427 913,467 864,513 865,520 921,548 969,573 982,729 937,738 923,741 920,733 918,698 918,674 916,651 915,645 913,640 912,627 911,618 910,607 902,600 890,600 872,600 870,607 870,672 870,738 872,746 896,765 915,780 923,798 927,833 L 933,880 976,880 C 999,880 1021,883 1024,888 1033,902 1001,932 968,939 945,944 934,952 930,970 922,1004 896,1002 892,968 888,930 860,932 838,970 814,1011 774,1012 765,971 759,941 735,928 700,937 682,942 680,951 680,1011 680,1063 684,1082 695,1086 715,1094 820,1060 842,1038 852,1028 860,1025 860,1030 860,1036 871,1040 885,1040 899,1040 910,1036 910,1031 910,1019 958,985 985,977 1011,969 1032,982 1025,1002 1017,1022 957,1054 898,1070 871,1077 850,1087 850,1092 850,1097 846,1099 842,1096 837,1093 799,1103 757,1117 687,1140 680,1145 680,1169 680,1197 655,1240 640,1240 635,1240 628,1229 624,1216 z M 630,1000 C 630,939 621,926 582,937 570,940 560,953 556,971 549,1008 522,1009 518,973 516,950 510,944 483,942 455,939 450,942 450,959 450,971 450,983 449,987 448,996 566,1058 594,1062 627,1068 630,1063 630,1000 z M 829,953 C 839,934 838,931 825,936 817,940 810,951 810,963 810,986 812,985 829,953 z M 630,828 C 630,778 626,762 608,743 581,714 573,714 550,743 525,773 516,760 510,682 506,631 501,615 490,615 479,615 476,626 477,660 482,750 489,768 520,779 538,785 550,796 551,807 554,874 564,890 608,890 628,890 630,886 630,828 z M 754,884 C 764,880 770,866 770,843 770,805 784,773 812,749 826,736 830,718 830,667 830,631 826,598 820,595 815,592 810,595 809,602 809,609 806,624 804,635 802,646 797,679 793,708 787,761 770,776 752,745 732,707 680,779 680,845 680,885 710,901 754,884 z M 890,861 C 890,816 854,787 824,808 811,816 798,875 807,884 811,887 831,890 852,890 887,890 890,888 890,861 z M 510,866 C 510,836 497,820 474,820 454,820 450,825 450,850 450,877 453,880 480,880 499,880 510,875 510,866 z M 712,695 C 743,664 752,646 766,580 767,572 783,553 799,538 827,513 833,480 810,480 805,480 795,477 786,474 776,470 770,473 770,482 770,490 753,512 732,532 699,563 693,575 692,615 690,669 685,680 664,680 654,680 650,666 650,623 650,571 647,564 625,553 597,541 580,554 599,573 617,591 612,618 590,625 567,632 566,639 583,660 600,681 660,730 669,730 672,730 692,714 712,695 z"
       id="path8" />
  </g>
</svg>
