<?xml version="1.0" encoding="UTF-8" standalone="no"?>
<!-- Created with Inkscape (http://www.inkscape.org/) -->
<svg
   xmlns:svg="http://www.w3.org/2000/svg"
   xmlns="http://www.w3.org/2000/svg"
   version="1.0"
   width="300"
   height="300"
   id="svg2">
  <defs
     id="defs5" />
  <path
     d="M 73.697814,263.41824 C 67.593894,256.06346 68.096154,214.13067 74.557104,191.67836 C 78.472804,178.07099 84.902394,169.06673 103.84614,150.66071 C 135.47473,119.92994 136.05684,110.86763 105.89931,118.6965 C 94.675304,121.61025 87.616414,121.65008 80.473124,118.83997 L 70.584534,114.94989 L 70.584534,77.361295 C 70.584534,47.543806 71.785934,38.571306 76.395684,33.961558 C 85.856494,24.500752 90.398964,29.536306 89.910074,48.942926 L 89.458444,66.870796 L 102.49555,62.212364 C 142.7738,47.820108 225.20611,65.531741 225.20611,88.578297 C 225.20611,99.285975 219.9566,98.969389 192.27968,86.592589 C 179.73459,80.982565 163.40242,75.42083 155.98598,74.233182 C 143.42052,72.220983 142.50154,72.687175 142.50154,81.07377 C 142.50154,95.557275 148.59174,102.97732 162.64308,105.61336 C 178.92347,108.66759 213.76905,123.85702 222.38701,131.65617 C 230.17746,138.70642 230.81856,153.77811 223.44833,156.60634 C 220.19379,157.85522 210.87404,152.16874 199.67883,142.10329 C 188.61625,132.15707 174.6013,123.57199 164.57915,120.60242 C 146.14982,115.1418 142.45441,115.85975 142.59926,124.87269 C 142.66135,128.73677 149.99773,134.23007 162.72564,139.94284 C 184.08407,149.52932 192.84345,158.46908 192.84345,170.68086 C 192.84345,179.57934 180.39823,191.95214 167.6725,195.70533 C 137.46888,204.61327 147.02448,226.02367 184.43106,233.25478 C 223.07462,240.72501 222.15738,240.34262 220.94474,248.47719 C 218.94661,261.88095 209.26663,264.65251 193.92553,256.21331 C 186.40838,252.07808 174.27086,246.78061 166.95327,244.44115 C 159.63568,242.10168 148.71329,234.56659 142.68128,227.69652 C 126.09398,208.80463 128.06946,199.20761 151.92382,182.79537 C 160.58559,176.83592 167.6725,170.0833 167.6725,167.78955 C 167.6725,165.4958 161.81773,157.62327 154.66191,150.29504 L 141.65131,136.97098 L 128.8477,148.3455 C 121.80572,154.60149 109.86102,165.85615 102.30394,173.35587 L 88.563784,186.99172 L 88.563784,226.00995 C 88.563784,256.48712 87.440634,265.45918 83.432914,266.99709 C 80.610934,268.07999 76.230134,266.4695 73.697814,263.41824 z M 129.06429,100.59696 C 130.57354,99.243749 130.01072,92.979791 127.81357,86.677052 C 123.62313,74.656349 119.88399,73.448294 99.491754,77.526744 C 86.532724,80.118551 83.160034,85.504006 86.403294,98.426189 C 88.488544,106.73449 89.686214,107.11659 107.46723,105.14635 C 117.83637,103.9974 127.55505,101.95017 129.06429,100.59696 z "
     style="fill:black;fill-opacity:1"
     id="path1875" />
</svg>
