<?xml version="1.0" encoding="UTF-8" standalone="no"?>
<!-- Created with Inkscape (http://www.inkscape.org/) -->
<svg
   xmlns:svg="http://www.w3.org/2000/svg"
   xmlns="http://www.w3.org/2000/svg"
   version="1.0"
   width="300"
   height="300"
   id="svg2">
  <defs
     id="defs5" />
  <path
     d="M 89.408106,257.93741 C 72.290606,254.94445 62.061496,234.54002 57.081146,193.45345 C 52.546806,156.04637 56.697236,87.637344 64.364336,73.408985 C 77.415976,49.188161 109.24392,35.316723 157.03656,33.020037 C 198.34623,31.034892 223.06906,37.027273 234.00596,51.676064 C 251.80417,75.514835 254.57143,204.50175 237.76751,227.00878 C 224.683,244.53406 186.09644,257.07687 140.59947,258.59388 C 118.68773,259.32449 95.651612,259.02908 89.408106,257.93741 z M 184.63263,230.55261 C 203.55219,225.91033 220.27852,216.38276 220.27852,210.24815 C 220.27852,207.87762 203.04871,206.05146 179.39058,205.9145 C 156.90222,205.78432 131.89768,203.4254 123.82493,200.67246 C 109.82856,195.89946 109.08849,194.64834 107.88208,173.72069 C 106.68604,152.97275 107.34845,151.32942 120.01211,143.62819 C 127.37946,139.14784 142.57407,134.22134 153.77791,132.68042 C 167.15692,130.84034 174.14854,127.85479 174.14854,123.98181 C 174.14854,119.25685 164.56388,118.08488 125.92175,118.08488 L 77.694966,118.08488 L 77.694966,165.37856 C 77.694966,215.88556 81.606046,228.09414 100.16025,235.50461 C 110.38488,239.58828 159.55544,236.70577 184.63263,230.55261 z M 202.45557,182.46562 L 224.47215,179.82112 L 224.47215,140.00387 C 224.47215,57.903908 207.58422,42.299685 133.50311,55.949666 C 111.29239,60.04215 104.36586,63.421103 94.010432,75.215284 C 79.810546,91.388071 80.114906,99.468364 94.893932,98.670354 C 199.27032,93.034467 190.01169,92.538335 199.23309,104.26144 C 210.12537,118.10873 209.89172,123.45364 197.77853,137.53606 C 189.19824,147.51125 184.06063,149.30957 159.71399,150.85985 C 135.25742,152.41713 130.98881,153.92435 127.14544,162.35965 C 119.06876,180.08601 125.10172,185.1867 154.09716,185.14658 C 168.58517,185.12653 190.34645,183.9201 202.45557,182.46562 z "
     style="fill:black;fill-opacity:1"
     id="path1875" />
</svg>
