<?xml version="1.0" encoding="UTF-8" standalone="no"?>
<!-- Created with Inkscape (http://www.inkscape.org/) -->
<svg
   xmlns:dc="http://purl.org/dc/elements/1.1/"
   xmlns:cc="http://web.resource.org/cc/"
   xmlns:rdf="http://www.w3.org/1999/02/22-rdf-syntax-ns#"
   xmlns:svg="http://www.w3.org/2000/svg"
   xmlns="http://www.w3.org/2000/svg"
   xmlns:sodipodi="http://sodipodi.sourceforge.net/DTD/sodipodi-0.dtd"
   xmlns:inkscape="http://www.inkscape.org/namespaces/inkscape"
   width="300"
   height="300"
   id="svg2"
   sodipodi:version="0.32"
   inkscape:version="0.45.1"
   version="1.0"
   sodipodi:docbase="C:\Documents and Settings\Martin\桌面"
   sodipodi:docname="drawing.svg"
   inkscape:output_extension="org.inkscape.output.svg.inkscape">
  <defs
     id="defs4" />
  <sodipodi:namedview
     id="base"
     pagecolor="#ffffff"
     bordercolor="#666666"
     borderopacity="1.0"
     gridtolerance="10000"
     guidetolerance="10"
     objecttolerance="10"
     inkscape:pageopacity="0.0"
     inkscape:pageshadow="2"
     inkscape:zoom="0.92866691"
     inkscape:cx="163.85638"
     inkscape:cy="137.69938"
     inkscape:document-units="px"
     inkscape:current-layer="layer1"
     width="300px"
     height="300px"
     inkscape:window-width="742"
     inkscape:window-height="577"
     inkscape:window-x="50"
     inkscape:window-y="0" />
  <metadata
     id="metadata7">
    <rdf:RDF>
      <cc:Work
         rdf:about="">
        <dc:format>image/svg+xml</dc:format>
        <dc:type
           rdf:resource="http://purl.org/dc/dcmitype/StillImage" />
      </cc:Work>
    </rdf:RDF>
  </metadata>
  <g
     inkscape:label="Layer 1"
     inkscape:groupmode="layer"
     id="layer1">
    <path
       style="fill:#000000"
       d="M 101.39152,279.19167 C 79.138781,269.09211 76.899011,263.35254 75.122061,211.87489 C 74.329961,188.92782 73.615981,168.94166 73.535411,167.4612 C 73.454881,165.98075 74.229991,135.19143 75.257881,99.040521 C 77.111931,33.83544 78.337071,26.144914 86.870771,26.144914 C 93.427981,26.144914 97.822571,43.81604 96.261661,63.90671 C 93.165811,103.75356 91.344361,180.97586 93.439721,183.54493 C 94.617271,184.9887 114.02223,186.4995 136.56186,186.90223 C 159.10148,187.30497 178.75427,187.68241 180.23472,187.74101 C 191.69959,188.19464 208.18124,183.73338 209.11848,179.92272 C 210.86168,172.83494 209.52213,137.64926 207.37695,134.17826 C 206.20815,132.2871 199.75123,131.17463 191.47602,131.43863 C 165.09369,132.28034 150.61023,127.60519 144.5947,116.30571 C 141.72168,110.90907 140.30547,29.331457 142.92435,20.088502 C 144.58832,14.215697 153.51994,13.89967 155.72109,19.635717 C 156.6197,21.977487 157.35495,43.21294 157.35495,66.82563 C 157.35495,114.13692 156.61232,112.21914 175.38252,113.38189 C 184.70593,113.74198 192.81381,118.7069 201.94029,115.38387 C 207.44774,112.87449 208.56589,110.33906 208.92201,99.552511 C 209.15522,92.48858 209.1437,84.89212 208.89638,82.67144 C 205.84724,55.29204 205.93049,32.30583 209.09436,28.017218 C 213.29094,22.328791 221.86004,24.382356 222.13944,31.14344 C 222.23995,33.57585 222.73101,41.01677 223.23065,47.67882 C 223.73029,54.34089 224.87818,98.552691 225.78153,145.92729 C 227.64251,243.52223 226.45462,254.99881 213.05256,268.90627 C 198.68471,283.81594 195.8148,284.5569 152.68093,284.49273 C 119.13123,284.44282 111.14223,283.6171 101.39152,279.19167 z M 193.69342,262.23442 C 206.24992,255.14572 210.61517,243.20773 210.97309,214.97809 L 211.18972,197.89328 L 162.06549,199.35707 C 84.886691,201.65681 90.005411,194.31745 90.260991,212.14516 C 90.370731,219.79993 91.279191,237.5137 92.279791,244.17576 C 93.937041,255.20968 95.177991,256.81815 106.21191,262.23404 C 116.6308,267.34805 122.84185,268.18881 150.6256,268.24617 C 179.25676,268.30528 184.1497,267.62228 193.69342,262.23442 z "
       id="path2269"
       sodipodi:nodetypes="csssssssssssssssccsssssssscccccssssc" />
  </g>
</svg>
