<?xml version="1.0" encoding="UTF-8" standalone="no"?>
<!-- Created with Inkscape (http://www.inkscape.org/) -->
<svg
   xmlns:dc="http://purl.org/dc/elements/1.1/"
   xmlns:cc="http://web.resource.org/cc/"
   xmlns:rdf="http://www.w3.org/1999/02/22-rdf-syntax-ns#"
   xmlns:svg="http://www.w3.org/2000/svg"
   xmlns="http://www.w3.org/2000/svg"
   xmlns:sodipodi="http://sodipodi.sourceforge.net/DTD/sodipodi-0.dtd"
   xmlns:inkscape="http://www.inkscape.org/namespaces/inkscape"
   width="300"
   height="300"
   id="svg2"
   sodipodi:version="0.32"
   inkscape:version="0.45.1"
   version="1.0"
   sodipodi:docbase="C:\Documents and Settings\Martin\桌面"
   sodipodi:docname="drawing.svg"
   inkscape:output_extension="org.inkscape.output.svg.inkscape">
  <defs
     id="defs4" />
  <sodipodi:namedview
     id="base"
     pagecolor="#ffffff"
     bordercolor="#666666"
     borderopacity="1.0"
     gridtolerance="10000"
     guidetolerance="10"
     objecttolerance="10"
     inkscape:pageopacity="0.0"
     inkscape:pageshadow="2"
     inkscape:zoom="0.92866691"
     inkscape:cx="163.85638"
     inkscape:cy="137.69938"
     inkscape:document-units="px"
     inkscape:current-layer="layer1"
     width="300px"
     height="300px"
     inkscape:window-width="742"
     inkscape:window-height="577"
     inkscape:window-x="50"
     inkscape:window-y="0" />
  <metadata
     id="metadata7">
    <rdf:RDF>
      <cc:Work
         rdf:about="">
        <dc:format>image/svg+xml</dc:format>
        <dc:type
           rdf:resource="http://purl.org/dc/dcmitype/StillImage" />
      </cc:Work>
    </rdf:RDF>
  </metadata>
  <g
     inkscape:label="Layer 1"
     inkscape:groupmode="layer"
     id="layer1">
    <path
       style="fill:#000000"
       d="M 115.66054,280.02874 C 112.0627,278.08712 101.26918,272.55164 91.674943,267.72761 C 65.722183,254.67849 52.509779,226.32476 52.551299,183.76845 C 52.601879,131.85489 65.654373,22.41079 71.795073,22.41079 C 80.236303,22.41079 83.656953,33.063971 80.630453,49.927656 C 78.826733,59.978258 75.993643,87.088538 74.334803,110.17273 L 71.318633,152.14399 L 83.677323,153.91398 C 90.474573,154.88747 124.98222,154.91614 160.36097,153.97769 L 224.68599,152.27141 L 224.68599,127.19596 L 224.68599,102.1205 L 199.61013,99.750308 C 168.94756,96.852048 148.91858,89.630728 153.04118,82.960198 C 155.12126,79.594598 166.8721,79.021278 190.8693,81.114578 L 225.68004,84.151158 L 224.09276,50.010214 C 222.78419,21.864585 223.65421,15.869263 229.047,15.869263 C 242.35038,15.869263 252.96287,150.01488 244.31541,208.86759 C 239.71292,240.19079 223.98081,264.44198 200.97151,275.6825 C 183.00805,284.45805 128.96954,287.21107 115.66054,280.02874 z M 159.71018,261.90731 C 201.90857,248.46984 214.16298,237.43611 220.43308,207.23326 C 223.09792,194.39665 224.35568,182.39387 223.22801,180.56044 C 222.10038,178.727 188.11471,178.20815 147.7043,179.40743 L 74.230873,181.58794 L 75.434913,199.03202 C 77.766573,232.81252 95.267423,255.12549 124.38258,261.43855 C 139.94456,266.31945 144.89189,266.52786 159.71018,261.90731 z "
       id="path2235"
       sodipodi:nodetypes="cssssccccccccscccsssccssccccc" />
  </g>
</svg>
