<?xml version="1.0" encoding="UTF-8" standalone="no"?>
<!-- Created with Inkscape (http://www.inkscape.org/) -->
<svg
   xmlns:dc="http://purl.org/dc/elements/1.1/"
   xmlns:cc="http://web.resource.org/cc/"
   xmlns:rdf="http://www.w3.org/1999/02/22-rdf-syntax-ns#"
   xmlns:svg="http://www.w3.org/2000/svg"
   xmlns="http://www.w3.org/2000/svg"
   xmlns:sodipodi="http://sodipodi.sourceforge.net/DTD/sodipodi-0.dtd"
   xmlns:inkscape="http://www.inkscape.org/namespaces/inkscape"
   width="300"
   height="300"
   id="svg2"
   sodipodi:version="0.32"
   inkscape:version="0.45.1"
   version="1.0"
   sodipodi:docbase="C:\Documents and Settings\Martin\桌面"
   sodipodi:docname="drawing.svg"
   inkscape:output_extension="org.inkscape.output.svg.inkscape">
  <defs
     id="defs4" />
  <sodipodi:namedview
     id="base"
     pagecolor="#ffffff"
     bordercolor="#666666"
     borderopacity="1.0"
     gridtolerance="10000"
     guidetolerance="10"
     objecttolerance="10"
     inkscape:pageopacity="0.0"
     inkscape:pageshadow="2"
     inkscape:zoom="0.98994949"
     inkscape:cx="204.37265"
     inkscape:cy="133.20475"
     inkscape:document-units="px"
     inkscape:current-layer="layer1"
     width="300px"
     height="300px"
     inkscape:window-width="742"
     inkscape:window-height="577"
     inkscape:window-x="50"
     inkscape:window-y="0" />
  <metadata
     id="metadata7">
    <rdf:RDF>
      <cc:Work
         rdf:about="">
        <dc:format>image/svg+xml</dc:format>
        <dc:type
           rdf:resource="http://purl.org/dc/dcmitype/StillImage" />
      </cc:Work>
    </rdf:RDF>
  </metadata>
  <g
     inkscape:label="Layer 1"
     inkscape:groupmode="layer"
     id="layer1">
    <path
       style="fill:#000000"
       d="M 152.53146,278.83927 C 149.49564,274.15251 147.0118,269.1545 147.0118,267.73259 C 147.0118,266.31065 144.67278,260.56242 141.814,254.95873 C 134.44892,240.52198 134.8102,215.18678 142.58481,200.90568 C 145.69429,195.19391 148.84336,189.96868 149.58278,189.29405 C 150.32217,188.61943 153.91074,182.90186 157.55737,176.58833 C 161.20398,170.27481 165.66437,163.63241 167.46933,161.82742 C 171.73475,157.56203 189.86735,119.76338 193.71699,107.11243 C 195.35927,101.71543 197.50271,95.091839 198.48019,92.393335 C 199.45768,89.694837 201.69442,80.198736 203.45075,71.290889 C 206.09568,57.876121 206.07944,53.182561 203.35618,43.959509 C 200.54802,34.448873 198.46079,32.043207 189.05025,27.471228 C 178.79084,22.486812 176.96247,22.330867 162.49594,25.206357 C 153.95099,26.90482 144.76352,30.340483 142.07937,32.841164 C 130.73025,46.298834 141.07489,45.283881 148.89984,51.915824 C 162.66648,61.652635 176.49065,72.418798 180.43583,90.027237 C 178.15792,95.96334 172.21344,94.108429 166.39871,85.647092 C 158.0967,73.566363 135.76368,51.915824 131.60414,51.915824 C 127.88992,51.915824 120.74549,65.057856 115.26717,81.967312 C 113.19153,88.374043 110.85505,91.166751 107.57062,91.166751 C 102.62739,91.166751 100.80977,99.426207 105.16118,102.11552 C 107.56689,103.60234 105.2415,112.92175 98.916596,127.14178 C 97.017396,131.41167 94.767036,141.89902 93.915816,150.44702 C 92.413976,165.5285 89.818016,172.12176 85.381858,172.12176 C 82.575067,172.12176 82.627223,157.41876 85.480225,144.38319 C 99.303776,90.490308 106.25392,16.852987 174.70784,12.724869 C 223.94469,18.444059 220.37967,59.21993 210.95756,97.299705 C 197.98838,133.97881 176.60885,167.24488 156.82453,200.62844 C 142.93715,223.48751 143.17431,228.74748 159.73089,265.0952 C 163.66371,273.72919 166.30922,282.28466 165.60977,284.10736 C 163.43063,289.78611 158.27771,287.71045 152.53146,278.83927 z M 129.68345,144.52347 C 129.46573,127.88528 110.05159,105.90649 108.79844,94.236919 C 109.82292,93.222951 113.04439,95.533171 115.95725,99.370756 C 118.87013,103.20834 124.60805,109.98521 128.7082,114.43044 C 141.36054,128.14768 146.07463,145.09267 139.16161,152.00568 C 134.33637,156.83093 132.63443,155.48738 129.68345,144.52347 z "
       id="path2208"
       sodipodi:nodetypes="csssssssssssscccssssssssccccsscccsssc" />
  </g>
</svg>
