<?xml version="1.0" encoding="UTF-8" standalone="no"?>
<!-- Created with Inkscape (http://www.inkscape.org/) -->
<svg
   xmlns:svg="http://www.w3.org/2000/svg"
   xmlns="http://www.w3.org/2000/svg"
   version="1.0"
   width="300"
   height="300"
   id="svg2286">
  <defs
     id="defs2289">
    <marker
       refX="0"
       refY="0"
       orient="auto"
       style="overflow:visible"
       id="Arrow1Mend">
      <path
         d="M 0,0 L 5,-5 L -12.5,0 L 5,5 L 0,0 z "
         transform="matrix(-0.4,0,0,-0.4,-4,0)"
         style="fill-rule:evenodd;stroke:#000000;stroke-width:1pt;marker-start:none"
         id="path26541" />
    </marker>
    <marker
       refX="0"
       refY="0"
       orient="auto"
       style="overflow:visible"
       id="Arrow2Lend">
      <path
         d="M 8.7185878,4.0337352 L -2.2072895,0.016013256 L 8.7185884,-4.0017078 C 6.97309,-1.6296469 6.9831476,1.6157441 8.7185878,4.0337352 z "
         transform="matrix(-1.1,0,0,-1.1,-1.1,0)"
         style="font-size:12px;fill-rule:evenodd;stroke-width:0.625;stroke-linejoin:round"
         id="path26553" />
    </marker>
    <marker
       refX="0"
       refY="0"
       orient="auto"
       style="overflow:visible"
       id="TriangleOutL">
      <path
         d="M 5.77,0 L -2.88,5 L -2.88,-5 L 5.77,0 z "
         transform="scale(0.8,0.8)"
         style="fill-rule:evenodd;stroke:#000000;stroke-width:1pt;marker-start:none"
         id="path26630" />
    </marker>
  </defs>
  <path
     d="M 150.39069,98.302707 C 164.71539,80.216017 213.73259,23.099335 213.73259,35.524718 C 213.73259,40.559267 188.36629,80.712807 170.87229,103.24164 C 158.67089,118.95467 151.53599,130.27898 150.91669,140.73732 C 149.20769,169.59512 150.13429,181.54908 148.82709,214.60049 C 176.07009,249.60879 186.96699,270.36152 168.80159,256.88989 C 153.26799,245.37006 146.37799,231.19618 145.69989,246.43329 C 144.86719,265.14488 137.76869,285.31502 133.21729,285.4544 C 127.99399,284.92188 126.56069,257.00948 126.56069,251.42367 C 126.56069,239.95299 107.19629,259.56644 91.282292,270.65372 C 80.897388,277.88884 87.033188,267.63836 106.06119,240.41908 C 118.07759,223.22991 124.42709,217.26789 124.74129,210.45517 C 126.85019,164.72649 127.14759,114.08873 123.79149,108.33367 C 89.753588,49.964235 88.244588,29.385466 99.379492,41.877654 C 118.53499,63.368087 128.05749,83.444047 128.12429,65.180697 C 128.18979,47.245833 133.86869,11.70181 141.75249,14.727113 C 152.27519,18.254284 150.14349,69.106907 150.39069,98.302707 z "
     style="opacity:1;fill:#000000;fill-opacity:1"
     id="path5118" />
</svg>
