<?xml version="1.0" encoding="UTF-8" standalone="no"?>
<!-- Created with Inkscape (http://www.inkscape.org/) -->
<svg
   xmlns:dc="http://purl.org/dc/elements/1.1/"
   xmlns:cc="http://web.resource.org/cc/"
   xmlns:rdf="http://www.w3.org/1999/02/22-rdf-syntax-ns#"
   xmlns:svg="http://www.w3.org/2000/svg"
   xmlns="http://www.w3.org/2000/svg"
   xmlns:sodipodi="http://sodipodi.sourceforge.net/DTD/sodipodi-0.dtd"
   xmlns:inkscape="http://www.inkscape.org/namespaces/inkscape"
   width="300"
   height="300"
   id="svg2"
   sodipodi:version="0.32"
   inkscape:version="0.45.1"
   version="1.0"
   sodipodi:docbase="C:\Documents and Settings\Martin\桌面"
   sodipodi:docname="drawing.svg"
   inkscape:output_extension="org.inkscape.output.svg.inkscape">
  <defs
     id="defs4" />
  <sodipodi:namedview
     id="base"
     pagecolor="#ffffff"
     bordercolor="#666666"
     borderopacity="1.0"
     gridtolerance="10000"
     guidetolerance="10"
     objecttolerance="10"
     inkscape:pageopacity="0.0"
     inkscape:pageshadow="2"
     inkscape:zoom="0.70710678"
     inkscape:cx="215.35572"
     inkscape:cy="172.19444"
     inkscape:document-units="px"
     inkscape:current-layer="layer1"
     width="300px"
     height="300px"
     inkscape:window-width="742"
     inkscape:window-height="577"
     inkscape:window-x="50"
     inkscape:window-y="0" />
  <metadata
     id="metadata7">
    <rdf:RDF>
      <cc:Work
         rdf:about="">
        <dc:format>image/svg+xml</dc:format>
        <dc:type
           rdf:resource="http://purl.org/dc/dcmitype/StillImage" />
      </cc:Work>
    </rdf:RDF>
  </metadata>
  <g
     inkscape:label="Layer 1"
     inkscape:groupmode="layer"
     id="layer1">
    <path
       style="fill:#000000"
       d="M 145.70485,279.73145 C 141.55587,276.8254 133.29691,267.37766 127.35163,258.73652 C 116.62545,243.14644 116.57588,242.87723 120.92614,223.82356 C 123.33737,213.26259 125.54552,192.30622 125.83308,177.25386 C 126.66534,133.69068 129.02674,130.87375 140.83352,159.35975 C 150.07594,181.65881 150.19564,190.91431 141.46302,208.04281 C 137.69997,215.42388 134.62107,224.75637 134.62107,228.78163 C 134.77564,252.72919 152.24286,261.94969 158.56803,283.42071 C 158.56803,286.50756 153.1678,284.95871 145.70485,279.73145 z M 205.3362,265.88538 C 180.11404,247.38395 173.05701,222.21244 184.32408,190.93784 C 190.94936,172.54784 190.63745,166.79153 181.86943,145.63714 C 170.76599,118.84804 177.08821,115.45719 199.33721,136.26855 C 219.84975,155.45561 221.42889,165.05086 208.17241,189.95311 C 194.5731,215.49935 197.36474,236.69063 217.44381,260.33198 C 226.80248,271.35094 229.51647,278.25675 224.42213,278.08836 C 223.01098,278.04172 214.42229,272.5504 205.3362,265.88538 z M 73.043173,261.67764 C 73.043173,260.13125 75.563503,251.46932 78.643863,242.42893 C 83.019753,229.58644 83.841103,218.08734 82.399743,189.84643 C 81.385113,169.96644 81.986273,149.93651 83.735573,145.33545 C 91.764983,124.21655 111.93389,111.51101 154.35717,100.84688 C 189.3294,92.055753 195.68813,87.722293 206.46191,65.337383 C 215.62288,46.303503 222.51164,44.193643 220.81922,60.940083 C 219.08494,78.100643 213.51018,92.053083 205.30962,99.757113 C 197.16961,107.40423 153.39863,124.22845 141.64338,124.22845 C 137.90877,124.22845 129.5355,126.76431 123.03603,129.86367 C 108.50412,136.79348 101.66753,153.87269 100.64294,185.80636 C 99.815573,211.59351 91.694373,253.37254 86.229043,259.95786 C 82.088143,264.94737 73.043173,266.12705 73.043173,261.67764 z M 84.133993,109.68925 C 87.433673,99.596353 120.0662,79.766853 147.40129,71.244183 C 170.00915,64.195423 178.73765,59.500493 189.11584,48.806443 C 196.33426,41.368333 203.19015,35.282623 204.35109,35.282623 C 209.32074,35.282623 205.7306,45.528643 196.1049,58.816503 C 184.67319,74.597553 174.96754,79.767173 140.52263,88.421903 C 127.77532,91.624863 110.8414,98.654443 102.89169,104.0432 C 87.116833,114.7363 81.978333,116.28296 84.133993,109.68925 z M 83.306143,82.227223 C 83.306143,68.118353 113.36364,48.638633 152.56121,37.344273 C 165.69919,33.558743 174.04958,28.877443 177.75686,23.219413 C 184.40023,13.080333 192.77796,12.112783 192.77796,21.484603 C 192.77796,34.566383 172.05726,50.189933 144.98742,57.519103 C 129.67948,61.663733 113.96931,68.744283 105.13777,75.479283 C 89.588243,87.337523 83.306143,89.279263 83.306143,82.227223 z "
       id="path3263"
       sodipodi:nodetypes="csssssccccssssssccsssssssssssccssssssccsssssc" />
  </g>
</svg>
