<?xml version="1.0" encoding="UTF-8" standalone="no"?>
<!-- Created with Inkscape (http://www.inkscape.org/) -->
<svg
   xmlns:dc="http://purl.org/dc/elements/1.1/"
   xmlns:cc="http://web.resource.org/cc/"
   xmlns:rdf="http://www.w3.org/1999/02/22-rdf-syntax-ns#"
   xmlns:svg="http://www.w3.org/2000/svg"
   xmlns="http://www.w3.org/2000/svg"
   xmlns:sodipodi="http://sodipodi.sourceforge.net/DTD/sodipodi-0.dtd"
   xmlns:inkscape="http://www.inkscape.org/namespaces/inkscape"
   width="300"
   height="300"
   id="svg2"
   sodipodi:version="0.32"
   inkscape:version="0.45.1"
   version="1.0"
   sodipodi:docbase="C:\Documents and Settings\Martin\桌面"
   sodipodi:docname="drawing.svg"
   inkscape:output_extension="org.inkscape.output.svg.inkscape">
  <defs
     id="defs4" />
  <sodipodi:namedview
     id="base"
     pagecolor="#ffffff"
     bordercolor="#666666"
     borderopacity="1.0"
     gridtolerance="10000"
     guidetolerance="10"
     objecttolerance="10"
     inkscape:pageopacity="0.0"
     inkscape:pageshadow="2"
     inkscape:zoom="0.70710678"
     inkscape:cx="215.35572"
     inkscape:cy="141.20417"
     inkscape:document-units="px"
     inkscape:current-layer="layer1"
     width="300px"
     height="300px"
     inkscape:window-width="742"
     inkscape:window-height="577"
     inkscape:window-x="50"
     inkscape:window-y="0" />
  <metadata
     id="metadata7">
    <rdf:RDF>
      <cc:Work
         rdf:about="">
        <dc:format>image/svg+xml</dc:format>
        <dc:type
           rdf:resource="http://purl.org/dc/dcmitype/StillImage" />
      </cc:Work>
    </rdf:RDF>
  </metadata>
  <g
     inkscape:label="Layer 1"
     inkscape:groupmode="layer"
     id="layer1">
    <path
       style="fill:#000000"
       d="M 213.77951,280.60007 C 197.71352,268.1602 187.23192,262.51951 176.64886,241.60667 C 168.99904,226.42928 178.4936,204.69724 184.26004,188.765 C 189.45908,174.9522 190.03354,170.95972 187.5922,165.60171 C 184.44799,158.7012 178.14077,157.31958 156.63509,158.82152 C 144.52176,169.92973 141.788,187.18456 132.70788,201.76739 C 123.02725,220.17692 110.28824,236.09323 91.78776,246.63348 C 89.86853,246.63348 86.9424,244.99983 85.2852,243.0031 C 82.85827,240.0787 84.97482,236.70011 96.16856,225.63058 C 116.98559,202.11218 137.38836,173.16301 140.2739,141.1116 C 138.7899,141.1116 126.97243,148.55343 121.12708,153.16868 C 94.64562,174.07874 77.8166,184.84174 71.58243,184.85504 C 63.04427,184.87329 67.46489,172.72993 77.37317,168.94757 C 79.49655,168.13697 88.34169,162.12141 97.02911,155.57974 C 109.74542,146.99608 121.83653,138.76324 133.55746,128.81348 C 150.66422,115.11134 169.33884,103.69491 187.13429,91.025598 C 206.95038,73.933388 210.31356,71.627848 215.43424,71.624898 C 220.81801,71.621838 224.07423,76.064908 224.07423,83.413838 C 224.07423,85.421378 222.86924,87.063848 221.39621,87.063848 C 218.58197,87.063848 205.93206,95.510468 197.30529,103.14947 C 189.48536,108.26883 181.43157,112.62135 173.77669,118.25746 C 162.47175,126.79276 159.73178,130.30754 159.73178,136.27338 C 159.73178,143.03278 160.52723,143.68546 168.76775,143.68546 C 173.73758,143.68546 182.94707,146.10298 189.2333,149.05792 C 199.66905,153.96325 200.814,155.43651 202.39759,165.99796 C 203.77111,175.15582 202.75005,181.14008 197.49563,194.72705 C 193.84573,204.16574 190.08188,215.14516 189.13178,219.12554 C 186.3459,230.79679 194.10764,244.09922 210.46711,255.69191 C 231.0169,270.25378 234.2022,273.73933 232.59102,279.90054 C 230.8855,286.42275 222.79766,286.72352 213.77951,280.60007 z M 92.81541,108.2625 C 92.81541,105.23411 99.02332,100.50594 111.47474,94.050368 C 142.69195,77.865998 157.59453,68.780318 166.73551,60.359418 C 176.20591,51.635048 189.97121,43.310968 194.92808,43.310968 C 199.87902,43.310968 201.28741,47.694478 199.46234,57.422518 C 197.94462,65.513618 196.89898,66.474248 189.61095,66.474248 C 182.20112,67.877938 169.29168,77.181708 162.11471,82.052168 C 149.14519,91.287218 104.757,112.80097 98.67202,112.80097 C 94.79323,112.80097 92.81541,111.26822 92.81541,108.2625 z M 102.32391,61.040798 C 98.65362,58.905538 98.31412,57.570358 100.70895,54.684908 C 102.37629,52.675898 105.44861,51.031998 107.53645,51.031998 C 112.22307,51.031998 149.45308,32.066258 164.05593,22.239878 C 169.97315,18.258078 175.55713,15.000158 176.46472,15.000158 C 178.88484,15.000158 185.46855,21.990888 185.46855,24.560498 C 171.62713,42.419388 147.28728,49.971678 126.76845,57.466278 C 108.90702,64.724108 108.70595,64.753518 102.32391,61.040798 z "
       id="path3251"
       sodipodi:nodetypes="cccscccsccssscccsssccssssssssccssssccsccssssccc" />
  </g>
</svg>
