<?xml version="1.0" encoding="UTF-8" standalone="no"?>
<!-- Created with Inkscape (http://www.inkscape.org/) -->

<svg
   xmlns:dc="http://purl.org/dc/elements/1.1/"
   xmlns:cc="http://creativecommons.org/ns#"
   xmlns:rdf="http://www.w3.org/1999/02/22-rdf-syntax-ns#"
   xmlns:svg="http://www.w3.org/2000/svg"
   xmlns="http://www.w3.org/2000/svg"
   xmlns:sodipodi="http://sodipodi.sourceforge.net/DTD/sodipodi-0.dtd"
   xmlns:inkscape="http://www.inkscape.org/namespaces/inkscape"
   width="300"
   height="300"
   id="svg2"
   version="1.1"
   inkscape:version="0.47 r22583"
   sodipodi:docname="鳧-oracle.svg">
  <defs
     id="defs4">
    <inkscape:perspective
       sodipodi:type="inkscape:persp3d"
       inkscape:vp_x="0 : 526.18109 : 1"
       inkscape:vp_y="0 : 1000 : 0"
       inkscape:vp_z="744.09448 : 526.18109 : 1"
       inkscape:persp3d-origin="372.04724 : 350.78739 : 1"
       id="perspective10" />
    <inkscape:perspective
       id="perspective2824"
       inkscape:persp3d-origin="0.5 : 0.33333333 : 1"
       inkscape:vp_z="1 : 0.5 : 1"
       inkscape:vp_y="0 : 1000 : 0"
       inkscape:vp_x="0 : 0.5 : 1"
       sodipodi:type="inkscape:persp3d" />
    <inkscape:perspective
       id="perspective2884"
       inkscape:persp3d-origin="0.5 : 0.33333333 : 1"
       inkscape:vp_z="1 : 0.5 : 1"
       inkscape:vp_y="0 : 1000 : 0"
       inkscape:vp_x="0 : 0.5 : 1"
       sodipodi:type="inkscape:persp3d" />
    <inkscape:perspective
       id="perspective2923"
       inkscape:persp3d-origin="0.5 : 0.33333333 : 1"
       inkscape:vp_z="1 : 0.5 : 1"
       inkscape:vp_y="0 : 1000 : 0"
       inkscape:vp_x="0 : 0.5 : 1"
       sodipodi:type="inkscape:persp3d" />
    <inkscape:perspective
       id="perspective2962"
       inkscape:persp3d-origin="0.5 : 0.33333333 : 1"
       inkscape:vp_z="1 : 0.5 : 1"
       inkscape:vp_y="0 : 1000 : 0"
       inkscape:vp_x="0 : 0.5 : 1"
       sodipodi:type="inkscape:persp3d" />
    <inkscape:perspective
       id="perspective2999"
       inkscape:persp3d-origin="0.5 : 0.33333333 : 1"
       inkscape:vp_z="1 : 0.5 : 1"
       inkscape:vp_y="0 : 1000 : 0"
       inkscape:vp_x="0 : 0.5 : 1"
       sodipodi:type="inkscape:persp3d" />
    <inkscape:perspective
       id="perspective3026"
       inkscape:persp3d-origin="0.5 : 0.33333333 : 1"
       inkscape:vp_z="1 : 0.5 : 1"
       inkscape:vp_y="0 : 1000 : 0"
       inkscape:vp_x="0 : 0.5 : 1"
       sodipodi:type="inkscape:persp3d" />
    <inkscape:perspective
       id="perspective3066"
       inkscape:persp3d-origin="0.5 : 0.33333333 : 1"
       inkscape:vp_z="1 : 0.5 : 1"
       inkscape:vp_y="0 : 1000 : 0"
       inkscape:vp_x="0 : 0.5 : 1"
       sodipodi:type="inkscape:persp3d" />
    <inkscape:perspective
       id="perspective3105"
       inkscape:persp3d-origin="0.5 : 0.33333333 : 1"
       inkscape:vp_z="1 : 0.5 : 1"
       inkscape:vp_y="0 : 1000 : 0"
       inkscape:vp_x="0 : 0.5 : 1"
       sodipodi:type="inkscape:persp3d" />
    <inkscape:perspective
       id="perspective3142"
       inkscape:persp3d-origin="0.5 : 0.33333333 : 1"
       inkscape:vp_z="1 : 0.5 : 1"
       inkscape:vp_y="0 : 1000 : 0"
       inkscape:vp_x="0 : 0.5 : 1"
       sodipodi:type="inkscape:persp3d" />
    <inkscape:perspective
       id="perspective3181"
       inkscape:persp3d-origin="0.5 : 0.33333333 : 1"
       inkscape:vp_z="1 : 0.5 : 1"
       inkscape:vp_y="0 : 1000 : 0"
       inkscape:vp_x="0 : 0.5 : 1"
       sodipodi:type="inkscape:persp3d" />
  </defs>
  <sodipodi:namedview
     id="base"
     pagecolor="#ffffff"
     bordercolor="#666666"
     borderopacity="1.0"
     inkscape:pageopacity="0.0"
     inkscape:pageshadow="2"
     inkscape:zoom="1.4"
     inkscape:cx="259.28887"
     inkscape:cy="213.20278"
     inkscape:document-units="px"
     inkscape:current-layer="layer1"
     showgrid="false"
     inkscape:window-width="1280"
     inkscape:window-height="950"
     inkscape:window-x="0"
     inkscape:window-y="25"
     inkscape:window-maximized="1" />
  <metadata
     id="metadata7">
    <rdf:RDF>
      <cc:Work
         rdf:about="">
        <dc:format>image/svg+xml</dc:format>
        <dc:type
           rdf:resource="http://purl.org/dc/dcmitype/StillImage" />
        <dc:title></dc:title>
      </cc:Work>
    </rdf:RDF>
  </metadata>
  <g
     inkscape:label="Calque 1"
     inkscape:groupmode="layer"
     id="layer1"
     transform="translate(0,-752.36218)">
    <path
       style="fill:#000000"
       d="m 210.41903,1024.4925 c -5.60644,-11.928 -23.42166,-38.35806 -29.19352,-43.31054 -2.23145,-1.91467 -8.97653,-0.74339 -15.94723,2.76923 -16.75247,8.44177 -39.33408,7.60324 -59.79368,-2.22036 -9.51634,-4.56923 -21.653877,-10.0183 -26.972298,-12.10904 -10.12674,-3.98096 -10.858944,-11.53663 -0.986936,-10.1843 3.14607,0.43096 16.668668,3.16616 30.050214,6.0782 26.36211,5.73682 49.44905,4.24898 53.28248,-3.43381 2.96432,-5.94097 -22.96481,-24.87824 -48.80644,-35.64565 -14.659483,-6.10816 -17.125954,-8.34442 -10.42256,-9.44978 15.35866,-2.53258 31.70976,2.69692 51.56324,16.49123 14.13277,9.81954 20.719,12.30967 24.62102,9.30875 6.64417,-5.10982 6.21122,-26.25743 -0.64551,-31.53072 -5.84393,-4.49437 -6.96191,-20.9095 -1.42408,-20.9095 6.00137,0 34.72881,39.27529 34.72881,47.48019 0,4.15633 -2.4961,11.77018 -5.5469,16.91968 -4.78543,8.07742 -3.41475,12.5933 9.98474,32.896 15.66142,23.72992 18.32178,42.78452 6.394,45.79642 -3.28446,0.8294 -8.18286,-3.1963 -10.88535,-8.946 z m 38.50955,-105.5309 c -9.52594,-17.52601 -44.97635,-39.64766 -63.58565,-39.67851 -4.57932,-0.008 -15.10615,-4.67283 -23.39295,-10.3672 -12.8017,-8.79683 -14.58213,-12.05082 -11.84249,-21.6438 3.65571,-12.80059 16.8826,-18.7954 48.9217,-22.17271 31.31632,-3.30113 42.47343,-19.67624 13.40632,-19.67624 -15.12548,0 -45.17215,-9.55363 -45.17215,-14.36292 0,-6.63546 9.11723,-8.17212 27.49509,-4.63415 9.96303,1.91802 23.99607,4.5048 31.18453,5.74842 15.43835,2.67086 32.53977,15.68033 32.53977,24.75381 0,11.62238 -21.48124,20.4765 -55.62827,22.92882 -17.68623,1.27017 -33.39321,3.26029 -34.9044,4.4225 -6.49196,4.99275 9.21511,15.16997 32.87336,21.29993 14.0479,3.63987 31.88915,10.094 39.64723,14.34251 14.35558,7.86146 34.65531,37.88017 29.74658,43.98848 -4.96697,6.18078 -16.72499,3.44741 -21.28867,-4.94894 z M 73.844721,905.60313 c -3.797843,-9.20261 2.795927,-21.43325 20.996821,-38.94653 18.808758,-18.09819 23.251558,-30.47727 13.601638,-37.8987 -6.47112,-4.97673 -8.999048,-3.79043 -23.427296,10.99396 -8.895398,9.11496 -18.467557,19.53418 -21.27147,23.15382 -2.918434,3.76747 -7.529278,5.42556 -10.784691,3.87823 -6.612199,-3.14285 1.4742,-17.08417 23.999045,-41.37547 12.468207,-13.44599 13.358024,-16.16536 8.160309,-24.93868 -9.640795,-16.27288 -0.552885,-15.86072 21.768753,0.98725 16.39618,12.37555 21.74591,19.49871 24.23627,32.27051 2.95935,15.17705 1.92581,17.47057 -13.97107,31.00303 -9.49746,8.08486 -19.742519,22.01983 -22.932168,31.19152 -5.974001,17.17798 -15.42843,21.66994 -20.376141,9.68106 z"
       id="path3187" />
  </g>
</svg>
