<?xml version="1.0" encoding="UTF-8" standalone="no"?>
<!-- Created with Inkscape (http://www.inkscape.org/) -->
<svg
   xmlns:dc="http://purl.org/dc/elements/1.1/"
   xmlns:cc="http://web.resource.org/cc/"
   xmlns:rdf="http://www.w3.org/1999/02/22-rdf-syntax-ns#"
   xmlns:svg="http://www.w3.org/2000/svg"
   xmlns="http://www.w3.org/2000/svg"
   xmlns:sodipodi="http://sodipodi.sourceforge.net/DTD/sodipodi-0.dtd"
   xmlns:inkscape="http://www.inkscape.org/namespaces/inkscape"
   width="300"
   height="300"
   id="svg2"
   sodipodi:version="0.32"
   inkscape:version="0.45.1"
   version="1.0"
   sodipodi:docbase="C:\Documents and Settings\Martin\桌面"
   sodipodi:docname="drawing.svg"
   inkscape:output_extension="org.inkscape.output.svg.inkscape">
  <defs
     id="defs4" />
  <sodipodi:namedview
     id="base"
     pagecolor="#ffffff"
     bordercolor="#666666"
     borderopacity="1.0"
     gridtolerance="10000"
     guidetolerance="10"
     objecttolerance="10"
     inkscape:pageopacity="0.0"
     inkscape:pageshadow="2"
     inkscape:zoom="1.2311444"
     inkscape:cx="153.96577"
     inkscape:cy="121.13895"
     inkscape:document-units="px"
     inkscape:current-layer="layer1"
     width="300px"
     height="300px"
     inkscape:window-width="1024"
     inkscape:window-height="712"
     inkscape:window-x="0"
     inkscape:window-y="22" />
  <metadata
     id="metadata7">
    <rdf:RDF>
      <cc:Work
         rdf:about="">
        <dc:format>image/svg+xml</dc:format>
        <dc:type
           rdf:resource="http://purl.org/dc/dcmitype/StillImage" />
      </cc:Work>
    </rdf:RDF>
  </metadata>
  <g
     inkscape:label="Layer 1"
     inkscape:groupmode="layer"
     id="layer1">
    <path
       style="fill:#000000"
       d="M 173.46641,270.4487 C 164.00793,260.76233 158.0426,257.11232 155.6237,259.53117 C 149.35092,265.80395 147.16826,263.60736 144.76977,248.60821 C 143.48955,240.60201 140.6095,234.05148 138.36974,234.05148 C 135.76761,234.05148 135.02529,238.53685 136.31352,246.47546 C 137.56099,254.16272 136.44847,261.44691 133.39553,265.58116 C 123.90885,278.42774 120.23141,266.24688 119.9044,220.89403 C 119.66636,187.88279 118.28943,176.12821 114.08797,171.24031 C 109.46057,165.85683 109.33626,163.42973 113.30779,156.00878 C 117.29536,148.558 117.06606,144.76663 111.83764,131.69953 C 105.02827,114.68124 106.16645,95.179935 116.0591,59.37089 C 119.10033,48.362374 122.38509,34.033107 123.35856,27.528074 C 125.59167,12.605696 138.88891,10.205559 138.88891,24.724865 C 138.88891,29.68813 145.32075,42.246922 153.18189,52.633285 C 171.7251,77.133095 172.8166,82.423988 161.86485,94.722923 C 156.89988,100.29865 149.74211,111.85611 145.95869,120.40614 L 139.07982,135.95166 L 149.90191,157.24813 C 155.85403,168.96116 160.72398,179.57021 160.72398,180.82379 C 160.72398,185.18528 152.15608,183.06403 145.52171,177.06001 C 141.84911,173.73634 137.91265,171.94865 136.77399,173.08731 C 133.62971,176.23158 139.2506,208.57724 142.94127,208.57724 C 144.7156,208.57724 146.21934,206.53019 146.28298,204.02827 C 146.45574,197.23883 157.0848,212.58739 157.0848,219.6263 C 157.0848,222.93665 160.52979,228.76274 164.74033,232.57325 C 178.46007,244.98943 198.36423,285 190.82123,285 C 189.09098,285 181.28133,278.45191 173.46641,270.4487 z M 134.53186,113.00398 C 138.61822,108.08021 132.32099,81.205969 127.08089,81.205969 C 125.56911,81.205969 124.33218,89.394112 124.33218,99.40185 C 124.33218,117.59786 127.36388,121.64084 134.53186,113.00398 z M 148.36595,74.913214 C 147.15669,73.70395 146.29657,75.853342 146.45458,79.68964 C 146.62918,83.929087 147.49151,84.791422 148.65322,81.888313 C 149.70451,79.261273 149.5752,76.122488 148.36595,74.913214 z M 141.66108,62.974155 C 139.10481,58.880922 136.49199,57.463659 135.72795,59.755861 C 134.977,62.008651 136.60925,65.274997 139.35516,67.014408 C 146.52161,71.554073 146.75928,71.137642 141.66108,62.974155 z "
       id="path2185" />
  </g>
</svg>
