<?xml version="1.0" standalone="no"?>
<!DOCTYPE svg PUBLIC "-//W3C//DTD SVG 20010904//EN"
 "http://www.w3.org/TR/2001/REC-SVG-20010904/DTD/svg10.dtd">
<svg version="1.0" xmlns="http://www.w3.org/2000/svg"
 width="468pt" height="468pt" viewBox="0 0 468 468"
 preserveAspectRatio="xMidYMid meet">
<metadata>
Created by potrace 1.8, written by Peter Selinger 2001-2007
</metadata>
<g transform="translate(0,468) scale(0.531818,-0.531818)"
fill="#000000" stroke="none">
<path d="M408 707 c-40 -15 -37 -39 4 -35 35 3 45 -13 34 -57 -5 -18 -18 -27
-53 -37 -65 -18 -72 -43 -9 -34 l46 7 0 -35 c0 -24 -5 -36 -14 -36 -8 0 -24
-9 -37 -20 l-24 -19 38 -1 c30 0 40 -5 46 -22 12 -30 -11 -48 -61 -48 -21 0
-38 -5 -38 -10 0 -15 45 -30 89 -30 34 0 39 -4 60 -46 21 -41 22 -47 7 -62 -8
-10 -22 -35 -31 -56 l-16 -39 37 -53 c22 -33 44 -54 55 -54 23 0 25 28 4 37
-15 5 -55 72 -55 91 0 5 16 29 35 53 19 24 35 51 35 59 0 8 -14 28 -30 44 -29
29 -31 46 -5 46 7 0 33 11 56 25 l44 24 36 -41 c38 -44 59 -45 59 -2 0 37 -28
84 -55 94 -24 9 -35 40 -15 40 6 0 10 11 10 24 0 40 -58 76 -123 76 l-54 0 5
49 c4 42 1 50 -19 65 -26 18 -24 18 -61 3z m140 -173 c24 -5 32 -13 37 -36 4
-16 5 -31 2 -34 -5 -6 -109 17 -120 27 -5 4 -6 16 -2 28 7 22 28 26 83 15z
m-10 -100 c29 -8 28 -18 -3 -32 -39 -18 -65 -15 -65 6 0 32 19 39 68 26z"/>
<path d="M251 637 c-11 -18 -25 -65 -32 -104 -11 -65 -10 -75 9 -115 33 -70
37 -134 12 -217 -12 -39 -26 -74 -31 -77 -5 -3 -9 -14 -9 -25 0 -63 71 59 91
156 11 54 10 69 -11 150 -26 104 -28 170 -6 214 30 58 11 73 -23 18z"/>
</g>
</svg>
