<?xml version="1.0" standalone="no"?>
<!DOCTYPE svg PUBLIC "-//W3C//DTD SVG 20010904//EN"
 "http://www.w3.org/TR/2001/REC-SVG-20010904/DTD/svg10.dtd">
<svg version="1.0" xmlns="http://www.w3.org/2000/svg"
 width="468pt" height="468pt" viewBox="0 0 468 468"
 preserveAspectRatio="xMidYMid meet">
<metadata>
Created by potrace 1.8, written by Peter Selinger 2001-2007
</metadata>
<g transform="translate(0,468) scale(0.531818,-0.531818)"
fill="#000000" stroke="none">
<path d="M595 688 c-2 -7 -6 -35 -7 -63 l-3 -49 -45 -11 c-64 -15 -62 -41 3
-38 47 3 47 3 41 -25 -3 -15 -19 -47 -35 -72 -15 -25 -40 -64 -54 -87 l-27
-43 32 -90 c31 -85 53 -120 66 -107 4 3 -3 42 -15 85 -20 74 -23 133 -7 149 3
4 36 -24 73 -63 58 -60 67 -66 70 -47 3 13 -12 48 -36 88 -46 75 -48 83 -25
127 10 18 14 42 10 59 -5 27 -3 29 24 29 36 0 80 16 80 29 0 6 -22 13 -48 17
l-48 6 -13 59 c-11 56 -26 75 -36 47z"/>
<path d="M260 605 l0 -75 -45 0 c-33 0 -45 -4 -45 -15 0 -13 15 -17 87 -28 8
-1 -4 -36 -34 -97 -54 -108 -58 -144 -25 -210 30 -62 72 -106 131 -135 81 -41
97 -30 29 20 -79 58 -154 213 -119 248 6 6 11 19 11 29 0 29 18 21 46 -22 24
-36 58 -59 70 -47 9 8 -15 55 -46 91 -29 32 -31 40 -25 78 8 47 18 58 53 58
27 0 41 28 21 41 -8 5 -26 6 -41 3 -29 -6 -26 -14 -43 101 -10 62 -25 37 -25
-40z"/>
</g>
</svg>
