<?xml version="1.0" standalone="no"?>
<!DOCTYPE svg PUBLIC "-//W3C//DTD SVG 20010904//EN"
 "http://www.w3.org/TR/2001/REC-SVG-20010904/DTD/svg10.dtd">
<svg version="1.0" xmlns="http://www.w3.org/2000/svg"
 width="468pt" height="468pt" viewBox="0 0 468 468"
 preserveAspectRatio="xMidYMid meet">
<metadata>
Created by potrace 1.8, written by Peter Selinger 2001-2007
</metadata>
<g transform="translate(0,468) scale(0.624000,-0.624000)"
fill="#000000" stroke="none">
<path d="M257 543 c-65 -169 -61 -150 -39 -187 24 -40 39 -131 41 -238 1 -38
5 -48 18 -48 14 0 15 13 10 122 -3 66 -11 126 -17 132 -5 5 -10 18 -10 28 0
10 -4 18 -10 18 -5 0 -10 9 -10 20 0 23 12 25 41 8 14 -8 23 -9 25 -3 2 6 18
30 34 55 33 50 21 71 -15 26 -11 -14 -26 -26 -33 -26 -14 0 -16 46 -2 55 15 9
13 85 -3 85 -6 0 -20 -21 -30 -47z"/>
<path d="M390 460 c-7 -16 -15 -30 -19 -30 -4 0 -13 -21 -20 -46 -10 -34 -11
-48 -2 -57 15 -15 15 -198 -1 -232 -13 -29 -8 -38 16 -29 9 3 16 16 16 28 0
12 5 27 11 33 11 11 7 150 -6 211 -10 42 13 44 43 2 28 -38 48 -38 55 -1 3 16
12 35 19 42 8 8 24 29 37 47 39 56 12 50 -40 -8 l-49 -55 -21 22 c-20 19 -21
25 -10 52 12 29 9 51 -8 51 -5 0 -14 -13 -21 -30z"/>
</g>
</svg>
