<?xml version="1.0" standalone="no"?>
<!DOCTYPE svg PUBLIC "-//W3C//DTD SVG 20010904//EN"
 "http://www.w3.org/TR/2001/REC-SVG-20010904/DTD/svg10.dtd">
<svg version="1.0" xmlns="http://www.w3.org/2000/svg"
 width="468pt" height="468pt" viewBox="0 0 468 468"
 preserveAspectRatio="xMidYMid meet">
<metadata>
Created by potrace 1.8, written by Peter Selinger 2001-2007
</metadata>
<g transform="translate(0,468) scale(0.544186,-0.544186)"
fill="#000000" stroke="none">
<path d="M161 621 c-8 -5 -11 -16 -8 -25 5 -12 25 -16 89 -18 l82 -3 8 -35 c5
-19 6 -59 2 -87 l-5 -53 -70 0 c-76 0 -87 8 -70 53 8 20 17 27 38 27 43 0 73
11 73 26 0 18 -130 20 -148 2 -17 -17 -15 -103 3 -122 9 -9 45 -17 95 -22 l80
-7 0 -57 c0 -32 -3 -72 -6 -89 -6 -30 -8 -31 -59 -31 -69 0 -85 7 -85 35 0 25
8 29 73 41 61 10 41 34 -29 34 -50 0 -86 -38 -82 -87 4 -48 31 -63 116 -63
l62 0 0 -34 c0 -25 7 -40 26 -55 23 -18 41 -21 124 -21 79 0 99 3 104 15 9 23
-33 35 -125 35 l-79 0 0 29 0 29 100 4 c59 2 104 8 111 15 6 6 14 34 17 62 4
47 3 50 -26 65 -50 26 -165 17 -160 -13 2 -12 19 -17 63 -21 56 -5 60 -7 63
-31 3 -22 -2 -27 -29 -33 -17 -3 -56 -6 -86 -6 l-54 0 3 87 3 88 65 2 c139 6
160 18 160 93 0 70 -17 84 -98 77 -101 -8 -113 -37 -19 -47 50 -5 52 -6 55
-36 3 -30 1 -32 -42 -38 -25 -4 -61 -4 -81 0 l-35 6 0 87 c0 120 -5 125 -117
129 -48 1 -94 -1 -102 -7z"/>
</g>
</svg>
