<?xml version="1.0" encoding="UTF-8" standalone="no"?>
<!-- Created with Inkscape (http://www.inkscape.org/) -->

<svg
   xmlns:dc="http://purl.org/dc/elements/1.1/"
   xmlns:cc="http://creativecommons.org/ns#"
   xmlns:rdf="http://www.w3.org/1999/02/22-rdf-syntax-ns#"
   xmlns:svg="http://www.w3.org/2000/svg"
   xmlns="http://www.w3.org/2000/svg"
   version="1.1"
   width="300"
   height="300"
   id="svg2">
  <defs
     id="defs4" />
  <metadata
     id="metadata7">
    <rdf:RDF>
      <cc:Work
         rdf:about="">
        <dc:format>image/svg+xml</dc:format>
        <dc:type
           rdf:resource="http://purl.org/dc/dcmitype/StillImage" />
        <dc:title></dc:title>
      </cc:Work>
    </rdf:RDF>
  </metadata>
  <g
     transform="translate(0,-752.36218)"
     id="layer1">
    <path
       d="M 213.99045,1033.639 C 198.39614,1018.0447 184.50393,995.12036 170.7388,962.2669 160.48357,937.7906 163.15764,939.13325 128.58732,941.10273 98.278256,942.82945 98.255046,942.82645 90.323706,936.15266 79.129177,926.73309 72.07936,906.43304 72.07936,883.61781 72.07936,873.54956 70.885425,856.39126 69.426169,845.48826 67.282168,829.46911 67.489875,822.92359 70.508446,811.3822 77.547066,784.47029 90.407244,774.28212 117.33864,774.28212 125.35187,774.28212 134.51937,773.29878 137.71087,772.09693 140.90235,770.89506 156.48453,769.12738 172.33791,768.16875 196.02333,766.73652 202.05596,767.09602 206.17516,770.18522 213.74508,775.86226 207.79755,780.0845 188.04691,783.05475 172.01982,785.46502 171.29796,785.88028 169.23736,793.87537 168.05878,798.44816 167.42834,809.16329 167.83636,817.68677 L 168.57821,833.18402 189.88315,834.43725 C 213.22192,835.81013 217.45425,837.35793 217.45425,844.52027 217.45425,848.83944 215.12494,849.36288 193.01623,850.01188 L 168.57821,850.72926 167.69635,863.26159 C 166.70598,877.3359 170.94628,908.89392 176.62105,929.68287 182.07963,949.67981 202.34072,988.90256 218.49692,1010.7491 233.60364,1031.1764 234.57621,1033.6186 228.52834,1035.9394 222.17673,1038.3768 218.08,1037.7286 213.99045,1033.639 z M 155.47074,919.98153 C 156.56927,918.88301 155.99627,903.97975 154.19743,886.8632 L 150.9268,855.74219 125.91525,855.74283 C 112.1589,855.74318 97.801946,856.61059 94.010916,857.67043 87.702201,859.43412 87.131193,860.60218 87.272171,871.45535 87.356887,877.97721 88.788748,891.1863 90.454082,900.80886 94.428704,923.77485 97.399596,925.49034 129.69503,923.46792 142.77314,922.64893 154.37221,921.08006 155.47074,919.98153 z M 134.79716,836.45613 C 150.46408,832.83977 152.82249,828.40456 151.76412,804.54819 L 151.03297,788.06768 129.64131,788.55106 C 103.79427,789.13512 96.102416,791.74999 90.955858,801.70235 85.316552,812.60757 83.222369,830.99636 87.089145,835.65555 90.997751,840.36513 116.04178,840.78539 134.79716,836.45613 z"
       id="path3009"
       style="fill:#000000" />
  </g>
</svg>
