<?xml version="1.0" encoding="UTF-8" standalone="no"?>
<!-- Created with Inkscape (http://www.inkscape.org/) -->
<svg
   xmlns:dc="http://purl.org/dc/elements/1.1/"
   xmlns:cc="http://web.resource.org/cc/"
   xmlns:rdf="http://www.w3.org/1999/02/22-rdf-syntax-ns#"
   xmlns:svg="http://www.w3.org/2000/svg"
   xmlns="http://www.w3.org/2000/svg"
   xmlns:sodipodi="http://sodipodi.sourceforge.net/DTD/sodipodi-0.dtd"
   xmlns:inkscape="http://www.inkscape.org/namespaces/inkscape"
   width="300"
   height="300"
   id="svg2"
   sodipodi:version="0.32"
   inkscape:version="0.45.1"
   version="1.0"
   sodipodi:docbase="C:\Documents and Settings\Martin\桌面"
   sodipodi:docname="drawing.svg"
   inkscape:output_extension="org.inkscape.output.svg.inkscape">
  <defs
     id="defs4" />
  <sodipodi:namedview
     id="base"
     pagecolor="#ffffff"
     bordercolor="#666666"
     borderopacity="1.0"
     gridtolerance="10000"
     guidetolerance="10"
     objecttolerance="10"
     inkscape:pageopacity="0.0"
     inkscape:pageshadow="2"
     inkscape:zoom="2.8"
     inkscape:cx="146.32605"
     inkscape:cy="150.70368"
     inkscape:document-units="px"
     inkscape:current-layer="layer1"
     width="300px"
     height="300px"
     inkscape:window-width="742"
     inkscape:window-height="577"
     inkscape:window-x="50"
     inkscape:window-y="0" />
  <metadata
     id="metadata7">
    <rdf:RDF>
      <cc:Work
         rdf:about="">
        <dc:format>image/svg+xml</dc:format>
        <dc:type
           rdf:resource="http://purl.org/dc/dcmitype/StillImage" />
      </cc:Work>
    </rdf:RDF>
  </metadata>
  <g
     inkscape:label="Layer 1"
     inkscape:groupmode="layer"
     id="layer1">
    <path
       style="fill:#000000"
       d="M 157.04804,288.63365 C 151.42248,287.04418 133.36482,248.15537 129.67631,229.68624 C 125.68853,209.71843 125.83413,170.53916 129.97171,150.20118 C 143.01835,86.071554 141.68116,62.494474 123.15689,30.043794 C 115.67827,16.942784 115.26845,10.017554 121.97179,10.017554 C 132.53315,10.017554 148.76724,34.009484 152.68675,55.410354 C 153.62814,60.550424 155.0378,67.759854 155.81933,71.431334 C 158.73481,85.127624 157.166,108.80056 151.99245,129.17845 C 149.05693,140.74095 146.07278,153.4857 145.36099,157.5001 C 141.09873,169.30991 140.82669,181.27019 140.77418,193.80772 C 140.96417,218.1664 147.60762,244.82824 156.84791,258.31548 C 164.28869,269.17616 170.80486,284.89753 169.04551,287.74421 C 167.38566,290.42992 164.23267,290.66367 157.04804,288.63365 z M 96.408735,284.37695 C 84.315935,268.54616 78.667125,209.02464 85.971085,174.39568 C 89.507835,157.6275 94.246005,153.05425 99.970765,160.88328 C 102.52816,164.38074 102.6916,167.01916 100.59371,170.93909 C 97.798315,176.16234 98.990445,237.62592 102.56085,272.36121 C 104.10466,287.38043 101.93699,291.61409 96.408735,284.37695 z M 204.18976,277.49129 C 200.5883,267.90785 191.88992,260.00727 188.16216,250.99989 C 187.30928,248.42986 184.63786,241.52081 182.22569,235.64645 C 176.17013,220.89945 176.06431,170.32805 182.05899,155.98081 C 187.68214,142.52269 195.93607,143.11747 195.41721,156.94337 C 193.88296,197.82471 194.16033,215.22327 196.43782,220.96054 C 197.89525,224.63202 200.62403,232.44225 202.5018,238.31661 C 204.37956,244.19098 208.83622,253.63374 212.40551,259.30053 C 222.55906,275.42085 215.81983,290.34236 204.18976,277.49129 z M 83.093535,132.17757 C 83.881505,128.87325 86.558555,118.96027 89.042495,110.14873 C 92.322795,98.512304 93.192925,88.098954 92.221835,72.098874 C 91.486535,59.983014 91.686475,50.070024 92.666155,50.070024 C 93.645865,50.070024 96.644325,52.635804 99.329415,55.771764 C 103.37236,60.493594 104.2423,66.401724 104.39122,90.149024 C 104.60542,124.30308 100.01935,138.18544 88.522295,138.18544 C 82.762385,138.18544 81.890865,137.22098 83.093535,132.17757 z M 187.75188,129.16785 C 183.29343,125.90774 183.16099,124.45835 186.29793,113.25437 C 189.66268,101.23662 189.18769,77.098814 184.83126,38.721824 C 183.22417,24.564394 183.5047,23.368384 188.43243,23.368384 C 191.37164,23.368384 194.9161,24.870344 196.30899,26.706084 C 204.38501,37.349634 207.99526,92.324304 202.14418,115.56099 C 198.45471,130.21322 194.4105,134.03672 187.75188,129.16785 z "
       id="path4560"
       sodipodi:nodetypes="csssssssccssccsssscccssssssccssssssccsssssc" />
  </g>
</svg>
