<?xml version="1.0" encoding="UTF-8"?>
<!DOCTYPE svg PUBLIC "-//W3C//DTD SVG 1.1//EN" "http://www.w3.org/Graphics/SVG/1.1/DTD/svg11.dtd">
<!-- Creator: CorelDRAW -->
<svg xmlns="http://www.w3.org/2000/svg" xml:space="preserve" width="300px" height="300px" style="shape-rendering:geometricPrecision; text-rendering:geometricPrecision; image-rendering:optimizeQuality; fill-rule:evenodd; clip-rule:evenodd"
viewBox="0 0 192.633 242.791"
 xmlns:xlink="http://www.w3.org/1999/xlink">
 <defs>
  <style type="text/css">
   <![CDATA[
    .fil0 {fill:black}
   ]]>
  </style>
 </defs>
 <g id="图层_x0020_1">
  <metadata id="CorelCorpID_0Corel-Layer"/>
  <g id="_102162768">
   <path id="_102161640" class="fil0" d="M181.11 49.0398c-11.976,0.500531 -13.9342,0.0296233 -23.4289,1.7539 -6.63357,1.20434 -11.975,2.94496 -13.7677,10.4243 -4.24328,17.7004 -3.36888,37.1169 -1.89998,55.2597 1.27687,15.7626 4.02366,27.5599 22.1092,30.276 6.60803,0.99289 15.0803,0.935687 23.2941,2.15024 7.75925,1.14816 6.08094,15.3101 0.0745689,15.4909 -10.8768,0.32892 -22.481,-0.179783 -33.2731,-2.78765 -17.2653,-4.1728 -25.1747,-17.8026 -26.8152,-45.8006 -1.15633,-19.7495 -1.87955,-38.6655 2.22685,-58.6051 1.44745,-7.03093 5.95428,-17.5247 14.9117,-20.1295 12.1772,-3.54049 21.9304,-4.0543 35.457,-3.54151 5.5467,0.209406 6.28933,15.2938 1.11138,15.5093z"/>
   <path id="_102162792" class="fil0" d="M85.029 177.748c-0.548541,30.988 -48.4892,36.3886 -81.2566,49.5322 -8.50494,3.41178 -1.2166,17.8271 7.90941,15.1988 29.8827,-8.60811 57.0187,-11.9382 81.2117,-36.9239 19.4584,16.3623 59.698,31.9043 84.6858,36.9208 10.9361,2.19621 13.5562,-16.1018 5.7653,-17.7515 -31.6397,-6.70405 -82.4926,-27.0512 -82.0391,-46.3042 0.174675,-57.3507 -1.42396,-113.852 -1.16144,-173.747 0.0245158,-5.82251 -16.3153,-6.41191 -16.5788,-0.59553 0.444349,61.6031 2.43524,118.749 1.4638,173.67z"/>
   <path id="_103135544" class="fil0" d="M17.7076 46.9784c12.6175,1.21251 22.9897,-0.121558 24.6946,8.88698 4.66515,24.6568 5.73874,47.1929 0.180804,70.1357 -4.22183,17.4267 -19.8016,21.7537 -35.4836,29.7622 -6.22497,3.17888 -0.165482,17.3439 7.02582,14.6513 20.15,-7.54576 39.9975,-19.061 43.6269,-35.9024 6.34142,-29.4312 4.2014,-54.2862 0.271717,-83.0044 -2.424,-17.7219 -17.4614,-20.9038 -39.6513,-19.6525 -8.63672,0.487252 -8.16989,14.403 -0.664991,15.1232z"/>
  </g>
 </g>
</svg>
