<?xml version="1.0" encoding="UTF-8" standalone="no"?>
<!-- Created with Inkscape (http://www.inkscape.org/) -->
<svg xmlns:dc="http://purl.org/dc/elements/1.1/" xmlns:cc="http://creativecommons.org/ns#" xmlns:rdf="http://www.w3.org/1999/02/22-rdf-syntax-ns#" xmlns:svg="http://www.w3.org/2000/svg" xmlns="http://www.w3.org/2000/svg" xmlns:sodipodi="http://sodipodi.sourceforge.net/DTD/sodipodi-0.dtd" xmlns:inkscape="http://www.inkscape.org/namespaces/inkscape" width="300" height="300" id="svg2400" sodipodi:version="0.32" inkscape:version="0.46" version="1.0" sodipodi:docname="ç«.svg" inkscape:output_extension="org.inkscape.output.svg.inkscape">
  <defs id="defs2402">
    <inkscape:perspective sodipodi:type="inkscape:persp3d" inkscape:vp_x="0 : 526.18109 : 1" inkscape:vp_y="0 : 1000 : 0" inkscape:vp_z="744.09448 : 526.18109 : 1" inkscape:persp3d-origin="372.04724 : 350.78739 : 1" id="perspective2408"/>
    <inkscape:perspective id="perspective3684" inkscape:persp3d-origin="372.04724 : 350.78739 : 1" inkscape:vp_z="744.09448 : 526.18109 : 1" inkscape:vp_y="0 : 1000 : 0" inkscape:vp_x="0 : 526.18109 : 1" sodipodi:type="inkscape:persp3d"/>
    <inkscape:perspective id="perspective3736" inkscape:persp3d-origin="372.04724 : 350.78739 : 1" inkscape:vp_z="744.09448 : 526.18109 : 1" inkscape:vp_y="0 : 1000 : 0" inkscape:vp_x="0 : 526.18109 : 1" sodipodi:type="inkscape:persp3d"/>
  </defs>
  <sodipodi:namedview id="base" pagecolor="#ffffff" bordercolor="#666666" borderopacity="1.0" gridtolerance="10000" guidetolerance="10" objecttolerance="10" inkscape:pageopacity="0.0" inkscape:pageshadow="2" inkscape:zoom="1.4" inkscape:cx="164.84209" inkscape:cy="212.96325" inkscape:document-units="px" inkscape:current-layer="layer1" showgrid="false" width="300px" inkscape:window-width="1280" inkscape:window-height="953" inkscape:window-x="0" inkscape:window-y="25"/>
  <metadata id="metadata2405">
    <rdf:RDF>
      <cc:Work rdf:about="">
        <dc:format>image/svg+xml</dc:format>
        <dc:type rdf:resource="http://purl.org/dc/dcmitype/StillImage"/>
      </cc:Work>
    </rdf:RDF>
  </metadata>
  <g inkscape:label="Layer 1" inkscape:groupmode="layer" id="layer1">
    <path style="fill: rgb(0, 0, 0);" d="M 77.827963,257.56931 C 69.096893,255.1396 55.949503,247.14786 48.611543,239.8099 C 37.472233,228.67059 35.269783,223.48211 35.269783,208.37966 C 35.269783,188.41493 52.690843,146.02093 66.986893,131.19635 C 73.602163,121.71881 76.168513,115.14196 83.227923,108.21827 C 92.418823,99.900617 94.697563,102.47073 104.16023,131.82715 C 111.29817,153.97147 115.93076,157.58968 125.23397,148.28648 C 134.47996,139.04049 137.37958,110.62862 132.37142,78.350273 C 129.94314,62.699562 127.95635,47.0683 127.95635,43.614129 C 127.95635,33.430782 138.21701,36.427799 144.39583,48.415909 C 147.53735,54.511058 151.47823,60.516427 153.15335,61.761175 C 154.82847,63.00592 158.45823,73.706995 161.21948,85.541336 C 166.01923,106.1124 171.85794,114.42007 197.4362,137.07263 C 211.26699,149.32142 213.97915,148.50568 210.83444,133.04278 C 204.07572,99.809256 203.71181,93.75173 208.47399,93.75173 C 226.99749,99.757762 224.63465,115.81651 232.78059,127.16808 C 262.15656,162.22965 270.59328,187.31577 260.88847,210.74526 C 254.29568,226.66166 229.77612,245.71561 203.55227,255.30076 C 187.11291,261.30956 172.70336,262.89337 138.08787,262.49621 C 113.67598,262.21613 86.559023,259.99902 77.827963,257.56931 z M 115.03791,190.76614 C 88.602103,190.09441 86.547343,187.38165 89.158573,176.97769 C 90.454153,171.81567 89.168823,164.38473 86.302273,160.46448 C 81.434983,153.80807 80.643853,154.01824 74.337423,163.64307 C 70.623293,169.31153 65.383663,182.17794 62.693793,192.23509 C 58.270253,208.77417 58.591383,211.58396 66.055683,221.65119 C 70.594603,227.7729 80.485433,234.83929 88.035293,237.35427 C 106.71745,243.5776 186.44392,242.4005 193.03932,235.80397 C 195.80936,233.03344 201.14816,230.76665 204.90331,230.76665 C 208.65847,230.76665 217.36294,225.5055 224.2466,219.07521 C 233.76335,210.18523 236.76233,203.90871 236.76233,192.88118 C 236.76233,184.90476 236.21771,178.37859 235.55207,178.37859 C 234.88643,178.37859 224.04435,188.35247 211.45856,200.54277 C 198.87277,212.73307 186.72336,222.70695 184.45986,222.70695 C 176.51505,222.70695 180.46394,210.41897 192.43397,197.89348 C 207.59552,182.02838 207.62834,176.16128 192.59899,168.38931 C 186.0405,164.99778 176.04307,157.5915 170.38248,151.93091 C 159.01026,140.55869 155.27945,142.18653 144.40225,163.26666 C 139.69434,172.01243 132.5355,174.24985 131.9862,184.47099 C 131.9862,194.0692 131.45665,193.21907 115.21648,190.94471" id="path3742" sodipodi:nodetypes="cssccsssssssssccsssccsssssscsssssssssccs"/>
  </g>
</svg>