<?xml version="1.0" encoding="UTF-8" standalone="no"?>
<!-- Created with Inkscape (http://www.inkscape.org/) -->
<svg
   xmlns:dc="http://purl.org/dc/elements/1.1/"
   xmlns:cc="http://web.resource.org/cc/"
   xmlns:rdf="http://www.w3.org/1999/02/22-rdf-syntax-ns#"
   xmlns:svg="http://www.w3.org/2000/svg"
   xmlns="http://www.w3.org/2000/svg"
   xmlns:sodipodi="http://sodipodi.sourceforge.net/DTD/sodipodi-0.dtd"
   xmlns:inkscape="http://www.inkscape.org/namespaces/inkscape"
   width="300"
   height="300"
   id="svg2"
   sodipodi:version="0.32"
   inkscape:version="0.45.1"
   version="1.0"
   sodipodi:docbase="C:\Documents and Settings\Martin\桌面"
   sodipodi:docname="火-seal.svg"
   inkscape:output_extension="org.inkscape.output.svg.inkscape">
  <defs
     id="defs4" />
  <sodipodi:namedview
     id="base"
     pagecolor="#ffffff"
     bordercolor="#666666"
     borderopacity="1.0"
     gridtolerance="10000"
     guidetolerance="10"
     objecttolerance="10"
     inkscape:pageopacity="0.0"
     inkscape:pageshadow="2"
     inkscape:zoom="0.5"
     inkscape:cx="156.43189"
     inkscape:cy="128.73594"
     inkscape:document-units="px"
     inkscape:current-layer="layer1"
     width="300px"
     height="300px"
     inkscape:window-width="742"
     inkscape:window-height="577"
     inkscape:window-x="110"
     inkscape:window-y="145" />
  <metadata
     id="metadata7">
    <rdf:RDF>
      <cc:Work
         rdf:about="">
        <dc:format>image/svg+xml</dc:format>
        <dc:type
           rdf:resource="http://purl.org/dc/dcmitype/StillImage" />
      </cc:Work>
    </rdf:RDF>
  </metadata>
  <g
     inkscape:label="Layer 1"
     inkscape:groupmode="layer"
     id="layer1">
    <path
       style="fill:#000000"
       d="M 220.58682,278.61055 C 204.55006,267.75645 161.84667,217.31922 158.36853,213.33851 C 155.34453,209.87754 150.59323,203.12555 149.00998,205.52511 C 148.61432,206.12504 146.45626,210.26248 144.21458,214.71964 C 138.2564,226.5657 113.07147,251.00275 99.39209,258.21085 C 86.648731,265.6798 72.825766,278.17956 57.090171,272.41295 C 54.238856,267.79935 58.419018,260.79831 64.024739,260.79831 C 81.427083,252.35652 100.81375,236.28376 115.97852,221.99368 C 138.46206,199.64931 144.06725,182.99177 147.33245,128.81525 C 152.89364,36.546045 154.64623,18.478416 158.25129,16.250318 C 166.11735,11.388863 174.2137,21.542904 171.0161,32.259205 C 170.21809,34.933592 168.75086,49.625397 167.75557,64.907641 C 166.76025,80.189845 165.462,93.497877 164.87076,94.480833 C 164.27937,95.463798 163.71344,117.55709 163.61299,143.5771 C 163.42785,191.50206 163.8705,194.07851 174.87117,209.11619 C 179.14297,214.95573 210.26633,246.02289 216.97986,251.14882 C 239.47452,268.3243 244.50775,273.50707 243.76105,278.72568 C 242.55766,287.1339 233.11062,287.08696 220.58682,278.61055 z M 202.38774,173.96735 C 202.02016,154.05036 202.97967,113.79107 204.03906,104.68238 C 204.51624,100.57865 205.79894,86.512049 206.88922,73.423206 C 208.58184,53.101951 209.60144,49.625397 213.86855,49.625397 C 216.61678,49.625397 219.4429,51.188356 220.14868,53.098641 C 220.85449,55.008924 220.77533,84.665199 219.97282,119.00141 C 218.47795,182.95974 217.43623,188.55486 207.02344,188.55486 C 203.64261,188.55486 202.5962,185.26215 202.38774,173.96735 z M 92.562643,173.38835 C 91.625138,170.94532 91.694609,158.6666 92.716944,146.10223 C 93.73933,133.53799 95.64904,107.00327 96.960677,87.136333 C 99.515801,48.437692 101.0802,41.289625 106.99515,41.289625 C 113.16846,41.289625 116.46686,50.910017 115.22616,65.2979 C 113.48023,85.548334 108.07987,155.21653 107.39522,166.32618 C 106.91725,174.07884 105.5252,176.23167 100.53145,176.94083 C 96.735436,177.47979 93.595579,176.08012 92.562643,173.38835 z "
       id="path2185"
       sodipodi:nodetypes="csssccccsssssssssccssssssccssssssc" />
  </g>
</svg>
