<?xml version="1.0" encoding="UTF-8" standalone="no"?>
<!-- Created with Inkscape (http://www.inkscape.org/) -->
<svg
   xmlns:dc="http://purl.org/dc/elements/1.1/"
   xmlns:cc="http://creativecommons.org/ns#"
   xmlns:rdf="http://www.w3.org/1999/02/22-rdf-syntax-ns#"
   xmlns:svg="http://www.w3.org/2000/svg"
   xmlns="http://www.w3.org/2000/svg"
   xmlns:sodipodi="http://sodipodi.sourceforge.net/DTD/sodipodi-0.dtd"
   xmlns:inkscape="http://www.inkscape.org/namespaces/inkscape"
   width="300"
   height="300"
   id="svg2400"
   sodipodi:version="0.32"
   inkscape:version="0.46"
   version="1.0"
   sodipodi:docname="爪-bronze.svg"
   inkscape:output_extension="org.inkscape.output.svg.inkscape">
  <defs
     id="defs2402">
    <inkscape:perspective
       sodipodi:type="inkscape:persp3d"
       inkscape:vp_x="0 : 526.18109 : 1"
       inkscape:vp_y="0 : 1000 : 0"
       inkscape:vp_z="744.09448 : 526.18109 : 1"
       inkscape:persp3d-origin="372.04724 : 350.78739 : 1"
       id="perspective2408" />
    <inkscape:perspective
       id="perspective3684"
       inkscape:persp3d-origin="372.04724 : 350.78739 : 1"
       inkscape:vp_z="744.09448 : 526.18109 : 1"
       inkscape:vp_y="0 : 1000 : 0"
       inkscape:vp_x="0 : 526.18109 : 1"
       sodipodi:type="inkscape:persp3d" />
    <inkscape:perspective
       id="perspective3736"
       inkscape:persp3d-origin="372.04724 : 350.78739 : 1"
       inkscape:vp_z="744.09448 : 526.18109 : 1"
       inkscape:vp_y="0 : 1000 : 0"
       inkscape:vp_x="0 : 526.18109 : 1"
       sodipodi:type="inkscape:persp3d" />
    <inkscape:perspective
       id="perspective2465"
       inkscape:persp3d-origin="372.04724 : 350.78739 : 1"
       inkscape:vp_z="744.09448 : 526.18109 : 1"
       inkscape:vp_y="0 : 1000 : 0"
       inkscape:vp_x="0 : 526.18109 : 1"
       sodipodi:type="inkscape:persp3d" />
    <inkscape:perspective
       id="perspective2537"
       inkscape:persp3d-origin="372.04724 : 350.78739 : 1"
       inkscape:vp_z="744.09448 : 526.18109 : 1"
       inkscape:vp_y="0 : 1000 : 0"
       inkscape:vp_x="0 : 526.18109 : 1"
       sodipodi:type="inkscape:persp3d" />
    <inkscape:perspective
       id="perspective2620"
       inkscape:persp3d-origin="372.04724 : 350.78739 : 1"
       inkscape:vp_z="744.09448 : 526.18109 : 1"
       inkscape:vp_y="0 : 1000 : 0"
       inkscape:vp_x="0 : 526.18109 : 1"
       sodipodi:type="inkscape:persp3d" />
    <inkscape:perspective
       id="perspective2672"
       inkscape:persp3d-origin="372.04724 : 350.78739 : 1"
       inkscape:vp_z="744.09448 : 526.18109 : 1"
       inkscape:vp_y="0 : 1000 : 0"
       inkscape:vp_x="0 : 526.18109 : 1"
       sodipodi:type="inkscape:persp3d" />
  </defs>
  <sodipodi:namedview
     id="base"
     pagecolor="#ffffff"
     bordercolor="#666666"
     borderopacity="1.0"
     gridtolerance="10000"
     guidetolerance="10"
     objecttolerance="10"
     inkscape:pageopacity="0.0"
     inkscape:pageshadow="2"
     inkscape:zoom="0.98994949"
     inkscape:cx="83.365818"
     inkscape:cy="140.16155"
     inkscape:document-units="px"
     inkscape:current-layer="layer1"
     showgrid="false"
     width="300px"
     inkscape:window-width="1280"
     inkscape:window-height="951"
     inkscape:window-x="0"
     inkscape:window-y="25" />
  <metadata
     id="metadata2405">
    <rdf:RDF>
      <cc:Work
         rdf:about="">
        <dc:format>image/svg+xml</dc:format>
        <dc:type
           rdf:resource="http://purl.org/dc/dcmitype/StillImage" />
      </cc:Work>
    </rdf:RDF>
  </metadata>
  <g
     inkscape:label="Layer 1"
     inkscape:groupmode="layer"
     id="layer1">
    <path
       style="fill:#000000"
       d="M 201.12458,272.56051 C 188.18489,258.95807 189.18933,264.42175 187.85298,200.36937 C 187.49985,183.44325 186.20079,166.47865 184.96618,162.67027 C 182.49238,155.03934 173.59656,153.51844 167.19928,159.6327 C 152.27622,173.89551 112.64063,184.28861 98.222846,177.71942 C 85.853796,172.0837 89.741346,168.78216 113.1236,165.06481 C 141.0865,160.61924 150.27202,157.08971 161.72723,146.38894 C 168.4327,140.12509 170.82631,135.07481 170.82631,127.19076 C 170.82631,113.37011 165.85195,109.57854 144.8803,107.41408 L 127.74162,105.64522 L 127.74162,121.40451 C 127.74162,135.75256 127.03504,137.34116 119.85135,139.14416 C 100.59387,143.97748 61.790436,139.75565 63.991746,133.06662 C 64.621486,131.15305 73.798916,128.88961 84.386036,128.03677 C 98.671786,126.88599 104.75945,124.94884 107.99478,120.52425 C 115.56526,110.171 112.94041,107.80503 89.517466,103.86928 C 68.228146,100.29205 57.362866,94.818995 62.115476,90.066394 C 65.138446,87.043412 104.77353,87.734853 128.97259,91.232735 C 157.81416,95.401657 169.20032,92.886014 176.21012,80.796115 C 185.77096,64.30642 177.6539,32.646846 163.86535,32.646846 C 154.10571,29.333384 145.99379,26.22611 135.0614,27.8711 C 129.75663,29.184952 128.25131,32.414719 127.03267,45.097289 C 125.26681,63.474982 123.17053,66.092139 107.34492,69.676945 C 93.662606,72.776247 60.740456,70.12686 58.008616,65.706638 C 55.115426,61.025368 63.511006,57.365186 77.259796,57.313792 C 94.951326,57.247656 109.27676,49.552424 109.27676,40.115139 C 109.27676,33.04798 108.29574,32.646846 91.012226,32.646846 C 80.966746,32.646846 69.195396,31.296259 64.853676,29.645539 C 42.857616,21.282649 68.712706,14.230404 118.29944,15.067655 C 160.99986,15.788634 175.11892,20.244089 187.57797,36.929411 C 194.61803,46.357538 196.86552,71.544075 201.06392,188.05946 C 202.28372,221.91171 204.36464,251.84495 205.68818,254.57775 C 208.77882,260.9592 221.05209,266.53514 232.00775,266.53514 C 236.72383,266.53514 241.41028,267.36296 242.42207,268.37475 C 246.14038,277.73504 232.58379,283.60941 222.66692,285 C 215.3263,285 210.07142,281.9656 201.12458,272.56051 z"
       id="path2678"
       sodipodi:nodetypes="cssssssscccssssssssccssssssssssssccc" />
  </g>
</svg>
