<?xml version="1.0" encoding="UTF-8" standalone="no"?>
<!-- Created with Inkscape (http://www.inkscape.org/) -->

<svg
   xmlns:dc="http://purl.org/dc/elements/1.1/"
   xmlns:cc="http://creativecommons.org/ns#"
   xmlns:rdf="http://www.w3.org/1999/02/22-rdf-syntax-ns#"
   xmlns:svg="http://www.w3.org/2000/svg"
   xmlns="http://www.w3.org/2000/svg"
   xmlns:sodipodi="http://sodipodi.sourceforge.net/DTD/sodipodi-0.dtd"
   xmlns:inkscape="http://www.inkscape.org/namespaces/inkscape"
   width="300"
   height="300"
   id="svg2"
   version="1.1"
   inkscape:version="0.48.2 r9819"
   sodipodi:docname="Nouveau document 1">
  <defs
     id="defs4" />
  <sodipodi:namedview
     id="base"
     pagecolor="#ffffff"
     bordercolor="#666666"
     borderopacity="1.0"
     inkscape:pageopacity="0.0"
     inkscape:pageshadow="2"
     inkscape:zoom="1.979899"
     inkscape:cx="222.77992"
     inkscape:cy="144.31651"
     inkscape:document-units="px"
     inkscape:current-layer="layer1"
     showgrid="false"
     inkscape:window-width="1280"
     inkscape:window-height="999"
     inkscape:window-x="0"
     inkscape:window-y="24"
     inkscape:window-maximized="1" />
  <metadata
     id="metadata7">
    <rdf:RDF>
      <cc:Work
         rdf:about="">
        <dc:format>image/svg+xml</dc:format>
        <dc:type
           rdf:resource="http://purl.org/dc/dcmitype/StillImage" />
        <dc:title></dc:title>
      </cc:Work>
    </rdf:RDF>
  </metadata>
  <g
     inkscape:label="Calque 1"
     inkscape:groupmode="layer"
     id="layer1"
     transform="translate(0,-752.36218)">
    <path
       style="fill:#000000"
       d="m 96.81939,1021.5249 c 0,-1.9436 6.97685,-14.3955 15.50409,-27.67072 20.59559,-32.06338 27.62975,-58.47005 27.62975,-103.72375 l 0,-36.27333 -11.68208,2.19885 c -27.16472,5.11306 -31.225093,11.76504 -37.327392,61.15234 -4.629957,37.47125 -14.115158,61.84958 -27.200962,69.91036 -10.575786,6.51463 -10.970709,0.0507 -1.645797,-26.93779 4.97275,-14.39228 10.101108,-38.21796 11.396353,-52.94594 1.295241,-14.728 3.871571,-31.7221 5.725177,-37.76467 4.302205,-14.02479 19.714873,-25.31533 41.664841,-30.52153 9.49994,-2.25324 19.29452,-4.63046 21.76573,-5.28269 2.47121,-0.65224 4.49312,-5.03635 4.49312,-9.74249 0,-17.10248 20.36921,-34.43707 46.72833,-39.76669 l 12.5807,-2.54373 -22.81556,21.30512 c -27.22481,25.42246 -28.17126,33.16418 -4.54425,37.17061 18.96223,3.21543 31.99656,11.15241 36.15455,22.01555 1.69518,4.42881 2.23251,24.83008 1.19406,45.33617 -1.71034,33.77394 -1.00045,39.82989 7.54088,64.33038 10.47465,30.04605 10.82725,31.86545 6.17604,31.86545 -3.71296,0 -21.6141,-28.60965 -27.92537,-44.63036 -2.32081,-5.8912 -4.34271,-29.62964 -4.49311,-52.75211 -0.27149,-41.73704 -0.34009,-42.06599 -9.49368,-45.52288 -5.07112,-1.91513 -13.70096,-3.48205 -19.17741,-3.48205 l -9.9572,0 -4.27005,43.74414 c -5.07236,51.96327 -10.59778,71.95652 -26.05253,94.26885 -17.78634,25.67851 -31.96823,37.32941 -31.96823,26.26291 z"
       id="path2996"
       inkscape:connector-curvature="0" />
  </g>
</svg>
