<?xml version="1.0" encoding="UTF-8" standalone="no"?>
<!-- Created with Inkscape (http://www.inkscape.org/) -->
<svg
   xmlns:dc="http://purl.org/dc/elements/1.1/"
   xmlns:cc="http://creativecommons.org/ns#"
   xmlns:rdf="http://www.w3.org/1999/02/22-rdf-syntax-ns#"
   xmlns:svg="http://www.w3.org/2000/svg"
   xmlns="http://www.w3.org/2000/svg"
   xmlns:sodipodi="http://sodipodi.sourceforge.net/DTD/sodipodi-0.dtd"
   xmlns:inkscape="http://www.inkscape.org/namespaces/inkscape"
   width="300"
   height="300"
   id="svg2400"
   sodipodi:version="0.32"
   inkscape:version="0.46"
   version="1.0"
   sodipodi:docname="爪-seal.svg"
   inkscape:output_extension="org.inkscape.output.svg.inkscape">
  <defs
     id="defs2402">
    <inkscape:perspective
       sodipodi:type="inkscape:persp3d"
       inkscape:vp_x="0 : 526.18109 : 1"
       inkscape:vp_y="0 : 1000 : 0"
       inkscape:vp_z="744.09448 : 526.18109 : 1"
       inkscape:persp3d-origin="372.04724 : 350.78739 : 1"
       id="perspective2408" />
    <inkscape:perspective
       id="perspective3684"
       inkscape:persp3d-origin="372.04724 : 350.78739 : 1"
       inkscape:vp_z="744.09448 : 526.18109 : 1"
       inkscape:vp_y="0 : 1000 : 0"
       inkscape:vp_x="0 : 526.18109 : 1"
       sodipodi:type="inkscape:persp3d" />
    <inkscape:perspective
       id="perspective3736"
       inkscape:persp3d-origin="372.04724 : 350.78739 : 1"
       inkscape:vp_z="744.09448 : 526.18109 : 1"
       inkscape:vp_y="0 : 1000 : 0"
       inkscape:vp_x="0 : 526.18109 : 1"
       sodipodi:type="inkscape:persp3d" />
    <inkscape:perspective
       id="perspective2465"
       inkscape:persp3d-origin="372.04724 : 350.78739 : 1"
       inkscape:vp_z="744.09448 : 526.18109 : 1"
       inkscape:vp_y="0 : 1000 : 0"
       inkscape:vp_x="0 : 526.18109 : 1"
       sodipodi:type="inkscape:persp3d" />
    <inkscape:perspective
       id="perspective2537"
       inkscape:persp3d-origin="372.04724 : 350.78739 : 1"
       inkscape:vp_z="744.09448 : 526.18109 : 1"
       inkscape:vp_y="0 : 1000 : 0"
       inkscape:vp_x="0 : 526.18109 : 1"
       sodipodi:type="inkscape:persp3d" />
    <inkscape:perspective
       id="perspective2620"
       inkscape:persp3d-origin="372.04724 : 350.78739 : 1"
       inkscape:vp_z="744.09448 : 526.18109 : 1"
       inkscape:vp_y="0 : 1000 : 0"
       inkscape:vp_x="0 : 526.18109 : 1"
       sodipodi:type="inkscape:persp3d" />
    <inkscape:perspective
       id="perspective2672"
       inkscape:persp3d-origin="372.04724 : 350.78739 : 1"
       inkscape:vp_z="744.09448 : 526.18109 : 1"
       inkscape:vp_y="0 : 1000 : 0"
       inkscape:vp_x="0 : 526.18109 : 1"
       sodipodi:type="inkscape:persp3d" />
    <inkscape:perspective
       id="perspective2744"
       inkscape:persp3d-origin="372.04724 : 350.78739 : 1"
       inkscape:vp_z="744.09448 : 526.18109 : 1"
       inkscape:vp_y="0 : 1000 : 0"
       inkscape:vp_x="0 : 526.18109 : 1"
       sodipodi:type="inkscape:persp3d" />
  </defs>
  <sodipodi:namedview
     id="base"
     pagecolor="#ffffff"
     bordercolor="#666666"
     borderopacity="1.0"
     gridtolerance="10000"
     guidetolerance="10"
     objecttolerance="10"
     inkscape:pageopacity="0.0"
     inkscape:pageshadow="2"
     inkscape:zoom="0.98994949"
     inkscape:cx="-26.988433"
     inkscape:cy="181.07663"
     inkscape:document-units="px"
     inkscape:current-layer="layer1"
     showgrid="false"
     width="300px"
     inkscape:window-width="1280"
     inkscape:window-height="951"
     inkscape:window-x="0"
     inkscape:window-y="25" />
  <metadata
     id="metadata2405">
    <rdf:RDF>
      <cc:Work
         rdf:about="">
        <dc:format>image/svg+xml</dc:format>
        <dc:type
           rdf:resource="http://purl.org/dc/dcmitype/StillImage" />
      </cc:Work>
    </rdf:RDF>
  </metadata>
  <g
     inkscape:label="Layer 1"
     inkscape:groupmode="layer"
     id="layer1">
    <path
       style="fill:#000000"
       d="M 209.8351,283.84932 C 208.09908,283.14882 206.6787,280.62503 206.6787,278.24093 C 195.29187,245.65987 190.75995,211.33064 181.24816,178.20445 C 176.90041,163.52409 176.43564,60.889065 180.64344,44.667544 C 182.43421,37.763949 183.56043,31.776595 183.14616,31.362315 C 182.73187,30.948035 176.49422,31.307693 169.2847,32.161554 C 156.64428,33.658623 156.17502,33.994342 156.13541,41.568912 C 156.1128,45.889099 154.93174,62.491245 153.51083,78.462572 C 152.08991,94.433897 150.47371,139.31774 149.91927,178.20445 C 148.70506,263.36514 147.40819,277.94632 141.04805,277.94632 C 135.15317,277.94632 133.10691,272.21313 134.893,260.70115 C 135.6839,255.60348 136.75407,224.16146 137.27113,190.83 C 137.78821,157.49854 139.19305,110.91025 140.393,87.300459 C 142.39863,47.838487 141.00772,30.692449 136.31973,37.088378 C 135.41874,38.317615 130.14345,41.697307 124.59687,44.598805 C 117.66406,48.225455 112.79687,53.355278 109.02399,61.012025 C 103.23595,72.758308 101.12869,99.671431 99.254839,185.77978 C 98.536889,218.77125 93.445559,256.60429 87.956049,269.73971 C 85.265489,276.17773 75.992759,277.44946 73.780299,271.68387 C 72.991509,269.62832 74.117689,261.9583 76.282909,254.63937 C 82.294589,234.31855 85.264739,209.59916 86.528829,169.36656 C 88.264549,114.12274 91.043749,75.914046 93.433749,74.436941 C 100.76452,52.414281 94.809349,47.941963 118.68965,32.877382 C 130.90213,26.560118 162.86579,20.110609 185.72494,19.351242 C 195.8394,19.015248 204.88111,17.974094 205.81764,17.037572 C 210.12232,12.732889 214.55654,15.618989 213.79049,22.226854 C 213.11149,28.08378 211.68138,29.223216 204.26864,29.813405 C 199.47107,30.195376 194.5577,31.495983 193.35005,32.703639 C 192.14239,33.911296 191.2691,61.46152 191.4094,93.926361 C 191.68261,157.14414 193.20405,170.02929 206.28039,219.86877 C 217.34428,262.03802 218.98727,266.96441 223.13515,270.40687 C 232.0775,277.82835 221.47376,288.54562 209.8351,283.84932 z"
       id="path2750"
       sodipodi:nodetypes="cccssssssssssssssssssccssssssssc" />
  </g>
</svg>
