<?xml version="1.0" standalone="no"?>
<!DOCTYPE svg PUBLIC "-//W3C//DTD SVG 20010904//EN"
 "http://www.w3.org/TR/2001/REC-SVG-20010904/DTD/svg10.dtd">
<svg version="1.0" xmlns="http://www.w3.org/2000/svg"
 width="469pt" height="469pt" viewBox="0 0 469 469"
 preserveAspectRatio="xMidYMid meet">
<metadata>
Created by potrace 1.8, written by Peter Selinger 2001-2007
</metadata>
<g transform="translate(0,469) scale(0.525843,-0.525843)"
fill="#000000" stroke="none">
<path d="M186 712 c-2 -4 0 -71 5 -147 5 -77 7 -213 3 -303 -7 -158 -6 -162
13 -162 32 0 44 23 37 69 -4 22 -3 92 1 155 8 132 1 125 121 133 98 7 166 -2
195 -26 l22 -18 -34 -20 c-32 -19 -170 -53 -217 -53 -42 0 -23 -27 23 -33 60
-9 151 9 203 40 31 18 47 22 55 14 6 -6 10 -66 8 -159 -1 -134 1 -151 16 -156
33 -13 43 20 43 150 0 67 -5 146 -12 174 -9 40 -9 58 1 86 19 52 -1 125 -44
163 -48 42 -232 81 -249 52 -11 -17 31 -38 102 -50 88 -16 123 -41 125 -90 l2
-34 -180 0 -180 1 -3 98 c-1 54 -8 104 -14 111 -12 14 -34 17 -42 5z"/>
</g>
</svg>
