<?xml version="1.0" standalone="no"?>
<!DOCTYPE svg PUBLIC "-//W3C//DTD SVG 20010904//EN"
 "http://www.w3.org/TR/2001/REC-SVG-20010904/DTD/svg10.dtd">
<svg version="1.0" xmlns="http://www.w3.org/2000/svg"
 width="468pt" height="468pt" viewBox="0 0 468 468"
 preserveAspectRatio="xMidYMid meet">
<metadata>
Created by potrace 1.8, written by Peter Selinger 2001-2007
</metadata>
<g transform="translate(0,468) scale(0.380488,-0.380488)"
fill="#000000" stroke="none">
<path d="M678 1010 c-45 -44 -85 -80 -90 -80 -11 0 -71 59 -93 93 -9 15 -22
27 -29 27 -13 -1 -56 -35 -56 -46 0 -4 27 -33 60 -65 33 -31 60 -60 60 -63 0
-13 -227 -227 -305 -288 -16 -13 -48 -40 -70 -60 -22 -21 -43 -38 -47 -38 -13
0 -98 -90 -98 -103 0 -7 5 -18 12 -25 13 -13 68 -17 68 -4 0 11 29 42 75 77
21 17 47 40 58 53 12 12 25 22 30 22 4 0 14 6 21 13 7 6 28 23 46 37 18 14 68
59 110 100 90 88 161 150 172 150 4 0 16 -7 26 -15 9 -9 44 -37 77 -63 33 -25
62 -49 65 -52 10 -11 159 -130 162 -130 2 0 47 -40 98 -90 80 -75 100 -90 128
-90 29 0 32 3 32 30 0 17 -4 30 -9 30 -5 0 -41 30 -80 68 -78 75 -82 77 -131
112 -19 14 -45 34 -57 45 -12 11 -54 45 -94 75 -39 30 -91 75 -116 99 l-45 43
29 31 c15 18 31 33 35 35 23 10 98 91 98 105 0 9 -14 24 -30 32 l-31 16 -81
-81z"/>
<path d="M530 640 c0 -5 -8 -10 -19 -10 -10 0 -24 -6 -30 -13 -8 -11 -2 -23
29 -55 22 -22 40 -45 40 -50 0 -5 -14 -20 -32 -33 -17 -13 -41 -33 -52 -44
-12 -11 -37 -33 -56 -49 -19 -16 -77 -67 -129 -115 -51 -47 -102 -89 -112 -93
-25 -10 -27 -83 -3 -92 27 -10 65 19 197 148 71 69 132 126 135 126 4 0 31 23
61 50 29 28 56 50 61 50 4 0 38 -30 77 -67 38 -38 113 -108 167 -158 98 -90
99 -90 151 -90 42 0 51 3 43 13 -6 6 -17 12 -24 12 -8 0 -11 6 -7 16 6 16 -57
84 -77 84 -6 0 -10 4 -10 10 0 5 -22 25 -50 42 -27 18 -52 41 -56 51 -3 9 -11
17 -17 17 -13 0 -147 123 -147 135 0 3 14 18 30 32 33 27 42 73 14 73 -18 0
-53 -18 -72 -37 -20 -20 -28 -16 -59 22 -27 34 -53 46 -53 25z"/>
</g>
</svg>
