<?xml version="1.0" encoding="UTF-8" standalone="no"?>
<!-- Created with Inkscape (http://www.inkscape.org/) -->

<svg
   xmlns:dc="http://purl.org/dc/elements/1.1/"
   xmlns:cc="http://creativecommons.org/ns#"
   xmlns:rdf="http://www.w3.org/1999/02/22-rdf-syntax-ns#"
   xmlns:svg="http://www.w3.org/2000/svg"
   xmlns="http://www.w3.org/2000/svg"
   version="1.1"
   width="300"
   height="300"
   id="svg2">
  <defs
     id="defs4" />
  <metadata
     id="metadata7">
    <rdf:RDF>
      <cc:Work
         rdf:about="">
        <dc:format>image/svg+xml</dc:format>
        <dc:type
           rdf:resource="http://purl.org/dc/dcmitype/StillImage" />
        <dc:title></dc:title>
      </cc:Work>
    </rdf:RDF>
  </metadata>
  <g
     transform="translate(0,-752.36218)"
     id="layer1">
    <path
       d="M 195.33922,1031.5388 C 192.07609,1026.5585 190.20516,1019.4106 184.46606,989.99739 183.33211,984.18584 181.42424,963.94347 180.22635,945.01435 179.02847,926.08523 178.09516,907.97238 176.69075,905.34821 173.58686,899.54854 156.87258,898.03961 139.40964,899.23708 120.17067,900.55634 118.63313,902.16771 118.51955,937.79227 118.46703,954.26238 115.88798,975.61548 114.73603,985.30169 111.48959,1012.5994 100.33241,1033.3726 92.906034,1025.9462 91.478794,1024.5189 92.564484,1019.1127 95.470093,1010.2631 97.983248,1002.6087 100.88455,990.58439 102.20977,984.12714 104.99369,970.56214 108.64695,926.15787 107.76879,916.55907 106.8802,906.84633 115.12162,892.55875 123.65057,889.02595 128.7082,886.931 137.35182,886.4174 151.79883,887.35338 175.02082,888.85787 178.55838,887.23273 177.23249,875.66929 L 176.47579,869.07001 151.8207,867.53011 C 107.64216,864.77085 105.58142,863.09054 104.75364,829.15222 104.43865,816.23765 104.3334,797.48216 104.51976,787.47337 104.84661,769.91942 106.01485,767.36218 111.45584,767.36218 115.61202,767.36218 116.78594,771.12934 118.59538,776.31987 118.59538,776.31987 118.57446,783.14013 121.05103,783.36418 131.13088,784.27613 161.67799,783.40014 161.67799,783.40014 184.02281,783.41991 203.77973,784.36992 205.58223,785.51126 207.38475,786.6526 208.21039,789.27804 207.417,791.34557 206.00213,795.03267 193.88338,797.36832 170.40996,796.50317 141.92478,795.4533 125.00164,793.19869 122.16405,795.55368 118.17887,798.86108 117.69565,814.66089 121.56468,817.05208 123.13583,818.02311 138.35,817.04024 155.08162,816.9142 185.47112,816.68524 185.50966,816.69191 192.14277,823.32502 199.80937,830.99161 199.93117,832.06379 195.3891,851.90054 187.92017,884.51978 188.37075,926.33635 196.6747,971.21256 197.98906,978.31558 200.13213,989.93869 201.43708,997.04169 202.74203,1004.1447 202.93498,1015.4004 204.20441,1020.3004 208.31983,1036.1858 203.00923,1043.2446 195.33922,1031.5388 z M 172.88856,852.23996 C 183.75915,847.30562 183.63205,841.03336 177.32379,833.26586 173.61827,828.70317 168.28873,827.75075 144.99375,827.96167 L 119.16459,828.19554 119.41552,837.57157 C 119.56449,843.13795 119.90682,846.63974 121.37743,848.92667 123.35628,852.00399 128.33473,854.07745 136.67726,854.8256 153.16241,856.304 162.21118,857.08661 172.88856,852.23996 z"
       id="path3048"
       style="fill:#000000" />
  </g>
</svg>
