<?xml version="1.0" standalone="no"?>
<!DOCTYPE svg PUBLIC "-//W3C//DTD SVG 20010904//EN"
 "http://www.w3.org/TR/2001/REC-SVG-20010904/DTD/svg10.dtd">
<svg version="1.0" xmlns="http://www.w3.org/2000/svg"
 width="468pt" height="468pt" viewBox="0 0 468 468"
 preserveAspectRatio="xMidYMid meet">
<metadata>
Created by potrace 1.8, written by Peter Selinger 2001-2007
</metadata>
<g transform="translate(0,468) scale(0.550588,-0.550588)"
fill="#000000" stroke="none">
<path d="M297 703 c-8 -15 -27 -50 -43 -78 -20 -36 -28 -63 -28 -100 -1 -57
28 -125 56 -133 10 -2 18 -8 18 -12 0 -11 44 -28 94 -35 l46 -7 0 -44 c0 -35
-4 -44 -17 -45 -10 -1 -32 -2 -49 -3 -35 -2 -64 -21 -64 -42 0 -14 41 -20 103
-15 26 2 27 0 28 -46 1 -26 2 -52 4 -58 1 -5 3 -19 4 -30 1 -11 5 -26 10 -34
8 -12 12 -12 25 -2 11 9 16 36 18 94 l3 82 53 7 c50 8 92 31 78 45 -3 3 -35 5
-71 4 l-65 -2 0 50 c0 44 3 51 19 51 11 0 23 5 26 10 3 6 15 10 26 10 24 0 37
12 68 65 18 31 23 55 23 108 0 38 -5 74 -11 80 -6 6 -11 23 -11 37 0 33 -26
70 -49 70 -20 0 -37 -30 -23 -39 16 -10 34 -82 34 -132 0 -68 -16 -100 -62
-127 l-40 -23 -1 33 c-1 48 -4 68 -13 116 -8 41 -11 43 -35 37 -14 -4 -27 -7
-27 -8 -1 -1 2 -24 6 -52 5 -27 9 -67 9 -87 l1 -38 -47 0 c-80 1 -113 42 -102
125 10 72 28 135 39 135 15 0 12 36 -4 49 -11 10 -17 6 -29 -16z"/>
</g>
</svg>
