<?xml version="1.0" standalone="no"?>
<!DOCTYPE svg PUBLIC "-//W3C//DTD SVG 20010904//EN"
 "http://www.w3.org/TR/2001/REC-SVG-20010904/DTD/svg10.dtd">
<svg version="1.0" xmlns="http://www.w3.org/2000/svg"
 width="468pt" height="468pt" viewBox="0 0 468 468"
 preserveAspectRatio="xMidYMid meet">
<metadata>
Created by potrace 1.8, written by Peter Selinger 2001-2007
</metadata>
<g transform="translate(0,468) scale(0.531818,-0.531818)"
fill="#000000" stroke="none">
<path d="M418 655 c-3 -3 -3 -62 0 -131 l5 -125 -89 3 -89 3 -3 31 c-3 30 -2
31 45 37 56 6 93 41 93 87 0 37 -22 49 -103 56 -75 7 -142 -6 -142 -26 0 -12
18 -15 89 -15 72 0 91 -3 99 -17 15 -23 6 -30 -55 -39 -64 -10 -80 -28 -76
-89 4 -59 26 -70 141 -70 l88 0 -3 -37 -3 -38 -130 -5 c-107 -4 -130 -8 -130
-20 0 -13 20 -15 129 -14 l128 1 -3 -100 c-3 -83 -1 -101 12 -110 9 -6 24 -7
33 -4 13 5 16 23 16 105 l0 99 31 7 c17 3 69 6 114 6 92 0 115 5 115 26 0 11
-25 14 -125 14 l-125 0 0 34 0 34 90 4 c67 2 93 7 100 18 28 44 -9 140 -54
140 -37 0 -56 10 -56 30 0 22 19 30 77 30 37 0 44 3 41 18 -3 14 -16 18 -65
20 -74 4 -103 -17 -103 -72 0 -40 15 -55 65 -63 29 -5 40 -12 50 -37 7 -17 11
-34 9 -38 -3 -5 -41 -8 -86 -8 l-81 0 8 111 c6 97 5 113 -11 130 -17 18 -35
24 -46 14z"/>
</g>
</svg>
