<?xml version="1.0" encoding="UTF-8" standalone="no"?>
<!-- Created with Inkscape (http://www.inkscape.org/) -->
<svg
   xmlns:dc="http://purl.org/dc/elements/1.1/"
   xmlns:cc="http://web.resource.org/cc/"
   xmlns:rdf="http://www.w3.org/1999/02/22-rdf-syntax-ns#"
   xmlns:svg="http://www.w3.org/2000/svg"
   xmlns="http://www.w3.org/2000/svg"
   xmlns:sodipodi="http://sodipodi.sourceforge.net/DTD/sodipodi-0.dtd"
   xmlns:inkscape="http://www.inkscape.org/namespaces/inkscape"
   id="svg2211"
   sodipodi:version="0.32"
   inkscape:version="0.45.1"
   width="300"
   height="300"
   version="1.0"
   sodipodi:docbase="/home/michelet/Images/Temp"
   sodipodi:docname="犬-bigseal.svg"
   inkscape:output_extension="org.inkscape.output.svg.inkscape">
  <metadata
     id="metadata2216">
    <rdf:RDF>
      <cc:Work
         rdf:about="">
        <dc:format>image/svg+xml</dc:format>
        <dc:type
           rdf:resource="http://purl.org/dc/dcmitype/StillImage" />
      </cc:Work>
    </rdf:RDF>
  </metadata>
  <defs
     id="defs2214" />
  <sodipodi:namedview
     inkscape:window-height="941"
     inkscape:window-width="1269"
     inkscape:pageshadow="2"
     inkscape:pageopacity="0.0"
     guidetolerance="10.0"
     gridtolerance="10.0"
     objecttolerance="10.0"
     borderopacity="1.0"
     bordercolor="#666666"
     pagecolor="#ffffff"
     id="base"
     width="300px"
     height="300px"
     inkscape:zoom="2"
     inkscape:cx="40.5"
     inkscape:cy="136.5"
     inkscape:window-x="0"
     inkscape:window-y="27"
     inkscape:current-layer="svg2211" />
  <path
     style="fill:#afafaf;fill-opacity:1;stroke:none;stroke-opacity:1;stroke-width:2;stroke-miterlimit:4;stroke-dasharray:none"
     d="M 117.26518,155.13842 C 139.29076,160.85633 143.29828,160.82356 148.00905,164.04711 C 155.71982,158.27066 152.69214,158.78472 154.34416,156.26849 C 162.24096,131.28457 155.24639,108.39698 149.892,84.049744 C 141.69968,85.141997 135.50735,89.734254 127.81503,89.326515 C 101.07993,93.552241 61.363515,96.691825 59.805534,86.22301 C 67.06753,76.095268 126.77588,75.764788 139.50744,68.845322 C 125.7113,53.598585 127.31987,51.469256 117.16222,42.001885 C 111.66645,32.7593 109.28736,19.46893 113.09756,9.719645 C 125.79262,9.013095 129.54144,25.397541 135.32481,34.241295 C 146.15626,44.309865 150.42645,53.380909 158.66679,58.461406 C 164.95642,42.214241 162.02299,36.7124 160.8515,21.135452 C 156.58287,11.750549 165.43444,-7.0398318 174.59929,6.7902604 C 183.13655,21.013737 184.64564,38.256213 183.78536,52.035639 C 205.24855,59.410881 212.68548,63.457226 236.2177,68.34197 C 233.21497,86.454246 192.2439,72.620961 177.0033,64.471305 C 173.64249,68.447853 170.92135,70.961531 166.75095,75.330238 C 171.43722,99.331929 179.36648,119.20058 178.6837,143.85181 C 177.31921,161.96456 161.76626,173.60018 149.87028,185.36744 C 139.93179,193.60275 129.72016,202.05928 123.47733,213.44551 C 117.148,231.21434 121.55254,251.23127 128.7649,268.02563 C 134.19516,278.74517 153.9216,279.23585 157.34482,266.53828 C 163.52718,257.49378 155.49384,237.54361 168.68717,235.57476 C 178.61663,236.98339 185.82205,252.48869 182.0138,261.735 C 176.00959,271.61103 173.4153,288.69257 159.22631,289.22514 C 150.58733,289.57977 141.95267,291.12604 133.32957,290.72037 C 120.78298,291.75159 110.70841,279.56074 108.87641,267.52084 C 105.31981,250.44308 99.115834,232.29494 104.3616,214.94998 C 111.83705,197.37712 121.73691,188.16517 136.15519,176.22975 C 127.47893,173.67061 123.93837,171.76817 117.73854,170.10486 C 95.538002,167.97862 79.793856,185.75585 61.834483,195.46368 C 52.371837,192.2755 53.338068,193.02043 57.829307,182.42742 C 62.869251,173.21352 96.2396,145.92051 117.26518,155.13842 z "
     id="path2220"
     sodipodi:nodetypes="ccccccccccccccccccccccccccccccccc" />
</svg>
