<?xml version="1.0" encoding="UTF-8" standalone="no"?>
<!-- Created with Inkscape (http://www.inkscape.org/) -->
<svg
   xmlns:dc="http://purl.org/dc/elements/1.1/"
   xmlns:cc="http://web.resource.org/cc/"
   xmlns:rdf="http://www.w3.org/1999/02/22-rdf-syntax-ns#"
   xmlns:svg="http://www.w3.org/2000/svg"
   xmlns="http://www.w3.org/2000/svg"
   xmlns:sodipodi="http://sodipodi.sourceforge.net/DTD/sodipodi-0.dtd"
   xmlns:inkscape="http://www.inkscape.org/namespaces/inkscape"
   id="svg2211"
   sodipodi:version="0.32"
   inkscape:version="0.45.1"
   width="300"
   height="300"
   version="1.0"
   sodipodi:docbase="/home/michelet/Images/Temp"
   sodipodi:docname="犬-oracle.svg"
   inkscape:output_extension="org.inkscape.output.svg.inkscape">
  <metadata
     id="metadata2216">
    <rdf:RDF>
      <cc:Work
         rdf:about="">
        <dc:format>image/svg+xml</dc:format>
        <dc:type
           rdf:resource="http://purl.org/dc/dcmitype/StillImage" />
      </cc:Work>
    </rdf:RDF>
  </metadata>
  <defs
     id="defs2214" />
  <sodipodi:namedview
     inkscape:window-height="941"
     inkscape:window-width="1269"
     inkscape:pageshadow="2"
     inkscape:pageopacity="0.0"
     guidetolerance="10.0"
     gridtolerance="10.0"
     objecttolerance="10.0"
     borderopacity="1.0"
     bordercolor="#666666"
     pagecolor="#ffffff"
     id="base"
     width="300px"
     height="300px"
     inkscape:zoom="2"
     inkscape:cx="40.5"
     inkscape:cy="136.5"
     inkscape:window-x="0"
     inkscape:window-y="27"
     inkscape:current-layer="svg2211" />
  <path
     style="fill:#000000"
     d="M 133.32957,288.22037 C 120.78298,289.25159 110.70841,279.56074 108.87641,267.52084 C 105.31981,250.44308 99.115834,232.29494 104.3616,214.94998 C 111.83705,197.37712 126.73691,184.16517 141.15519,172.22975 C 145.47893,162.17061 124.43837,167.26817 118.23854,165.60486 C 96.038002,163.47862 73.293856,160.25585 52.834483,150.96368 C 43.371837,147.7755 44.338068,133.52043 55.829307,138.92742 C 78.369251,142.21352 101.2396,145.42051 122.26518,154.63842 C 128.86907,159.12872 134.27394,155.96004 128.18844,148.91055 C 121.53544,137.86591 118.82457,125.63942 114.0517,113.90785 C 111.81596,104.73915 110.27032,95.421791 108.40246,86.174393 C 90.102107,79.33361 69.73694,74.815074 55.805534,60.22301 C 57.565806,49.933769 77.168497,59.273243 84.92311,60.129426 C 103.20464,65.541668 122.46732,67.221811 140.50744,73.345322 C 149.93741,79.761151 147.96205,65.143942 139.15613,66.631212 C 121.84815,61.796136 101.08856,60.055515 89.162215,45.001885 C 83.666452,35.7593 81.28736,22.46893 85.097561,12.719645 C 97.792617,12.013095 101.54144,28.397541 107.32481,37.241295 C 114.27009,47.454172 128.57658,48.840095 139.80916,51.037187 C 140.84259,43.835897 132.54147,32.02804 133.3515,22.135452 C 129.08287,12.750549 137.93444,-6.0398318 147.09929,7.7902604 C 155.63655,22.013737 155.14564,39.756213 163.28536,54.035639 C 171.68334,61.832519 184.44332,59.371678 194.90757,61.759811 C 208.65168,64.03956 222.69712,65.138978 236.2177,68.34197 C 238.11771,78.169066 216.91307,74.765336 209.41378,75.631007 C 195.23337,75.477214 181.4585,70.993766 167.25095,71.330238 C 171.93722,95.331929 179.36648,119.20058 178.6837,143.85181 C 177.31921,161.96456 161.76626,173.60018 149.87028,185.36744 C 139.93179,193.60275 129.72016,202.05928 123.47733,213.44551 C 117.148,231.21434 121.55254,251.23127 128.7649,268.02563 C 134.19516,278.74517 153.9216,279.23585 157.34482,266.53828 C 163.52718,257.49378 155.49384,237.54361 168.68717,235.57476 C 178.61663,236.98339 185.82205,252.48869 182.0138,261.735 C 176.00959,271.61103 173.4153,288.69257 159.22631,289.22514 C 150.58733,289.57977 141.95267,288.62604 133.32957,288.22037 z M 154.34416,156.26849 C 160.21397,140.90586 156.18128,123.91322 154.59832,108.07028 C 153.62045,101.38249 152.4696,94.72182 151.392,88.049744 C 143.69968,87.641997 136.00735,87.234254 128.31503,86.826515 C 132.60007,112.01076 140.66495,136.39116 145.00905,161.54711 C 147.71982,168.77066 152.69214,158.78472 154.34416,156.26849 z "
     id="path2220" />
</svg>
