<?xml version="1.0" encoding="UTF-8" standalone="no"?>
<!-- Created with Inkscape (http://www.inkscape.org/) -->
<svg
   xmlns:dc="http://purl.org/dc/elements/1.1/"
   xmlns:cc="http://web.resource.org/cc/"
   xmlns:rdf="http://www.w3.org/1999/02/22-rdf-syntax-ns#"
   xmlns:svg="http://www.w3.org/2000/svg"
   xmlns="http://www.w3.org/2000/svg"
   xmlns:sodipodi="http://sodipodi.sourceforge.net/DTD/sodipodi-0.dtd"
   xmlns:inkscape="http://www.inkscape.org/namespaces/inkscape"
   width="300"
   height="300"
   id="svg2"
   sodipodi:version="0.32"
   inkscape:version="0.45.1"
   version="1.0"
   sodipodi:docbase="/home/lyhana8/Desktop"
   sodipodi:docname="犬-seal.svg"
   inkscape:output_extension="org.inkscape.output.svg.inkscape">
  <defs
     id="defs4" />
  <sodipodi:namedview
     id="base"
     pagecolor="#ffffff"
     bordercolor="#666666"
     borderopacity="1.0"
     gridtolerance="10000"
     guidetolerance="10"
     objecttolerance="10"
     inkscape:pageopacity="0.0"
     inkscape:pageshadow="2"
     inkscape:zoom="1.27"
     inkscape:cx="150"
     inkscape:cy="165.83166"
     inkscape:document-units="px"
     inkscape:current-layer="layer1"
     width="300px"
     height="300px"
     inkscape:window-width="742"
     inkscape:window-height="577"
     inkscape:window-x="281"
     inkscape:window-y="220" />
  <metadata
     id="metadata7">
    <rdf:RDF>
      <cc:Work
         rdf:about="">
        <dc:format>image/svg+xml</dc:format>
        <dc:type
           rdf:resource="http://purl.org/dc/dcmitype/StillImage" />
      </cc:Work>
    </rdf:RDF>
  </metadata>
  <g
     inkscape:label="Layer 1"
     inkscape:groupmode="layer"
     id="layer1">
    <path
       style="fill:#000000"
       d="M 160.24805,187.8695 C 170.45101,161.27314 174.31247,140.73102 143.94359,131.77379 C 91.781086,185.02298 115.27631,198.68137 96.853671,274.97191 C 93.914988,287.14136 83.487991,273.9277 84.359323,259.86876 C 85.973415,233.82541 83.907596,207.32404 86.182196,181.19532 C 93.76224,128.01685 135.16187,131.70111 129.25496,94.199255 C 116.79368,92.66345 104.61687,99.044305 92.003106,99.24377 C 84.524562,102.61977 61.592233,93.387969 73.655137,84.857268 C 90.963271,77.82027 111.72424,74.456858 130.43239,72.450375 C 129.29952,49.443105 130.08684,-1.8590036 149.18593,20.532614 C 153.83908,34.625069 152.65821,54.631319 151.76991,71.780732 C 162.66736,70.756585 169.14751,70.699047 181.00237,67.761028 C 184.2812,48.942021 200.33805,27.763891 206.83509,41.238471 C 195.79801,81.093725 196.32255,87.728715 209.82591,126.11871 C 214.40704,138.15057 200.46168,141.74245 194.6174,129.68437 C 187.61778,115.24256 183.3658,105.80073 179.89066,90.962454 C 168.75208,91.250186 162.33483,91.263567 152.60367,91.607531 C 151.7588,125.10424 201.16152,129.47066 193.86083,157.76443 C 183.68762,197.19061 158.0747,206.09443 215.73198,263.99892 C 243.96553,288.95068 212.29503,288.18843 202.52227,279.51871 C 166.1467,247.24888 143.87761,230.54283 160.24805,187.8695 z "
       id="path2185"
       sodipodi:nodetypes="ccssccccccccccsccscss" />
  </g>
</svg>
