<?xml version="1.0" standalone="no"?>
<!DOCTYPE svg PUBLIC "-//W3C//DTD SVG 20010904//EN"
 "http://www.w3.org/TR/2001/REC-SVG-20010904/DTD/svg10.dtd">
<svg version="1.0" xmlns="http://www.w3.org/2000/svg"
 width="468pt" height="468pt" viewBox="0 0 468 468"
 preserveAspectRatio="xMidYMid meet">
<metadata>
Created by potrace 1.8, written by Peter Selinger 2001-2007
</metadata>
<g transform="translate(0,468) scale(0.641096,-0.641096)"
fill="#000000" stroke="none">
<path d="M346 628 c-3 -7 -6 -22 -8 -33 -3 -18 -10 -20 -78 -17 -83 4 -130 -9
-130 -34 0 -14 8 -16 51 -11 60 7 139 -2 139 -15 0 -5 -27 -37 -59 -71 l-59
-62 28 -35 c16 -19 30 -39 30 -43 0 -5 -20 -33 -45 -61 -25 -29 -45 -59 -45
-66 0 -20 93 -106 141 -130 25 -13 50 -19 63 -15 25 7 146 161 146 185 0 10
-13 34 -30 55 -16 21 -30 39 -30 39 0 1 9 21 20 44 21 42 26 82 12 82 -5 0
-28 17 -52 39 l-43 38 96 5 c89 4 132 17 114 34 -3 4 -56 9 -116 12 l-110 5
-3 30 c-3 32 -25 49 -32 25z m72 -181 c46 -46 50 -58 27 -77 -12 -10 -23 -9
-56 4 -42 17 -42 17 -71 -11 l-28 -27 -22 21 -21 21 53 56 c29 31 58 56 64 56
7 0 31 -19 54 -43z m-34 -103 c21 -8 20 -33 -3 -63 l-18 -23 -21 23 c-27 29
-27 34 0 53 26 19 22 18 42 10z m-54 -99 c13 -14 29 -25 35 -25 6 0 22 11 35
25 13 14 29 25 36 25 15 0 44 -38 44 -57 0 -17 -109 -133 -125 -133 -20 0
-135 88 -135 103 0 15 66 87 79 87 4 0 18 -11 31 -25z"/>
</g>
</svg>
