<?xml version="1.0" encoding="UTF-8" standalone="no"?>
<!-- Created with Inkscape (http://www.inkscape.org/) -->

<svg
   xmlns:dc="http://purl.org/dc/elements/1.1/"
   xmlns:cc="http://creativecommons.org/ns#"
   xmlns:rdf="http://www.w3.org/1999/02/22-rdf-syntax-ns#"
   xmlns:svg="http://www.w3.org/2000/svg"
   xmlns="http://www.w3.org/2000/svg"
   version="1.1"
   width="300"
   height="300"
   id="svg2">
  <defs
     id="defs4" />
  <metadata
     id="metadata7">
    <rdf:RDF>
      <cc:Work
         rdf:about="">
        <dc:format>image/svg+xml</dc:format>
        <dc:type
           rdf:resource="http://purl.org/dc/dcmitype/StillImage" />
        <dc:title></dc:title>
      </cc:Work>
    </rdf:RDF>
  </metadata>
  <g
     transform="translate(0,-752.36218)"
     id="layer1">
    <path
       d="M 27.500236,1031.4674 C 23.368012,1026.4884 23.676673,1024.7912 29.487048,1020.5425 33.270539,1017.7759 37.596102,1016.2726 39.099411,1017.2017 40.602719,1018.1308 60.252044,1019.1812 82.764573,1019.536 111.50089,1019.989 125.4037,1018.7643 129.42649,1015.4257 134.10728,1011.5409 135.15651,1001.0667 135.15651,958.22353 135.15651,922.36407 133.75256,904.37294 130.71739,901.33776 127.81906,898.43944 112.5683,896.89864 86.779072,896.89864 58.248333,896.89864 46.135773,895.52007 43.15975,891.93418 36.288582,883.65493 42.315719,882.10154 81.310493,882.10154 110.03735,882.10154 124.31789,883.9234 130.27962,878.3697 136.62119,872.46214 134.9687,866.27409 135.84384,837.10217 136.42995,817.56484 129.66206,796.85281 128.16375,794.17547 126.27007,790.79166 112.57719,788.70578 83.250191,787.33363 60.046058,786.24796 39.759296,784.55528 38.168504,783.57212 31.315175,779.33653 36.207121,771.86001 47.29879,769.618 62.548564,766.53551 236.10224,766.64558 244.17362,769.74286 247.48657,771.01416 249.67917,774.75803 249.04606,778.06257 248.07631,783.12425 241.11046,784.23453 204.83129,785.10994 175.71892,785.81242 160.50852,787.66617 157.88115,790.83196 155.7436,793.40756 151.93399,812.32078 151.62864,832.94763 151.0929,869.13828 151.38055,876.77962 155.57726,878.23642 161.72727,880.37127 171.34527,880.70898 189.64343,878.10567 204.1004,876.04886 215.9878,877.05813 222.25288,878.46442 230.03976,880.2123 235.7743,882.10154 240.60828,882.10154 250.26715,882.10154 256.19604,888.3613 251.1763,893.25934 249.42071,894.97237 227.17592,897.19172 201.74341,898.19122 176.31092,899.19073 155.11919,900.14113 154.65068,900.30321 154.18218,900.46529 153.87071,918.06654 153.95851,939.41708 154.04633,960.76763 154.8278,973.85453 154.81102,976.36604 155.22577,986.22071 156.9817,1003.311 157.92251,1006.883 159.63024,1019.0262 168.30188,1018.1471 222.08941,1018.6626 268.21859,1019.1046 278.35804,1021.5844 274.55525,1031.4943 272.5634,1036.6851 258.46047,1037.3622 152.34803,1037.3622 47.105389,1037.3622 31.792447,1036.6392 27.500236,1031.4674 z"
       id="path3842"
       style="fill:#000000" />
  </g>
</svg>
