<?xml version="1.0" encoding="UTF-8" standalone="no"?>
<!-- Created with Inkscape (http://www.inkscape.org/) -->
<svg
   xmlns:dc="http://purl.org/dc/elements/1.1/"
   xmlns:cc="http://web.resource.org/cc/"
   xmlns:rdf="http://www.w3.org/1999/02/22-rdf-syntax-ns#"
   xmlns:svg="http://www.w3.org/2000/svg"
   xmlns="http://www.w3.org/2000/svg"
   xmlns:sodipodi="http://sodipodi.sourceforge.net/DTD/sodipodi-0.dtd"
   xmlns:inkscape="http://www.inkscape.org/namespaces/inkscape"
   width="300"
   height="300"
   id="svg2"
   sodipodi:version="0.32"
   inkscape:version="0.45.1"
   version="1.0"
   sodipodi:docbase="C:\Documents and Settings\Martin\桌面"
   sodipodi:docname="drawing.svg"
   inkscape:output_extension="org.inkscape.output.svg.inkscape">
  <defs
     id="defs4" />
  <sodipodi:namedview
     id="base"
     pagecolor="#ffffff"
     bordercolor="#666666"
     borderopacity="1.0"
     gridtolerance="10000"
     guidetolerance="10"
     objecttolerance="10"
     inkscape:pageopacity="0.0"
     inkscape:pageshadow="2"
     inkscape:zoom="0.98994949"
     inkscape:cx="265.92847"
     inkscape:cy="168.93146"
     inkscape:document-units="px"
     inkscape:current-layer="layer1"
     width="300px"
     height="300px"
     inkscape:window-width="742"
     inkscape:window-height="577"
     inkscape:window-x="50"
     inkscape:window-y="0" />
  <metadata
     id="metadata7">
    <rdf:RDF>
      <cc:Work
         rdf:about="">
        <dc:format>image/svg+xml</dc:format>
        <dc:type
           rdf:resource="http://purl.org/dc/dcmitype/StillImage" />
      </cc:Work>
    </rdf:RDF>
  </metadata>
  <g
     inkscape:label="Layer 1"
     inkscape:groupmode="layer"
     id="layer1">
    <path
       style="fill:#000000"
       d="M 234.82887,288.89645 C 231.55398,284.52528 220.93536,249.91302 216.34962,228.66192 C 213.06917,213.45968 213.75645,127.89714 217.2695,114.14192 C 220.22811,102.55765 209.86482,88.333851 195.68398,84.51534 C 185.85617,84.084 182.82718,73.421071 173.77037,72.498058 C 167.1261,72.49782 166.98428,73.166111 166.98428,104.47442 C 166.98428,125.36819 165.50983,140.05935 162.73014,146.86192 C 158.44791,157.34165 142.48962,182.73974 138.41461,185.56079 C 137.20935,186.39518 135.31962,190.6781 134.21524,195.07839 C 129.64788,213.27611 159.2529,225.68942 177.47696,213.21797 C 187.07576,206.64912 189.19271,203.35719 189.24784,194.91383 C 189.29076,188.33803 178.8808,170.34046 173.78445,168.17949 C 169.53944,166.37952 171.35452,155.78557 175.90791,155.78557 C 178.36191,155.78557 180.36974,156.91877 180.36974,158.30382 C 180.36974,159.68885 185.05464,165.64594 190.78064,171.54181 C 199.79012,180.81858 201.17882,184.18337 201.09696,196.53811 C 200.99607,211.76367 198.0225,217.25145 186.25942,223.92088 C 182.20208,226.2213 176.75949,229.41793 174.1648,231.02449 C 165.9528,236.10908 142.39963,230.58115 131.49986,221.01103 C 104.29492,188.05575 133.5561,175.4626 147.63861,146.19019 C 162.79145,111.46887 157.58229,72.602896 147.64974,37.167957 C 147.64974,27.147459 140.80789,24.295702 125.82095,28.069448 C 106.89862,32.834165 101.66863,39.674696 101.3043,60.135848 C 105.7017,98.00908 104.14682,135.61815 99.195173,173.63284 C 93.967883,203.98581 77.205877,258.99668 71.319404,265.11771 C 69.343438,267.1724 66.879566,271.52267 65.844157,274.78498 C 64.808748,278.04728 61.517887,280.71647 58.531183,280.71647 C 49.461916,280.71647 48.728146,271.72428 56.84203,260.01597 C 60.978279,254.04737 64.362484,247.74788 64.362484,246.01708 C 64.362484,244.28631 68.378119,234.01393 73.286115,223.18956 C 78.19411,212.36519 82.209747,199.12041 82.209747,193.75668 C 82.209747,188.39298 83.480357,179.57416 85.033312,174.15932 C 86.586255,168.74453 88.119303,154.39814 88.440083,142.27847 C 88.760853,130.15885 90.112523,113.35248 91.443773,104.93107 C 93.047173,94.78799 92.552003,83.359252 89.976853,71.074292 C 83.510428,40.225612 87.779767,28.522561 109.64959,17.147603 C 118.1717,12.715085 134.87386,10.936813 194.06775,8.1596282 C 225.32537,6.6931186 230.31562,7.0975973 231.89987,11.226117 C 235.44793,20.472252 230.9251,25.376474 220.89258,23.161627 C 207.14658,20.126997 173.65478,19.594435 168.12026,22.322478 C 164.8908,28.883579 165.93451,43.776163 167.04198,52.420116 L 168.83608,66.549206 L 183.82062,66.549206 C 202.79521,66.549206 217.24898,73.361867 225.04838,85.981612 C 230.76322,95.228397 231.118,99.98925 230.62185,160.77221 C 230.07433,227.84826 232.28718,245.54463 244.072,268.33397 C 250.69789,281.147 250.28577,292.61464 243.19942,292.61464 C 240.12772,292.61464 236.36099,290.94146 234.82887,288.89645 z "
       id="path2294"
       sodipodi:nodetypes="cssccssssssssssssscccsccsssssssssssssssccccssssc" />
  </g>
</svg>
