<?xml version="1.0" encoding="UTF-8" standalone="no"?>
<!-- Created with Inkscape (http://www.inkscape.org/) -->
<svg
   xmlns:dc="http://purl.org/dc/elements/1.1/"
   xmlns:cc="http://web.resource.org/cc/"
   xmlns:rdf="http://www.w3.org/1999/02/22-rdf-syntax-ns#"
   xmlns:svg="http://www.w3.org/2000/svg"
   xmlns="http://www.w3.org/2000/svg"
   xmlns:sodipodi="http://sodipodi.sourceforge.net/DTD/sodipodi-0.dtd"
   xmlns:inkscape="http://www.inkscape.org/namespaces/inkscape"
   width="300"
   height="300"
   id="svg2"
   sodipodi:version="0.32"
   inkscape:version="0.45.1"
   version="1.0"
   sodipodi:docbase="C:\Documents and Settings\Martin\桌面"
   sodipodi:docname="drawing.svg"
   inkscape:output_extension="org.inkscape.output.svg.inkscape">
  <defs
     id="defs4" />
  <sodipodi:namedview
     id="base"
     pagecolor="#ffffff"
     bordercolor="#666666"
     borderopacity="1.0"
     gridtolerance="10000"
     guidetolerance="10"
     objecttolerance="10"
     inkscape:pageopacity="0.0"
     inkscape:pageshadow="2"
     inkscape:zoom="0.98994949"
     inkscape:cx="197.08483"
     inkscape:cy="145.30019"
     inkscape:document-units="px"
     inkscape:current-layer="layer1"
     width="300px"
     height="300px"
     inkscape:window-width="742"
     inkscape:window-height="577"
     inkscape:window-x="50"
     inkscape:window-y="0" />
  <metadata
     id="metadata7">
    <rdf:RDF>
      <cc:Work
         rdf:about="">
        <dc:format>image/svg+xml</dc:format>
        <dc:type
           rdf:resource="http://purl.org/dc/dcmitype/StillImage" />
      </cc:Work>
    </rdf:RDF>
  </metadata>
  <g
     inkscape:label="Layer 1"
     inkscape:groupmode="layer"
     id="layer1">
    <path
       style="fill:#000000"
       d="M 219.125,12.1875 C 194.12369,16.905887 169.70152,27.288727 143.8125,26.71875 C 124.93393,28.521423 102.90192,33.918699 93.3125,51.90625 C 84.653826,72.120058 89.841091,94.757684 87.092007,116.06098 C 85.525197,167.97172 88.019046,221.53142 70.34375,271.125 C 68.486213,275.00773 65.915807,279.35529 67.46875,283.84375 C 74.973605,284.79101 78.137652,276.87232 79.8125,271.09375 C 99.981593,224.61742 96.506758,172.8692 99.479831,123.28308 C 100.38162,100.48311 99.051916,77.096676 104.625,54.90625 C 109.62899,46.826341 119.08972,41.931304 128.46875,41.96875 C 122.937,73.139933 119.19164,104.98284 121.21778,136.67978 C 123.21617,151.7252 128.85749,168.79418 143.40625,175.90625 C 155.92705,180.15998 168.13481,170.07905 173,159.21875 C 183.08104,139.49697 181.25631,116.32564 180.26627,94.849678 C 177.9645,75.318524 170.77018,56.273474 161.8125,39.21875 C 167.88932,33.505398 179.33688,33.154832 183.61578,40.953553 C 196.26691,53.997747 202.44582,72.190884 202.31356,90.214245 C 207.13818,145.89515 196.68725,203.60592 214.71925,257.56388 C 218.61495,267.99171 222.00779,279.3049 230.4375,287.03125 C 235.17439,285.67777 234.63484,280.16861 232.125,277.03125 C 225.28187,258.86985 215.72238,240.87982 216.4375,220.90625 C 211.90248,168.07045 220.56419,114.32108 210.09375,62.03125 C 206.1532,51.02063 199.01923,41.658341 195.1875,30.625 C 204.74817,28.39522 214.09037,25.438675 222.16947,19.790577 C 224.76206,18.8311 230.65735,15.526495 226.625,12.65625 C 224.24272,11.958681 221.5966,12.143804 219.125,12.1875 z M 148.875,44.6875 C 159.13319,50.036364 158.92093,63.5526 163.6875,72.84375 C 165.78757,79.431812 166.79881,86.524504 165.15625,93.34375 C 155.94665,84.255762 140.45443,79.266144 137.53125,65.1875 C 137.15087,56.958111 141.5301,48.290365 148.875,44.6875 z M 137.78125,86.15625 C 146.61558,95.662172 160.61219,100.29674 167.90625,110.875 C 168.582,116.66774 169.2976,124.53055 164.46875,128.5 C 156.11878,128.63395 150.19089,121.35461 143.53125,117.3125 C 135.08702,110.18316 131.87643,97.467185 137.10351,87.5221 C 137.29988,87.210887 137.43298,85.90633 137.78125,86.15625 z M 137.28125,127.59375 C 146.95406,133.08822 159.88839,138.49272 162.4375,150.5 C 162.71649,159.49564 151.2926,168.69926 143.5,161.90625 C 133.20737,154.48194 130.07316,137.78053 137.28125,127.59375 z "
       id="path2264" />
  </g>
</svg>
