<?xml version="1.0" encoding="UTF-8" standalone="no"?>
<!-- Created with Inkscape (http://www.inkscape.org/) -->
<svg
   xmlns:dc="http://purl.org/dc/elements/1.1/"
   xmlns:cc="http://web.resource.org/cc/"
   xmlns:rdf="http://www.w3.org/1999/02/22-rdf-syntax-ns#"
   xmlns:svg="http://www.w3.org/2000/svg"
   xmlns="http://www.w3.org/2000/svg"
   xmlns:sodipodi="http://sodipodi.sourceforge.net/DTD/sodipodi-0.dtd"
   xmlns:inkscape="http://www.inkscape.org/namespaces/inkscape"
   width="300"
   height="300"
   id="svg2"
   sodipodi:version="0.32"
   inkscape:version="0.45.1"
   version="1.0"
   sodipodi:docbase="C:\Documents and Settings\Martin\桌面"
   sodipodi:docname="drawing.svg"
   inkscape:output_extension="org.inkscape.output.svg.inkscape">
  <defs
     id="defs4" />
  <sodipodi:namedview
     id="base"
     pagecolor="#ffffff"
     bordercolor="#666666"
     borderopacity="1.0"
     gridtolerance="10000"
     guidetolerance="10"
     objecttolerance="10"
     inkscape:pageopacity="0.0"
     inkscape:pageshadow="2"
     inkscape:zoom="0.98994949"
     inkscape:cx="199.71072"
     inkscape:cy="127.53991"
     inkscape:document-units="px"
     inkscape:current-layer="layer1"
     width="300px"
     height="300px"
     inkscape:window-width="742"
     inkscape:window-height="577"
     inkscape:window-x="50"
     inkscape:window-y="0" />
  <metadata
     id="metadata7">
    <rdf:RDF>
      <cc:Work
         rdf:about="">
        <dc:format>image/svg+xml</dc:format>
        <dc:type
           rdf:resource="http://purl.org/dc/dcmitype/StillImage" />
      </cc:Work>
    </rdf:RDF>
  </metadata>
  <g
     inkscape:label="Layer 1"
     inkscape:groupmode="layer"
     id="layer1">
    <path
       style="fill:#000000"
       d="M 109.26632,287.86731 C 95.594777,284.31361 82.725297,273.25164 77.252275,260.34967 C 73.370367,251.19854 72.389834,233.54487 72.749654,179.28587 C 73.002668,141.13515 73.818071,97.761346 74.56166,82.899651 C 75.305256,68.037955 75.896006,47.518684 75.874456,37.301268 C 75.829671,16.082504 79.072864,9.091275 88.152009,10.835035 C 93.624121,11.886024 94.583273,15.532837 95.085932,37.198639 C 92.798317,86.291706 139.6418,63.625304 172.45899,68.230205 C 202.5621,72.916831 203.82449,71.532576 205.2375,32.287307 C 205.8289,15.861656 207.10332,11.853541 212.03845,10.898031 C 215.37868,10.251312 220.39755,11.619331 223.19145,13.938068 C 227.59054,17.588976 228.04058,33.129513 226.54961,129.90177 C 225.60273,191.36306 223.76899,246.20941 222.47471,251.78254 C 215.94161,279.9136 201.10285,287.98479 153.61159,289.23897 C 134.10561,289.7541 114.15025,289.13687 109.26632,287.86731 z M 169.61254,269.71199 C 196.72932,264.71552 199.08094,261.37823 204.26315,220.53792 C 208.38211,188.07697 206.32974,95.423646 201.38215,90.476076 C 197.6274,86.721342 99.153949,87.030206 95.375603,90.808566 C 93.65077,92.533396 92.013687,128.6982 91.737662,171.17476 C 91.094017,270.22631 91.809843,271.99941 132.95624,273.27735 C 141.10173,273.53034 157.59709,271.92591 169.61254,269.71199 z M 105.26089,160.99738 C 101.57256,151.38572 110.91611,148.76399 148.85927,148.76399 C 186.82741,148.76399 192.12297,150.46471 188.29798,161.43019 C 186.07558,167.80136 107.7151,167.39291 105.26089,160.99738 z "
       id="path2198"
       sodipodi:nodetypes="csssssccssssssccsssssccssc" />
  </g>
</svg>
