<?xml version="1.0" standalone="no"?>
<!DOCTYPE svg PUBLIC "-//W3C//DTD SVG 20010904//EN"
 "http://www.w3.org/TR/2001/REC-SVG-20010904/DTD/svg10.dtd">
<svg version="1.0" xmlns="http://www.w3.org/2000/svg"
 width="468pt" height="468pt" viewBox="0 0 468 468"
 preserveAspectRatio="xMidYMid meet">
<metadata>
Created by potrace 1.8, written by Peter Selinger 2001-2007
</metadata>
<g transform="translate(0,468) scale(0.550588,-0.550588)"
fill="#000000" stroke="none">
<path d="M375 731 c-3 -11 -5 -64 -4 -118 2 -145 2 -143 -24 -143 -30 0 -65
33 -72 68 -3 15 -10 41 -15 58 -6 17 -10 38 -10 47 0 15 -28 37 -48 37 -9 0 2
-77 20 -142 18 -62 42 -92 96 -118 58 -28 72 -55 49 -92 -28 -42 -31 -91 -8
-117 23 -26 26 -47 12 -84 -9 -22 -17 -24 -93 -30 -124 -10 -194 -39 -115 -49
33 -4 284 -4 465 0 95 2 102 3 102 22 0 16 -7 20 -32 21 -18 0 -49 3 -68 5
-19 2 -63 7 -97 10 l-63 6 0 49 c0 26 4 51 10 54 17 10 11 69 -10 95 -21 27
-28 110 -9 110 16 0 74 63 102 112 29 49 42 106 32 137 -10 33 -21 25 -35 -26
-8 -27 -16 -50 -20 -53 -3 -3 -17 -21 -30 -40 -28 -40 -46 -60 -54 -60 -3 0
-6 27 -6 61 0 33 -5 91 -11 130 -11 62 -14 69 -35 69 -14 0 -25 -8 -29 -19z"/>
</g>
</svg>
