<?xml version="1.0" standalone="no"?>
<!DOCTYPE svg PUBLIC "-//W3C//DTD SVG 20010904//EN"
 "http://www.w3.org/TR/2001/REC-SVG-20010904/DTD/svg10.dtd">
<svg version="1.0" xmlns="http://www.w3.org/2000/svg"
 width="468pt" height="468pt" viewBox="0 0 468 468"
 preserveAspectRatio="xMidYMid meet">
<metadata>
Created by potrace 1.8, written by Peter Selinger 2001-2007
</metadata>
<g transform="translate(0,468) scale(0.577778,-0.577778)"
fill="#000000" stroke="none">
<path d="M402 597 c-7 -8 -13 -68 -14 -143 l-3 -129 -47 -3 -48 -3 0 120 c0
67 -4 121 -9 121 -38 0 -41 -11 -41 -125 0 -63 5 -126 10 -140 10 -26 11 -26
75 -20 63 7 64 7 71 -19 12 -50 3 -55 -103 -58 -84 -3 -98 -5 -101 -20 -3 -16
7 -18 98 -18 l101 0 -3 -42 -3 -43 -105 -5 c-84 -4 -105 -8 -105 -20 0 -23
419 -36 453 -14 33 22 18 34 -42 34 -29 0 -74 3 -100 6 -46 7 -46 7 -46 45 l0
38 93 3 c74 2 92 6 92 18 0 12 -18 16 -92 18 l-93 3 0 99 0 100 58 0 c81 0 92
14 92 112 0 52 -4 77 -12 80 -30 11 -38 -4 -38 -72 0 -75 -4 -80 -66 -80 l-34
0 0 69 c0 94 -11 120 -38 88z"/>
</g>
</svg>
