<?xml version="1.0" standalone="no"?>
<!DOCTYPE svg PUBLIC "-//W3C//DTD SVG 20010904//EN"
 "http://www.w3.org/TR/2001/REC-SVG-20010904/DTD/svg10.dtd">
<svg version="1.0" xmlns="http://www.w3.org/2000/svg"
 width="468pt" height="468pt" viewBox="0 0 468 468"
 preserveAspectRatio="xMidYMid meet">
<metadata>
Created by potrace 1.8, written by Peter Selinger 2001-2007
</metadata>
<g transform="translate(0,468) scale(0.454369,-0.454369)"
fill="#000000" stroke="none">
<path d="M512 947 c-7 -8 -12 -78 -13 -177 -2 -164 -8 -200 -33 -200 -16 0
-74 28 -81 39 -2 5 -6 55 -7 112 -2 108 -11 134 -46 127 -15 -3 -17 -16 -15
-115 1 -89 5 -118 22 -150 23 -47 59 -73 99 -73 41 0 50 -15 58 -94 5 -53 4
-70 -7 -77 -8 -5 -62 -9 -121 -9 -96 0 -108 -2 -108 -18 0 -32 32 -41 132 -36
112 6 107 12 104 -118 l-1 -83 -142 -3 c-122 -2 -142 -5 -148 -20 -11 -29 31
-54 79 -47 23 3 106 7 186 10 268 9 375 16 383 25 5 4 -1 18 -13 30 -22 22
-27 22 -145 16 l-122 -7 -7 32 c-3 17 -6 62 -6 99 0 53 4 69 16 74 9 3 60 6
115 6 80 0 101 3 105 15 4 8 0 22 -7 31 -11 14 -31 16 -121 12 l-108 -4 0 70
c0 39 4 76 8 82 4 6 25 17 47 24 123 40 129 49 126 193 -1 80 -6 115 -18 133
-37 58 -60 3 -49 -115 10 -99 -17 -141 -91 -141 l-25 0 2 173 c2 94 2 178 1
185 -1 16 -36 16 -49 -1z"/>
</g>
</svg>
