<?xml version="1.0" standalone="no"?>
<!DOCTYPE svg PUBLIC "-//W3C//DTD SVG 20010904//EN"
 "http://www.w3.org/TR/2001/REC-SVG-20010904/DTD/svg10.dtd">
<svg version="1.0" xmlns="http://www.w3.org/2000/svg"
 width="468pt" height="468pt" viewBox="0 0 468 468"
 preserveAspectRatio="xMidYMid meet">
<metadata>
Created by potrace 1.8, written by Peter Selinger 2001-2007
</metadata>
<g transform="translate(0,468) scale(0.641096,-0.641096)"
fill="#000000" stroke="none">
<path d="M335 521 c-4 -17 -6 -45 -5 -63 3 -58 0 -88 -9 -88 -5 0 -34 25 -65
55 -58 58 -76 66 -76 37 0 -16 70 -110 132 -175 23 -25 26 -36 27 -103 1 -83
11 -75 -93 -78 -57 -1 -70 -18 -29 -39 34 -18 271 -32 292 -18 27 18 -6 41
-59 41 -36 0 -50 4 -54 17 -12 30 6 156 25 185 11 14 19 31 19 37 0 13 41 74
53 79 13 6 7 53 -8 59 -17 6 -65 -42 -65 -64 0 -7 -4 -13 -10 -13 -5 0 -10 19
-11 43 -1 90 -49 155 -64 88z"/>
</g>
</svg>
