<?xml version="1.0" standalone="no"?>
<!DOCTYPE svg PUBLIC "-//W3C//DTD SVG 20010904//EN"
 "http://www.w3.org/TR/2001/REC-SVG-20010904/DTD/svg10.dtd">
<svg version="1.0" xmlns="http://www.w3.org/2000/svg"
 width="468pt" height="468pt" viewBox="0 0 468 468"
 preserveAspectRatio="xMidYMid meet">
<metadata>
Created by potrace 1.8, written by Peter Selinger 2001-2007
</metadata>
<g transform="translate(0,468) scale(0.678261,-0.678261)"
fill="#000000" stroke="none">
<path d="M362 568 c-8 -8 -12 -49 -12 -110 0 -96 -1 -99 -25 -108 -26 -10 -55
-4 -67 14 -4 6 -8 46 -8 89 0 42 -4 77 -9 77 -5 0 -11 -6 -13 -12 -3 -11 -2
-210 1 -350 2 -59 18 -45 26 22 l7 60 44 0 44 0 0 -67 c0 -82 8 -113 27 -113
10 0 14 10 12 38 -1 20 -2 61 -1 90 l2 52 40 0 40 0 0 -67 c0 -62 11 -105 24
-92 7 7 7 95 1 294 -2 94 -5 173 -5 178 0 18 -21 5 -31 -20 -11 -28 -36 -52
-56 -53 -8 0 -13 14 -13 39 0 43 -10 57 -28 39z m91 -165 l4 -53 -33 0 c-33 0
-34 1 -34 44 0 39 4 47 28 58 31 16 29 19 35 -49z m7 -110 c0 -11 -6 -14 -22
-9 -13 3 -29 6 -35 6 -25 0 -13 19 15 22 34 5 42 1 42 -19z m-110 7 c0 -5 -18
-10 -40 -10 -22 0 -40 5 -40 10 0 6 18 10 40 10 22 0 40 -4 40 -10z"/>
</g>
</svg>
