<?xml version="1.0" standalone="no"?>
<!DOCTYPE svg PUBLIC "-//W3C//DTD SVG 20010904//EN"
 "http://www.w3.org/TR/2001/REC-SVG-20010904/DTD/svg10.dtd">
<svg version="1.0" xmlns="http://www.w3.org/2000/svg"
 width="468pt" height="468pt" viewBox="0 0 468 468"
 preserveAspectRatio="xMidYMid meet">
<metadata>
Created by potrace 1.8, written by Peter Selinger 2001-2007
</metadata>
<g transform="translate(0,468) scale(0.678261,-0.678261)"
fill="#000000" stroke="none">
<path d="M540 555 c-7 -20 -10 -42 -7 -49 6 -15 -39 -26 -102 -26 -29 0 -33 3
-28 21 3 12 1 32 -4 46 -7 19 -15 24 -37 21 -18 -2 -26 -8 -23 -18 3 -8 7 -56
9 -106 l4 -91 -44 -2 c-23 -1 -56 -3 -73 -4 l-30 -2 0 80 c-1 80 -14 125 -38
125 -10 0 -14 -24 -16 -82 -1 -45 -7 -89 -14 -97 -9 -12 -9 -13 1 -7 8 5 12
-2 13 -26 2 -69 -3 -123 -12 -133 -10 -10 -12 -114 -3 -139 12 -32 31 -16 38
33 l6 48 75 -1 c41 0 75 -3 76 -6 1 -3 3 -18 5 -34 2 -16 10 -36 18 -44 13
-13 16 -10 26 29 6 24 12 49 14 54 3 9 38 11 124 7 30 -2 32 -4 32 -40 0 -26
7 -45 20 -57 18 -16 20 -16 26 -1 3 9 3 28 0 42 -4 14 -7 118 -7 232 0 194 -8
262 -31 262 -3 0 -12 -16 -18 -35z m-23 -121 c18 -5 22 -13 20 -45 l-1 -39
-67 0 c-69 0 -79 6 -79 50 0 29 72 49 127 34z m-169 -186 l-3 -53 -77 -3 -78
-4 0 51 0 50 58 4 c31 2 67 4 80 5 22 2 23 -1 20 -50z m187 38 c3 -6 6 -29 7
-51 2 -32 0 -39 -12 -36 -15 4 -28 4 -100 -1 -39 -3 -46 10 -35 68 l6 34 65
-1 c38 -1 67 -6 69 -13z"/>
</g>
</svg>
