<?xml version="1.0" encoding="UTF-8" standalone="no"?>
<!-- Created with Inkscape (http://www.inkscape.org/) -->

<svg
   xmlns:dc="http://purl.org/dc/elements/1.1/"
   xmlns:cc="http://creativecommons.org/ns#"
   xmlns:rdf="http://www.w3.org/1999/02/22-rdf-syntax-ns#"
   xmlns:svg="http://www.w3.org/2000/svg"
   xmlns="http://www.w3.org/2000/svg"
   version="1.1"
   width="300"
   height="300"
   id="svg2">
  <defs
     id="defs4" />
  <metadata
     id="metadata7">
    <rdf:RDF>
      <cc:Work
         rdf:about="">
        <dc:format>image/svg+xml</dc:format>
        <dc:type
           rdf:resource="http://purl.org/dc/dcmitype/StillImage" />
        <dc:title></dc:title>
      </cc:Work>
    </rdf:RDF>
  </metadata>
  <g
     transform="translate(0,-752.36218)"
     id="layer1">
    <path
       d="M 76.631793,1021.8663 C 81.551108,970.21208 85.563062,901.37984 87.108816,842.11427 88.526432,787.76163 88.073914,768.60187 90.653881,768.60187 98.754879,768.60187 103.27455,784.80393 104.76019,821.47065 105.63041,842.94827 107.32982,858.52809 108.94517,859.83768 110.44105,861.05041 118.91701,862.43996 127.78065,862.92556 L 143.89635,863.80848 146.37569,818.66494 C 147.90413,790.83538 149.96081,772.42313 151.73818,770.65783 157.55821,764.87731 160.01206,771.20596 160.01206,791.99682 160.01206,811.76458 160.35453,813.09212 166.4914,817.11315 173.90681,821.97192 195.98028,822.63364 200.4818,818.13213 202.05177,816.56216 203.99107,806.36666 204.79135,795.47547 206.39096,773.70587 209.32396,767.94032 215.98607,773.46937 219.49069,776.37795 219.80412,779.48312 218.0902,794.31471 214.92199,821.73124 215.67003,932.15706 219.28317,970.42005 221.0859,989.51099 223.08248,1010.7761 223.72,1017.676 224.94522,1030.9364 220.83649,1038.1111 213.60633,1035.3366 209.32826,1033.695 207.55556,1021.2205 204.78092,973.23247 202.22307,928.99384 202.08543,928.76293 178.10159,928.47416 L 161.25173,928.27129 159.89302,977.2333 C 158.51791,1026.7862 157.15324,1033.4516 149.02169,1030.3312 144.67382,1028.6628 144.36946,1024.6682 144.07888,965.46137 L 143.89635,928.27129 123.41871,927.55081 C 103.67328,926.8561 102.85851,927.04747 100.63235,932.90269 99.362563,936.24249 97.609199,951.62869 96.735991,967.09425 93.996477,1015.6142 88.773506,1036.1225 79.156167,1036.1225 75.925648,1036.1225 75.501967,1033.7298 76.631793,1021.8663 z M 198.44181,897.27956 198.44181,878.68451 183.56578,878.04337 C 175.38396,877.69074 167.43015,878.24859 165.89064,879.28304 162.13584,881.80602 159.3217,905.04777 162.23417,909.48157 164.6213,913.11561 181.31027,916.87155 192.24346,916.2353 198.272,915.88448 198.44181,915.36518 198.44181,897.27956 z M 141.52008,909.59071 C 143.67541,907.80195 145.13602,902.22872 145.13602,895.79346 145.13602,881.52954 138.55736,876.86316 119.94831,877.92729 102.94374,878.69046 107.26047,876.49542 103.14536,892.75014 98.221673,912.19871 100.69149,914.93302 121.97296,913.59403 130.73511,913.04273 139.53132,911.24124 141.52008,909.59071 z M 198.44181,850.17212 198.44181,834.05642 184.80545,833.41354 C 177.30545,833.05995 169.62204,833.77784 167.73122,835.00885 165.75036,836.29847 164.08902,842.1522 163.8112,848.82102 163.19121,863.70374 168.43718,867.99096 186.04512,866.99149 L 198.44181,866.28782 z"
       id="path3035"
       style="fill:#000000" />
  </g>
</svg>
