<?xml version="1.0" standalone="no"?>
<!DOCTYPE svg PUBLIC "-//W3C//DTD SVG 20010904//EN"
 "http://www.w3.org/TR/2001/REC-SVG-20010904/DTD/svg10.dtd">
<svg version="1.0" xmlns="http://www.w3.org/2000/svg"
 width="468pt" height="468pt" viewBox="0 0 468 468"
 preserveAspectRatio="xMidYMid meet">
<metadata>
Created by potrace 1.8, written by Peter Selinger 2001-2007
</metadata>
<g transform="translate(0,468) scale(0.592405,-0.592405)"
fill="#000000" stroke="none">
<path d="M459 613 c-38 -36 -77 -84 -86 -105 -18 -41 -29 -46 -58 -24 -18 13
-18 15 -2 58 10 25 29 55 42 68 25 24 33 50 15 50 -19 0 -108 -100 -115 -129
-10 -47 27 -101 71 -101 20 0 24 -5 24 -29 0 -26 -4 -30 -39 -36 -85 -14 -151
-94 -151 -182 0 -28 4 -63 9 -76 13 -33 94 -79 145 -82 57 -3 184 12 217 26
68 27 108 153 75 228 -23 49 -83 88 -152 97 -44 5 -54 10 -54 25 0 11 7 19 18
19 41 1 95 39 157 113 38 45 59 77 51 77 -15 0 -115 -79 -150 -119 -16 -17
-66 -31 -66 -17 0 23 39 82 84 126 53 52 69 80 45 80 -6 0 -42 -30 -80 -67z
m-101 -334 l-3 -44 -49 -7 c-26 -4 -55 -9 -64 -13 -26 -10 3 -23 65 -31 l53
-6 0 -43 c0 -56 -17 -71 -72 -59 -77 16 -112 109 -68 181 20 33 43 50 95 68
39 15 47 7 43 -46z m169 36 c26 -18 48 -102 39 -149 -4 -18 -14 -40 -24 -49
-24 -22 -86 -47 -117 -47 -24 0 -25 3 -25 53 l0 53 61 13 c86 17 76 33 -33 56
-25 5 -28 10 -28 45 l0 40 53 0 c30 0 62 -6 74 -15z"/>
</g>
</svg>
