<?xml version="1.0" standalone="no"?>
<!DOCTYPE svg PUBLIC "-//W3C//DTD SVG 20010904//EN"
 "http://www.w3.org/TR/2001/REC-SVG-20010904/DTD/svg10.dtd">
<svg version="1.0" xmlns="http://www.w3.org/2000/svg"
 width="469pt" height="469pt" viewBox="0 0 469 469"
 preserveAspectRatio="xMidYMid meet">
<metadata>
Created by potrace 1.8, written by Peter Selinger 2001-2007
</metadata>
<g transform="translate(0,469) scale(0.883019,-0.883019)"
fill="#000000" stroke="none">
<path d="M84 376 c-30 -33 2 -302 41 -342 14 -15 286 -7 312 9 6 4 14 28 17
55 7 53 -7 268 -18 279 -13 13 -340 13 -352 -1z m155 -74 c6 -31 11 -61 11
-69 0 -16 -54 -17 -98 -2 -26 9 -32 17 -37 52 -4 23 -8 49 -11 57 -3 12 8 15
60 16 l64 0 11 -54z m154 52 l38 -7 -3 -61 -3 -61 -65 -3 -65 -3 -12 43 c-28
103 -29 98 24 98 27 0 65 -3 86 -6z m35 -209 c4 -58 -11 -72 -91 -79 -63 -5
-68 -4 -61 12 4 9 9 36 12 59 4 40 6 42 40 45 93 8 97 7 100 -37z m-180 -22
l-3 -58 -45 -3 -46 -3 -12 46 c-20 74 -19 75 48 75 l61 0 -3 -57z"/>
</g>
</svg>
