<?xml version="1.0" standalone="no"?>
<!DOCTYPE svg PUBLIC "-//W3C//DTD SVG 20010904//EN"
 "http://www.w3.org/TR/2001/REC-SVG-20010904/DTD/svg10.dtd">
<svg version="1.0" xmlns="http://www.w3.org/2000/svg"
 width="468pt" height="468pt" viewBox="0 0 468 468"
 preserveAspectRatio="xMidYMid meet">
<metadata>
Created by potrace 1.8, written by Peter Selinger 2001-2007
</metadata>
<g transform="translate(0,468) scale(0.437383,-0.437383)"
fill="#000000" stroke="none">
<path d="M396 862 c-5 -5 -35 -10 -62 -11 -15 -1 -33 -18 -55 -53 l-34 -53 0
-178 c-1 -161 13 -338 30 -409 4 -15 16 -30 26 -33 10 -4 19 -14 19 -24 0 -23
36 -56 82 -76 56 -23 189 -20 267 6 66 23 131 72 131 101 0 9 6 18 13 21 16 5
12 598 -5 630 -21 40 -60 65 -112 73 -56 7 -294 13 -300 6z m102 -65 c6 -7 10
-65 9 -147 l-2 -135 -100 0 -100 0 2 65 c3 95 13 182 25 203 7 13 16 17 33 13
13 -3 27 -2 30 4 9 14 91 12 103 -3z m197 3 c3 -5 14 -10 24 -10 33 0 40 -23
42 -150 l1 -125 -93 0 -94 0 -1 135 c-1 79 2 140 8 148 12 14 104 16 113 2z
m17 -345 l56 -6 2 -62 c2 -84 -8 -174 -25 -227 -11 -34 -47 -66 -81 -73 -16
-3 -41 -9 -56 -12 l-26 -7 -4 78 c-2 44 -2 130 0 192 3 106 5 114 25 122 12 5
29 7 37 5 8 -2 41 -6 72 -10z m-206 -3 c8 -5 11 -65 10 -192 l-1 -185 -39 -3
c-111 -9 -166 91 -170 308 l-1 65 80 6 c44 3 87 6 95 7 8 1 20 -2 26 -6z"/>
</g>
</svg>
