<?xml version="1.0" encoding="UTF-8" standalone="no"?>
<!-- Created with Inkscape (http://www.inkscape.org/) -->
<svg
   xmlns:dc="http://purl.org/dc/elements/1.1/"
   xmlns:cc="http://creativecommons.org/ns#"
   xmlns:rdf="http://www.w3.org/1999/02/22-rdf-syntax-ns#"
   xmlns:svg="http://www.w3.org/2000/svg"
   xmlns="http://www.w3.org/2000/svg"
   xmlns:sodipodi="http://sodipodi.sourceforge.net/DTD/sodipodi-0.dtd"
   xmlns:inkscape="http://www.inkscape.org/namespaces/inkscape"
   width="300"
   height="300"
   id="svg2400"
   sodipodi:version="0.32"
   inkscape:version="0.46"
   version="1.0"
   sodipodi:docname="疒-seal.svg"
   inkscape:output_extension="org.inkscape.output.svg.inkscape">
  <defs
     id="defs2402">
    <inkscape:perspective
       sodipodi:type="inkscape:persp3d"
       inkscape:vp_x="0 : 526.18109 : 1"
       inkscape:vp_y="0 : 1000 : 0"
       inkscape:vp_z="744.09448 : 526.18109 : 1"
       inkscape:persp3d-origin="372.04724 : 350.78739 : 1"
       id="perspective2408" />
    <inkscape:perspective
       id="perspective3684"
       inkscape:persp3d-origin="372.04724 : 350.78739 : 1"
       inkscape:vp_z="744.09448 : 526.18109 : 1"
       inkscape:vp_y="0 : 1000 : 0"
       inkscape:vp_x="0 : 526.18109 : 1"
       sodipodi:type="inkscape:persp3d" />
    <inkscape:perspective
       id="perspective3736"
       inkscape:persp3d-origin="372.04724 : 350.78739 : 1"
       inkscape:vp_z="744.09448 : 526.18109 : 1"
       inkscape:vp_y="0 : 1000 : 0"
       inkscape:vp_x="0 : 526.18109 : 1"
       sodipodi:type="inkscape:persp3d" />
    <inkscape:perspective
       id="perspective2478"
       inkscape:persp3d-origin="372.04724 : 350.78739 : 1"
       inkscape:vp_z="744.09448 : 526.18109 : 1"
       inkscape:vp_y="0 : 1000 : 0"
       inkscape:vp_x="0 : 526.18109 : 1"
       sodipodi:type="inkscape:persp3d" />
    <inkscape:perspective
       id="perspective2513"
       inkscape:persp3d-origin="372.04724 : 350.78739 : 1"
       inkscape:vp_z="744.09448 : 526.18109 : 1"
       inkscape:vp_y="0 : 1000 : 0"
       inkscape:vp_x="0 : 526.18109 : 1"
       sodipodi:type="inkscape:persp3d" />
    <inkscape:perspective
       id="perspective2550"
       inkscape:persp3d-origin="372.04724 : 350.78739 : 1"
       inkscape:vp_z="744.09448 : 526.18109 : 1"
       inkscape:vp_y="0 : 1000 : 0"
       inkscape:vp_x="0 : 526.18109 : 1"
       sodipodi:type="inkscape:persp3d" />
    <inkscape:perspective
       id="perspective2585"
       inkscape:persp3d-origin="372.04724 : 350.78739 : 1"
       inkscape:vp_z="744.09448 : 526.18109 : 1"
       inkscape:vp_y="0 : 1000 : 0"
       inkscape:vp_x="0 : 526.18109 : 1"
       sodipodi:type="inkscape:persp3d" />
    <inkscape:perspective
       id="perspective2620"
       inkscape:persp3d-origin="372.04724 : 350.78739 : 1"
       inkscape:vp_z="744.09448 : 526.18109 : 1"
       inkscape:vp_y="0 : 1000 : 0"
       inkscape:vp_x="0 : 526.18109 : 1"
       sodipodi:type="inkscape:persp3d" />
    <inkscape:perspective
       id="perspective2655"
       inkscape:persp3d-origin="372.04724 : 350.78739 : 1"
       inkscape:vp_z="744.09448 : 526.18109 : 1"
       inkscape:vp_y="0 : 1000 : 0"
       inkscape:vp_x="0 : 526.18109 : 1"
       sodipodi:type="inkscape:persp3d" />
    <inkscape:perspective
       id="perspective2690"
       inkscape:persp3d-origin="372.04724 : 350.78739 : 1"
       inkscape:vp_z="744.09448 : 526.18109 : 1"
       inkscape:vp_y="0 : 1000 : 0"
       inkscape:vp_x="0 : 526.18109 : 1"
       sodipodi:type="inkscape:persp3d" />
    <inkscape:perspective
       id="perspective2725"
       inkscape:persp3d-origin="372.04724 : 350.78739 : 1"
       inkscape:vp_z="744.09448 : 526.18109 : 1"
       inkscape:vp_y="0 : 1000 : 0"
       inkscape:vp_x="0 : 526.18109 : 1"
       sodipodi:type="inkscape:persp3d" />
    <inkscape:perspective
       id="perspective2760"
       inkscape:persp3d-origin="372.04724 : 350.78739 : 1"
       inkscape:vp_z="744.09448 : 526.18109 : 1"
       inkscape:vp_y="0 : 1000 : 0"
       inkscape:vp_x="0 : 526.18109 : 1"
       sodipodi:type="inkscape:persp3d" />
  </defs>
  <sodipodi:namedview
     id="base"
     pagecolor="#ffffff"
     bordercolor="#666666"
     borderopacity="1.0"
     gridtolerance="10000"
     guidetolerance="10"
     objecttolerance="10"
     inkscape:pageopacity="0.0"
     inkscape:pageshadow="2"
     inkscape:zoom="1.4"
     inkscape:cx="9.0598069"
     inkscape:cy="210.99213"
     inkscape:document-units="px"
     inkscape:current-layer="layer1"
     showgrid="false"
     width="300px"
     inkscape:window-width="1680"
     inkscape:window-height="979"
     inkscape:window-x="0"
     inkscape:window-y="25" />
  <metadata
     id="metadata2405">
    <rdf:RDF>
      <cc:Work
         rdf:about="">
        <dc:format>image/svg+xml</dc:format>
        <dc:type
           rdf:resource="http://purl.org/dc/dcmitype/StillImage" />
      </cc:Work>
    </rdf:RDF>
  </metadata>
  <g
     inkscape:label="Layer 1"
     inkscape:groupmode="layer"
     id="layer1">
    <path
       style="fill:#000000"
       d="M 88.31723,283.07352 C 87.611269,281.93125 89.908859,269.65752 93.422992,255.79853 C 102.56496,219.74454 104.09808,207.73803 99.608271,207.35886 C 86.537963,206.25504 78.84252,211.93666 78.682976,222.8082 C 78.55736,231.36761 69.044002,252.08145 64.424302,253.8542 C 55.628596,257.22942 54.770114,246.99613 62.566863,231.71325 C 69.102244,216.19928 72.392688,199.12896 74.336016,182.419 C 76.016113,159.93461 78.168133,155.13929 85.342907,157.89251 C 88.737562,159.19516 89.63711,162.562 89.185497,172.27454 C 88.317897,190.93329 88.597389,191.63539 96.892766,191.63539 L 104.50011,191.63539 L 106.23212,161.577 C 107.18472,145.04489 107.9696,123.40284 107.97628,113.48357 C 107.98804,96.024204 107.77522,95.448541 101.30878,95.448541 C 96.800182,95.448541 94.567948,96.96827 94.440862,100.12429 C 93.358772,126.9971 88.874067,143.54197 82.671918,143.54197 C 79.537936,143.54197 78.597999,140.30151 78.597999,129.49708 C 78.597999,121.77239 79.655487,111.76496 80.947962,107.25834 C 82.291579,102.57343 82.306553,88.320793 80.982932,73.976395 C 79.709693,60.177932 79.553962,48.067772 80.636865,47.064925 C 81.719768,46.062078 85.311042,46.279538 88.617468,47.54817 C 93.861841,49.56037 94.629146,51.765114 94.629146,64.821918 C 94.629146,78.815135 95.020322,79.733502 100.64082,78.935265 C 106.51033,78.101661 106.64431,77.335539 106.30637,46.540736 L 105.96024,15.000001 L 112.98601,15.814381 C 119.07181,16.519804 120.34479,18.3535 122.50089,29.52031 L 124.98999,42.411859 L 142.53981,41.084884 C 152.19222,40.355047 169.10716,39.080938 180.12857,38.25353 C 191.14997,37.426126 207.61276,36.181369 216.71253,35.48741 C 229.81115,34.488494 234.45991,35.199277 239.02966,38.899642 C 249.25312,47.178097 240.59238,49.419301 186.79858,52.415875 C 158.88297,53.970906 133.51168,55.967782 130.41794,56.853374 C 125.0074,58.402157 124.72011,60.620121 122.88205,115.03 C 120.80107,176.63073 120.6833,178.26598 116.21045,207.66653 C 109.47746,251.92309 102.46273,279.25936 96.941512,282.75723 C 92.380405,285.64684 89.96244,285.73552 88.31723,283.07352 z"
       id="path2768"
       sodipodi:nodetypes="cssssccsscccsssssssssssccccccssssssssc" />
  </g>
</svg>
