<?xml version="1.0" encoding="UTF-8" standalone="no"?>
<!-- Created with Inkscape (http://www.inkscape.org/) -->
<svg
   xmlns:dc="http://purl.org/dc/elements/1.1/"
   xmlns:cc="http://creativecommons.org/ns#"
   xmlns:rdf="http://www.w3.org/1999/02/22-rdf-syntax-ns#"
   xmlns:svg="http://www.w3.org/2000/svg"
   xmlns="http://www.w3.org/2000/svg"
   xmlns:sodipodi="http://sodipodi.sourceforge.net/DTD/sodipodi-0.dtd"
   xmlns:inkscape="http://www.inkscape.org/namespaces/inkscape"
   width="300"
   height="300"
   id="svg2400"
   sodipodi:version="0.32"
   inkscape:version="0.46"
   version="1.0"
   sodipodi:docname="drawing.svg"
   inkscape:output_extension="org.inkscape.output.svg.inkscape">
  <defs
     id="defs2402">
    <inkscape:perspective
       sodipodi:type="inkscape:persp3d"
       inkscape:vp_x="0 : 526.18109 : 1"
       inkscape:vp_y="0 : 1000 : 0"
       inkscape:vp_z="744.09448 : 526.18109 : 1"
       inkscape:persp3d-origin="372.04724 : 350.78739 : 1"
       id="perspective2408" />
    <inkscape:perspective
       id="perspective3684"
       inkscape:persp3d-origin="372.04724 : 350.78739 : 1"
       inkscape:vp_z="744.09448 : 526.18109 : 1"
       inkscape:vp_y="0 : 1000 : 0"
       inkscape:vp_x="0 : 526.18109 : 1"
       sodipodi:type="inkscape:persp3d" />
    <inkscape:perspective
       id="perspective3736"
       inkscape:persp3d-origin="372.04724 : 350.78739 : 1"
       inkscape:vp_z="744.09448 : 526.18109 : 1"
       inkscape:vp_y="0 : 1000 : 0"
       inkscape:vp_x="0 : 526.18109 : 1"
       sodipodi:type="inkscape:persp3d" />
    <inkscape:perspective
       id="perspective2388"
       inkscape:persp3d-origin="372.04724 : 350.78739 : 1"
       inkscape:vp_z="744.09448 : 526.18109 : 1"
       inkscape:vp_y="0 : 1000 : 0"
       inkscape:vp_x="0 : 526.18109 : 1"
       sodipodi:type="inkscape:persp3d" />
  </defs>
  <sodipodi:namedview
     id="base"
     pagecolor="#ffffff"
     bordercolor="#666666"
     borderopacity="1.0"
     gridtolerance="10000"
     guidetolerance="10"
     objecttolerance="10"
     inkscape:pageopacity="0.0"
     inkscape:pageshadow="2"
     inkscape:zoom="0.98994949"
     inkscape:cx="133.32273"
     inkscape:cy="11.695478"
     inkscape:document-units="px"
     inkscape:current-layer="layer1"
     showgrid="false"
     width="300px"
     inkscape:window-width="1280"
     inkscape:window-height="953"
     inkscape:window-x="0"
     inkscape:window-y="48"
     showguides="true"
     inkscape:guide-bbox="true" />
  <metadata
     id="metadata2405">
    <rdf:RDF>
      <cc:Work
         rdf:about="">
        <dc:format>image/svg+xml</dc:format>
        <dc:type
           rdf:resource="http://purl.org/dc/dcmitype/StillImage" />
      </cc:Work>
    </rdf:RDF>
  </metadata>
  <g
     inkscape:label="Layer 1"
     inkscape:groupmode="layer"
     id="layer1">
    <path
       style="fill:#000000"
       d="M 60.894864,283.97187 C 51.563182,282.01814 54.979438,270.72747 66.545324,265.2972 C 72.372357,262.56136 81.263135,257.55832 86.302617,254.17932 C 94.965981,248.37049 95.466354,247.09231 95.484606,230.72396 C 95.504784,212.63173 93.691521,209.37583 81.509539,205.63031 C 66.177436,200.91624 66.088026,200.45118 66.443268,127.2713 C 66.77361,59.220114 68.261911,48.737879 76.433619,56.908558 C 79.014128,59.488748 80.043115,76.355924 80.254643,119.54322 C 80.467775,163.05804 81.498092,179.79624 84.161028,183.00488 C 93.142172,193.82649 94.512525,183.38609 94.914906,101.07359 C 95.131869,56.692113 96.063855,19.159229 96.986004,17.667179 C 99.928795,12.905639 105.80348,14.747271 108.82487,21.378497 C 111.32875,26.873936 112.27125,78.987135 112.43723,221.11755 L 112.45527,236.57783 L 118.81203,230.2207 C 124.34896,224.68347 125.2637,220.50328 125.9046,197.80905 C 126.3093,183.47906 127.35026,157.13398 128.21787,139.2644 C 129.08547,121.39484 128.69053,97.031904 127.34024,85.124562 C 124.76715,62.434421 126.95677,54.507557 135.79747,54.507557 C 139.04376,54.507557 140.53119,58.644061 141.63893,70.752621 C 146.87653,128.00376 144.66096,232.6326 137.90548,247.0628 C 135.41247,252.38805 126.49477,258.5065 107.1791,268.14421 C 78.577184,282.41537 69.039254,285.67704 60.894864,283.97187 z M 200.48841,275.3731 C 181.05308,268.46349 169.14295,262.50475 164.90616,257.57097 C 157.69219,249.17024 154.86217,229.33528 156.28993,197.18159 C 156.77292,186.30445 157.53003,150.70658 157.97241,118.07519 C 158.58532,72.864484 159.68623,57.822962 162.59852,54.869223 C 165.83312,51.588573 167.01819,51.805605 170.31194,56.281837 C 173.46249,60.563482 173.97033,75.827877 172.97865,136.43918 C 172.30495,177.61689 171.28689,216.82816 170.71629,223.57537 C 169.89669,233.26724 171.04288,237.4196 176.17532,243.35196 C 182.08634,250.18425 182.85155,250.39827 184.66664,245.72687 C 183.54369,231.69997 182.95775,216.96152 183.64165,202.26768 C 184.72418,183.93157 185.74076,139.68819 185.90068,103.94905 C 186.21494,33.724383 188.32529,17.779588 197.30545,17.779588 C 214.87192,45.379121 203.41085,167.56336 202.2573,165.72999 C 205.15118,172.69459 197.16312,205.69647 209.7421,183.82734 C 213.32581,176.26377 214.02159,163.92427 213.56284,116.06617 C 213.25436,83.883693 213.71702,56.837517 214.59096,55.963561 C 217.6751,52.879434 225.53,58.032569 226.84269,64.001174 C 231.11534,106.07345 235.14446,162.65345 220.95479,203.53835 C 218.53379,207.29531 214.01843,209.89512 209.91435,209.89512 C 201.71396,209.89512 199.90562,215.4167 200.77431,237.8031 C 201.33608,252.27968 201.83315,253.19917 211.29525,257.265 C 233.10082,266.63474 235.53532,267.97315 240.36283,273.24552 C 243.11841,276.25501 244.92739,280.07774 244.3828,281.74051 C 242.47633,287.56132 229.46084,285.67328 200.48841,275.3731 z"
       id="path2394"
       sodipodi:nodetypes="cssssssssssscccsssssssccssssssssccscccssccsssssc" />
  </g>
</svg>
