<?xml version="1.0" standalone="no"?>
<!DOCTYPE svg PUBLIC "-//W3C//DTD SVG 20010904//EN"
 "http://www.w3.org/TR/2001/REC-SVG-20010904/DTD/svg10.dtd">
<svg version="1.0" xmlns="http://www.w3.org/2000/svg"
 width="468pt" height="468pt" viewBox="0 0 468 468"
 preserveAspectRatio="xMidYMid meet">
<metadata>
Created by potrace 1.8, written by Peter Selinger 2001-2007
</metadata>
<g transform="translate(0,468) scale(0.433333,-0.433333)"
fill="#000000" stroke="none">
<path d="M533 902 c-7 -4 -13 -56 -17 -136 -6 -124 -14 -156 -40 -156 -6 0
-18 -9 -26 -20 -8 -11 -22 -20 -32 -20 -10 0 -18 -4 -18 -10 0 -5 -9 -10 -20
-10 -19 0 -20 7 -20 101 0 98 0 100 -22 97 -32 -4 -36 -39 -37 -340 -2 -254
-1 -257 23 -300 13 -23 39 -51 58 -62 70 -40 276 -36 341 7 56 37 59 52 59
384 1 319 0 328 -42 320 -12 -2 -14 -20 -11 -105 2 -65 -1 -102 -7 -102 -6 0
-17 -3 -26 -6 -10 -4 -16 -1 -16 7 0 14 -78 69 -98 69 -18 0 -22 31 -16 120
11 153 10 164 -6 167 -8 2 -20 0 -27 -5z m44 -344 c15 -7 30 -15 33 -18 3 -3
32 -19 65 -35 l60 -31 0 -69 0 -70 -181 -3 c-137 -2 -184 1 -191 10 -6 7 -13
34 -16 60 -5 37 -2 51 14 72 11 14 28 26 36 26 18 0 103 51 103 63 0 11 46 8
77 -5z m153 -268 c11 -7 12 -22 2 -84 -6 -42 -17 -84 -24 -95 -30 -49 -280
-48 -326 2 -24 27 -48 142 -33 165 10 16 357 27 381 12z"/>
</g>
</svg>
