<?xml version="1.0" encoding="UTF-8" standalone="no"?>
<!-- Created with Inkscape (http://www.inkscape.org/) -->
<svg
   xmlns:dc="http://purl.org/dc/elements/1.1/"
   xmlns:cc="http://web.resource.org/cc/"
   xmlns:rdf="http://www.w3.org/1999/02/22-rdf-syntax-ns#"
   xmlns:svg="http://www.w3.org/2000/svg"
   xmlns="http://www.w3.org/2000/svg"
   xmlns:sodipodi="http://sodipodi.sourceforge.net/DTD/sodipodi-0.dtd"
   xmlns:inkscape="http://www.inkscape.org/namespaces/inkscape"
   width="300"
   height="300"
   id="svg2"
   sodipodi:version="0.32"
   inkscape:version="0.45.1"
   version="1.0"
   sodipodi:docbase="C:\Documents and Settings\Martin\桌面"
   sodipodi:docname="drawing.svg"
   inkscape:output_extension="org.inkscape.output.svg.inkscape">
  <defs
     id="defs4" />
  <sodipodi:namedview
     id="base"
     pagecolor="#ffffff"
     bordercolor="#666666"
     borderopacity="1.0"
     gridtolerance="10000"
     guidetolerance="10"
     objecttolerance="10"
     inkscape:pageopacity="0.0"
     inkscape:pageshadow="2"
     inkscape:zoom="2.6266666"
     inkscape:cx="138.87759"
     inkscape:cy="201.59533"
     inkscape:document-units="px"
     inkscape:current-layer="layer1"
     width="300px"
     height="300px"
     inkscape:window-width="742"
     inkscape:window-height="577"
     inkscape:window-x="22"
     inkscape:window-y="0" />
  <metadata
     id="metadata7">
    <rdf:RDF>
      <cc:Work
         rdf:about="">
        <dc:format>image/svg+xml</dc:format>
        <dc:type
           rdf:resource="http://purl.org/dc/dcmitype/StillImage" />
      </cc:Work>
    </rdf:RDF>
  </metadata>
  <g
     inkscape:label="Layer 1"
     inkscape:groupmode="layer"
     id="layer1">
    <path
       style="fill:#000000"
       d="M 157.5072,273.14716 C 157.2979,272.96072 142.94904,272.1465 125.62085,271.33778 C 108.29269,270.52907 92.713116,268.70385 90.999596,267.28176 C 86.675341,263.69295 87.109482,259.05777 92.109774,255.4284 C 94.433877,253.74152 97.516601,249.19259 98.960254,245.3197 C 102.6298,235.47532 104.67578,206.49362 102.9147,189.30434 C 101.5856,176.33165 100.62106,174.27278 93.410447,169.01699 C 85.070206,162.9378 70.843123,141.45595 68.497159,131.39976 C 62.565612,105.97335 56.177723,92.430107 41.60313,74.380527 C 36.289369,67.7998 34.467817,57.74558 38.174315,55.454833 C 40.85191,53.799995 52.49813,60.140758 57.612876,66.038109 C 61.84967,70.923157 61.876712,70.909368 75.456899,56.936771 C 82.937341,49.240176 92.642704,38.834368 97.024375,33.812742 C 104.35312,25.413644 105.13405,25.058445 106.777,29.376942 C 109.1806,35.694869 107.00238,44.750447 101.65927,50.653059 C 90.970856,59.471952 87.68057,75.375987 81.976193,89.603294 C 79.055121,100.45682 80.603918,114.7428 85.812975,124.99366 C 89.007183,137.60129 96.298314,146.08569 106.86734,153.90854 C 112.71435,157.5996 119.53282,159.68322 125.97952,159.74898 C 131.49178,159.8052 140.47753,160.71718 145.94785,161.77561 C 160.16263,164.52594 179.78796,160.00305 188.03043,152.07714 C 208.5075,132.38651 214.63314,120.45665 214.63314,100.26754 C 214.63314,84.059131 206.32195,66.080737 191.00457,49.155224 C 180.76723,37.843085 179.38922,32.897746 186.47447,32.897746 C 191.16335,32.897746 207.99466,48.135552 219.79905,63.067344 L 226.02162,70.938508 L 240.376,65.97088 C 251.22644,62.215859 255.8525,61.603802 259.32737,63.463512 C 267.46472,67.818488 264.55751,72.657464 249.5903,79.670633 L 238.77699,84.737413 L 237.28004,102.44646 C 236.45671,112.18644 234.3169,123.49577 232.52491,127.57831 C 230.73291,131.66086 227.91784,138.69797 226.26921,143.21633 C 221.71888,155.68722 212.80056,166.49429 201.37381,173.38412 C 189.7071,180.41864 186.50131,187.97678 186.47976,208.49914 C 186.46594,221.6838 195.98763,245.40549 205.3103,255.41223 C 211.61306,262.17744 211.30433,269.5726 204.65752,271.04881 C 199.87638,272.11063 158.41504,273.95582 157.5072,273.14716 z M 172.90344,244.30608 C 172.54394,239.87571 171.19902,234.98475 169.91473,233.43726 C 168.63043,231.88975 167.4227,218.8788 167.23088,204.52401 L 166.88214,178.4244 L 153.20237,177.96798 C 145.67848,177.71696 136.08983,177.4529 131.8942,177.38118 L 124.26579,177.2508 L 123.82407,193.68122 C 123.58114,202.71796 122.68253,219.91746 121.82718,231.90235 L 120.27198,253.69309 L 146.91452,253.02719 L 173.55707,252.36131 L 172.90344,244.30608 z "
       id="path2228"
       sodipodi:nodetypes="csssssssssssssccccsssssscccscccssssssccsccccccccccc" />
  </g>
</svg>
