<?xml version="1.0" encoding="UTF-8" standalone="no"?>
<!-- Created with Inkscape (http://www.inkscape.org/) -->
<svg
   xmlns:dc="http://purl.org/dc/elements/1.1/"
   xmlns:cc="http://web.resource.org/cc/"
   xmlns:rdf="http://www.w3.org/1999/02/22-rdf-syntax-ns#"
   xmlns:svg="http://www.w3.org/2000/svg"
   xmlns="http://www.w3.org/2000/svg"
   xmlns:sodipodi="http://sodipodi.sourceforge.net/DTD/sodipodi-0.dtd"
   xmlns:inkscape="http://www.inkscape.org/namespaces/inkscape"
   width="300"
   height="300"
   id="svg2"
   sodipodi:version="0.32"
   inkscape:version="0.45.1"
   version="1.0"
   sodipodi:docbase="C:\Documents and Settings\Martin\桌面"
   sodipodi:docname="drawing.svg"
   inkscape:output_extension="org.inkscape.output.svg.inkscape">
  <defs
     id="defs4" />
  <sodipodi:namedview
     id="base"
     pagecolor="#ffffff"
     bordercolor="#666666"
     borderopacity="1.0"
     gridtolerance="10000"
     guidetolerance="10"
     objecttolerance="10"
     inkscape:pageopacity="0.0"
     inkscape:pageshadow="2"
     inkscape:zoom="0.92866688"
     inkscape:cx="180.5613"
     inkscape:cy="147.73357"
     inkscape:document-units="px"
     inkscape:current-layer="layer1"
     width="300px"
     height="300px"
     inkscape:window-width="742"
     inkscape:window-height="577"
     inkscape:window-x="22"
     inkscape:window-y="0" />
  <metadata
     id="metadata7">
    <rdf:RDF>
      <cc:Work
         rdf:about="">
        <dc:format>image/svg+xml</dc:format>
        <dc:type
           rdf:resource="http://purl.org/dc/dcmitype/StillImage" />
      </cc:Work>
    </rdf:RDF>
  </metadata>
  <g
     inkscape:label="Layer 1"
     inkscape:groupmode="layer"
     id="layer1">
    <path
       style="fill:#000000"
       d="M 61.037765,275.17396 C 57.40923,268.39394 59.249544,267.88486 90.327636,267.07139 C 104.32155,266.70511 116.71491,265.49454 117.86847,264.38123 C 120.12075,262.20753 121.3952,176.98391 119.8879,129.34083 C 118.88964,97.787899 117.82889,95.342867 102.32852,88.866402 C 97.438209,86.823103 92.211103,82.860588 90.712718,80.06084 C 85.990355,71.23704 81.053351,28.622534 84.369287,25.306592 C 90.947149,18.72873 94.89027,25.458067 98.420945,49.287184 C 101.08552,67.270749 103.23171,74.064615 106.98961,76.411468 C 113.28891,80.345433 161.32795,80.622446 175.4993,76.806485 C 191.4281,72.517302 194.97974,66.846861 195.96583,44.13006 C 197.05103,19.129776 196.74769,20.419554 201.54178,20.419554 C 203.7878,20.419554 206.56325,23.131295 207.70947,26.445643 C 210.69318,35.073365 209.25064,70.983409 205.65082,77.692347 C 202.13742,84.240268 191.10508,90.054345 182.1937,90.054345 L 176.03198,90.054345 L 176.04805,155.00219 C 176.05689,190.72351 176.83249,229.82007 177.77162,241.88339 L 179.47914,263.81674 L 209.89472,262.4261 C 238.92006,261.09905 240.31026,261.2786 240.31026,266.35448 C 240.31026,270.66897 237.9077,272.00381 227.58852,273.42259 C 220.59159,274.3846 209.44332,274.97703 202.81459,274.73909 C 196.18593,274.50118 182.32593,275.00472 172.01459,275.85807 C 161.70331,276.71142 133.13426,278.06324 108.52787,278.86212 C 66.348222,280.23151 63.631582,280.02055 61.037765,275.17396 z M 162.19317,260.79352 C 163.34715,257.47917 164.09934,249.34395 163.86469,242.71525 C 163.64671,218.92956 163.18327,250.77653 162.70648,194.40132 C 162.67502,183.41078 161.99385,164.77784 161.38561,152.9935 C 160.77741,141.20914 160.20838,122.82958 160.1211,112.15001 L 159.96244,92.732607 L 150.80755,92.732607 C 132.09799,92.732607 133.22798,87.122398 133.26089,179.8481 C 133.28353,243.67107 134.078,264.05055 136.58306,265.06432 C 138.39389,265.79716 144.42485,266.49187 149.98525,266.60815 C 158.16351,266.77921 160.49587,265.6683 162.19317,260.79352 z M 84.478666,242.13991 C 84.207839,240.24678 83.856366,226.64569 83.697657,211.91525 C 83.538939,197.18481 82.499192,169.96028 81.387092,151.41626 C 79.731493,123.80928 80.051281,117.13042 83.151905,114.55715 C 86.109882,112.10222 87.730018,112.3679 90.554436,115.77112 C 93.274533,119.04864 94.433846,134.91533 95.23448,179.82373 C 96.278712,238.3943 96.192017,239.57673 90.634946,242.55078 C 86.247471,244.89889 84.860126,244.80631 84.478666,242.13991 z M 194.69703,238.02829 C 194.67002,237.37349 194.40198,227.00829 194.01141,211.58798 C 193.743,200.99118 193.41672,188.00716 193.07103,174.14665 C 191.68069,118.40152 191.96263,112.10686 195.91783,110.58909 C 198.96728,109.41893 201.05699,110.87491 202.76111,115.35709 C 205.53622,122.65623 208.81727,229.8803 206.45395,236.03899 C 204.90876,240.06573 194.85116,241.76749 194.69703,238.02829 z "
       id="path2252"
       sodipodi:nodetypes="csssssssssssssccccccsssssccccscccsssccssssssccsssssc" />
  </g>
</svg>
