<?xml version="1.0" encoding="UTF-8" standalone="no"?>
<!-- Created with Inkscape (http://www.inkscape.org/) -->
<svg
   xmlns:dc="http://purl.org/dc/elements/1.1/"
   xmlns:cc="http://web.resource.org/cc/"
   xmlns:rdf="http://www.w3.org/1999/02/22-rdf-syntax-ns#"
   xmlns:svg="http://www.w3.org/2000/svg"
   xmlns="http://www.w3.org/2000/svg"
   xmlns:sodipodi="http://sodipodi.sourceforge.net/DTD/sodipodi-0.dtd"
   xmlns:inkscape="http://www.inkscape.org/namespaces/inkscape"
   width="300"
   height="300"
   id="svg2"
   sodipodi:version="0.32"
   inkscape:version="0.45.1"
   version="1.0"
   sodipodi:docbase="C:\Documents and Settings\Martin\桌面"
   sodipodi:docname="drawing.svg"
   inkscape:output_extension="org.inkscape.output.svg.inkscape">
  <defs
     id="defs4" />
  <sodipodi:namedview
     id="base"
     pagecolor="#ffffff"
     bordercolor="#666666"
     borderopacity="1.0"
     gridtolerance="10000"
     guidetolerance="10"
     objecttolerance="10"
     inkscape:pageopacity="0.0"
     inkscape:pageshadow="2"
     inkscape:zoom="0.92866688"
     inkscape:cx="180.5613"
     inkscape:cy="147.73357"
     inkscape:document-units="px"
     inkscape:current-layer="layer1"
     width="300px"
     height="300px"
     inkscape:window-width="742"
     inkscape:window-height="577"
     inkscape:window-x="22"
     inkscape:window-y="0" />
  <metadata
     id="metadata7">
    <rdf:RDF>
      <cc:Work
         rdf:about="">
        <dc:format>image/svg+xml</dc:format>
        <dc:type
           rdf:resource="http://purl.org/dc/dcmitype/StillImage" />
      </cc:Work>
    </rdf:RDF>
  </metadata>
  <g
     inkscape:label="Layer 1"
     inkscape:groupmode="layer"
     id="layer1">
    <path
       style="fill:#000000"
       d="M 46.330248,267.11002 C 41.820791,259.81353 50.640136,256.45178 83.195841,253.05765 L 115.52629,249.687 L 118.71182,227.49358 C 120.46389,215.28717 121.39581,179.01171 120.78282,146.88139 L 119.66822,88.46263 L 107.52655,84.798952 C 83.574829,77.571695 77.341694,72.580251 74.702864,58.514011 C 73.277279,50.914939 73.855785,42.952611 75.988464,40.819932 C 81.881474,34.926939 92.730732,40.835485 94.136427,50.703394 C 96.113704,64.583792 117.33293,69.446007 164.18768,66.755003 C 186.44742,65.476525 207.72966,62.857335 211.4816,60.934448 C 215.23351,59.011606 220.62914,51.006235 223.47187,43.144771 C 230.24652,24.409858 241.36619,25.643258 240.42424,45.025137 C 239.55971,62.813576 227.85607,77.9878 210.50742,83.813537 C 191.32525,90.254933 188.71877,105.32149 193.0747,184.58097 L 196.56547,248.09733 L 224.21109,249.42135 C 252.93448,250.79699 264.5776,256.14383 256.48091,264.2405 C 250.67124,270.05012 49.842146,272.7924 46.330248,267.11002 z M 173.37951,169.75433 L 174.47686,89.821637 L 158.20241,89.821637 C 149.25144,89.821637 141.7725,90.276951 141.58247,90.83344 C 139.91582,95.714274 135.29026,246.41542 136.7311,248.88975 C 137.77201,250.67724 146.19679,251.58786 155.45287,250.91335 L 172.28213,249.687 L 173.37951,169.75433 z M 40.747344,228.79337 C 40.747344,227.31881 46.331501,217.4101 53.15662,206.77413 C 67.589184,184.2829 71.966819,155.64955 65.962361,123.01399 C 62.495225,104.16934 62.80925,101.7214 68.551937,102.82735 C 76.985827,104.45154 85.924922,123.26417 88.307691,144.40388 C 91.259617,170.59311 70.339472,222.97099 54.499731,229.04927 C 46.215386,232.22828 40.747344,232.12654 40.747344,228.79337 z M 236.84103,196.28667 C 230.84461,183.61129 225.16381,166.76472 224.21695,158.84985 C 221.83553,138.94216 235.79826,92.229013 244.64518,90.505983 C 250.37733,89.389595 250.98995,91.073326 248.32688,100.62404 C 243.3685,118.40641 246.34994,173.14465 253.16526,189.456 C 267.92626,224.7841 253.23136,230.93298 236.84103,196.28667 z "
       id="path2240" />
  </g>
</svg>
