<?xml version="1.0" encoding="UTF-8" standalone="no"?>
<!-- Created with Inkscape (http://www.inkscape.org/) -->
<svg
   xmlns:dc="http://purl.org/dc/elements/1.1/"
   xmlns:cc="http://web.resource.org/cc/"
   xmlns:rdf="http://www.w3.org/1999/02/22-rdf-syntax-ns#"
   xmlns:svg="http://www.w3.org/2000/svg"
   xmlns="http://www.w3.org/2000/svg"
   xmlns:sodipodi="http://sodipodi.sourceforge.net/DTD/sodipodi-0.dtd"
   xmlns:inkscape="http://www.inkscape.org/namespaces/inkscape"
   width="300"
   height="300"
   id="svg2"
   sodipodi:version="0.32"
   inkscape:version="0.45.1"
   version="1.0"
   sodipodi:docbase="C:\Documents and Settings\Martin\桌面"
   sodipodi:docname="drawing.svg"
   inkscape:output_extension="org.inkscape.output.svg.inkscape">
  <defs
     id="defs4" />
  <sodipodi:namedview
     id="base"
     pagecolor="#ffffff"
     bordercolor="#666666"
     borderopacity="1.0"
     gridtolerance="10000"
     guidetolerance="10"
     objecttolerance="10"
     inkscape:pageopacity="0.0"
     inkscape:pageshadow="2"
     inkscape:zoom="0.92866691"
     inkscape:cx="182.45625"
     inkscape:cy="180.04863"
     inkscape:document-units="px"
     inkscape:current-layer="layer1"
     width="300px"
     height="300px"
     inkscape:window-width="742"
     inkscape:window-height="577"
     inkscape:window-x="50"
     inkscape:window-y="0" />
  <metadata
     id="metadata7">
    <rdf:RDF>
      <cc:Work
         rdf:about="">
        <dc:format>image/svg+xml</dc:format>
        <dc:type
           rdf:resource="http://purl.org/dc/dcmitype/StillImage" />
      </cc:Work>
    </rdf:RDF>
  </metadata>
  <g
     inkscape:label="Layer 1"
     inkscape:groupmode="layer"
     id="layer1">
    <path
       style="fill:#000000"
       d="M 76.062214,285.10579 C 72.438616,284.32911 71.064356,281.0305 70.761288,272.38215 C 69.472508,235.60723 68.724337,225.20932 66.015897,206.43203 C 64.371252,195.0299 62.341957,183.91918 61.506325,181.74154 C 60.670692,179.56393 61.287316,166.3036 62.87659,152.27415 C 65.270052,126.10634 79.872213,106.94399 99.822422,90.471267 C 109.43132,83.404206 120.29074,75.418855 123.95443,72.726062 C 127.61811,70.033279 135.16546,66.050683 140.72633,63.875841 C 146.28719,61.700968 154.17589,57.612819 158.25677,54.791052 C 173.79939,48.384669 189.62831,38.576595 206.46694,35.683952 C 208.92509,35.683952 210.93629,34.032454 210.93629,32.013955 C 210.93629,29.995456 214.59192,24.841651 219.05991,20.56105 C 224.92325,14.943609 228.81201,13.295006 233.03649,14.635805 C 238.07634,16.235392 238.88625,18.700278 238.86626,32.378176 C 238.84219,48.841951 233.02559,95.548387 227.66297,122.33879 C 225.97037,130.79462 223.55284,144.00249 222.29067,151.68962 C 217.93719,178.20405 210.74073,198.93806 203.13313,206.88523 C 195.26305,215.10659 160.93477,234.15149 153.98592,234.15149 C 149.16218,234.15149 119.8587,249.31348 114.99845,254.32408 C 113.0845,256.29728 108.4566,262.3143 104.71423,267.69529 C 93.390895,283.97668 87.498673,287.55711 76.062214,285.10579 z M 100.1786,246.78646 C 115.21573,233.18084 129.31752,225.75317 164.38828,212.96608 C 168.61849,211.32537 189.92988,199.10105 191.36907,196.64436 C 191.36907,194.46454 194.4095,186.60272 198.1256,179.17363 C 203.12581,169.17738 205.70296,157.31003 208.03981,133.52006 C 209.77654,115.83968 211.64498,98.858118 212.19192,95.783279 C 212.73888,92.708429 214.0747,83.654605 215.16043,75.663697 C 216.95729,63.188525 231.77301,42.314203 205.08975,54.728185 C 198.79024,58.09068 192.02052,60.841806 190.04593,60.841806 C 188.07135,60.841806 179.07048,65.294855 170.04404,70.737418 C 161.01756,76.180013 150.48755,81.373684 146.64399,82.278924 C 113.33808,91.129866 104.00463,112.16844 84.783998,134.10696 C 81.819506,135.0951 81.589147,152.39588 83.368107,240.44094 C 83.577791,250.81856 84.378286,259.2673 85.146992,259.21589 C 85.915742,259.16452 92.679929,253.57125 100.1786,246.78646 z M 99.123592,208.83379 C 99.123592,181.71024 102.86991,157.34851 107.8896,151.82939 C 109.13452,144.33132 113.36902,140.25208 117.08348,134.21889 C 119.18235,127.65712 137.64598,108.11716 147.96763,101.53436 C 155.73945,96.577767 175.63604,79.057711 184.95599,68.9641 C 187.21928,66.51294 191.7894,65.025999 195.11185,65.659755 C 200.88349,66.76069 201.11282,68.01822 200.2579,93.876594 C 199.20895,125.60381 191.43865,155.34733 180.62683,169.02145 C 176.54181,174.18793 164.39425,184.53343 153.63229,192.01145 C 133.11462,206.26825 125.12407,213.24159 112.3798,228.01235 C 108.14003,232.92629 103.42293,236.94681 101.89736,236.94681 C 100.24644,236.94681 99.123592,225.56656 99.123592,208.83379 z M 127.81529,180.76735 C 125.60673,172.32178 120.20495,176.07901 119.16507,186.78402 C 118.26176,196.08317 118.36161,196.18149 123.75366,191.30173 C 127.13711,188.23974 128.70557,184.17177 127.81529,180.76735 z M 156.34704,166.72653 C 164.59661,161.07383 171.80184,150.08424 171.80184,143.15456 C 171.80184,138.40155 158.74056,125.13411 154.0614,125.13411 C 147.39328,125.13411 132.74919,140.79829 130.93445,149.87208 C 129.55436,156.7724 130.67789,159.69163 136.95128,165.50561 C 146.24948,174.12291 145.61134,174.08274 156.34704,166.72653 z M 182.54369,119.54347 C 182.62436,107.24408 182.19209,97.180941 181.58312,97.180941 C 180.97413,97.180941 177.10331,100.30652 172.9813,104.12665 L 165.48672,111.0724 C 175.37904,117.40228 174.75744,126.04189 178.49836,137.01421 C 181.36798,146.28613 182.39747,141.84002 182.54369,119.54347 z "
       id="path2411"
       sodipodi:nodetypes="csssccssccssssssssssccccsssccssccssccccssssssssccssccssssccscccc" />
  </g>
</svg>
