<?xml version="1.0" encoding="UTF-8" standalone="no"?>
<!-- Created with Inkscape (http://www.inkscape.org/) -->
<svg
   xmlns:dc="http://purl.org/dc/elements/1.1/"
   xmlns:cc="http://web.resource.org/cc/"
   xmlns:rdf="http://www.w3.org/1999/02/22-rdf-syntax-ns#"
   xmlns:svg="http://www.w3.org/2000/svg"
   xmlns="http://www.w3.org/2000/svg"
   xmlns:sodipodi="http://sodipodi.sourceforge.net/DTD/sodipodi-0.dtd"
   xmlns:inkscape="http://www.inkscape.org/namespaces/inkscape"
   width="300"
   height="300"
   id="svg2"
   sodipodi:version="0.32"
   inkscape:version="0.45.1"
   version="1.0"
   sodipodi:docbase="C:\Documents and Settings\Martin\桌面"
   sodipodi:docname="drawing.svg"
   inkscape:output_extension="org.inkscape.output.svg.inkscape">
  <defs
     id="defs4" />
  <sodipodi:namedview
     id="base"
     pagecolor="#ffffff"
     bordercolor="#666666"
     borderopacity="1.0"
     gridtolerance="10000"
     guidetolerance="10"
     objecttolerance="10"
     inkscape:pageopacity="0.0"
     inkscape:pageshadow="2"
     inkscape:zoom="0.92866691"
     inkscape:cx="171.10805"
     inkscape:cy="164.55749"
     inkscape:document-units="px"
     inkscape:current-layer="layer1"
     width="300px"
     height="300px"
     inkscape:window-width="742"
     inkscape:window-height="577"
     inkscape:window-x="50"
     inkscape:window-y="0" />
  <metadata
     id="metadata7">
    <rdf:RDF>
      <cc:Work
         rdf:about="">
        <dc:format>image/svg+xml</dc:format>
        <dc:type
           rdf:resource="http://purl.org/dc/dcmitype/StillImage" />
      </cc:Work>
    </rdf:RDF>
  </metadata>
  <g
     inkscape:label="Layer 1"
     inkscape:groupmode="layer"
     id="layer1">
    <path
       style="fill:#000000"
       d="M 102.07792,287.28838 C 98.741196,283.95166 99.650636,275.40519 104.38412,265.61645 C 120.85084,231.56339 122.56456,226.27457 131.64701,181.47793 C 134.7448,166.199 135.63026,109.44998 133.15971,84.528425 C 132.47765,77.648136 131.77276,68.148649 131.59331,63.418452 C 131.32792,56.423949 129.81157,54.818093 123.47229,54.818093 C 119.18519,54.818093 112.14853,57.886548 107.83528,61.63688 C 97.811506,70.352427 96.990536,88.660345 106.24778,97.038035 C 112.40476,102.61002 115.02371,117.36616 109.85567,117.36616 C 101.63817,117.36616 87.836316,106.4712 81.852686,95.261095 C 71.718116,76.274334 72.395256,71.678399 87.729166,55.375784 C 97.434026,45.057831 109.49239,36.053675 113.60537,36.053675 C 119.8015,36.053675 128.1396,25.596045 128.1396,17.824852 C 128.1396,6.0698604 139.02196,9.5324644 145.21068,23.256619 C 150.06839,34.029066 152.25772,35.674402 163.66824,37.127947 C 198.16647,41.522552 209.44107,48.009265 216.17975,67.339865 C 218.81687,74.904763 218.30795,78.596994 213.49118,86.844395 C 207.1484,97.704735 201.01053,100.30083 188.87658,97.255405 C 179.66785,94.944155 179.32893,91.079525 187.56026,82.244246 C 201.08162,67.730756 193.73435,58.101076 165.61862,53.486595 L 154.62289,51.681927 L 155.82071,86.677275 C 157.05131,122.63121 159.54598,129.87577 170.69596,129.87577 C 196.44565,129.87577 228.60777,160.89732 224.57398,181.84309 C 222.76625,191.22991 206.2676,197.86691 179.77759,199.86356 C 158.79872,201.44483 153.92238,202.8793 149.35496,208.81301 C 146.36335,212.6995 143.88442,218.35753 143.84617,221.3864 C 143.74722,229.22143 123.09053,274.74615 114.77114,285.46407 C 111.46744,289.72022 105.38405,290.59455 102.07792,287.28838 z M 199.37465,175.69494 C 206.44808,168.62151 199.08136,155.53177 186.91977,153.5642 C 158.19466,148.91689 156.28623,149.66936 156.28623,165.64276 C 156.28623,178.93149 156.71581,179.5757 166.45029,180.88474 C 180.48169,182.77161 194.5091,180.5605 199.37465,175.69494 z "
       id="path2365" />
  </g>
</svg>
