<?xml version="1.0" encoding="UTF-8" standalone="no"?>
<!-- Created with Inkscape (http://www.inkscape.org/) -->
<svg
   xmlns:dc="http://purl.org/dc/elements/1.1/"
   xmlns:cc="http://web.resource.org/cc/"
   xmlns:rdf="http://www.w3.org/1999/02/22-rdf-syntax-ns#"
   xmlns:svg="http://www.w3.org/2000/svg"
   xmlns="http://www.w3.org/2000/svg"
   xmlns:sodipodi="http://sodipodi.sourceforge.net/DTD/sodipodi-0.dtd"
   xmlns:inkscape="http://www.inkscape.org/namespaces/inkscape"
   width="300"
   height="300"
   id="svg2"
   sodipodi:version="0.32"
   inkscape:version="0.45.1"
   version="1.0"
   sodipodi:docbase="C:\Documents and Settings\Martin\桌面"
   sodipodi:docname="drawing.svg"
   inkscape:output_extension="org.inkscape.output.svg.inkscape">
  <defs
     id="defs4" />
  <sodipodi:namedview
     id="base"
     pagecolor="#ffffff"
     bordercolor="#666666"
     borderopacity="1.0"
     gridtolerance="10000"
     guidetolerance="10"
     objecttolerance="10"
     inkscape:pageopacity="0.0"
     inkscape:pageshadow="2"
     inkscape:zoom="0.92866691"
     inkscape:cx="182.45625"
     inkscape:cy="136.97613"
     inkscape:document-units="px"
     inkscape:current-layer="layer1"
     width="300px"
     height="300px"
     inkscape:window-width="742"
     inkscape:window-height="577"
     inkscape:window-x="50"
     inkscape:window-y="0" />
  <metadata
     id="metadata7">
    <rdf:RDF>
      <cc:Work
         rdf:about="">
        <dc:format>image/svg+xml</dc:format>
        <dc:type
           rdf:resource="http://purl.org/dc/dcmitype/StillImage" />
      </cc:Work>
    </rdf:RDF>
  </metadata>
  <g
     inkscape:label="Layer 1"
     inkscape:groupmode="layer"
     id="layer1">
    <path
       style="fill:#000000"
       d="M 142.04339,287.89093 C 141.52852,286.21957 141.27542,259.96405 141.48097,229.54534 C 141.8342,177.27056 141.60877,174.23856 137.36882,174.23856 C 125.86476,174.23856 98.700122,196.25473 98.700122,205.57847 C 92.623108,219.6373 87.690997,234.19111 85.226617,249.90099 C 83.290354,267.71043 79.65593,276.34336 74.094522,276.34336 C 70.060603,276.34336 69.527327,274.35633 69.527327,259.3259 C 72.689367,243.97167 74.085298,228.67694 79.252812,213.71731 C 85.689282,193.00397 85.454104,185.09445 107.19215,173.18669 C 116.06438,166.83691 121.76579,163.72163 132.15853,159.38625 C 141.64078,154.32489 141.75833,154.09094 141.19441,141.40232 C 140.88015,134.33155 139.95236,127.46124 139.13266,126.1349 C 137.72141,123.85147 127.47337,121.40263 112.71383,119.82195 C 90.411375,113.19974 89.06253,90.078644 85.213835,70.91821 C 80.941449,56.918037 82.249729,47.823072 88.535957,47.823072 C 96.271776,47.823072 98.700122,53.133323 98.700122,70.049929 C 98.700122,97.25119 109.0913,108.54095 134.16924,108.5862 C 140.76151,108.5981 142.06767,107.42835 144.83924,99.03043 C 152.93293,77.757688 174.59286,77.149556 191.86205,69.000897 C 196.28516,64.164635 200.80493,55.535095 200.80493,51.926423 C 200.80493,46.216063 190.01904,38.209055 182.4766,38.320203 C 178.51777,38.378525 161.60397,38.300926 144.89039,38.147744 C 118.12209,37.902401 113.59745,37.250778 106.9085,32.677746 C 96.781671,25.75436 94.08105,20.988958 96.53102,14.366076 C 99.323915,6.8161793 106.57413,7.5684253 111.50749,15.919966 C 115.43508,22.568812 116.75045,23.002538 138.16562,24.709998 C 150.55532,25.697837 169.44416,26.793446 180.14086,27.144687 C 190.83756,27.495928 200.94134,27.916332 202.59372,28.078921 C 204.24609,28.241511 208.47667,32.724399 211.99493,38.040874 C 217.51742,46.385898 218.16084,49.247511 216.70204,58.975522 C 213.98058,77.123405 202.2756,86.670451 173.73974,94.017262 C 161.10463,97.27029 152.94814,106.99591 159.47305,111.02851 C 172.87929,112.28112 185.77188,117.39355 198.37385,123.08107 C 206.30748,126.91561 221.99398,163.12492 224.17264,182.6326 C 224.777,188.04403 226.41962,198.48846 227.82291,205.84243 C 230.43392,219.52542 230.78488,223.81737 230.27147,235.78446 C 230.01492,241.76394 229.13072,242.53393 223.29227,241.86214 C 216.16898,241.04253 216.76177,242.6497 211.80023,210.70456 C 209.72706,187.92999 203.32489,169.10919 197.11031,147.45314 C 196.46224,138.65618 177.758,125.61723 165.78694,125.61723 C 157.60484,125.61723 157.0273,126.12262 156.75767,133.5182 C 155.44162,153.26726 160.24504,148.60223 177.59356,148.52429 C 180.70846,147.74251 184.01753,148.3334 184.94705,149.83741 C 187.82838,154.49947 181.44325,159.34124 170.1879,161.02907 C 164.2639,161.91743 158.7968,163.64774 158.03879,164.87424 C 157.28079,166.10074 156.44239,193.0505 156.17569,224.76262 C 155.90903,256.47475 154.78466,284.3355 153.67712,286.6754 C 151.3597,291.57135 143.4323,292.39961 142.04339,287.89093 z "
       id="path2399"
       sodipodi:nodetypes="cssccsccccssccsssccssssssssssssccssssccsccsssssc" />
  </g>
</svg>
