<?xml version="1.0" encoding="UTF-8" standalone="no"?>
<!-- Created with Inkscape (http://www.inkscape.org/) -->
<svg
   xmlns:dc="http://purl.org/dc/elements/1.1/"
   xmlns:cc="http://web.resource.org/cc/"
   xmlns:rdf="http://www.w3.org/1999/02/22-rdf-syntax-ns#"
   xmlns:svg="http://www.w3.org/2000/svg"
   xmlns="http://www.w3.org/2000/svg"
   xmlns:sodipodi="http://sodipodi.sourceforge.net/DTD/sodipodi-0.dtd"
   xmlns:inkscape="http://www.inkscape.org/namespaces/inkscape"
   width="300"
   height="300"
   id="svg2"
   sodipodi:version="0.32"
   inkscape:version="0.45.1"
   version="1.0"
   sodipodi:docbase="C:\Documents and Settings\Martin\桌面"
   sodipodi:docname="drawing.svg"
   inkscape:output_extension="org.inkscape.output.svg.inkscape">
  <defs
     id="defs4" />
  <sodipodi:namedview
     id="base"
     pagecolor="#ffffff"
     bordercolor="#666666"
     borderopacity="1.0"
     gridtolerance="10000"
     guidetolerance="10"
     objecttolerance="10"
     inkscape:pageopacity="0.0"
     inkscape:pageshadow="2"
     inkscape:zoom="0.92866691"
     inkscape:cx="171.10805"
     inkscape:cy="164.55749"
     inkscape:document-units="px"
     inkscape:current-layer="layer1"
     width="300px"
     height="300px"
     inkscape:window-width="742"
     inkscape:window-height="577"
     inkscape:window-x="50"
     inkscape:window-y="0" />
  <metadata
     id="metadata7">
    <rdf:RDF>
      <cc:Work
         rdf:about="">
        <dc:format>image/svg+xml</dc:format>
        <dc:type
           rdf:resource="http://purl.org/dc/dcmitype/StillImage" />
      </cc:Work>
    </rdf:RDF>
  </metadata>
  <g
     inkscape:label="Layer 1"
     inkscape:groupmode="layer"
     id="layer1">
    <path
       style="fill:#000000"
       d="M 93.554798,290.58951 C 91.611894,287.44581 93.990125,279.62821 100.91088,266.40908 C 106.85856,255.04853 116.19895,214.28133 118.17605,191.05324 C 118.80191,183.69996 119.85058,176.16216 120.50636,174.30257 C 121.16218,172.44298 121.93685,168.23251 119.78341,164.94598 C 116.43068,159.8291 112.58894,159.17971 104.96638,160.42676 C 77.387428,164.93867 74.276762,164.92344 70.052607,160.25581 C 61.955622,151.30874 67.565549,149.33059 103.13655,148.58982 C 121.42291,148.20904 136.8491,147.43284 137.41694,146.865 C 138.80957,145.47237 139.33822,124.84067 138.79173,93.212173 C 138.30753,65.187793 137.41811,63.599743 125.85797,70.119248 C 115.80574,75.78832 113.66667,81.752993 108.18733,119.39335 C 106.36851,131.88771 103.62542,136.2335 98.740844,134.35914 C 90.880156,131.3427 95.383204,92.111532 105.94341,71.609735 C 110.78526,62.20963 121.12063,52.538673 126.45011,52.421347 C 135.0531,52.231954 139.53201,45.575524 138.92657,33.879227 C 138.36389,23.009203 142.22381,8.7406822 145.72709,8.7406822 C 152.0041,8.7406822 155.45642,15.915944 156.17654,30.458735 C 156.90026,45.074879 157.37597,46.213356 163.43632,47.834141 C 167.00322,48.788098 175.9643,52.52499 183.3498,56.138381 C 195.52661,62.095938 197.23881,63.939822 201.7228,75.924391 C 208.0441,92.819496 208.75377,124.77276 202.85798,127.03517 C 196.56426,129.45032 193.99353,124.27536 192.15403,105.48784 C 190.17781,85.304081 181.3717,68.018422 172.02673,65.979631 C 155.56672,62.388543 156.87214,59.182391 156.48491,104.15092 L 156.1343,144.86738 L 162.562,145.17538 C 166.09723,145.34475 182.53541,145.61825 199.09128,145.78308 C 224.57606,146.03684 229.59607,146.71736 231.82156,150.22015 C 233.26733,152.49571 233.63399,155.17379 232.63636,156.17143 C 230.90457,157.90321 211.80361,159.2263 186.30604,159.38064 L 174.45237,159.45238 L 176.04322,177.71904 C 176.91822,187.76569 178.59689,198.43099 179.77366,201.41966 C 180.95041,204.40836 184.28748,214.51078 187.18934,223.86949 C 192.88752,242.24647 203.24361,265.50832 206.66935,267.62557 C 209.53543,269.39692 216.39096,283.373 216.39096,287.44464 C 216.39096,292.41645 209.88088,291.36285 202.81858,285.24804 C 196.34453,279.64259 185.89752,265.07203 180.59667,254.25492 C 171.56737,235.82936 160.9859,193.70748 159.66017,170.91245 C 159.20717,163.1237 154.75328,159.54269 145.4529,159.4896 C 138.24549,159.44846 137.31052,161.27355 134.88691,180.11449 C 136.19972,193.66753 111.57217,300.67842 93.554798,290.58951 z "
       id="path2352"
       sodipodi:nodetypes="cssssssssssssssssssssssscccssscccsssssssscc" />
  </g>
</svg>
