<?xml version="1.0" encoding="UTF-8" standalone="no"?>
<!-- Created with Inkscape (http://www.inkscape.org/) -->
<svg
   xmlns:dc="http://purl.org/dc/elements/1.1/"
   xmlns:cc="http://web.resource.org/cc/"
   xmlns:rdf="http://www.w3.org/1999/02/22-rdf-syntax-ns#"
   xmlns:svg="http://www.w3.org/2000/svg"
   xmlns="http://www.w3.org/2000/svg"
   xmlns:sodipodi="http://sodipodi.sourceforge.net/DTD/sodipodi-0.dtd"
   xmlns:inkscape="http://www.inkscape.org/namespaces/inkscape"
   width="300"
   height="300"
   id="svg2"
   sodipodi:version="0.32"
   inkscape:version="0.45.1"
   version="1.0"
   sodipodi:docbase="C:\Documents and Settings\Martin\桌面"
   sodipodi:docname="drawing.svg"
   inkscape:output_extension="org.inkscape.output.svg.inkscape">
  <defs
     id="defs4" />
  <sodipodi:namedview
     id="base"
     pagecolor="#ffffff"
     bordercolor="#666666"
     borderopacity="1.0"
     gridtolerance="10000"
     guidetolerance="10"
     objecttolerance="10"
     inkscape:pageopacity="0.0"
     inkscape:pageshadow="2"
     inkscape:zoom="0.92866691"
     inkscape:cx="317.1348"
     inkscape:cy="174.82777"
     inkscape:document-units="px"
     inkscape:current-layer="layer1"
     width="300px"
     height="300px"
     inkscape:window-width="742"
     inkscape:window-height="577"
     inkscape:window-x="50"
     inkscape:window-y="0" />
  <metadata
     id="metadata7">
    <rdf:RDF>
      <cc:Work
         rdf:about="">
        <dc:format>image/svg+xml</dc:format>
        <dc:type
           rdf:resource="http://purl.org/dc/dcmitype/StillImage" />
      </cc:Work>
    </rdf:RDF>
  </metadata>
  <g
     inkscape:label="Layer 1"
     inkscape:groupmode="layer"
     id="layer1">
    <path
       style="fill:#000000"
       d="M 68.641761,275.60613 C 66.772773,273.35414 68.168363,261.05828 73.272499,234.80718 C 83.169878,183.90397 86.987396,143.70408 86.74953,92.889433 C 86.572682,55.111944 87.156644,48.946603 91.859174,38.942376 C 94.78344,32.721315 100.09213,26.315219 103.67666,24.681993 C 110.65088,21.504323 204.79846,20.476302 222.39978,23.385621 C 230.3535,24.700288 232.15062,26.092775 232.15062,30.940995 C 232.15062,34.209995 230.68799,37.422779 228.90034,38.080505 C 227.11268,38.738205 204.35286,38.667661 178.32296,37.923712 C 128.31986,36.494577 109.39256,38.960889 105.90353,47.360181 C 103.53337,53.065957 99.720162,107.28806 98.198047,156.92827 C 95.783401,235.67703 81.869714,291.54488 68.641761,275.60613 z M 156.74415,173.30499 C 139.65631,171.49836 133.85004,167.71173 132.26542,157.34092 C 128.2449,131.02825 131.76553,87.261172 138.30532,82.254553 C 144.41491,77.577291 193.99091,77.879676 203.21664,82.650458 C 215.83076,89.173481 216.95894,92.461591 218.04417,125.86546 L 214.98878,161.48904 L 211.50859,164.96923 C 204.84299,171.63479 202.10321,172.52961 188.35951,172.52961 C 179.78574,172.52961 171.21249,172.92055 169.30788,173.39839 C 167.40325,173.87621 161.74957,173.83419 156.74415,173.30499 z M 198.11383,157.12786 C 202.34993,154.44623 205.25591,118.74246 202.45378,103.80581 L 200.71231,94.52292 L 175.7646,94.52292 C 144.46533,94.52292 143.92409,95.074403 143.86553,127.0257 C 143.81943,152.19417 144.82536,155.62262 152.84381,157.62594 C 161.93222,159.8966 194.30273,159.54043 198.11383,157.12786 z "
       id="path2302"
       sodipodi:nodetypes="cssssssssssccssscccsscccccssc" />
  </g>
</svg>
