<?xml version="1.0" encoding="UTF-8" standalone="no"?>
<!-- Created with Inkscape (http://www.inkscape.org/) -->
<svg
   xmlns:dc="http://purl.org/dc/elements/1.1/"
   xmlns:cc="http://web.resource.org/cc/"
   xmlns:rdf="http://www.w3.org/1999/02/22-rdf-syntax-ns#"
   xmlns:svg="http://www.w3.org/2000/svg"
   xmlns="http://www.w3.org/2000/svg"
   xmlns:sodipodi="http://sodipodi.sourceforge.net/DTD/sodipodi-0.dtd"
   xmlns:inkscape="http://www.inkscape.org/namespaces/inkscape"
   width="300"
   height="300"
   id="svg2"
   sodipodi:version="0.32"
   inkscape:version="0.45.1"
   version="1.0"
   sodipodi:docbase="C:\Documents and Settings\Martin\桌面"
   sodipodi:docname="drawing.svg"
   inkscape:output_extension="org.inkscape.output.svg.inkscape">
  <defs
     id="defs4" />
  <sodipodi:namedview
     id="base"
     pagecolor="#ffffff"
     bordercolor="#666666"
     borderopacity="1.0"
     gridtolerance="10000"
     guidetolerance="10"
     objecttolerance="10"
     inkscape:pageopacity="0.0"
     inkscape:pageshadow="2"
     inkscape:zoom="0.65666667"
     inkscape:cx="105.27498"
     inkscape:cy="162.82295"
     inkscape:document-units="px"
     inkscape:current-layer="layer1"
     width="300px"
     height="300px"
     inkscape:window-width="742"
     inkscape:window-height="577"
     inkscape:window-x="50"
     inkscape:window-y="0" />
  <metadata
     id="metadata7">
    <rdf:RDF>
      <cc:Work
         rdf:about="">
        <dc:format>image/svg+xml</dc:format>
        <dc:type
           rdf:resource="http://purl.org/dc/dcmitype/StillImage" />
      </cc:Work>
    </rdf:RDF>
  </metadata>
  <g
     inkscape:label="Layer 1"
     inkscape:groupmode="layer"
     id="layer1">
    <path
       style="fill:#000000"
       d="M 35.330338,264.16439 C 36.505325,257.30489 38.509862,239.60462 39.784851,224.83043 C 42.289106,195.81261 45.905714,169.59894 55.66817,109.70669 C 59.108452,88.60067 62.736269,62.697841 63.730014,52.144831 C 66.018025,27.847254 69.827887,23.36387 88.187369,23.36387 C 105.64465,23.36387 155.13019,34.079405 180.64384,43.384284 C 189.99065,46.793109 205.50175,57.057 202.15641,60.40235 C 201.41216,61.146583 189.61793,69.332068 175.94694,69.801399 C 158.68801,70.393856 149.3312,72.573234 145.33442,76.931606 C 142.16851,80.38393 133.53423,87.42499 126.14713,92.57835 C 118.76001,97.73175 107.53545,106.92668 101.20365,113.01158 C 94.871839,119.09648 85.899819,126.59147 81.265849,129.66707 C 72.850732,135.2523 70.994783,141.73711 60.61979,201.80569 C 52.759832,247.31264 43.501315,276.63613 36.992949,276.63613 C 34.82701,276.63613 34.112326,271.27496 35.330338,264.16439 z M 93.599259,90.79773 C 98.722679,85.67429 108.14192,78.394526 114.53087,74.620495 C 129.7985,65.601684 129.19663,60.124631 112.37035,54.960481 C 90.405539,48.219299 86.330809,52.500902 81.268279,87.64131 C 79.119071,102.55927 81.283669,103.11332 93.599259,90.79773 z M 184.87207,212.3587 C 178.28412,206.55455 171.9764,197.48855 170.85495,192.21204 C 156.84297,126.28482 153.96286,109.24412 156.16964,105.32373 C 162.07468,94.8332 179.87155,118.44059 179.87155,136.76419 C 179.87155,145.60822 181.08737,146.71187 188.50583,144.60192 C 193.25469,143.25126 205.6427,140.44738 216.03472,138.37105 C 226.42675,136.29475 235.85413,133.67116 236.9844,132.54087 C 238.11473,131.41055 238.5461,123.6519 237.94305,115.2994 C 237.01011,102.3786 237.97405,100.11304 244.40433,100.11304 C 252.60186,100.11304 256.62072,107.08505 256.62072,121.30641 C 265.36842,148.94089 267.99388,164.71434 262.08438,195.83736 C 262.08438,195.83736 264.0028,208.74836 256.55391,214.46055 C 249.10503,220.17274 232.28885,218.68613 232.28885,218.68613 C 199.22957,224.44312 198.47401,224.34232 184.87207,212.3587 z M 231.3082,195.51939 C 242.13459,190.58653 248.21454,171.79765 241.57366,163.79589 C 238.52157,160.11838 233.40332,159.58543 223.00627,161.86258 C 183.69182,170.47311 183.80878,170.3692 191.28895,190.04345 C 194.31605,198.00538 197.58238,199.88696 208.37696,199.88696 C 215.71698,199.88696 226.03606,197.92152 231.3082,195.51939 z "
       id="path2252"
       sodipodi:nodetypes="csssssssssssssccsssccssssssssccscccssssc" />
  </g>
</svg>
