<?xml version="1.0" encoding="UTF-8" standalone="no"?>
<!-- Created with Inkscape (http://www.inkscape.org/) -->

<svg
   xmlns:dc="http://purl.org/dc/elements/1.1/"
   xmlns:cc="http://creativecommons.org/ns#"
   xmlns:rdf="http://www.w3.org/1999/02/22-rdf-syntax-ns#"
   xmlns:svg="http://www.w3.org/2000/svg"
   xmlns="http://www.w3.org/2000/svg"
   xmlns:sodipodi="http://sodipodi.sourceforge.net/DTD/sodipodi-0.dtd"
   xmlns:inkscape="http://www.inkscape.org/namespaces/inkscape"
   width="300"
   height="300"
   id="svg2"
   version="1.1"
   inkscape:version="0.48.3.1 r9886"
   sodipodi:docname="示-.svg">
  <defs
     id="defs4" />
  <sodipodi:namedview
     id="base"
     pagecolor="#ffffff"
     bordercolor="#666666"
     borderopacity="1.0"
     inkscape:pageopacity="0.0"
     inkscape:pageshadow="2"
     inkscape:zoom="1.979899"
     inkscape:cx="172.25805"
     inkscape:cy="157.57707"
     inkscape:document-units="px"
     inkscape:current-layer="layer1"
     showgrid="false"
     inkscape:window-width="1215"
     inkscape:window-height="1000"
     inkscape:window-x="65"
     inkscape:window-y="24"
     inkscape:window-maximized="1" />
  <metadata
     id="metadata7">
    <rdf:RDF>
      <cc:Work
         rdf:about="">
        <dc:format>image/svg+xml</dc:format>
        <dc:type
           rdf:resource="http://purl.org/dc/dcmitype/StillImage" />
        <dc:title></dc:title>
      </cc:Work>
    </rdf:RDF>
  </metadata>
  <g
     inkscape:label="Calque 1"
     inkscape:groupmode="layer"
     id="layer1"
     transform="translate(0,-752.36218)">
    <path
       style="fill:#000000"
       d="m 85.293748,1032.7801 c -2.661613,-3.4625 -2.721946,-10.0755 -0.200994,-22.0149 4.461182,-21.12723 2.253468,-37.3052 -8.236825,-60.3587 -12.795708,-28.11995 -10.433568,-47.60944 11.224169,-92.60863 1.589693,-3.30296 2.050705,-14.04805 1.024467,-23.87799 -1.534029,-14.69368 -0.856099,-17.87267 3.811384,-17.87267 7.453551,0 16.475631,19.25212 16.472091,35.14971 -0.001,6.93345 -4.77866,23.50573 -10.615876,36.82733 -5.837177,13.32155 -10.613083,26.17311 -10.613083,28.559 0,2.38589 4.214185,15.93481 9.364904,30.10871 9.073885,24.96996 9.223365,26.66393 4.810905,54.51394 -4.764444,30.0719 -10.304977,40.3374 -17.041248,31.5742 z m 74.219852,-24.7538 c -4.09401,-12.08224 -13.06545,-31.36547 -19.93658,-42.85155 -15.78107,-26.38037 -16.61827,-46.78407 -3.21644,-78.38913 7.72847,-18.2258 8.84654,-24.83768 6.69993,-39.62159 -5.67414,-39.07908 -1.60172,-44.10527 15.45117,-19.06997 13.3552,19.6067 13.76801,30.73167 2.18935,58.99849 -11.18221,27.29885 -11.17715,44.97462 0.0176,68.7098 11.10445,23.53955 20.97298,60.55555 18.21383,68.31845 -4.24904,11.9552 -12.12899,5.4249 -19.42073,-16.0945 z m 66.03774,-1.4688 c -2.66851,-4.9706 -6.79752,-12.47593 -9.17562,-16.67846 -23.96931,-42.358 -25.5298,-46.3287 -25.52486,-64.94815 0.003,-10.50632 2.37643,-27.54192 5.27472,-37.85688 6.74784,-24.0153 6.70141,-45.49411 -0.12917,-59.75508 -4.75938,-9.93673 -4.77335,-11.27172 -0.11784,-11.27172 2.90447,0 10.90726,6.07457 17.78401,13.49902 14.68056,15.84991 15.40959,23.85286 5.38275,59.0901 -8.16191,28.6832 -6.76904,51.66751 4.39893,72.58912 3.92579,7.35441 9.36569,20.14745 12.08862,28.42891 4.26189,12.96204 4.24947,15.81444 -0.0895,20.49894 -4.36122,4.7085 -5.69386,4.2241 -9.89205,-3.5958 z M 93.743741,797.35781 c -15.389592,-2.5763 -20.058881,-9.41852 -10.22288,-14.9803 3.524225,-1.99275 25.178389,-4.86167 48.120399,-6.3753 48.64461,-3.20948 88.46566,2.79884 86.65848,13.0752 -0.77945,4.43226 -7.37984,6.56917 -25.78456,8.34798 -31.12862,3.00856 -80.59794,2.9747 -98.771439,-0.0676 z"
       id="path3028"
       inkscape:connector-curvature="0" />
  </g>
</svg>
