<?xml version="1.0" encoding="UTF-8" standalone="no"?>
<!-- Created with Inkscape (http://www.inkscape.org/) -->

<svg
   xmlns:dc="http://purl.org/dc/elements/1.1/"
   xmlns:cc="http://creativecommons.org/ns#"
   xmlns:rdf="http://www.w3.org/1999/02/22-rdf-syntax-ns#"
   xmlns:svg="http://www.w3.org/2000/svg"
   xmlns="http://www.w3.org/2000/svg"
   xmlns:sodipodi="http://sodipodi.sourceforge.net/DTD/sodipodi-0.dtd"
   xmlns:inkscape="http://www.inkscape.org/namespaces/inkscape"
   width="300"
   height="300"
   id="svg2"
   version="1.1"
   inkscape:version="0.48.3.1 r9886"
   sodipodi:docname="Nouveau document 1">
  <defs
     id="defs4" />
  <sodipodi:namedview
     id="base"
     pagecolor="#ffffff"
     bordercolor="#666666"
     borderopacity="1.0"
     inkscape:pageopacity="0.0"
     inkscape:pageshadow="2"
     inkscape:zoom="1.979899"
     inkscape:cx="172.25805"
     inkscape:cy="157.57707"
     inkscape:document-units="px"
     inkscape:current-layer="layer1"
     showgrid="false"
     inkscape:window-width="1215"
     inkscape:window-height="1000"
     inkscape:window-x="65"
     inkscape:window-y="24"
     inkscape:window-maximized="1" />
  <metadata
     id="metadata7">
    <rdf:RDF>
      <cc:Work
         rdf:about="">
        <dc:format>image/svg+xml</dc:format>
        <dc:type
           rdf:resource="http://purl.org/dc/dcmitype/StillImage" />
        <dc:title></dc:title>
      </cc:Work>
    </rdf:RDF>
  </metadata>
  <g
     inkscape:label="Calque 1"
     inkscape:groupmode="layer"
     id="layer1"
     transform="translate(0,-752.36218)">
    <path
       style="fill:#000000"
       d="m 134.0703,1008.0688 c 0.23555,-17.10121 0.32689,-62.76135 0.20313,-101.46699 l -0.22531,-70.37393 -47.650948,-0.69592 c -40.113151,-0.58584 -47.650928,-1.2982 -47.650928,-4.50324 0,-3.29791 13.299738,-3.90359 99.402966,-4.52679 54.67168,-0.39573 101.0564,-0.1533 103.07723,0.53846 2.0208,0.69188 2.91871,3.0145 1.99536,5.16137 -1.41461,3.28914 -8.90549,3.90384 -47.60297,3.90633 l -45.92415,0.003 -0.77545,97.08354 c -0.42649,53.39594 -1.47291,99.08238 -2.32532,101.52538 -0.85244,2.443 -4.11532,4.4419 -7.25083,4.4419 -5.41778,0 -5.67971,-1.5445 -5.2727,-31.0931 z m 82.02803,13.3256 c -3.47042,-4.1881 -7.98935,-7.6147 -10.04209,-7.6147 -2.3258,0 -3.73226,-3.1564 -3.73226,-8.376 0,-4.6069 -1.16521,-9.46122 -2.58935,-10.78744 -3.63957,-3.38929 -14.47964,-50.80851 -14.47964,-63.34035 0,-5.71703 -1.48194,-11.71684 -3.29323,-13.33288 -2.42709,-2.16551 -2.45973,-3.83434 -0.12406,-6.34537 1.76746,-1.9001 3.37585,-14.31443 3.6364,-28.06728 0.25689,-13.56313 1.59291,-25.281 2.96884,-26.03969 1.37591,-0.75872 2.50167,-3.59646 2.50167,-6.3061 0,-5.19751 9.56957,-7.05444 12.7433,-2.47278 0.93484,1.34959 -0.41564,12.48598 -3.0011,24.74754 -3.09433,14.67462 -4.10546,27.93215 -2.9587,38.79204 0.9582,9.0741 2.49809,23.92262 3.42199,32.99672 1.96489,19.29811 9.2957,38.76297 20.30811,53.92221 12.19961,16.79358 14.60619,22.94128 10.43684,26.66128 -5.43862,4.8524 -8.90603,3.8784 -15.79678,-4.4372 z m -164.550422,2.3921 c 0,-1.4764 2.938683,-7.4729 6.530424,-13.3256 3.591742,-5.8527 8.22082,-15.78118 10.286853,-22.06324 2.066033,-6.28207 4.81667,-14.27742 6.112552,-17.76747 3.997317,-10.76552 8.363319,-57.05243 8.363319,-88.66528 0,-22.94947 0.913103,-30.40003 3.848911,-31.40518 8.205804,-2.80946 12.419229,6.78392 11.588453,26.38552 -2.148391,50.69043 -8.260803,92.65365 -16.614075,114.05983 -2.436593,6.24399 -4.448782,13.23082 -4.471564,15.52612 -0.05469,5.517 -15.314193,19.9396 -21.096591,19.9396 -2.501546,0 -4.548282,-1.208 -4.548282,-2.6843 z M 71.560241,781.78035 c -3.183509,-1.26035 -5.788179,-4.40545 -5.788179,-6.98909 0,-4.44699 2.617107,-4.61842 49.073338,-3.21433 26.99035,0.81577 50.35354,1.34058 51.91818,1.16623 1.56466,-0.17438 13.64763,-0.76154 26.85104,-1.3049 19.83496,-0.81629 24.59949,-0.26402 27.42066,3.17829 8.18432,9.98638 3.79352,10.60134 -71.51481,10.01613 -39.69466,-0.30845 -74.77675,-1.59201 -77.960229,-2.85233 z"
       id="path2996"
       inkscape:connector-curvature="0" />
  </g>
</svg>
