<?xml version="1.0" encoding="UTF-8" standalone="no"?>
<!-- Created with Inkscape (http://www.inkscape.org/) -->
<svg
   xmlns:dc="http://purl.org/dc/elements/1.1/"
   xmlns:cc="http://creativecommons.org/ns#"
   xmlns:rdf="http://www.w3.org/1999/02/22-rdf-syntax-ns#"
   xmlns:svg="http://www.w3.org/2000/svg"
   xmlns="http://www.w3.org/2000/svg"
   xmlns:sodipodi="http://sodipodi.sourceforge.net/DTD/sodipodi-0.dtd"
   xmlns:inkscape="http://www.inkscape.org/namespaces/inkscape"
   width="300"
   height="300"
   id="svg2400"
   sodipodi:version="0.32"
   inkscape:version="0.46"
   version="1.0"
   sodipodi:docname="禸-seal.svg"
   inkscape:output_extension="org.inkscape.output.svg.inkscape">
  <defs
     id="defs2402">
    <inkscape:perspective
       sodipodi:type="inkscape:persp3d"
       inkscape:vp_x="0 : 526.18109 : 1"
       inkscape:vp_y="0 : 1000 : 0"
       inkscape:vp_z="744.09448 : 526.18109 : 1"
       inkscape:persp3d-origin="372.04724 : 350.78739 : 1"
       id="perspective2408" />
    <inkscape:perspective
       id="perspective3684"
       inkscape:persp3d-origin="372.04724 : 350.78739 : 1"
       inkscape:vp_z="744.09448 : 526.18109 : 1"
       inkscape:vp_y="0 : 1000 : 0"
       inkscape:vp_x="0 : 526.18109 : 1"
       sodipodi:type="inkscape:persp3d" />
    <inkscape:perspective
       id="perspective3736"
       inkscape:persp3d-origin="372.04724 : 350.78739 : 1"
       inkscape:vp_z="744.09448 : 526.18109 : 1"
       inkscape:vp_y="0 : 1000 : 0"
       inkscape:vp_x="0 : 526.18109 : 1"
       sodipodi:type="inkscape:persp3d" />
    <inkscape:perspective
       id="perspective2445"
       inkscape:persp3d-origin="372.04724 : 350.78739 : 1"
       inkscape:vp_z="744.09448 : 526.18109 : 1"
       inkscape:vp_y="0 : 1000 : 0"
       inkscape:vp_x="0 : 526.18109 : 1"
       sodipodi:type="inkscape:persp3d" />
  </defs>
  <sodipodi:namedview
     id="base"
     pagecolor="#ffffff"
     bordercolor="#666666"
     borderopacity="1.0"
     gridtolerance="10000"
     guidetolerance="10"
     objecttolerance="10"
     inkscape:pageopacity="0.0"
     inkscape:pageshadow="2"
     inkscape:zoom="1.4"
     inkscape:cx="101.27066"
     inkscape:cy="212.96325"
     inkscape:document-units="px"
     inkscape:current-layer="layer1"
     showgrid="false"
     width="300px"
     inkscape:window-width="1274"
     inkscape:window-height="950"
     inkscape:window-x="0"
     inkscape:window-y="25" />
  <metadata
     id="metadata2405">
    <rdf:RDF>
      <cc:Work
         rdf:about="">
        <dc:format>image/svg+xml</dc:format>
        <dc:type
           rdf:resource="http://purl.org/dc/dcmitype/StillImage" />
      </cc:Work>
    </rdf:RDF>
  </metadata>
  <g
     inkscape:label="Layer 1"
     inkscape:groupmode="layer"
     id="layer1">
    <path
       style="fill:#000000"
       d="M 67.477652,283.59852 C 63.639516,279.76037 66.6179,272.10653 75.346008,263.37844 C 80.620492,258.10396 86.357469,248.96284 88.344117,242.66767 C 101.85308,213.57756 105.02551,182.93359 105.88999,151.06615 C 105.99232,114.20843 102.08134,96.213959 93.703788,94.997336 C 90.521962,94.535258 86.69333,95.382516 85.195708,96.880132 C 81.166593,100.90925 70.924959,100.2455 70.924959,95.955257 C 70.924959,93.948963 75.161251,90.320372 80.338945,87.891723 C 93.491354,81.722444 95.260897,79.460544 96.831848,66.809777 C 98.184122,45.655073 106.28811,29.62029 123.3349,16.895298 C 128.21137,14.309827 129.69616,14.352462 131.45523,17.128474 C 134.77679,22.370228 134.24348,23.754743 126.11197,30.999949 C 121.94691,34.711039 116.80717,41.2154 114.69034,45.454082 C 109.67385,55.498973 106.07143,71.693011 108.51716,73.204551 C 110.99896,74.738387 140.71325,64.787514 148.29925,59.882118 C 153.57409,56.471213 153.96684,54.901007 152.43683,43.340353 C 151.50707,36.315135 149.7317,29.494035 148.49157,28.182355 C 144.59164,24.057425 145.96288,16.757664 150.62998,16.798502 C 160.10146,16.881379 164.58592,25.102599 164.98724,43.1192 L 165.21092,53.160776 L 181.55438,53.160776 C 196.12636,53.160776 198.66586,53.927152 204.98344,60.231253 C 211.3121,66.546408 212.05912,69.020146 211.97624,83.387604 C 208.92987,121.48266 205.19206,159.55689 208.70907,197.89229 C 213.68348,219.30322 215.42565,240.5863 226.70999,260.01288 C 235.13344,272.72999 236.79598,286.25946 229.76893,284.90618 C 198.28387,260.41767 193.52989,201.78153 193.02894,165.64371 C 193.19387,163.99635 194.04634,150.44022 194.92332,135.51898 C 195.8003,120.59774 197.83753,100.28142 199.45051,90.371611 C 203.10076,67.945121 201.03686,64.440322 184.21291,64.495992 C 177.82357,64.517134 171.1651,65.442634 169.41632,66.552657 C 167.66755,67.662681 163.55932,79.224574 160.28694,92.245756 C 157.01455,105.26694 151.44966,124.39945 147.9205,134.76246 C 141.20513,154.48146 139.36539,162.83049 138.51956,177.42529 C 137.6382,192.63334 139.99505,194.99804 156.03386,194.99804 L 170.31454,194.99804 L 171.3692,185.58406 C 173.39365,167.51356 171.84709,150.40712 167.60337,143.93038 C 163.58371,137.79559 164.13058,132.23819 168.75394,132.23819 C 169.92967,132.23819 173.70031,137.87448 177.13315,144.76329 C 182.22771,154.98675 183.28599,160.53757 182.89209,174.96993 C 182.47546,190.2355 181.55732,193.44168 176.17258,198.43469 C 163.61636,210.07748 146.04228,209.3667 133.67373,196.71585 C 127.93947,190.85072 126.15363,186.71564 126.15363,179.30321 C 126.15363,169.43529 127.15654,165.5359 141.164,120.94142 C 145.50094,107.13425 149.70394,90.468204 150.50401,83.905755 L 151.95866,71.974034 L 143.44934,73.641611 C 138.76921,74.558779 129.49789,77.668698 122.8464,80.552543 C 111.07452,85.656406 110.79368,86.029656 112.28984,94.58228 C 113.13523,99.414789 114.45619,124.85524 115.22532,151.11661 C 116.59073,197.73778 116.46951,199.32393 110.08901,218.33114 C 99.877435,248.75088 84.694814,277.08233 76.269974,281.43897 C 72.299608,283.49215 68.343057,284.46392 67.477652,283.59852 z"
       id="path2451"
       sodipodi:nodetypes="csccssssccsssssssscccscccccssssssscccsssssssscccsssssc" />
  </g>
</svg>
