<?xml version="1.0" standalone="no"?>
<!DOCTYPE svg PUBLIC "-//W3C//DTD SVG 20010904//EN"
 "http://www.w3.org/TR/2001/REC-SVG-20010904/DTD/svg10.dtd">
<svg version="1.0" xmlns="http://www.w3.org/2000/svg"
 width="469pt" height="469pt" viewBox="0 0 469 469"
 preserveAspectRatio="xMidYMid meet">
<metadata>
Created by potrace 1.8, written by Peter Selinger 2001-2007
</metadata>
<g transform="translate(0,469) scale(0.525843,-0.525843)"
fill="#000000" stroke="none">
<path d="M600 653 c0 -26 -4 -53 -8 -59 -4 -6 -31 -17 -60 -25 -62 -15 -72 -8
-72 52 0 34 -4 38 -40 53 -46 18 -161 21 -177 5 -6 -6 -9 -18 -6 -25 4 -10 28
-14 94 -14 85 0 89 -1 95 -24 14 -57 7 -61 -104 -64 -91 -2 -103 -5 -100 -20
3 -15 19 -17 111 -20 97 -2 107 -4 107 -22 0 -32 -11 -50 -31 -50 -35 0 -153
-42 -174 -61 -17 -16 -20 -36 -23 -148 -4 -123 -3 -130 17 -140 19 -10 22 -9
32 16 5 15 9 70 7 123 -4 125 7 145 88 155 31 4 64 9 72 12 12 5 14 -19 11
-173 -4 -174 -3 -179 16 -179 19 0 20 6 18 171 l-2 172 37 6 c21 3 54 1 73 -4
l36 -10 7 -108 c8 -138 16 -182 31 -182 17 0 25 55 25 171 0 104 -12 154 -40
169 -10 6 -53 10 -94 10 l-76 0 0 39 0 38 62 6 c38 3 71 13 87 25 23 17 26 26
26 83 0 59 -2 64 -22 67 -21 3 -23 -1 -23 -45z"/>
</g>
</svg>
