<?xml version="1.0" encoding="UTF-8" standalone="no"?>
<!-- Created with Inkscape (http://www.inkscape.org/) -->
<svg
   xmlns:dc="http://purl.org/dc/elements/1.1/"
   xmlns:cc="http://creativecommons.org/ns#"
   xmlns:rdf="http://www.w3.org/1999/02/22-rdf-syntax-ns#"
   xmlns:svg="http://www.w3.org/2000/svg"
   xmlns="http://www.w3.org/2000/svg"
   xmlns:sodipodi="http://sodipodi.sourceforge.net/DTD/sodipodi-0.dtd"
   xmlns:inkscape="http://www.inkscape.org/namespaces/inkscape"
   width="300"
   height="300"
   id="svg2400"
   sodipodi:version="0.32"
   inkscape:version="0.46"
   version="1.0"
   sodipodi:docname="爪-seal.svg"
   inkscape:output_extension="org.inkscape.output.svg.inkscape">
  <defs
     id="defs2402">
    <inkscape:perspective
       sodipodi:type="inkscape:persp3d"
       inkscape:vp_x="0 : 526.18109 : 1"
       inkscape:vp_y="0 : 1000 : 0"
       inkscape:vp_z="744.09448 : 526.18109 : 1"
       inkscape:persp3d-origin="372.04724 : 350.78739 : 1"
       id="perspective2408" />
    <inkscape:perspective
       id="perspective3684"
       inkscape:persp3d-origin="372.04724 : 350.78739 : 1"
       inkscape:vp_z="744.09448 : 526.18109 : 1"
       inkscape:vp_y="0 : 1000 : 0"
       inkscape:vp_x="0 : 526.18109 : 1"
       sodipodi:type="inkscape:persp3d" />
    <inkscape:perspective
       id="perspective3736"
       inkscape:persp3d-origin="372.04724 : 350.78739 : 1"
       inkscape:vp_z="744.09448 : 526.18109 : 1"
       inkscape:vp_y="0 : 1000 : 0"
       inkscape:vp_x="0 : 526.18109 : 1"
       sodipodi:type="inkscape:persp3d" />
    <inkscape:perspective
       id="perspective2465"
       inkscape:persp3d-origin="372.04724 : 350.78739 : 1"
       inkscape:vp_z="744.09448 : 526.18109 : 1"
       inkscape:vp_y="0 : 1000 : 0"
       inkscape:vp_x="0 : 526.18109 : 1"
       sodipodi:type="inkscape:persp3d" />
    <inkscape:perspective
       id="perspective2537"
       inkscape:persp3d-origin="372.04724 : 350.78739 : 1"
       inkscape:vp_z="744.09448 : 526.18109 : 1"
       inkscape:vp_y="0 : 1000 : 0"
       inkscape:vp_x="0 : 526.18109 : 1"
       sodipodi:type="inkscape:persp3d" />
    <inkscape:perspective
       id="perspective2620"
       inkscape:persp3d-origin="372.04724 : 350.78739 : 1"
       inkscape:vp_z="744.09448 : 526.18109 : 1"
       inkscape:vp_y="0 : 1000 : 0"
       inkscape:vp_x="0 : 526.18109 : 1"
       sodipodi:type="inkscape:persp3d" />
    <inkscape:perspective
       id="perspective2672"
       inkscape:persp3d-origin="372.04724 : 350.78739 : 1"
       inkscape:vp_z="744.09448 : 526.18109 : 1"
       inkscape:vp_y="0 : 1000 : 0"
       inkscape:vp_x="0 : 526.18109 : 1"
       sodipodi:type="inkscape:persp3d" />
    <inkscape:perspective
       id="perspective2744"
       inkscape:persp3d-origin="372.04724 : 350.78739 : 1"
       inkscape:vp_z="744.09448 : 526.18109 : 1"
       inkscape:vp_y="0 : 1000 : 0"
       inkscape:vp_x="0 : 526.18109 : 1"
       sodipodi:type="inkscape:persp3d" />
    <inkscape:perspective
       id="perspective2816"
       inkscape:persp3d-origin="372.04724 : 350.78739 : 1"
       inkscape:vp_z="744.09448 : 526.18109 : 1"
       inkscape:vp_y="0 : 1000 : 0"
       inkscape:vp_x="0 : 526.18109 : 1"
       sodipodi:type="inkscape:persp3d" />
    <inkscape:perspective
       id="perspective3185"
       inkscape:persp3d-origin="372.04724 : 350.78739 : 1"
       inkscape:vp_z="744.09448 : 526.18109 : 1"
       inkscape:vp_y="0 : 1000 : 0"
       inkscape:vp_x="0 : 526.18109 : 1"
       sodipodi:type="inkscape:persp3d" />
  </defs>
  <sodipodi:namedview
     id="base"
     pagecolor="#ffffff"
     bordercolor="#666666"
     borderopacity="1.0"
     gridtolerance="10000"
     guidetolerance="10"
     objecttolerance="10"
     inkscape:pageopacity="0.0"
     inkscape:pageshadow="2"
     inkscape:zoom="0.98994949"
     inkscape:cx="89.913136"
     inkscape:cy="266.65852"
     inkscape:document-units="px"
     inkscape:current-layer="layer1"
     showgrid="false"
     width="300px"
     inkscape:window-width="1280"
     inkscape:window-height="951"
     inkscape:window-x="0"
     inkscape:window-y="25" />
  <metadata
     id="metadata2405">
    <rdf:RDF>
      <cc:Work
         rdf:about="">
        <dc:format>image/svg+xml</dc:format>
        <dc:type
           rdf:resource="http://purl.org/dc/dcmitype/StillImage" />
      </cc:Work>
    </rdf:RDF>
  </metadata>
  <g
     inkscape:label="Layer 1"
     inkscape:groupmode="layer"
     id="layer1">
    <path
       style="fill:#000000"
       d="M 218.31476,283.15468 C 213.55741,279.96381 211.71232,262.86423 210.22798,208.20925 C 209.41508,178.2771 207.55532,154.29485 205.76823,150.699 C 203.76812,146.6745 198.62866,143.50517 190.97893,141.57895 C 183.92567,139.80292 175.51404,134.88588 169.86479,129.23663 C 159.87711,119.24895 159.36411,116.4022 160.17086,75.442758 C 160.45556,60.988984 156.39445,54.1579 149.16598,56.931717 C 142.9374,59.321853 138.85677,74.674119 138.85677,95.717304 C 138.85677,121.61561 134.44081,129.86097 116.26558,137.89891 C 108.50774,141.3298 100.75365,145.83193 99.034273,147.90366 C 97.103443,150.23018 95.715983,164.54593 95.405593,185.34429 C 94.943613,216.30102 91.955853,253.74039 88.797873,268.14484 C 87.369843,274.65852 80.534303,282.52049 76.299053,282.52049 C 74.573103,282.52049 74.135463,274.85374 75.103613,261.57823 C 76.506523,242.34118 78.842813,195.67086 83.106873,101.70348 C 84.800583,64.379054 88.078293,51.171845 96.294833,48.564022 C 102.24832,43.809987 105.67359,42.286908 114.17231,42.022276 C 129.89792,42.022276 140.07548,35.253153 142.48826,23.189241 C 143.68506,17.205261 145.64749,14.999999 149.77576,14.999999 C 159.10549,14.999999 165.87903,20.125692 165.87903,27.185705 C 165.87903,34.981123 178.37529,42.635632 189.68245,41.766358 C 204.76098,40.607145 211.7419,42.210823 218.37434,48.357567 L 225.21023,54.692848 L 225.32848,161.17555 C 225.39351,219.74104 225.42002,271.61025 225.38737,276.44048 C 225.32755,285.29349 223.74437,286.79645 218.31476,283.15468 z M 207.78571,119.71131 C 213.20043,110.6375 216.16088,87.571675 212.87393,80.067177 C 211.84601,77.72029 210.57871,73.615885 210.05771,70.946277 C 208.68059,63.889858 196.72608,52.831181 190.47513,52.831181 C 181.36618,52.831181 176.68795,63.061554 176.68795,82.98103 C 176.68795,103.1375 179.65518,113.34745 188.14789,122.41353 C 196.00642,130.80262 201.62872,130.02898 207.78571,119.71131 z M 112.25012,122.41353 C 123.70193,113.09444 128.34119,101.74309 128.5213,82.601119 C 128.6286,71.198072 127.35961,62.013463 125.34074,59.580864 C 120.70622,53.996598 108.43807,54.509053 101.43906,60.579266 C 96.169853,65.149224 95.621143,68.313723 95.621143,94.131918 C 95.621143,122.27554 96.430273,124.9213 105.23801,125.57798 C 106.81173,125.69532 109.96718,124.27131 112.25012,122.41353 z"
       id="path3191"
       sodipodi:nodetypes="cssssssssssssssccsssscccsccsssssccsssssc" />
  </g>
</svg>
