<?xml version="1.0" encoding="UTF-8" standalone="no"?>
<!-- Created with Inkscape (http://www.inkscape.org/) -->
<svg
   xmlns:dc="http://purl.org/dc/elements/1.1/"
   xmlns:cc="http://creativecommons.org/ns#"
   xmlns:rdf="http://www.w3.org/1999/02/22-rdf-syntax-ns#"
   xmlns:svg="http://www.w3.org/2000/svg"
   xmlns="http://www.w3.org/2000/svg"
   xmlns:sodipodi="http://sodipodi.sourceforge.net/DTD/sodipodi-0.dtd"
   xmlns:inkscape="http://www.inkscape.org/namespaces/inkscape"
   width="300"
   height="300"
   id="svg2400"
   sodipodi:version="0.32"
   inkscape:version="0.46"
   version="1.0"
   sodipodi:docname="爪-seal.svg"
   inkscape:output_extension="org.inkscape.output.svg.inkscape">
  <defs
     id="defs2402">
    <inkscape:perspective
       sodipodi:type="inkscape:persp3d"
       inkscape:vp_x="0 : 526.18109 : 1"
       inkscape:vp_y="0 : 1000 : 0"
       inkscape:vp_z="744.09448 : 526.18109 : 1"
       inkscape:persp3d-origin="372.04724 : 350.78739 : 1"
       id="perspective2408" />
    <inkscape:perspective
       id="perspective3684"
       inkscape:persp3d-origin="372.04724 : 350.78739 : 1"
       inkscape:vp_z="744.09448 : 526.18109 : 1"
       inkscape:vp_y="0 : 1000 : 0"
       inkscape:vp_x="0 : 526.18109 : 1"
       sodipodi:type="inkscape:persp3d" />
    <inkscape:perspective
       id="perspective3736"
       inkscape:persp3d-origin="372.04724 : 350.78739 : 1"
       inkscape:vp_z="744.09448 : 526.18109 : 1"
       inkscape:vp_y="0 : 1000 : 0"
       inkscape:vp_x="0 : 526.18109 : 1"
       sodipodi:type="inkscape:persp3d" />
    <inkscape:perspective
       id="perspective2465"
       inkscape:persp3d-origin="372.04724 : 350.78739 : 1"
       inkscape:vp_z="744.09448 : 526.18109 : 1"
       inkscape:vp_y="0 : 1000 : 0"
       inkscape:vp_x="0 : 526.18109 : 1"
       sodipodi:type="inkscape:persp3d" />
    <inkscape:perspective
       id="perspective2537"
       inkscape:persp3d-origin="372.04724 : 350.78739 : 1"
       inkscape:vp_z="744.09448 : 526.18109 : 1"
       inkscape:vp_y="0 : 1000 : 0"
       inkscape:vp_x="0 : 526.18109 : 1"
       sodipodi:type="inkscape:persp3d" />
    <inkscape:perspective
       id="perspective2620"
       inkscape:persp3d-origin="372.04724 : 350.78739 : 1"
       inkscape:vp_z="744.09448 : 526.18109 : 1"
       inkscape:vp_y="0 : 1000 : 0"
       inkscape:vp_x="0 : 526.18109 : 1"
       sodipodi:type="inkscape:persp3d" />
    <inkscape:perspective
       id="perspective2672"
       inkscape:persp3d-origin="372.04724 : 350.78739 : 1"
       inkscape:vp_z="744.09448 : 526.18109 : 1"
       inkscape:vp_y="0 : 1000 : 0"
       inkscape:vp_x="0 : 526.18109 : 1"
       sodipodi:type="inkscape:persp3d" />
    <inkscape:perspective
       id="perspective2744"
       inkscape:persp3d-origin="372.04724 : 350.78739 : 1"
       inkscape:vp_z="744.09448 : 526.18109 : 1"
       inkscape:vp_y="0 : 1000 : 0"
       inkscape:vp_x="0 : 526.18109 : 1"
       sodipodi:type="inkscape:persp3d" />
    <inkscape:perspective
       id="perspective2816"
       inkscape:persp3d-origin="372.04724 : 350.78739 : 1"
       inkscape:vp_z="744.09448 : 526.18109 : 1"
       inkscape:vp_y="0 : 1000 : 0"
       inkscape:vp_x="0 : 526.18109 : 1"
       sodipodi:type="inkscape:persp3d" />
  </defs>
  <sodipodi:namedview
     id="base"
     pagecolor="#ffffff"
     bordercolor="#666666"
     borderopacity="1.0"
     gridtolerance="10000"
     guidetolerance="10"
     objecttolerance="10"
     inkscape:pageopacity="0.0"
     inkscape:pageshadow="2"
     inkscape:zoom="0.98994949"
     inkscape:cx="136.23956"
     inkscape:cy="181.07663"
     inkscape:document-units="px"
     inkscape:current-layer="layer1"
     showgrid="false"
     width="300px"
     inkscape:window-width="1280"
     inkscape:window-height="951"
     inkscape:window-x="0"
     inkscape:window-y="25" />
  <metadata
     id="metadata2405">
    <rdf:RDF>
      <cc:Work
         rdf:about="">
        <dc:format>image/svg+xml</dc:format>
        <dc:type
           rdf:resource="http://purl.org/dc/dcmitype/StillImage" />
      </cc:Work>
    </rdf:RDF>
  </metadata>
  <g
     inkscape:label="Layer 1"
     inkscape:groupmode="layer"
     id="layer1">
    <path
       style="fill:#000000"
       d="M 50.735876,281.29929 C 49.221696,278.84929 49.800206,269.47418 52.021456,260.4657 C 64.056276,211.65743 65.102866,198.9403 60.705136,154.95067 C 56.562736,113.51493 56.800196,109.66357 64.819516,88.220105 C 74.013736,63.635006 77.034126,61.779003 118.44565,55.267247 C 133.82304,52.849228 135.22243,51.605591 137.40431,38.418777 C 140.91998,17.170965 142.59259,13.539003 147.98573,15.442083 C 151.04726,16.5224 152.51931,23.085779 151.90043,32.896303 L 150.90857,48.619147 L 177.42518,51.288824 C 244.94877,58.08705 245.60506,59.104369 242.5372,152.21799 C 241.01386,198.45331 241.81572,228.13867 245.01873,244.08666 C 251.69215,277.31405 251.72548,279.42864 245.57579,279.42864 C 235.47587,279.42864 224.42065,239.22156 223.98132,200.89092 L 223.57623,165.54894 L 204.37599,163.34422 C 189.6825,161.65701 182.89464,158.48757 175.45748,149.84136 C 166.18612,139.06276 165.86227,136.97022 168.41516,104.33658 C 171.40199,66.155788 169.87879,63.194315 149.2452,67.0652 L 136.2905,69.495514 L 133.60518,99.128992 C 130.10598,137.74413 122.34765,153.31435 99.645325,167.28323 C 79.058726,179.95029 76.462726,186.84773 76.096346,229.8517 C 75.974446,244.16029 73.765586,262.03065 71.187746,269.56359 C 66.454366,283.39548 55.807286,289.50499 50.735876,281.29929 z M 97.024827,154.25015 C 109.0872,143.07112 115.53519,121.99394 115.56496,93.646214 L 115.58686,72.793011 L 100.95133,74.011784 C 81.093656,75.665422 76.448536,86.10157 76.375886,129.22524 C 76.311746,167.29612 79.187456,170.78127 97.024827,154.25015 z M 225.53968,113.0168 C 225.53968,74.183726 223.49902,70.427035 200.36531,66.672951 L 186.27081,64.385728 L 186.27081,96.129852 C 186.27081,138.26988 190.76247,147.87795 210.46245,147.87795 L 225.53968,147.87795 L 225.53968,113.0168 z"
       id="path2822" />
  </g>
</svg>
