<?xml version="1.0" encoding="UTF-8" standalone="no"?>
<!-- Created with Inkscape (http://www.inkscape.org/) -->
<svg
   xmlns:dc="http://purl.org/dc/elements/1.1/"
   xmlns:cc="http://web.resource.org/cc/"
   xmlns:rdf="http://www.w3.org/1999/02/22-rdf-syntax-ns#"
   xmlns:svg="http://www.w3.org/2000/svg"
   xmlns="http://www.w3.org/2000/svg"
   xmlns:sodipodi="http://sodipodi.sourceforge.net/DTD/sodipodi-0.dtd"
   xmlns:inkscape="http://www.inkscape.org/namespaces/inkscape"
   width="300"
   height="300"
   id="svg2"
   sodipodi:version="0.32"
   inkscape:version="0.45.1"
   version="1.0"
   sodipodi:docbase="C:\Documents and Settings\Martin\桌面"
   sodipodi:docname="drawing.svg"
   inkscape:output_extension="org.inkscape.output.svg.inkscape">
  <defs
     id="defs4" />
  <sodipodi:namedview
     id="base"
     pagecolor="#ffffff"
     bordercolor="#666666"
     borderopacity="1.0"
     gridtolerance="10000"
     guidetolerance="10"
     objecttolerance="10"
     inkscape:pageopacity="0.0"
     inkscape:pageshadow="2"
     inkscape:zoom="1.979899"
     inkscape:cx="118.29451"
     inkscape:cy="210.25231"
     inkscape:document-units="px"
     inkscape:current-layer="layer1"
     width="300px"
     height="300px"
     inkscape:window-width="742"
     inkscape:window-height="577"
     inkscape:window-x="50"
     inkscape:window-y="0" />
  <metadata
     id="metadata7">
    <rdf:RDF>
      <cc:Work
         rdf:about="">
        <dc:format>image/svg+xml</dc:format>
        <dc:type
           rdf:resource="http://purl.org/dc/dcmitype/StillImage" />
      </cc:Work>
    </rdf:RDF>
  </metadata>
  <g
     inkscape:label="Layer 1"
     inkscape:groupmode="layer"
     id="layer1">
    <path
       style="fill:#000000"
       d="M 174.40452,284.48289 C 173.01964,283.12769 154.03626,281.27078 132.21924,280.35642 C 110.40221,279.44205 91.313961,277.66652 89.800858,276.41075 C 88.287766,275.155 82.88007,273.73194 77.783755,273.24837 C 71.704972,272.67164 68.517681,271.00167 68.517681,268.39347 C 68.517681,265.38214 73.18866,264.00056 87.774239,262.6979 C 114.37173,260.32241 114.16959,260.4601 113.08381,245.45529 C 112.57267,238.39146 112.08981,231.41924 112.01078,229.96148 C 111.86394,227.25333 112.87333,218.96204 116.20561,195.50518 C 118.39468,180.09561 131.44552,139.59381 139.22662,124.0622 C 143.66715,115.19859 144.54841,108.55199 144.31106,85.714693 C 144.15314,70.520678 143.50716,57.572462 142.8756,56.940878 C 141.13939,55.204697 129.70801,67.355252 122.04766,79.079124 C 114.79884,90.173135 109.55567,102.9813 103.98211,123.21009 C 100.2331,136.81686 94.934919,141.29373 92.322396,133.06237 C 89.938345,125.55088 96.337139,99.168992 103.53452,86.835336 C 106.9373,81.004271 111.78134,72.058888 114.29912,66.956707 C 116.8169,61.854525 120.36777,56.103921 122.18998,54.177587 C 125.68789,48.319723 128.92362,42.856514 133.61018,37.634763 C 138.06908,32.861492 142.37744,25.655297 143.18431,21.620998 C 145.70561,9.0145265 151.06487,10.522169 159.99808,26.350959 C 164.57898,34.467886 171.1105,43.892481 174.51252,47.294505 C 177.91456,50.696531 183.48633,58.599519 186.8942,64.856704 C 190.30214,71.113888 193.69587,76.829759 194.43588,77.558643 C 195.17588,78.287525 199.05221,85.008883 203.04996,92.494988 C 210.13703,105.76613 212.6818,119.96639 207.97299,119.96639 C 206.68292,119.96639 197.70047,109.2794 188.01196,96.217524 C 178.32344,83.155652 169.24086,71.754441 167.82842,70.881504 C 164.43725,68.78566 164.47235,91.043895 167.87431,99.991688 C 172.42844,111.96997 178.19819,159.72494 179.73442,198.15566 C 180.55024,218.56439 181.93957,240.8078 182.82181,247.58548 L 184.42588,259.90854 L 205.43564,260.86263 C 225.12973,261.75699 231.31136,264.26331 231.48186,271.42301 C 231.5577,274.60724 222.29243,276.86519 203.69236,278.19526 C 191.71351,279.05188 184.38788,280.83753 183.01941,283.23445 C 180.55244,287.55536 177.93231,287.93505 174.40452,284.48289 z M 164.87612,260.68049 C 170.53462,260.46431 170.99135,259.51296 169.76215,250.50273 C 169.01639,245.03609 166.51646,226.84715 164.20678,210.08285 C 161.89708,193.31853 159.99655,171.62183 159.98335,161.86794 C 159.97016,152.11405 158.89756,143.47737 157.59981,142.6753 C 153.85112,140.35849 144.72521,161.56433 138.28642,187.55371 C 134.15169,204.2431 129.03348,257.61126 131.34587,259.92364 C 132.49435,261.07213 139.10404,261.76592 146.03407,261.46538 C 152.96411,261.16483 161.44304,260.81163 164.87612,260.68049 z "
       id="path4584"
       sodipodi:nodetypes="cssssssssssssssssccssssssssssscccsssccsssssssc" />
  </g>
</svg>
