<?xml version="1.0" encoding="UTF-8" standalone="no"?>
<!-- Created with Inkscape (http://www.inkscape.org/) -->
<svg
   xmlns:dc="http://purl.org/dc/elements/1.1/"
   xmlns:cc="http://web.resource.org/cc/"
   xmlns:rdf="http://www.w3.org/1999/02/22-rdf-syntax-ns#"
   xmlns:svg="http://www.w3.org/2000/svg"
   xmlns="http://www.w3.org/2000/svg"
   xmlns:sodipodi="http://sodipodi.sourceforge.net/DTD/sodipodi-0.dtd"
   xmlns:inkscape="http://www.inkscape.org/namespaces/inkscape"
   width="300"
   height="300"
   id="svg2"
   sodipodi:version="0.32"
   inkscape:version="0.45.1"
   version="1.0"
   sodipodi:docbase="C:\Documents and Settings\Martin\桌面"
   sodipodi:docname="drawing.svg"
   inkscape:output_extension="org.inkscape.output.svg.inkscape">
  <defs
     id="defs4" />
  <sodipodi:namedview
     id="base"
     pagecolor="#ffffff"
     bordercolor="#666666"
     borderopacity="1.0"
     gridtolerance="10000"
     guidetolerance="10"
     objecttolerance="10"
     inkscape:pageopacity="0.0"
     inkscape:pageshadow="2"
     inkscape:zoom="0.98994949"
     inkscape:cx="189.84726"
     inkscape:cy="157.71031"
     inkscape:document-units="px"
     inkscape:current-layer="layer1"
     width="300px"
     height="300px"
     inkscape:window-width="742"
     inkscape:window-height="577"
     inkscape:window-x="50"
     inkscape:window-y="0" />
  <metadata
     id="metadata7">
    <rdf:RDF>
      <cc:Work
         rdf:about="">
        <dc:format>image/svg+xml</dc:format>
        <dc:type
           rdf:resource="http://purl.org/dc/dcmitype/StillImage" />
      </cc:Work>
    </rdf:RDF>
  </metadata>
  <g
     inkscape:label="Layer 1"
     inkscape:groupmode="layer"
     id="layer1">
    <path
       style="fill:#000000"
       d="M 183.42446,278.54919 C 181.0534,227.35548 182.97882,175.34332 183.33248,123.90519 C 183.59457,93.06591 183.28604,67.310817 182.64685,66.671622 C 182.00766,66.032428 178.67821,66.213827 175.2481,67.074737 C 169.1164,68.613701 169.00849,69.040719 168.83071,92.471197 C 167.94285,209.50207 167.24163,232.93077 164.54605,235.62634 C 158.32273,241.84967 156.42891,233.17749 156.07353,196.82888 C 155.52472,140.69381 158.30274,69.930175 161.27322,64.3798 C 162.3932,56.630335 169.10155,54.739534 176.3076,53.005682 C 183.47067,51.573075 183.71455,51.077012 183.98807,37.38306 C 184.34369,19.578763 184.39415,19.245228 187.53206,13.956873 C 191.20298,7.7702288 198.34636,11.159439 198.61725,19.216294 C 198.73693,22.776307 198.647,31.0787 198.41741,37.666047 C 197.97061,50.485054 200.35436,53.750152 210.20736,53.815145 C 221.29133,53.888253 224.11433,60.073634 224.1132,84.283833 C 224.10857,184.15353 222.73144,227.01056 219.38108,231.54995 C 216.54143,235.39739 215.27188,235.71134 212.72264,233.19642 C 208.89016,229.41556 208.749,217.26119 211.55836,132.95548 L 213.69651,68.791321 L 207.15854,67.150384 C 203.56263,66.247871 200.10329,66.026714 199.47108,66.65892 C 198.15096,67.979048 196.2479,147.67377 195.65402,226.50776 C 195.23916,281.57428 193.9947,291.40649 187.4397,291.40649 C 184.60341,291.40649 183.63799,288.31509 183.42446,278.54919 z M 106.78684,82.628496 C 107.44988,68.280655 105.82999,63.648683 100.14929,63.648683 C 96.884763,63.648683 93.969493,66.661003 91.261403,72.832463 C 87.879296,80.53986 87.072984,94.417896 86.245734,159.16001 C 85.294734,233.58706 83.950499,246.5092 77.799152,240.35786 C 74.99991,237.55861 75.378135,108.16068 78.252169,85.369645 C 80.980536,63.733651 84.999579,56.118303 95.541273,52.609943 L 104.11279,49.75726 L 104.83772,30.451013 C 105.57984,10.687291 107.3735,7.0316553 115.3102,9.1071458 C 119.25136,10.137777 119.76009,12.501512 119.2086,27.220324 C 118.85979,36.530641 119.17769,45.007776 119.91512,46.058383 C 120.65252,47.10899 125.75806,49.282357 131.26077,50.888066 C 138.11184,52.88725 142.19835,55.854542 144.2244,60.301245 C 152.00078,112.41041 145.78473,161.19136 143.39621,213.03821 C 142.57609,234.19698 140.76189,239.97731 134.94121,239.97731 C 130.47154,239.97731 130.22623,224.84466 133.23396,134.66993 C 135.01717,81.207863 135.1796,65.735555 133.9703,64.526256 C 133.36617,63.922119 129.72869,63.202008 125.88702,62.925999 C 117.83902,62.34779 117.69387,62.910997 117.81127,94.261287 C 117.85161,105.03693 117.8739,114.95541 117.86079,116.30237 C 117.84766,117.64932 117.27641,127.01677 116.59132,137.11894 C 114.84753,162.83265 112.84652,203.01709 111.16451,246.09983 C 109.82618,280.37993 108.08925,288.95748 102.48589,288.95748 C 95.252743,220.47017 105.91872,151.11734 106.78684,82.628496 z "
       id="path2187"
       sodipodi:nodetypes="ccsssssccsssssssscccsssccssssscccssssccsssssssscc" />
  </g>
</svg>
