<?xml version="1.0" encoding="UTF-8" standalone="no"?>
<!-- Created with Inkscape (http://www.inkscape.org/) -->
<svg
   xmlns:dc="http://purl.org/dc/elements/1.1/"
   xmlns:cc="http://creativecommons.org/ns#"
   xmlns:rdf="http://www.w3.org/1999/02/22-rdf-syntax-ns#"
   xmlns:svg="http://www.w3.org/2000/svg"
   xmlns="http://www.w3.org/2000/svg"
   xmlns:sodipodi="http://sodipodi.sourceforge.net/DTD/sodipodi-0.dtd"
   xmlns:inkscape="http://www.inkscape.org/namespaces/inkscape"
   width="300"
   height="300"
   id="svg2400"
   sodipodi:version="0.32"
   inkscape:version="0.46"
   version="1.0"
   sodipodi:docname="米-bigseal.svg"
   inkscape:output_extension="org.inkscape.output.svg.inkscape">
  <defs
     id="defs2402">
    <inkscape:perspective
       sodipodi:type="inkscape:persp3d"
       inkscape:vp_x="0 : 526.18109 : 1"
       inkscape:vp_y="0 : 1000 : 0"
       inkscape:vp_z="744.09448 : 526.18109 : 1"
       inkscape:persp3d-origin="372.04724 : 350.78739 : 1"
       id="perspective2408" />
    <inkscape:perspective
       id="perspective3684"
       inkscape:persp3d-origin="372.04724 : 350.78739 : 1"
       inkscape:vp_z="744.09448 : 526.18109 : 1"
       inkscape:vp_y="0 : 1000 : 0"
       inkscape:vp_x="0 : 526.18109 : 1"
       sodipodi:type="inkscape:persp3d" />
    <inkscape:perspective
       id="perspective3736"
       inkscape:persp3d-origin="372.04724 : 350.78739 : 1"
       inkscape:vp_z="744.09448 : 526.18109 : 1"
       inkscape:vp_y="0 : 1000 : 0"
       inkscape:vp_x="0 : 526.18109 : 1"
       sodipodi:type="inkscape:persp3d" />
    <inkscape:perspective
       id="perspective2465"
       inkscape:persp3d-origin="372.04724 : 350.78739 : 1"
       inkscape:vp_z="744.09448 : 526.18109 : 1"
       inkscape:vp_y="0 : 1000 : 0"
       inkscape:vp_x="0 : 526.18109 : 1"
       sodipodi:type="inkscape:persp3d" />
    <inkscape:perspective
       id="perspective2517"
       inkscape:persp3d-origin="372.04724 : 350.78739 : 1"
       inkscape:vp_z="744.09448 : 526.18109 : 1"
       inkscape:vp_y="0 : 1000 : 0"
       inkscape:vp_x="0 : 526.18109 : 1"
       sodipodi:type="inkscape:persp3d" />
    <inkscape:perspective
       id="perspective2589"
       inkscape:persp3d-origin="372.04724 : 350.78739 : 1"
       inkscape:vp_z="744.09448 : 526.18109 : 1"
       inkscape:vp_y="0 : 1000 : 0"
       inkscape:vp_x="0 : 526.18109 : 1"
       sodipodi:type="inkscape:persp3d" />
  </defs>
  <sodipodi:namedview
     id="base"
     pagecolor="#ffffff"
     bordercolor="#666666"
     borderopacity="1.0"
     gridtolerance="10000"
     guidetolerance="10"
     objecttolerance="10"
     inkscape:pageopacity="0.0"
     inkscape:pageshadow="2"
     inkscape:zoom="0.7"
     inkscape:cx="153.09514"
     inkscape:cy="188.73611"
     inkscape:document-units="px"
     inkscape:current-layer="layer1"
     showgrid="false"
     width="300px"
     inkscape:window-width="1280"
     inkscape:window-height="953"
     inkscape:window-x="0"
     inkscape:window-y="25" />
  <metadata
     id="metadata2405">
    <rdf:RDF>
      <cc:Work
         rdf:about="">
        <dc:format>image/svg+xml</dc:format>
        <dc:type
           rdf:resource="http://purl.org/dc/dcmitype/StillImage" />
      </cc:Work>
    </rdf:RDF>
  </metadata>
  <g
     inkscape:label="Layer 1"
     inkscape:groupmode="layer"
     id="layer1">
    <path
       style="fill:#000000"
       d="M 21.937534,277.69072 C 12.722484,266.58727 19.675074,255.51256 35.860744,255.51256 C 59.547804,255.51256 81.549694,249.60583 84.270194,242.51633 C 85.680904,238.8401 85.380124,230.0352 83.601824,222.94987 C 80.451984,210.39991 79.632884,210.15067 51.862324,213.29255 C 29.387194,215.83533 22.033454,214.92396 17.104514,208.98495 C 12.110844,202.96794 12.083974,199.96889 16.971024,194.08037 C 24.721184,184.742 100.29505,183.53603 109.36502,192.606 C 112.60864,195.84961 115.26251,211.09665 115.26251,226.48828 C 115.26251,250.58697 113.28254,256.59263 101.0043,269.73654 C 88.130234,283.51828 83.894824,285 57.374884,285 C 37.374464,285 26.068304,282.66801 21.937534,277.69072 z M 140.61951,273.65838 C 137.68582,270.1235 134.65058,244.13769 133.87453,215.91212 L 132.46352,164.59293 L 74.502464,163.20646 C 27.808984,162.08952 15.978614,160.35337 13.646354,154.27561 C 8.398025,140.5987 20.173044,136.70176 76.640844,133.42763 L 132.46352,130.1909 L 133.92524,102.34043 C 135.55862,71.21934 144.4442,58.30812 157.0364,68.75872 C 161.09092,72.12368 164.40826,81.09674 164.40826,88.69884 C 164.40826,96.30096 166.56508,108.19374 169.20119,115.12725 C 173.89761,127.47978 174.96725,127.73362 222.32221,127.73362 C 276.40013,127.73362 294.31965,134.40081 284.2912,150.79001 C 279.66041,158.35798 270.71709,159.88479 224.08765,161.06796 L 169.32283,162.45755 L 169.32283,213.13793 C 169.32283,255.99479 167.93544,265.07388 160.33535,271.95187 C 149.49419,281.76299 147.48972,281.93647 140.61951,273.65838 z M 189.96406,274.18795 C 186.47764,270.70154 184.06656,253.93442 184.06656,233.17576 C 184.06656,189.78544 189.22292,184.19173 233.42384,179.63205 C 261.77348,176.70756 266.63016,177.47519 274.45051,186.11658 C 287.21394,200.22001 281.08417,205.46683 247.39046,209.27884 C 214.94889,212.94918 208.79257,219.03762 217.71716,238.62495 C 222.69016,249.5395 226.01948,250.59799 255.37679,250.59799 C 289.48519,250.59799 299.71434,257.72224 287.2207,272.77616 C 279.4893,282.09192 199.0359,283.25979 189.96406,274.18795 z M 9.009425,100.9388 C 3.979425,87.83085 12.395294,83.50304 43.062574,83.42718 C 81.405854,83.33236 87.830384,79.71909 81.105484,62.03124 C 76.325714,49.4595 74.795894,48.91443 52.567234,51.86316 C 33.425524,54.40241 26.852034,53.17525 17.041424,45.231104 C 6.703795,36.860191 5.933605,34.362393 11.588954,27.548121 C 16.639154,21.463007 27.276004,19.612972 57.212464,19.612972 C 111.24353,19.612972 115.26251,22.464334 115.26251,60.79807 C 115.26251,103.74668 109.70081,108.07532 54.517754,108.07532 C 21.660664,108.07532 11.113254,106.4213 9.009425,100.9388 z M 195.12527,102.13191 C 192.25414,98.64325 187.16727,81.81107 183.82108,64.72709 C 175.72802,23.407687 180.77733,18.009142 229.83387,15.531904 C 258.07227,14.10593 266.96568,15.36698 272.0733,21.521287 C 284.65006,36.675346 275.02958,44.185847 243.04147,44.185847 C 210.67876,44.185847 205.04199,48.84172 210.59903,70.9827 C 213.30419,81.76094 216.55814,83.16725 241.84514,84.48679 C 266.30427,85.76313 270.07163,87.27162 270.07163,95.78889 C 270.07163,104.56006 266.3191,105.77178 235.20855,107.04648 C 211.20912,108.02983 198.71881,106.4984 195.12527,102.13191 z"
       id="path2625" />
  </g>
</svg>
