<?xml version="1.0" encoding="UTF-8" standalone="no"?>
<!-- Created with Inkscape (http://www.inkscape.org/) -->

<svg
   xmlns:dc="http://purl.org/dc/elements/1.1/"
   xmlns:cc="http://creativecommons.org/ns#"
   xmlns:rdf="http://www.w3.org/1999/02/22-rdf-syntax-ns#"
   xmlns:svg="http://www.w3.org/2000/svg"
   xmlns="http://www.w3.org/2000/svg"
   xmlns:sodipodi="http://sodipodi.sourceforge.net/DTD/sodipodi-0.dtd"
   xmlns:inkscape="http://www.inkscape.org/namespaces/inkscape"
   width="300"
   height="300"
   id="svg2"
   version="1.1"
   inkscape:version="0.48.2 r9819"
   sodipodi:docname="匊-bronze.svg">
  <defs
     id="defs4" />
  <sodipodi:namedview
     id="base"
     pagecolor="#ffffff"
     bordercolor="#666666"
     borderopacity="1.0"
     inkscape:pageopacity="0.0"
     inkscape:pageshadow="2"
     inkscape:zoom="1.4"
     inkscape:cx="273.63703"
     inkscape:cy="154.74769"
     inkscape:document-units="px"
     inkscape:current-layer="layer1"
     showgrid="false"
     inkscape:window-width="1280"
     inkscape:window-height="999"
     inkscape:window-x="0"
     inkscape:window-y="24"
     inkscape:window-maximized="1" />
  <metadata
     id="metadata7">
    <rdf:RDF>
      <cc:Work
         rdf:about="">
        <dc:format>image/svg+xml</dc:format>
        <dc:type
           rdf:resource="http://purl.org/dc/dcmitype/StillImage" />
        <dc:title></dc:title>
      </cc:Work>
    </rdf:RDF>
  </metadata>
  <g
     inkscape:label="Calque 1"
     inkscape:groupmode="layer"
     id="layer1"
     transform="translate(0,-752.36218)">
    <path
       style="fill:#000000"
       d="m 135.65716,1033.3705 c -0.52213,-3.5239 -1.30131,-14.7937 -1.73158,-25.0441 -0.64394,-15.34188 -0.32399,-18.63703 1.80965,-18.63703 1.42556,0 2.59194,-0.71377 2.59194,-1.58614 0,-0.87237 1.46668,-1.58612 3.25931,-1.58612 5.20619,0 7.79426,11.10609 7.02277,30.13649 -0.37134,9.1599 -0.88162,16.8328 -1.13393,17.0509 -0.25231,0.2181 -0.57425,0.9319 -0.71544,1.5862 -0.65118,3.0179 -3.32305,4.933 -6.58507,4.7199 -2.72865,-0.1782 -3.79173,-1.7407 -4.51765,-6.6401 z m 56.74066,-1.7784 c -1.95147,-1.2371 -4.99767,-2.2494 -6.76931,-2.2494 -3.47454,0 -11.6955,-9.5985 -16.98132,-19.8267 -1.80334,-3.4895 -4.42382,-8.417 -5.8233,-10.95008 -3.03327,-5.49017 -3.30923,-10.46269 -0.58063,-10.46269 3.10009,0 19.98831,15.51097 19.98831,18.35817 0,2.618 6.93516,12.1432 9.53799,13.1001 0.79097,0.2907 1.43811,1.9436 1.43811,3.673 0,1.7295 0.88991,4.5861 1.97757,6.3483 2.56082,4.1487 1.63718,4.8145 -2.78744,2.0093 z M 82.593054,1026.567 c 0.348274,-1.5267 1.07118,-4.6041 1.606426,-6.8389 0.535269,-2.2346 3.053481,-6.1603 5.596002,-8.7236 2.542544,-2.5634 4.623792,-5.2283 4.625035,-5.922 0.0032,-1.8678 17.386233,-23.86704 20.799623,-26.32326 3.75518,-2.70216 8.47222,-1.16774 8.47222,2.75598 0,4.47011 -4.45379,12.92317 -10.35348,19.65048 -2.85782,3.2587 -8.48884,9.8059 -12.5134,14.5493 -6.205291,7.3138 -14.520507,13.6277 -17.94716,13.6277 -0.505171,0 -0.63355,-1.2491 -0.285266,-2.7757 z m 33.781896,-70.19191 c -2.51535,-0.71671 -6.8372,-1.73602 -9.60409,-2.26513 -2.76688,-0.52912 -5.03071,-1.91644 -5.03071,-3.08296 0,-1.50962 4.08636,-2.38369 14.17747,-3.03259 19.78202,-1.27205 55.4651,-0.0685 57.79228,1.94921 1.0648,0.92324 4.24099,1.67862 7.05819,1.67862 5.21596,0 7.30092,3.75883 2.8355,5.11186 -4.20422,1.27389 -62.59218,0.96208 -67.22864,-0.35901 z m 23.07044,-40.79299 c -0.78273,-0.67866 -2.3243,-1.23392 -3.42575,-1.23392 -3.24545,0 -4.98553,-8.54479 -4.817,-23.65432 0.14652,-13.13892 2.24131,-21.55038 5.36687,-21.55038 2.87987,0 5.28305,9.55369 6.43914,25.59836 1.14116,15.83749 -0.21116,23.74668 -3.56326,20.84026 z m -66.97485,-2.90606 c 0,-0.69714 3.641716,-5.95929 8.092685,-11.69367 7.754669,-9.99065 15.090719,-24.5661 17.022898,-33.82156 1.068011,-5.1159 1.86043,-5.25371 7.355397,-1.27912 4.17807,3.02209 5.61512,10.69581 2.55637,13.65094 -0.85781,0.82875 -2.613,4.90278 -3.90045,9.05337 -2.784,8.97539 -18.450222,24.2882 -23.223847,22.69992 -1.583295,-0.52678 -4.009198,-0.14433 -5.39089,0.84992 -1.381693,0.99424 -2.512163,1.23732 -2.512163,0.5402 z m 113.41501,-2.73984 c -2.51795,-1.93526 -8.62008,-8.87186 -13.5603,-15.41465 -4.94021,-6.54278 -9.67153,-12.13389 -10.51404,-12.42468 -1.61909,-0.55882 -2.19447,-12.95339 -0.60135,-12.95339 0.84482,0 3.30731,1.7761 14.68803,10.59385 5.71515,4.42808 22.79783,27.56736 22.79783,30.88071 0,4.11121 -7.06314,3.73527 -12.81017,-0.68184 z"
       id="path2996"
       inkscape:connector-curvature="0"
       sodipodi:nodetypes="sssssssccscssssscscccccccssssscsssscsssssssssssssssssssssssss" />
    <path
       style="fill:#999999"
       d="m 235.06418,1034.2727 c -4.13498,-1.4849 -5.98053,-3.2202 -6.06078,-5.6991 -0.0634,-1.9603 -0.63279,-14.9844 -1.26514,-28.9424 -1.25788,-27.7647 -1.31172,-32.27316 -0.77653,-65.03135 0.5379,-32.92438 -1.3252,-75.82264 -3.37001,-77.5956 -0.98468,-0.85377 -1.79033,-2.74686 -1.79033,-4.20688 0,-1.46001 -3.08703,-5.56906 -6.86006,-9.13119 -5.36569,-5.06577 -9.23519,-7.00979 -17.76318,-8.92418 -5.99672,-1.34616 -13.14618,-2.44755 -15.88771,-2.44755 -2.74154,0 -7.30205,-0.81149 -10.13443,-1.8033 -12.08337,-4.23124 -21.1702,-4.435 -30.76072,-0.68974 -22.40965,8.75139 -35.53044,13.64111 -45.733752,17.04361 -6.036858,2.0131 -11.420347,4.17982 -11.963288,4.81493 -1.632447,1.9095 -19.52862,3.26934 -20.735908,1.57563 -1.560587,-2.18937 0.797719,-3.53998 24.46712,-14.01237 11.570637,-5.11939 21.311928,-9.84328 21.647308,-10.49755 0.33537,-0.65428 1.75397,-1.1896 3.15242,-1.1896 1.39845,0 6.21435,-1.54668 10.70199,-3.43706 8.17054,-3.4418 10.71117,-7.02565 9.36984,-13.2173 -0.37797,-1.74475 -0.7502,-4.60759 -0.82719,-6.36186 -0.18401,-4.19331 -10.36606,-14.05008 -18.43347,-17.84461 -8.15277,-3.83468 -9.87534,-9.89533 -2.81251,-9.89533 11.73412,0 28.42334,11.275 35.41396,23.92516 6.02969,10.91132 10.23669,13.37148 29.59647,17.3074 33.05165,6.71953 47.23853,11.11244 56.59348,17.52397 7.86144,5.3879 9.03344,6.99112 10.12049,13.84402 0.67617,4.26276 1.21401,11.97645 1.1952,17.14153 -0.0189,5.16507 0.18304,44.89297 0.44858,88.28421 0.26552,43.39121 0.0165,79.50241 -0.55183,80.24741 -0.56905,0.7446 -3.71005,0.3931 -6.98002,-0.7809 z"
       id="path2996-2"
       inkscape:connector-curvature="0"
       sodipodi:nodetypes="ccsssssssssscsscsssssssssscscc" />
  </g>
</svg>
