<?xml version="1.0" standalone="no"?>
<!DOCTYPE svg PUBLIC "-//W3C//DTD SVG 20010904//EN"
 "http://www.w3.org/TR/2001/REC-SVG-20010904/DTD/svg10.dtd">
<svg version="1.0" xmlns="http://www.w3.org/2000/svg"
 width="468pt" height="468pt" viewBox="0 0 468 468"
 preserveAspectRatio="xMidYMid meet">
<metadata>
Created by potrace 1.8, written by Peter Selinger 2001-2007
</metadata>
<g transform="translate(0,468) scale(0.607792,-0.607792)"
fill="#000000" stroke="none">
<path d="M318 648 c-7 -13 -13 -30 -14 -38 -1 -8 -2 -24 -3 -36 0 -12 -19 -42
-42 -67 -49 -56 -44 -75 11 -47 22 11 42 20 45 20 3 0 5 -15 5 -34 0 -19 5
-38 10 -41 6 -3 10 -30 10 -59 0 -58 6 -71 27 -55 9 8 13 39 13 105 0 84 2 94
18 94 10 0 22 -4 27 -9 6 -5 25 -12 43 -16 45 -9 42 13 -6 45 -51 34 -92 80
-99 112 -9 42 -29 54 -45 26z"/>
<path d="M238 353 c-1 -21 -1 -47 -1 -58 1 -11 2 -61 3 -112 2 -63 6 -96 16
-104 9 -7 46 -9 121 -3 59 4 122 7 139 6 29 0 32 3 38 36 16 99 -2 252 -30
252 -9 0 -14 -18 -16 -57 l-3 -58 -55 -7 c-151 -18 -148 -18 -160 15 -5 17
-10 43 -10 59 0 33 -16 68 -30 68 -6 0 -11 -17 -12 -37z m270 -165 c36 -36 4
-52 -120 -63 l-88 -7 0 36 0 35 83 4 c45 1 89 4 98 5 8 1 20 -3 27 -10z"/>
</g>
</svg>
