<?xml version="1.0" standalone="no"?>
<!DOCTYPE svg PUBLIC "-//W3C//DTD SVG 20010904//EN"
 "http://www.w3.org/TR/2001/REC-SVG-20010904/DTD/svg10.dtd">
<svg version="1.0" xmlns="http://www.w3.org/2000/svg"
 width="468pt" height="468pt" viewBox="0 0 468 468"
 preserveAspectRatio="xMidYMid meet">
<metadata>
Created by potrace 1.8, written by Peter Selinger 2001-2007
</metadata>
<g transform="translate(0,468) scale(0.557143,-0.557143)"
fill="#000000" stroke="none">
<path d="M483 613 c-20 -3 -33 -10 -33 -19 0 -11 15 -14 63 -14 71 0 87 -10
87 -55 l0 -32 -54 5 c-52 4 -96 -9 -96 -28 0 -6 35 -10 80 -10 l80 0 0 -37 0
-38 -77 0 c-63 0 -78 -3 -78 -15 0 -12 16 -16 72 -18 87 -3 85 0 81 -147 -3
-98 -3 -100 -27 -100 -24 0 -24 2 -22 73 3 86 -6 102 -59 102 -47 0 -50 -7
-50 -126 0 -77 3 -94 15 -94 9 0 15 10 16 23 9 195 30 236 39 74 l5 -92 37 -9
c29 -7 42 -6 62 8 l26 16 0 248 c0 293 0 293 -83 290 -29 0 -67 -3 -84 -5z"/>
<path d="M250 601 c-46 -5 -55 -9 -55 -26 0 -18 5 -20 55 -16 110 8 105 10
108 -31 l3 -38 -68 0 c-65 0 -123 -15 -123 -32 0 -10 13 -11 143 -16 38 -2 47
-5 47 -20 0 -32 -22 -42 -91 -42 -67 0 -99 -15 -84 -40 7 -11 112 -6 158 6 15
5 17 -5 17 -108 0 -108 -7 -138 -32 -138 -4 0 -8 32 -8 71 0 95 -9 109 -69
109 -71 0 -81 -15 -81 -131 0 -104 9 -131 34 -110 12 10 16 33 16 90 0 83 15
119 44 108 13 -5 16 -21 17 -79 1 -108 7 -122 51 -126 63 -5 68 16 68 301 0
302 10 285 -150 268z"/>
</g>
</svg>
