<?xml version="1.0" encoding="UTF-8" standalone="no"?>
<!-- Created with Inkscape (http://www.inkscape.org/) -->
<svg
   xmlns:dc="http://purl.org/dc/elements/1.1/"
   xmlns:cc="http://creativecommons.org/ns#"
   xmlns:rdf="http://www.w3.org/1999/02/22-rdf-syntax-ns#"
   xmlns:svg="http://www.w3.org/2000/svg"
   xmlns="http://www.w3.org/2000/svg"
   xmlns:sodipodi="http://sodipodi.sourceforge.net/DTD/sodipodi-0.dtd"
   xmlns:inkscape="http://www.inkscape.org/namespaces/inkscape"
   width="300"
   height="300"
   id="svg2400"
   sodipodi:version="0.32"
   inkscape:version="0.46"
   version="1.0"
   sodipodi:docname="è€-bronze.svg"
   inkscape:output_extension="org.inkscape.output.svg.inkscape">
  <defs
     id="defs2402">
    <inkscape:perspective
       sodipodi:type="inkscape:persp3d"
       inkscape:vp_x="0 : 526.18109 : 1"
       inkscape:vp_y="0 : 1000 : 0"
       inkscape:vp_z="744.09448 : 526.18109 : 1"
       inkscape:persp3d-origin="372.04724 : 350.78739 : 1"
       id="perspective2408" />
    <inkscape:perspective
       id="perspective3684"
       inkscape:persp3d-origin="372.04724 : 350.78739 : 1"
       inkscape:vp_z="744.09448 : 526.18109 : 1"
       inkscape:vp_y="0 : 1000 : 0"
       inkscape:vp_x="0 : 526.18109 : 1"
       sodipodi:type="inkscape:persp3d" />
    <inkscape:perspective
       id="perspective3736"
       inkscape:persp3d-origin="372.04724 : 350.78739 : 1"
       inkscape:vp_z="744.09448 : 526.18109 : 1"
       inkscape:vp_y="0 : 1000 : 0"
       inkscape:vp_x="0 : 526.18109 : 1"
       sodipodi:type="inkscape:persp3d" />
    <inkscape:perspective
       id="perspective2478"
       inkscape:persp3d-origin="372.04724 : 350.78739 : 1"
       inkscape:vp_z="744.09448 : 526.18109 : 1"
       inkscape:vp_y="0 : 1000 : 0"
       inkscape:vp_x="0 : 526.18109 : 1"
       sodipodi:type="inkscape:persp3d" />
    <inkscape:perspective
       id="perspective2513"
       inkscape:persp3d-origin="372.04724 : 350.78739 : 1"
       inkscape:vp_z="744.09448 : 526.18109 : 1"
       inkscape:vp_y="0 : 1000 : 0"
       inkscape:vp_x="0 : 526.18109 : 1"
       sodipodi:type="inkscape:persp3d" />
    <inkscape:perspective
       id="perspective2550"
       inkscape:persp3d-origin="372.04724 : 350.78739 : 1"
       inkscape:vp_z="744.09448 : 526.18109 : 1"
       inkscape:vp_y="0 : 1000 : 0"
       inkscape:vp_x="0 : 526.18109 : 1"
       sodipodi:type="inkscape:persp3d" />
    <inkscape:perspective
       id="perspective2585"
       inkscape:persp3d-origin="372.04724 : 350.78739 : 1"
       inkscape:vp_z="744.09448 : 526.18109 : 1"
       inkscape:vp_y="0 : 1000 : 0"
       inkscape:vp_x="0 : 526.18109 : 1"
       sodipodi:type="inkscape:persp3d" />
    <inkscape:perspective
       id="perspective2620"
       inkscape:persp3d-origin="372.04724 : 350.78739 : 1"
       inkscape:vp_z="744.09448 : 526.18109 : 1"
       inkscape:vp_y="0 : 1000 : 0"
       inkscape:vp_x="0 : 526.18109 : 1"
       sodipodi:type="inkscape:persp3d" />
    <inkscape:perspective
       id="perspective2655"
       inkscape:persp3d-origin="372.04724 : 350.78739 : 1"
       inkscape:vp_z="744.09448 : 526.18109 : 1"
       inkscape:vp_y="0 : 1000 : 0"
       inkscape:vp_x="0 : 526.18109 : 1"
       sodipodi:type="inkscape:persp3d" />
    <inkscape:perspective
       id="perspective2690"
       inkscape:persp3d-origin="372.04724 : 350.78739 : 1"
       inkscape:vp_z="744.09448 : 526.18109 : 1"
       inkscape:vp_y="0 : 1000 : 0"
       inkscape:vp_x="0 : 526.18109 : 1"
       sodipodi:type="inkscape:persp3d" />
  </defs>
  <sodipodi:namedview
     id="base"
     pagecolor="#ffffff"
     bordercolor="#666666"
     borderopacity="1.0"
     gridtolerance="10000"
     guidetolerance="10"
     objecttolerance="10"
     inkscape:pageopacity="0.0"
     inkscape:pageshadow="2"
     inkscape:zoom="1.4"
     inkscape:cx="9.0598069"
     inkscape:cy="210.99213"
     inkscape:document-units="px"
     inkscape:current-layer="layer1"
     showgrid="false"
     width="300px"
     inkscape:window-width="1680"
     inkscape:window-height="979"
     inkscape:window-x="0"
     inkscape:window-y="25" />
  <metadata
     id="metadata2405">
    <rdf:RDF>
      <cc:Work
         rdf:about="">
        <dc:format>image/svg+xml</dc:format>
        <dc:type
           rdf:resource="http://purl.org/dc/dcmitype/StillImage" />
      </cc:Work>
    </rdf:RDF>
  </metadata>
  <g
     inkscape:label="Layer 1"
     inkscape:groupmode="layer"
     id="layer1">
    <path
       style="fill:#000000"
       d="M 185.3534,284.90916 C 179.17636,255.80081 176.68363,230.42726 175.0551,180.08241 C 174.14875,152.06315 176.53895,139.49823 185.22276,126.63261 C 186.96359,124.05344 189.56317,119.44297 190.99959,116.38712 L 193.61127,110.83102 L 189.86885,101.17692 C 187.81052,95.867162 185.64485,90.312832 185.05625,88.83396 C 183.481,84.876112 183.73894,84.369497 186.03455,86.91247 C 188.24319,89.359082 189.47723,91.799032 193.1025,100.88733 C 197.84785,112.78355 197.74186,113.47944 188.85046,128.80503 C 187.4125,131.28356 185.19545,137.6046 183.92369,142.8518 C 181.82024,151.5305 181.6274,156.19806 181.78855,194.53245 C 181.95883,235.03864 182.5209,246.69461 185.28829,267.10741 C 185.98655,272.25789 186.33112,278.57894 186.05401,281.15417 C 185.77691,283.72941 185.46164,285.41916 185.3534,284.90916 z M 153.75401,203.53644 C 147.91837,197.40625 142.43844,190.97451 140.4632,187.93714 C 139.38087,186.27284 137.77904,184.17879 136.90356,183.28369 C 130.602,176.84092 127.7302,159.20842 129.57845,138.30844 C 130.69903,125.63705 132.18495,128.46227 132.36832,143.61291 C 132.49431,154.02279 135.16065,171.89681 137.39625,177.31798 C 138.55336,180.12389 138.75555,180.2183 139.16661,178.14455 C 139.42184,176.85692 140.60339,173.6964 141.79227,171.12116 C 144.1625,165.98694 147.86429,156.1889 150.195,148.88045 C 152.1914,145.5453 152.38762,140.80505 154.72197,137.76009 C 156.16367,137.76009 156.2565,143.71465 154.87168,147.36217 C 154.31021,148.84104 153.18735,152.15803 152.37643,154.73327 C 151.56551,157.30851 148.58256,164.34172 145.74763,170.36261 C 142.91271,176.38352 140.87187,182.1778 141.21244,183.23882 C 141.55302,184.29983 143.02004,186.5766 144.47248,188.2983 C 145.92494,190.02001 148.43019,193.09769 150.03971,195.13759 C 151.64924,197.17749 154.4147,200.43364 156.18518,202.37344 C 159.74767,206.27668 159.98827,206.82337 158.14362,206.82337 C 157.45029,206.82337 155.47496,205.34424 153.75401,203.53644 z M 145.67409,132.4809 C 144.92017,130.55588 143.46151,123.49007 142.43261,116.77911 C 141.40371,110.06815 140.29291,104.14217 139.96417,103.61027 C 139.15834,102.3064 135.25824,102.38659 132.75801,103.75844 C 131.64009,104.37185 127.30151,105.99553 123.11675,107.36663 C 118.93198,108.73773 113.84822,110.60625 111.81949,111.51889 C 107.52338,113.45155 104.80799,113.63469 103.83326,112.05753 C 103.14618,110.94583 108.94258,107.32543 111.40952,107.32543 C 112.11641,107.32543 114.87527,106.27192 117.54034,104.9843 C 120.2054,103.69668 123.08426,102.64317 123.93778,102.64317 C 124.7913,102.64317 126.40432,102.16429 127.52224,101.57897 C 133.92931,98.224446 145.72752,93.278662 147.3227,93.278662 C 153.28534,92.878055 156.95792,96.961726 161.74536,99.131476 C 164.85288,101.52612 168.52462,103.22414 171.62358,105.66523 C 172.55756,106.59921 176.08486,108.80341 179.46204,110.56345 C 186.01476,113.97846 188.08457,116.68994 184.13869,116.68994 C 180.24848,116.68994 169.19792,111.91389 165.33361,108.56239 C 161.29565,105.06029 159.73044,105.55658 157.23669,111.12976 C 156.01237,113.86595 153.79552,118.73842 152.31036,121.95748 C 150.82522,125.17653 149.03291,129.64869 148.32746,131.89562 L 147.04483,135.98095 L 145.67409,132.4809 z M 152.42151,113.30269 C 157.21276,103.93425 157.34547,103.40352 155.27519,101.88969 C 153.53297,100.61574 141.84522,99.488666 141.84597,100.59469 C 141.84664,101.58262 145.52754,119.99811 146.0751,121.75305 C 146.89937,124.3948 146.42722,125.02348 152.42151,113.30269 z M 139.966,85.786131 C 131.00824,80.709396 126.53472,72.130654 127.54804,61.97259 C 128.12015,56.237462 130.14013,56.402865 130.14013,62.18484 C 130.14013,70.73317 136.94795,80.591613 143.89425,82.102256 L 147.69859,82.929595 L 147.69859,75.784226 C 147.69859,69.453047 147.39849,68.524096 145.06482,67.631614 C 139.20352,65.390029 134.82239,57.208399 134.82239,48.504187 C 134.82239,45.060022 135.29801,41.741652 135.87933,41.130032 C 136.46065,40.518412 137.17951,38.964489 137.4768,37.676869 C 137.77408,36.389248 137.75759,39.050086 137.44014,43.589841 C 136.75608,53.372142 138.65331,58.152181 144.3475,60.992816 C 146.38842,62.010963 148.46045,62.843994 148.952,62.843994 C 150.0981,62.843994 152.54036,52.13762 152.97015,45.229238 C 153.43252,37.797143 148.10313,27.10177 140.4811,20.165345 C 134.21459,14.462522 134.06667,13.65036 139.88624,16.899358 C 146.08991,20.362786 153.28701,27.713098 155.88373,33.237372 C 158.83724,39.520692 159.20329,50.077486 156.64649,55.235328 C 153.8179,60.941454 153.76333,63.483113 156.47782,63.091688 C 160.19492,62.555686 167.10407,54.08976 170.30939,46.143562 C 173.90505,37.229687 175.72633,39.369087 172.87934,49.162397 C 170.11215,58.681164 166.30366,63.205981 157.50961,67.422924 C 152.60936,69.772707 151.25719,72.125039 151.22627,78.353966 C 151.21335,80.955572 151.73709,81.573014 153.95685,81.573014 C 160.37428,81.573014 172.5714,71.790071 175.76419,64.081986 C 177.31872,60.329031 179.30381,59.286531 179.30381,62.223107 C 179.30381,65.571821 174.46184,72.863178 168.72131,78.158933 C 163.40162,83.066459 160.83483,84.721186 154.13669,87.561118 C 150.38199,89.153071 144.63721,88.433499 139.966,85.786131 z"
       id="path2696"
       sodipodi:nodetypes="csscccssssssssccsssssssccssssssssccsssssssssscccsssssccccsssccsscccssssssssssssssssssssssc" />
  </g>
</svg>
