<?xml version="1.0" encoding="UTF-8" standalone="no"?>
<!-- Created with Inkscape (http://www.inkscape.org/) -->
<svg
   xmlns:dc="http://purl.org/dc/elements/1.1/"
   xmlns:cc="http://creativecommons.org/ns#"
   xmlns:rdf="http://www.w3.org/1999/02/22-rdf-syntax-ns#"
   xmlns:svg="http://www.w3.org/2000/svg"
   xmlns="http://www.w3.org/2000/svg"
   xmlns:sodipodi="http://sodipodi.sourceforge.net/DTD/sodipodi-0.dtd"
   xmlns:inkscape="http://www.inkscape.org/namespaces/inkscape"
   width="300"
   height="300"
   id="svg2400"
   sodipodi:version="0.32"
   inkscape:version="0.46"
   version="1.0"
   sodipodi:docname="è€-seal.svg"
   inkscape:output_extension="org.inkscape.output.svg.inkscape">
  <defs
     id="defs2402">
    <inkscape:perspective
       sodipodi:type="inkscape:persp3d"
       inkscape:vp_x="0 : 526.18109 : 1"
       inkscape:vp_y="0 : 1000 : 0"
       inkscape:vp_z="744.09448 : 526.18109 : 1"
       inkscape:persp3d-origin="372.04724 : 350.78739 : 1"
       id="perspective2408" />
    <inkscape:perspective
       id="perspective3684"
       inkscape:persp3d-origin="372.04724 : 350.78739 : 1"
       inkscape:vp_z="744.09448 : 526.18109 : 1"
       inkscape:vp_y="0 : 1000 : 0"
       inkscape:vp_x="0 : 526.18109 : 1"
       sodipodi:type="inkscape:persp3d" />
    <inkscape:perspective
       id="perspective3736"
       inkscape:persp3d-origin="372.04724 : 350.78739 : 1"
       inkscape:vp_z="744.09448 : 526.18109 : 1"
       inkscape:vp_y="0 : 1000 : 0"
       inkscape:vp_x="0 : 526.18109 : 1"
       sodipodi:type="inkscape:persp3d" />
    <inkscape:perspective
       id="perspective2478"
       inkscape:persp3d-origin="372.04724 : 350.78739 : 1"
       inkscape:vp_z="744.09448 : 526.18109 : 1"
       inkscape:vp_y="0 : 1000 : 0"
       inkscape:vp_x="0 : 526.18109 : 1"
       sodipodi:type="inkscape:persp3d" />
    <inkscape:perspective
       id="perspective2513"
       inkscape:persp3d-origin="372.04724 : 350.78739 : 1"
       inkscape:vp_z="744.09448 : 526.18109 : 1"
       inkscape:vp_y="0 : 1000 : 0"
       inkscape:vp_x="0 : 526.18109 : 1"
       sodipodi:type="inkscape:persp3d" />
    <inkscape:perspective
       id="perspective2550"
       inkscape:persp3d-origin="372.04724 : 350.78739 : 1"
       inkscape:vp_z="744.09448 : 526.18109 : 1"
       inkscape:vp_y="0 : 1000 : 0"
       inkscape:vp_x="0 : 526.18109 : 1"
       sodipodi:type="inkscape:persp3d" />
    <inkscape:perspective
       id="perspective2585"
       inkscape:persp3d-origin="372.04724 : 350.78739 : 1"
       inkscape:vp_z="744.09448 : 526.18109 : 1"
       inkscape:vp_y="0 : 1000 : 0"
       inkscape:vp_x="0 : 526.18109 : 1"
       sodipodi:type="inkscape:persp3d" />
    <inkscape:perspective
       id="perspective2620"
       inkscape:persp3d-origin="372.04724 : 350.78739 : 1"
       inkscape:vp_z="744.09448 : 526.18109 : 1"
       inkscape:vp_y="0 : 1000 : 0"
       inkscape:vp_x="0 : 526.18109 : 1"
       sodipodi:type="inkscape:persp3d" />
    <inkscape:perspective
       id="perspective2655"
       inkscape:persp3d-origin="372.04724 : 350.78739 : 1"
       inkscape:vp_z="744.09448 : 526.18109 : 1"
       inkscape:vp_y="0 : 1000 : 0"
       inkscape:vp_x="0 : 526.18109 : 1"
       sodipodi:type="inkscape:persp3d" />
    <inkscape:perspective
       id="perspective2690"
       inkscape:persp3d-origin="372.04724 : 350.78739 : 1"
       inkscape:vp_z="744.09448 : 526.18109 : 1"
       inkscape:vp_y="0 : 1000 : 0"
       inkscape:vp_x="0 : 526.18109 : 1"
       sodipodi:type="inkscape:persp3d" />
    <inkscape:perspective
       id="perspective2725"
       inkscape:persp3d-origin="372.04724 : 350.78739 : 1"
       inkscape:vp_z="744.09448 : 526.18109 : 1"
       inkscape:vp_y="0 : 1000 : 0"
       inkscape:vp_x="0 : 526.18109 : 1"
       sodipodi:type="inkscape:persp3d" />
  </defs>
  <sodipodi:namedview
     id="base"
     pagecolor="#ffffff"
     bordercolor="#666666"
     borderopacity="1.0"
     gridtolerance="10000"
     guidetolerance="10"
     objecttolerance="10"
     inkscape:pageopacity="0.0"
     inkscape:pageshadow="2"
     inkscape:zoom="1.4"
     inkscape:cx="9.0598069"
     inkscape:cy="210.99213"
     inkscape:document-units="px"
     inkscape:current-layer="layer1"
     showgrid="false"
     width="300px"
     inkscape:window-width="1680"
     inkscape:window-height="979"
     inkscape:window-x="0"
     inkscape:window-y="25" />
  <metadata
     id="metadata2405">
    <rdf:RDF>
      <cc:Work
         rdf:about="">
        <dc:format>image/svg+xml</dc:format>
        <dc:type
           rdf:resource="http://purl.org/dc/dcmitype/StillImage" />
      </cc:Work>
    </rdf:RDF>
  </metadata>
  <g
     inkscape:label="Layer 1"
     inkscape:groupmode="layer"
     id="layer1">
    <path
       style="fill:#000000"
       d="M 216.63942,275.83539 C 207.10874,262.52432 201.0091,247.74153 194.46536,232.81852 C 192.20892,231.42398 192.5903,200.99514 195.31759,164.82127 L 197.08952,141.31908 L 190.38328,138.63814 C 182.35315,135.42795 168.80548,135.32886 145.19379,138.3076 C 118.62545,141.65934 75.783798,142.00343 72.670448,138.89008 C 67.616008,133.83563 73.181128,130.94745 87.678538,131.10118 C 95.580588,131.18498 110.96703,130.45022 121.87062,129.46838 L 141.69531,127.68321 L 141.69531,119.5201 L 141.69531,111.35699 L 125.3691,109.43406 C 101.08391,106.57371 99.243008,106.00973 92.640688,99.407411 C 86.226078,95.956657 80.363548,72.146794 79.888898,63.544472 C 79.888898,49.571333 90.458238,59.276142 93.609228,76.142525 C 96.587038,92.082018 105.6288,97.659926 129.45065,98.253289 C 140.13084,98.519316 140.52916,98.291131 140.52916,91.906656 C 140.52916,85.433829 133.65922,79.870696 125.6659,79.870696 C 120.64614,79.870696 112.58001,69.490279 107.77657,56.848663 C 102.11844,41.957673 102.03982,37.888977 107.41025,37.888977 C 113.12602,37.888977 117.20598,42.408946 117.20598,48.741128 C 117.20598,57.370484 122.15979,65.613812 129.22495,68.741153 C 135.95863,71.41769 138.28777,80.958221 143.66835,69.958346 C 145.09298,64.262548 143.67219,39.452911 141.53591,32.722124 C 139.95851,27.752125 132.12267,27.352116 114.77656,31.35608 C 103.73134,33.905622 102.37669,33.762285 99.429808,29.732199 C 93.807568,22.043318 99.600498,19.910781 138.33257,15.411027 C 154.00489,13.590282 155.76061,16.784614 155.37722,46.422009 L 155.06521,70.541425 L 163.56238,70.541425 C 173.83771,70.541425 177.72457,65.461072 179.3922,49.850928 C 180.7148,37.470618 182.48143,34.796764 187.95167,36.895895 C 190.85569,38.010273 191.84015,41.306585 191.84015,49.915921 C 191.84015,69.638168 185.64811,76.895797 165.01849,81.353348 C 156.69725,83.151362 155.61026,84.188194 154.95837,90.949205 C 154.30812,97.693276 154.87722,98.529237 160.1186,98.529237 C 167.28279,98.529237 191.61289,89.807124 196.65374,85.431732 C 198.65983,83.690472 201.65998,75.42965 203.32075,67.074347 C 205.76197,54.792616 207.1853,51.882883 210.75183,51.882883 C 214.4199,51.882883 215.16332,53.636838 215.16332,62.290821 C 215.16332,76.24995 207.17867,97.072682 200.56119,100.37094 C 192.65492,104.31153 177.65686,107.82667 168.51697,107.88122 C 164.02726,107.90801 159.18692,108.70103 157.76066,109.64346 C 154.22342,111.98079 152.31984,126.45306 155.51009,126.75383 C 156.89139,126.88406 167.7256,127.24235 179.58612,127.55004 C 212.27552,128.39807 214.04285,131.44523 206.04139,173.16341 C 201.43494,197.18056 200.31713,221.45071 203.46715,229.05553 C 206.29741,248.91697 221.14938,262.9613 229.15723,280.81162 C 229.15723,288.02926 223.12095,285.62965 216.63942,275.83539 z M 124.09916,235.30836 C 115.15073,232.41731 107.70026,226.23934 103.56398,218.28042 C 98.195138,207.94984 98.851948,162.73707 104.51666,152.70073 C 104.71471,152.34984 106.60128,152.72451 108.70905,153.53334 C 111.52285,154.61309 112.54135,157.96099 112.54135,166.1304 C 112.54135,179.22013 116.06621,183.14214 127.00087,182.21911 C 138.69723,181.23178 140.52916,178.72215 140.52916,163.6862 C 140.52916,141.78979 148.50985,141.86326 151.97625,163.79158 C 155.90004,188.6133 149.10766,194.66736 115.45675,196.34155 C 113.63745,196.43205 112.54135,199.97392 112.54135,205.76209 C 112.54135,212.87718 113.79544,215.85931 117.92566,218.56554 C 124.24204,222.70419 143.56171,226.69315 158.8782,227.02108 C 173.96182,227.34401 177.84624,228.76519 177.84624,233.96085 C 177.84624,238.12443 176.11142,238.44965 155.10615,238.22376 C 142.59909,238.08925 128.64595,236.77732 124.09916,235.30836 z"
       id="path2731"
       sodipodi:nodetypes="cccccssscccccccsssssssccsssscccssssssssssssssssccccsssssssssssssc" />
  </g>
</svg>
