<?xml version="1.0" encoding="UTF-8" standalone="no"?>
<!-- Created with Inkscape (http://www.inkscape.org/) -->
<svg
   xmlns:dc="http://purl.org/dc/elements/1.1/"
   xmlns:cc="http://creativecommons.org/ns#"
   xmlns:rdf="http://www.w3.org/1999/02/22-rdf-syntax-ns#"
   xmlns:svg="http://www.w3.org/2000/svg"
   xmlns="http://www.w3.org/2000/svg"
   xmlns:sodipodi="http://sodipodi.sourceforge.net/DTD/sodipodi-0.dtd"
   xmlns:inkscape="http://www.inkscape.org/namespaces/inkscape"
   width="300"
   height="300"
   id="svg2400"
   sodipodi:version="0.32"
   inkscape:version="0.46"
   version="1.0"
   sodipodi:docname="è€-oracle.svg"
   inkscape:output_extension="org.inkscape.output.svg.inkscape">
  <defs
     id="defs2402">
    <inkscape:perspective
       sodipodi:type="inkscape:persp3d"
       inkscape:vp_x="0 : 526.18109 : 1"
       inkscape:vp_y="0 : 1000 : 0"
       inkscape:vp_z="744.09448 : 526.18109 : 1"
       inkscape:persp3d-origin="372.04724 : 350.78739 : 1"
       id="perspective2408" />
    <inkscape:perspective
       id="perspective3684"
       inkscape:persp3d-origin="372.04724 : 350.78739 : 1"
       inkscape:vp_z="744.09448 : 526.18109 : 1"
       inkscape:vp_y="0 : 1000 : 0"
       inkscape:vp_x="0 : 526.18109 : 1"
       sodipodi:type="inkscape:persp3d" />
    <inkscape:perspective
       id="perspective3736"
       inkscape:persp3d-origin="372.04724 : 350.78739 : 1"
       inkscape:vp_z="744.09448 : 526.18109 : 1"
       inkscape:vp_y="0 : 1000 : 0"
       inkscape:vp_x="0 : 526.18109 : 1"
       sodipodi:type="inkscape:persp3d" />
    <inkscape:perspective
       id="perspective2478"
       inkscape:persp3d-origin="372.04724 : 350.78739 : 1"
       inkscape:vp_z="744.09448 : 526.18109 : 1"
       inkscape:vp_y="0 : 1000 : 0"
       inkscape:vp_x="0 : 526.18109 : 1"
       sodipodi:type="inkscape:persp3d" />
    <inkscape:perspective
       id="perspective2513"
       inkscape:persp3d-origin="372.04724 : 350.78739 : 1"
       inkscape:vp_z="744.09448 : 526.18109 : 1"
       inkscape:vp_y="0 : 1000 : 0"
       inkscape:vp_x="0 : 526.18109 : 1"
       sodipodi:type="inkscape:persp3d" />
    <inkscape:perspective
       id="perspective2550"
       inkscape:persp3d-origin="372.04724 : 350.78739 : 1"
       inkscape:vp_z="744.09448 : 526.18109 : 1"
       inkscape:vp_y="0 : 1000 : 0"
       inkscape:vp_x="0 : 526.18109 : 1"
       sodipodi:type="inkscape:persp3d" />
    <inkscape:perspective
       id="perspective2585"
       inkscape:persp3d-origin="372.04724 : 350.78739 : 1"
       inkscape:vp_z="744.09448 : 526.18109 : 1"
       inkscape:vp_y="0 : 1000 : 0"
       inkscape:vp_x="0 : 526.18109 : 1"
       sodipodi:type="inkscape:persp3d" />
    <inkscape:perspective
       id="perspective2620"
       inkscape:persp3d-origin="372.04724 : 350.78739 : 1"
       inkscape:vp_z="744.09448 : 526.18109 : 1"
       inkscape:vp_y="0 : 1000 : 0"
       inkscape:vp_x="0 : 526.18109 : 1"
       sodipodi:type="inkscape:persp3d" />
    <inkscape:perspective
       id="perspective2655"
       inkscape:persp3d-origin="372.04724 : 350.78739 : 1"
       inkscape:vp_z="744.09448 : 526.18109 : 1"
       inkscape:vp_y="0 : 1000 : 0"
       inkscape:vp_x="0 : 526.18109 : 1"
       sodipodi:type="inkscape:persp3d" />
  </defs>
  <sodipodi:namedview
     id="base"
     pagecolor="#ffffff"
     bordercolor="#666666"
     borderopacity="1.0"
     gridtolerance="10000"
     guidetolerance="10"
     objecttolerance="10"
     inkscape:pageopacity="0.0"
     inkscape:pageshadow="2"
     inkscape:zoom="1.4"
     inkscape:cx="96.988258"
     inkscape:cy="94.794366"
     inkscape:document-units="px"
     inkscape:current-layer="layer1"
     showgrid="false"
     width="300px"
     inkscape:window-width="1680"
     inkscape:window-height="979"
     inkscape:window-x="0"
     inkscape:window-y="25" />
  <metadata
     id="metadata2405">
    <rdf:RDF>
      <cc:Work
         rdf:about="">
        <dc:format>image/svg+xml</dc:format>
        <dc:type
           rdf:resource="http://purl.org/dc/dcmitype/StillImage" />
      </cc:Work>
    </rdf:RDF>
  </metadata>
  <g
     inkscape:label="Layer 1"
     inkscape:groupmode="layer"
     id="layer1">
    <path
       style="fill:#000000"
       d="M 182.48154,253.42528 C 183.96715,218.60306 187.60297,182.94618 190.49018,174.88353 C 194.58116,163.45934 194.99883,155.36881 191.67442,151.94465 C 189.69377,149.90459 184.99495,143.81747 181.23259,138.41772 C 177.47023,133.01797 171.83152,125.8296 168.70213,122.44356 L 163.01233,116.2871 L 152.82218,125.68628 C 141.52058,136.11064 141.66705,132.13065 150.945,176.69414 C 154.02791,191.50194 152.38066,205.73921 147.58449,205.73921 C 146.10049,205.73921 144.14377,202.26796 143.23621,198.0253 C 142.32865,193.78263 140.4614,187.52207 139.08677,184.11293 C 137.71213,180.70378 135.73969,171.52393 134.70358,163.71326 C 132.5924,147.79843 130.77866,145.4806 124.30853,150.42909 C 120.37135,153.44033 120.14694,158.5888 122.41663,193.8353 C 124.06443,219.4243 124.00904,236.40978 122.26282,241.00269 C 120.7619,244.95041 119.53387,251.13461 119.53387,254.74533 C 119.53387,262.03134 108.57637,284.28095 104.98815,284.28095 C 101.76983,284.28095 102.15056,279.33518 105.9096,272.31136 C 107.86906,268.65005 109.43155,246.90787 109.92801,216.39452 L 110.74032,166.46835 L 101.11178,166.46835 C 94.423125,166.46835 91.483245,165.18364 91.483245,162.26075 C 91.483245,159.94658 92.442855,158.05316 93.615705,158.05316 C 94.788555,158.05316 98.890965,155.17718 102.73216,151.6621 C 106.57336,148.14701 114.13412,142.19366 119.53387,138.43243 C 134.7071,127.86341 152.88012,110.16685 154.81238,104.07884 C 156.0245,100.25976 154.00193,95.892209 148.17666,89.749642 C 143.56805,84.890011 137.76264,76.874232 135.27574,71.936798 C 130.70896,62.869979 128.94607,37.435488 132.88443,37.435488 C 136.24452,37.435488 141.07224,46.551026 143.3324,57.162994 C 145.40617,66.899804 151.98056,76.706358 156.43443,76.706358 C 161.7727,76.706358 156.32802,42.637047 150.15846,37.435488 C 149.24352,36.664096 147.80215,33.508402 146.95542,30.422833 C 146.10869,27.337265 144.50652,22.603722 143.39503,19.90385 C 141.89695,16.264893 142.72168,14.99629 146.58311,15.000006 C 154.80957,15.007928 167.33983,37.474864 169.20686,55.5647 C 170.08851,64.107042 171.71122,71.096234 172.81288,71.096234 C 173.91455,71.096234 178.2964,67.870629 182.55032,63.928222 C 186.80425,59.985815 190.94531,57.420784 191.75267,58.228154 C 193.52967,60.00515 186.90428,76.698427 184.41125,76.725525 C 183.44134,76.736067 179.82054,80.897744 176.36505,85.973697 C 170.73601,94.242501 170.44417,96.206138 173.55999,104.84726 C 177.48782,115.74028 180.38259,119.8178 197.71389,138.86988 C 207.34463,149.45682 209.57366,153.71243 208.10435,158.70706 C 199.11399,189.26817 196.76364,203.4183 190.90946,262.22804 C 190.04358,270.9265 187.45649,280.39359 185.16039,283.266 C 181.42621,287.93739 181.14351,284.78816 182.48154,253.42528 z"
       id="path2661" />
  </g>
</svg>
