<?xml version="1.0" encoding="UTF-8" standalone="no"?>
<!-- Created with Inkscape (http://www.inkscape.org/) -->

<svg
   xmlns:dc="http://purl.org/dc/elements/1.1/"
   xmlns:cc="http://creativecommons.org/ns#"
   xmlns:rdf="http://www.w3.org/1999/02/22-rdf-syntax-ns#"
   xmlns:svg="http://www.w3.org/2000/svg"
   xmlns="http://www.w3.org/2000/svg"
   xmlns:sodipodi="http://sodipodi.sourceforge.net/DTD/sodipodi-0.dtd"
   xmlns:inkscape="http://www.inkscape.org/namespaces/inkscape"
   width="300"
   height="300"
   id="svg2400"
   sodipodi:version="0.32"
   inkscape:version="0.47 r22583"
   version="1.0"
   sodipodi:docname="drawing.svg"
   inkscape:output_extension="org.inkscape.output.svg.inkscape">
  <defs
     id="defs2402">
    <inkscape:perspective
       sodipodi:type="inkscape:persp3d"
       inkscape:vp_x="0 : 526.18109 : 1"
       inkscape:vp_y="0 : 1000 : 0"
       inkscape:vp_z="744.09448 : 526.18109 : 1"
       inkscape:persp3d-origin="372.04724 : 350.78739 : 1"
       id="perspective2408" />
    <inkscape:perspective
       id="perspective3684"
       inkscape:persp3d-origin="372.04724 : 350.78739 : 1"
       inkscape:vp_z="744.09448 : 526.18109 : 1"
       inkscape:vp_y="0 : 1000 : 0"
       inkscape:vp_x="0 : 526.18109 : 1"
       sodipodi:type="inkscape:persp3d" />
    <inkscape:perspective
       id="perspective3736"
       inkscape:persp3d-origin="372.04724 : 350.78739 : 1"
       inkscape:vp_z="744.09448 : 526.18109 : 1"
       inkscape:vp_y="0 : 1000 : 0"
       inkscape:vp_x="0 : 526.18109 : 1"
       sodipodi:type="inkscape:persp3d" />
    <inkscape:perspective
       id="perspective3000"
       inkscape:persp3d-origin="0.5 : 0.33333333 : 1"
       inkscape:vp_z="1 : 0.5 : 1"
       inkscape:vp_y="0 : 1000 : 0"
       inkscape:vp_x="0 : 0.5 : 1"
       sodipodi:type="inkscape:persp3d" />
    <inkscape:perspective
       id="perspective3084"
       inkscape:persp3d-origin="0.5 : 0.33333333 : 1"
       inkscape:vp_z="1 : 0.5 : 1"
       inkscape:vp_y="0 : 1000 : 0"
       inkscape:vp_x="0 : 0.5 : 1"
       sodipodi:type="inkscape:persp3d" />
    <inkscape:perspective
       id="perspective3170"
       inkscape:persp3d-origin="0.5 : 0.33333333 : 1"
       inkscape:vp_z="1 : 0.5 : 1"
       inkscape:vp_y="0 : 1000 : 0"
       inkscape:vp_x="0 : 0.5 : 1"
       sodipodi:type="inkscape:persp3d" />
    <inkscape:perspective
       id="perspective3212"
       inkscape:persp3d-origin="0.5 : 0.33333333 : 1"
       inkscape:vp_z="1 : 0.5 : 1"
       inkscape:vp_y="0 : 1000 : 0"
       inkscape:vp_x="0 : 0.5 : 1"
       sodipodi:type="inkscape:persp3d" />
    <inkscape:perspective
       id="perspective3234"
       inkscape:persp3d-origin="0.5 : 0.33333333 : 1"
       inkscape:vp_z="1 : 0.5 : 1"
       inkscape:vp_y="0 : 1000 : 0"
       inkscape:vp_x="0 : 0.5 : 1"
       sodipodi:type="inkscape:persp3d" />
    <inkscape:perspective
       id="perspective3256"
       inkscape:persp3d-origin="0.5 : 0.33333333 : 1"
       inkscape:vp_z="1 : 0.5 : 1"
       inkscape:vp_y="0 : 1000 : 0"
       inkscape:vp_x="0 : 0.5 : 1"
       sodipodi:type="inkscape:persp3d" />
    <inkscape:perspective
       id="perspective3350"
       inkscape:persp3d-origin="0.5 : 0.33333333 : 1"
       inkscape:vp_z="1 : 0.5 : 1"
       inkscape:vp_y="0 : 1000 : 0"
       inkscape:vp_x="0 : 0.5 : 1"
       sodipodi:type="inkscape:persp3d" />
    <inkscape:perspective
       id="perspective3379"
       inkscape:persp3d-origin="0.5 : 0.33333333 : 1"
       inkscape:vp_z="1 : 0.5 : 1"
       inkscape:vp_y="0 : 1000 : 0"
       inkscape:vp_x="0 : 0.5 : 1"
       sodipodi:type="inkscape:persp3d" />
    <inkscape:perspective
       id="perspective4225"
       inkscape:persp3d-origin="0.5 : 0.33333333 : 1"
       inkscape:vp_z="1 : 0.5 : 1"
       inkscape:vp_y="0 : 1000 : 0"
       inkscape:vp_x="0 : 0.5 : 1"
       sodipodi:type="inkscape:persp3d" />
    <inkscape:perspective
       id="perspective4248"
       inkscape:persp3d-origin="0.5 : 0.33333333 : 1"
       inkscape:vp_z="1 : 0.5 : 1"
       inkscape:vp_y="0 : 1000 : 0"
       inkscape:vp_x="0 : 0.5 : 1"
       sodipodi:type="inkscape:persp3d" />
    <inkscape:perspective
       id="perspective4391"
       inkscape:persp3d-origin="0.5 : 0.33333333 : 1"
       inkscape:vp_z="1 : 0.5 : 1"
       inkscape:vp_y="0 : 1000 : 0"
       inkscape:vp_x="0 : 0.5 : 1"
       sodipodi:type="inkscape:persp3d" />
    <inkscape:perspective
       id="perspective4836"
       inkscape:persp3d-origin="0.5 : 0.33333333 : 1"
       inkscape:vp_z="1 : 0.5 : 1"
       inkscape:vp_y="0 : 1000 : 0"
       inkscape:vp_x="0 : 0.5 : 1"
       sodipodi:type="inkscape:persp3d" />
  </defs>
  <sodipodi:namedview
     id="base"
     pagecolor="#ffffff"
     bordercolor="#666666"
     borderopacity="1.0"
     gridtolerance="10000"
     guidetolerance="10"
     objecttolerance="10"
     inkscape:pageopacity="0.0"
     inkscape:pageshadow="2"
     inkscape:zoom="1.4"
     inkscape:cx="167.14626"
     inkscape:cy="191.03428"
     inkscape:document-units="px"
     inkscape:current-layer="layer1"
     showgrid="false"
     width="300px"
     inkscape:window-width="1280"
     inkscape:window-height="953"
     inkscape:window-x="0"
     inkscape:window-y="48" />
  <metadata
     id="metadata2405">
    <rdf:RDF>
      <cc:Work
         rdf:about="">
        <dc:format>image/svg+xml</dc:format>
        <dc:type
           rdf:resource="http://purl.org/dc/dcmitype/StillImage" />
        <dc:title></dc:title>
      </cc:Work>
    </rdf:RDF>
  </metadata>
  <g
     inkscape:label="Layer 1"
     inkscape:groupmode="layer"
     id="layer1"
     style="display:inline">
    <path
       style="fill:#000000;display:inline"
       d="m 126.98434,15.015596 c -7.07836,0.171662 -13.87575,1.743036 -16.1928,4.611654 0.0672,0.09376 -1.5033,2.137477 0.20805,4.33426 1.57581,2.022803 2.2063,1.034154 4.61165,2.184467 8.0949,1.371984 20.88351,13.22768 18.0652,17.787804 -3.45205,5.585524 -14.32261,5.510972 -19.97227,-0.138696 -3.49697,-3.406981 -4.05465,-10.448039 -8.98059,-17.267693 -0.90088,-1.247212 -0.23539,-1.220183 -4.681,-1.699029 -10.116204,-1.089654 -11.196454,11.188709 -2.253824,25.693494 5.034304,8.165553 10.988734,12.279619 20.388364,14.043004 8.02016,1.504589 13.28018,4.623914 13.28018,7.871017 0,8.943084 -38.723644,7.323544 -48.058284,-2.011097 -4.06842,-4.068418 -7.42026,-9.671018 -7.42026,-12.447996 0,-7.297702 -14.77462,-24.987187 -18.79335,-22.50348 -6.04342,3.735037 -3.62238,19.945487 5.72122,38.384211 9.06219,17.88335 9.26313,17.986739 31.4494,20.561731 24.791884,2.877383 28.165164,7.920423 11.754514,17.614433 -5.81784,3.43668 -16.402544,12.69569 -23.509034,20.56173 -12.835,14.20683 -12.95054,14.60123 -14.87518,56.51877 -1.06563,23.20892 -4.7828,51.93488 -8.2871,63.83498 -4.47913,15.21049 -5.21184,22.77016 -2.46186,25.52013 12.97563,12.97562 30.0971,-35.89426 30.0971,-85.88771 0,-26.92049 1.47794,-37.5374 6.10264,-44.1401 l 3.05132,-4.3516 C 106.58417,133.97112 118.0158,125.72971 128.99549,116.92272 l 17.89183,-13.62691 27.21914,14.00833 c 16.08476,8.2801 28.83691,17.52396 31.13733,22.57284 2.14265,4.70258 3.88351,28.4978 3.88351,52.87797 0,48.45097 4.06426,64.05647 21.25521,82.00421 9.176,9.57995 15.74204,12.90787 15.74204,7.97504 0,-1.20554 -4.36166,-14.51509 -9.70875,-29.57699 -8.8881,-25.03641 -9.58387,-30.95097 -7.97504,-69.00143 0.96788,-22.89116 0.17958,-46.27451 -1.76837,-51.94179 -3.62615,-10.54978 -18.23315,-19.84756 -44.34817,-28.29404 -7.6283,-2.46726 -13.86963,-5.900967 -13.86963,-7.628302 0,-1.727313 9.19933,-7.363089 20.45771,-12.517344 21.47053,-9.829521 31.31071,-23.88483 31.31071,-44.694894 0,-15.331325 -9.04251,-10.673926 -17.30238,8.876565 -6.69681,15.850861 -9.7004,18.778752 -23.05827,22.780873 -21.51099,6.444853 -27.59941,-0.268793 -9.77809,-10.78364 15.47512,-9.130546 28.06422,-31.609882 21.42858,-38.245513 -4.85325,-4.853251 -15.67268,1.868517 -15.67268,9.743416 0,2.486959 -3.48017,7.663661 -7.73232,11.511796 -7.58658,6.865779 -7.81714,6.858245 -12.93342,-0.138696 -2.86759,-3.921667 -5.20112,-9.79934 -5.20112,-13.07213 0,-3.272778 -1.99722,-7.926494 -4.43828,-10.36755 -3.12415,-3.124151 -11.00038,-4.552047 -18.55063,-4.368935 l -6e-5,0 z M 104.80283,137.61816 c -2.82701,3.44979 4.86755,13.84347 5.05018,20.93075 0.12911,5.01049 -0.60815,10.47184 0.3986,22.09482 0.15431,27.21739 5.53392,36.02303 27.4817,39.53837 20.13443,3.22491 25.02242,6.76775 26.24828,18.89737 2.05085,20.29291 4.28901,22.69189 12.13592,13.07213 3.91729,-4.80233 7.14286,-12.56359 7.14286,-17.26769 0,-12.88653 -17.20858,-31.3107 -29.23024,-31.3107 -5.53301,0 -13.15033,-2.27058 -16.92096,-5.02774 -10.77639,-7.87988 -4.50776,-16.33744 14.1817,-19.14009 22.30681,-3.34512 32.83536,-14.67085 31.27601,-33.66854 l -1.17891,-14.28573 -6.48406,11.89322 c -8.26366,15.1174 -13.11596,22.47581 -32.93542,19.26393 -9.62631,-2.1143 -15.42257,-4.48261 -20.91342,-12.08146 -2.69095,-3.96964 -10.59523,-15.61233 -16.25224,-12.90864 z"
       id="path3356-6"
       sodipodi:nodetypes="ccscscsssssssssssssssscccccsssssssssssssssssssscccscssssscccscccc" />
  </g>
  <g
     inkscape:groupmode="layer"
     id="layer2"
     inkscape:label="Layer2"
     style="display:inline" />
</svg>
