<?xml version="1.0" standalone="no"?>
<!DOCTYPE svg PUBLIC "-//W3C//DTD SVG 20010904//EN"
 "http://www.w3.org/TR/2001/REC-SVG-20010904/DTD/svg10.dtd">
<svg version="1.0" xmlns="http://www.w3.org/2000/svg"
 width="468pt" height="468pt" viewBox="0 0 468 468"
 preserveAspectRatio="xMidYMid meet">
<metadata>
Created by potrace 1.8, written by Peter Selinger 2001-2007
</metadata>
<g transform="translate(0,468) scale(0.362791,-0.362791)"
fill="#000000" stroke="none">
<path d="M541 1248 c-8 -14 -10 -47 -5 -119 l7 -99 -65 0 c-75 0 -116 -20 -86
-43 9 -7 47 -19 83 -27 37 -8 69 -19 70 -25 2 -5 5 -36 8 -68 l4 -58 -46 1
c-72 3 -81 1 -81 -14 0 -17 43 -46 69 -46 11 0 31 -5 44 -11 22 -10 24 -17 24
-71 l0 -60 -55 7 c-30 4 -61 9 -69 12 -18 7 -18 -51 1 -66 8 -7 37 -16 65 -20
28 -4 53 -10 56 -13 10 -10 15 -187 6 -210 -5 -14 -20 -36 -33 -49 -13 -13
-34 -40 -48 -59 -13 -19 -39 -51 -57 -70 -33 -35 -40 -70 -16 -78 7 -2 46 31
87 72 41 42 77 76 80 76 3 0 6 -24 6 -52 0 -103 35 -165 68 -121 10 13 13 39
9 95 -3 43 -2 78 1 78 4 0 19 -10 34 -23 52 -42 119 -79 133 -73 25 9 17 44
-15 63 -16 9 -30 21 -30 25 0 4 -6 8 -13 8 -15 0 -90 75 -106 108 -7 12 -15
61 -18 108 l-6 86 44 -5 c24 -3 70 -9 101 -13 68 -8 63 3 98 -204 13 -82 40
-124 62 -102 8 8 8 33 0 84 -6 40 -14 93 -17 118 -3 25 -9 65 -15 90 -5 25
-11 74 -14 110 -3 36 -13 120 -23 188 -15 101 -23 128 -44 155 -25 31 -34 35
-160 67 l-46 12 -6 91 c-6 108 -9 118 -46 144 -27 21 -28 21 -40 1z m227 -354
c33 -13 33 -14 32 -101 0 -11 -143 -3 -157 9 -8 6 -13 33 -13 64 l0 53 53 -6
c28 -3 67 -12 85 -19z m-23 -196 c71 -14 85 -29 85 -94 0 -31 -2 -34 -23 -29
-13 4 -55 9 -93 13 l-69 7 -3 58 c-3 66 -5 65 103 45z"/>
</g>
</svg>
