<?xml version="1.0" encoding="UTF-8" standalone="no"?>
<!-- Created with Inkscape (http://www.inkscape.org/) -->

<svg
   xmlns:dc="http://purl.org/dc/elements/1.1/"
   xmlns:cc="http://creativecommons.org/ns#"
   xmlns:rdf="http://www.w3.org/1999/02/22-rdf-syntax-ns#"
   xmlns:svg="http://www.w3.org/2000/svg"
   xmlns="http://www.w3.org/2000/svg"
   xmlns:sodipodi="http://sodipodi.sourceforge.net/DTD/sodipodi-0.dtd"
   xmlns:inkscape="http://www.inkscape.org/namespaces/inkscape"
   width="300"
   height="300"
   id="svg2"
   version="1.1"
   inkscape:version="0.48.3.1 r9886"
   sodipodi:docname=" 胾-.svg">
  <defs
     id="defs4" />
  <sodipodi:namedview
     id="base"
     pagecolor="#ffffff"
     bordercolor="#666666"
     borderopacity="1.0"
     inkscape:pageopacity="0.0"
     inkscape:pageshadow="2"
     inkscape:zoom="1.979899"
     inkscape:cx="133.3931"
     inkscape:cy="182.34546"
     inkscape:document-units="px"
     inkscape:current-layer="layer1"
     showgrid="false"
     inkscape:window-width="1215"
     inkscape:window-height="1000"
     inkscape:window-x="65"
     inkscape:window-y="24"
     inkscape:window-maximized="1" />
  <metadata
     id="metadata7">
    <rdf:RDF>
      <cc:Work
         rdf:about="">
        <dc:format>image/svg+xml</dc:format>
        <dc:type
           rdf:resource="http://purl.org/dc/dcmitype/StillImage" />
        <dc:title></dc:title>
      </cc:Work>
    </rdf:RDF>
  </metadata>
  <g
     inkscape:label="Calque 1"
     inkscape:groupmode="layer"
     id="layer1"
     transform="translate(0,-752.36218)">
    <path
       style="fill:#000000"
       d="m 73.447657,1028.7851 c -1.951473,-2.8348 4.503596,-8.4551 20.033226,-17.4424 10.208327,-5.9077 29.358067,-28.94197 34.857667,-41.92842 2.90116,-6.85062 1.78341,-8.41608 -9.85582,-13.80346 -7.22047,-3.34206 -17.41529,-8.67485 -22.655123,-11.85058 -12.471945,-7.55891 -13.426272,-7.42699 -28.159383,3.89279 -6.909183,5.30846 -13.773481,9.65514 -15.254017,9.6593 -6.408302,0.0193 -1.390562,-7.07274 17.461544,-24.67551 11.084352,-10.34984 28.301394,-28.64912 38.260089,-40.66514 9.95869,-12.01602 19.86744,-21.36225 22.01944,-20.76941 15.87785,4.37404 22.99625,63.40799 11.35555,94.17335 -9.55318,25.24823 -28.09466,47.01428 -50.936571,59.79508 -12.505388,6.9972 -14.507033,7.4196 -17.126602,3.6144 z m 60.123773,-82.74322 c 3.4019,-7.95903 -0.95501,-13.3827 -15.47142,-19.25958 -14.2606,-5.77328 -30.450287,-4.25848 -27.89992,2.61052 1.214299,3.2705 32.7357,20.39874 38.99749,21.19062 1.26936,0.16047 3.23754,-1.88318 4.37385,-4.54156 z m 2.29122,-26.98669 c 0,-8.02518 -4.87005,-22.95883 -7.48721,-22.95883 -1.65038,0 -6.28591,3.16581 -10.30113,7.0351 l -7.30042,7.03508 9.85247,5.83285 c 10.88693,6.44523 15.23629,7.31753 15.23629,3.0558 z"
       id="path3028"
       inkscape:connector-curvature="0"
       sodipodi:nodetypes="cssssscsssssccssccssscss" />
    <path
       style="fill:#b3b3b3"
       d="m 189.89772,972.56025 c -0.3564,-19.93793 -1.07341,-39.15083 -1.59291,-42.69536 -6.41325,-43.75706 -7.85582,-48.42755 -17.69782,-57.2992 -4.36059,-3.93064 -13.19609,-14.03426 -19.63447,-22.4525 -7.84864,-10.26215 -14.25135,-15.30588 -19.42991,-15.30588 -5.32728,0 -6.57024,-1.03562 -4.00604,-3.33775 2.0448,-1.83574 14.07753,-3.85256 26.7394,-4.48185 12.66191,-0.62928 24.46655,-1.30235 26.23254,-1.49572 1.77459,-0.19431 2.22657,-9.81494 1.01042,-21.50724 -2.13215,-20.49874 -1.95323,-21.12416 5.76207,-20.13933 7.09939,0.90621 8.07733,3.16488 9.02187,20.83695 l 1.05935,19.82057 20.57954,-1.67534 c 15.79566,-1.28588 21.64064,-0.52752 25.14411,3.26238 3.84218,4.15631 2.97374,5.78462 -5.48758,10.28888 -5.52869,2.94314 -15.7051,12.46114 -22.61428,21.15115 -6.90917,8.68996 -13.95753,15.83256 -15.663,15.87238 -1.70551,0.04 -2.65528,22.18538 -2.11058,49.21235 1.31619,65.3101 0.48791,86.19646 -3.4183,86.19646 -1.78533,0 -3.53778,-16.31303 -3.89441,-36.25095 z M 179.68371,837.27171 c -4.22368,-3.79191 -18.53741,-0.16368 -18.53741,4.69875 0,1.9286 4.44162,8.71852 9.87026,15.08873 l 9.87024,11.58217 1.12751,-14.13252 c 0.6201,-7.77289 -0.42866,-15.5296 -2.3306,-17.23713 z m 29.14267,10.73316 c 8.01593,-12.18277 7.81574,-13.19756 -2.60347,-13.19756 -10.8182,0 -12.63285,2.43231 -10.23087,13.71311 2.39643,11.25465 5.163,11.14351 12.83434,-0.51555 z"
       id="path3028-7"
       inkscape:connector-curvature="0"
       sodipodi:nodetypes="csssscssssscsssscsscssscssssss" />
  </g>
</svg>
