<?xml version="1.0" encoding="UTF-8" standalone="no"?>
<!-- Created with Inkscape (http://www.inkscape.org/) -->

<svg
   xmlns:dc="http://purl.org/dc/elements/1.1/"
   xmlns:cc="http://creativecommons.org/ns#"
   xmlns:rdf="http://www.w3.org/1999/02/22-rdf-syntax-ns#"
   xmlns:svg="http://www.w3.org/2000/svg"
   xmlns="http://www.w3.org/2000/svg"
   version="1.1"
   width="300"
   height="300"
   id="svg2">
  <defs
     id="defs4" />
  <metadata
     id="metadata7">
    <rdf:RDF>
      <cc:Work
         rdf:about="">
        <dc:format>image/svg+xml</dc:format>
        <dc:type
           rdf:resource="http://purl.org/dc/dcmitype/StillImage" />
        <dc:title></dc:title>
      </cc:Work>
    </rdf:RDF>
  </metadata>
  <g
     transform="translate(0,-752.36218)"
     id="layer1">
    <path
       d="M 106.91416,1034.063 C 95.358642,1030.3809 92.204296,1027.672 87.033112,1016.9898 83.402467,1009.4899 80.857978,998.34453 80.816473,989.75993 80.777826,981.76672 79.677965,970.5879 78.372339,964.91811 75.417601,952.08694 80.205234,796.53699 83.661272,793.08096 85.049018,791.69321 88.968674,791.44147 92.371618,792.52152 98.008682,794.31065 98.558792,796.67807 98.558792,819.14835 98.558792,832.71305 99.706812,844.52096 101.10994,845.38816 104.69885,847.60621 137.14121,831.06389 140.27422,825.10672 141.6979,822.3997 143.01939,808.18167 144.18358,794.80808 145.34777,781.4345 148.8716,769.19252 150.3931,768.25219 157.21847,764.03388 160.07304,774.80415 162.0988,800.69963 163.33953,816.56001 162.73017,825.52022 167.11506,831.979 170.79916,837.40557 178.82018,842.50206 188.78995,848.38438 202.12216,856.25057 205.72672,853.44733 205.19878,820.44958 204.80896,796.08435 206.22204,795.56096 213.42712,795.56096 226.83773,796.50513 221.43572,832.6351 221.66191,845.63177 222.87824,915.51905 217.84295,1002.3585 211.68138,1017.7578 209.01205,1024.4291 204.66799,1031.0236 202.0279,1032.412 199.38781,1033.8006 179.99749,1035.7248 158.93829,1036.6881 129.32656,1038.0426 117.53609,1037.4476 106.91416,1034.063 z M 183.0565,1020.9995 C 197.22868,1017.0636 199.1789,1010.2051 198.10291,987.78857 197.25511,970.12624 199.33896,968.17638 190.77935,966.53332 185.91953,965.60046 161.00003,966.87748 138.3209,967.7499 99.673462,969.74334 95.079591,962.07013 96.170812,983.7571 92.922949,1018.5396 105.82153,1023.3464 145.68426,1023.6201 159.45373,1023.7147 177.00079,1022.6813 183.0565,1020.9995 z M 202.74535,948.4954 C 205.70712,943.203 202.17707,920.20989 198.55778,917.79264 197.34504,916.98267 174.36437,916.18243 147.16569,916.99677 96.305807,917.94019 100.81709,915.24124 94.832979,929.3813 92.984365,935.79399 93.40691,944.65398 94.794637,949.23523 96.273582,954.11765 99.020792,953.13675 148.4201,953.13675 192.00352,953.13675 200.35125,952.77343 202.74535,948.4954 z M 203.18723,890.40049 C 204.05405,876.9428 202.39742,873.41314 190.0794,865.66327 183.10915,861.27795 170.76592,853.95421 163.62274,849.06404 150.69898,840.21653 148.73333,840.99456 139.67563,846.23226 134.66927,849.12722 125.14049,854.59725 116.23084,859.36063 100.0075,868.03412 94.636913,873.39405 94.049991,889.09541 93.632735,900.25791 95.524112,902.12385 155.41145,901.59326 196.64056,902.38177 204.74354,910.09247 203.18723,890.40049 z"
       id="path3855"
       style="fill:#000000" />
  </g>
</svg>
