<?xml version="1.0" standalone="no"?>
<!DOCTYPE svg PUBLIC "-//W3C//DTD SVG 20010904//EN"
 "http://www.w3.org/TR/2001/REC-SVG-20010904/DTD/svg10.dtd">
<svg version="1.0" xmlns="http://www.w3.org/2000/svg"
 width="468pt" height="468pt" viewBox="0 0 468 468"
 preserveAspectRatio="xMidYMid meet">
<metadata>
Created by potrace 1.8, written by Peter Selinger 2001-2007
</metadata>
<g transform="translate(0,468) scale(0.624000,-0.624000)"
fill="#000000" stroke="none">
<path d="M395 539 l7 -74 -36 -39 c-31 -33 -37 -36 -42 -20 -3 11 -10 28 -14
39 -5 11 -12 30 -15 43 -6 20 -42 49 -51 40 -2 -3 5 -29 16 -59 11 -29 20 -78
20 -109 0 -51 -17 -120 -33 -136 -4 -4 -7 -31 -7 -59 0 -46 4 -55 35 -83 40
-37 80 -42 88 -12 7 26 -3 99 -14 106 -5 3 -9 -11 -9 -30 0 -39 -11 -50 -40
-41 -24 8 -35 60 -21 98 l10 27 101 -4 c55 -1 103 -5 106 -8 14 -15 12 -69 -5
-89 l-18 -23 -28 22 c-36 28 -40 23 -18 -21 32 -64 61 -59 92 13 22 50 22 67
1 180 -21 119 -22 130 -12 130 5 0 12 8 15 18 4 9 12 33 20 53 13 35 12 59 -3
59 -8 0 -53 -86 -64 -122 -8 -28 -34 -10 -46 30 -5 21 -10 56 -10 78 0 25 -6
47 -16 54 -14 12 -14 6 -9 -61z m53 -153 c20 -22 27 -36 19 -39 -12 -4 -119 2
-125 8 -5 4 59 65 67 65 4 0 21 -15 39 -34z m46 -99 c13 -21 -10 -41 -34 -30
-8 4 -43 9 -77 11 -52 3 -63 7 -63 21 0 10 2 20 4 22 2 2 39 2 82 -1 59 -4 79
-9 88 -23z"/>
</g>
</svg>
