<?xml version="1.0" standalone="no"?>
<!DOCTYPE svg PUBLIC "-//W3C//DTD SVG 20010904//EN"
 "http://www.w3.org/TR/2001/REC-SVG-20010904/DTD/svg10.dtd">
<svg version="1.0" xmlns="http://www.w3.org/2000/svg"
 width="469pt" height="469pt" viewBox="0 0 469 469"
 preserveAspectRatio="xMidYMid meet">
<metadata>
Created by potrace 1.8, written by Peter Selinger 2001-2007
</metadata>
<g transform="translate(0,469) scale(0.525843,-0.525843)"
fill="#000000" stroke="none">
<path d="M380 734 c0 -9 14 -33 30 -54 35 -44 37 -63 10 -97 -12 -15 -20 -41
-20 -62 0 -20 9 -61 20 -91 12 -33 20 -80 20 -117 l0 -63 -41 40 c-36 35 -69
51 -69 35 0 -14 34 -70 57 -94 24 -26 77 -130 70 -137 -2 -2 -30 -9 -63 -15
-58 -11 -84 -23 -84 -40 0 -5 8 -9 18 -9 10 0 24 -6 30 -12 9 -9 15 -10 20 -2
4 6 51 17 105 24 53 8 97 17 97 22 0 4 7 8 16 8 8 0 12 5 9 10 -3 6 -28 10
-56 10 l-49 0 0 44 c0 44 24 116 38 116 11 0 44 71 37 79 -3 3 -22 -12 -40
-34 l-34 -40 0 90 c-1 69 4 100 19 134 25 55 25 86 0 122 l-21 28 26 40 c15
22 25 48 23 57 -2 15 -10 11 -39 -21 l-37 -38 -39 41 c-43 46 -53 50 -53 26z
m106 -207 c-4 -18 -11 -39 -16 -47 -9 -13 -11 -13 -20 0 -15 23 -12 63 6 89
15 21 18 22 26 6 6 -9 7 -31 4 -48z"/>
</g>
</svg>
