<?xml version="1.0" encoding="UTF-8" standalone="no"?>
<!-- Created with Inkscape (http://www.inkscape.org/) -->

<svg
   xmlns:dc="http://purl.org/dc/elements/1.1/"
   xmlns:cc="http://creativecommons.org/ns#"
   xmlns:rdf="http://www.w3.org/1999/02/22-rdf-syntax-ns#"
   xmlns:svg="http://www.w3.org/2000/svg"
   xmlns="http://www.w3.org/2000/svg"
   version="1.1"
   width="300"
   height="300"
   id="svg2">
  <defs
     id="defs4" />
  <metadata
     id="metadata7">
    <rdf:RDF>
      <cc:Work
         rdf:about="">
        <dc:format>image/svg+xml</dc:format>
        <dc:type
           rdf:resource="http://purl.org/dc/dcmitype/StillImage" />
        <dc:title></dc:title>
      </cc:Work>
    </rdf:RDF>
  </metadata>
  <g
     transform="translate(0,-752.36218)"
     id="layer1">
    <path
       d="M 65.821491,1034.1875 C 64.969939,1031.9685 65.54372,1029.3676 67.096558,1028.408 68.649396,1027.4482 86.497673,1025.5498 106.75939,1024.1893 127.02112,1022.8288 145.01935,1020.5976 146.75549,1019.2309 150.94985,1015.9294 150.94985,988.50568 146.75549,985.16746 145.01935,983.78569 135.64426,982.95681 125.92195,983.3255 105.81342,984.08805 93.849348,980.26095 88.929157,971.49214 84.324858,963.28631 81.611073,933.63171 80.157736,875.64331 79.06288,831.95842 79.390829,825.91234 82.92887,824.55466 89.367672,822.08387 91.126063,831.36522 91.469707,869.63592 92.076757,937.24173 96.510405,961.47549 109.23647,966.74679 113.12496,968.35747 122.44726,969.32574 129.95267,968.89852 L 143.59889,968.12176 144.35914,954.95181 C 145.10716,941.99343 144.97506,941.72156 136.13592,938.02833 123.10612,932.58412 121.31887,925.71187 123.27489,888.57551 124.80932,859.44362 125.54497,855.93853 132.81518,843.1205 137.27859,835.25113 140.4815,826.18424 140.20523,822.20064 139.58199,813.21462 127.72569,796.81841 115.34868,787.82626 110.05276,783.97865 104.20142,778.98636 102.34573,776.73229 98.623509,772.211 100.32926,767.36217 105.64199,767.36217 111.87286,767.36217 134.0537,787.03083 142.46953,800.01868 147.03075,807.05785 151.99176,812.77416 153.49397,812.72158 154.99619,812.669 160.20259,807.45093 165.06375,801.12585 174.7923,788.46761 194.10172,772.41273 199.5974,772.41273 209.54171,772.41273 204.60717,780.96396 182.36655,802.27268 L 158.82758,824.82534 164.15609,838.39216 C 172.43068,859.45998 174.74296,870.25804 176.52456,896.15134 178.39869,923.38947 176.01483,932.87225 166.37167,936.53857 160.77066,938.66807 160.01319,940.43082 160.01319,951.33574 160.01319,958.20809 161.41747,964.83973 163.16979,966.2427 167.66553,969.84215 191.99016,967.99801 198.79063,963.54215 208.72666,957.03183 210.51875,944.08495 210.51875,878.81273 210.51875,841.34789 211.45743,817.86773 212.95518,817.86773 219.7175,817.86773 221.10852,830.64041 221.48937,896.23144 221.86793,961.42726 221.6856,964.20065 216.56877,971.07942 211.67148,977.66303 209.49449,978.37017 188.79072,980.10249 176.43534,981.13628 164.77052,982.57304 162.86889,983.2953 160.28467,984.27681 159.69375,988.51198 160.5293,1000.0633 161.74694,1016.897 166.99907,1023.8908 176.4275,1021.2337 179.2053,1020.451 192.28965,1019.1048 205.50383,1018.2424 225.17269,1016.9587 230.10122,1017.3631 232.6817,1020.4723 239.39597,1028.5626 230.34302,1030.353 170.85426,1032.7002 139.19697,1033.9493 102.96225,1035.7028 90.332661,1036.5968 70.651097,1037.9901 67.148522,1037.6458 65.821491,1034.1875 z M 159.13381,923.30928 C 167.4882,909.79158 159.75683,843.1205 149.83488,843.1205 145.48288,843.1205 135.12669,868.56009 134.41467,880.99967 133.13728,903.31664 134.71309,918.47076 138.72871,922.48638 143.46439,927.22206 156.39333,927.74346 159.13381,923.30928 z"
       id="path3829"
       style="fill:#000000" />
  </g>
</svg>
