<?xml version="1.0" encoding="UTF-8" standalone="no"?>
<!-- Created with Inkscape (http://www.inkscape.org/) -->
<svg
   xmlns:dc="http://purl.org/dc/elements/1.1/"
   xmlns:cc="http://web.resource.org/cc/"
   xmlns:rdf="http://www.w3.org/1999/02/22-rdf-syntax-ns#"
   xmlns:svg="http://www.w3.org/2000/svg"
   xmlns="http://www.w3.org/2000/svg"
   xmlns:sodipodi="http://sodipodi.sourceforge.net/DTD/sodipodi-0.dtd"
   xmlns:inkscape="http://www.inkscape.org/namespaces/inkscape"
   width="300"
   height="300"
   id="svg2"
   sodipodi:version="0.32"
   inkscape:version="0.45.1"
   version="1.0"
   sodipodi:docbase="C:\Documents and Settings\Martin\桌面"
   sodipodi:docname="drawing.svg"
   inkscape:output_extension="org.inkscape.output.svg.inkscape">
  <defs
     id="defs4" />
  <sodipodi:namedview
     id="base"
     pagecolor="#ffffff"
     bordercolor="#666666"
     borderopacity="1.0"
     gridtolerance="10000"
     guidetolerance="10"
     objecttolerance="10"
     inkscape:pageopacity="0.0"
     inkscape:pageshadow="2"
     inkscape:zoom="1.4"
     inkscape:cx="177.32624"
     inkscape:cy="153.55277"
     inkscape:document-units="px"
     inkscape:current-layer="layer1"
     width="300px"
     height="300px"
     inkscape:window-width="742"
     inkscape:window-height="577"
     inkscape:window-x="50"
     inkscape:window-y="0" />
  <metadata
     id="metadata7">
    <rdf:RDF>
      <cc:Work
         rdf:about="">
        <dc:format>image/svg+xml</dc:format>
        <dc:type
           rdf:resource="http://purl.org/dc/dcmitype/StillImage" />
      </cc:Work>
    </rdf:RDF>
  </metadata>
  <g
     inkscape:label="Layer 1"
     inkscape:groupmode="layer"
     id="layer1">
    <path
       style="fill:#000000"
       d="M 111.43204,285.22394 C 98.017798,281.66997 80.297812,266.24243 74.044351,252.67315 C 65.13071,233.33154 62.711728,207.71771 62.161398,126.84798 C 61.549807,36.978192 62.090771,33.460062 77.7778,25.282632 C 83.442926,22.329491 101.08639,18.367223 119.16866,15.987299 C 121.90046,15.627748 128.23326,14.225677 133.24155,12.871579 C 141.07459,10.753765 142.34754,11.385571 142.34754,17.391094 C 142.34754,22.849482 140.30084,24.3726 132.96603,24.3726 C 115.7459,24.3726 84.449849,32.111978 80.366589,37.380207 C 76.482995,42.390808 74.15216,97.22051 77.822741,97.22051 C 79.892484,97.22051 93.686695,89.619711 95.989781,87.21022 C 107.01468,75.676042 129.10247,71.656483 129.10247,81.184349 C 129.10247,85.68028 115.37967,96.97106 109.74601,97.11035 C 105.40703,97.21763 88.409629,108.02275 80.429302,115.74677 C 76.746808,119.31099 74.365609,147.30398 75.597237,172.55187 C 76.196042,184.82761 83.521233,187.00719 92.290134,177.51878 C 99.323994,169.90772 124.7659,156.82335 132.53125,156.82335 C 135.89405,156.82335 139.53276,158.25908 140.61727,160.01385 C 143.23986,164.25724 130.5627,176.69096 123.61364,176.69096 C 116.19465,176.69096 83.485367,202.25362 81.038142,209.96418 C 78.835428,216.90426 82.047749,238.22344 86.63422,247.10376 C 88.293994,250.31745 95.920743,256.90913 103.58252,261.75198 C 116.16723,269.70648 120.71204,270.58155 150.62571,270.80963 C 175.97324,271.00291 186.45622,269.699 195.32787,265.24951 C 206.77569,259.50791 213.76691,245.61112 215.19548,235.82906 C 221.12048,217.31942 224.55827,214.91452 212.81031,193.81945 C 209.13242,188.89331 195.82525,180.54286 182.42449,174.75188 C 169.31123,169.08514 156.91537,162.78188 154.87811,160.74458 C 142.92158,148.78806 190.60809,157.27633 209.01093,170.3803 C 220.59874,178.63156 224.4475,178.3455 224.34406,169.2406 C 224.2975,165.14291 225.36085,155.01771 226.70708,146.74016 C 228.86195,133.49026 228.14742,130.49294 220.73331,121.68178 C 212.89651,112.36824 180.10236,93.757966 163.04297,88.943188 C 158.94527,87.786672 155.59262,84.705735 155.59262,82.096665 C 155.59262,75.126409 171.8476,76.184473 184.64625,83.987817 C 193.83982,89.356888 203.67232,91.718647 212.54323,97.68979 C 224.99485,106.5561 228.5856,102.33479 226.94767,80.755863 C 223.54697,35.953189 214.20429,24.526659 180.76084,24.267291 C 168.40656,24.171477 155.59262,18.560157 155.59262,13.245932 C 155.59262,9.6760957 184.42111,10.892726 200.26895,15.131375 C 209.12477,17.499946 219.51398,23.545981 225.70608,29.934607 L 236.17327,40.733989 L 237.65082,109.54029 C 239.29857,186.27191 234.85638,244.36693 225.95764,262.46361 C 221.03935,272.4656 216.90539,275.35359 198.63914,281.54847 C 175.0142,289.56071 134.2807,291.27748 111.43204,285.22394 z "
       id="path2188"
       sodipodi:nodetypes="csssssssssssssssssssssssccssssssssccsssscccssc" />
  </g>
</svg>
