<?xml version="1.0" encoding="UTF-8" standalone="no"?>
<!-- Created with Inkscape (http://www.inkscape.org/) -->

<svg
   xmlns:dc="http://purl.org/dc/elements/1.1/"
   xmlns:cc="http://creativecommons.org/ns#"
   xmlns:rdf="http://www.w3.org/1999/02/22-rdf-syntax-ns#"
   xmlns:svg="http://www.w3.org/2000/svg"
   xmlns="http://www.w3.org/2000/svg"
   xmlns:sodipodi="http://sodipodi.sourceforge.net/DTD/sodipodi-0.dtd"
   xmlns:inkscape="http://www.inkscape.org/namespaces/inkscape"
   width="300"
   height="300"
   id="svg2"
   version="1.1"
   inkscape:version="0.48.1 r9760"
   sodipodi:docname="Nouveau document 1">
  <defs
     id="defs4" />
  <sodipodi:namedview
     id="base"
     pagecolor="#ffffff"
     bordercolor="#666666"
     borderopacity="1.0"
     inkscape:pageopacity="0.0"
     inkscape:pageshadow="2"
     inkscape:zoom="1.4"
     inkscape:cx="10.184196"
     inkscape:cy="248.54958"
     inkscape:document-units="px"
     inkscape:current-layer="layer1"
     showgrid="false"
     inkscape:window-width="1280"
     inkscape:window-height="950"
     inkscape:window-x="0"
     inkscape:window-y="25"
     inkscape:window-maximized="1" />
  <metadata
     id="metadata7">
    <rdf:RDF>
      <cc:Work
         rdf:about="">
        <dc:format>image/svg+xml</dc:format>
        <dc:type
           rdf:resource="http://purl.org/dc/dcmitype/StillImage" />
        <dc:title></dc:title>
      </cc:Work>
    </rdf:RDF>
  </metadata>
  <g
     inkscape:label="Calque 1"
     inkscape:groupmode="layer"
     id="layer1"
     transform="translate(0,-752.36218)">
    <path
       style="fill:#000000"
       d="m 59.117468,1033.0996 c -4.17924,-15.4691 10.341723,-27.4514 11.618077,-42.2655 5.823226,-18.582 21.437233,-55.93883 19.900247,-67.23725 -7.431392,-1.16224 -30.350477,6.1261 -40.289113,-0.17975 -7.607861,-10.40093 13.779018,-11.7498 21.083724,-12.53936 12.146582,0.21012 12.871238,-1.81703 18.914881,-2.37438 0.74997,-11.39488 -0.998948,-34.23632 -1.205381,-41.58661 -15.490324,1.79217 -51.200231,-7.16897 -33.425064,-12.68083 11.351786,0.90447 27.659565,1.99079 33.130517,0.32682 0.974058,-5.70818 -1.329428,-29.56384 -1.513381,-39.3361 -1.341717,-11.11705 -6.21141,-24.50571 2.236958,-33.97359 12.834747,4.96562 11.787237,20.7677 11.820827,32.09562 2.23907,11.10263 -0.42401,29.96374 -0.65051,39.15723 12.59856,-0.96626 25.1174,-2.84885 29.13195,-4.3797 -0.33549,-7.76647 -0.3258,-50.35946 10.26651,-44.04884 5.10323,13.75245 5.32181,28.84148 6.22769,43.36207 0.6073,23.9316 -4.82942,50.76309 -24.6717,66.29426 -12.42851,5.53304 -10.48826,4.32617 -21.25164,8.54807 -3.070745,30.41012 -12.709342,85.05604 -32.307502,109.30244 -2.141568,2.3424 -6.424791,4.2965 -9.01709,1.5154 z M 122.9841,891.28874 c 9.51427,-7.66715 7.47789,-24.17839 7.21795,-31.04806 -5.66549,0.40213 -23.79583,2.3101 -29.52727,4.93547 0.0274,4.69338 1.56083,35.58989 2.22608,40.55955 5.6158,-2.4237 12.03987,-3.43131 18.23296,-12.08338 0,0 1.23352,-1.57572 1.85028,-2.36358 z m 99.66675,116.98626 c -6.26017,-29.02898 -5.78066,-60.6039 -7.97814,-90.10428 -14.68588,-3.16752 -31.38861,-13.96637 -35.62534,-30.89097 -7.3621,-29.198 -0.84204,-59.26754 2.53302,-88.53326 15.45915,-3.74073 12.11168,34.60045 10.96899,44.25042 12.35612,2.27823 25.39895,3.35834 25.39895,3.35834 0,0 -1.17078,-37.79736 0.29265,-48.63801 0.56913,-9.20722 1.52298,-18.45095 3.96507,-27.37283 13.63756,1.24755 10.80062,18.6988 9.73973,28.3369 -0.61773,12.46537 -2.6074,49.01827 -2.6074,49.01827 0,0 22.81949,-7.2557 31.02058,1.6504 1.71292,14.21853 -22.40201,11.39201 -31.39764,10.97442 0.83261,9.66892 -2.54119,35.39955 -2.22989,44.04237 11.18308,3.3415 24.66022,-3.05468 33.50452,4.02198 6.07214,13.66786 -25.88961,9.43951 -33.61993,11.26341 -0.48912,8.95996 3.16997,20.2483 4.65701,31.69609 3.86459,21.27559 8.633,42.82907 6.58081,64.58135 -4.01761,12.5865 -15.53583,-0.2238 -15.20299,-7.6546 z m -3.7986,-148.85137 c -5.97328,0.0304 -16.5521,-5.07333 -27.04385,-1.94948 -1.28924,13.62596 4.84075,38.51014 23.27232,42.84303 0.35621,-6.54813 3.90693,-34.24781 3.77153,-40.89355 z"
       id="path2996"
       inkscape:connector-curvature="0"
       sodipodi:nodetypes="cccccccccccccccccccccccccccccccccccccccccccccccc" />
  </g>
</svg>
