<?xml version="1.0" encoding="UTF-8" standalone="no"?>
<!-- Created with Inkscape (http://www.inkscape.org/) -->
<svg
   xmlns:dc="http://purl.org/dc/elements/1.1/"
   xmlns:cc="http://creativecommons.org/ns#"
   xmlns:rdf="http://www.w3.org/1999/02/22-rdf-syntax-ns#"
   xmlns:svg="http://www.w3.org/2000/svg"
   xmlns="http://www.w3.org/2000/svg"
   xmlns:sodipodi="http://sodipodi.sourceforge.net/DTD/sodipodi-0.dtd"
   xmlns:inkscape="http://www.inkscape.org/namespaces/inkscape"
   width="300"
   height="300"
   id="svg2400"
   sodipodi:version="0.32"
   inkscape:version="0.46"
   version="1.0"
   sodipodi:docname="舛-seal.svg"
   inkscape:output_extension="org.inkscape.output.svg.inkscape">
  <defs
     id="defs2402">
    <inkscape:perspective
       sodipodi:type="inkscape:persp3d"
       inkscape:vp_x="0 : 526.18109 : 1"
       inkscape:vp_y="0 : 1000 : 0"
       inkscape:vp_z="744.09448 : 526.18109 : 1"
       inkscape:persp3d-origin="372.04724 : 350.78739 : 1"
       id="perspective2408" />
    <inkscape:perspective
       id="perspective3684"
       inkscape:persp3d-origin="372.04724 : 350.78739 : 1"
       inkscape:vp_z="744.09448 : 526.18109 : 1"
       inkscape:vp_y="0 : 1000 : 0"
       inkscape:vp_x="0 : 526.18109 : 1"
       sodipodi:type="inkscape:persp3d" />
    <inkscape:perspective
       id="perspective3736"
       inkscape:persp3d-origin="372.04724 : 350.78739 : 1"
       inkscape:vp_z="744.09448 : 526.18109 : 1"
       inkscape:vp_y="0 : 1000 : 0"
       inkscape:vp_x="0 : 526.18109 : 1"
       sodipodi:type="inkscape:persp3d" />
    <inkscape:perspective
       id="perspective2478"
       inkscape:persp3d-origin="372.04724 : 350.78739 : 1"
       inkscape:vp_z="744.09448 : 526.18109 : 1"
       inkscape:vp_y="0 : 1000 : 0"
       inkscape:vp_x="0 : 526.18109 : 1"
       sodipodi:type="inkscape:persp3d" />
    <inkscape:perspective
       id="perspective2513"
       inkscape:persp3d-origin="372.04724 : 350.78739 : 1"
       inkscape:vp_z="744.09448 : 526.18109 : 1"
       inkscape:vp_y="0 : 1000 : 0"
       inkscape:vp_x="0 : 526.18109 : 1"
       sodipodi:type="inkscape:persp3d" />
    <inkscape:perspective
       id="perspective2550"
       inkscape:persp3d-origin="372.04724 : 350.78739 : 1"
       inkscape:vp_z="744.09448 : 526.18109 : 1"
       inkscape:vp_y="0 : 1000 : 0"
       inkscape:vp_x="0 : 526.18109 : 1"
       sodipodi:type="inkscape:persp3d" />
    <inkscape:perspective
       id="perspective2585"
       inkscape:persp3d-origin="372.04724 : 350.78739 : 1"
       inkscape:vp_z="744.09448 : 526.18109 : 1"
       inkscape:vp_y="0 : 1000 : 0"
       inkscape:vp_x="0 : 526.18109 : 1"
       sodipodi:type="inkscape:persp3d" />
    <inkscape:perspective
       id="perspective2620"
       inkscape:persp3d-origin="372.04724 : 350.78739 : 1"
       inkscape:vp_z="744.09448 : 526.18109 : 1"
       inkscape:vp_y="0 : 1000 : 0"
       inkscape:vp_x="0 : 526.18109 : 1"
       sodipodi:type="inkscape:persp3d" />
    <inkscape:perspective
       id="perspective2655"
       inkscape:persp3d-origin="372.04724 : 350.78739 : 1"
       inkscape:vp_z="744.09448 : 526.18109 : 1"
       inkscape:vp_y="0 : 1000 : 0"
       inkscape:vp_x="0 : 526.18109 : 1"
       sodipodi:type="inkscape:persp3d" />
    <inkscape:perspective
       id="perspective2690"
       inkscape:persp3d-origin="372.04724 : 350.78739 : 1"
       inkscape:vp_z="744.09448 : 526.18109 : 1"
       inkscape:vp_y="0 : 1000 : 0"
       inkscape:vp_x="0 : 526.18109 : 1"
       sodipodi:type="inkscape:persp3d" />
    <inkscape:perspective
       id="perspective2725"
       inkscape:persp3d-origin="372.04724 : 350.78739 : 1"
       inkscape:vp_z="744.09448 : 526.18109 : 1"
       inkscape:vp_y="0 : 1000 : 0"
       inkscape:vp_x="0 : 526.18109 : 1"
       sodipodi:type="inkscape:persp3d" />
    <inkscape:perspective
       id="perspective2760"
       inkscape:persp3d-origin="372.04724 : 350.78739 : 1"
       inkscape:vp_z="744.09448 : 526.18109 : 1"
       inkscape:vp_y="0 : 1000 : 0"
       inkscape:vp_x="0 : 526.18109 : 1"
       sodipodi:type="inkscape:persp3d" />
    <inkscape:perspective
       id="perspective2797"
       inkscape:persp3d-origin="372.04724 : 350.78739 : 1"
       inkscape:vp_z="744.09448 : 526.18109 : 1"
       inkscape:vp_y="0 : 1000 : 0"
       inkscape:vp_x="0 : 526.18109 : 1"
       sodipodi:type="inkscape:persp3d" />
    <inkscape:perspective
       id="perspective2832"
       inkscape:persp3d-origin="372.04724 : 350.78739 : 1"
       inkscape:vp_z="744.09448 : 526.18109 : 1"
       inkscape:vp_y="0 : 1000 : 0"
       inkscape:vp_x="0 : 526.18109 : 1"
       sodipodi:type="inkscape:persp3d" />
    <inkscape:perspective
       id="perspective2867"
       inkscape:persp3d-origin="372.04724 : 350.78739 : 1"
       inkscape:vp_z="744.09448 : 526.18109 : 1"
       inkscape:vp_y="0 : 1000 : 0"
       inkscape:vp_x="0 : 526.18109 : 1"
       sodipodi:type="inkscape:persp3d" />
    <inkscape:perspective
       id="perspective2902"
       inkscape:persp3d-origin="372.04724 : 350.78739 : 1"
       inkscape:vp_z="744.09448 : 526.18109 : 1"
       inkscape:vp_y="0 : 1000 : 0"
       inkscape:vp_x="0 : 526.18109 : 1"
       sodipodi:type="inkscape:persp3d" />
  </defs>
  <sodipodi:namedview
     id="base"
     pagecolor="#ffffff"
     bordercolor="#666666"
     borderopacity="1.0"
     gridtolerance="10000"
     guidetolerance="10"
     objecttolerance="10"
     inkscape:pageopacity="0.0"
     inkscape:pageshadow="2"
     inkscape:zoom="1.4"
     inkscape:cx="9.0598069"
     inkscape:cy="210.99213"
     inkscape:document-units="px"
     inkscape:current-layer="layer1"
     showgrid="false"
     width="300px"
     inkscape:window-width="1280"
     inkscape:window-height="953"
     inkscape:window-x="0"
     inkscape:window-y="25" />
  <metadata
     id="metadata2405">
    <rdf:RDF>
      <cc:Work
         rdf:about="">
        <dc:format>image/svg+xml</dc:format>
        <dc:type
           rdf:resource="http://purl.org/dc/dcmitype/StillImage" />
      </cc:Work>
    </rdf:RDF>
  </metadata>
  <g
     inkscape:label="Layer 1"
     inkscape:groupmode="layer"
     id="layer1">
    <path
       style="fill:#000000"
       d="M 88.897996,280.66899 C 87.564946,278.28695 87.419556,273.21051 88.574946,269.38802 C 93.438486,253.29742 96.218896,227.80231 97.944716,183.47129 L 99.778916,136.35666 L 81.261926,136.35666 C 61.585736,136.35666 58.727166,135.38386 60.999866,129.46129 C 61.977596,126.91337 66.883936,125.73928 76.553456,125.73928 C 92.990246,125.73928 99.125366,121.30794 97.694816,110.46909 C 97.165496,106.45863 96.650126,98.579303 96.549536,92.959483 L 96.366656,82.741626 L 85.085686,84.005116 C 78.881166,84.700034 71.868566,86.081963 69.502136,87.076068 C 64.117966,89.337894 60.537996,81.425299 64.684826,76.428672 C 66.288766,74.496045 73.774716,72.557144 81.320276,72.12 L 95.039486,71.325193 L 95.143026,54.071948 C 95.199966,44.582663 94.447176,34.429679 93.470156,31.509761 C 91.033216,24.226716 97.737036,17.84984 103.12744,22.323468 C 105.8872,24.613875 106.98404,31.320027 106.98404,45.903054 C 106.98404,67.737073 109.29176,72.652366 119.54277,72.652366 C 126.8647,72.652366 127.96304,70.306785 128.86464,52.744775 C 129.3579,43.136634 130.62478,39.473048 133.45404,39.473048 C 138.83819,39.473048 141.16514,55.326508 140.28041,85.98093 C 139.28273,120.54845 136.89648,124.7765 114.28349,132.04303 C 110.37751,133.29819 109.60512,137.03337 109.42932,155.51735 C 109.31433,167.60727 108.84162,182.87406 108.37886,189.44357 C 107.91609,196.01307 107.23748,210.59872 106.87082,221.85611 C 106.23271,241.44795 100.70375,277.47552 97.552776,282.57388 C 95.260726,286.2825 91.586976,285.47391 88.897996,280.66899 z M 122.91012,115.12189 C 126.9465,111.0855 128.21881,106.27408 128.21881,95.046128 L 128.21881,80.279052 L 119.59219,81.110815 L 110.96556,81.942575 L 110.18569,101.18658 C 109.32857,122.33669 112.36736,125.66465 122.91012,115.12189 z M 213.15786,279.69132 C 211.28496,273.79711 208.01584,269.87418 206.6538,263.10165 C 205.61189,256.89712 203.67939,245.25118 202.35934,237.22179 C 198.28336,212.42923 194.12487,154.18932 195.61159,142.71937 C 196.99221,132.06788 196.8042,131.75656 187.04589,128.53602 C 170.36307,123.0302 166.50541,118.20987 163.5652,99.19582 C 162.09784,89.706535 161.16778,77.761981 161.4984,72.652366 C 161.82903,67.54275 162.24033,58.845461 162.41241,53.325054 C 162.61635,46.782687 164.20486,42.720191 166.9747,41.657303 C 174.93396,38.603049 177.66734,49.445293 172.19744,62.373909 C 170.7788,65.726993 172.2409,66.969011 178.72751,67.921043 C 193.17168,70.040996 194.93102,65.942613 195.68311,28.422719 C 195.93733,15.740217 197.36447,13.455727 203.55024,15.829425 C 206.83293,17.089111 207.62143,19.673013 206.60681,25.845703 C 205.85476,30.420962 204.93079,41.331089 204.55355,50.090429 L 203.86765,66.016503 L 214.7177,66.307044 C 220.68523,66.466842 227.85196,67.875919 230.64377,69.438325 C 235.34691,72.07039 235.14062,72.499272 227.83553,75.276709 C 223.49918,76.925413 217.71031,77.688331 214.97137,76.972082 C 204.3745,74.200937 202.54047,77.52167 202.54047,99.479806 L 202.54047,120.43058 L 221.1209,120.43058 C 231.34013,120.43058 239.68301,121.32643 239.66066,122.42134 C 239.52574,129.02995 233.45186,132.10444 218.37675,133.19487 L 201.93904,134.38387 L 203.4559,158.59579 C 205.48358,190.96106 208.94358,215.08466 215.68485,243.85765 C 225.25372,284.69932 225.27659,285 218.81385,285 C 214.92742,285 213.15786,283.3391 213.15786,279.69132 z M 191.9231,96.852078 L 191.9231,75.927918 L 183.29647,76.653499 C 178.55183,77.052567 173.63309,77.510025 172.36593,77.670069 C 171.09877,77.830113 170.71148,84.806093 171.50528,93.172248 C 172.57824,104.48054 174.43668,109.58845 178.74837,113.07984 C 189.86973,122.08537 191.9231,119.55617 191.9231,96.852078 z"
       id="path2908"
       sodipodi:nodetypes="cscccssscccsscccssssssssssssccccccccccsssssssssssscccssscccscccssccccsssc" />
  </g>
</svg>
