<?xml version="1.0" standalone="no"?>
<!DOCTYPE svg PUBLIC "-//W3C//DTD SVG 20010904//EN"
 "http://www.w3.org/TR/2001/REC-SVG-20010904/DTD/svg10.dtd">
<svg version="1.0" xmlns="http://www.w3.org/2000/svg"
 width="468pt" height="468pt" viewBox="0 0 468 468"
 preserveAspectRatio="xMidYMid meet">
<metadata>
Created by potrace 1.8, written by Peter Selinger 2001-2007
</metadata>
<g transform="translate(0,468) scale(0.550588,-0.550588)"
fill="#000000" stroke="none">
<path d="M322 674 c-105 -162 -122 -245 -76 -376 14 -40 28 -81 31 -90 3 -10
9 -18 13 -18 4 0 13 -13 20 -30 7 -16 16 -30 21 -30 4 0 10 -8 13 -17 8 -22
65 -88 71 -81 3 2 -4 22 -15 43 -33 65 -29 75 36 75 53 0 57 -2 104 -50 41
-43 80 -64 80 -45 0 6 -41 67 -51 75 -11 9 -64 115 -77 153 -21 60 -16 215 9
282 22 59 20 89 -6 79 -8 -3 -15 -10 -15 -15 0 -5 -11 -33 -25 -64 l-26 -55
-60 0 c-76 0 -82 13 -39 83 36 59 51 117 29 117 -8 0 -24 -16 -37 -36z m98
-242 c0 -37 19 -137 39 -200 12 -40 4 -45 -64 -40 -38 2 -52 8 -66 28 -24 33
-69 157 -69 192 0 54 6 58 86 58 l74 0 0 -38z"/>
</g>
</svg>
