<?xml version="1.0" encoding="UTF-8" standalone="no"?>
<!-- Created with Inkscape (http://www.inkscape.org/) -->
<svg
   xmlns:dc="http://purl.org/dc/elements/1.1/"
   xmlns:cc="http://creativecommons.org/ns#"
   xmlns:rdf="http://www.w3.org/1999/02/22-rdf-syntax-ns#"
   xmlns:svg="http://www.w3.org/2000/svg"
   xmlns="http://www.w3.org/2000/svg"
   xmlns:sodipodi="http://sodipodi.sourceforge.net/DTD/sodipodi-0.dtd"
   xmlns:inkscape="http://www.inkscape.org/namespaces/inkscape"
   width="300"
   height="300"
   id="svg2400"
   sodipodi:version="0.32"
   inkscape:version="0.46"
   version="1.0"
   sodipodi:docname="艸-seal.svg"
   inkscape:output_extension="org.inkscape.output.svg.inkscape">
  <defs
     id="defs2402">
    <inkscape:perspective
       sodipodi:type="inkscape:persp3d"
       inkscape:vp_x="0 : 526.18109 : 1"
       inkscape:vp_y="0 : 1000 : 0"
       inkscape:vp_z="744.09448 : 526.18109 : 1"
       inkscape:persp3d-origin="372.04724 : 350.78739 : 1"
       id="perspective2408" />
    <inkscape:perspective
       id="perspective3684"
       inkscape:persp3d-origin="372.04724 : 350.78739 : 1"
       inkscape:vp_z="744.09448 : 526.18109 : 1"
       inkscape:vp_y="0 : 1000 : 0"
       inkscape:vp_x="0 : 526.18109 : 1"
       sodipodi:type="inkscape:persp3d" />
    <inkscape:perspective
       id="perspective3736"
       inkscape:persp3d-origin="372.04724 : 350.78739 : 1"
       inkscape:vp_z="744.09448 : 526.18109 : 1"
       inkscape:vp_y="0 : 1000 : 0"
       inkscape:vp_x="0 : 526.18109 : 1"
       sodipodi:type="inkscape:persp3d" />
    <inkscape:perspective
       id="perspective2445"
       inkscape:persp3d-origin="372.04724 : 350.78739 : 1"
       inkscape:vp_z="744.09448 : 526.18109 : 1"
       inkscape:vp_y="0 : 1000 : 0"
       inkscape:vp_x="0 : 526.18109 : 1"
       sodipodi:type="inkscape:persp3d" />
    <inkscape:perspective
       id="perspective2517"
       inkscape:persp3d-origin="372.04724 : 350.78739 : 1"
       inkscape:vp_z="744.09448 : 526.18109 : 1"
       inkscape:vp_y="0 : 1000 : 0"
       inkscape:vp_x="0 : 526.18109 : 1"
       sodipodi:type="inkscape:persp3d" />
    <inkscape:perspective
       id="perspective2589"
       inkscape:persp3d-origin="372.04724 : 350.78739 : 1"
       inkscape:vp_z="744.09448 : 526.18109 : 1"
       inkscape:vp_y="0 : 1000 : 0"
       inkscape:vp_x="0 : 526.18109 : 1"
       sodipodi:type="inkscape:persp3d" />
  </defs>
  <sodipodi:namedview
     id="base"
     pagecolor="#ffffff"
     bordercolor="#666666"
     borderopacity="1.0"
     gridtolerance="10000"
     guidetolerance="10"
     objecttolerance="10"
     inkscape:pageopacity="0.0"
     inkscape:pageshadow="2"
     inkscape:zoom="1.4"
     inkscape:cx="75.556376"
     inkscape:cy="212.96325"
     inkscape:document-units="px"
     inkscape:current-layer="layer1"
     showgrid="false"
     width="300px"
     inkscape:window-width="1274"
     inkscape:window-height="950"
     inkscape:window-x="0"
     inkscape:window-y="25" />
  <metadata
     id="metadata2405">
    <rdf:RDF>
      <cc:Work
         rdf:about="">
        <dc:format>image/svg+xml</dc:format>
        <dc:type
           rdf:resource="http://purl.org/dc/dcmitype/StillImage" />
      </cc:Work>
    </rdf:RDF>
  </metadata>
  <g
     inkscape:label="Layer 1"
     inkscape:groupmode="layer"
     id="layer1">
    <path
       style="fill:#000000"
       d="M 194.28091,283.13702 C 189.93091,280.08627 186.3288,252.28132 186.09509,219.95011 C 185.96828,202.40748 184.77034,182.0952 183.43301,174.81172 C 181.26488,163.00333 180.32496,161.43371 174.75497,160.31971 C 171.31937,159.63259 166.12987,156.53949 163.22275,153.44615 C 158.17991,148.08028 157.91936,146.12196 157.55141,110.8185 C 157.33929,90.466626 158.00473,72.45757 159.03018,70.798372 C 160.05561,69.139173 162.54009,68.413074 164.55122,69.18482 C 167.71109,70.397375 168.16379,75.406387 167.88364,106.05715 C 167.58826,138.37577 167.94157,141.8156 171.86132,144.78311 C 178.13277,149.53102 181.84458,148.89729 181.96142,143.05873 C 182.01783,140.23938 182.01142,111.15151 181.94715,78.419035 C 181.85331,30.623626 182.44648,18.39405 184.95969,16.308273 C 187.353,14.322001 188.78943,14.554981 191.06657,17.298769 C 193.34724,20.046811 194.08719,35.474022 194.22835,83.21831 C 194.32971,117.50084 195.02956,146.16711 195.78358,146.92113 C 196.5376,147.67515 198.71502,147.69326 200.62229,146.96136 C 205.29119,145.16974 206.86478,133.93636 206.89466,102.18445 C 206.92021,75.04577 208.56664,69.76705 214.9993,76.199703 C 217.81322,79.013631 218.42591,85.478969 218.16935,109.65169 C 217.79456,144.96354 215.46183,152.60916 203.30217,158.37929 L 194.93377,162.35036 L 196.43005,191.15024 C 197.25301,206.99017 198.9833,233.53724 200.27514,250.14372 C 202.87486,283.56287 201.97224,288.53113 194.28091,283.13702 z M 99.638934,278.61537 C 99.136424,268.71915 100.24756,250.70107 102.13272,238.17621 C 105.07058,218.65744 106.34032,185.4993 104.67931,171.67457 C 103.45583,161.49142 102.17834,159.12106 95.470414,154.5876 C 84.458124,147.1451 81.989674,138.05034 81.788604,104.17848 C 81.615874,75.082633 83.432724,66.167349 89.534894,66.167349 C 94.994674,66.167349 95.858044,70.417565 95.250934,94.306464 C 94.927744,107.02346 94.589994,121.67985 94.500364,126.87622 C 94.338244,136.27609 98.068034,143.64616 102.96816,143.6086 C 105.46886,143.58943 107.89402,112.04363 107.43291,85.532585 C 107.32394,79.267362 107.03289,62.478716 106.78614,48.224486 C 106.33197,21.987986 107.78124,16.511883 114.49695,19.088944 C 118.45576,20.608081 118.88004,30.796374 118.09407,105.46739 C 117.85996,127.70893 118.52712,145.89085 119.57664,145.87167 C 128.56467,145.70735 131.73705,133.24223 131.73705,98.090289 C 131.73705,66.71374 133.32628,60.010888 139.33992,66.0238 C 143.21621,69.899618 142.96957,141.10908 139.05457,148.4087 C 136.23511,153.66567 126.86741,159.57613 121.35492,159.57613 C 118.65693,159.57613 116.53791,183.34341 114.45561,236.95948 C 113.66788,257.24258 112.38492,265.26368 108.71626,272.84212 C 103.7901,283.01821 99.985364,285.43804 99.638934,278.61537 z"
       id="path2595" />
  </g>
</svg>
