<?xml version="1.0" standalone="no"?>
<!DOCTYPE svg PUBLIC "-//W3C//DTD SVG 20010904//EN"
 "http://www.w3.org/TR/2001/REC-SVG-20010904/DTD/svg10.dtd">
<svg version="1.0" xmlns="http://www.w3.org/2000/svg"
 width="468pt" height="468pt" viewBox="0 0 468 468"
 preserveAspectRatio="xMidYMid meet">
<metadata>
Created by potrace 1.8, written by Peter Selinger 2001-2007
</metadata>
<g transform="translate(0,468) scale(0.767213,-0.767213)"
fill="#000000" stroke="none">
<path d="M163 373 c-7 -15 -13 -37 -13 -49 0 -13 -4 -26 -10 -29 -13 -8 -13
-45 -1 -45 10 0 46 42 55 63 3 9 7 9 14 -1 11 -16 4 -94 -11 -132 l-10 -25 -9
33 c-11 42 -24 41 -38 -5 -7 -21 -19 -46 -28 -55 -25 -30 12 -34 68 -8 43 20
58 22 129 16 126 -10 170 18 185 116 l7 47 -43 5 c-24 3 -72 8 -108 11 -69 7
-140 42 -140 70 0 25 -34 16 -47 -12z m146 -99 c2 -2 -1 -14 -7 -27 -6 -12
-12 -31 -14 -42 -2 -12 -12 -21 -27 -23 -23 -4 -24 -2 -18 35 4 21 7 46 7 56
0 14 5 16 28 11 15 -4 29 -8 31 -10z m109 -26 c17 -17 15 -68 -2 -68 -9 0 -15
14 -18 40 -4 42 0 48 20 28z m-50 -40 c-4 -29 -38 -38 -38 -10 0 22 8 32 27
32 9 0 13 -8 11 -22z"/>
</g>
</svg>
