<?xml version="1.0" encoding="UTF-8" standalone="no"?>
<!-- Created with Inkscape (http://www.inkscape.org/) -->
<svg
   xmlns:dc="http://purl.org/dc/elements/1.1/"
   xmlns:cc="http://web.resource.org/cc/"
   xmlns:rdf="http://www.w3.org/1999/02/22-rdf-syntax-ns#"
   xmlns:svg="http://www.w3.org/2000/svg"
   xmlns="http://www.w3.org/2000/svg"
   xmlns:sodipodi="http://sodipodi.sourceforge.net/DTD/sodipodi-0.dtd"
   xmlns:inkscape="http://www.inkscape.org/namespaces/inkscape"
   width="300"
   height="300"
   id="svg2"
   sodipodi:version="0.32"
   inkscape:version="0.45.1"
   version="1.0"
   sodipodi:docbase="C:\Documents and Settings\Martin\桌面"
   sodipodi:docname="drawing.svg"
   inkscape:output_extension="org.inkscape.output.svg.inkscape">
  <defs
     id="defs4" />
  <sodipodi:namedview
     id="base"
     pagecolor="#ffffff"
     bordercolor="#666666"
     borderopacity="1.0"
     gridtolerance="10000"
     guidetolerance="10"
     objecttolerance="10"
     inkscape:pageopacity="0.0"
     inkscape:pageshadow="2"
     inkscape:zoom="0.35355339"
     inkscape:cx="294.97648"
     inkscape:cy="-58.118745"
     inkscape:document-units="px"
     inkscape:current-layer="layer1"
     width="300px"
     height="300px"
     inkscape:window-width="742"
     inkscape:window-height="577"
     inkscape:window-x="44"
     inkscape:window-y="0" />
  <metadata
     id="metadata7">
    <rdf:RDF>
      <cc:Work
         rdf:about="">
        <dc:format>image/svg+xml</dc:format>
        <dc:type
           rdf:resource="http://purl.org/dc/dcmitype/StillImage" />
      </cc:Work>
    </rdf:RDF>
  </metadata>
  <g
     inkscape:label="Layer 1"
     inkscape:groupmode="layer"
     id="layer1">
    <path
       style="fill:#000000"
       d="M 146.23668,266.79995 C 141.34185,264.93401 134.88841,261.40491 131.89573,258.9575 C 112.70531,243.26377 113.60456,245.2814 113.60456,217.91781 C 113.60456,199.2584 115.02791,189.44165 118.79604,182.11293 C 121.65135,176.55953 122.32313,168.96236 123.9875,165.23031 C 125.7874,152.6108 134.88096,151.38886 115.642,148.06518 C 104.56112,146.59526 99.080072,143.81488 91.16791,135.65014 C 81.540222,125.7151 81.016391,124.11602 81.761528,106.93458 C 82.722516,84.77579 91.066222,69.136384 113.06168,48.265672 C 138.77689,23.865416 138.54843,23.878864 159.29157,45.543001 C 169.16202,55.85171 180.6057,71.169771 184.72197,79.583149 C 201.18208,118.47649 199.56533,136.66338 161.53096,145.71402 C 150.4887,147.65461 149.79079,148.51953 139.56976,172.93071 C 127.46788,201.83395 124.48574,233.18053 133.02553,241.72032 C 146.27842,249.33812 150.09284,252.5947 165.37971,253.02439 C 177.64122,253.02439 190.81662,248.43813 197.826,241.73006 C 204.94846,234.91379 216.06793,228.4203 217.74531,230.0977 C 222.44349,234.79586 203.45943,257.55523 186.86795,267.11553 C 179.07804,271.60423 158.41857,271.44376 146.23668,266.79995 z M 133.75323,130.45104 C 134.57871,128.29992 134.11218,120.62396 132.71654,113.39335 C 131.32089,106.16274 130.12087,91.903351 130.04981,81.705815 C 129.93471,65.185614 129.27397,63.164849 123.9875,63.164849 C 120.7243,63.164849 118.0544,64.1797 118.0544,65.42007 C 118.0544,66.66045 114.38328,71.625599 109.89637,76.453736 C 98.713134,88.487443 94.321958,97.698301 94.321958,109.12231 C 94.321958,120.16416 99.444222,125.4812 114.7652,130.34293 C 129.36516,134.97585 132.01112,134.99091 133.75323,130.45104 z M 106.18818,98.763511 C 106.18818,85.262706 107.03995,84.695958 115.49382,92.571931 C 122.84292,99.418641 120.62498,110.62972 111.92137,110.62972 C 107.21034,110.62972 106.18818,108.51411 106.18818,98.763511 z M 164.036,129.6916 C 179.48047,126.58549 181.16185,109.62038 168.59614,83.679978 C 161.80181,69.653908 150.21462,54.265175 146.44775,54.265175 C 146.12562,54.265175 146.34344,69.144441 147.41876,120.58843 C 147.6794,133.05747 148.41876,134.72019 152.91143,132.9409 C 155.76673,131.81006 160.77279,130.34789 164.036,129.6916 z M 153.65306,104.69661 C 153.65306,92.450711 160.02861,87.906831 163.71861,97.522851 C 167.62168,107.69411 165.69683,116.56284 159.58617,116.56284 C 154.64192,116.56284 153.65306,114.58513 153.65306,104.69661 z "
       id="path2197"
       sodipodi:nodetypes="csssccssssccsccsssccsssssssccssccssssccssc" />
  </g>
</svg>
