<?xml version="1.0" encoding="UTF-8" standalone="no"?>
<!-- Created with Inkscape (http://www.inkscape.org/) -->
<svg
   xmlns:dc="http://purl.org/dc/elements/1.1/"
   xmlns:cc="http://web.resource.org/cc/"
   xmlns:rdf="http://www.w3.org/1999/02/22-rdf-syntax-ns#"
   xmlns:svg="http://www.w3.org/2000/svg"
   xmlns="http://www.w3.org/2000/svg"
   xmlns:sodipodi="http://sodipodi.sourceforge.net/DTD/sodipodi-0.dtd"
   xmlns:inkscape="http://www.inkscape.org/namespaces/inkscape"
   width="300"
   height="300"
   id="svg2"
   sodipodi:version="0.32"
   inkscape:version="0.45.1"
   version="1.0"
   sodipodi:docbase="/home/yug/Desktop"
   sodipodi:docname="虫-seal.svg"
   inkscape:output_extension="org.inkscape.output.svg.inkscape">
  <defs
     id="defs4" />
  <sodipodi:namedview
     id="base"
     pagecolor="#ffffff"
     bordercolor="#666666"
     borderopacity="1.0"
     gridtolerance="10000"
     guidetolerance="10"
     objecttolerance="10"
     inkscape:pageopacity="0.0"
     inkscape:pageshadow="2"
     inkscape:zoom="1.27"
     inkscape:cx="150"
     inkscape:cy="150"
     inkscape:document-units="px"
     inkscape:current-layer="layer1"
     width="300px"
     height="300px"
     inkscape:window-width="742"
     inkscape:window-height="577"
     inkscape:window-x="411"
     inkscape:window-y="58" />
  <metadata
     id="metadata7">
    <rdf:RDF>
      <cc:Work
         rdf:about="">
        <dc:format>image/svg+xml</dc:format>
        <dc:type
           rdf:resource="http://purl.org/dc/dcmitype/StillImage" />
      </cc:Work>
    </rdf:RDF>
  </metadata>
  <g
     inkscape:label="Layer 1"
     inkscape:groupmode="layer"
     id="layer1">
    <path
       style="fill:#000000"
       d="M 106.82124,275.53226 C 50.709322,246.12626 122.06637,204.93596 123.46467,193.60002 C 124.78719,182.87833 73.912632,202.75257 74.099368,153.12509 C 74.226339,119.38131 100.09357,112.64319 127.59172,100.68855 C 127.59172,91.923654 127.60622,79.661325 119.81564,69.342747 C 106.90854,55.504575 97.638063,41.985427 97.670703,21.826708 C 100.46887,13.010396 117.96889,12.234295 117.96889,22.440258 C 117.96889,30.567385 124.40279,45.750206 133.13291,52.262781 C 150.91557,65.528433 152.68539,72.244289 150.94015,95.378977 C 226.61707,82.92625 238.21219,169.00916 193.94203,172.60972 C 155.06568,175.77159 139.17513,126.52369 150.36879,135.51643 C 169.10757,150.57074 193.77136,165.76366 198.07512,143.14409 C 205.63294,103.42194 90.731624,112.39655 92.795432,152.29816 C 95.682383,197.55272 149.86739,151.54509 155.37359,191.14806 C 145.53004,214.29042 78.163999,243.59429 125.89215,261.47956 C 157.87668,266.13569 153.57058,227.23837 176.9079,214.66173 C 204.3029,201.53563 229.54974,205.94416 225.46482,216.58927 C 198.11537,232.16791 192.98795,220.33148 175.8948,251.86368 C 158.74094,283.44962 143.67986,294.84837 106.82124,275.53226 z "
       id="path2209"
       sodipodi:nodetypes="csscccsscsssccccccs" />
  </g>
</svg>
