<?xml version="1.0" encoding="UTF-8" standalone="no"?>
<!-- Created with Inkscape (http://www.inkscape.org/) -->
<svg
   xmlns:svg="http://www.w3.org/2000/svg"
   xmlns="http://www.w3.org/2000/svg"
   version="1.0"
   width="300"
   height="300"
   id="svg2">
  <defs
     id="defs5" />
  <path
     d="M 66.482092,269.4878 C 63.518038,265.95747 63.669232,263.81132 68.296416,261.08064 C 88.035613,257.90965 108.24963,261.52617 128.14649,259.44124 C 128.14649,259.44124 128.65122,180.79685 130.77805,128.86604 C 119.33175,123.38385 113.36597,119.98062 102.68398,110.10891 C 92.237235,99.662165 87.307755,76.427119 88.575205,43.607426 C 89.412795,21.918677 89.612305,21.309018 95.872055,21.309018 C 102.27126,21.309018 102.31006,21.465802 102.71176,48.94392 C 103.30707,89.665495 110.27483,104.64211 131.6815,111.21201 C 147.5916,116.09495 188.8404,111.96764 200.63046,104.31304 C 211.13858,97.490725 214.04509,86.023495 214.04509,51.387461 L 214.04509,19.648849 L 221.25929,20.478934 L 228.47348,21.309018 L 229.31622,46.230768 C 230.5244,81.958915 223.90606,107.73709 211.48473,115.68373 C 209.28584,117.0905 202.17447,120.04176 195.6817,122.24209 L 183.87666,126.2427 L 182.45374,148.5411 C 180.56683,178.11071 182.87312,250.62523 183.13155,258.13469 C 216.97638,257.90469 222.13201,253.61496 240.7321,258.49446 C 243.68784,259.26986 241.55623,268.97036 239.97613,271.3846 C 238.63717,273.4304 208.14257,271.84508 208.14257,271.84508 C 190.46781,271.84886 152.39655,272.57545 123.53979,273.4597 C 72.242872,275.03158 70.970572,274.94301 66.482092,269.4878 z M 167.39485,231.83222 C 167.80282,215.60029 167.78224,185.62373 167.34913,165.21765 C 166.58777,129.34626 166.37025,128.08126 160.79077,127.07787 C 144.71144,124.18622 141.89978,127.1932 141.46799,207.17302 C 141.25442,246.73315 140.97881,223.98772 141.17735,259.9439 C 156.68372,260.43267 167.40907,259.5305 167.40907,259.5305 L 167.39485,231.83222 z M 100.03888,242.32559 C 98.720225,238.15907 96.612575,213.00158 94.480845,175.9832 C 93.036805,150.90692 93.395935,146.53979 97.158935,143.41678 C 100.85146,140.35225 102.05719,140.36773 105.18023,143.51977 C 107.94091,146.30608 109.10485,157.93773 109.85649,190.25098 C 110.40689,213.91283 110.32679,236.04728 109.67849,239.43864 C 108.43732,245.93142 101.80842,247.91669 100.03888,242.32559 z M 201.58422,241.14936 C 199.11176,240.22308 198.30504,227.06711 198.30504,187.67263 C 198.30504,138.30908 198.57698,135.42439 203.23051,135.42439 C 213.35521,135.42439 213.78587,139.99123 211.65627,224.77246 C 211.39456,235.19106 206.57922,243.02069 201.58422,241.14936 z M 110.61431,62.834855 C 107.75647,55.387467 116.33063,50.808245 129.80845,52.583786 C 136.14189,53.41814 155.02996,54.118871 171.78193,54.140965 C 204.82391,54.184544 213.68506,56.50754 205.00901,62.851615 C 201.18194,65.650039 189.1684,66.677613 156.16813,67.029204 C 116.4062,67.452837 112.23916,67.069157 110.61431,62.834855 z "
     style="fill:black;fill-opacity:1"
     id="path1875" />
</svg>
