<?xml version="1.0" encoding="UTF-8" standalone="no"?>
<!-- Created with Inkscape (http://www.inkscape.org/) -->
<svg
   xmlns:dc="http://purl.org/dc/elements/1.1/"
   xmlns:cc="http://web.resource.org/cc/"
   xmlns:rdf="http://www.w3.org/1999/02/22-rdf-syntax-ns#"
   xmlns:svg="http://www.w3.org/2000/svg"
   xmlns="http://www.w3.org/2000/svg"
   xmlns:sodipodi="http://sodipodi.sourceforge.net/DTD/sodipodi-0.dtd"
   xmlns:inkscape="http://www.inkscape.org/namespaces/inkscape"
   id="svg2866"
   sodipodi:version="0.32"
   inkscape:version="0.45.1"
   width="300"
   height="300"
   version="1.0"
   sodipodi:docbase="/home/michelet/Images/Temp"
   sodipodi:docname="血-bronze.svg"
   inkscape:output_extension="org.inkscape.output.svg.inkscape">
  <metadata
     id="metadata2871">
    <rdf:RDF>
      <cc:Work
         rdf:about="">
        <dc:format>image/svg+xml</dc:format>
        <dc:type
           rdf:resource="http://purl.org/dc/dcmitype/StillImage" />
      </cc:Work>
    </rdf:RDF>
  </metadata>
  <defs
     id="defs2869" />
  <sodipodi:namedview
     inkscape:window-height="941"
     inkscape:window-width="1269"
     inkscape:pageshadow="2"
     inkscape:pageopacity="0.0"
     guidetolerance="10.0"
     gridtolerance="10.0"
     objecttolerance="10.0"
     borderopacity="1.0"
     bordercolor="#666666"
     pagecolor="#ffffff"
     id="base"
     width="300px"
     height="300px"
     inkscape:zoom="2"
     inkscape:cx="24.5"
     inkscape:cy="138.5"
     inkscape:window-x="0"
     inkscape:window-y="27"
     inkscape:current-layer="svg2866" />
  <path
     style="fill:#000000"
     d="M 49.022713,272.46576 C 49.887499,254.01546 73.783253,263.39964 83.740516,253.82552 C 98.1725,244.51435 101.09943,229.18661 105.613,215.32335 C 110.25156,200.76537 100.20593,185.01679 93.921451,172.72556 C 85.187508,155.68735 74.645281,138.57612 59.548596,126.59881 C 49.600751,126.81565 33.959509,140.17488 30.902393,122.48919 C 34.098056,90.063409 62.633116,48.236176 85.072966,25.854766 C 99.871123,24.564146 95.033975,49.011151 97.132501,59.101079 C 97.843117,90.329125 96.000985,125.02209 115.32923,151.56645 C 126.96989,166.53813 149.2343,176.2089 167.26271,167.41994 C 185.14073,156.10549 192.09273,134.13314 197.34398,114.80826 C 203.68479,89.503243 202.6494,62.947289 208.95342,37.694181 C 229.76505,29.951658 267.72266,95.505707 280.2719,113.61208 C 281.34975,128.11183 260.02219,115.28576 253.41303,111.47039 C 245.36426,107.87007 235.28067,95.008711 229.5114,95.950838 C 222.07514,129.63113 204.99573,181.23259 175.35085,202.02655 C 167.06923,218.66995 173.42944,230.36387 174.36164,248.3095 C 178.54784,264.99305 199.16182,264.33913 212.38622,269.29923 C 225.63022,271.25786 223.85319,283.09697 211.01167,281.60362 C 168.4294,287.13092 125.36765,284.5782 82.56295,284.81875 C 73.138387,283.48998 48.575494,287.34124 49.022713,272.46576 z M 139.35857,207.48003 C 127.50942,208.33061 119.7896,238.66309 113.40539,251.11418 C 125.01225,266.88128 137.09419,262.02096 149.14028,257.97074 C 162.97735,245.54006 151.39368,210.81699 139.35857,207.48003 z M 140.30901,103.47558 C 136.69696,82.845023 137.73521,60.09971 148.42263,41.673654 C 162.65586,30.482698 171.2091,55.895024 172.05469,67.139335 C 174.78294,83.818 175.42843,103.48345 163.77113,117.05394 C 153.96192,125.64073 141.52025,113.60694 140.30901,103.47558 z "
     id="path2875"
     sodipodi:nodetypes="cccccccccccccccccccccccccccccc" />
</svg>
