<?xml version="1.0" encoding="UTF-8" standalone="no"?>
<!-- Created with Inkscape (http://www.inkscape.org/) -->
<svg
   xmlns:svg="http://www.w3.org/2000/svg"
   xmlns="http://www.w3.org/2000/svg"
   version="1.0"
   width="300"
   height="300"
   id="svg2">
  <defs
     id="defs5" />
  <path
     d="M 49.734435,251.13018 C 42.641925,239.65426 57.004945,232.17023 88.812185,230.76824 L 120.2931,229.38064 L 122.99222,131.94537 L 105.10818,133.42163 L 87.224135,134.89788 L 85.828065,164.02376 C 84.379455,194.24554 76.982465,206.82352 63.663605,201.71259 C 58.429645,199.70413 56.509915,191.66145 56.489875,171.65822 C 56.465625,147.44574 54.224595,129.79517 43.885735,72.386767 C 41.741445,60.480177 42.991705,56.404838 49.562325,53.883457 C 60.644805,49.630708 75.413795,67.654107 75.413795,85.431411 C 75.413795,113.12244 76.560745,113.66978 133.78991,113.28909 C 162.74253,113.0965 195.99741,111.5021 207.68965,109.74599 L 228.94827,106.55305 L 230.34435,77.427167 C 231.81777,46.687612 238.52597,35.680012 252.51441,41.047879 C 259.29791,43.650955 260.23304,47.930778 257.83732,65.409432 C 256.23886,77.071468 254.93103,109.2946 254.93103,137.01638 C 254.93103,174.25447 253.10359,189.81484 247.9346,196.58979 C 241.87881,204.52705 240.30067,204.80723 236.19659,198.67374 C 233.58873,194.77633 231.42247,180.60063 231.38268,167.17219 C 231.28067,132.74305 228.4686,127.81167 208.93772,127.81167 L 192.3001,127.81167 C 196.82987,160.8968 193.46292,195.68319 201.39973,228.29647 C 202.63345,230.29846 217.30856,230.53635 234.01108,228.82513 C 264.99598,225.65063 270.54255,228.90718 260.65074,244.46601 C 255.45152,252.64386 54.592245,258.99027 49.734435,251.13018 z M 168.87534,180.95823 C 167.62943,133.77012 166.86539,130.17374 158.0862,130.17374 C 149.30702,130.17374 148.54297,133.77012 147.29707,180.95823 L 145.95621,231.74271 L 158.0862,231.74271 L 170.2162,231.74271 L 168.87534,180.95823 z M 100.85227,73.769225 C 96.008355,61.146162 103.22021,58.335248 148.79012,55.084838 C 182.33104,52.692436 193.44832,53.50897 200.75564,58.901564 C 215.94927,70.114041 204.26271,74.819027 152.26404,78.424196 C 109.29444,81.403361 103.58333,80.886261 100.85227,73.769225 z "
     style="fill:black;fill-opacity:1"
     id="path1875" />
</svg>
