<?xml version="1.0" encoding="UTF-8" standalone="no"?>
<!-- Created with Inkscape (http://www.inkscape.org/) -->
<svg
   xmlns:dc="http://purl.org/dc/elements/1.1/"
   xmlns:cc="http://web.resource.org/cc/"
   xmlns:rdf="http://www.w3.org/1999/02/22-rdf-syntax-ns#"
   xmlns:svg="http://www.w3.org/2000/svg"
   xmlns="http://www.w3.org/2000/svg"
   xmlns:sodipodi="http://sodipodi.sourceforge.net/DTD/sodipodi-0.dtd"
   xmlns:inkscape="http://www.inkscape.org/namespaces/inkscape"
   id="svg2178"
   sodipodi:version="0.32"
   inkscape:version="0.45.1"
   width="300"
   height="300"
   version="1.0"
   sodipodi:docbase="C:\Documents and Settings\L'équipage\Mes documents\Bertrand\Gifs"
   sodipodi:docname="血-oracle.svg"
   inkscape:output_extension="org.inkscape.output.svg.inkscape">
  <metadata
     id="metadata2183">
    <rdf:RDF>
      <cc:Work
         rdf:about="">
        <dc:format>image/svg+xml</dc:format>
        <dc:type
           rdf:resource="http://purl.org/dc/dcmitype/StillImage" />
      </cc:Work>
    </rdf:RDF>
  </metadata>
  <defs
     id="defs2181" />
  <sodipodi:namedview
     inkscape:window-height="579"
     inkscape:window-width="752"
     inkscape:pageshadow="2"
     inkscape:pageopacity="0.0"
     guidetolerance="10.0"
     gridtolerance="10.0"
     objecttolerance="10.0"
     borderopacity="1.0"
     bordercolor="#666666"
     pagecolor="#ffffff"
     id="base"
     width="300px"
     height="300px"
     inkscape:zoom="1"
     inkscape:cx="30.5"
     inkscape:cy="136.5"
     inkscape:window-x="66"
     inkscape:window-y="66"
     inkscape:current-layer="svg2178" />
  <path
     style="fill:#000000"
     d="M 75.209668,280.77048 C 58.380877,275.28989 38.420578,271.32488 27.648729,255.9706 C 22.057363,245.61667 24.786593,231.99278 31.394624,222.81748 C 43.613291,220.84859 31.768949,244.76701 43.248404,249.5492 C 54.98592,263.03046 71.675185,251.74893 70.337572,235.88602 C 73.298024,218.93708 71.404987,198.8539 69.696645,181.63337 C 66.260434,168.34612 51.391141,169.29133 52.050263,153.29959 C 50.049871,131.46949 50.58057,109.43885 48.232017,87.602727 C 47.072378,70.448551 44.513095,53.385452 42.819816,36.327194 C 49.369095,22.760299 58.472421,43.263242 57.939231,50.954087 C 61.228105,63.299474 66.488694,80.282954 81.768811,81.013906 C 94.725467,81.975662 107.10665,99.633014 119.7514,88.153358 C 121.75671,78.801799 129.27719,68.954128 137.18058,80.663069 C 144.30233,94.036766 149.71228,74.747167 160.33767,75.994481 C 172.45166,72.073975 221.49214,53.376845 230.59337,43.816745 C 239.98399,35.823374 244.24874,24.323589 246.20386,12.591082 C 256.20403,0.30921901 258.98147,24.272163 255.63877,31.336934 C 249.93377,58.854577 241.6535,86.166523 228.88237,111.27674 C 215.44571,138.40832 189.6935,155.07169 166.28096,172.68402 C 164.35576,176.19989 165.68616,181.42953 165.00162,185.5985 C 164.47767,207.70351 162.22126,229.84514 163.50263,251.9315 C 166.47748,263.70885 186.8266,253.52302 188.44748,244.50447 C 191.13065,232.64689 185.34805,218.84294 192.38606,208.20428 C 206.22049,208.86677 208.68817,226.79066 208.06007,237.94295 C 207.27434,252.37265 202.78366,269.55435 187.32222,274.52654 C 163.81099,283.25448 138.7347,287.49765 113.84812,289.97915 C 101.03614,289.90487 89.072577,283.79323 76.634603,281.17202 L 75.20967,280.77048 L 75.209668,280.77048 z M 138.35468,263.64772 C 150.05088,255.90032 146.27176,239.55674 147.06517,227.63403 C 146.63786,209.47692 145.95689,191.32667 145.41148,173.17276 C 170.64543,152.0485 197.97582,132.35561 216.00503,104.21664 C 221.16542,97.485014 235.31192,72.625236 217.66578,76.091058 C 203.1044,81.377607 189.9295,90.438061 174.32237,92.89205 C 162.3658,92.322959 147.12306,97.109632 153.94008,112.11338 C 157.9777,133.56814 147.5338,154.86891 133.47312,170.46138 C 120.87914,174.57255 110.19048,159.1721 99.748737,153.49298 C 87.368441,146.10289 87.090477,129.98277 96.788387,120.17546 C 106.79162,109.13157 93.000919,98.192137 83.118683,94.190105 C 69.277175,84.451398 60.990313,98.66278 64.313357,111.40186 C 63.906219,131.73023 69.266631,152.53551 82.540746,168.3362 C 94.170052,185.30956 87.634641,206.4991 86.085317,225.36417 C 84.434258,238.43095 82.783197,251.49774 81.132136,264.56454 C 100.07369,266.08617 120.16933,271.343 138.35468,263.64772 z M 138.06761,124.78593 C 142.68444,112.1565 130.11612,97.2038 119.76423,111.37679 C 112.12134,118.11349 100.77081,135.69927 115.53476,140.87897 C 127.33117,145.05597 138.9281,137.81654 138.06761,124.78593 z "
     id="path2329"
     sodipodi:nodetypes="ccccccccccccccccccccccccccccccccccccccccccccccccc" />
</svg>
