<?xml version="1.0" encoding="UTF-8" standalone="no"?>
<!-- Created with Inkscape (http://www.inkscape.org/) -->
<svg
   xmlns:dc="http://purl.org/dc/elements/1.1/"
   xmlns:cc="http://web.resource.org/cc/"
   xmlns:rdf="http://www.w3.org/1999/02/22-rdf-syntax-ns#"
   xmlns:svg="http://www.w3.org/2000/svg"
   xmlns="http://www.w3.org/2000/svg"
   xmlns:sodipodi="http://sodipodi.sourceforge.net/DTD/sodipodi-0.dtd"
   xmlns:inkscape="http://www.inkscape.org/namespaces/inkscape"
   width="300"
   height="300"
   id="svg2"
   sodipodi:version="0.32"
   inkscape:version="0.45.1"
   version="1.0"
   sodipodi:docbase="C:\Documents and Settings\Martin\桌面"
   sodipodi:docname="drawing.svg"
   inkscape:output_extension="org.inkscape.output.svg.inkscape">
  <defs
     id="defs4" />
  <sodipodi:namedview
     id="base"
     pagecolor="#ffffff"
     bordercolor="#666666"
     borderopacity="1.0"
     gridtolerance="10000"
     guidetolerance="10"
     objecttolerance="10"
     inkscape:pageopacity="0.0"
     inkscape:pageshadow="2"
     inkscape:zoom="0.98994949"
     inkscape:cx="194.54041"
     inkscape:cy="122.25833"
     inkscape:document-units="px"
     inkscape:current-layer="layer1"
     width="300px"
     height="300px"
     inkscape:window-width="742"
     inkscape:window-height="577"
     inkscape:window-x="44"
     inkscape:window-y="0" />
  <metadata
     id="metadata7">
    <rdf:RDF>
      <cc:Work
         rdf:about="">
        <dc:format>image/svg+xml</dc:format>
        <dc:type
           rdf:resource="http://purl.org/dc/dcmitype/StillImage" />
      </cc:Work>
    </rdf:RDF>
  </metadata>
  <g
     inkscape:label="Layer 1"
     inkscape:groupmode="layer"
     id="layer1">
    <path
       style="fill:#000000"
       d="M 56.232045,286.71615 C 53.177816,284.37962 53.144615,284.06759 55.744861,282.13756 C 68.934875,272.3473 94.268783,248.13049 97.940422,241.80264 C 103.33576,232.50408 109.39348,219.51343 109.44157,217.13872 C 109.46985,215.74164 110.2869,213.80468 111.25724,212.83435 C 113.22177,210.8698 114.54666,168.1508 112.84927,161.50151 C 112.27406,159.24816 112.99629,147.93828 112.13557,147.93828 C 108.40318,145.85446 101.49644,145.94884 96.588374,145.80576 C 95.986446,146.17775 92.190975,146.94625 88.153992,147.5135 C 84.117008,148.08075 78.601643,149.23249 75.897626,150.07291 C 69.505162,152.05972 62.519133,152.20572 55.535171,150.49845 C 49.85262,149.10933 46.518913,143.11352 51.042518,143.11352 C 59.26305,142.64616 67.566235,136.64229 77.211328,135.28073 C 79.76199,135.28073 83.225791,134.54384 84.908664,133.64319 C 89.765746,131.04376 123.4567,130.94991 126.5621,133.52717 C 128.77252,135.36166 129.15859,140.5358 129.15859,168.32645 C 129.15859,211.63473 125.04503,231.66071 113.6597,243.77961 C 103.72035,257.83383 91.763851,270.90023 76.492422,279.495 C 75.211234,279.495 78.733906,277.21393 77.43461,279.01661 C 76.135314,280.81929 68.169677,286.05019 66.619173,286.05019 C 61.598464,287.26509 61.531793,290.48635 56.232045,286.71615 z M 222.52281,280.30161 C 210.14699,275.97261 200.07718,269.64951 193.03926,261.78807 C 180.27572,247.53105 176.27196,241.42877 173.47523,231.96984 C 172.276,227.91381 170.24,221.27669 168.95081,217.22065 C 167.66162,213.16463 166.28053,205.79004 165.88171,200.83267 C 165.4829,195.8753 164.35277,186.17661 163.37033,179.28 C 162.38789,172.38338 161.93327,158.74038 162.36005,148.96222 L 163.13602,131.18374 L 182.61056,131.50499 C 193.32158,131.68169 206.14114,132.56793 211.0985,133.47442 C 216.05587,134.38091 224.90538,135.92837 230.76409,136.91321 C 236.62278,137.89806 243.37407,139.46894 245.76693,140.40406 C 251.24427,142.54459 252.88219,147.84031 248.75078,150.05136 C 244.98233,152.06819 236.18157,152.16651 234.96951,150.20533 C 234.47206,149.40048 227.68266,148.65223 219.88194,148.54254 C 212.08121,148.43287 201.50832,147.95572 196.38665,147.48222 C 191.26498,147.00871 185.05133,147.39051 182.57854,148.33066 L 178.08256,150.04003 L 178.54559,175.55165 C 178.80026,189.58305 179.59172,201.42365 180.30439,201.86409 C 181.01705,202.30454 181.60014,204.59705 181.60014,206.95854 C 181.60014,214.94903 191.65886,238.98508 197.40916,244.7354 C 198.62891,245.95515 199.62692,247.49793 199.62692,248.16377 C 199.62692,250.58382 210.05153,259.94978 219.88048,266.3605 C 233.19924,275.04739 234.31176,276.06966 233.72327,279.08037 C 233.0695,282.42518 229.65736,282.79722 222.52281,280.30161 z M 206.18211,107.94518 C 183.18655,103.84967 165.4357,93.288147 162.60725,82.01873 C 160.99552,75.59708 162.93503,26.730112 165.06661,20.053605 C 166.17757,16.573884 167.92198,14.092127 169.00451,14.451201 C 171.66775,15.334599 173.10557,25.724918 174.0459,50.882619 C 175.00315,76.493391 176.66879,80.781892 187.75436,86.177636 C 200.8748,92.563826 211.29224,95.949576 217.82113,95.949576 C 224.19713,95.949576 230.50755,99.114797 231.71478,102.91843 C 233.86515,109.69365 225.37958,111.36425 206.18211,107.94518 z M 49.865227,106.24387 C 49.550984,105.92963 49.768183,103.35341 50.34789,100.51895 C 51.310273,95.813447 52.395458,95.054872 62.830367,91.793426 C 76.644889,87.475674 98.739197,78.652146 105.00592,74.950301 C 110.56909,71.664057 113.32048,62.755661 112.09987,51.981573 C 109.84027,32.036361 109.13693,12.78435 110.63406,11.859073 C 113.49188,10.092842 118.6788,15.255386 120.49718,21.675847 C 125.75813,32.97201 123.82885,46.003598 127.5624,57.549898 C 129.60776,72.333431 128.38712,76.929628 118.41448,85.237867 C 115.93811,87.365745 112.36463,89.833725 110.47339,90.722264 C 95.995426,97.524337 82.171125,102.44744 77.454484,102.48092 C 68.505586,104.82024 59.385339,107.46465 49.865227,106.24387 z "
       id="path2208"
       sodipodi:nodetypes="csssssccsssccsssccscccssssscccssssssscccssssssccsssssssccssssscccscc" />
  </g>
</svg>
