<?xml version="1.0" encoding="UTF-8" standalone="no"?>
<!-- Created with Inkscape (http://www.inkscape.org/) -->
<svg
   xmlns:dc="http://purl.org/dc/elements/1.1/"
   xmlns:cc="http://web.resource.org/cc/"
   xmlns:rdf="http://www.w3.org/1999/02/22-rdf-syntax-ns#"
   xmlns:svg="http://www.w3.org/2000/svg"
   xmlns="http://www.w3.org/2000/svg"
   xmlns:sodipodi="http://sodipodi.sourceforge.net/DTD/sodipodi-0.dtd"
   xmlns:inkscape="http://www.inkscape.org/namespaces/inkscape"
   width="300"
   height="300"
   id="svg2"
   sodipodi:version="0.32"
   inkscape:version="0.45.1"
   version="1.0"
   sodipodi:docbase="C:\Documents and Settings\Martin\桌面"
   sodipodi:docname="drawing.svg"
   inkscape:output_extension="org.inkscape.output.svg.inkscape">
  <defs
     id="defs4" />
  <sodipodi:namedview
     id="base"
     pagecolor="#ffffff"
     bordercolor="#666666"
     borderopacity="1.0"
     gridtolerance="10000"
     guidetolerance="10"
     objecttolerance="10"
     inkscape:pageopacity="0.0"
     inkscape:pageshadow="2"
     inkscape:zoom="0.98994949"
     inkscape:cx="187.37182"
     inkscape:cy="145.57782"
     inkscape:document-units="px"
     inkscape:current-layer="layer1"
     width="300px"
     height="300px"
     inkscape:window-width="742"
     inkscape:window-height="577"
     inkscape:window-x="50"
     inkscape:window-y="0" />
  <metadata
     id="metadata7">
    <rdf:RDF>
      <cc:Work
         rdf:about="">
        <dc:format>image/svg+xml</dc:format>
        <dc:type
           rdf:resource="http://purl.org/dc/dcmitype/StillImage" />
      </cc:Work>
    </rdf:RDF>
  </metadata>
  <g
     inkscape:label="Layer 1"
     inkscape:groupmode="layer"
     id="layer1">
    <path
       style="fill:#000000"
       d="M 182.59029,277.37883 C 176.94315,268.73279 174.14898,262.10758 166.57338,239.40135 C 164.81048,234.11746 163.15626,218.98629 162.8973,205.77656 C 162.63835,192.56681 161.63666,175.11017 160.67136,166.98399 C 159.09623,153.72427 159.40306,151.94862 163.66348,149.66851 C 170.29259,146.12072 172.77365,127.18087 167.89132,117.39404 C 163.80572,109.20423 163.06912,92.72849 166.68857,90.491543 C 170.08794,88.390611 169.67489,74.023521 166.11269,70.461339 C 164.35368,68.702307 163.2152,61.586736 163.33085,53.074643 C 163.50759,40.064453 164.32131,37.84329 171.71245,30.195549 C 185.83948,15.578084 207.56133,8.8042467 207.48895,19.038854 C 207.46082,23.013967 193.45585,34.049923 188.43944,34.049923 C 162.09644,59.485393 178.14361,74.293736 206.0009,85.802707 C 216.12713,87.723523 222.87005,92.981911 221.10504,97.581467 C 219.1232,102.74607 208.01614,102.26435 196.07697,96.495975 C 181.41284,89.411035 178.69743,90.069067 178.69743,100.7076 C 178.69743,108.57784 180.27827,111.09427 191.14521,120.5222 C 212.78703,139.29822 216.0684,143.52476 219.05753,156.47432 C 227.54888,193.26087 214.91159,235.7987 195.49154,235.7987 C 189.6967,235.7987 189.01402,228.22699 194.32961,222.91139 C 205.81333,211.42765 210.37899,184.54396 204.707,161.80689 C 201.98804,150.90764 189.54978,134.92431 183.78689,134.92431 C 177.24233,134.92431 174.3225,181.63674 178.38075,221.41417 C 180.22881,239.52835 189.02283,263.27959 196.73831,270.99507 C 202.05421,276.31097 200.3809,284.85448 193.84157,285.78503 C 189.95895,286.33752 186.99554,284.12346 182.59029,277.37883 z M 99.438979,281.17526 C 99.438979,279.71289 102.59159,271.87712 106.44477,263.76242 C 123.62402,227.58344 127.53507,211.69891 126.95042,180.47949 C 126.49589,156.20729 122.76676,144.50014 113.99419,139.80523 C 110.23114,137.79131 108.44127,138.53816 104.24458,143.87337 C 101.41738,147.46761 98.499519,153.43168 97.760499,157.12691 C 89.596681,176.11688 91.731606,187.73011 97.367349,208.52469 C 102.82012,224.05175 102.13933,231.8718 95.44797,230.57222 C 90.862009,229.68152 85.084212,219.97422 80.33197,205.17568 C 77.609108,196.69666 77.576641,192.01849 80.140242,177.55531 C 84.304715,154.06044 90.411149,141.96584 104.6525,129.00551 C 117.12343,118.66066 125.71862,114.54983 128.26023,96.867589 C 128.26023,88.13744 124.84155,85.468514 117.82369,88.719851 C 93.641267,99.923405 85.028345,101.02574 85.028345,92.917206 C 85.028345,89.318454 86.734854,88.317794 103.58172,82.037975 C 129.82052,72.25722 131.73797,47.01312 107.63482,28.677048 C 94.038037,18.333499 92.364971,13.225231 102.9845,14.478393 C 118.20389,16.274363 129.57732,23.937425 135.07372,36.099103 C 140.8782,48.942475 141.72665,60.602441 137.36494,67.586641 C 135.01776,71.345061 135.24806,73.887889 138.56582,80.845277 C 140.82358,85.579873 142.67085,92.097078 142.67085,95.327964 C 142.67085,103.64175 136.12267,118.97962 130.99561,122.675 C 126.885,125.63775 127.02642,126.49547 133.74784,139.3679 C 140.77737,152.83047 140.82371,153.18403 139.61743,184.16061 C 138.61179,209.98482 137.25086,218.70598 131.74679,234.5978 C 128.08668,245.1656 124.44809,254.35235 123.66103,255.01283 C 122.87399,255.67333 119.03544,262.4283 115.13093,270.0239 C 110.49421,279.04386 106.54154,283.83409 103.73538,283.83409 C 101.37236,283.83409 99.438979,282.63762 99.438979,281.17526 z "
       id="path2318"
       sodipodi:nodetypes="cssssssssssccssssssssssssccssssccsssccssssssssssssssssc" />
  </g>
</svg>
