<?xml version="1.0" encoding="UTF-8" standalone="no"?>
<!-- Created with Inkscape (http://www.inkscape.org/) -->
<svg
   xmlns:dc="http://purl.org/dc/elements/1.1/"
   xmlns:cc="http://web.resource.org/cc/"
   xmlns:rdf="http://www.w3.org/1999/02/22-rdf-syntax-ns#"
   xmlns:svg="http://www.w3.org/2000/svg"
   xmlns="http://www.w3.org/2000/svg"
   xmlns:sodipodi="http://sodipodi.sourceforge.net/DTD/sodipodi-0.dtd"
   xmlns:inkscape="http://www.inkscape.org/namespaces/inkscape"
   width="300"
   height="300"
   id="svg2"
   sodipodi:version="0.32"
   inkscape:version="0.45.1"
   version="1.0"
   sodipodi:docbase="C:\Documents and Settings\Martin\桌面"
   sodipodi:docname="drawing.svg"
   inkscape:output_extension="org.inkscape.output.svg.inkscape">
  <defs
     id="defs4" />
  <sodipodi:namedview
     id="base"
     pagecolor="#ffffff"
     bordercolor="#666666"
     borderopacity="1.0"
     gridtolerance="10000"
     guidetolerance="10"
     objecttolerance="10"
     inkscape:pageopacity="0.0"
     inkscape:pageshadow="2"
     inkscape:zoom="0.98994949"
     inkscape:cx="194.54041"
     inkscape:cy="122.25833"
     inkscape:document-units="px"
     inkscape:current-layer="layer1"
     width="300px"
     height="300px"
     inkscape:window-width="742"
     inkscape:window-height="577"
     inkscape:window-x="44"
     inkscape:window-y="0" />
  <metadata
     id="metadata7">
    <rdf:RDF>
      <cc:Work
         rdf:about="">
        <dc:format>image/svg+xml</dc:format>
        <dc:type
           rdf:resource="http://purl.org/dc/dcmitype/StillImage" />
      </cc:Work>
    </rdf:RDF>
  </metadata>
  <g
     inkscape:label="Layer 1"
     inkscape:groupmode="layer"
     id="layer1">
    <path
       style="fill:#000000"
       d="M 79.374497,275.07845 C 70.509806,253.14998 81.81483,227.75056 89.938458,206.31319 C 93.51774,199.46397 97.519067,184.84646 98.830218,173.82983 L 101.21418,153.79957 L 85.35088,160.42766 C 67.1081,168.05 59.501385,173.50475 48.859174,186.59572 C 40.841049,196.45887 31.612015,198.69626 27.355409,191.80898 C 22.063356,183.24624 46.81084,159.06371 74.295597,145.94033 C 108.38307,129.66433 116.58788,122.72978 116.58788,110.19572 C 116.58788,98.819085 113.18388,98.435804 85.833031,106.73297 C 62.66253,113.76199 41.868967,114.81427 41.868967,108.95781 C 59.522315,90.809335 86.743727,93.090656 105.5399,77.161366 C 116.23113,67.24789 117.00303,64.607166 114.50941,46.476162 C 111.19724,22.393868 117.09048,16.716823 131.42385,30.182304 C 143.47751,41.506111 144.09123,52.101632 133.85628,72.17684 C 127.33329,84.971331 127.00888,88.583497 131.63369,96.92308 C 139.17926,110.52948 138.73656,113.85386 127.09394,131.01019 C 121.45685,139.31688 117.89119,148.84039 119.17024,152.17351 C 120.4493,155.50665 119.49294,164.38171 117.04503,171.8959 C 107.9605,199.78186 103.59318,246.87236 108.90267,259.6906 C 113.24683,270.17834 112.88472,272.51389 106.15106,277.43767 C 95.219386,285.43113 84.405112,284.47831 79.374497,275.07845 z M 196.98503,269.61671 C 216.15267,221.54185 184.37365,202.26633 191.78041,155.06555 C 196.26769,141.46902 195.83868,139.8337 185.65408,131.71278 C 176.96984,124.78822 174.70257,119.40071 174.70257,105.68966 C 174.70257,96.179777 176.79258,83.811927 179.34701,78.20556 C 183.00637,70.17414 182.5894,65.201723 177.38108,54.761389 C 171.46583,42.904027 171.42521,40.24506 176.99433,29.475546 C 188.33428,7.5464688 199.96167,14.951637 203.65224,46.453262 C 205.66771,63.656459 207.27084,65.790729 224.51516,74.227835 C 234.78902,79.2545 247.1691,83.477488 252.02649,83.612246 C 262.39598,83.899935 272.09018,94.007175 268.13486,100.407 C 264.5026,106.2841 239.37826,101.5223 219.47923,91.185304 C 201.38307,81.784851 195.45782,84.06367 195.45782,100.42379 C 195.45782,113.84834 203.64921,120.7397 242.45501,139.96219 C 266.25668,151.75233 277.12861,163.13917 272.19923,171.11507 C 267.53309,178.66505 257.82386,175.24931 241.16159,160.19596 C 211.65261,133.53638 205.67883,146.72103 220.66786,205.42733 C 232.53234,251.89581 225.98219,283.10762 204.3658,283.10762 C 195.51349,283.10762 194.76576,281.74084 196.98503,269.61671 z "
       id="path2186"
       sodipodi:nodetypes="cccccsssssccssssssssscccssssssssssssssssc" />
  </g>
</svg>
