<?xml version="1.0" encoding="UTF-8" standalone="no"?>
<!-- Created with Inkscape (http://www.inkscape.org/) -->
<svg
   xmlns:dc="http://purl.org/dc/elements/1.1/"
   xmlns:cc="http://web.resource.org/cc/"
   xmlns:rdf="http://www.w3.org/1999/02/22-rdf-syntax-ns#"
   xmlns:svg="http://www.w3.org/2000/svg"
   xmlns="http://www.w3.org/2000/svg"
   xmlns:sodipodi="http://sodipodi.sourceforge.net/DTD/sodipodi-0.dtd"
   xmlns:inkscape="http://www.inkscape.org/namespaces/inkscape"
   width="300"
   height="300"
   id="svg2"
   sodipodi:version="0.32"
   inkscape:version="0.45.1"
   version="1.0"
   sodipodi:docbase="C:\Documents and Settings\Martin\桌面"
   sodipodi:docname="drawing.svg"
   inkscape:output_extension="org.inkscape.output.svg.inkscape">
  <defs
     id="defs4" />
  <sodipodi:namedview
     id="base"
     pagecolor="#ffffff"
     bordercolor="#666666"
     borderopacity="1.0"
     gridtolerance="10000"
     guidetolerance="10"
     objecttolerance="10"
     inkscape:pageopacity="0.0"
     inkscape:pageshadow="2"
     inkscape:zoom="0.98994949"
     inkscape:cx="178.78552"
     inkscape:cy="154.16412"
     inkscape:document-units="px"
     inkscape:current-layer="layer1"
     width="300px"
     height="300px"
     inkscape:window-width="742"
     inkscape:window-height="577"
     inkscape:window-x="50"
     inkscape:window-y="0" />
  <metadata
     id="metadata7">
    <rdf:RDF>
      <cc:Work
         rdf:about="">
        <dc:format>image/svg+xml</dc:format>
        <dc:type
           rdf:resource="http://purl.org/dc/dcmitype/StillImage" />
      </cc:Work>
    </rdf:RDF>
  </metadata>
  <g
     inkscape:label="Layer 1"
     inkscape:groupmode="layer"
     id="layer1">
    <path
       style="fill:#000000"
       d="M 205.94019,285.60257 C 203.53918,281.89317 201.61653,268.41532 194.04229,202.19614 C 192.21158,186.19086 189.81029,169.0943 188.70613,164.2038 C 187.157,157.34265 187.89225,155.31198 191.92554,155.31198 C 194.80042,155.31198 197.15258,156.54603 197.15258,158.05432 C 197.15258,159.56261 203.29217,163.56391 210.79613,166.94614 C 225.66304,173.64706 242.42005,186.48113 242.42005,191.16672 C 242.42005,195.6199 228.92061,194.4842 219.78632,189.26258 C 215.34042,186.72106 210.94477,184.59011 210.01828,184.52708 C 209.09175,184.46407 208.87999,204.41909 209.54776,228.8716 C 210.87191,277.36339 209.95372,291.80307 205.94019,285.60257 z M 101.8079,275.01269 C 100.62425,273.0975 100.66987,262.06128 101.90929,250.48779 C 106.57763,206.89555 103.87332,160.1174 97.691465,177.52922 C 95.350136,184.12378 70.899271,207.04622 66.206297,207.04622 C 63.970956,207.04622 60.509547,205.07922 58.514288,202.6751 C 55.673074,199.25165 58.93301,194.16916 73.550166,179.23302 C 83.815177,168.744 94.729422,156.20849 97.804084,151.37633 C 102.34331,144.2424 104.74922,143.09174 110.60042,145.25623 C 117.53404,147.82115 117.84946,149.73288 118.94317,195.82451 C 119.67787,226.78571 118.70033,248.65432 116.17915,257.65912 C 111.89944,272.94468 105.38871,280.80654 101.8079,275.01269 z M 216.55293,127.95043 C 208.55029,123.73736 196.77612,115.43873 190.3881,109.50898 C 179.52781,99.42779 178.53042,96.82371 175.0295,69.408178 C 172.97029,53.282465 171.28546,35.749407 171.28546,30.445827 C 171.28546,21.574714 176.10714,13.042831 181.12049,13.042831 C 185.42475,13.042831 190.45352,38.092673 190.29444,58.741067 C 190.0899,85.29364 194.42809,94.111523 217.85608,114.76308 C 243.00163,136.9287 242.53707,141.63002 216.55293,127.95043 z M 68.061712,120.66739 C 72.373018,115.83983 79.756754,108.11643 84.469972,103.50429 C 89.18322,98.89214 97.549617,88.006872 103.06196,79.314806 C 111.27283,66.367634 113.08443,60.153185 113.08443,44.934522 C 113.08443,25.157094 117.04964,18.493863 122.62238,28.906658 C 127.1775,37.417922 126.68013,70.66141 121.83044,81.843094 C 119.68767,86.78349 107.02184,99.50475 93.684098,110.11252 C 67.992388,130.54574 54.145912,136.24962 68.061712,120.66739 z "
       id="path2306" />
  </g>
</svg>
