<?xml version="1.0" encoding="UTF-8" standalone="no"?>
<!-- Created with Inkscape (http://www.inkscape.org/) -->
<svg
   xmlns:dc="http://purl.org/dc/elements/1.1/"
   xmlns:cc="http://web.resource.org/cc/"
   xmlns:rdf="http://www.w3.org/1999/02/22-rdf-syntax-ns#"
   xmlns:svg="http://www.w3.org/2000/svg"
   xmlns="http://www.w3.org/2000/svg"
   xmlns:sodipodi="http://sodipodi.sourceforge.net/DTD/sodipodi-0.dtd"
   xmlns:inkscape="http://www.inkscape.org/namespaces/inkscape"
   id="svg2300"
   sodipodi:version="0.32"
   inkscape:version="0.45.1"
   width="300"
   height="300"
   version="1.0"
   sodipodi:docbase="/home/michelet/Images/Temp"
   sodipodi:docname="衣-bronze.svg"
   inkscape:output_extension="org.inkscape.output.svg.inkscape">
  <metadata
     id="metadata2305">
    <rdf:RDF>
      <cc:Work
         rdf:about="">
        <dc:format>image/svg+xml</dc:format>
        <dc:type
           rdf:resource="http://purl.org/dc/dcmitype/StillImage" />
      </cc:Work>
    </rdf:RDF>
  </metadata>
  <defs
     id="defs2303" />
  <sodipodi:namedview
     inkscape:window-height="941"
     inkscape:window-width="1269"
     inkscape:pageshadow="2"
     inkscape:pageopacity="0.0"
     guidetolerance="10.0"
     gridtolerance="10.0"
     objecttolerance="10.0"
     borderopacity="1.0"
     bordercolor="#666666"
     pagecolor="#ffffff"
     id="base"
     width="300px"
     height="300px"
     inkscape:zoom="2"
     inkscape:cx="40.5"
     inkscape:cy="120.5"
     inkscape:window-x="0"
     inkscape:window-y="27"
     inkscape:current-layer="svg2300" />
  <path
     style="fill:#000000"
     d="M 127.61155,285.77496 C 114.40752,284.54768 103.20147,276.29196 92.107564,269.7956 C 82.049452,259.3476 75.041294,245.50633 72.496661,231.20481 C 70.300705,198.05231 74.836547,164.82759 78.050308,131.83482 C 65.941748,129.0809 45.795644,129.12022 40.302305,118.89593 C 52.020173,110.40482 68.176665,115.62063 81.727377,113.47687 C 94.218318,109.81763 116.90496,114.61648 106.13436,131.67604 C 91.001174,165.42225 85.830083,205.95099 101.30397,240.21518 C 103.75157,255.13427 118.38561,261.21923 131.37853,264.43324 C 145.05823,268.05968 160.04653,269.72528 171.43283,278.9116 C 173.50188,295.31712 148.48905,286.5165 138.47593,287.23517 C 134.8452,286.82085 131.22383,286.32684 127.61155,285.77496 z M 159.31226,225.34261 C 159.39309,211.40885 183.371,169.0003 180.19147,124.4602 C 175.30542,111.37379 185.19239,95.444745 199.35137,104.0696 C 213.8985,110.53261 224.46711,123.8317 240.12008,128.29519 C 247.29657,130.49031 268.38203,138.70404 254.33023,145.67234 C 240.08944,145.91559 226.55216,138.94604 212.19471,139.3367 C 195.21561,156.41214 189.22719,198.19672 177.51364,222.87685 C 175.63428,231.95061 162.23512,235.98933 159.31226,225.34261 z M 48.891308,72.68277 C 40.994701,56.399503 68.999548,63.064676 78.030842,60.078023 C 97.741174,56.637678 117.33995,46.573559 128.16741,29.212306 C 126.99823,13.375741 146.09763,8.8227136 155.39705,19.768638 C 169.66085,28.433022 182.11297,39.991545 197.28066,47.132176 C 212.51974,57.982396 232.36434,55.569123 248.79024,63.169796 C 262.41421,73.573391 235.54388,79.667563 227.55515,75.656285 C 204.53486,70.257683 178.93489,70.908781 161.92101,56.533729 C 148.95497,45.578698 133.57315,59.481087 123.23489,64.653415 C 100.68013,74.686199 74.420924,80.772915 50.209175,73.612907 C 49.769886,73.302862 49.330597,72.992816 48.891308,72.68277 z "
     id="path2309"
     sodipodi:nodetypes="cccccccccccccccccccccccccccsccc" />
</svg>
