<?xml version="1.0" encoding="UTF-8" standalone="no"?>
<!-- Created with Inkscape (http://www.inkscape.org/) -->
<svg
   xmlns:dc="http://purl.org/dc/elements/1.1/"
   xmlns:cc="http://web.resource.org/cc/"
   xmlns:rdf="http://www.w3.org/1999/02/22-rdf-syntax-ns#"
   xmlns:svg="http://www.w3.org/2000/svg"
   xmlns="http://www.w3.org/2000/svg"
   xmlns:sodipodi="http://sodipodi.sourceforge.net/DTD/sodipodi-0.dtd"
   xmlns:inkscape="http://www.inkscape.org/namespaces/inkscape"
   id="svg2211"
   sodipodi:version="0.32"
   inkscape:version="0.45.1"
   width="300"
   height="300"
   version="1.0"
   sodipodi:docbase="/home/michelet/Images/Temp"
   sodipodi:docname="衣-bigseal.svg"
   inkscape:output_extension="org.inkscape.output.svg.inkscape">
  <metadata
     id="metadata2216">
    <rdf:RDF>
      <cc:Work
         rdf:about="">
        <dc:format>image/svg+xml</dc:format>
        <dc:type
           rdf:resource="http://purl.org/dc/dcmitype/StillImage" />
      </cc:Work>
    </rdf:RDF>
  </metadata>
  <defs
     id="defs2214" />
  <sodipodi:namedview
     inkscape:window-height="941"
     inkscape:window-width="1269"
     inkscape:pageshadow="2"
     inkscape:pageopacity="0.0"
     guidetolerance="10.0"
     gridtolerance="10.0"
     objecttolerance="10.0"
     borderopacity="1.0"
     bordercolor="#666666"
     pagecolor="#ffffff"
     id="base"
     width="300px"
     height="300px"
     inkscape:zoom="2"
     inkscape:cx="35"
     inkscape:cy="141"
     inkscape:window-x="0"
     inkscape:window-y="27"
     inkscape:current-layer="svg2211" />
  <path
     style="fill:#000000"
     d="M 54.175449,283.83136 C 49.366903,242.20285 51.585661,200.20573 51.437002,158.40902 C 52.084949,141.86305 52.487481,124.804 57.962515,109.05184 C 66.741778,93.627562 86.973086,93.010912 102.60687,94.703505 C 118.23656,93.848448 128.03558,109.72146 128.39347,123.83346 C 132.49925,149.12986 129.36565,190.66406 137.04811,200.18302 C 144.26614,209.12653 167.20041,207.79115 171.62021,199.28959 C 177.03653,188.87122 176.4619,176.27945 175.04441,162.36122 C 175.2729,144.45971 174.23455,126.16611 177.59553,108.57738 C 185.22172,93.892368 203.82766,94.386038 218.04639,93.256037 C 231.38011,92.254605 249.39305,95.551987 253.23479,110.50588 C 260.14793,149.40777 258.05562,189.1235 258.57922,228.43919 C 257.9553,241.07999 257.95162,254.96986 251.06611,265.98235 C 238.67947,280.39217 217.91688,279.19855 200.65711,280.8238 C 171.82681,282.34796 142.90566,282.82926 114.07203,281.11829 C 98.611013,274.39296 121.26438,262.91662 129.83625,266.12217 C 158.27902,264.59486 186.49135,264.07676 214.78195,260.77437 C 227.65522,258.00112 237.01548,248.24043 235.98543,235.28478 C 237.74871,198.12457 238.11141,160.69143 234.21171,123.68254 C 231.04738,111.36886 202.28234,107.65113 198.86748,121.54511 C 198.65921,134.5348 199.38086,145.46508 198.17435,158.46655 C 197.39114,176.25635 198.31841,194.8228 192.44229,211.80456 C 182.64961,226.77852 162.50904,223.14441 147.19398,223.82668 C 131.45519,225.52729 116.45534,214.48829 117.25922,197.99511 C 114.34986,177.18939 113.9975,156.11303 110.90731,135.33741 C 111.94269,122.4725 102.09731,110.47947 88.585032,115.33057 C 72.480066,117.94833 77.99125,138.35596 75.383916,149.42723 C 74.454726,191.81104 77.199293,233.7505 74.453027,276.04861 C 72.607797,284.66871 61.297595,289.87209 54.175449,283.83136 z M 64.608864,56.186462 C 56.735724,41.763669 79.148175,37.871344 89.197123,38.97789 C 105.791,39.013664 122.44542,38.902443 139.06378,38.948833 C 138.8484,28.586085 140.13594,13.435086 151.83181,10.000498 C 168.26541,9.8229101 161.82263,32.857537 173.75128,38.489803 C 186.89876,39.690451 200.31023,37.439549 213.58374,37.761628 C 225.46185,38.803705 238.19157,34.52242 249.22107,40.300424 C 260.28793,49.927231 241.47206,56.264146 233.17647,54.847918 C 177.67742,57.353208 122.03574,59.934592 66.503768,56.652143 L 64.608864,56.186462 L 64.608864,56.186462 z "
     id="path2220"
     sodipodi:nodetypes="cccccssccccccccccccccccccccccccccccccccc" />
</svg>
