<?xml version="1.0" encoding="UTF-8" standalone="no"?>
<!-- Created with Inkscape (http://www.inkscape.org/) -->
<svg
   xmlns:dc="http://purl.org/dc/elements/1.1/"
   xmlns:cc="http://creativecommons.org/ns#"
   xmlns:rdf="http://www.w3.org/1999/02/22-rdf-syntax-ns#"
   xmlns:svg="http://www.w3.org/2000/svg"
   xmlns="http://www.w3.org/2000/svg"
   xmlns:sodipodi="http://sodipodi.sourceforge.net/DTD/sodipodi-0.dtd"
   xmlns:inkscape="http://www.inkscape.org/namespaces/inkscape"
   width="300"
   height="300"
   id="svg2400"
   sodipodi:version="0.32"
   inkscape:version="0.46"
   version="1.0"
   sodipodi:docname="襾-seal.svg"
   inkscape:output_extension="org.inkscape.output.svg.inkscape">
  <defs
     id="defs2402">
    <inkscape:perspective
       sodipodi:type="inkscape:persp3d"
       inkscape:vp_x="0 : 526.18109 : 1"
       inkscape:vp_y="0 : 1000 : 0"
       inkscape:vp_z="744.09448 : 526.18109 : 1"
       inkscape:persp3d-origin="372.04724 : 350.78739 : 1"
       id="perspective2408" />
    <inkscape:perspective
       id="perspective3684"
       inkscape:persp3d-origin="372.04724 : 350.78739 : 1"
       inkscape:vp_z="744.09448 : 526.18109 : 1"
       inkscape:vp_y="0 : 1000 : 0"
       inkscape:vp_x="0 : 526.18109 : 1"
       sodipodi:type="inkscape:persp3d" />
    <inkscape:perspective
       id="perspective3736"
       inkscape:persp3d-origin="372.04724 : 350.78739 : 1"
       inkscape:vp_z="744.09448 : 526.18109 : 1"
       inkscape:vp_y="0 : 1000 : 0"
       inkscape:vp_x="0 : 526.18109 : 1"
       sodipodi:type="inkscape:persp3d" />
    <inkscape:perspective
       id="perspective2388"
       inkscape:persp3d-origin="372.04724 : 350.78739 : 1"
       inkscape:vp_z="744.09448 : 526.18109 : 1"
       inkscape:vp_y="0 : 1000 : 0"
       inkscape:vp_x="0 : 526.18109 : 1"
       sodipodi:type="inkscape:persp3d" />
    <inkscape:perspective
       sodipodi:type="inkscape:persp3d"
       inkscape:vp_x="0 : 526.18109 : 1"
       inkscape:vp_y="0 : 1000 : 0"
       inkscape:vp_z="744.09448 : 526.18109 : 1"
       inkscape:persp3d-origin="372.04724 : 350.78739 : 1"
       id="perspective2428" />
    <inkscape:perspective
       sodipodi:type="inkscape:persp3d"
       inkscape:vp_x="0 : 526.18109 : 1"
       inkscape:vp_y="0 : 1000 : 0"
       inkscape:vp_z="744.09448 : 526.18109 : 1"
       inkscape:persp3d-origin="372.04724 : 350.78739 : 1"
       id="perspective2426" />
    <inkscape:perspective
       id="perspective2424"
       inkscape:persp3d-origin="372.04724 : 350.78739 : 1"
       inkscape:vp_z="744.09448 : 526.18109 : 1"
       inkscape:vp_y="0 : 1000 : 0"
       inkscape:vp_x="0 : 526.18109 : 1"
       sodipodi:type="inkscape:persp3d" />
  </defs>
  <sodipodi:namedview
     id="base"
     pagecolor="#ffffff"
     bordercolor="#666666"
     borderopacity="1.0"
     gridtolerance="10000"
     guidetolerance="10"
     objecttolerance="10"
     inkscape:pageopacity="0.0"
     inkscape:pageshadow="2"
     inkscape:zoom="1.4"
     inkscape:cx="201.61465"
     inkscape:cy="101.01621"
     inkscape:document-units="px"
     inkscape:current-layer="layer1"
     showgrid="false"
     width="300px"
     inkscape:window-width="1680"
     inkscape:window-height="979"
     inkscape:window-x="0"
     inkscape:window-y="25" />
  <metadata
     id="metadata2405">
    <rdf:RDF>
      <cc:Work
         rdf:about="">
        <dc:format>image/svg+xml</dc:format>
        <dc:type
           rdf:resource="http://purl.org/dc/dcmitype/StillImage" />
      </cc:Work>
    </rdf:RDF>
  </metadata>
  <g
     inkscape:label="Layer 1"
     inkscape:groupmode="layer"
     id="layer1">
    <path
       style="fill:#000000"
       d="M 64.714292,280.97917 C 61.964559,277.66593 61.629883,267.32868 63.245925,235.62502 C 64.397147,213.04047 65.796077,177.60672 66.354672,156.88337 C 67.586067,111.19967 69.36611,95.344986 74.783975,81.804402 C 79.089206,71.044563 90.895613,61.988554 100.61808,61.988554 C 109.46958,61.988554 113.64417,55.662151 113.64417,42.248141 L 113.64417,29.891779 L 91.315973,29.560085 C 60.66385,29.104735 61.505107,29.319228 62.513867,22.216463 L 63.405733,15.936659 L 145.84969,15.198277 C 233.01017,14.417656 241.29374,15.482538 236.91072,26.904501 C 235.48931,30.608659 232.04662,31.598216 221.80436,31.246628 C 189.2025,30.127503 190.39731,29.593723 190.39731,45.277605 L 190.39731,59.267919 L 205.05019,65.897888 C 231.82414,78.012262 230.21299,73.70399 229.76197,131.97836 C 229.13264,213.28891 226.59069,278.07647 223.92459,280.75677 C 222.57665,282.1119 219.30855,282.38978 216.66216,281.37425 C 212.215,279.66772 212.01155,274.72428 213.97626,216.11235 C 215.1454,181.23382 216.53684,139.23707 217.06834,122.78624 L 218.03471,92.875643 L 210.06496,87.200684 C 205.68161,84.079455 199.4632,81.525724 196.24627,81.525724 C 190.87551,81.525724 190.39731,83.094528 190.39731,100.71401 C 190.39731,140.04832 187.10038,143.96941 153.8453,144.18581 C 118.72916,144.41431 112.24866,137.62718 112.24866,100.62095 L 112.24866,78.113468 L 101.78232,79.995168 C 90.001848,82.113137 84.567132,87.603237 83.852638,98.107552 C 83.585455,102.03558 83.00318,109.01731 82.558702,113.6225 C 82.114223,118.22769 80.989667,155.27854 80.059686,195.9577 C 78.173496,278.46353 75.396362,293.85028 64.714292,280.97917 z M 167.44812,127.41935 C 173.02535,123.51291 173.65119,120.69702 173.65119,99.509116 L 173.65119,75.943672 L 151.323,75.943672 L 128.9948,75.943672 L 128.66154,85.014498 C 127.8685,106.59953 129.81647,127.73206 132.77396,129.62815 C 138.51864,133.31113 161.08915,131.87335 167.44812,127.41935 z M 169.66824,59.852547 C 174.43403,56.589212 176.83032,44.151376 174.66721,35.464992 C 172.87474,28.267001 164.92539,27.441243 143.95265,30.061613 L 128.9948,31.930474 L 128.9948,45.369882 C 128.9948,57.087985 129.79912,58.964212 135.2746,60.018836 C 146.06227,62.096631 166.53551,61.997647 169.66824,59.852547 z"
       id="path2394"
       sodipodi:nodetypes="cssssccccccsscccsssscccssscccssscccccccsccscccsc" />
    <g
       id="g2430"
       inkscape:label="Layer 1" />
  </g>
</svg>
