<?xml version="1.0" encoding="UTF-8" standalone="no"?>
<!-- Created with Inkscape (http://www.inkscape.org/) -->
<svg
   xmlns:dc="http://purl.org/dc/elements/1.1/"
   xmlns:cc="http://creativecommons.org/ns#"
   xmlns:rdf="http://www.w3.org/1999/02/22-rdf-syntax-ns#"
   xmlns:svg="http://www.w3.org/2000/svg"
   xmlns="http://www.w3.org/2000/svg"
   xmlns:sodipodi="http://sodipodi.sourceforge.net/DTD/sodipodi-0.dtd"
   xmlns:inkscape="http://www.inkscape.org/namespaces/inkscape"
   width="300"
   height="300"
   id="svg2400"
   sodipodi:version="0.32"
   inkscape:version="0.46"
   version="1.0"
   sodipodi:docname="襾-bigseal.svg"
   inkscape:output_extension="org.inkscape.output.svg.inkscape">
  <defs
     id="defs2402">
    <inkscape:perspective
       sodipodi:type="inkscape:persp3d"
       inkscape:vp_x="0 : 526.18109 : 1"
       inkscape:vp_y="0 : 1000 : 0"
       inkscape:vp_z="744.09448 : 526.18109 : 1"
       inkscape:persp3d-origin="372.04724 : 350.78739 : 1"
       id="perspective2408" />
    <inkscape:perspective
       id="perspective3684"
       inkscape:persp3d-origin="372.04724 : 350.78739 : 1"
       inkscape:vp_z="744.09448 : 526.18109 : 1"
       inkscape:vp_y="0 : 1000 : 0"
       inkscape:vp_x="0 : 526.18109 : 1"
       sodipodi:type="inkscape:persp3d" />
    <inkscape:perspective
       id="perspective3736"
       inkscape:persp3d-origin="372.04724 : 350.78739 : 1"
       inkscape:vp_z="744.09448 : 526.18109 : 1"
       inkscape:vp_y="0 : 1000 : 0"
       inkscape:vp_x="0 : 526.18109 : 1"
       sodipodi:type="inkscape:persp3d" />
    <inkscape:perspective
       id="perspective2388"
       inkscape:persp3d-origin="372.04724 : 350.78739 : 1"
       inkscape:vp_z="744.09448 : 526.18109 : 1"
       inkscape:vp_y="0 : 1000 : 0"
       inkscape:vp_x="0 : 526.18109 : 1"
       sodipodi:type="inkscape:persp3d" />
  </defs>
  <sodipodi:namedview
     id="base"
     pagecolor="#ffffff"
     bordercolor="#666666"
     borderopacity="1.0"
     gridtolerance="10000"
     guidetolerance="10"
     objecttolerance="10"
     inkscape:pageopacity="0.0"
     inkscape:pageshadow="2"
     inkscape:zoom="0.98994949"
     inkscape:cx="7.0536615"
     inkscape:cy="11.695478"
     inkscape:document-units="px"
     inkscape:current-layer="layer1"
     showgrid="false"
     width="300px"
     inkscape:window-width="1680"
     inkscape:window-height="979"
     inkscape:window-x="0"
     inkscape:window-y="25" />
  <metadata
     id="metadata2405">
    <rdf:RDF>
      <cc:Work
         rdf:about="">
        <dc:format>image/svg+xml</dc:format>
        <dc:type
           rdf:resource="http://purl.org/dc/dcmitype/StillImage" />
      </cc:Work>
    </rdf:RDF>
  </metadata>
  <g
     inkscape:label="Layer 1"
     inkscape:groupmode="layer"
     id="layer1">
    <path
       style="fill:#000000"
       d="M 34.495037,279.63927 C 26.641481,270.17632 31.211737,174.93355 41.35235,136.73495 C 49.127628,107.44631 56.636301,98.575477 77.218376,94.362457 C 89.118216,91.926637 89.901846,90.267428 89.901846,67.50722 L 89.901846,43.248207 L 64.534887,40.078801 C 37.939814,36.755975 30.171212,27.335597 49.54531,21.902158 C 65.452377,17.441028 211.26932,12.71886 225.19459,16.213872 C 243.11877,20.71256 242.29295,37.573157 224.14841,37.573157 C 208.92203,37.573157 205.20625,43.980362 205.20625,70.235608 C 205.20625,86.437087 206.39941,88.307096 216.73669,88.307096 C 239.53514,88.307096 248.10036,104.42899 263.2392,175.83654 C 274.28694,227.9471 270.31122,268.18198 254.11426,268.18198 C 247.66144,268.18198 242.26321,237.12535 242.08902,198.99933 C 241.94955,168.47551 230.26314,129.71624 217.28675,116.73985 L 205.92346,105.37658 L 192.32597,135.3652 C 170.44138,183.63062 146.60411,193.05952 119.39759,164.21219 C 110.92257,155.22606 101.77672,139.65996 99.073476,129.62088 C 91.825266,102.7031 77.405956,105.68529 63.894298,136.89658 C 58.20844,150.03066 55.409245,172.36876 53.960464,216.17061 C 51.878842,279.10538 47.068619,294.78952 34.495037,279.63927 z M 170.20494,143.29934 C 195.30144,113.47385 181.16562,97.111629 137.23569,105.13741 C 110.49337,110.02309 107.25977,119.16294 124.34752,141.56614 C 139.79457,161.81826 154.16527,162.36141 170.20494,143.29934 z M 184.87383,77.339115 C 186.21525,73.843418 185.50653,63.984887 183.2989,55.43128 C 179.29427,39.915083 179.21393,39.876105 148.42712,38.515417 C 119.46793,37.235485 117.2496,37.853086 112.37453,48.552697 C 109.51745,54.823318 108.52052,65.295577 110.15915,71.824371 C 113.0291,83.259175 114.41037,83.694926 147.78667,83.694926 C 172.96765,83.694926 183.10129,81.958273 184.87383,77.339115 z"
       id="path2394" />
  </g>
</svg>
