<?xml version="1.0" encoding="UTF-8" standalone="no"?>
<!-- Created with Inkscape (http://www.inkscape.org/) -->
<svg
   xmlns:dc="http://purl.org/dc/elements/1.1/"
   xmlns:cc="http://web.resource.org/cc/"
   xmlns:rdf="http://www.w3.org/1999/02/22-rdf-syntax-ns#"
   xmlns:svg="http://www.w3.org/2000/svg"
   xmlns="http://www.w3.org/2000/svg"
   xmlns:sodipodi="http://sodipodi.sourceforge.net/DTD/sodipodi-0.dtd"
   xmlns:inkscape="http://www.inkscape.org/namespaces/inkscape"
   width="300"
   height="300"
   id="svg2"
   sodipodi:version="0.32"
   inkscape:version="0.45.1"
   version="1.0"
   sodipodi:docbase="C:\Documents and Settings\Martin\桌面"
   sodipodi:docname="drawing.svg"
   inkscape:output_extension="org.inkscape.output.svg.inkscape">
  <defs
     id="defs4" />
  <sodipodi:namedview
     id="base"
     pagecolor="#ffffff"
     bordercolor="#666666"
     borderopacity="1.0"
     gridtolerance="10000"
     guidetolerance="10"
     objecttolerance="10"
     inkscape:pageopacity="0.0"
     inkscape:pageshadow="2"
     inkscape:zoom="0.92866691"
     inkscape:cx="163.85638"
     inkscape:cy="138.54597"
     inkscape:document-units="px"
     inkscape:current-layer="layer1"
     width="300px"
     height="300px"
     inkscape:window-width="742"
     inkscape:window-height="577"
     inkscape:window-x="50"
     inkscape:window-y="0" />
  <metadata
     id="metadata7">
    <rdf:RDF>
      <cc:Work
         rdf:about="">
        <dc:format>image/svg+xml</dc:format>
        <dc:type
           rdf:resource="http://purl.org/dc/dcmitype/StillImage" />
      </cc:Work>
    </rdf:RDF>
  </metadata>
  <g
     inkscape:label="Layer 1"
     inkscape:groupmode="layer"
     id="layer1">
    <path
       style="fill:#000000"
       d="M 245.38976,282.69099 C 243.25892,280.12346 240.19579,275.45777 238.58286,272.32283 C 235.67613,266.67326 227.71008,262.96973 203.1923,255.86938 C 196.20679,253.84637 181.24067,247.46151 169.93424,241.68084 C 149.73398,231.35295 149.21949,231.25084 140.29874,235.79901 C 126.36555,242.82657 98.424179,252.68332 81.572796,253.22292 C 72.605824,252.75139 62.372842,256.74865 58.30107,265.00854 C 56.912178,270.31959 56.12091,270.59539 52.025035,267.19611 C 48.048147,263.8956 47.586628,259.44339 48.978,237.80209 C 51.167807,203.74167 55.540199,164.08928 58.637218,150.20435 C 64.35187,124.58374 81.981515,98.454188 109.54648,74.749775 C 116.92499,68.404669 118.51948,64.969648 118.51948,55.419565 C 118.51948,46.066664 116.81297,42.211537 109.75374,35.617215 C 101.80378,28.190854 99.111303,27.419454 80.823864,27.328748 C 62.263927,27.23669 43.710052,21.842286 49.694324,18.278074 C 55.524275,14.805795 75.917075,13.502053 90.803232,15.649921 C 107.94322,17.427155 135.36525,34.707135 138.27647,53.040185 C 138.27647,59.22121 145.30359,72.758375 150.08653,75.791327 C 152.12884,77.086403 157.42566,78.16546 161.85724,78.189228 C 177.71733,78.274302 218.65697,102.29124 228.80351,117.46279 C 232.54151,123.05196 236.33886,128.25997 237.24212,129.03614 C 239.87541,131.29896 243.25104,140.77774 246.28828,154.43799 C 249.49083,168.8418 253.46863,280.59513 250.92442,284.68814 C 250.01066,286.15815 247.52197,285.26013 245.38976,282.69099 z M 229.87256,238.65776 C 236.25344,235.75044 237.06142,233.70911 237.06142,220.49572 C 237.06142,199.88781 233.31204,191.12954 224.4898,191.12954 C 217.1317,191.12954 178.76634,179.04311 166.50076,172.86098 C 156.59717,167.86933 138.27647,164.85379 138.27647,168.21533 C 138.27647,172.50527 107.57786,185.48469 97.431386,185.48469 C 92.417462,185.48469 84.315348,186.87902 79.426705,188.58322 C 71.129876,191.47551 70.538237,192.57919 70.538237,205.16497 C 70.538237,212.58074 69.744429,222.61723 68.774214,227.46828 L 67.0102,236.28836 L 80.809385,236.28836 C 98.761991,236.28836 121.40875,227.87162 133.161,216.83177 C 146.72276,204.09209 151.2743,203.45288 160.22834,213.03053 C 168.41811,221.79066 179.85602,227.64918 200.36988,233.59105 C 207.35539,235.61443 214.27738,238.31915 215.7521,239.60155 C 219.30012,242.68689 221.32687,242.55141 229.87256,238.65776 z M 228.26065,174.46083 C 233.31265,171.26115 230.59914,155.96398 222.12365,139.86389 C 210.18206,118.25221 200.87426,112.84143 181.28019,103.9636 C 164.54791,95.451818 145.86055,89.524946 139.68769,90.772164 C 136.58302,91.399446 131.34415,92.009874 128.04574,92.128639 C 118.77642,92.462419 96.16228,116.13173 85.409856,136.75391 C 77.272036,152.36153 76.233642,156.31475 78.942348,161.37604 C 84.671567,172.08118 90.691996,173.96817 104.36798,169.34524 C 117.51553,164.90092 138.14044,149.55642 138.22561,144.15585 C 138.31792,138.30388 146.7822,137.53415 151.74703,142.92623 C 154.42841,145.83836 159.6133,151.52497 163.26896,155.56314 C 170.28752,163.54818 180.83466,163.30298 189.92593,167.64348 C 197.66711,171.7042 211.52076,175.65102 221.53808,176.64962 C 223.09041,176.80436 226.11558,175.81941 228.26065,174.46083 z "
       id="path2197"
       sodipodi:nodetypes="cssscccssssssssccssssssccssssssscccssssccccsssssssccsc" />
  </g>
</svg>
