<?xml version="1.0" encoding="UTF-8" standalone="no"?>
<!-- Created with Inkscape (http://www.inkscape.org/) -->
<svg
   xmlns:dc="http://purl.org/dc/elements/1.1/"
   xmlns:cc="http://web.resource.org/cc/"
   xmlns:rdf="http://www.w3.org/1999/02/22-rdf-syntax-ns#"
   xmlns:svg="http://www.w3.org/2000/svg"
   xmlns="http://www.w3.org/2000/svg"
   xmlns:sodipodi="http://sodipodi.sourceforge.net/DTD/sodipodi-0.dtd"
   xmlns:inkscape="http://www.inkscape.org/namespaces/inkscape"
   width="300"
   height="300"
   id="svg2"
   sodipodi:version="0.32"
   inkscape:version="0.45.1"
   version="1.0"
   sodipodi:docbase="C:\Documents and Settings\Martin\桌面"
   sodipodi:docname="drawing.svg"
   inkscape:output_extension="org.inkscape.output.svg.inkscape">
  <defs
     id="defs4" />
  <sodipodi:namedview
     id="base"
     pagecolor="#ffffff"
     bordercolor="#666666"
     borderopacity="1.0"
     gridtolerance="10000"
     guidetolerance="10"
     objecttolerance="10"
     inkscape:pageopacity="0.0"
     inkscape:pageshadow="2"
     inkscape:zoom="0.92866691"
     inkscape:cx="302.53165"
     inkscape:cy="213.80066"
     inkscape:document-units="px"
     inkscape:current-layer="layer1"
     width="300px"
     height="300px"
     inkscape:window-width="742"
     inkscape:window-height="577"
     inkscape:window-x="50"
     inkscape:window-y="0" />
  <metadata
     id="metadata7">
    <rdf:RDF>
      <cc:Work
         rdf:about="">
        <dc:format>image/svg+xml</dc:format>
        <dc:type
           rdf:resource="http://purl.org/dc/dcmitype/StillImage" />
      </cc:Work>
    </rdf:RDF>
  </metadata>
  <g
     inkscape:label="Layer 1"
     inkscape:groupmode="layer"
     id="layer1">
    <path
       style="fill:#000000"
       d="M 231.51934,279.45929 C 229.95181,277.89179 228.66928,258.81127 228.66928,237.05817 C 228.66928,193.14837 226.54448,183.42578 217.69092,186.82318 C 214.3933,188.08861 206.11957,184.43234 199.30483,178.69814 C 192.49015,172.96393 178.35459,165.87568 167.89259,162.94649 C 146.75783,157.02913 133.98253,160.88518 104.69201,182.02282 C 73.005771,204.88932 70.387631,208.92217 78.702451,222.05598 C 81.736171,226.84792 87.875141,224.03137 108.98611,208.16198 C 123.54938,197.21461 138.779,188.25764 142.82973,188.25764 C 162.99125,188.25764 224.3942,217.46045 224.3942,227.04914 C 224.3942,236.40036 213.51028,234.67725 194.1649,222.26337 C 182.06909,214.50149 164.90734,207.66009 154.62514,206.50115 C 138.81103,204.71866 133.91559,206.39368 116.83524,219.43143 C 106.04297,227.66934 93.124371,236.59757 88.127231,239.27198 C 82.765131,242.14167 79.041531,248.30966 79.041531,254.32213 C 79.041531,268.93773 74.766031,278.03428 67.896451,278.03428 C 63.042361,278.03428 61.941221,264.74537 61.941221,206.16406 C 61.941221,139.74538 62.602411,133.58418 70.657891,124.93757 C 76.949231,118.18466 84.383721,115.57469 97.377181,115.55745 C 107.27856,115.54437 122.25377,113.62405 130.65537,111.29015 C 143.48304,107.72671 146.56601,104.47628 149.89323,91.00739 C 153.67953,75.679951 154.70927,74.919928 173.09326,73.883308 C 214.01594,71.575791 220.11912,69.262631 220.11912,56.05995 C 220.11912,36.650967 212.73709,33.920047 163.91894,35.269133 L 119.65478,36.492362 L 117.14817,55.275944 C 115.66729,66.373406 111.39696,76.432023 106.71216,79.857643 C 95.906641,87.758844 53.391071,87.702583 53.391071,79.787062 C 53.391071,75.865106 60.512791,73.234051 74.860471,71.855424 C 86.668621,70.720819 97.190661,68.931655 98.242751,67.879559 C 99.294901,66.827462 100.69541,59.334917 101.3551,51.229496 L 102.55447,36.492362 L 78.459051,37.939775 C 53.065311,39.465166 44.687818,34.801696 55.982571,25.427903 C 60.847281,21.390563 84.016361,19.386448 138.23076,18.313532 C 220.97704,16.675921 230.53501,18.709533 240.81007,40.138961 C 253.57549,66.762138 237.87173,81.492049 190.30045,87.516404 C 167.47884,90.406527 155.99295,95.683897 155.99295,103.27956 C 155.99295,105.34292 171.14768,107.03115 189.6701,107.03115 C 213.72437,107.03115 224.80323,108.78548 228.44269,113.17072 C 231.24514,116.54752 235.3089,138.1901 237.47325,161.26535 C 239.63759,184.34065 243.57502,218.14433 246.22308,236.38472 C 249.98076,262.26797 249.87524,270.94971 245.74265,275.9292 C 239.97707,282.87628 235.93862,283.87861 231.51934,279.45929 z M 104.11923,165.32963 C 136.2635,142.00044 141.03141,140.32695 160.45399,145.55692 C 169.9418,148.11175 187.48095,155.96639 199.42984,163.01173 C 211.37876,170.05705 221.858,175.11853 222.71713,174.25945 C 223.57621,173.40033 222.86038,161.28916 221.12637,147.3457 L 217.97362,121.99392 L 188.05206,120.68588 C 145.56116,118.82836 86.769041,127.08135 80.110301,135.83825 C 73.430971,144.62225 72.972901,179.70749 79.537531,179.70749 C 82.161661,179.70749 93.223421,173.23745 104.11923,165.32963 z "
       id="path2228" />
  </g>
</svg>
