<?xml version="1.0" encoding="UTF-8" standalone="no"?>
<!-- Created with Inkscape (http://www.inkscape.org/) -->
<svg
   xmlns:dc="http://purl.org/dc/elements/1.1/"
   xmlns:cc="http://web.resource.org/cc/"
   xmlns:rdf="http://www.w3.org/1999/02/22-rdf-syntax-ns#"
   xmlns:svg="http://www.w3.org/2000/svg"
   xmlns="http://www.w3.org/2000/svg"
   xmlns:sodipodi="http://sodipodi.sourceforge.net/DTD/sodipodi-0.dtd"
   xmlns:inkscape="http://www.inkscape.org/namespaces/inkscape"
   width="300"
   height="300"
   id="svg2"
   sodipodi:version="0.32"
   inkscape:version="0.45.1"
   version="1.0"
   sodipodi:docbase="C:\Documents and Settings\Martin\桌面"
   sodipodi:docname="drawing.svg"
   inkscape:output_extension="org.inkscape.output.svg.inkscape">
  <defs
     id="defs4" />
  <sodipodi:namedview
     id="base"
     pagecolor="#ffffff"
     bordercolor="#666666"
     borderopacity="1.0"
     gridtolerance="10000"
     guidetolerance="10"
     objecttolerance="10"
     inkscape:pageopacity="0.0"
     inkscape:pageshadow="2"
     inkscape:zoom="0.65666667"
     inkscape:cx="81.449688"
     inkscape:cy="77.753841"
     inkscape:document-units="px"
     inkscape:current-layer="layer1"
     width="300px"
     height="300px"
     inkscape:window-width="742"
     inkscape:window-height="577"
     inkscape:window-x="50"
     inkscape:window-y="0" />
  <metadata
     id="metadata7">
    <rdf:RDF>
      <cc:Work
         rdf:about="">
        <dc:format>image/svg+xml</dc:format>
        <dc:type
           rdf:resource="http://purl.org/dc/dcmitype/StillImage" />
      </cc:Work>
    </rdf:RDF>
  </metadata>
  <g
     inkscape:label="Layer 1"
     inkscape:groupmode="layer"
     id="layer1">
    <path
       style="fill:#000000"
       d="M 208.38462,273.64861 C 207.61753,268.03947 206.28202,256.20082 205.41681,247.34051 L 203.84368,231.23081 L 192.4705,227.45324 C 186.21524,225.37559 174.88842,219.93687 167.29978,215.36723 C 151.32838,205.74977 150.11114,205.58035 142.08555,211.85808 C 138.78605,214.43898 135.17333,216.57463 134.05726,216.60398 C 132.9412,216.63332 129.16178,218.67534 125.65855,221.14178 C 122.15533,223.60821 116.58946,226.45334 113.28996,227.46428 C 104.66117,230.10805 103.76908,232.53 103.72817,253.42315 C 103.70185,266.86778 102.67041,273.2127 100.09198,275.79113 C 96.892484,278.99065 96.061659,278.9597 92.614564,275.51263 C 89.773039,272.67108 89.198999,269.57889 90.466749,263.94294 C 94.38614,246.51895 97.096093,212.48832 98.550894,162.42554 C 100.14586,107.53963 101.35513,101.47499 110.70424,101.47499 C 123.97554,94.800077 135.84603,104.35808 148.45993,93.668841 C 149.42163,92.11279 150.82472,87.048326 151.57794,82.414476 C 153.31966,71.699219 160.34533,67.962394 178.83769,67.91552 C 197.18362,67.869015 202.07635,65.106373 202.07635,54.794 C 202.07635,39.620755 201.2617,39.084559 178.20848,39.084559 C 158.17155,39.084559 157.13366,39.347984 154.51355,45.098491 C 147.6303,60.205574 125.01526,77.478672 112.11935,77.478672 C 109.33172,77.478672 104.95005,79.57954 104.49737,80.032207 C 100.51038,84.019096 81.077277,81.822419 80.21852,77.287717 C 79.441712,73.185649 93.133676,67.880144 104.49675,67.880144 C 107.93293,67.880144 114.82659,65.665005 119.81595,62.957613 C 128.56592,58.20962 142.08555,44.864169 142.08555,40.974927 C 142.08555,39.935224 136.35748,39.084559 129.35651,39.084559 C 118.23776,39.084559 115.50564,38.057015 107.75982,30.962117 C 102.88261,26.494772 98.892169,21.601627 98.892169,20.088461 C 98.892169,14.218387 106.28131,14.988566 116.33646,21.9067 L 126.84584,29.137333 L 164.58503,28.89025 C 202.20847,28.643923 202.34343,28.662372 208.58559,34.904525 C 213.90596,40.224903 214.78003,43.056843 214.4016,53.748478 C 214.15665,60.668904 212.85336,67.659978 211.50537,69.284198 C 207.70735,73.860534 193.90234,79.757133 181.60982,82.053624 C 171.75911,83.893935 170.58598,83.665817 171.52061,80.091749 C 172.19788,77.501805 171.06761,75.933633 168.37753,75.730996 C 165.16202,75.488778 163.79526,77.959261 162.54971,86.265074 C 161.65479,92.232853 161.27353,97.448084 161.70249,97.854479 C 162.13145,98.260871 173.21569,99.239537 186.33409,100.02929 C 201.42221,100.93762 210.88456,102.56909 212.08764,104.46964 C 213.13366,106.12208 213.98647,136.08967 213.98277,171.06433 C 213.97807,215.51027 215.02923,241.03466 217.47438,255.84692 C 221.26897,278.83393 220.65941,283.84705 214.06983,283.84705 C 210.84072,283.84705 209.43432,281.32413 208.38462,273.64861 z M 124.46051,209.45845 C 130.3272,205.49905 136.12805,202.25955 137.35126,202.25955 C 138.57448,202.25955 141.36734,199.52452 143.55762,196.18169 C 146.56823,191.58697 147.20958,186.90253 146.18597,176.98463 C 144.99412,165.43679 145.35082,163.86544 149.164,163.86544 C 155.70094,163.86544 158.248,168.4711 160.13261,183.69914 C 161.95983,198.46348 163.58056,200.39273 183.5522,211.57711 C 201.14234,221.42781 203.81652,218.23894 203.43982,187.86176 L 203.27617,174.66378 L 190.07819,167.98359 C 182.8193,164.30951 172.71937,158.55128 167.63388,155.18755 C 158.56298,149.18773 146.88481,148.69528 146.88481,154.31262 C 146.88481,154.84585 144.9951,156.67105 142.68545,156.67657 C 140.37581,156.68209 133.17389,159.38168 126.68116,162.67565 C 120.18845,165.96963 113.43948,168.6647 111.68346,168.6647 C 109.23905,168.6647 108.4907,174.28918 108.4907,192.66102 C 108.4907,208.5786 109.38338,216.65734 111.14224,216.65734 C 112.60057,216.65734 118.5938,213.41784 124.46051,209.45845 z M 204.47598,137.62167 C 204.47598,121.51732 203.59505,115.72932 200.7896,113.401 C 198.7621,111.71832 189.04359,109.82434 179.19291,109.19216 L 161.28261,108.04275 L 161.28261,123.55044 C 161.28261,138.04362 161.7143,139.28063 167.88159,142.45933 C 171.51104,144.32999 175.07365,146.65501 175.79851,147.62607 C 178.26135,150.9253 200.4991,161.24079 202.49261,160.00873 C 203.58346,159.33452 204.47598,149.26037 204.47598,137.62167 z M 125.26993,149.08291 C 141.62938,142.73939 146.11676,137.15583 147.22712,121.76198 L 148.08463,109.8737 L 131.64369,110.54562 C 121.56324,110.9576 113.90443,112.51588 111.84673,114.57358 C 108.33808,118.08224 106.83303,154.26691 110.19576,154.26691 C 111.13353,154.26691 117.91691,151.93411 125.26993,149.08291 z "
       id="path2240"
       sodipodi:nodetypes="ccccssssssssssccsssssssssssssscccsssssssssssssccsssssscccsssssssccscccssscccccssc" />
  </g>
</svg>
