<?xml version="1.0" standalone="no"?>
<!DOCTYPE svg PUBLIC "-//W3C//DTD SVG 20010904//EN"
 "http://www.w3.org/TR/2001/REC-SVG-20010904/DTD/svg10.dtd">
<svg version="1.0" xmlns="http://www.w3.org/2000/svg"
 width="468pt" height="468pt" viewBox="0 0 468 468"
 preserveAspectRatio="xMidYMid meet">
<metadata>
Created by potrace 1.8, written by Peter Selinger 2001-2007
</metadata>
<g transform="translate(0,468) scale(0.577778,-0.577778)"
fill="#000000" stroke="none">
<path d="M458 685 c-3 -3 -41 -10 -84 -15 -44 -5 -92 -13 -108 -19 -23 -10
-26 -14 -16 -26 7 -8 24 -15 39 -15 28 0 49 -27 102 -127 23 -44 28 -66 30
-140 2 -68 -1 -89 -13 -97 -24 -14 -48 0 -48 29 0 14 -7 40 -16 56 -12 25 -18
28 -30 19 -7 -7 -12 -16 -9 -20 3 -4 7 -54 11 -111 5 -92 9 -107 30 -129 22
-23 32 -25 108 -25 117 0 125 8 119 122 -6 116 -15 157 -36 161 -14 3 -17 -5
-17 -46 0 -43 -3 -50 -22 -56 -13 -3 -27 -1 -32 4 -14 14 12 234 37 313 21 66
23 68 65 79 23 5 42 14 42 18 0 17 -137 39 -152 25z m21 -62 c0 -5 -11 -30
-24 -58 l-23 -49 -18 37 c-10 20 -21 37 -26 37 -4 0 -8 9 -8 20 0 17 7 20 50
20 28 0 50 -3 49 -7z m41 -463 c0 -37 -2 -40 -27 -41 -89 -3 -128 10 -131 44
-2 26 0 26 71 30 39 1 75 4 80 5 4 1 7 -16 7 -38z"/>
<path d="M223 515 c-9 -26 22 -120 41 -123 59 -12 92 26 81 94 l-6 44 -55 0
c-40 0 -56 -4 -61 -15z m87 -66 c0 -24 -23 -21 -28 4 -2 10 3 17 12 17 10 0
16 -9 16 -21z"/>
<path d="M532 512 c-10 -7 -10 -19 1 -63 l14 -54 46 -3 45 -3 7 40 c4 22 4 49
1 59 -9 27 -85 42 -114 24z m75 -66 c-4 -9 -11 -16 -17 -16 -11 0 -14 33 -3
43 11 11 26 -10 20 -27z"/>
</g>
</svg>
