<?xml version="1.0" encoding="UTF-8" standalone="no"?>
<!-- Created with Inkscape (http://www.inkscape.org/) -->

<svg
   xmlns:dc="http://purl.org/dc/elements/1.1/"
   xmlns:cc="http://creativecommons.org/ns#"
   xmlns:rdf="http://www.w3.org/1999/02/22-rdf-syntax-ns#"
   xmlns:svg="http://www.w3.org/2000/svg"
   xmlns="http://www.w3.org/2000/svg"
   xmlns:sodipodi="http://sodipodi.sourceforge.net/DTD/sodipodi-0.dtd"
   xmlns:inkscape="http://www.inkscape.org/namespaces/inkscape"
   width="300"
   height="300"
   id="svg2400"
   sodipodi:version="0.32"
   inkscape:version="0.47 r22583"
   version="1.0"
   sodipodi:docname="drawing.svg"
   inkscape:output_extension="org.inkscape.output.svg.inkscape">
  <defs
     id="defs2402">
    <inkscape:perspective
       sodipodi:type="inkscape:persp3d"
       inkscape:vp_x="0 : 526.18109 : 1"
       inkscape:vp_y="0 : 1000 : 0"
       inkscape:vp_z="744.09448 : 526.18109 : 1"
       inkscape:persp3d-origin="372.04724 : 350.78739 : 1"
       id="perspective2408" />
    <inkscape:perspective
       id="perspective3684"
       inkscape:persp3d-origin="372.04724 : 350.78739 : 1"
       inkscape:vp_z="744.09448 : 526.18109 : 1"
       inkscape:vp_y="0 : 1000 : 0"
       inkscape:vp_x="0 : 526.18109 : 1"
       sodipodi:type="inkscape:persp3d" />
    <inkscape:perspective
       id="perspective3736"
       inkscape:persp3d-origin="372.04724 : 350.78739 : 1"
       inkscape:vp_z="744.09448 : 526.18109 : 1"
       inkscape:vp_y="0 : 1000 : 0"
       inkscape:vp_x="0 : 526.18109 : 1"
       sodipodi:type="inkscape:persp3d" />
    <inkscape:perspective
       id="perspective2890"
       inkscape:persp3d-origin="0.5 : 0.33333333 : 1"
       inkscape:vp_z="1 : 0.5 : 1"
       inkscape:vp_y="0 : 1000 : 0"
       inkscape:vp_x="0 : 0.5 : 1"
       sodipodi:type="inkscape:persp3d" />
  </defs>
  <sodipodi:namedview
     id="base"
     pagecolor="#ffffff"
     bordercolor="#666666"
     borderopacity="1.0"
     gridtolerance="10000"
     guidetolerance="10"
     objecttolerance="10"
     inkscape:pageopacity="0.0"
     inkscape:pageshadow="2"
     inkscape:zoom="1.4"
     inkscape:cx="213.50774"
     inkscape:cy="80.256913"
     inkscape:document-units="px"
     inkscape:current-layer="layer1"
     showgrid="false"
     width="300px"
     inkscape:window-width="1280"
     inkscape:window-height="953"
     inkscape:window-x="0"
     inkscape:window-y="48"
     inkscape:window-maximized="0" />
  <metadata
     id="metadata2405">
    <rdf:RDF>
      <cc:Work
         rdf:about="">
        <dc:format>image/svg+xml</dc:format>
        <dc:type
           rdf:resource="http://purl.org/dc/dcmitype/StillImage" />
        <dc:title></dc:title>
      </cc:Work>
    </rdf:RDF>
  </metadata>
  <g
     inkscape:label="Layer 1"
     inkscape:groupmode="layer"
     id="layer1">
    <path
       style="fill:#000000"
       d="m 75.4471,282.69918 c -24.53086,-1.64273 -34.15033,-5.76114 -29.82043,-12.76708 1.56423,-2.53096 11.08419,-3.13071 30.69417,-1.9337 26.12989,1.59502 28.70411,1.21682 31.86032,-4.6806 1.88851,-3.52872 2.82368,-7.46665 2.07816,-8.751 -0.74551,-1.28431 -0.44244,-17.25663 0.67353,-35.49404 l 2.029,-33.1589 -14.59321,-7.39493 c -8.17346,-4.14181 -16.28158,-11.10055 -18.43121,-15.81845 -2.1109,-4.63293 -3.83262,-21.683 -3.82603,-37.88905 0.0154,-37.898129 5.58959,-48.893246 26.21941,-51.717787 19.73925,-2.702621 44.39481,-2.572011 80.50638,0.426466 28.99187,2.407291 32.11094,3.329672 39.22144,11.598634 7.13101,8.292797 7.72482,11.63404 7.72482,43.465957 0,38.10441 -2.10219,42.52007 -24.43202,51.31982 -11.85711,4.67264 -13.89968,12.74208 -13.95374,55.12592 -0.0244,19.11507 1.27634,28.71181 4.22304,31.15733 2.66272,2.20989 11.8042,2.86267 24.39703,1.74217 11.0763,-0.98553 23.56794,-0.93119 27.75922,0.12072 9.00823,2.26091 10.41992,13.33611 2.01741,15.82724 -6.81719,2.0211 -140.01098,1.12058 -174.34729,-1.17876 z m 91.39849,-16.89625 c 4.79258,-3.50442 5.40265,-9.11353 4.61413,-42.42319 l -0.90865,-38.38483 -17.57819,0 c -16.94038,0 -17.65271,0.34851 -19.63212,9.60525 -1.12967,5.28289 -2.22441,22.86094 -2.43276,39.06234 -0.32058,24.92842 0.48258,29.95881 5.22425,32.72059 7.81357,4.55099 24.11725,4.24302 30.71334,-0.58016 z m 33.32167,-107.98781 10.40568,-6.34447 0,-27.1493 c 0,-34.159144 -0.77599,-34.698963 -51.228,-35.636453 -40.14623,-0.745987 -59.11059,2.356275 -62.10492,10.159361 -1.06155,2.766352 -1.93009,16.356502 -1.93009,30.200322 0,34.1963 1.46417,35.14276 54.34173,35.12698 34.33679,-0.0108 41.60762,-0.92514 50.5156,-6.35644 z M 125.72656,29.866517 C 61.21009,28.180228 58.4898,27.850051 58.4898,21.705626 c 0,-6.235281 2.2289,-6.410943 84.84638,-6.686719 46.66552,-0.155764 88.44837,0.668286 92.85078,1.831232 5.03919,1.331163 8.00437,4.401258 8.00437,8.287594 0,7.262839 -8.51263,7.60264 -118.46477,4.728784 z"
       id="path2896" />
  </g>
</svg>
