<?xml version="1.0" encoding="UTF-8" standalone="no"?>
<!-- Created with Inkscape (http://www.inkscape.org/) -->
<svg
   xmlns:dc="http://purl.org/dc/elements/1.1/"
   xmlns:cc="http://creativecommons.org/ns#"
   xmlns:rdf="http://www.w3.org/1999/02/22-rdf-syntax-ns#"
   xmlns:svg="http://www.w3.org/2000/svg"
   xmlns="http://www.w3.org/2000/svg"
   xmlns:sodipodi="http://sodipodi.sourceforge.net/DTD/sodipodi-0.dtd"
   xmlns:inkscape="http://www.inkscape.org/namespaces/inkscape"
   width="300"
   height="300"
   id="svg2400"
   sodipodi:version="0.32"
   inkscape:version="0.46"
   version="1.0"
   sodipodi:docname="豆-bigseal.svg"
   inkscape:output_extension="org.inkscape.output.svg.inkscape">
  <defs
     id="defs2402">
    <inkscape:perspective
       sodipodi:type="inkscape:persp3d"
       inkscape:vp_x="0 : 526.18109 : 1"
       inkscape:vp_y="0 : 1000 : 0"
       inkscape:vp_z="744.09448 : 526.18109 : 1"
       inkscape:persp3d-origin="372.04724 : 350.78739 : 1"
       id="perspective2408" />
    <inkscape:perspective
       id="perspective3684"
       inkscape:persp3d-origin="372.04724 : 350.78739 : 1"
       inkscape:vp_z="744.09448 : 526.18109 : 1"
       inkscape:vp_y="0 : 1000 : 0"
       inkscape:vp_x="0 : 526.18109 : 1"
       sodipodi:type="inkscape:persp3d" />
    <inkscape:perspective
       id="perspective3736"
       inkscape:persp3d-origin="372.04724 : 350.78739 : 1"
       inkscape:vp_z="744.09448 : 526.18109 : 1"
       inkscape:vp_y="0 : 1000 : 0"
       inkscape:vp_x="0 : 526.18109 : 1"
       sodipodi:type="inkscape:persp3d" />
    <inkscape:perspective
       id="perspective2465"
       inkscape:persp3d-origin="372.04724 : 350.78739 : 1"
       inkscape:vp_z="744.09448 : 526.18109 : 1"
       inkscape:vp_y="0 : 1000 : 0"
       inkscape:vp_x="0 : 526.18109 : 1"
       sodipodi:type="inkscape:persp3d" />
    <inkscape:perspective
       id="perspective2537"
       inkscape:persp3d-origin="372.04724 : 350.78739 : 1"
       inkscape:vp_z="744.09448 : 526.18109 : 1"
       inkscape:vp_y="0 : 1000 : 0"
       inkscape:vp_x="0 : 526.18109 : 1"
       sodipodi:type="inkscape:persp3d" />
    <inkscape:perspective
       id="perspective2629"
       inkscape:persp3d-origin="372.04724 : 350.78739 : 1"
       inkscape:vp_z="744.09448 : 526.18109 : 1"
       inkscape:vp_y="0 : 1000 : 0"
       inkscape:vp_x="0 : 526.18109 : 1"
       sodipodi:type="inkscape:persp3d" />
  </defs>
  <sodipodi:namedview
     id="base"
     pagecolor="#ffffff"
     bordercolor="#666666"
     borderopacity="1.0"
     gridtolerance="10000"
     guidetolerance="10"
     objecttolerance="10"
     inkscape:pageopacity="0.0"
     inkscape:pageshadow="2"
     inkscape:zoom="1.4"
     inkscape:cx="139.69962"
     inkscape:cy="154.4238"
     inkscape:document-units="px"
     inkscape:current-layer="layer1"
     showgrid="false"
     width="300px"
     inkscape:window-width="1680"
     inkscape:window-height="979"
     inkscape:window-x="0"
     inkscape:window-y="25" />
  <metadata
     id="metadata2405">
    <rdf:RDF>
      <cc:Work
         rdf:about="">
        <dc:format>image/svg+xml</dc:format>
        <dc:type
           rdf:resource="http://purl.org/dc/dcmitype/StillImage" />
      </cc:Work>
    </rdf:RDF>
  </metadata>
  <g
     inkscape:label="Layer 1"
     inkscape:groupmode="layer"
     id="layer1">
    <path
       style="fill:#000000"
       d="M 53.301765,282.51457 C 50.612353,280.84957 49.701298,276.12727 51.277187,272.02059 C 53.457268,266.33936 60.736131,264.55386 81.716484,264.55386 L 109.29053,264.55386 L 111.55734,219.07988 L 113.82413,173.60589 L 96.094193,158.31404 C 72.821676,138.24181 63.055397,101.91056 74.81785,79.164503 C 82.875187,63.583309 86.704548,61.760241 121.24991,57.059298 L 143.75663,53.996572 L 140.76608,36.295605 C 138.56778,23.284051 139.51309,17.927858 144.33428,16.077795 C 155.08344,11.952959 162.62209,19.853049 163.91753,36.599931 C 165.11217,52.043717 165.61079,52.387025 190.23919,54.722989 C 204.04636,56.032575 217.75575,58.649601 220.7045,60.538604 C 229.36557,66.086985 237.50572,108.5426 233.94706,129.60618 C 231.37021,144.85838 227.41812,150.77547 214.85827,158.18596 L 199.01914,167.53128 L 199.01914,213.71058 L 199.01914,259.88987 L 216.78371,259.88987 C 237.58173,259.88987 255.36205,270.50316 247.66596,278.32386 C 242.196,283.8824 61.793944,287.77207 53.301765,282.51457 z M 179.48093,244.69439 C 181.06447,225.54977 180.3499,224.98664 148.88116,220.57961 L 129.05916,217.80365 L 129.05916,241.4225 L 129.05916,265.04134 L 153.54516,263.63162 L 178.03116,262.22187 L 179.48093,244.69439 z M 174.82865,184.09989 C 173.45686,169.87224 172.15054,168.85387 153.54516,167.50772 L 133.72316,166.07355 L 133.72316,182.66572 C 133.72316,199.25531 133.72648,199.25788 155.00666,199.25788 C 176.20928,199.25788 176.28461,199.20029 174.82865,184.09989 z M 196.10019,140.53776 C 208.42753,135.80731 214.90802,116.32397 210.32491,97.771725 L 206.01515,80.325913 L 154.71115,79.149042 C 126.49397,78.501763 100.5209,79.837438 96.993213,82.11721 C 87.477692,88.266628 88.204764,120.86481 98.19758,136.1158 L 106.77968,149.21373 L 148.30419,146.07904 C 171.14268,144.35496 192.65087,141.86139 196.10019,140.53776 z M 136.05517,116.73857 C 110.5761,113.39943 106.93138,110.81454 117.12459,103.31281 C 129.5163,94.193096 181.92339,94.286337 189.52159,103.4416 C 201.69792,118.11318 182.66405,122.84686 136.05517,116.73857 z"
       id="path2635" />
  </g>
</svg>
