<?xml version="1.0" encoding="UTF-8" standalone="no"?>
<!-- Created with Inkscape (http://www.inkscape.org/) -->
<svg
   xmlns:dc="http://purl.org/dc/elements/1.1/"
   xmlns:cc="http://creativecommons.org/ns#"
   xmlns:rdf="http://www.w3.org/1999/02/22-rdf-syntax-ns#"
   xmlns:svg="http://www.w3.org/2000/svg"
   xmlns="http://www.w3.org/2000/svg"
   xmlns:sodipodi="http://sodipodi.sourceforge.net/DTD/sodipodi-0.dtd"
   xmlns:inkscape="http://www.inkscape.org/namespaces/inkscape"
   width="300"
   height="300"
   id="svg2400"
   sodipodi:version="0.32"
   inkscape:version="0.46"
   version="1.0"
   sodipodi:docname="豕-oracle.svg"
   inkscape:output_extension="org.inkscape.output.svg.inkscape">
  <defs
     id="defs2402">
    <inkscape:perspective
       sodipodi:type="inkscape:persp3d"
       inkscape:vp_x="0 : 526.18109 : 1"
       inkscape:vp_y="0 : 1000 : 0"
       inkscape:vp_z="744.09448 : 526.18109 : 1"
       inkscape:persp3d-origin="372.04724 : 350.78739 : 1"
       id="perspective2408" />
    <inkscape:perspective
       id="perspective3684"
       inkscape:persp3d-origin="372.04724 : 350.78739 : 1"
       inkscape:vp_z="744.09448 : 526.18109 : 1"
       inkscape:vp_y="0 : 1000 : 0"
       inkscape:vp_x="0 : 526.18109 : 1"
       sodipodi:type="inkscape:persp3d" />
    <inkscape:perspective
       id="perspective3736"
       inkscape:persp3d-origin="372.04724 : 350.78739 : 1"
       inkscape:vp_z="744.09448 : 526.18109 : 1"
       inkscape:vp_y="0 : 1000 : 0"
       inkscape:vp_x="0 : 526.18109 : 1"
       sodipodi:type="inkscape:persp3d" />
    <inkscape:perspective
       id="perspective2465"
       inkscape:persp3d-origin="372.04724 : 350.78739 : 1"
       inkscape:vp_z="744.09448 : 526.18109 : 1"
       inkscape:vp_y="0 : 1000 : 0"
       inkscape:vp_x="0 : 526.18109 : 1"
       sodipodi:type="inkscape:persp3d" />
    <inkscape:perspective
       id="perspective2537"
       inkscape:persp3d-origin="372.04724 : 350.78739 : 1"
       inkscape:vp_z="744.09448 : 526.18109 : 1"
       inkscape:vp_y="0 : 1000 : 0"
       inkscape:vp_x="0 : 526.18109 : 1"
       sodipodi:type="inkscape:persp3d" />
  </defs>
  <sodipodi:namedview
     id="base"
     pagecolor="#ffffff"
     bordercolor="#666666"
     borderopacity="1.0"
     gridtolerance="10000"
     guidetolerance="10"
     objecttolerance="10"
     inkscape:pageopacity="0.0"
     inkscape:pageshadow="2"
     inkscape:zoom="1.979899"
     inkscape:cx="159.69866"
     inkscape:cy="176.7451"
     inkscape:document-units="px"
     inkscape:current-layer="layer1"
     showgrid="false"
     width="300px"
     inkscape:window-width="1280"
     inkscape:window-height="953"
     inkscape:window-x="0"
     inkscape:window-y="25" />
  <metadata
     id="metadata2405">
    <rdf:RDF>
      <cc:Work
         rdf:about="">
        <dc:format>image/svg+xml</dc:format>
        <dc:type
           rdf:resource="http://purl.org/dc/dcmitype/StillImage" />
      </cc:Work>
    </rdf:RDF>
  </metadata>
  <g
     inkscape:label="Layer 1"
     inkscape:groupmode="layer"
     id="layer1">
    <path
       style="fill:#000000"
       d="M 125.95095,282.88816 C 142.13893,265.54826 159.0735,270.9782 170.36859,241.76304 C 175.68417,233.50549 177.15301,223.19639 177.77535,212.89572 C 177.77535,203.75693 175.39219,203.58491 165.71913,212.0255 C 162.45022,216.2181 157.14966,217.57655 153.30111,220.85655 C 149.83581,224.04135 143.03939,227.80039 140.74649,227.80039 C 127.02135,235.24794 112.336,236.40628 98.257923,241.1262 C 95.123152,243.0839 93.999563,242.95777 91.397832,240.35603 C 88.826522,237.78472 88.699982,236.7465 90.668782,234.37424 C 91.979032,232.79547 94.667702,231.50376 96.643603,231.50376 C 110.88374,229.98683 122.87051,223.05812 135.18648,216.69024 C 139.76941,214.37976 143.93571,211.93621 144.44493,211.26015 C 157.75608,203.08467 160.36817,198.45105 168.66893,185.80016 C 171.65659,182.8125 166.70209,175.95306 161.55649,175.95306 C 159.23665,175.95306 153.23359,178.09951 148.21637,180.72294 C 133.97093,188.17168 109.20335,193.67864 109.29117,189.37781 C 109.36415,185.80309 112.84163,183.4953 122.29159,180.75013 C 127.92978,179.11227 136.96006,174.86311 142.35889,171.30756 C 147.75771,167.75201 152.93547,164.84292 153.86499,164.84292 C 156.41289,164.84292 155.92019,162.68695 151.84477,156.00264 C 148.47448,152.00545 149.13029,146.29739 145.43933,142.67955 C 142.00608,139.83019 138.18368,141.68252 104.03474,162.74404 C 95.557942,167.97214 87.850272,172.24968 86.906603,172.24968 C 83.775602,172.24968 85.131902,166.85645 88.749832,164.92019 C 90.707273,163.8726 93.415372,161.92196 94.767832,160.58543 C 96.120282,159.2489 100.93959,156.11872 105.47742,153.62947 C 116.7568,147.44209 131.07559,133.92769 135.50953,125.28446 C 139.85263,116.81833 142.90579,99.947383 140.60531,97.126498 C 124.19547,93.054104 108.28921,99.530148 90.282982,99.848778 C 83.892332,100.03261 81.487463,99.398925 81.487463,97.531157 C 81.487463,95.852459 85.502972,94.17935 93.060523,92.709109 C 99.425712,91.470832 111.09135,88.335608 118.9842,85.741948 C 132.93217,81.158504 136.92077,77.349501 130.05439,75.170197 C 128.25016,74.59756 122.77549,70.58342 117.88842,66.249889 C 107.25493,56.8208 100.12446,41.135205 99.757452,26.365493 C 99.474362,14.97288 100.07036,14.006363 106.39905,15.594763 C 109.67567,16.417141 111.12301,18.038775 111.14239,20.909292 C 111.23529,34.67501 124.98192,54.935755 139.8961,63.288555 C 150.80453,69.3979 167.89915,74.519524 182.40458,76.024291 C 209.83463,78.869837 218.51254,80.176937 218.51254,81.463023 C 218.51254,83.74355 210.43773,86.882577 199.06979,89.021259 C 186.42124,91.400866 187.95742,91.303539 172.74185,90.689317 C 165.5111,90.397424 160.17231,91.100183 158.39126,92.578328 C 154.18866,96.066183 154.69557,118.30103 159.36157,135.13886 C 164.62975,154.1497 165.57575,155.49276 168.71033,148.41129 C 171.61814,143.19196 175.10679,138.83952 177.77535,133.36419 C 182.4233,123.44063 183.51746,122.64634 186.9094,126.73338 C 188.63251,128.80961 187.85283,131.82104 183.19392,141.08397 C 179.95099,147.53161 176.62275,153.24132 175.79784,153.77222 C 172.88951,155.64399 172.4382,164.79632 175.12191,167.48003 C 177.95157,170.82536 178.5169,175.11181 180.81255,178.86702 C 189.30219,193.53141 189.71065,222.37247 183.54647,238.47273 C 182.64686,240.24117 180.82952,243.99821 179.50797,246.82172 C 174.2925,257.96455 152.75793,275.25298 135.61193,282.06248 C 126.1551,285.81823 125.92173,285.83817 125.95095,282.88816 z"
       id="path2543"
       sodipodi:nodetypes="cccccccssccccssssssccssssssccsssssssssssssssccssscccssc" />
  </g>
</svg>
