<?xml version="1.0" encoding="UTF-8" standalone="no"?>
<!-- Created with Inkscape (http://www.inkscape.org/) -->

<svg
   xmlns:dc="http://purl.org/dc/elements/1.1/"
   xmlns:cc="http://creativecommons.org/ns#"
   xmlns:rdf="http://www.w3.org/1999/02/22-rdf-syntax-ns#"
   xmlns:svg="http://www.w3.org/2000/svg"
   xmlns="http://www.w3.org/2000/svg"
   xmlns:sodipodi="http://sodipodi.sourceforge.net/DTD/sodipodi-0.dtd"
   xmlns:inkscape="http://www.inkscape.org/namespaces/inkscape"
   width="300"
   height="300"
   id="svg2400"
   sodipodi:version="0.32"
   inkscape:version="0.47 r22583"
   version="1.0"
   sodipodi:docname="drawing.svg"
   inkscape:output_extension="org.inkscape.output.svg.inkscape">
  <defs
     id="defs2402">
    <inkscape:perspective
       sodipodi:type="inkscape:persp3d"
       inkscape:vp_x="0 : 526.18109 : 1"
       inkscape:vp_y="0 : 1000 : 0"
       inkscape:vp_z="744.09448 : 526.18109 : 1"
       inkscape:persp3d-origin="372.04724 : 350.78739 : 1"
       id="perspective2408" />
    <inkscape:perspective
       id="perspective3684"
       inkscape:persp3d-origin="372.04724 : 350.78739 : 1"
       inkscape:vp_z="744.09448 : 526.18109 : 1"
       inkscape:vp_y="0 : 1000 : 0"
       inkscape:vp_x="0 : 526.18109 : 1"
       sodipodi:type="inkscape:persp3d" />
    <inkscape:perspective
       id="perspective3736"
       inkscape:persp3d-origin="372.04724 : 350.78739 : 1"
       inkscape:vp_z="744.09448 : 526.18109 : 1"
       inkscape:vp_y="0 : 1000 : 0"
       inkscape:vp_x="0 : 526.18109 : 1"
       sodipodi:type="inkscape:persp3d" />
    <inkscape:perspective
       id="perspective3000"
       inkscape:persp3d-origin="0.5 : 0.33333333 : 1"
       inkscape:vp_z="1 : 0.5 : 1"
       inkscape:vp_y="0 : 1000 : 0"
       inkscape:vp_x="0 : 0.5 : 1"
       sodipodi:type="inkscape:persp3d" />
    <inkscape:perspective
       id="perspective3084"
       inkscape:persp3d-origin="0.5 : 0.33333333 : 1"
       inkscape:vp_z="1 : 0.5 : 1"
       inkscape:vp_y="0 : 1000 : 0"
       inkscape:vp_x="0 : 0.5 : 1"
       sodipodi:type="inkscape:persp3d" />
  </defs>
  <sodipodi:namedview
     id="base"
     pagecolor="#ffffff"
     bordercolor="#666666"
     borderopacity="1.0"
     gridtolerance="10000"
     guidetolerance="10"
     objecttolerance="10"
     inkscape:pageopacity="0.0"
     inkscape:pageshadow="2"
     inkscape:zoom="1.979899"
     inkscape:cx="153.55055"
     inkscape:cy="115.2045"
     inkscape:document-units="px"
     inkscape:current-layer="layer1"
     showgrid="false"
     width="300px"
     inkscape:window-width="1280"
     inkscape:window-height="953"
     inkscape:window-x="0"
     inkscape:window-y="48" />
  <metadata
     id="metadata2405">
    <rdf:RDF>
      <cc:Work
         rdf:about="">
        <dc:format>image/svg+xml</dc:format>
        <dc:type
           rdf:resource="http://purl.org/dc/dcmitype/StillImage" />
        <dc:title></dc:title>
      </cc:Work>
    </rdf:RDF>
  </metadata>
  <g
     inkscape:label="Layer 1"
     inkscape:groupmode="layer"
     id="layer1">
    <path
       style="fill:#000000"
       d="m 130.92692,281.85883 c -1.00358,-1.62386 0.68657,-6.57231 3.7559,-10.99655 6.18849,-8.92035 16.15744,-33.979 20.69901,-52.03038 1.6231,-6.45131 4.44838,-17.40549 6.27838,-24.34263 4.00318,-15.17505 4.9495,-94.23546 1.16013,-96.921682 -1.57066,-2.977604 -4.9858,-28.554101 -15.75275,-29.755089 -6.18919,0.313308 -8.8446,6.192855 -13.92898,9.547721 -14.46827,9.135646 -23.76391,22.242101 -38.854502,30.25342 -4.224078,2.4864 -14.185574,7.11751 -25.063522,7.11751 -12.163631,0 -13.719634,-6.57077 -2.913371,-12.30277 21.130022,-11.208031 49.104735,-30.363734 63.271405,-43.325144 6.5356,-8.453394 18.06159,-11.673869 23.45244,-20.79921 3.20128,-5.981669 2.80788,-6.042064 -35.26361,-5.414244 -32.250887,0.531836 -39.276863,-0.140972 -43.280387,-4.144496 -2.628674,-2.628664 -4.19815,-5.345108 -3.487742,-6.036538 1.608721,-1.565745 48.911359,-4.157926 120.787599,-6.619167 54.81484,-1.876999 54.9828,-1.86358 54.9828,4.393173 0,6.000884 -1.30483,6.275925 -29.77461,6.275925 l -29.77461,0 -11.47436,12.428984 c -10.17006,11.016157 -11.25695,13.587962 -9.5616,22.624888 1.05201,5.607751 3.62494,13.540474 5.71759,17.628276 2.09267,4.087802 5.48849,15.019994 7.54628,24.293753 2.05779,9.27377 4.24642,16.86139 4.86361,16.86139 0.61721,0 3.67353,-2.37692 6.7918,-5.28204 3.11829,-2.90513 11.0622,-8.16045 17.65314,-11.67849 11.18441,-5.969911 12.46031,-6.084056 19.13331,-1.71174 5.96218,3.90657 7.19608,7.18588 7.42842,19.74263 0.32366,17.49232 0.82516,28.41396 4.09126,89.10143 0.64741,11.14353 5.74188,50.67908 -10.23473,56.449 -5.61853,0 -5.87065,-2.00123 -6.00366,-47.65176 -0.12403,-42.57599 -1.25614,-64.53279 -4.27136,-82.84074 -0.53124,-3.22566 -1.07587,-9.47115 -1.21027,-13.87887 l -0.24438,-8.01405 -10.9943,6.17512 c -20.43359,11.47687 -24.19467,17.88687 -24.19467,41.23492 0,38.85833 -11.33317,79.13585 -31.39415,111.57331 -6.60787,10.68455 -15.96911,14.46188 -19.93551,8.04414 z M 53.230282,250.67284 c 0,-2.64784 3.628864,-8.34998 8.064143,-12.67142 4.435279,-4.32143 17.930149,-18.97975 29.988612,-32.57404 31.631913,-35.66072 56.446913,-61.37208 59.232513,-61.37208 1.32928,0 2.41686,3.7148 2.41686,8.25512 0,6.53527 -6.56752,14.98967 -31.52346,40.58037 -17.33791,17.77889 -36.801819,39.08331 -43.253133,47.34316 -11.963759,15.31765 -24.925535,20.74609 -24.925535,10.43889 z M 69.563279,174.3217 c -0.929473,-2.42215 -1.004094,-5.51365 -0.165831,-6.86999 3.887981,-6.29088 72.848052,-70.315059 75.735942,-70.315059 1.06381,0 1.93419,3.156229 1.93419,7.013859 0,4.8522 -6.94318,13.88984 -22.52834,29.32415 -13.8,12.02668 -30.262613,30.84217 -44.810518,40.38669 -7.435107,4.26716 -8.682953,4.32367 -10.165443,0.46035 z"
       id="path3092"
       sodipodi:nodetypes="csssccccssccssssscccssssssssccsscccssccssssssccsssccc" />
  </g>
</svg>
