<?xml version="1.0" encoding="UTF-8" standalone="no"?>
<!-- Created with Inkscape (http://www.inkscape.org/) -->
<svg
   xmlns:dc="http://purl.org/dc/elements/1.1/"
   xmlns:cc="http://creativecommons.org/ns#"
   xmlns:rdf="http://www.w3.org/1999/02/22-rdf-syntax-ns#"
   xmlns:svg="http://www.w3.org/2000/svg"
   xmlns="http://www.w3.org/2000/svg"
   xmlns:sodipodi="http://sodipodi.sourceforge.net/DTD/sodipodi-0.dtd"
   xmlns:inkscape="http://www.inkscape.org/namespaces/inkscape"
   width="300"
   height="300"
   id="svg2400"
   sodipodi:version="0.32"
   inkscape:version="0.46"
   version="1.0"
   sodipodi:docname="豕-oracle.svg"
   inkscape:output_extension="org.inkscape.output.svg.inkscape">
  <defs
     id="defs2402">
    <inkscape:perspective
       sodipodi:type="inkscape:persp3d"
       inkscape:vp_x="0 : 526.18109 : 1"
       inkscape:vp_y="0 : 1000 : 0"
       inkscape:vp_z="744.09448 : 526.18109 : 1"
       inkscape:persp3d-origin="372.04724 : 350.78739 : 1"
       id="perspective2408" />
    <inkscape:perspective
       id="perspective3684"
       inkscape:persp3d-origin="372.04724 : 350.78739 : 1"
       inkscape:vp_z="744.09448 : 526.18109 : 1"
       inkscape:vp_y="0 : 1000 : 0"
       inkscape:vp_x="0 : 526.18109 : 1"
       sodipodi:type="inkscape:persp3d" />
    <inkscape:perspective
       id="perspective3736"
       inkscape:persp3d-origin="372.04724 : 350.78739 : 1"
       inkscape:vp_z="744.09448 : 526.18109 : 1"
       inkscape:vp_y="0 : 1000 : 0"
       inkscape:vp_x="0 : 526.18109 : 1"
       sodipodi:type="inkscape:persp3d" />
    <inkscape:perspective
       id="perspective2465"
       inkscape:persp3d-origin="372.04724 : 350.78739 : 1"
       inkscape:vp_z="744.09448 : 526.18109 : 1"
       inkscape:vp_y="0 : 1000 : 0"
       inkscape:vp_x="0 : 526.18109 : 1"
       sodipodi:type="inkscape:persp3d" />
    <inkscape:perspective
       id="perspective2537"
       inkscape:persp3d-origin="372.04724 : 350.78739 : 1"
       inkscape:vp_z="744.09448 : 526.18109 : 1"
       inkscape:vp_y="0 : 1000 : 0"
       inkscape:vp_x="0 : 526.18109 : 1"
       sodipodi:type="inkscape:persp3d" />
    <inkscape:perspective
       id="perspective2609"
       inkscape:persp3d-origin="372.04724 : 350.78739 : 1"
       inkscape:vp_z="744.09448 : 526.18109 : 1"
       inkscape:vp_y="0 : 1000 : 0"
       inkscape:vp_x="0 : 526.18109 : 1"
       sodipodi:type="inkscape:persp3d" />
  </defs>
  <sodipodi:namedview
     id="base"
     pagecolor="#ffffff"
     bordercolor="#666666"
     borderopacity="1.0"
     gridtolerance="10000"
     guidetolerance="10"
     objecttolerance="10"
     inkscape:pageopacity="0.0"
     inkscape:pageshadow="2"
     inkscape:zoom="1.979899"
     inkscape:cx="159.69866"
     inkscape:cy="176.7451"
     inkscape:document-units="px"
     inkscape:current-layer="layer1"
     showgrid="false"
     width="300px"
     inkscape:window-width="1280"
     inkscape:window-height="953"
     inkscape:window-x="0"
     inkscape:window-y="25" />
  <metadata
     id="metadata2405">
    <rdf:RDF>
      <cc:Work
         rdf:about="">
        <dc:format>image/svg+xml</dc:format>
        <dc:type
           rdf:resource="http://purl.org/dc/dcmitype/StillImage" />
      </cc:Work>
    </rdf:RDF>
  </metadata>
  <g
     inkscape:label="Layer 1"
     inkscape:groupmode="layer"
     id="layer1">
    <path
       style="fill:#000000"
       d="M 112.06411,281.19843 C 112.06411,279.10756 117.55759,269.25706 124.27184,259.30844 C 142.23729,232.68868 156.79345,189.17901 155.31528,166.51677 L 154.08731,147.6903 L 124.07074,172.19462 C 107.56162,185.67199 83.688741,206.05117 71.019901,217.48169 C 49.294971,237.08308 40.234391,240.62176 45.252241,227.54546 C 46.470241,224.37139 72.804261,200.43054 103.77226,174.34357 C 134.74028,148.2566 160.08065,124.88198 160.08419,122.4 C 160.08773,119.91801 157.24288,115.52387 153.76233,112.63526 C 148.53008,108.29288 145.93067,108.33074 138.75404,112.85389 C 116.94382,126.59999 54.649791,160.93149 51.517891,160.93149 C 45.295791,160.93149 47.829361,153.85927 55.032621,151.12046 C 68.493051,146.00255 144.08178,96.181546 144.08178,92.427617 C 144.08178,83.959465 128.77726,83.912146 96.299121,92.279873 C 61.805751,101.16681 39.182281,103.61954 46.227761,97.708376 C 48.318911,95.953901 66.228001,89.395604 86.025731,83.134393 C 125.02826,70.799486 147.71941,58.444733 157.83943,44.033676 L 164.28022,34.861887 L 104.38869,32.762572 C 49.760731,30.847755 35.007921,28.5387 40.745281,22.801349 C 43.660371,19.886255 247.82741,12.981289 254.57262,15.569668 C 273.19177,22.714508 244.66202,32.860782 205.95269,32.860782 C 178.17057,32.860782 176.86015,33.287326 174.38857,43.134904 C 172.97032,48.785668 166.48298,56.439894 159.97227,60.144296 C 146.15641,68.005095 145.20241,73.036713 155.72271,82.557451 C 159.924,86.359569 165.63782,95.193425 168.42008,102.18824 C 171.20234,109.18305 173.97356,115.56165 174.57833,116.3629 C 175.18311,117.16416 180.51815,114.01242 186.43396,109.35903 C 198.4688,99.892428 220.8514,98.133664 227.49022,106.13295 C 232.87237,112.61805 240.67771,217.66266 236.1307,222.41691 C 228.46295,230.43413 224.74669,218.46844 222.31809,177.9428 C 218.78,118.90285 218.21143,116.90718 204.9292,116.90718 C 185.06076,116.90718 176.09946,126.86926 176.09946,148.95654 C 176.09946,197.94838 137.11558,285 115.17581,285 C 113.46437,285 112.06411,283.28929 112.06411,281.19843 z"
       id="path2615" />
  </g>
</svg>
