<?xml version="1.0" encoding="UTF-8" standalone="no"?>
<!-- Created with Inkscape (http://www.inkscape.org/) -->
<svg
   xmlns:dc="http://purl.org/dc/elements/1.1/"
   xmlns:cc="http://creativecommons.org/ns#"
   xmlns:rdf="http://www.w3.org/1999/02/22-rdf-syntax-ns#"
   xmlns:svg="http://www.w3.org/2000/svg"
   xmlns="http://www.w3.org/2000/svg"
   xmlns:sodipodi="http://sodipodi.sourceforge.net/DTD/sodipodi-0.dtd"
   xmlns:inkscape="http://www.inkscape.org/namespaces/inkscape"
   width="300"
   height="300"
   id="svg2400"
   sodipodi:version="0.32"
   inkscape:version="0.46"
   version="1.0"
   sodipodi:docname="豸-bronze.svg"
   inkscape:output_extension="org.inkscape.output.svg.inkscape">
  <defs
     id="defs2402">
    <inkscape:perspective
       sodipodi:type="inkscape:persp3d"
       inkscape:vp_x="0 : 526.18109 : 1"
       inkscape:vp_y="0 : 1000 : 0"
       inkscape:vp_z="744.09448 : 526.18109 : 1"
       inkscape:persp3d-origin="372.04724 : 350.78739 : 1"
       id="perspective2408" />
    <inkscape:perspective
       id="perspective3684"
       inkscape:persp3d-origin="372.04724 : 350.78739 : 1"
       inkscape:vp_z="744.09448 : 526.18109 : 1"
       inkscape:vp_y="0 : 1000 : 0"
       inkscape:vp_x="0 : 526.18109 : 1"
       sodipodi:type="inkscape:persp3d" />
    <inkscape:perspective
       id="perspective3736"
       inkscape:persp3d-origin="372.04724 : 350.78739 : 1"
       inkscape:vp_z="744.09448 : 526.18109 : 1"
       inkscape:vp_y="0 : 1000 : 0"
       inkscape:vp_x="0 : 526.18109 : 1"
       sodipodi:type="inkscape:persp3d" />
    <inkscape:perspective
       id="perspective2478"
       inkscape:persp3d-origin="372.04724 : 350.78739 : 1"
       inkscape:vp_z="744.09448 : 526.18109 : 1"
       inkscape:vp_y="0 : 1000 : 0"
       inkscape:vp_x="0 : 526.18109 : 1"
       sodipodi:type="inkscape:persp3d" />
    <inkscape:perspective
       id="perspective2513"
       inkscape:persp3d-origin="372.04724 : 350.78739 : 1"
       inkscape:vp_z="744.09448 : 526.18109 : 1"
       inkscape:vp_y="0 : 1000 : 0"
       inkscape:vp_x="0 : 526.18109 : 1"
       sodipodi:type="inkscape:persp3d" />
    <inkscape:perspective
       id="perspective2550"
       inkscape:persp3d-origin="372.04724 : 350.78739 : 1"
       inkscape:vp_z="744.09448 : 526.18109 : 1"
       inkscape:vp_y="0 : 1000 : 0"
       inkscape:vp_x="0 : 526.18109 : 1"
       sodipodi:type="inkscape:persp3d" />
    <inkscape:perspective
       id="perspective2585"
       inkscape:persp3d-origin="372.04724 : 350.78739 : 1"
       inkscape:vp_z="744.09448 : 526.18109 : 1"
       inkscape:vp_y="0 : 1000 : 0"
       inkscape:vp_x="0 : 526.18109 : 1"
       sodipodi:type="inkscape:persp3d" />
    <inkscape:perspective
       id="perspective2620"
       inkscape:persp3d-origin="372.04724 : 350.78739 : 1"
       inkscape:vp_z="744.09448 : 526.18109 : 1"
       inkscape:vp_y="0 : 1000 : 0"
       inkscape:vp_x="0 : 526.18109 : 1"
       sodipodi:type="inkscape:persp3d" />
    <inkscape:perspective
       id="perspective2655"
       inkscape:persp3d-origin="372.04724 : 350.78739 : 1"
       inkscape:vp_z="744.09448 : 526.18109 : 1"
       inkscape:vp_y="0 : 1000 : 0"
       inkscape:vp_x="0 : 526.18109 : 1"
       sodipodi:type="inkscape:persp3d" />
    <inkscape:perspective
       id="perspective2690"
       inkscape:persp3d-origin="372.04724 : 350.78739 : 1"
       inkscape:vp_z="744.09448 : 526.18109 : 1"
       inkscape:vp_y="0 : 1000 : 0"
       inkscape:vp_x="0 : 526.18109 : 1"
       sodipodi:type="inkscape:persp3d" />
    <inkscape:perspective
       id="perspective2725"
       inkscape:persp3d-origin="372.04724 : 350.78739 : 1"
       inkscape:vp_z="744.09448 : 526.18109 : 1"
       inkscape:vp_y="0 : 1000 : 0"
       inkscape:vp_x="0 : 526.18109 : 1"
       sodipodi:type="inkscape:persp3d" />
    <inkscape:perspective
       id="perspective2760"
       inkscape:persp3d-origin="372.04724 : 350.78739 : 1"
       inkscape:vp_z="744.09448 : 526.18109 : 1"
       inkscape:vp_y="0 : 1000 : 0"
       inkscape:vp_x="0 : 526.18109 : 1"
       sodipodi:type="inkscape:persp3d" />
    <inkscape:perspective
       id="perspective2797"
       inkscape:persp3d-origin="372.04724 : 350.78739 : 1"
       inkscape:vp_z="744.09448 : 526.18109 : 1"
       inkscape:vp_y="0 : 1000 : 0"
       inkscape:vp_x="0 : 526.18109 : 1"
       sodipodi:type="inkscape:persp3d" />
    <inkscape:perspective
       id="perspective2832"
       inkscape:persp3d-origin="372.04724 : 350.78739 : 1"
       inkscape:vp_z="744.09448 : 526.18109 : 1"
       inkscape:vp_y="0 : 1000 : 0"
       inkscape:vp_x="0 : 526.18109 : 1"
       sodipodi:type="inkscape:persp3d" />
    <inkscape:perspective
       id="perspective2867"
       inkscape:persp3d-origin="372.04724 : 350.78739 : 1"
       inkscape:vp_z="744.09448 : 526.18109 : 1"
       inkscape:vp_y="0 : 1000 : 0"
       inkscape:vp_x="0 : 526.18109 : 1"
       sodipodi:type="inkscape:persp3d" />
    <inkscape:perspective
       id="perspective2902"
       inkscape:persp3d-origin="372.04724 : 350.78739 : 1"
       inkscape:vp_z="744.09448 : 526.18109 : 1"
       inkscape:vp_y="0 : 1000 : 0"
       inkscape:vp_x="0 : 526.18109 : 1"
       sodipodi:type="inkscape:persp3d" />
    <inkscape:perspective
       id="perspective2937"
       inkscape:persp3d-origin="372.04724 : 350.78739 : 1"
       inkscape:vp_z="744.09448 : 526.18109 : 1"
       inkscape:vp_y="0 : 1000 : 0"
       inkscape:vp_x="0 : 526.18109 : 1"
       sodipodi:type="inkscape:persp3d" />
    <inkscape:perspective
       id="perspective2972"
       inkscape:persp3d-origin="372.04724 : 350.78739 : 1"
       inkscape:vp_z="744.09448 : 526.18109 : 1"
       inkscape:vp_y="0 : 1000 : 0"
       inkscape:vp_x="0 : 526.18109 : 1"
       sodipodi:type="inkscape:persp3d" />
  </defs>
  <sodipodi:namedview
     id="base"
     pagecolor="#ffffff"
     bordercolor="#666666"
     borderopacity="1.0"
     gridtolerance="10000"
     guidetolerance="10"
     objecttolerance="10"
     inkscape:pageopacity="0.0"
     inkscape:pageshadow="2"
     inkscape:zoom="1.4"
     inkscape:cx="50.160275"
     inkscape:cy="92.990654"
     inkscape:document-units="px"
     inkscape:current-layer="layer1"
     showgrid="false"
     width="300px"
     inkscape:window-width="1280"
     inkscape:window-height="953"
     inkscape:window-x="0"
     inkscape:window-y="25" />
  <metadata
     id="metadata2405">
    <rdf:RDF>
      <cc:Work
         rdf:about="">
        <dc:format>image/svg+xml</dc:format>
        <dc:type
           rdf:resource="http://purl.org/dc/dcmitype/StillImage" />
      </cc:Work>
    </rdf:RDF>
  </metadata>
  <g
     inkscape:label="Layer 1"
     inkscape:groupmode="layer"
     id="layer1">
    <path
       style="fill:#000000"
       d="M 106.62642,283.01511 C 104.65855,281.57755 103.52333,278.20835 102.50955,270.79671 L 101.1098,260.56318 L 94.912395,259.51448 C 89.396879,258.58116 86.498231,256.69971 86.433771,254.01118 C 86.421981,253.51946 88.774431,252.69852 91.66143,252.18685 C 101.6851,250.41037 101.46423,250.66293 102.48797,239.80697 C 103.49635,229.11388 105.71279,219.38916 107.64467,217.18175 C 108.28476,216.45039 108.80846,214.52922 108.80846,212.91249 C 108.80846,211.29578 109.36499,209.37461 110.0452,208.64323 C 110.72541,207.91187 112.65642,203.21917 114.33634,198.21504 C 116.01626,193.21091 118.1246,187.54189 119.02154,185.61722 C 121.42619,180.45726 127.97414,174.41917 131.16517,174.41917 C 132.92093,174.41917 134.20009,173.25482 134.62517,171.26971 C 136.32194,163.34592 138.55352,147.70737 139.16928,139.42523 L 139.84574,130.32681 L 135.17522,128.30489 C 132.60643,127.19283 130.18976,126.33793 129.80482,126.40511 C 122.6964,124.08977 116.01363,120.37306 108.76843,118.42887 C 106.21519,118.42887 100.06957,115.42284 92.550398,110.49609 C 88.320611,107.72463 85.012581,101.66669 85.012581,96.69222 C 85.012581,93.086413 94.135472,82.035174 97.112096,82.035174 C 97.848082,82.035174 99.197051,81.288377 100.10981,80.375625 C 102.32402,78.161414 116.87797,73.683114 121.94376,73.657246 C 128.24582,73.625062 137.00435,70.579692 136.27337,68.67479 C 134.23005,63.350001 133.81113,42.597901 135.48154,29.450182 C 137.37187,14.571515 138.58467,12.5167 142.65504,17.296393 C 146.65145,21.98924 147.85149,28.265912 148.34195,47.041238 C 148.90344,68.535292 151.02457,75.486085 157.51974,77.116272 C 160.41703,77.843445 161.81537,77.329542 163.84,74.793515 C 165.26991,73.002429 167.89746,69.880734 169.679,67.856417 C 171.46055,65.832099 173.70517,62.682644 174.66705,60.857629 C 175.62893,59.032613 176.79601,57.224474 177.26056,56.83954 C 178.64942,55.688717 187.19488,41.344923 187.19488,40.164498 C 187.19488,39.564067 188.1011,37.243831 189.20871,35.008416 C 190.31632,32.773002 191.87546,29.211828 192.67346,27.094695 C 194.61036,21.956026 196.53665,22.242644 198.95445,28.029258 C 201.50906,34.143297 200.30311,40.440636 193.6839,55.551453 C 192.47667,58.307404 190.00306,62.08675 188.18698,63.949997 C 183.46306,68.796613 175.99682,80.0928 175.99682,82.393318 C 175.99682,85.344565 182.0637,90.433719 185.58193,90.433719 C 189.98071,90.433719 201.21396,96.445129 205.60941,101.15132 C 211.97377,107.9656 215.22899,115.19691 214.97345,121.95302 C 214.76526,127.45686 214.13061,128.58061 209.36533,131.88295 C 206.40998,133.93101 203.99197,136.15092 203.99197,136.81608 C 203.99197,140.90332 183.22604,135.60133 176.93359,129.9075 C 175.52414,128.63214 172.0986,126.53783 169.32127,125.25348 C 161.95713,121.84801 158.44884,123.6742 155.3504,132.52582 C 152.827,139.73465 153.16673,143.3379 156.98392,149.85145 C 160.28062,155.47685 176.73434,171.61965 179.17139,171.61965 C 179.84249,171.61965 183.09685,173.48094 186.40331,175.75584 C 193.50718,180.64343 198.12543,188.86525 195.52616,191.99718 C 190.92821,197.53736 179.67299,191.59902 164.87229,175.82395 C 155.43379,165.76408 152.25634,163.22111 149.12502,163.22111 C 145.56637,163.22111 145.20216,163.68122 145.20216,168.17693 C 145.20216,173.25584 140.44463,181.41796 137.48425,181.41796 C 133.30201,181.41796 124.35635,197.13996 126.04086,201.52972 C 127.00924,204.05328 140.65217,210.81286 144.77711,210.81286 C 146.65391,210.81286 148.00167,209.96845 148.00167,208.79259 C 148.00167,205.89852 153.55113,202.41432 158.16068,202.41432 C 166.83705,202.41432 174.42941,211.60046 171.68925,218.78279 C 170.32935,222.34728 170.61636,223.06703 174.79056,226.56013 C 177.32051,228.67727 179.78024,230.40947 180.25663,230.40947 C 180.73301,230.40947 181.95406,231.96272 182.97007,233.86114 C 185.10414,237.84869 183.0863,241.60753 178.8116,241.60753 C 174.60161,241.60753 144.8015,229.02245 142.40264,226.23142 C 141.41558,225.083 123.81499,217.80275 122.03741,217.80763 C 117.79671,222.98985 114.88412,232.89823 114.68074,239.85782 L 115.10737,246.50667 L 122.53581,247.25292 C 129.97375,248.00013 133.22565,250.33528 131.88976,253.96988 C 131.51291,254.99518 131.20458,256.41244 131.20458,257.11934 C 131.20458,257.82623 127.42524,258.40461 122.80604,258.40461 L 114.40749,258.40461 L 114.40749,266.84812 C 114.40749,273.92794 111.62592,285 109.8473,285 C 109.57023,285 108.12083,284.10681 106.62642,283.01511 z M 162.74384,213.75328 C 162.14812,211.87633 160.63324,210.81286 158.55528,210.81286 C 153.67456,210.81286 153.02434,214.56475 157.51189,216.83337 C 161.97103,219.08761 164.04869,217.86447 162.74384,213.75328 z M 198.14792,120.75466 C 198.66545,116.23414 195.81742,112.44516 189.55298,109.32004 C 184.4508,106.77474 181.66062,106.73939 178.44639,109.17934 C 175.22718,111.62307 175.33106,112.39262 179.64337,118.04635 C 183.85063,123.56235 187.57234,125.43674 193.49379,125.02194 C 196.98049,124.77769 197.77024,124.05358 198.14792,120.75466 z M 157.56968,106.69186 C 159.25568,103.31597 160.30247,99.686966 159.89587,98.6274 C 159.12646,96.622348 150.00857,93.233234 145.38369,93.233234 C 142.14315,93.233234 137.78994,101.63131 139.10111,105.35341 C 140.5349,109.42361 145.5171,112.7648 150.20313,112.79871 C 153.89691,112.82544 154.93707,111.96315 157.56968,106.69186 z M 125.63267,107.90614 C 126.99635,106.67203 128.45479,103.96807 128.87363,101.89734 C 129.29248,99.826616 130.03972,96.515297 130.53416,94.538855 C 131.34174,91.310659 130.88788,90.78321 126.06977,89.350705 C 114.92521,86.037238 109.69911,85.82673 106.54667,88.564315 C 102.80755,91.811382 101.26248,98.610541 103.14097,103.55133 C 105.89226,110.78778 119.53063,113.42842 125.63267,107.90614 z"
       id="path2978"
       sodipodi:nodetypes="ccccsssssssssscccccsssssssssssssssssssssssssssssssssssssssssssssssccccsscccsccssccssssccssssccsssssc" />
  </g>
</svg>
