<?xml version="1.0" encoding="UTF-8" standalone="no"?>
<!-- Created with Inkscape (http://www.inkscape.org/) -->
<svg
   xmlns:dc="http://purl.org/dc/elements/1.1/"
   xmlns:cc="http://creativecommons.org/ns#"
   xmlns:rdf="http://www.w3.org/1999/02/22-rdf-syntax-ns#"
   xmlns:svg="http://www.w3.org/2000/svg"
   xmlns="http://www.w3.org/2000/svg"
   xmlns:sodipodi="http://sodipodi.sourceforge.net/DTD/sodipodi-0.dtd"
   xmlns:inkscape="http://www.inkscape.org/namespaces/inkscape"
   width="300"
   height="300"
   id="svg2400"
   sodipodi:version="0.32"
   inkscape:version="0.46"
   version="1.0"
   sodipodi:docname="豸-seal.svg"
   inkscape:output_extension="org.inkscape.output.svg.inkscape">
  <defs
     id="defs2402">
    <inkscape:perspective
       sodipodi:type="inkscape:persp3d"
       inkscape:vp_x="0 : 526.18109 : 1"
       inkscape:vp_y="0 : 1000 : 0"
       inkscape:vp_z="744.09448 : 526.18109 : 1"
       inkscape:persp3d-origin="372.04724 : 350.78739 : 1"
       id="perspective2408" />
    <inkscape:perspective
       id="perspective3684"
       inkscape:persp3d-origin="372.04724 : 350.78739 : 1"
       inkscape:vp_z="744.09448 : 526.18109 : 1"
       inkscape:vp_y="0 : 1000 : 0"
       inkscape:vp_x="0 : 526.18109 : 1"
       sodipodi:type="inkscape:persp3d" />
    <inkscape:perspective
       id="perspective3736"
       inkscape:persp3d-origin="372.04724 : 350.78739 : 1"
       inkscape:vp_z="744.09448 : 526.18109 : 1"
       inkscape:vp_y="0 : 1000 : 0"
       inkscape:vp_x="0 : 526.18109 : 1"
       sodipodi:type="inkscape:persp3d" />
    <inkscape:perspective
       id="perspective2478"
       inkscape:persp3d-origin="372.04724 : 350.78739 : 1"
       inkscape:vp_z="744.09448 : 526.18109 : 1"
       inkscape:vp_y="0 : 1000 : 0"
       inkscape:vp_x="0 : 526.18109 : 1"
       sodipodi:type="inkscape:persp3d" />
    <inkscape:perspective
       id="perspective2513"
       inkscape:persp3d-origin="372.04724 : 350.78739 : 1"
       inkscape:vp_z="744.09448 : 526.18109 : 1"
       inkscape:vp_y="0 : 1000 : 0"
       inkscape:vp_x="0 : 526.18109 : 1"
       sodipodi:type="inkscape:persp3d" />
    <inkscape:perspective
       id="perspective2550"
       inkscape:persp3d-origin="372.04724 : 350.78739 : 1"
       inkscape:vp_z="744.09448 : 526.18109 : 1"
       inkscape:vp_y="0 : 1000 : 0"
       inkscape:vp_x="0 : 526.18109 : 1"
       sodipodi:type="inkscape:persp3d" />
    <inkscape:perspective
       id="perspective2585"
       inkscape:persp3d-origin="372.04724 : 350.78739 : 1"
       inkscape:vp_z="744.09448 : 526.18109 : 1"
       inkscape:vp_y="0 : 1000 : 0"
       inkscape:vp_x="0 : 526.18109 : 1"
       sodipodi:type="inkscape:persp3d" />
    <inkscape:perspective
       id="perspective2620"
       inkscape:persp3d-origin="372.04724 : 350.78739 : 1"
       inkscape:vp_z="744.09448 : 526.18109 : 1"
       inkscape:vp_y="0 : 1000 : 0"
       inkscape:vp_x="0 : 526.18109 : 1"
       sodipodi:type="inkscape:persp3d" />
    <inkscape:perspective
       id="perspective2655"
       inkscape:persp3d-origin="372.04724 : 350.78739 : 1"
       inkscape:vp_z="744.09448 : 526.18109 : 1"
       inkscape:vp_y="0 : 1000 : 0"
       inkscape:vp_x="0 : 526.18109 : 1"
       sodipodi:type="inkscape:persp3d" />
    <inkscape:perspective
       id="perspective2690"
       inkscape:persp3d-origin="372.04724 : 350.78739 : 1"
       inkscape:vp_z="744.09448 : 526.18109 : 1"
       inkscape:vp_y="0 : 1000 : 0"
       inkscape:vp_x="0 : 526.18109 : 1"
       sodipodi:type="inkscape:persp3d" />
    <inkscape:perspective
       id="perspective2725"
       inkscape:persp3d-origin="372.04724 : 350.78739 : 1"
       inkscape:vp_z="744.09448 : 526.18109 : 1"
       inkscape:vp_y="0 : 1000 : 0"
       inkscape:vp_x="0 : 526.18109 : 1"
       sodipodi:type="inkscape:persp3d" />
    <inkscape:perspective
       id="perspective2760"
       inkscape:persp3d-origin="372.04724 : 350.78739 : 1"
       inkscape:vp_z="744.09448 : 526.18109 : 1"
       inkscape:vp_y="0 : 1000 : 0"
       inkscape:vp_x="0 : 526.18109 : 1"
       sodipodi:type="inkscape:persp3d" />
    <inkscape:perspective
       id="perspective2797"
       inkscape:persp3d-origin="372.04724 : 350.78739 : 1"
       inkscape:vp_z="744.09448 : 526.18109 : 1"
       inkscape:vp_y="0 : 1000 : 0"
       inkscape:vp_x="0 : 526.18109 : 1"
       sodipodi:type="inkscape:persp3d" />
    <inkscape:perspective
       id="perspective2832"
       inkscape:persp3d-origin="372.04724 : 350.78739 : 1"
       inkscape:vp_z="744.09448 : 526.18109 : 1"
       inkscape:vp_y="0 : 1000 : 0"
       inkscape:vp_x="0 : 526.18109 : 1"
       sodipodi:type="inkscape:persp3d" />
    <inkscape:perspective
       id="perspective2867"
       inkscape:persp3d-origin="372.04724 : 350.78739 : 1"
       inkscape:vp_z="744.09448 : 526.18109 : 1"
       inkscape:vp_y="0 : 1000 : 0"
       inkscape:vp_x="0 : 526.18109 : 1"
       sodipodi:type="inkscape:persp3d" />
    <inkscape:perspective
       id="perspective2902"
       inkscape:persp3d-origin="372.04724 : 350.78739 : 1"
       inkscape:vp_z="744.09448 : 526.18109 : 1"
       inkscape:vp_y="0 : 1000 : 0"
       inkscape:vp_x="0 : 526.18109 : 1"
       sodipodi:type="inkscape:persp3d" />
    <inkscape:perspective
       id="perspective2937"
       inkscape:persp3d-origin="372.04724 : 350.78739 : 1"
       inkscape:vp_z="744.09448 : 526.18109 : 1"
       inkscape:vp_y="0 : 1000 : 0"
       inkscape:vp_x="0 : 526.18109 : 1"
       sodipodi:type="inkscape:persp3d" />
    <inkscape:perspective
       id="perspective2972"
       inkscape:persp3d-origin="372.04724 : 350.78739 : 1"
       inkscape:vp_z="744.09448 : 526.18109 : 1"
       inkscape:vp_y="0 : 1000 : 0"
       inkscape:vp_x="0 : 526.18109 : 1"
       sodipodi:type="inkscape:persp3d" />
    <inkscape:perspective
       id="perspective3007"
       inkscape:persp3d-origin="372.04724 : 350.78739 : 1"
       inkscape:vp_z="744.09448 : 526.18109 : 1"
       inkscape:vp_y="0 : 1000 : 0"
       inkscape:vp_x="0 : 526.18109 : 1"
       sodipodi:type="inkscape:persp3d" />
    <inkscape:perspective
       id="perspective3062"
       inkscape:persp3d-origin="372.04724 : 350.78739 : 1"
       inkscape:vp_z="744.09448 : 526.18109 : 1"
       inkscape:vp_y="0 : 1000 : 0"
       inkscape:vp_x="0 : 526.18109 : 1"
       sodipodi:type="inkscape:persp3d" />
  </defs>
  <sodipodi:namedview
     id="base"
     pagecolor="#ffffff"
     bordercolor="#666666"
     borderopacity="1.0"
     gridtolerance="10000"
     guidetolerance="10"
     objecttolerance="10"
     inkscape:pageopacity="0.0"
     inkscape:pageshadow="2"
     inkscape:zoom="1.4"
     inkscape:cx="86.768569"
     inkscape:cy="134.63495"
     inkscape:document-units="px"
     inkscape:current-layer="layer1"
     showgrid="false"
     width="300px"
     inkscape:window-width="1280"
     inkscape:window-height="953"
     inkscape:window-x="0"
     inkscape:window-y="25" />
  <metadata
     id="metadata2405">
    <rdf:RDF>
      <cc:Work
         rdf:about="">
        <dc:format>image/svg+xml</dc:format>
        <dc:type
           rdf:resource="http://purl.org/dc/dcmitype/StillImage" />
      </cc:Work>
    </rdf:RDF>
  </metadata>
  <g
     inkscape:label="Layer 1"
     inkscape:groupmode="layer"
     id="layer1">
    <path
       style="fill:#000000"
       d="M 159.63414,279.994 C 159.63414,277.24066 162.89921,270.24233 166.88986,264.44213 C 180.71037,245.04041 188.00297,209.90822 187.16774,187.19029 C 185.83749,183.72373 185.27071,183.77127 181.72809,187.64659 C 179.55303,190.02592 171.78747,196.8496 164.47129,202.81031 C 157.1551,208.77102 147.01208,217.45815 141.93124,222.11505 C 136.8504,226.77194 129.1654,232.75883 124.85346,235.41926 C 109.38292,244.96448 100.33318,250.89329 97.630418,253.25406 C 96.118648,254.57453 90.948948,256.39274 86.142198,257.29448 C 78.270408,258.77123 77.402668,258.40988 77.402668,253.65497 C 77.402668,247.12769 80.459868,244.02872 94.332678,236.49362 C 100.31865,233.24228 105.57904,229.76585 106.02245,228.76819 C 110.54994,226.41002 115.22925,224.35251 119.49923,220.90487 C 125.92863,216.08128 132.52154,212.59228 138.4111,207.00103 C 142.7897,202.67783 150.07377,196.07199 154.59795,192.32136 C 175.05785,175.35973 186.82407,152.78036 181.00157,141.65278 C 179.03541,137.89516 177.08237,139.00082 164.98087,150.72243 C 148.3024,164.82507 111.73664,196.00098 91.885578,193.07661 C 87.176618,190.16632 90.543228,184.62163 99.640358,180.30476 C 125.3683,168.09605 165.59282,135.012 168.42413,123.73116 C 169.60356,119.03193 168.35303,116.04683 162.93547,110.62927 L 155.91938,103.61319 L 147.49783,108.35162 C 142.86597,110.95776 133.54163,115.89401 126.77706,119.32108 C 120.01249,122.74815 108.13962,131.49805 100.39292,138.76531 C 85.371498,152.85702 82.888488,154.06454 80.693778,148.34524 C 77.742638,140.65467 82.546168,133.10514 96.989028,122.73464 C 105.15633,116.87022 113.26386,110.71161 115.00578,109.04884 C 124.54551,102.59183 136.82834,101.25653 145.02356,92.203931 C 145.07809,90.587963 142.94599,88.100865 140.28556,86.677047 C 137.27829,85.067602 135.44387,81.604403 135.4364,77.522304 C 135.42979,73.911015 132.98099,67.943301 129.99461,64.260717 L 124.56484,57.565109 L 116.09983,64.859685 C 106.70768,72.953214 96.751248,74.62172 96.751248,68.102136 C 96.751248,61.011439 118.95649,42.926895 139.07627,33.631498 C 160.67555,23.652575 173.69328,18.957012 179.75907,18.957012 C 191.85622,14.039645 202.19089,11.311113 212.78323,25.608087 C 220.03626,33.56835 221.90953,43.093593 222.51703,54.815281 C 223.78703,74.067184 209.80279,82.624648 194.06598,88.892297 C 191.75616,90.110684 185.6786,92.933108 180.56032,95.164348 L 171.25433,99.221153 L 178.14174,106.81741 C 181.92981,110.99537 185.57333,114.97518 186.23844,115.66145 C 188.81756,118.32262 198.04392,139.15375 200.74531,148.41484 C 203.93574,159.35249 202.80281,212.19211 199.03274,228.28883 C 193.20731,245.63086 181.13971,276.26409 163.37193,285 C 161.20449,285 159.63414,282.89684 159.63414,279.994 z M 192.92926,73.493098 C 207.12868,66.051986 212.22963,48.588813 203.07423,38.761642 C 199.2519,34.658851 195.38102,33.468448 185.86214,33.468448 C 175.25459,33.468448 173.76881,34.045102 174.95692,37.700951 C 184.0811,65.77649 184.62384,69.288579 180.47881,73.433601 C 174.1605,79.751911 170.70303,76.372858 167.16409,60.420865 C 163.27817,42.904817 160.33208,39.658996 151.40135,43.054454 C 142.89767,46.287547 141.45106,51.01536 146.10872,60.351856 C 148.22684,64.597735 149.95985,73.346211 149.95985,79.792913 C 149.95985,89.901809 150.62525,91.514192 154.79699,91.514192 C 166.76464,85.547366 180.33516,80.01525 192.92926,73.493098 z"
       id="path3068"
       sodipodi:nodetypes="cccsssssssscccssccsscccssssccsscccsscccccccssccccsssssssscc" />
  </g>
</svg>
