<?xml version="1.0" encoding="UTF-8" standalone="no"?>
<!-- Created with Inkscape (http://www.inkscape.org/) -->

<svg
   xmlns:dc="http://purl.org/dc/elements/1.1/"
   xmlns:cc="http://creativecommons.org/ns#"
   xmlns:rdf="http://www.w3.org/1999/02/22-rdf-syntax-ns#"
   xmlns:svg="http://www.w3.org/2000/svg"
   xmlns="http://www.w3.org/2000/svg"
   xmlns:sodipodi="http://sodipodi.sourceforge.net/DTD/sodipodi-0.dtd"
   xmlns:inkscape="http://www.inkscape.org/namespaces/inkscape"
   width="300"
   height="300"
   id="svg2"
   version="1.1"
   inkscape:version="0.48.2 r9819"
   sodipodi:docname="è²-bigseal.svg">
  <defs
     id="defs4" />
  <sodipodi:namedview
     id="base"
     pagecolor="#ffffff"
     bordercolor="#666666"
     borderopacity="1.0"
     inkscape:pageopacity="0.0"
     inkscape:pageshadow="2"
     inkscape:zoom="1.979899"
     inkscape:cx="167.96705"
     inkscape:cy="177.16239"
     inkscape:document-units="px"
     inkscape:current-layer="layer1"
     showgrid="false"
     inkscape:window-width="1280"
     inkscape:window-height="999"
     inkscape:window-x="0"
     inkscape:window-y="24"
     inkscape:window-maximized="1" />
  <metadata
     id="metadata7">
    <rdf:RDF>
      <cc:Work
         rdf:about="">
        <dc:format>image/svg+xml</dc:format>
        <dc:type
           rdf:resource="http://purl.org/dc/dcmitype/StillImage" />
        <dc:title></dc:title>
      </cc:Work>
    </rdf:RDF>
  </metadata>
  <g
     inkscape:label="Calque 1"
     inkscape:groupmode="layer"
     id="layer1"
     transform="translate(0,-752.36218)">
    <path
       style="fill:#000000"
       d="m 150.73024,1023.9395 c -1.23979,-1.2055 -1.13188,-3.9046 0.23977,-5.9981 1.37164,-2.0935 2.5182,-5.3186 2.54788,-7.167 0.0297,-1.8483 7.19204,-7.0686 15.91632,-11.60057 35.17855,-18.27417 34.22391,-16.47484 15.33699,-28.9075 -9.16688,-6.03429 -17.22795,-12.70936 -17.91349,-14.83351 -2.10891,-6.53455 9.53611,-8.34978 18.19105,-2.83562 4.50738,2.8717 13.04257,6.57303 18.96711,8.22519 9.95987,2.77748 11.05535,2.21324 14.53235,-7.48514 5.52573,-15.41289 4.71329,-23.19359 -2.40822,-23.06353 -36.05883,0.65852 -138.064868,6.84931 -142.961537,8.67638 -4.802799,1.79205 -6.081507,5.37688 -5.273036,14.78279 1.166126,13.56697 2.493015,13.95316 36.035433,10.48834 20.28417,-2.0953 19.69806,5.20323 -1.24662,15.52328 -9.822546,4.83985 -17.85918,9.38921 -17.85918,10.10969 0,0.72046 6.741495,4.71914 14.981103,8.88593 16.665377,8.42767 20.481917,12.57997 17.802807,19.36857 -2.74113,6.9457 -20.269437,5.5051 -27.496463,-2.2598 -3.509053,-3.7703 -7.910761,-6.8551 -9.781577,-6.8551 -6.347608,0 -34.278478,-31.29465 -34.633278,-38.80424 -1.083146,-22.92554 1.058587,-66.91336 3.617784,-74.30361 1.632024,-4.71283 5.090481,-15.5095 7.685461,-23.99258 2.59498,-8.4831 10.611687,-26.63307 17.814905,-40.33328 7.203217,-13.70021 13.591743,-29.77642 14.196729,-35.72491 0.604987,-5.94851 2.772407,-11.34776 4.816488,-11.99837 2.044076,-0.65061 15.299371,9.64168 29.456201,22.87174 14.15683,13.23007 27.19882,24.05467 28.98218,24.05467 5.42139,0 34.78164,-30.30317 34.78164,-35.89868 0,-3.26853 3.2445,-5.23146 8.64704,-5.23146 6.54874,0 10.13948,3.11895 14.79743,12.85317 3.38273,7.06924 7.10882,13.62436 8.28022,14.56693 3.72329,2.99595 14.36663,27.06385 20.14289,45.54932 3.6512,11.68472 5.68857,32.08027 5.89268,58.98978 0.29204,38.5053 -0.24753,41.91083 -8.45491,53.36309 -21.41676,29.88413 -74.21633,60.08643 -85.63415,48.98413 z M 138.71547,913.41638 c 1.62742,-1.58242 3.48339,-8.36395 4.12438,-15.07007 1.13525,-11.87715 0.87852,-12.15565 -9.91361,-10.75413 -6.09348,0.79134 -19.01022,2.10128 -28.70387,2.91099 -9.693656,0.80972 -18.629584,1.5809 -19.857621,1.71374 -1.228035,0.13285 -3.006845,3.71188 -3.95291,7.95343 -0.946062,4.24154 -2.984612,10.65859 -4.530109,14.2601 -2.684638,6.2561 -1.411808,6.44372 28.5324,4.20565 17.23832,-1.28841 32.67391,-3.63727 34.30134,-5.21971 z m 79.84018,-3.61079 c 4.32581,-2.6616 4.37178,-5.13875 0.31703,-17.08507 -4.56802,-13.45859 -5.29851,-13.97214 -19.87461,-13.97214 -24.3876,0 -33.08881,5.55258 -33.08881,21.11525 l 0,13.15988 23.79351,-0.0525 c 13.08643,-0.0288 26.07023,-1.45331 28.85288,-3.16543 z m -84.7875,-42.80324 c 4.09073,-2.45832 -7.10121,-22.82234 -19.91679,-36.23913 -8.03907,-8.41619 -8.25931,-8.4467 -12.36827,-1.71375 -3.880206,6.35812 -12.612608,33.79899 -12.967498,40.7493 -0.166167,3.25449 39.235288,0.81963 45.252558,-2.79642 z m 56.13618,-5.89718 c 9.09811,-2.16326 17.10657,-4.38312 17.79659,-4.93303 2.70771,-2.15793 -11.2637,-32.26394 -14.97284,-32.26394 -2.17143,0 -6.17067,5.01274 -8.88717,11.13941 -2.71651,6.12668 -7.97044,15.38096 -11.67541,20.56507 -7.58218,10.60925 -5.93113,11.12046 17.73883,5.49249 z"
       id="path3060"
       inkscape:connector-curvature="0" />
  </g>
</svg>
