<?xml version="1.0" encoding="UTF-8" standalone="no"?>
<!-- Created with Inkscape (http://www.inkscape.org/) -->

<svg
   xmlns:dc="http://purl.org/dc/elements/1.1/"
   xmlns:cc="http://creativecommons.org/ns#"
   xmlns:rdf="http://www.w3.org/1999/02/22-rdf-syntax-ns#"
   xmlns:svg="http://www.w3.org/2000/svg"
   xmlns="http://www.w3.org/2000/svg"
   xmlns:sodipodi="http://sodipodi.sourceforge.net/DTD/sodipodi-0.dtd"
   xmlns:inkscape="http://www.inkscape.org/namespaces/inkscape"
   width="300"
   height="300"
   id="svg2"
   version="1.1"
   inkscape:version="0.48.2 r9819"
   sodipodi:docname="è²-bronze.svg">
  <defs
     id="defs4" />
  <sodipodi:namedview
     id="base"
     pagecolor="#ffffff"
     bordercolor="#666666"
     borderopacity="1.0"
     inkscape:pageopacity="0.0"
     inkscape:pageshadow="2"
     inkscape:zoom="1.979899"
     inkscape:cx="167.96705"
     inkscape:cy="177.16239"
     inkscape:document-units="px"
     inkscape:current-layer="layer1"
     showgrid="false"
     inkscape:window-width="1280"
     inkscape:window-height="999"
     inkscape:window-x="0"
     inkscape:window-y="24"
     inkscape:window-maximized="1" />
  <metadata
     id="metadata7">
    <rdf:RDF>
      <cc:Work
         rdf:about="">
        <dc:format>image/svg+xml</dc:format>
        <dc:type
           rdf:resource="http://purl.org/dc/dcmitype/StillImage" />
        <dc:title></dc:title>
      </cc:Work>
    </rdf:RDF>
  </metadata>
  <g
     inkscape:label="Calque 1"
     inkscape:groupmode="layer"
     id="layer1"
     transform="translate(0,-752.36218)">
    <path
       style="fill:#000000"
       d="m 151.81972,1016.4382 c -12.08495,-16.4213 -12.7318,-19.45917 -9.60266,-45.0976 1.93188,-15.82862 5.98599,-28.94177 9.55686,-30.91198 9.19998,-5.07602 12.52206,5.09593 11.3022,34.60652 -0.57214,13.84111 0.55851,28.42926 2.51257,32.41806 4.80195,9.8024 22.22297,9.4106 38.9172,-0.8751 11.08726,-6.83115 12.64865,-9.7707 9.78841,-18.42824 -3.56333,-10.78568 -4.32224,-11.99947 -20.95438,-33.51424 -9.53035,-12.32814 -13.98821,-30.18257 -7.53592,-30.18257 5.77384,0 15.10639,8.43638 18.09773,16.35989 3.08312,8.16659 18.64971,22.31982 24.54873,22.31982 5.32339,0 3.31977,-41.18862 -2.46219,-50.61545 -6.26137,-10.20847 -16.86986,-26.95773 -26.1258,-41.24885 -3.4446,-5.31846 -7.20979,-11.84566 -8.36707,-14.50489 -1.97096,-4.52889 -27.85581,28.50753 -27.85581,35.55192 0,1.72028 -2.45199,3.12778 -5.44886,3.12778 -5.62624,0 -4.94772,-8.07576 4.93081,-58.68661 7.66787,-39.28492 10.81272,-47.68257 17.85667,-47.68257 15.22568,0 22.45727,24.98906 9.32794,32.23308 -3.99999,2.20697 -7.27271,7.46128 -7.27271,11.67626 0,6.05096 2.58264,7.66359 12.27334,7.66359 6.75034,0 12.98767,1.81312 13.86074,4.02914 5.34285,13.56121 14.61772,31.54666 22.0244,42.70884 14.47894,21.82037 21.9941,64.43392 13.92704,78.97107 -1.47568,2.65923 -5.46643,12.81265 -8.86834,22.56316 -6.16232,17.66247 -14.27918,24.74937 -39.88389,34.82357 -7.33331,2.8853 -13.33329,6.3838 -13.33329,7.7744 0,1.3905 -4.10758,2.5283 -9.12796,2.5283 -6.24287,0 -13.22355,-5.5652 -22.08576,-17.6073 z M 63.090089,997.9199 C 52.459804,989.25158 47.329588,966.66301 47.303441,928.41064 L 47.2764,888.85355 67.282233,862.33281 c 11.0032,-14.58641 21.619158,-27.24599 23.591006,-28.13241 1.971859,-0.8864 8.192758,-7.4136 13.824231,-14.50488 20.05832,-25.2579 31.62039,-30.27054 39.04486,-16.92762 3.96043,7.1175 2.438,66.67719 -1.77598,69.47869 -1.18299,0.78646 -5.51769,0.57101 -9.63269,-0.47876 -5.49566,-1.40201 -7.48181,-6.64174 -7.48181,-19.73806 0,-9.80615 -2.18181,-17.82937 -4.84846,-17.82937 -2.66666,0 -4.84847,1.4669 -4.84847,3.25977 0,1.79287 -8.72723,11.75962 -19.393865,22.14835 -10.666618,10.38872 -19.393856,20.20553 -19.393856,21.81513 0,1.60961 -4.1154,4.89851 -9.145334,7.3087 -7.265553,3.48142 -8.628418,7.10598 -6.630486,17.63394 4.351973,22.93243 7.867431,23.43042 27.387423,3.87963 9.898639,-9.91428 20.062718,-18.02596 22.586818,-18.02596 8.14848,0 4.89628,9.08291 -7.65475,21.37856 -6.734233,6.5972 -13.647663,15.71281 -15.363183,20.2569 -1.71552,4.54409 -6.020565,10.19089 -9.566757,12.54844 -8.834477,5.87325 -12.976856,18.32328 -9.319672,28.01047 2.388427,6.32651 6.128412,8.05828 17.402869,8.05828 11.722903,0 14.899323,-1.62815 17.293323,-8.86411 5.32246,-16.08731 15.49777,-31.45402 19.74288,-29.81559 5.2257,2.01688 3.17913,19.88567 -4.33781,37.87387 -5.37325,12.85834 -6.79034,13.69907 -23.090264,13.69907 -9.551119,0 -19.63995,1.51197 -22.419627,3.35995 -3.50629,2.331 -6.61834,2.0842 -10.16254,-0.8059 z"
       id="path3092"
       inkscape:connector-curvature="0" />
  </g>
</svg>
