<?xml version="1.0" encoding="UTF-8" standalone="no"?>
<!-- Created with Inkscape (http://www.inkscape.org/) -->

<svg
   xmlns:dc="http://purl.org/dc/elements/1.1/"
   xmlns:cc="http://creativecommons.org/ns#"
   xmlns:rdf="http://www.w3.org/1999/02/22-rdf-syntax-ns#"
   xmlns:svg="http://www.w3.org/2000/svg"
   xmlns="http://www.w3.org/2000/svg"
   xmlns:sodipodi="http://sodipodi.sourceforge.net/DTD/sodipodi-0.dtd"
   xmlns:inkscape="http://www.inkscape.org/namespaces/inkscape"
   width="300"
   height="300"
   id="svg2"
   version="1.1"
   inkscape:version="0.48.2 r9819"
   sodipodi:docname="è²-seal.svg">
  <defs
     id="defs4" />
  <sodipodi:namedview
     id="base"
     pagecolor="#ffffff"
     bordercolor="#666666"
     borderopacity="1.0"
     inkscape:pageopacity="0.0"
     inkscape:pageshadow="2"
     inkscape:zoom="1.979899"
     inkscape:cx="167.96705"
     inkscape:cy="177.16239"
     inkscape:document-units="px"
     inkscape:current-layer="layer1"
     showgrid="false"
     inkscape:window-width="1280"
     inkscape:window-height="999"
     inkscape:window-x="0"
     inkscape:window-y="24"
     inkscape:window-maximized="1" />
  <metadata
     id="metadata7">
    <rdf:RDF>
      <cc:Work
         rdf:about="">
        <dc:format>image/svg+xml</dc:format>
        <dc:type
           rdf:resource="http://purl.org/dc/dcmitype/StillImage" />
        <dc:title></dc:title>
      </cc:Work>
    </rdf:RDF>
  </metadata>
  <g
     inkscape:label="Calque 1"
     inkscape:groupmode="layer"
     id="layer1"
     transform="translate(0,-752.36218)">
    <path
       style="fill:#000000"
       d="m 58.667131,1010.0778 c -5.150467,-4.5577 -8.442709,-12.45182 -8.442709,-20.2438 0,-15.88894 11.589636,-57.50432 18.825193,-67.59635 10.802257,-15.06683 11.258594,-30.06925 1.941367,-63.82459 -5.046984,-18.28469 -11.78413,-36.96799 -14.971447,-41.51844 -7.497003,-10.7033 -7.373605,-19.44153 0.311409,-22.05116 8.848129,-3.00459 51.256586,8.71578 70.565186,19.50203 l 16.56923,9.25596 16.94135,-12.83233 c 16.31433,-12.35738 25.4463,-15.38849 59.72723,-19.8248 l 15.83009,-2.04858 0,14.54972 c 0,8.00235 -2.85285,24.24203 -6.33965,36.0882 -7.99542,27.16384 -4.65432,64.92928 9.06691,102.4858 10.1214,27.70346 12.26602,44.22451 6.70613,51.66105 -4.99071,6.67529 -28.29991,15.99209 -46.42737,18.55709 -14.43435,2.0425 -17.73388,1.1601 -23.66058,-6.3276 -14.60326,-18.44976 -2.71042,-44.39432 20.35012,-44.39432 l 10.35182,0 -10.35182,9.88435 c -12.61892,12.04906 -12.8364,14.82495 -1.57926,20.15626 20.21073,9.57161 30.48983,-6.5461 22.20331,-34.8151 -3.02289,-10.31241 -6.40448,-19.55362 -7.51462,-20.53602 -1.11016,-0.98239 -30.04348,-0.31213 -64.29627,1.48942 l -62.277801,3.27558 -2.588172,11.20663 c -1.423488,6.16368 -4.817909,14.87883 -7.543153,19.36706 -7.359909,12.12107 0.490648,28.22391 12.993782,26.65245 8.403224,-1.05617 9.355493,-3.05989 8.307139,-17.4794 l -1.1841,-16.28649 13.848165,7.12928 c 29.48607,15.17995 14.34402,45.9892 -22.60264,45.9892 -10.687659,0 -19.228556,-2.5773 -24.758839,-7.4711 z M 173.83152,920.45121 c 33.50871,-0.031 34.92576,-1.53043 30.57433,-32.35005 l -2.96444,-20.99592 -38.67164,2.53409 c -67.939,4.45192 -68.191227,4.52672 -68.417008,20.29515 -0.107673,7.52411 -1.813911,18.56929 -3.791494,24.54484 l -3.595644,10.86462 29.119636,-2.43308 c 16.0158,-1.3382 42.00163,-2.44504 57.74626,-2.45965 z m -38.05393,-66.7687 c 11.83107,-10.4695 -16.94225,-31.84802 -53.916801,-40.06006 -9.649493,-2.14314 -9.710943,-1.96404 -4.170723,12.15635 14.85822,37.86929 12.995863,36.02346 34.211064,33.9074 10.59479,-1.05676 21.3392,-3.75841 23.87646,-6.00369 z m 67.82235,-7.03493 c 8.43691,-14.82826 11.94999,-38.31068 5.71522,-38.20212 -2.75622,0.048 -14.50935,4.67074 -26.11807,10.27277 -14.51485,7.00443 -21.54063,12.89532 -22.49595,18.86215 -2.40737,15.03631 2.07529,19.33997 20.14438,19.33997 14.21554,0 17.84069,-1.63663 22.75442,-10.27277 z"
       id="path3028"
       inkscape:connector-curvature="0" />
  </g>
</svg>
