<?xml version="1.0" encoding="UTF-8" standalone="no"?>
<!-- Created with Inkscape (http://www.inkscape.org/) -->

<svg
   xmlns:dc="http://purl.org/dc/elements/1.1/"
   xmlns:cc="http://creativecommons.org/ns#"
   xmlns:rdf="http://www.w3.org/1999/02/22-rdf-syntax-ns#"
   xmlns:svg="http://www.w3.org/2000/svg"
   xmlns="http://www.w3.org/2000/svg"
   xmlns:sodipodi="http://sodipodi.sourceforge.net/DTD/sodipodi-0.dtd"
   xmlns:inkscape="http://www.inkscape.org/namespaces/inkscape"
   width="300"
   height="300"
   id="svg2"
   version="1.1"
   inkscape:version="0.48.2 r9819"
   sodipodi:docname="è²-seal.svg">
  <defs
     id="defs4" />
  <sodipodi:namedview
     id="base"
     pagecolor="#ffffff"
     bordercolor="#666666"
     borderopacity="1.0"
     inkscape:pageopacity="0.0"
     inkscape:pageshadow="2"
     inkscape:zoom="1.979899"
     inkscape:cx="167.96705"
     inkscape:cy="177.16239"
     inkscape:document-units="px"
     inkscape:current-layer="layer1"
     showgrid="false"
     inkscape:window-width="1280"
     inkscape:window-height="999"
     inkscape:window-x="0"
     inkscape:window-y="24"
     inkscape:window-maximized="1" />
  <metadata
     id="metadata7">
    <rdf:RDF>
      <cc:Work
         rdf:about="">
        <dc:format>image/svg+xml</dc:format>
        <dc:type
           rdf:resource="http://purl.org/dc/dcmitype/StillImage" />
        <dc:title></dc:title>
      </cc:Work>
    </rdf:RDF>
  </metadata>
  <g
     inkscape:label="Calque 1"
     inkscape:groupmode="layer"
     id="layer1"
     transform="translate(0,-752.36218)">
    <path
       style="fill:#000000"
       d="m 85.732256,1017.8064 c 0,-2.7747 1.47278,-5.6196 3.272844,-6.3221 1.800064,-0.7026 3.272843,-3.8265 3.272843,-6.9422 0,-3.1157 1.309723,-6.54837 2.910496,-7.62823 4.824011,-3.25422 13.604451,-25.08448 15.648241,-38.90528 l 1.91822,-12.97161 -10.36358,-2.71076 c -25.338483,-6.62768 -36.725514,-35.25954 -37.039132,-93.13221 -0.250719,-46.26562 2.772685,-49.70436 48.986082,-55.71538 16.36579,-2.12872 27.74595,-2.15972 57.27476,-0.15604 20.26797,1.37529 40.0177,3.46803 43.88829,4.65055 7.10807,2.17161 16.47174,13.69092 17.319,21.30607 5.99826,53.91211 1.20968,101.93711 -11.37333,114.06404 -2.99903,2.89033 -11.28426,6.77407 -18.41163,8.63054 -13.92453,3.62693 -14.00565,3.86274 -7.55988,21.97588 2.86707,8.05671 21.42025,38.68913 24.97247,41.23113 3.82906,2.74 3.43527,13.0232 -0.55841,14.5818 -5.51872,2.1538 -16.33492,-1.0935 -16.33492,-4.9042 0,-1.9694 -1.29051,-4.4643 -2.8678,-5.5442 -3.33567,-2.2837 -15.61956,-25.96647 -18.17001,-35.03092 -3.87957,-13.78826 -7.45724,-23.18056 -9.7044,-25.4766 -3.58386,-3.66181 -33.27005,-3.04113 -39.39015,0.82357 -5.88069,3.71351 -5.69492,3.33244 -6.98065,14.31942 -1.22011,10.4262 -6.98306,30.34147 -12.17617,42.07773 -5.86933,13.2644 -28.533184,22.6205 -28.533184,11.779 z m 95.242284,-84.14029 c 23.11191,-4.95022 28.00475,-8.67946 30.34958,-23.13197 3.1408,-19.35855 2.39307,-19.9447 -23.59239,-18.49417 -11.99815,0.66974 -26.23315,1.04349 -31.63334,0.83055 -5.40019,-0.21294 -23.58557,0.20845 -40.41195,0.93643 l -30.59341,1.32358 1.860513,6.50884 c 1.023283,3.57986 2.787037,9.9208 3.919455,14.09098 2.665728,9.81666 12.207232,16.18515 24.249192,16.18515 5.22383,0 10.40811,0.93002 11.52061,2.06672 2.77083,2.8311 40.66726,2.61061 54.33174,-0.31611 z m 28.31465,-54.57751 c 3.75854,-1.7355 5.10888,-5.51467 4.8211,-13.49275 -0.59799,-16.5778 -1.68252,-16.82764 -68.2881,-15.73124 -30.85281,0.50788 -57.765602,1.575 -59.806212,2.3714 -3.504447,1.36769 -4.335369,24.7426 -1.019828,28.68908 2.270558,2.70264 118.17141,0.99015 124.29304,-1.83649 z m -47.50556,-40.3805 c 24.03969,-0.0348 45.34656,-0.70261 47.34862,-1.48396 7.10043,-2.77111 8.10188,-15.48739 1.73097,-21.97962 -5.15368,-5.25182 -9.02721,-6.41555 -27.81833,-8.35745 -24.9724,-2.58068 -72.96857,-0.62195 -86.749221,3.54025 -7.441272,2.2475 -9.251994,4.41235 -10.879783,13.00758 -1.074036,5.67124 -1.316833,11.42094 -0.539549,12.7771 1.912114,3.33615 10.177016,4.6024 22.754833,3.48624 5.74417,-0.50975 30.11279,-0.95531 54.15246,-0.99014 z"
       id="path2996"
       inkscape:connector-curvature="0" />
  </g>
</svg>
