<?xml version="1.0" encoding="UTF-8" standalone="no"?>
<!-- Created with Inkscape (http://www.inkscape.org/) -->

<svg
   xmlns:dc="http://purl.org/dc/elements/1.1/"
   xmlns:cc="http://creativecommons.org/ns#"
   xmlns:rdf="http://www.w3.org/1999/02/22-rdf-syntax-ns#"
   xmlns:svg="http://www.w3.org/2000/svg"
   xmlns="http://www.w3.org/2000/svg"
   xmlns:sodipodi="http://sodipodi.sourceforge.net/DTD/sodipodi-0.dtd"
   xmlns:inkscape="http://www.inkscape.org/namespaces/inkscape"
   width="300"
   height="300"
   id="svg2"
   version="1.1"
   inkscape:version="0.48.3.1 r9886"
   sodipodi:docname="Nouveau document 1">
  <defs
     id="defs4" />
  <sodipodi:namedview
     id="base"
     pagecolor="#ffffff"
     bordercolor="#666666"
     borderopacity="1.0"
     inkscape:pageopacity="0.0"
     inkscape:pageshadow="2"
     inkscape:zoom="1.979899"
     inkscape:cx="198.09321"
     inkscape:cy="130.32815"
     inkscape:document-units="px"
     inkscape:current-layer="layer1"
     showgrid="false"
     inkscape:window-width="1215"
     inkscape:window-height="1000"
     inkscape:window-x="65"
     inkscape:window-y="24"
     inkscape:window-maximized="1" />
  <metadata
     id="metadata7">
    <rdf:RDF>
      <cc:Work
         rdf:about="">
        <dc:format>image/svg+xml</dc:format>
        <dc:type
           rdf:resource="http://purl.org/dc/dcmitype/StillImage" />
        <dc:title></dc:title>
      </cc:Work>
    </rdf:RDF>
  </metadata>
  <g
     inkscape:label="Calque 1"
     inkscape:groupmode="layer"
     id="layer1"
     transform="translate(0,-752.36218)">
    <path
       style="fill:#000000"
       d="m 54.625613,1035.4011 c -3.73056,-5.5791 1.384775,-11.7231 9.762384,-11.7254 12.175183,-0 53.161923,-15.8244 63.060103,-24.34139 8.77068,-7.5469 9.48195,-11.93071 10.56984,-65.14519 0.97369,-47.63014 2.21387,-57.05379 7.50826,-57.05379 5.11614,0 6.92899,9.06343 9.37954,46.89355 5.22502,80.66162 5.67415,81.32082 60.73459,89.13512 31.45015,4.4635 43.31028,10.845 29.3547,15.7948 -8.26269,2.9306 -67.40502,-8.0019 -85.56468,-15.8167 -12.50027,-5.3793 -14.51281,-5.2391 -25.3676,1.7679 -11.58256,7.4766 -61.209116,24.3989 -71.552674,24.3989 -2.899305,0 -6.447304,-1.7585 -7.884463,-3.9078 z m 7.198735,-32.262 c -6.405405,-7.13368 -2.429413,-10.72379 11.876352,-10.72379 22.019886,0 26.53625,-10.48015 24.779246,-57.49981 -1.326809,-35.50756 -0.575675,-42.14898 4.766914,-42.14898 5.20666,0 6.55452,8.15514 7.52969,45.5581 1.11271,42.67779 0.57809,46.19874 -8.45586,55.69027 -11.70022,12.29291 -33.284416,17.15601 -40.496342,9.12421 z m 152.132572,-9.44324 c -23.45564,-7.72512 -26.75956,-16.02903 -25.23958,-63.43564 0.96029,-29.95005 2.45774,-37.4937 7.44273,-37.4937 5.1029,0 6.00041,5.85736 4.9233,32.13119 -2.00171,48.82689 0.0626,53.84423 23.90462,58.1026 13.05966,2.33252 19.89467,5.54875 19.89467,9.36147 0,8.00662 -9.43079,8.41342 -30.92574,1.33408 z M 54.123757,963.30721 c -1.292733,-3.11374 -1.708677,-25.86384 -0.924268,-50.55576 1.38338,-43.54848 1.798436,-45.25325 13.843947,-56.86339 9.456832,-9.11502 16.135785,-11.969 28.010066,-11.969 8.575728,0 21.537778,-1.09907 28.804538,-2.44237 11.12132,-2.05586 13.2123,-4.22042 13.2123,-13.67728 l 0,-11.23492 -44.70331,0 c -40.223469,0 -44.56116,-0.6823 -43.284705,-6.80855 1.719713,-8.25362 17.002639,-11.64891 55.221515,-12.26806 26.8481,-0.43498 28.53855,-0.9968 28.53855,-9.48496 0,-4.96244 2.85386,-12.43609 6.34191,-16.60814 6.27781,-7.50886 6.40599,-7.50886 12.6838,0 3.48805,4.17205 6.3419,10.76645 6.3419,14.65424 0,6.29405 4.15361,7.06869 37.90267,7.06869 32.6865,0 38.48448,1.00485 42.13056,7.3018 2.32537,4.01596 3.02653,8.41224 1.55808,9.76949 -1.46844,1.35722 -18.16097,2.4677 -37.09458,2.4677 -40.31623,0 -52.77676,5.23906 -44.88328,18.87137 4.13728,7.1452 8.62206,8.4832 28.43488,8.4832 30.34697,0 51.6016,9.26288 59.04704,25.73295 3.14833,6.96452 7.00247,32.11467 8.56473,55.88919 2.52848,38.47866 2.05478,43.50506 -4.31282,45.76353 -3.93431,1.39544 -8.0505,1.70783 -9.14715,0.69422 -1.09659,-1.01356 -3.21453,-21.56192 -4.70644,-45.66302 -2.47622,-40.0013 -3.66828,-44.7646 -13.67856,-54.65718 -9.30851,-9.19902 -15.55198,-11.23003 -41.30785,-13.43727 -35.9155,-3.07789 -93.864999,3.3938 -102.838028,11.48482 -4.640327,4.18416 -6.659673,16.43021 -7.526315,45.6417 -0.65144,21.95779 -2.114602,43.87989 -3.251493,48.71579 -2.335976,9.93624 -9.440724,11.65043 -12.977687,3.13121 z"
       id="path2996"
       inkscape:connector-curvature="0" />
  </g>
</svg>
