<?xml version="1.0" encoding="UTF-8" standalone="no"?>
<!-- Created with Inkscape (http://www.inkscape.org/) -->

<svg
   xmlns:dc="http://purl.org/dc/elements/1.1/"
   xmlns:cc="http://creativecommons.org/ns#"
   xmlns:rdf="http://www.w3.org/1999/02/22-rdf-syntax-ns#"
   xmlns:svg="http://www.w3.org/2000/svg"
   xmlns="http://www.w3.org/2000/svg"
   xmlns:sodipodi="http://sodipodi.sourceforge.net/DTD/sodipodi-0.dtd"
   xmlns:inkscape="http://www.inkscape.org/namespaces/inkscape"
   width="300"
   height="300"
   id="svg2"
   version="1.1"
   inkscape:version="0.48.3.1 r9886"
   sodipodi:docname="赤-.svg">
  <defs
     id="defs4" />
  <sodipodi:namedview
     id="base"
     pagecolor="#ffffff"
     bordercolor="#666666"
     borderopacity="1.0"
     inkscape:pageopacity="0.0"
     inkscape:pageshadow="2"
     inkscape:zoom="1.979899"
     inkscape:cx="198.09321"
     inkscape:cy="130.32815"
     inkscape:document-units="px"
     inkscape:current-layer="layer1"
     showgrid="false"
     inkscape:window-width="1215"
     inkscape:window-height="1000"
     inkscape:window-x="65"
     inkscape:window-y="24"
     inkscape:window-maximized="1" />
  <metadata
     id="metadata7">
    <rdf:RDF>
      <cc:Work
         rdf:about="">
        <dc:format>image/svg+xml</dc:format>
        <dc:type
           rdf:resource="http://purl.org/dc/dcmitype/StillImage" />
        <dc:title></dc:title>
      </cc:Work>
    </rdf:RDF>
  </metadata>
  <g
     inkscape:label="Calque 1"
     inkscape:groupmode="layer"
     id="layer1"
     transform="translate(0,-752.36218)">
    <path
       style="fill:#000000"
       d="m 129.87991,1040.86 c -22.94774,-5.5803 -46.125982,-13.7044 -60.516703,-26.5932 -5.71391,-13.9223 28.522819,-4.1658 38.596183,-1.2449 15.35412,7.6673 34.56199,-5.2226 29.89141,-15.5323 1.05089,-19.86356 1.70526,-39.90195 7.31612,-59.49339 14.68406,-6.91304 15.69253,13.76257 17.12668,19.79618 2.49542,18.28918 2.60763,38.35763 19.56555,54.11261 14.42144,8.1662 36.16059,1.7158 51.29108,-2.6268 24.62393,-4.384 9.20492,16.9463 -4.77985,19.2562 -14.63079,6.4489 -31.28939,10.7878 -49.22235,11.7159 -16.21384,1.1733 -33.12096,2.7909 -49.26812,0.6097 z M 95.292808,987.48551 c -9.773153,-7.17443 -4.086813,-31.49902 15.498322,-25.01516 10.27444,6.30039 17.51217,22.26352 2.05843,27.09129 -5.89641,0.76288 -12.7387,0.38497 -17.556752,-2.07613 z m 90.089772,-6.4317 c -5.51303,-6.79424 -7.88581,-27.66739 11.48667,-16.57661 12.09578,5.19856 30.29174,19.71373 7.18373,23.74546 -10.83644,4.51792 -17.10875,-0.38596 -18.6704,-7.16885 z m 15.42984,-35.80858 c -15.1521,-11.98948 -32.21037,-23.27354 -51.28703,-32.79892 -17.57586,-3.62498 -27.67614,10.46509 -39.46827,16.49189 -11.731933,6.33632 -23.090197,18.72168 -40.188754,17.19149 -3.805323,-10.1073 13.326371,-19.2077 21.299199,-27.602 10.507395,-8.07082 23.315455,-15.32548 26.521255,-25.98508 10.00232,-12.67818 9.21571,-27.67618 6.76219,-41.38153 -9.28316,-11.69103 -30.937831,-2.79891 -43.789732,1.26675 -9.426336,4.64523 -45.147853,6.84207 -28.142824,-4.92615 11.301034,-9.19076 29.620978,-11.48911 44.005616,-17.976 8.51883,-3.49638 16.96869,-7.05866 25.45656,-10.58463 0.91517,-17.32384 -3.12686,-35.295 6.00641,-51.9588 11.91074,-12.59375 25.68177,5.66768 27.14096,13.53167 5.62082,10.06727 -2.00061,21.3892 4.13855,31.01325 14.54433,11.11983 30.9498,21.68645 50.07369,29.6858 9.8204,4.77776 28.67832,7.95985 30.80864,17.1144 -9.14812,12.91288 -32.62677,2.17736 -45.26796,-2.79716 -11.04296,-3.68975 -36.92296,-20.18594 -33.19935,-2.11638 -0.38589,11.36229 -0.74396,23.48793 10.08075,33.23741 14.00682,20.38302 39.51507,36.75232 51.91782,57.59365 7.85323,10.95645 -20.08935,9.22053 -22.86772,1.00034 z"
       id="path3028"
       inkscape:connector-curvature="0" />
  </g>
</svg>
