<?xml version="1.0" encoding="UTF-8" standalone="no"?>
<!-- Created with Inkscape (http://www.inkscape.org/) -->

<svg
   xmlns:dc="http://purl.org/dc/elements/1.1/"
   xmlns:cc="http://creativecommons.org/ns#"
   xmlns:rdf="http://www.w3.org/1999/02/22-rdf-syntax-ns#"
   xmlns:svg="http://www.w3.org/2000/svg"
   xmlns="http://www.w3.org/2000/svg"
   xmlns:sodipodi="http://sodipodi.sourceforge.net/DTD/sodipodi-0.dtd"
   xmlns:inkscape="http://www.inkscape.org/namespaces/inkscape"
   width="300"
   height="300"
   id="svg2"
   version="1.1"
   inkscape:version="0.48.3.1 r9886"
   sodipodi:docname="赤-.svg">
  <defs
     id="defs4" />
  <sodipodi:namedview
     id="base"
     pagecolor="#ffffff"
     bordercolor="#666666"
     borderopacity="1.0"
     inkscape:pageopacity="0.0"
     inkscape:pageshadow="2"
     inkscape:zoom="1.979899"
     inkscape:cx="198.09321"
     inkscape:cy="130.32815"
     inkscape:document-units="px"
     inkscape:current-layer="layer1"
     showgrid="false"
     inkscape:window-width="1215"
     inkscape:window-height="1000"
     inkscape:window-x="65"
     inkscape:window-y="24"
     inkscape:window-maximized="1" />
  <metadata
     id="metadata7">
    <rdf:RDF>
      <cc:Work
         rdf:about="">
        <dc:format>image/svg+xml</dc:format>
        <dc:type
           rdf:resource="http://purl.org/dc/dcmitype/StillImage" />
        <dc:title></dc:title>
      </cc:Work>
    </rdf:RDF>
  </metadata>
  <g
     inkscape:label="Calque 1"
     inkscape:groupmode="layer"
     id="layer1"
     transform="translate(0,-752.36218)">
    <path
       style="fill:#000000"
       d="m 65.92719,1021.3189 c -8.186584,-6.8875 -12.674921,-123.01461 -4.962665,-128.39957 6.895317,-4.81454 15.076192,6.14909 19.720497,26.42841 2.202827,9.61852 6.176564,17.48825 8.830564,17.48825 2.653934,0 8.515187,5.60361 13.024864,12.45248 4.50967,6.84886 12.45922,16.35187 17.66566,21.11772 9.03776,8.27298 10.70543,7.68233 36.83901,-13.04771 l 27.3727,-21.71294 6.80491,14.11187 c 8.53042,17.69017 18.6363,19.97567 22.95428,5.19128 4.37335,-14.97408 17.45988,-30.11634 22.8033,-26.3854 5.42836,3.79027 10.06527,83.82141 5.35326,92.39521 -4.98931,9.0785 -165.653801,9.4067 -176.40638,0.3605 z m 49.58079,-21.3403 c 1.05618,-3.87425 -4.02108,-11.82731 -11.28281,-17.67349 -7.26173,-5.8462 -13.203138,-12.47557 -13.203138,-14.73202 0,-2.25638 -2.58182,-2.9884 -5.73745,-1.62665 -3.155565,1.36171 -4.80099,9.12328 -3.656548,17.2479 1.144442,8.12458 2.267095,17.46086 2.494789,20.74716 0.581074,8.3834 28.997567,4.7954 31.385157,-3.9629 z m 63.52739,2.8393 c 16.32919,-11.40153 9.7521,-39.12123 -7.2581,-30.58979 -10.33467,5.18339 -28.80788,31.06709 -24.37934,34.15919 7.02445,4.9047 21.90549,3.2258 31.63744,-3.5694 z m 48.07642,-5.98361 c -0.12708,-4.33513 -12.63879,-18.00624 -12.7718,-13.95489 -0.052,1.66421 -1.87074,6.24897 -4.03575,10.18839 -2.58312,4.70021 -0.35344,7.16261 6.48519,7.16261 5.73188,0 10.37696,-1.52825 10.32236,-3.39611 z m -92.86167,-47.34862 c -2.04381,-5.71205 -0.72991,-18.5363 2.91989,-28.49828 3.6498,-9.96198 8.2323,-22.69745 10.18338,-28.30108 1.95107,-5.60361 6.12553,-10.18839 9.2766,-10.18839 3.15103,0 5.57612,-6.62245 5.38902,-14.71655 -0.33983,-14.69307 -0.35669,-14.70031 -10.5188,-4.52817 -5.59828,5.60361 -14.07163,10.18839 -18.82969,10.18839 -5.83628,0 -1.6235,-9.2493 12.94781,-28.42737 18.75466,-24.68404 21.17033,-31.54123 18.34473,-52.07399 -2.68376,-19.50221 -1.45604,-23.64662 7.00493,-23.64662 6.8197,0 11.60103,5.69268 14.26216,16.98064 5.15768,21.8776 12.69347,32.46415 34.9397,49.08449 21.0814,15.75007 35.5631,33.26188 30.45562,36.82804 -1.96747,1.37375 -12.33735,-4.05005 -23.0441,-12.05296 -27.21613,-20.34294 -44.6866,-9.99024 -24.86986,14.73748 14.41924,17.99266 23.92719,50.15544 16.64463,56.30448 -11.39168,9.61861 -18.07675,6.30888 -18.29207,-9.05634 -0.11342,-8.09412 -4.1212,-18.31887 -8.90611,-22.7217 -8.13489,-7.48533 -9.42681,-7.23045 -19.89534,3.92521 -6.1575,6.56173 -13.09484,21.20176 -15.41634,32.53342 -4.63606,22.6299 -16.75916,29.94218 -22.59616,13.6293 z"
       id="path3053"
       inkscape:connector-curvature="0" />
  </g>
</svg>
