<?xml version="1.0" encoding="UTF-8" standalone="no"?>
<!-- Created with Inkscape (http://www.inkscape.org/) -->

<svg
   xmlns:dc="http://purl.org/dc/elements/1.1/"
   xmlns:cc="http://creativecommons.org/ns#"
   xmlns:rdf="http://www.w3.org/1999/02/22-rdf-syntax-ns#"
   xmlns:svg="http://www.w3.org/2000/svg"
   xmlns="http://www.w3.org/2000/svg"
   version="1.1"
   width="300"
   height="300"
   id="svg2">
  <defs
     id="defs4" />
  <metadata
     id="metadata7">
    <rdf:RDF>
      <cc:Work
         rdf:about="">
        <dc:format>image/svg+xml</dc:format>
        <dc:type
           rdf:resource="http://purl.org/dc/dcmitype/StillImage" />
        <dc:title></dc:title>
      </cc:Work>
    </rdf:RDF>
  </metadata>
  <g
     transform="translate(0,-752.36218)"
     id="layer1">
    <path
       d="M 71.80528,1033.9034 C 71.80528,1029.6863 84.440254,1017.9161 103.92126,1003.7124 112.40529,997.52665 128.49811,977.7384 134.77347,965.93804 139.22948,957.55884 145.47305,927.61944 143.46542,922.31651 142.44842,919.63024 140.32071,908.12469 139.82008,896.74864 139.01111,878.36612 139.39829,875.96815 143.3001,875.19516 145.71475,874.7168 150.35211,876.06944 153.60534,878.20105 158.77153,881.58606 159.19954,882.92033 156.98647,888.74116 155.59286,892.40663 154.45263,906.15475 154.45263,919.29254 154.45263,940.73874 154.46301,946.21349 160.78246,958.85984 169.75655,976.81857 185.56123,997.24345 195.3417,1004.7088 212.29797,1017.6513 223.09556,1026.7725 223.09556,1030.0405 223.09556,1035.4859 216.8774,1036.4757 208.82577,1032.3121 197.45345,1026.4312 169.55932,997.97995 161.73074,983.05355 156.96882,973.97421 153.22038,967.36536 150.41973,966.98875 148.6288,966.74791 145.98502,969.41001 144.95207,975.24991 143.75292,982.02949 102.79804,1024.603 92.91657,1030.536 88.686862,1033.0756 82.206486,1035.8645 78.515736,1036.7335 73.087731,1038.0116 71.80528,1037.4707 71.80528,1033.9034 z M 90.205933,972.49695 C 89.431151,971.24332 90.411976,966.02748 92.385548,960.90616 94.359117,955.78485 97.213513,940.61395 98.728652,927.19304 100.24379,913.77213 102.37449,901.86609 103.46355,900.7352 104.5526,899.60429 107.87476,899.9801 110.84612,901.57033 115.87962,904.26418 116.13134,905.55656 114.53175,920.4933 112.41016,940.30443 106.89452,961.99949 102.12698,969.2859 98.420141,974.9512 92.678563,976.49775 90.205933,972.49695 z M 198.07816,965.05502 C 188.28488,957.35163 178.94782,930.90882 178.88394,910.69648 178.85425,901.30295 179.90944,892.53786 181.22881,891.21849 185.61928,886.82802 189.28667,891.97433 188.93323,903.16987 188.40531,919.89239 194.81112,944.73198 206.21014,956.08787 212.04278,961.89845 212.71496,966.48471 211.96687,967.69515 209.78469,971.22599 204.69274,970.25806 198.07816,965.05502 z M 67.759733,905.10738 C 65.507512,899.07408 84.359758,884.47496 119.58864,858.40318 127.73701,852.37282 136.62605,846.87419 138.05799,844.19858 141.45228,837.8563 141.42467,811.64976 138.02002,809.54558 135.0777,807.72711 104.60083,823.68887 91.664379,832.46778 81.318069,839.48897 74.245445,839.85282 74.245445,833.36388 74.245445,827.25207 90.404665,816.09067 117.12723,803.7448 117.12723,803.7448 134.11789,797.39687 136.25954,795.98651 139.27267,794.00225 137.68976,784.66335 137.68976,784.66335 137.89537,772.10652 139.68613,767.36217 144.97253,767.36217 151.43959,767.36217 155.89772,773.52759 154.46906,782.52627 152.13712,797.21453 152.51739,796.57825 165.119,797.24981 174.95714,797.77411 214.72921,810.59222 223.09556,814.61524 226.45079,816.22862 229.54686,819.98264 229.97573,822.95749 230.98556,829.96222 227.4458,829.35482 210.38158,822.62873 204.28039,820.22386 194.52401,817.2754 185.03153,814.75778 171.44713,811.15489 154.72121,809.01786 153.7036,810.03547 152.2897,811.44937 154.4676,837.41777 156.11342,842.88257 157.44358,847.2993 171.82223,851.87413 200.13633,861.27331 222.69948,868.76341 234.48552,876.72459 232.12351,882.87987 229.88074,888.72445 230.53901,888.91391 200.66533,875.64771 191.87618,871.74465 178.36151,868.11035 164.17414,860.85653 156.10499,856.73089 150.7658,854.7681 145.85495,855.24856 139.46355,855.87388 133.79771,860.63773 123.78341,870.15827 116.26117,877.30961 105.23555,885.48854 99.867186,888.97279 94.498822,892.45705 87.208382,896.59217 82.799886,900.32778 73.667956,908.06584 69.777933,910.51378 67.759733,905.10738 z"
       id="path3868"
       style="fill:#000000" />
  </g>
</svg>
