<?xml version="1.0" encoding="UTF-8" standalone="no"?>
<!-- Created with Inkscape (http://www.inkscape.org/) -->

<svg
   xmlns:dc="http://purl.org/dc/elements/1.1/"
   xmlns:cc="http://creativecommons.org/ns#"
   xmlns:rdf="http://www.w3.org/1999/02/22-rdf-syntax-ns#"
   xmlns:svg="http://www.w3.org/2000/svg"
   xmlns="http://www.w3.org/2000/svg"
   version="1.1"
   width="300"
   height="300"
   id="svg2">
  <defs
     id="defs4" />
  <metadata
     id="metadata7">
    <rdf:RDF>
      <cc:Work
         rdf:about="">
        <dc:format>image/svg+xml</dc:format>
        <dc:type
           rdf:resource="http://purl.org/dc/dcmitype/StillImage" />
        <dc:title></dc:title>
      </cc:Work>
    </rdf:RDF>
  </metadata>
  <g
     transform="translate(0,-752.36218)"
     id="layer1">
    <path
       d="M 195.90313,1021.7559 C 184.53128,998.92525 162.80092,989.13997 141.49133,990.7471 114.1105,992.81215 78.428232,973.26089 74.855195,949.45454 74.066094,944.19693 76.897026,939.49921 72.280555,931.2853 69.606945,926.52826 62.863132,919.34835 60.085909,914.12792 58.067753,910.33434 59.348675,907.72003 59.949618,907.11908 63.44474,903.62397 75.700514,909.16627 82.968156,917.78422 88.571526,924.42867 88.289656,933.37073 93.023876,942.02182 104.75072,963.45086 121.16581,973.33254 128.22459,966.1516 130.18263,964.15968 129.8671,944.08144 131.5441,927.14235 133.18272,910.59086 133.37242,899.5911 135.71752,896.62344 138.0311,893.69568 143.08895,889.24083 143.4876,908.5827 143.63721,915.84152 141.63745,926.44154 144.98497,928.61515 150.31636,932.07692 163.7222,926.63396 168.66528,921.48274 173.47251,916.4731 175.09454,909.80187 175.76637,905.24074 177.25191,895.15512 183.00991,887.665 185.72816,891.79388 187.17539,893.99219 186.62303,903.20824 186.62303,908.84025 186.62303,924.88504 174.53192,941.34538 160.52302,940.27783 155.05942,939.86148 150.42984,943.38831 147.61115,946.62548 142.41614,952.5918 145.30681,962.06168 149.06823,971.15671 150.9493,975.70512 160.10348,973.23195 167.44445,974.38209 187.91026,977.58854 207.63656,995.65175 211.47209,1016.0969 213.55425,1027.1957 214.14675,1036.3967 211.1876,1037.2854 208.32033,1038.1464 200.85394,1031.6953 195.90313,1021.7559 z M 207.50779,883.69795 C 203.07935,881.12041 195.60142,878.18086 190.85792,874.29135 184.68693,869.23135 178.98998,863.7853 175.69415,859.83744 170.76928,853.93823 167.91366,842.82774 163.56683,843.94421 155.36078,846.05188 147.4985,852.86114 138.53457,866.40656 132.96825,874.81785 125.54833,885.88662 122.39881,885.88662 111.80573,885.88662 117.12759,869.37299 134.8502,849.11338 144.84677,837.6858 156.60822,827.82817 156.25543,823.67531 155.91504,819.66847 143.52987,820.26559 133.51976,822.1435 109.6044,826.63005 101.82302,829.43314 89.597486,852.3706 81.414556,867.72334 74.994711,885.1205 71.077604,884.15139 68.944263,883.62359 67.147069,878.78477 67.147069,872.92787 67.147069,850.07068 91.349846,815.56395 114.17578,809.41757 122.22575,807.24995 126.64649,809.42912 132.27702,804.2664 133.41535,803.22264 133.56046,799.45361 130.45714,798.00727 115.07211,790.83691 109.86434,790.64602 101.12496,790.64602 92.097826,790.64602 81.955216,789.41027 82.947606,784.19016 83.932356,779.01022 89.558166,775.91422 104.33026,775.14629 123.0485,774.17322 130.0207,775.90161 150.46135,790.41665 154.73092,793.4485 156.40165,799.38695 163.01996,798.51899 165.96306,798.13302 172.43455,796.14348 177.55734,793.47883 181.32343,791.51986 185.1435,789.003 190.45024,784.51489 192.76584,782.55648 192.13111,779.27696 194.03945,777.23425 203.96129,766.6138 213.61097,764.05483 213.58707,772.05047 213.55979,781.1721 198.00257,802.38269 186.56696,808.8895 180.2654,812.47505 175.1416,818.01018 175.18075,821.18978 175.32249,832.70105 201.03827,865.19586 220.01904,875.66391 225.93107,878.92444 235.1457,881.81339 238.67804,884.82256 241.43882,887.17447 241.11323,889.48692 240.81313,890.61 239.12422,896.93031 226.64587,894.83719 207.50779,883.69795 z"
       id="path3035"
       style="fill:#000000" />
  </g>
</svg>
