<?xml version="1.0" encoding="UTF-8" standalone="no"?>
<!-- Created with Inkscape (http://www.inkscape.org/) -->

<svg
   xmlns:dc="http://purl.org/dc/elements/1.1/"
   xmlns:cc="http://creativecommons.org/ns#"
   xmlns:rdf="http://www.w3.org/1999/02/22-rdf-syntax-ns#"
   xmlns:svg="http://www.w3.org/2000/svg"
   xmlns="http://www.w3.org/2000/svg"
   version="1.1"
   width="300"
   height="300"
   id="svg2">
  <defs
     id="defs4" />
  <metadata
     id="metadata7">
    <rdf:RDF>
      <cc:Work
         rdf:about="">
        <dc:format>image/svg+xml</dc:format>
        <dc:type
           rdf:resource="http://purl.org/dc/dcmitype/StillImage" />
        <dc:title></dc:title>
      </cc:Work>
    </rdf:RDF>
  </metadata>
  <g
     transform="translate(0,-752.36218)"
     id="layer1">
    <path
       d="M 121.08174,1030.7574 C 114.77131,1023.1017 110.15663,1010.5385 106.79413,991.86005 102.64162,968.7931 102.083,966.91575 98.745444,964.81078 95.918603,963.02791 93.356532,964.61574 83.151516,974.475 62.073336,994.83905 56.757496,998.68235 49.669384,998.68235 46.04715,998.68235 41.992379,997.28325 40.538832,995.53175 38.242332,992.76475 41.008057,989.38432 63.264704,967.75515 77.202021,954.21077 93.297408,937.46366 99.032227,930.53936 110.0142,917.27957 116.92747,910.96652 120.46597,910.96652 123.96828,910.96652 122.87681,922.10565 118.70387,928.94989 116.25812,932.96129 114.80997,938.77955 114.80539,944.61288 114.79833,953.61499 125.68914,993.41925 131.0861,1004.1164 133.63763,1009.1737 136.20765,1021.4348 136.89285,1031.8196 137.15111,1035.7337 136.20488,1036.8096 132.08428,1037.2871 128.16324,1037.7416 125.57019,1036.2027 121.08174,1030.7574 z M 209.44662,1022.5796 C 173.14373,1022.0835 166.14095,1021.5131 163.15214,1018.8083 161.21533,1017.0555 159.63065,1014.6178 159.63065,1013.3912 159.63065,1010.7954 168.77214,1007.3475 180.57478,1005.4919 185.12552,1004.7763 189.30893,1003.4465 189.87125,1002.5366 190.43359,1001.6267 187.43846,994.02795 183.21543,985.65033 166.09973,951.6966 164.51003,934.0031 180.54713,955.95211 184.01057,960.69231 189.08259,967.64071 191.81826,971.393 203.84435,987.8881 204.04147,988.06995 207.56494,985.91802 211.4425,983.54983 216.04742,969.59131 216.21508,959.69755 216.34101,952.26681 220.35754,935.3565 222.50712,933.20691 226.08738,929.62667 228.41401,944.69118 228.00738,968.81988 227.582,994.06205 227.65679,994.56475 232.28968,997.60025 237.66624,1001.1232 256.84258,1006.4794 264.07872,1006.4794 269.20966,1006.4794 278.53436,1011.6245 278.53436,1014.4556 278.53436,1017.6591 269.71965,1021.6544 260.99118,1022.4073 256.16682,1022.8235 232.97177,1022.901 209.44662,1022.5796 z M 135.02559,937.3599 C 133.13268,932.42705 139.57539,914.60302 147.08439,903.9987 163.96956,880.15323 165.64825,876.98308 165.07068,870.03246 164.53541,863.59107 164.06839,863.17459 156.70679,862.57397 148.85006,861.93296 142.25744,863.4394 122.59508,870.36864 94.209423,880.37208 89.982179,885.89049 78.057502,928.5097 77.307592,931.1899 75.425319,933.38279 73.874675,933.38279 68.731918,933.38279 65.819725,924.39491 66.729792,911.33157 68.330064,888.36091 86.809518,866.57949 110.37077,859.8927 127.88197,854.92295 156.4171,844.57291 159.4064,842.10689 161.58112,840.31287 161.79519,836.08394 160.50737,820.35712 157.80731,787.38389 158.158,775.66206 161.86619,774.93802 166.77697,773.97916 171.0233,787.95647 173.25284,812.41857 174.3221,824.15027 176.0161,834.5681 177.01729,835.56929 179.15601,837.708 186.42987,836.18681 191.38103,832.56538 195.62622,829.46032 200.56471,807.38485 200.56471,791.51362 200.56471,785.31431 201.90427,777.03613 203.54152,773.11766 206.35881,766.37492 206.69826,766.17315 209.87655,769.35198 212.77063,772.24655 213.20924,776.6986 213.05009,801.56271 212.88292,827.67418 212.44891,831.15564 208.48056,838.21635 204.04275,846.11238 196.6031,851.80185 185.94541,855.45009 180.24647,857.4009 180.11115,857.74281 180.62691,868.88851 181.1179,879.49883 184.05281,897.59371 188.7164,918.76348 191.59897,931.84859 191.32099,934.35741 186.98861,934.35741 181.99916,934.35741 173.39252,918.2631 173.30469,908.76865 173.28854,907.02377 172.04805,904.57759 170.54802,903.33268 166.47682,899.95387 159.17101,907.2488 149.36148,924.48766 140.83117,939.47846 137.11797,942.81255 135.02559,937.3599 z M 22.534035,878.47917 C 17.981087,873.92622 28.26292,859.0375 47.978156,841.63453 56.318943,834.27197 67.529016,824.0887 72.889429,819.00503 88.588879,804.11612 103.26327,794.01205 109.18739,794.01205 116.21574,794.01205 117.28692,796.13599 114.31777,804.18458 111.05348,813.03321 69.947098,851.75488 55.068412,859.99667 48.788732,863.4752 39.8547,869.34918 35.215006,873.04997 26.544787,879.96564 24.777253,880.72239 22.534035,878.47917 z"
       id="path3816"
       style="fill:#000000" />
  </g>
</svg>
