<?xml version="1.0" encoding="UTF-8" standalone="no"?>
<!-- Created with Inkscape (http://www.inkscape.org/) -->

<svg
   xmlns:dc="http://purl.org/dc/elements/1.1/"
   xmlns:cc="http://creativecommons.org/ns#"
   xmlns:rdf="http://www.w3.org/1999/02/22-rdf-syntax-ns#"
   xmlns:svg="http://www.w3.org/2000/svg"
   xmlns="http://www.w3.org/2000/svg"
   version="1.1"
   width="300"
   height="300"
   id="svg2">
  <defs
     id="defs4" />
  <metadata
     id="metadata7">
    <rdf:RDF>
      <cc:Work
         rdf:about="">
        <dc:format>image/svg+xml</dc:format>
        <dc:type
           rdf:resource="http://purl.org/dc/dcmitype/StillImage" />
        <dc:title></dc:title>
      </cc:Work>
    </rdf:RDF>
  </metadata>
  <g
     transform="translate(0,-752.36218)"
     id="layer1">
    <path
       d="M 153.73355,1035.3336 C 111.74451,1031.92 102.91986,1029.579 97.991047,1020.5463 94.761207,1014.6272 90.082431,955.84367 92.367235,949.88956 94.205868,945.09816 101.12988,943.31503 105.10052,946.61038 107.76216,948.81934 108.63914,957.68803 108.63914,982.39523 L 108.63914,1015.2433 120.87905,1016.6616 C 127.611,1017.4417 134.27765,1016.9556 135.69383,1015.5814 137.15779,1014.1609 138.82541,990.08185 139.55906,959.77051 140.75899,910.19459 141.18899,906.39307 145.6943,905.53057 153.38535,904.0582 154.94043,909.71777 154.98249,939.33393 155.02618,970.0899 155.79981,971.47131 170.81285,967.60091 177.38285,965.90714 179.66092,963.82703 180.15435,959.07112 181.43278,946.74932 186.86139,925.4618 189.07388,924.0944 190.31102,923.32981 193.05849,924.14437 195.17937,925.90456 198.1997,928.4112 198.77193,933.34637 197.81947,948.67359 197.15065,959.43639 195.8514,970.19054 194.93226,972.5717 192.95168,977.70265 180.69295,982.41483 169.32533,982.41483 164.85988,982.41483 159.81485,983.80632 158.11414,985.50702 153.89203,989.72913 154.02815,1018.2708 158.27818,1019.9016 160.0691,1020.5889 173.22746,1021.4222 187.51897,1021.7534 215.06607,1022.3918 225.92533,1026.2101 218.92763,1032.7971 213.46475,1037.9394 194.74489,1038.6677 153.73355,1035.3336 z M 64.833161,932.04319 C 64.833161,927.65117 77.27535,915.6281 81.954202,915.49887 83.575885,915.45409 88.567267,911.99425 93.046159,907.81033 97.525053,903.62642 105.04427,897.8209 109.75554,894.90917 114.46682,891.99744 123.10039,884.43064 128.94126,878.09404 137.81682,868.46519 139.56102,864.82127 139.56102,855.90755 139.56102,843.75448 140.78198,843.79982 113.79279,854.95093 104.58065,858.75711 91.005455,866.38194 83.62569,871.895 76.245924,877.40806 68.487258,881.91875 66.384212,881.91875 60.529799,881.91875 58.727735,876.91631 62.226858,870.37813 65.575488,864.12116 105.50634,841.00413 122.81167,835.30399 136.78841,830.70023 139.56102,826.59114 139.56102,810.48085 139.56102,789.49668 144.79464,779.66053 159.39667,773.20135 174.92593,766.33202 199.55017,765.25921 200.79926,771.39757 201.75873,776.11271 192.84678,780.22349 176.92494,782.41002 161.78932,784.48856 155.02195,793.40873 155.02195,811.28069 155.02195,820.55894 156.18154,825.83537 158.4084,826.68989 162.30579,828.18546 191.03539,821.16781 194.27404,817.92915 195.46435,816.73885 197.13681,811.22677 197.99064,805.68008 199.84169,793.65526 203.03253,788.95069 208.03521,790.87041 212.85631,792.72042 213.24619,825.95813 208.49102,829.72815 206.71945,831.13269 195.41364,833.79033 183.367,835.63399 171.32035,837.47766 160.16492,839.96637 158.57715,841.16445 156.98937,842.36253 155.0254,848.25377 154.21275,854.25609 152.43267,867.40409 156.87034,875.55504 167.17455,878.06384 171.12001,879.02446 182.46512,884.26853 192.38588,889.71736 202.30664,895.16618 215.88996,902.59641 222.57102,906.22898 235.26201,913.12924 241.4357,920.99221 239.04798,927.2145 236.71411,933.29648 229.2643,931.3964 213.00046,920.57109 204.49695,914.9111 196.62289,910.27651 195.50256,910.272 194.38223,910.2675 190.30006,907.92341 186.43105,905.06292 182.56204,902.20244 172.52091,897.06761 164.11741,893.65217 146.51109,886.49643 148.5721,885.86335 117.43717,907.99087 105.70734,916.32724 95.501994,923.14792 94.75864,923.14792 94.015285,923.14792 89.135273,926.04684 83.914178,929.58997 73.162465,936.88628 64.833161,937.95717 64.833161,932.04319 z"
       id="path3022"
       style="fill:#000000" />
  </g>
</svg>
