<?xml version="1.0" encoding="UTF-8" standalone="no"?>
<!-- Created with Inkscape (http://www.inkscape.org/) -->

<svg
   xmlns:dc="http://purl.org/dc/elements/1.1/"
   xmlns:cc="http://creativecommons.org/ns#"
   xmlns:rdf="http://www.w3.org/1999/02/22-rdf-syntax-ns#"
   xmlns:svg="http://www.w3.org/2000/svg"
   xmlns="http://www.w3.org/2000/svg"
   version="1.1"
   width="300"
   height="300"
   id="svg2">
  <defs
     id="defs4" />
  <metadata
     id="metadata7">
    <rdf:RDF>
      <cc:Work
         rdf:about="">
        <dc:format>image/svg+xml</dc:format>
        <dc:type
           rdf:resource="http://purl.org/dc/dcmitype/StillImage" />
        <dc:title></dc:title>
      </cc:Work>
    </rdf:RDF>
  </metadata>
  <g
     transform="translate(0,-752.36218)"
     id="layer1">
    <path
       d="M 132.22667,1035.4735 C 131.06391,1033.5921 124.31291,1033.1785 113.25643,1034.3113 92.612735,1036.4263 78.3057,1030.9994 73.418302,1019.2003 69.828698,1010.5342 70.47924,900.44393 74.141633,896.79184 75.343079,895.59376 78.422796,895.93501 80.985448,897.55016 85.085943,900.13456 85.733544,907.25672 86.384536,956.92784 87.221705,1020.8042 86.012968,1017.6459 110.28256,1019.3724 L 123.97019,1020.3461 124.70402,953.61677 C 125.48308,882.77497 124.92951,879.36349 112.65505,879.36349 109.05891,879.36349 100.74632,876.83916 94.182635,873.75387 76.90611,865.63294 71.858621,853.05992 72.288644,819.21714 72.714716,785.68527 75.33509,779.30029 91.628175,772.09308 103.45103,766.86328 107.52784,766.56403 142.65938,768.34734 182.41338,770.36531 188.36159,772.06232 194.2507,783.06621 199.39276,792.67425 198.43817,844.94284 192.88798,857.68119 187.26344,870.59022 184.42702,872.49675 165.3304,876.20435 141.12454,880.90391 141.0523,881.02957 142.17741,916.47258 143.29432,951.65719 145.84479,957.31401 159.30985,954.47161 163.96327,953.4893 170.54236,950.14008 173.93005,947.0289 179.51844,941.89663 180.08948,938.87054 180.08948,914.38822 180.08948,892.3383 180.87914,887.10121 184.40804,885.74705 186.78325,884.83559 190.56477,885.92803 192.81142,888.17467 201.451,896.81426 198.67539,952.34818 189.12844,961.86292 186.41548,964.56676 175.71705,968.55234 165.35417,970.71982 154.99129,972.88728 145.46303,976.31667 144.18026,978.34069 140.06249,984.8379 141.32056,1015.2013 145.86375,1018.9718 148.84315,1021.4445 160.62488,1022.0971 188.97979,1021.3602 227.52726,1020.3582 228.00655,1020.4189 228.85829,1026.4087 229.72938,1032.5346 225.31545,1034.7382 211.57103,1035.0389 208.55975,1035.1047 189.88155,1035.8867 170.0639,1036.7765 145.81687,1037.8651 133.44141,1037.439 132.22667,1035.4735 z M 156.54937,857.85845 C 172.82551,853.67849 176.83018,847.92324 180.16971,823.91284 184.07861,795.80888 181.1727,789.34232 161.84642,783.13789 150.57919,779.52071 143.61442,779.08566 126.92926,780.95683 98.288545,784.16876 91.682545,787.74759 89.268345,801.35985 86.412385,817.46294 86.894615,832.93928 90.589995,843.77564 93.347575,851.86199 95.974405,854.05903 107.42516,857.85634 121.54784,862.53972 138.31844,862.54044 156.54937,857.85845 z"
       id="path2996"
       style="fill:#000000" />
  </g>
</svg>
