<?xml version="1.0" encoding="UTF-8" standalone="no"?>
<!-- Created with Inkscape (http://www.inkscape.org/) -->

<svg
   xmlns:dc="http://purl.org/dc/elements/1.1/"
   xmlns:cc="http://creativecommons.org/ns#"
   xmlns:rdf="http://www.w3.org/1999/02/22-rdf-syntax-ns#"
   xmlns:svg="http://www.w3.org/2000/svg"
   xmlns="http://www.w3.org/2000/svg"
   xmlns:sodipodi="http://sodipodi.sourceforge.net/DTD/sodipodi-0.dtd"
   xmlns:inkscape="http://www.inkscape.org/namespaces/inkscape"
   width="300"
   height="300"
   id="svg2"
   version="1.1"
   inkscape:version="0.47 r22583"
   sodipodi:docname="弔-bronze.svg">
  <defs
     id="defs4">
    <inkscape:perspective
       sodipodi:type="inkscape:persp3d"
       inkscape:vp_x="0 : 526.18109 : 1"
       inkscape:vp_y="0 : 1000 : 0"
       inkscape:vp_z="744.09448 : 526.18109 : 1"
       inkscape:persp3d-origin="372.04724 : 350.78739 : 1"
       id="perspective10" />
    <inkscape:perspective
       id="perspective2824"
       inkscape:persp3d-origin="0.5 : 0.33333333 : 1"
       inkscape:vp_z="1 : 0.5 : 1"
       inkscape:vp_y="0 : 1000 : 0"
       inkscape:vp_x="0 : 0.5 : 1"
       sodipodi:type="inkscape:persp3d" />
    <inkscape:perspective
       id="perspective2863"
       inkscape:persp3d-origin="0.5 : 0.33333333 : 1"
       inkscape:vp_z="1 : 0.5 : 1"
       inkscape:vp_y="0 : 1000 : 0"
       inkscape:vp_x="0 : 0.5 : 1"
       sodipodi:type="inkscape:persp3d" />
    <inkscape:perspective
       id="perspective2879"
       inkscape:persp3d-origin="0.5 : 0.33333333 : 1"
       inkscape:vp_z="1 : 0.5 : 1"
       inkscape:vp_y="0 : 1000 : 0"
       inkscape:vp_x="0 : 0.5 : 1"
       sodipodi:type="inkscape:persp3d" />
    <inkscape:perspective
       id="perspective2916"
       inkscape:persp3d-origin="0.5 : 0.33333333 : 1"
       inkscape:vp_z="1 : 0.5 : 1"
       inkscape:vp_y="0 : 1000 : 0"
       inkscape:vp_x="0 : 0.5 : 1"
       sodipodi:type="inkscape:persp3d" />
    <inkscape:perspective
       id="perspective2932"
       inkscape:persp3d-origin="0.5 : 0.33333333 : 1"
       inkscape:vp_z="1 : 0.5 : 1"
       inkscape:vp_y="0 : 1000 : 0"
       inkscape:vp_x="0 : 0.5 : 1"
       sodipodi:type="inkscape:persp3d" />
    <inkscape:perspective
       id="perspective2970"
       inkscape:persp3d-origin="0.5 : 0.33333333 : 1"
       inkscape:vp_z="1 : 0.5 : 1"
       inkscape:vp_y="0 : 1000 : 0"
       inkscape:vp_x="0 : 0.5 : 1"
       sodipodi:type="inkscape:persp3d" />
    <inkscape:perspective
       id="perspective3007"
       inkscape:persp3d-origin="0.5 : 0.33333333 : 1"
       inkscape:vp_z="1 : 0.5 : 1"
       inkscape:vp_y="0 : 1000 : 0"
       inkscape:vp_x="0 : 0.5 : 1"
       sodipodi:type="inkscape:persp3d" />
    <inkscape:perspective
       id="perspective3046"
       inkscape:persp3d-origin="0.5 : 0.33333333 : 1"
       inkscape:vp_z="1 : 0.5 : 1"
       inkscape:vp_y="0 : 1000 : 0"
       inkscape:vp_x="0 : 0.5 : 1"
       sodipodi:type="inkscape:persp3d" />
  </defs>
  <sodipodi:namedview
     id="base"
     pagecolor="#ffffff"
     bordercolor="#666666"
     borderopacity="1.0"
     inkscape:pageopacity="0.0"
     inkscape:pageshadow="2"
     inkscape:zoom="1.4"
     inkscape:cx="136.83874"
     inkscape:cy="82.592006"
     inkscape:document-units="px"
     inkscape:current-layer="layer1"
     showgrid="false"
     inkscape:window-width="1280"
     inkscape:window-height="950"
     inkscape:window-x="0"
     inkscape:window-y="25"
     inkscape:window-maximized="1" />
  <metadata
     id="metadata7">
    <rdf:RDF>
      <cc:Work
         rdf:about="">
        <dc:format>image/svg+xml</dc:format>
        <dc:type
           rdf:resource="http://purl.org/dc/dcmitype/StillImage" />
        <dc:title></dc:title>
      </cc:Work>
    </rdf:RDF>
  </metadata>
  <g
     inkscape:label="Calque 1"
     inkscape:groupmode="layer"
     id="layer1"
     transform="translate(0,-752.36218)">
    <path
       style="fill:#000000"
       d="m 218.5588,1025.3904 c -18.45903,-14.1287 -36.98216,-32.02876 -46.17059,-53.83678 0,-7.11392 -7.00537,-8.33507 -19.14914,-3.33743 -36.15736,19.56371 -50.12317,51.13331 -78.048963,64.56171 -6.27323,0 -8.901883,-6.4261 -5.068957,-12.392 1.797273,-2.7976 5.30455,-8.2252 7.793898,-12.0616 2.489362,-3.8363 8.15449,-10.12854 12.589175,-13.98264 12.883557,-11.19686 49.353737,-35.85042 55.239617,-37.34168 2.96129,-0.75017 8.69761,-4.36189 12.74742,-8.02615 11.46392,-10.37222 6.34934,-16.77268 -15.8727,-19.8634 -17.66862,-8.41545 -35.73813,-1.69506 -50.532145,-17.74606 -10.060298,-13.86129 -1.76189,-54.92566 13.435655,-66.48589 5.89154,-4.48149 22.59401,-5.84663 37.69879,-3.08122 31.15488,5.70389 34.63574,5.56543 41.04837,-1.63279 3.25333,-3.65185 11.28292,-11.88325 17.84353,-18.29198 23.92094,-23.36711 18.7623,-33.2297 -18.83085,-36.00205 -33.7603,-2.48971 -34.81287,-2.09563 -41.27271,15.45296 -8.02783,21.80812 -24.46598,30.82 -56.460757,30.95353 -20.518094,0.0855 -27.638274,-2.41467 -27.638274,-9.7053 0,-3.53553 2.852822,-4.19481 18.151835,-4.19481 27.665066,0 45.145916,-8.18422 49.331756,-23.09621 l 2.14526,-7.64246 -21.073,1.60792 c -17.005841,1.29758 -21.88564,0.91025 -25.283613,-2.00694 -11.075358,-9.50832 13.473155,-13.93281 78.122593,-14.08035 44.08438,-0.10064 52.04767,0.45933 61.04881,4.29273 11.78277,5.01808 17.45041,12.34021 17.45041,22.54459 0,8.16264 -3.16374,12.85696 -17.99516,26.70097 -5.93163,5.53678 -14.74026,16.15458 -19.57466,23.59516 -19.89654,29.18531 -28.32954,46.78171 -19.78625,86.80244 2.57133,2.96436 20.51008,-8.2557 26.61227,-16.64505 3.18073,-4.37287 4.5774,-14.8611 4.5774,-34.3741 0,-29.53055 1.34048,-31.84352 14.48569,-24.99493 10.70557,5.5775 3.4799,62.94261 -9.06807,71.99213 -4.50773,5.37821 -17.01887,15.3186 -23.5097,15.80915 -8.94099,0 -8.94551,6.67882 -0.0163,22.57294 9.55991,17.01459 24.72615,34.16429 42.60818,48.18039 12.8183,10.047 12.1889,9.1111 9.49261,14.1174 -3.32097,6.1661 -9.57985,4.233 -27.07248,-8.3622 l 0.001,0 5e-5,0 z M 159.305,904.60337 c 0,-9.98052 -0.91082,-11.65224 -6.34855,-11.65224 -3.49172,0 -7.25824,-1.0487 -8.37005,-2.33045 -1.11182,-1.28174 -10.02985,-2.33044 -19.81785,-2.33044 l -17.79637,0 0,8.32302 c 0,12.90495 12.56191,18.74985 41.70271,19.4038 10.62024,0.23834 10.63011,0.22768 10.63011,-11.41369 z m 7.75086,-30.87843 c 1.08472,-2.88392 1.9923,-6.86806 2.01687,-8.85363 0.0582,-4.71626 -17.79787,-9.20734 -36.60789,-9.20734 -12.25701,0 -15.87304,1.02776 -20.21028,5.74414 -2.90531,3.15927 -5.28238,7.15266 -5.28238,8.87421 0,3.68699 21.41309,7.8434 42.95665,8.33812 13.15683,0.30212 15.41482,-0.34329 17.12703,-4.8955 z"
       id="path3052"
       sodipodi:nodetypes="ccccsssssccssssssssscccsssssccssscccssccccscccscccsssscc" />
  </g>
</svg>
