<?xml version="1.0" encoding="UTF-8" standalone="no"?>
<!-- Created with Inkscape (http://www.inkscape.org/) -->

<svg
   xmlns:dc="http://purl.org/dc/elements/1.1/"
   xmlns:cc="http://creativecommons.org/ns#"
   xmlns:rdf="http://www.w3.org/1999/02/22-rdf-syntax-ns#"
   xmlns:svg="http://www.w3.org/2000/svg"
   xmlns="http://www.w3.org/2000/svg"
   xmlns:sodipodi="http://sodipodi.sourceforge.net/DTD/sodipodi-0.dtd"
   xmlns:inkscape="http://www.inkscape.org/namespaces/inkscape"
   width="300"
   height="300"
   id="svg2"
   version="1.1"
   inkscape:version="0.47 r22583"
   sodipodi:docname="身-bigseal.svg">
  <defs
     id="defs4">
    <inkscape:perspective
       sodipodi:type="inkscape:persp3d"
       inkscape:vp_x="0 : 526.18109 : 1"
       inkscape:vp_y="0 : 1000 : 0"
       inkscape:vp_z="744.09448 : 526.18109 : 1"
       inkscape:persp3d-origin="372.04724 : 350.78739 : 1"
       id="perspective10" />
    <inkscape:perspective
       id="perspective2824"
       inkscape:persp3d-origin="0.5 : 0.33333333 : 1"
       inkscape:vp_z="1 : 0.5 : 1"
       inkscape:vp_y="0 : 1000 : 0"
       inkscape:vp_x="0 : 0.5 : 1"
       sodipodi:type="inkscape:persp3d" />
    <inkscape:perspective
       id="perspective2863"
       inkscape:persp3d-origin="0.5 : 0.33333333 : 1"
       inkscape:vp_z="1 : 0.5 : 1"
       inkscape:vp_y="0 : 1000 : 0"
       inkscape:vp_x="0 : 0.5 : 1"
       sodipodi:type="inkscape:persp3d" />
    <inkscape:perspective
       id="perspective2879"
       inkscape:persp3d-origin="0.5 : 0.33333333 : 1"
       inkscape:vp_z="1 : 0.5 : 1"
       inkscape:vp_y="0 : 1000 : 0"
       inkscape:vp_x="0 : 0.5 : 1"
       sodipodi:type="inkscape:persp3d" />
    <inkscape:perspective
       id="perspective2916"
       inkscape:persp3d-origin="0.5 : 0.33333333 : 1"
       inkscape:vp_z="1 : 0.5 : 1"
       inkscape:vp_y="0 : 1000 : 0"
       inkscape:vp_x="0 : 0.5 : 1"
       sodipodi:type="inkscape:persp3d" />
    <inkscape:perspective
       id="perspective2932"
       inkscape:persp3d-origin="0.5 : 0.33333333 : 1"
       inkscape:vp_z="1 : 0.5 : 1"
       inkscape:vp_y="0 : 1000 : 0"
       inkscape:vp_x="0 : 0.5 : 1"
       sodipodi:type="inkscape:persp3d" />
    <inkscape:perspective
       id="perspective2970"
       inkscape:persp3d-origin="0.5 : 0.33333333 : 1"
       inkscape:vp_z="1 : 0.5 : 1"
       inkscape:vp_y="0 : 1000 : 0"
       inkscape:vp_x="0 : 0.5 : 1"
       sodipodi:type="inkscape:persp3d" />
    <inkscape:perspective
       id="perspective3007"
       inkscape:persp3d-origin="0.5 : 0.33333333 : 1"
       inkscape:vp_z="1 : 0.5 : 1"
       inkscape:vp_y="0 : 1000 : 0"
       inkscape:vp_x="0 : 0.5 : 1"
       sodipodi:type="inkscape:persp3d" />
    <inkscape:perspective
       id="perspective3046"
       inkscape:persp3d-origin="0.5 : 0.33333333 : 1"
       inkscape:vp_z="1 : 0.5 : 1"
       inkscape:vp_y="0 : 1000 : 0"
       inkscape:vp_x="0 : 0.5 : 1"
       sodipodi:type="inkscape:persp3d" />
    <inkscape:perspective
       id="perspective3083"
       inkscape:persp3d-origin="0.5 : 0.33333333 : 1"
       inkscape:vp_z="1 : 0.5 : 1"
       inkscape:vp_y="0 : 1000 : 0"
       inkscape:vp_x="0 : 0.5 : 1"
       sodipodi:type="inkscape:persp3d" />
    <inkscape:perspective
       id="perspective3120"
       inkscape:persp3d-origin="0.5 : 0.33333333 : 1"
       inkscape:vp_z="1 : 0.5 : 1"
       inkscape:vp_y="0 : 1000 : 0"
       inkscape:vp_x="0 : 0.5 : 1"
       sodipodi:type="inkscape:persp3d" />
    <inkscape:perspective
       id="perspective3157"
       inkscape:persp3d-origin="0.5 : 0.33333333 : 1"
       inkscape:vp_z="1 : 0.5 : 1"
       inkscape:vp_y="0 : 1000 : 0"
       inkscape:vp_x="0 : 0.5 : 1"
       sodipodi:type="inkscape:persp3d" />
  </defs>
  <sodipodi:namedview
     id="base"
     pagecolor="#ffffff"
     bordercolor="#666666"
     borderopacity="1.0"
     inkscape:pageopacity="0.0"
     inkscape:pageshadow="2"
     inkscape:zoom="1.4"
     inkscape:cx="136.83874"
     inkscape:cy="82.592006"
     inkscape:document-units="px"
     inkscape:current-layer="layer1"
     showgrid="false"
     inkscape:window-width="1280"
     inkscape:window-height="950"
     inkscape:window-x="0"
     inkscape:window-y="25"
     inkscape:window-maximized="1" />
  <metadata
     id="metadata7">
    <rdf:RDF>
      <cc:Work
         rdf:about="">
        <dc:format>image/svg+xml</dc:format>
        <dc:type
           rdf:resource="http://purl.org/dc/dcmitype/StillImage" />
        <dc:title></dc:title>
      </cc:Work>
    </rdf:RDF>
  </metadata>
  <g
     inkscape:label="Calque 1"
     inkscape:groupmode="layer"
     id="layer1"
     transform="translate(0,-752.36218)">
    <path
       style="fill:#000000"
       d="m 186.94684,1033.3726 c -12.68786,-7.5037 -0.76509,-36.43806 -21.43834,-33.45885 -19.14197,-2.48149 -38.28085,-5.33183 -57.56455,-6.08364 7.51201,-16.00875 30.17635,-5.92738 43.91903,-9.78884 14.35537,5.69745 32.78503,-2.38903 26.66766,-21.72176 -11.00682,-12.42109 -30.92161,-5.3915 -45.26301,-10.4089 -17.03491,-2.91436 -36.242224,-9.66077 -45.824735,-26.47801 -9.008196,-20.08488 15.727575,-31.87814 29.936975,-35.4261 18.97848,-3.40793 36.91397,-11.14646 55.47117,-16.27723 14.35482,-5.39727 10.03531,-35.86862 -6.11153,-33.87517 -14.15841,4.90344 -27.83446,12.53532 -41.79835,18.68105 -14.45277,6.31567 -29.55708,13.55755 -45.331542,13.25894 -10.202492,-9.97741 16.457149,-16.66757 23.492602,-20.06331 18.62414,-7.76307 36.93123,-16.47306 54.65779,-26.44825 -0.16897,-16.23478 -26.404,-8.14407 -35.36906,-18.82781 -11.84895,-3.89826 -40.004635,-28.87968 -13.15215,-30.4362 13.33398,3.86169 21.75002,19.03521 36.2998,20.88562 18.97361,5.6723 41.54559,7.18612 56.2154,22.44241 4.67691,17.3672 -2.21266,35.69614 0.3624,53.57653 0.0516,34.58361 0.7624,69.27306 -2.52361,103.72758 5.25244,15.41863 23.08042,10.32815 34.16402,15.0756 13.46767,13.14754 -13.92039,10.83004 -21.47706,8.85964 -15.71385,-2.28425 -5.50021,28.1075 -20.34847,33.6118 -1.68276,1.8001 -3.41616,-0.1709 -4.98444,-0.8251 z m -14.36507,-93.18214 c 13.8573,-1.08444 -0.0227,-17.93715 -8.2551,-11.67601 -8.81994,-1.0791 -37.15978,-1.78194 -28.7162,-15.23994 14.80655,-3.86338 32.07033,7.78831 45.17185,-3.81362 1.43746,-19.27402 -20.69741,-15.65142 -31.36263,-10.99904 -12.88957,5.81292 -36.39795,3.53294 -37.64991,23.26973 6.32601,19.23083 28.36859,20.88931 44.28769,20.52222 5.54702,-0.173 11.09639,-0.77299 16.5243,-2.06334 z"
       id="path3163" />
  </g>
</svg>
