<?xml version="1.0" encoding="UTF-8" standalone="no"?>
<!-- Created with Inkscape (http://www.inkscape.org/) -->

<svg
   xmlns:dc="http://purl.org/dc/elements/1.1/"
   xmlns:cc="http://creativecommons.org/ns#"
   xmlns:rdf="http://www.w3.org/1999/02/22-rdf-syntax-ns#"
   xmlns:svg="http://www.w3.org/2000/svg"
   xmlns="http://www.w3.org/2000/svg"
   xmlns:sodipodi="http://sodipodi.sourceforge.net/DTD/sodipodi-0.dtd"
   xmlns:inkscape="http://www.inkscape.org/namespaces/inkscape"
   width="300"
   height="300"
   id="svg2"
   version="1.1"
   inkscape:version="0.47 r22583"
   sodipodi:docname="身-bigseal.svg">
  <defs
     id="defs4">
    <inkscape:perspective
       sodipodi:type="inkscape:persp3d"
       inkscape:vp_x="0 : 526.18109 : 1"
       inkscape:vp_y="0 : 1000 : 0"
       inkscape:vp_z="744.09448 : 526.18109 : 1"
       inkscape:persp3d-origin="372.04724 : 350.78739 : 1"
       id="perspective10" />
    <inkscape:perspective
       id="perspective2824"
       inkscape:persp3d-origin="0.5 : 0.33333333 : 1"
       inkscape:vp_z="1 : 0.5 : 1"
       inkscape:vp_y="0 : 1000 : 0"
       inkscape:vp_x="0 : 0.5 : 1"
       sodipodi:type="inkscape:persp3d" />
    <inkscape:perspective
       id="perspective2863"
       inkscape:persp3d-origin="0.5 : 0.33333333 : 1"
       inkscape:vp_z="1 : 0.5 : 1"
       inkscape:vp_y="0 : 1000 : 0"
       inkscape:vp_x="0 : 0.5 : 1"
       sodipodi:type="inkscape:persp3d" />
    <inkscape:perspective
       id="perspective2879"
       inkscape:persp3d-origin="0.5 : 0.33333333 : 1"
       inkscape:vp_z="1 : 0.5 : 1"
       inkscape:vp_y="0 : 1000 : 0"
       inkscape:vp_x="0 : 0.5 : 1"
       sodipodi:type="inkscape:persp3d" />
    <inkscape:perspective
       id="perspective2916"
       inkscape:persp3d-origin="0.5 : 0.33333333 : 1"
       inkscape:vp_z="1 : 0.5 : 1"
       inkscape:vp_y="0 : 1000 : 0"
       inkscape:vp_x="0 : 0.5 : 1"
       sodipodi:type="inkscape:persp3d" />
    <inkscape:perspective
       id="perspective2932"
       inkscape:persp3d-origin="0.5 : 0.33333333 : 1"
       inkscape:vp_z="1 : 0.5 : 1"
       inkscape:vp_y="0 : 1000 : 0"
       inkscape:vp_x="0 : 0.5 : 1"
       sodipodi:type="inkscape:persp3d" />
    <inkscape:perspective
       id="perspective2970"
       inkscape:persp3d-origin="0.5 : 0.33333333 : 1"
       inkscape:vp_z="1 : 0.5 : 1"
       inkscape:vp_y="0 : 1000 : 0"
       inkscape:vp_x="0 : 0.5 : 1"
       sodipodi:type="inkscape:persp3d" />
    <inkscape:perspective
       id="perspective3007"
       inkscape:persp3d-origin="0.5 : 0.33333333 : 1"
       inkscape:vp_z="1 : 0.5 : 1"
       inkscape:vp_y="0 : 1000 : 0"
       inkscape:vp_x="0 : 0.5 : 1"
       sodipodi:type="inkscape:persp3d" />
    <inkscape:perspective
       id="perspective3046"
       inkscape:persp3d-origin="0.5 : 0.33333333 : 1"
       inkscape:vp_z="1 : 0.5 : 1"
       inkscape:vp_y="0 : 1000 : 0"
       inkscape:vp_x="0 : 0.5 : 1"
       sodipodi:type="inkscape:persp3d" />
    <inkscape:perspective
       id="perspective3083"
       inkscape:persp3d-origin="0.5 : 0.33333333 : 1"
       inkscape:vp_z="1 : 0.5 : 1"
       inkscape:vp_y="0 : 1000 : 0"
       inkscape:vp_x="0 : 0.5 : 1"
       sodipodi:type="inkscape:persp3d" />
    <inkscape:perspective
       id="perspective3120"
       inkscape:persp3d-origin="0.5 : 0.33333333 : 1"
       inkscape:vp_z="1 : 0.5 : 1"
       inkscape:vp_y="0 : 1000 : 0"
       inkscape:vp_x="0 : 0.5 : 1"
       sodipodi:type="inkscape:persp3d" />
  </defs>
  <sodipodi:namedview
     id="base"
     pagecolor="#ffffff"
     bordercolor="#666666"
     borderopacity="1.0"
     inkscape:pageopacity="0.0"
     inkscape:pageshadow="2"
     inkscape:zoom="1.4"
     inkscape:cx="136.83874"
     inkscape:cy="82.592006"
     inkscape:document-units="px"
     inkscape:current-layer="layer1"
     showgrid="false"
     inkscape:window-width="1280"
     inkscape:window-height="950"
     inkscape:window-x="0"
     inkscape:window-y="25"
     inkscape:window-maximized="1" />
  <metadata
     id="metadata7">
    <rdf:RDF>
      <cc:Work
         rdf:about="">
        <dc:format>image/svg+xml</dc:format>
        <dc:type
           rdf:resource="http://purl.org/dc/dcmitype/StillImage" />
        <dc:title></dc:title>
      </cc:Work>
    </rdf:RDF>
  </metadata>
  <g
     inkscape:label="Calque 1"
     inkscape:groupmode="layer"
     id="layer1"
     transform="translate(0,-752.36218)">
    <path
       style="fill:#000000"
       d="m 200.90415,1030.8302 c -1.33134,-1.4768 -2.42059,-7.8214 -2.42059,-14.0992 l 0,-11.4136 -66.95674,0 c -62.354195,0 -78.170068,-2.5516 -66.536843,-10.73402 2.528785,-1.77867 34.55928,-3.91859 71.178863,-4.75536 65.94723,-1.50693 66.5612,-1.60341 64.49745,-10.13657 -1.14597,-4.73834 -2.1059,-11.78748 -2.13317,-15.66479 -0.0439,-6.23108 -4.18498,-7.04964 -35.66426,-7.04964 -22.83046,0 -37.79591,-1.80753 -41.69111,-5.03546 -4.21674,-3.49436 -6.80878,-13.94552 -8.46935,-34.14878 -3.3753,-41.06452 1.36222,-45.97599 53.09735,-55.04694 24.3673,-4.2724 27.36106,-5.77522 28.46325,-14.28813 l 1.2317,-9.51355 -33.90951,2.78932 c -43.02831,3.53944 -59.82246,8.53191 -66.362814,19.72799 -3.298789,5.64701 -5.857341,24.38286 -6.992391,51.20352 -2.062437,48.73445 -3.966506,56.39713 -14.01384,56.39713 -5.865268,0 -6.820802,-1.77813 -4.870586,-9.06383 1.334383,-4.9851 3.775378,-26.28508 5.424433,-47.3333 3.394283,-43.32375 10.283861,-65.50781 22.643617,-72.91141 4.662261,-2.79275 27.592191,-6.17013 50.955411,-7.50533 23.36321,-1.33516 43.5802,-3.64983 44.92668,-5.1437 1.34643,-1.49389 1.48059,-5.51347 0.29809,-8.93243 -1.7666,-5.10764 -9.64932,-6.21629 -44.19928,-6.21629 -31.567,0 -44.94595,-1.62742 -53.669257,-6.52833 -16.500581,-9.27032 -24.328038,-17.73963 -24.328038,-26.32296 0,-9.06031 8.291657,-9.72076 14.687975,-1.16987 9.646354,12.89556 20.8609,15.93956 65.97486,17.9077 34.959,1.5251 47.52953,3.52458 51.77049,8.23458 4.51318,5.01238 6.12379,23.006 8.29342,92.65243 l 2.6925,86.43202 17.47275,1.23804 c 14.12578,1.00093 17.24931,2.54424 16.30626,8.05673 -0.86277,5.04315 -5.64894,7.13842 -18.38046,8.04653 l -17.21398,1.2279 0,15.8927 c 0,14.9791 -5.29645,20.7585 -12.10288,13.2069 z m -3.18696,-121.18649 -1.04906,-35.2482 -26.13154,0.79335 c -15.86365,0.48163 -30.67301,3.39893 -37.68949,7.42452 -11.32326,6.49651 -11.51627,7.07912 -9.50586,28.69055 2.96649,31.88947 5.14352,33.58799 43.05047,33.58799 l 32.37458,0 -1.0491,-35.24821 z m -44.01431,8.39242 c -1.33133,-1.47704 -2.4206,-5.81503 -2.4206,-9.63992 0,-11.64778 20.35377,-16.64223 24.06725,-5.90566 3.71538,10.74216 -14.30907,23.68647 -21.64665,15.54558 z"
       id="path3126" />
  </g>
</svg>
