<?xml version="1.0" encoding="UTF-8" standalone="no"?>
<!-- Created with Inkscape (http://www.inkscape.org/) -->

<svg
   xmlns:dc="http://purl.org/dc/elements/1.1/"
   xmlns:cc="http://creativecommons.org/ns#"
   xmlns:rdf="http://www.w3.org/1999/02/22-rdf-syntax-ns#"
   xmlns:svg="http://www.w3.org/2000/svg"
   xmlns="http://www.w3.org/2000/svg"
   xmlns:sodipodi="http://sodipodi.sourceforge.net/DTD/sodipodi-0.dtd"
   xmlns:inkscape="http://www.inkscape.org/namespaces/inkscape"
   width="300"
   height="300"
   id="svg2"
   version="1.1"
   inkscape:version="0.48.3.1 r9886"
   sodipodi:docname="Nouveau document 1">
  <defs
     id="defs4" />
  <sodipodi:namedview
     id="base"
     pagecolor="#ffffff"
     bordercolor="#666666"
     borderopacity="1.0"
     inkscape:pageopacity="0.0"
     inkscape:pageshadow="2"
     inkscape:zoom="1.979899"
     inkscape:cx="156.04211"
     inkscape:cy="154.56777"
     inkscape:document-units="px"
     inkscape:current-layer="layer1"
     showgrid="false"
     inkscape:window-width="1215"
     inkscape:window-height="1000"
     inkscape:window-x="65"
     inkscape:window-y="24"
     inkscape:window-maximized="1" />
  <metadata
     id="metadata7">
    <rdf:RDF>
      <cc:Work
         rdf:about="">
        <dc:format>image/svg+xml</dc:format>
        <dc:type
           rdf:resource="http://purl.org/dc/dcmitype/StillImage" />
        <dc:title></dc:title>
      </cc:Work>
    </rdf:RDF>
  </metadata>
  <g
     inkscape:label="Calque 1"
     inkscape:groupmode="layer"
     id="layer1"
     transform="translate(0,-752.36218)">
    <path
       style="fill:#000000"
       d="m 115.60225,1028.2537 c -11.45064,-2.366 -23.237534,-19.961 -29.177016,-43.55447 -6.39744,-25.41259 -14.996837,-23.83178 -18.498427,3.40059 -4.331491,33.68668 -25.255793,48.68248 -23.441559,16.79978 3.988566,-70.09328 6.791732,-91.45272 12.298724,-93.71309 8.1164,-3.33144 13.046116,6.52335 13.119893,26.22742 0.08365,22.34107 11.380427,20.21258 18.926101,-3.56592 6.420495,-20.23274 18.564204,-32.48358 32.199454,-32.48358 9.66228,0 9.67438,-0.065 9.67438,-51.97374 l 0,-51.97371 -16.19678,0 -16.196794,0 0,19.91801 c 0,16.54645 2.056274,21.97259 12.147594,32.0557 12.25193,12.24194 16.16856,25.98687 7.40493,25.98687 -2.60846,0 -8.00583,-3.15878 -11.9942,-7.01952 -6.710294,-6.49559 -8.481249,-6.33396 -23.726391,2.16557 -9.061177,5.0518 -17.329816,9.1851 -18.374763,9.1851 -5.415076,0 -0.65959,-15.48523 8.223082,-26.77673 8.014757,-10.18821 10.122965,-17.65486 10.122965,-35.85201 0,-19.92343 -1.16697,-23.3103 -8.764271,-25.43532 -7.455127,-2.08531 -7.975315,-3.46838 -3.482471,-9.25886 7.708442,-9.93483 160.042389,-7.99525 160.042389,2.03775 0,4.1427 -4.6973,6.98281 -12.96378,7.83829 -8.61661,0.89165 -13.80674,4.18232 -15.47752,9.81308 -3.92375,13.22337 5.1315,36.20265 18.40128,46.69653 6.63554,5.24747 12.06462,13.38055 12.06462,18.07351 0,11.30952 -3.13213,10.6728 -21.7894,-4.42963 -16.3345,-13.22221 -23.27871,-12.84258 -34.71586,1.89791 -5.59062,7.20536 -16.38026,9.17985 -16.38026,2.99758 0,-2.05456 5.46642,-11.09315 12.14759,-20.08567 8.83518,-11.89176 12.14758,-20.98306 12.14758,-33.3406 0,-16.98496 -0.004,-16.99003 -15.18448,-15.64624 l -15.18448,1.34425 -1.14296,48.50287 -1.14298,48.50291 15.31516,2.92315 c 19.59563,3.74016 32.0761,15.98945 35.3583,34.70332 2.07541,11.83313 4.4908,14.7922 12.07425,14.7922 8.43589,0 9.86498,-2.74269 12.97641,-24.90406 2.46926,-17.58731 5.28101,-24.90408 9.57033,-24.90408 5.03149,0 6.11917,8.54742 6.33832,49.80814 0.16643,31.35995 2.15672,53.543 5.37329,59.8917 6.3335,12.5008 3.19739,22.4 -7.09635,22.4 -8.589,0 -10.60038,-5.991 -14.90467,-44.39419 -2.52424,-22.52142 -3.71514,-24.90408 -12.44773,-24.90408 -8.78087,0 -9.65642,1.81238 -9.65642,19.98879 0,17.51347 -1.85301,21.80428 -14.96345,34.64918 -13.77573,13.4966 -16.90952,14.6135 -39.47965,14.0705 -13.48391,-0.3244 -28.5787,-1.4292 -33.54398,-2.4552 z m 19.15075,-38.10082 0,-23.8213 -16.19678,0 c -15.6682,0 -16.19678,0.47278 -16.19678,14.48772 0,15.20989 8.2944,26.3978 22.27057,30.0397 4.4541,1.1607 8.55393,2.3364 9.11069,2.6127 0.55676,0.2764 1.0123,-10.2171 1.0123,-23.31882 z m 45.95213,15.38232 c 2.02873,-2.1701 3.9078,-11.39135 4.17573,-20.49178 0.48469,-16.46432 0.40167,-16.55286 -16.722,-17.87809 l -17.20907,-1.33183 0,24.61172 0,24.61168 13.03333,-2.7881 c 7.16838,-1.5335 14.69324,-4.5637 16.72201,-6.7336 z m -46.71999,-68.43885 c -0.99103,-12.80808 -3.10018,-16.52278 -9.97643,-17.57101 -9.55132,-1.45599 -21.64927,13.13702 -21.64927,26.11424 0,6.11332 3.38548,7.69857 16.44122,7.69857 l 16.4412,0 -1.25672,-16.2418 z m 51.81603,5.0597 c -1.35179,-3.76801 -2.45783,-8.50135 -2.45783,-10.51849 0,-7.34518 -12.97018,-17.2797 -22.5598,-17.2797 -8.77324,0 -9.83375,1.86833 -9.83375,17.32457 l 0,17.32457 18.6546,0 c 15.34696,0 18.21882,-1.21476 16.19678,-6.85095 z"
       id="path2996"
       inkscape:connector-curvature="0" />
  </g>
</svg>
