<?xml version="1.0" encoding="UTF-8" standalone="no"?>
<!-- Created with Inkscape (http://www.inkscape.org/) -->

<svg
   xmlns:dc="http://purl.org/dc/elements/1.1/"
   xmlns:cc="http://creativecommons.org/ns#"
   xmlns:rdf="http://www.w3.org/1999/02/22-rdf-syntax-ns#"
   xmlns:svg="http://www.w3.org/2000/svg"
   xmlns="http://www.w3.org/2000/svg"
   xmlns:sodipodi="http://sodipodi.sourceforge.net/DTD/sodipodi-0.dtd"
   xmlns:inkscape="http://www.inkscape.org/namespaces/inkscape"
   width="300"
   height="300"
   id="svg2"
   version="1.1"
   inkscape:version="0.48.3.1 r9886"
   sodipodi:docname="車-.svg">
  <defs
     id="defs4" />
  <sodipodi:namedview
     id="base"
     pagecolor="#ffffff"
     bordercolor="#666666"
     borderopacity="1.0"
     inkscape:pageopacity="0.0"
     inkscape:pageshadow="2"
     inkscape:zoom="1.979899"
     inkscape:cx="156.04211"
     inkscape:cy="154.56777"
     inkscape:document-units="px"
     inkscape:current-layer="layer1"
     showgrid="false"
     inkscape:window-width="1215"
     inkscape:window-height="1000"
     inkscape:window-x="65"
     inkscape:window-y="24"
     inkscape:window-maximized="1" />
  <metadata
     id="metadata7">
    <rdf:RDF>
      <cc:Work
         rdf:about="">
        <dc:format>image/svg+xml</dc:format>
        <dc:type
           rdf:resource="http://purl.org/dc/dcmitype/StillImage" />
        <dc:title></dc:title>
      </cc:Work>
    </rdf:RDF>
  </metadata>
  <g
     inkscape:label="Calque 1"
     inkscape:groupmode="layer"
     id="layer1"
     transform="translate(0,-752.36218)">
    <path
       style="fill:#000000"
       d="m 147.82975,1038.1711 c -1.01247,-2.3461 -2.51837,-9.7501 -3.34648,-16.4533 -1.47662,-11.953 -1.77497,-17.4755 -2.46907,-45.70385 -0.3146,-12.79439 -0.73012,-14.01315 -4.76741,-13.98268 -8.67089,0.0659 -12.56738,2.85118 -16.33164,11.67653 -4.77111,11.18585 -11.18793,18.36636 -22.319377,24.97598 -7.159601,4.25122 -9.435265,4.64592 -13.030654,2.25982 -4.335877,-1.09491 -5.440221,-0.1361 -10.419389,0.055 -3.772001,0 -10.737068,-14.73052 -12.96629,-27.42228 -1.826665,-10.40024 -4.395137,-7.93907 -5.843357,5.59902 -2.281879,21.33086 -12.950159,17.84053 -12.950159,-4.23693 0,-7.29725 -0.826682,-10.50285 -2.708454,-10.50285 -1.48965,0 -6.028817,-1.72042 -10.087038,-3.82304 -8.903787,-4.61328 -6.907802,-8.96014 4.361916,-9.49907 l 7.450739,-0.35637 -0.325667,-23.62997 c -0.360389,-26.1494 2.090569,-30.68924 8.09595,-14.9959 3.463812,9.05173 7.205669,32.71289 5.669542,35.85098 -0.492229,1.00547 0.945302,1.82815 3.194522,1.82815 2.576066,0 4.966906,-2.48093 6.460381,-6.70323 3.397412,-9.6056 13.761849,-22.0324 21.887252,-26.24228 9.596381,-4.97218 17.435423,-4.5314 23.431673,1.31749 5.08893,4.9638 11.19609,17.61169 11.19609,23.18682 0,3.66777 7.32091,5.6156 15.50667,4.12578 l 6.0799,-1.10665 -0.58033,-64.9306 -0.5803,-64.9307 -6.77304,0.32831 c -12.37785,0.6 -30.29271,3.68963 -35.50392,6.12306 -2.828567,1.32083 -6.366774,5.3456 -7.862699,8.94396 -5.0171,12.06834 -7.162734,13.39853 -21.197561,13.14174 -15.305853,-0.28008 -33.327421,-7.63351 -37.097089,-15.13694 -3.693447,-7.35173 0.665885,-8.44598 19.315222,-4.84843 13.910406,2.68339 16.731807,2.55298 24.515291,-1.13311 4.837651,-2.29102 8.795755,-5.47069 8.795755,-7.06588 0,-6.9718 15.665041,-12.96365 41.279121,-15.7892 l 14.74255,-1.62627 1.78417,-16.45337 c 0.9813,-9.04935 2.42095,-16.45337 3.19924,-16.45337 2.9993,0 6.41525,7.78442 6.26631,14.28004 -0.25646,11.18529 7.5735,20.88059 17.84521,22.09651 0.86652,0.10262 7.3033,7.01601 14.30392,15.36319 10.97838,13.09005 14.27515,15.58204 23.97823,18.12502 6.18742,1.62158 15.23032,3.03555 20.09536,3.14216 11.30789,0.24778 15.477,3.14756 11.99833,8.34529 -3.75023,5.60349 -19.15127,7.55627 -32.54284,4.12632 -15.35882,-3.93384 -19.29486,-6.74949 -34.30539,-24.54031 -10.46314,-12.40116 -13.02844,-14.37325 -15.19772,-11.68326 -4.0608,5.03563 -4.66215,128.07372 -0.64142,131.24374 1.58033,1.24582 4.05135,1.72845 5.49119,1.07227 1.43981,-0.65643 4.29777,-1.19318 6.351,-1.19318 2.44521,0 4.18399,-2.31274 5.04006,-6.70322 1.28236,-6.57721 6.90913,-18.08628 12.04969,-24.64642 4.70727,-6.00731 21.94715,-12.52611 33.12685,-12.52611 9.75329,0 11.62339,0.84841 16.68713,7.57038 4.47755,5.94391 5.70283,9.8408 5.70283,18.13768 0,5.81207 -0.86643,11.23119 -1.92541,12.0429 -2.76003,2.11529 2.13321,10.99987 6.05822,10.99987 3.3024,0 7.66122,-19.74868 7.66122,-34.71077 0,-5.4332 0.80198,-6.89479 3.43993,-6.26936 2.90922,0.68972 3.52749,4.09824 4.00762,22.09385 0.53717,20.13502 0.81996,21.35672 5.26336,22.73978 4.83577,1.50493 7.8037,7.07836 5.85336,10.99158 -0.60788,1.21974 -4.24485,2.21767 -8.08218,2.21767 -6.36791,0 -6.87436,0.50652 -5.80204,5.80475 1.24526,6.15259 -2.03802,21.00817 -4.64307,21.00817 -0.84928,0 -2.00675,2.19375 -2.5722,4.87508 -0.56545,2.68121 -2.12523,4.87511 -3.46621,4.87511 -1.83545,0 -2.12864,-4.54022 -1.18609,-18.36739 1.06579,-15.6346 0.77652,-18.59352 -1.94442,-19.8881 -4.49939,-2.14113 -9.08675,2.11188 -10.78843,10.00218 -1.78293,8.26691 -13.4034,20.92109 -23.03199,25.08101 -8.47173,3.6602 -18.40638,4.0892 -21.03028,0.9085 -1.02706,-1.24512 -4.96332,-2.61622 -8.74725,-3.04697 l -6.87986,-0.78314 -1.77777,-18.8909 -1.77775,-18.89091 -9.65731,0 c -8.59302,0 -9.5267,0.51018 -8.47207,4.63084 0.65187,2.54697 1.54804,17.3633 1.99145,32.9255 0.60247,21.14368 0.0814,30.44628 -2.062,36.80728 -3.27467,9.719 -3.93545,10.1517 -6.48363,4.2469 z m 49.95435,-60.08573 c 2.02267,-13.36989 0.64035,-17.21437 -6.4974,-18.06995 -6.2282,-0.74661 -6.37233,-0.54284 -6.37233,9.00256 0,7.32894 1.09026,10.71321 4.36872,13.56099 6.16209,5.3521 7.08535,4.8641 8.50101,-4.4936 z m 22.26173,2.35491 c 12.55957,-8.05387 11.73502,-15.93126 -1.75037,-16.72248 -7.61934,-0.44705 -8.67583,0.15601 -9.79184,5.59293 -2.80702,13.6736 1.33968,17.67189 11.54221,11.12955 z M 82.699378,968.84467 c 0,-2.78415 -1.448916,-4.40901 -3.931351,-4.40901 -4.08326,0 -5.140772,5.44301 -2.632358,13.54904 1.212478,3.9181 1.474187,3.9003 3.931338,-0.26666 1.447794,-2.45534 2.632371,-6.44826 2.632371,-8.87337 z m 22.328372,3.28288 c 4.40366,-6.03413 2.82621,-10.16405 -3.16502,-8.28642 -5.368509,1.68264 -7.299495,4.90774 -7.339219,12.25838 -0.02463,4.56721 0.593416,5.15661 3.431823,3.27288 1.904052,-1.26362 5.086636,-4.52383 7.072416,-7.24484 z M 86.734379,943.3785 c 1.084601,-3.53759 1.510417,-7.00425 0.94623,-7.70407 -1.536114,-1.9047 -8.912582,7.08128 -8.912582,10.85727 0,5.82548 5.933573,3.4769 7.966352,-3.1532 z m 23.046271,-2.09944 c 0.69752,-9.36453 -8.48614,-23.98829 -11.434235,-18.20791 -2.698952,5.29213 -2.274116,9.67653 0.937605,9.67653 2.14397,0 2.54898,2.10847 1.68021,8.7471 -1.066216,8.1477 -0.82189,8.69079 3.56352,7.92199 3.61723,-0.634 4.83442,-2.51968 5.2529,-8.13771 z m 118.53929,6.09384 c 2.03058,0 2.39435,-17.74161 0.5398,-26.32783 -1.04416,-4.83413 -2.05829,-5.3833 -7.34444,-3.97709 -10.99763,2.92505 -12.14583,4.56575 -11.3944,16.28153 0.57971,9.03862 1.54387,11.21315 5.9254,13.36306 2.87815,1.41256 6.41104,2.1387 7.85087,1.61413 1.43982,-0.52455 3.43006,-0.9538 4.42277,-0.9538 z m -26.94307,-10.05484 c 2.16348,-13.41425 0.89503,-14.63569 -9.17542,-8.83607 -3.85767,2.22157 -5.29489,4.8624 -5.30608,9.75015 -0.0138,5.99219 0.6883,6.70322 6.61881,6.70322 5.85771,0 6.77794,-0.89164 7.86269,-7.6173 z"
       id="path3065"
       inkscape:connector-curvature="0"
       sodipodi:nodetypes="ssscssccsssssscsscsccssccccssssssssscssscsssssssccscsssscssssccsssssscsscscccssscsssscssscsssscssccssscssscsscssscscsssccss" />
  </g>
</svg>
