<?xml version="1.0" encoding="UTF-8" standalone="no"?>
<!-- Created with Inkscape (http://www.inkscape.org/) -->

<svg
   xmlns:dc="http://purl.org/dc/elements/1.1/"
   xmlns:cc="http://creativecommons.org/ns#"
   xmlns:rdf="http://www.w3.org/1999/02/22-rdf-syntax-ns#"
   xmlns:svg="http://www.w3.org/2000/svg"
   xmlns="http://www.w3.org/2000/svg"
   version="1.1"
   width="300"
   height="300"
   id="svg2">
  <defs
     id="defs4" />
  <metadata
     id="metadata7">
    <rdf:RDF>
      <cc:Work
         rdf:about="">
        <dc:format>image/svg+xml</dc:format>
        <dc:type
           rdf:resource="http://purl.org/dc/dcmitype/StillImage" />
        <dc:title></dc:title>
      </cc:Work>
    </rdf:RDF>
  </metadata>
  <g
     transform="translate(0,-752.36218)"
     id="layer1">
    <g
       transform="translate(-87.857142,-25.000006)"
       id="g3011"
       style="fill:#ff0000">
      <path
         d="M 235.09562,1056.9854 C 234.02129,1054.028 233.05604,1043.0056 232.95063,1032.4909 232.8452,1021.9762 232.57636,1009.2512 232.3532,1004.2134 232.10852,993.23223 233.0805,994.60587 199.34146,996.23937 163.85852,997.52997 160.25625,997.02477 160.25625,990.75841 160.25625,987.32325 163.24223,986.30036 177.0041,985.02129 186.21543,984.1652 199.5721,984.14876 206.68561,984.98487 213.79912,985.82089 222.39309,985.80875 225.78335,984.95782 231.07869,983.62886 231.94745,982.10929 231.94745,974.17619 231.94745,964.47073 228.80094,962.10562 215.7845,962.0271 210.45748,961.99497 202.47397,958.37046 197.15913,953.57121 194.31827,951.00595 191.34326,939.00474 186.36526,910.02869 183.05685,890.77101 185.3589,877.55033 193.26667,870.39389 195.67304,868.21616 204.55411,865.04124 213.00239,863.3385 226.57465,860.60304 229.48356,863.33674 228.98194,854.36301 228.22438,840.81082 227.54288,841.38766 195.03403,842.10794 166.64616,842.73691 165.03566,842.52212 165.03566,838.10717 165.03566,833.77549 167.1584,833.38143 194.7093,832.59859 211.0298,832.13486 225.0006,831.13713 225.75553,830.3814 226.51044,829.62568 228.55624,822.21759 229.04999,812.4586 228.91509,797.08543 231.30199,789.94016 241.02704,793.0942 245.08779,794.41117 244.8499,802.58074 244.36745,811.56923 243.27212,835.75155 242.03493,830.25965 275.14491,829.49203 302.28586,829.38321 307.00476,829.92868 309.23967,833.4331 310.66633,835.67015 310.97384,838.35857 309.92304,839.40737 307.88719,841.43933 262.88028,840.38255 255.67866,840.352 247.15426,840.31584 243.74086,838.19301 245.48936,852.86604 247.00472,866.33844 248.75139,861.63296 262.72889,861.67991 280.02816,861.73802 284.43573,864.02481 293.93997,877.8732 298.97036,885.20284 299.26408,887.58115 298.12813,911.78539 296.79005,940.29601 293.29408,949.83703 282.32411,954.91689 278.93221,956.48757 274.28972,958.72258 272.00746,959.88357 269.72521,961.04456 265.93185,961.99447 263.57779,961.99447 255.09896,961.99447 248.35399,969.07855 249.13854,977.15973 248.41734,991.58391 253.041,985.37946 282.1313,984.69667 313.76779,984.69667 314.40712,984.80077 315.15597,990.07352 316.02067,996.16197 317.87572,995.91557 274.56589,995.46367 244.31733,995.14787 244.8503,994.56377 247.40503,1025.233 249.44696,1049.7461 247.40697,1062.3622 241.40136,1062.3622 239.00752,1062.3622 236.16995,1059.9426 235.09562,1056.9854 z M 233.84442,930.33085 C 233.43713,915.88426 234.22067,909.11838 221.32947,910.8313 210.5632,912.26187 199.43452,908.54194 197.25968,914.31697 195.06625,921.22784 203.07989,942.02206 209.05369,944.92071 211.78772,946.24733 218.64207,947.40554 224.28559,947.49449 239.99132,948.45275 234.49186,946.30684 233.84442,930.33085 z M 263.98223,944.29201 C 270.91868,943.40365 279.71613,930.87057 279.72972,921.85769 280.98368,913.29452 276.66454,915.5759 264.14678,913.61714 245.46866,910.69442 247.00356,914.05199 246.72589,925.95718 245.55814,942.30068 247.96976,948.83881 254.3313,946.85743 257.22896,945.95493 261.47799,944.61271 263.98223,944.29201 z M 229.56107,897.34826 C 230.89316,896.01615 230.73161,889.95093 231.17597,885.16989 231.98285,876.48806 231.45976,875.96502 221.92226,875.96502 209.10788,875.96502 198.32086,880.79677 198.49155,892.65655 198.54543,896.40015 199.25761,899.71915 200.81976,900.23987 205.19653,901.6988 226.84118,900.06815 229.56107,897.34826 z M 273.17694,897.30656 C 279.48361,894.51285 278.78571,892.82608 278.78571,886.75601 278.78571,879.82996 277.85111,878.57405 271.79581,877.363 267.95137,876.5941 260.57704,875.96502 255.4084,875.96502 243.24098,875.80266 245.89613,874.38072 246.74571,886.10981 246.21071,898.12127 248.21203,896.40979 254.64966,897.77561 265.59694,900.09819 267.10682,899.99548 273.17694,897.30656 z"
         id="path3015"
         style="fill:#000000;fill-opacity:1" />
    </g>
  </g>
</svg>
