<?xml version="1.0" encoding="UTF-8" standalone="no"?>
<!-- Created with Inkscape (http://www.inkscape.org/) -->

<svg
   xmlns:dc="http://purl.org/dc/elements/1.1/"
   xmlns:cc="http://creativecommons.org/ns#"
   xmlns:rdf="http://www.w3.org/1999/02/22-rdf-syntax-ns#"
   xmlns:svg="http://www.w3.org/2000/svg"
   xmlns="http://www.w3.org/2000/svg"
   xmlns:sodipodi="http://sodipodi.sourceforge.net/DTD/sodipodi-0.dtd"
   xmlns:inkscape="http://www.inkscape.org/namespaces/inkscape"
   width="300"
   height="300"
   id="svg2"
   version="1.1"
   inkscape:version="0.48.3.1 r9886"
   sodipodi:docname="車-.svg">
  <defs
     id="defs4" />
  <sodipodi:namedview
     id="base"
     pagecolor="#ffffff"
     bordercolor="#666666"
     borderopacity="1.0"
     inkscape:pageopacity="0.0"
     inkscape:pageshadow="2"
     inkscape:zoom="1.979899"
     inkscape:cx="156.04211"
     inkscape:cy="154.56777"
     inkscape:document-units="px"
     inkscape:current-layer="layer1"
     showgrid="false"
     inkscape:window-width="1215"
     inkscape:window-height="1000"
     inkscape:window-x="65"
     inkscape:window-y="24"
     inkscape:window-maximized="1" />
  <metadata
     id="metadata7">
    <rdf:RDF>
      <cc:Work
         rdf:about="">
        <dc:format>image/svg+xml</dc:format>
        <dc:type
           rdf:resource="http://purl.org/dc/dcmitype/StillImage" />
        <dc:title></dc:title>
      </cc:Work>
    </rdf:RDF>
  </metadata>
  <g
     inkscape:label="Calque 1"
     inkscape:groupmode="layer"
     id="layer1"
     transform="translate(0,-752.36218)">
    <path
       style="fill:#000000"
       d="m 139.16418,1006.9466 c -1.97744,-0.8265 -5.48288,-2.2122 -7.78987,-3.0792 -4.49659,-1.6899 -13.18285,-11.29745 -13.18285,-14.581 0,-1.09449 -0.42745,-1.98997 -0.94988,-1.98997 -0.52244,0 -1.59896,-3.10683 -2.39228,-6.90407 -1.40242,-6.71264 -1.57429,-6.90407 -6.1986,-6.90407 -3.66522,0 -5.07796,0.76967 -6.15892,3.35539 -1.78477,4.2693 -3.300291,6.73511 -7.236689,11.77447 -7.33713,9.39294 -11.92681,11.57405 -22.346522,10.61967 -14.769339,-1.35284 -23.036094,-10.09298 -24.088437,-25.46787 -0.0869,-1.26962 -1.362204,-1.83941 -3.433952,-1.53423 -2.801335,0.41262 -3.355345,1.29005 -3.693241,5.84913 -0.417095,5.62766 -2.232644,9.68218 -3.785404,8.45364 -0.503386,-0.39828 -1.528641,-3.8427 -2.278345,-7.65429 -1.198452,-6.09305 -1.759096,-6.93298 -4.641555,-6.95363 -7.112508,-0.0509 -7.525312,-4.88129 -0.581965,-6.80973 3.338137,-0.92713 3.894933,-1.73798 3.894933,-5.67216 0,-5.98187 2.734664,-9.84881 4.757903,-6.72789 0.770335,1.18828 1.80329,4.10325 2.295457,6.47774 0.630006,3.03949 1.764775,4.45077 3.834147,4.76845 2.58745,0.3972 3.125333,-0.42923 4.493438,-6.90406 2.166591,-10.25382 2.713932,-11.28404 9.141564,-17.20632 5.343875,-4.92375 6.262599,-5.2404 14.855252,-5.12004 5.399359,0.0756 10.950716,1.1079 13.523696,2.51471 5.973796,3.26627 13.4926,13.4583 15.40719,20.88507 1.46306,5.67524 1.91904,6.14654 5.94672,6.14654 4.35171,0 4.36561,-0.0213 5.80039,-8.91422 0.79101,-4.90281 1.43822,-10.3343 1.43822,-12.07 0,-3.89636 8.39318,-11.35171 13.66224,-12.13564 4.82077,-0.71726 12.05545,-3.00802 13.76054,-4.3571 1.8956,-1.49981 1.80808,-33.41895 -0.0984,-35.85953 -0.79097,-1.0126 -3.08299,-1.84494 -5.09337,-1.84965 -6.25616,-0.0153 -13.01038,-3.19552 -17.95877,-8.45763 l -4.75358,-5.05495 -3.6543,4.88962 c -6.75356,9.03661 -16.849907,12.81511 -23.496339,8.79336 -4.340489,-2.62642 -6.839825,-8.70313 -5.465429,-13.28829 0.744591,-2.48405 1.012406,-2.39146 2.809061,0.97116 2.76388,5.17289 3.921034,5.96838 8.716343,5.9921 3.698353,0.0183 4.619853,-0.83424 7.789874,-7.20702 5.002,-10.05567 6.27125,-14.26687 7.21523,-23.9392 0.93253,-9.55503 1.59909,-8.98524 -12.90782,-11.03383 -3.790081,-0.53522 -6.891035,-1.36512 -6.891035,-1.84425 0,-2.97028 5.11153,-4.95258 12.883235,-4.99622 l 8.6887,-0.0489 0,-20.71219 c 0,-11.39171 0.47386,-20.71219 1.05303,-20.71219 1.92047,0 5.18141,13.28978 7.44883,30.35717 l 1.48517,11.17921 10.2866,-0.43955 10.28661,-0.43956 0.12313,-7.81727 c 0.16019,-10.17031 1.34154,-15.9634 3.25533,-15.9634 2.89735,0 4.4114,3.69067 4.4114,10.75326 0,11.43607 1.0893,12.27771 14.51361,11.21367 l 11.51753,-0.9129 1.57943,-13.21194 c 1.73563,-14.51855 4.16187,-23.92634 5.18782,-20.11598 0.3408,1.26575 1.54381,5.75339 2.67334,9.97254 1.13956,4.25661 1.93992,11.25646 1.79807,15.72592 l -0.25561,8.05475 8.81735,0 c 8.69239,0 11.69362,1.45694 11.69362,5.67666 0,1.46806 -2.4968,1.99451 -9.4593,1.99451 -11.22945,0 -11.37937,0.23505 -10.21599,16.0184 1.09663,14.87787 2.22316,16.20056 13.79809,16.20056 9.24236,0 12.02895,1.29347 9.15972,4.25171 -2.85715,2.94577 -17.66381,5.68415 -17.66381,3.26679 0,-0.75985 -0.78359,-1.38155 -1.74127,-1.38155 -3.38114,0 -7.47507,-3.38403 -9.55987,-7.90217 l -2.10973,-4.5722 -2.79803,4.85516 c -4.35318,7.55362 -11.35889,14.90777 -15.11851,15.87037 -1.87942,0.4812 -4.83156,2.06138 -6.56031,3.51148 -3.14253,2.63598 -3.14309,2.64038 -2.62382,20.00763 0.28566,9.5541 1.02367,18.01557 1.64002,18.80328 0.61636,0.78769 4.89573,2.32862 9.50972,3.42426 7.56097,1.79541 8.95104,2.72205 14.08168,9.38683 3.13093,4.06712 5.6926,8.35186 5.6926,9.52166 0,1.1698 0.62584,3.88541 1.3908,6.03469 1.41361,3.97185 4.558,4.91077 10.08391,3.01108 2.27446,-0.7819 5.30344,-8.04573 5.30344,-12.71819 0,-3.36695 5.65506,-12.65787 10.01062,-16.44682 2.33393,-2.03032 5.85819,-3.6915 7.83169,-3.6915 1.9735,0 3.86263,-0.5685 4.19807,-1.26334 0.33545,-0.69482 2.38963,-1.13992 4.56488,-0.98907 17.32974,1.20174 26.27876,8.17551 28.97689,22.58104 0.67445,3.60092 1.40152,4.21916 4.96194,4.21916 3.93991,0 4.17173,-0.28795 4.17173,-5.18199 0,-2.85006 0.74058,-5.9688 1.64576,-6.93052 2.65558,-2.82147 5.54488,-0.35225 5.54488,4.73874 0,3.68548 0.70716,4.91355 3.64767,6.33445 2.9117,1.407 3.57665,2.54091 3.29571,5.62011 -0.25866,2.83486 -1.03931,3.82899 -2.94471,3.74995 -2.14934,-0.0892 -2.7228,1.00274 -3.35321,6.38462 -0.62946,5.37358 -2.31491,8.29817 -4.78227,8.29817 -0.19,0 -1.02492,-3.10682 -1.85539,-6.90405 -1.307,-5.97611 -1.94003,-6.90407 -4.70983,-6.90407 -3.68319,0 -6.07614,2.50321 -6.07614,6.3561 0,3.41486 -4.40288,13.37131 -7.81074,17.66286 -5.19469,6.54169 -11.38644,9.26156 -20.35262,8.94037 -8.2677,-0.29619 -10.26021,-0.8283 -16.17895,-4.32074 -4.36803,-2.57742 -10.07655,-10.24791 -11.89344,-15.98114 -1.47149,-4.64325 -1.9724,-4.98627 -7.28123,-4.98627 -5.56943,0 -5.72953,0.13287 -6.93558,5.75339 -1.55411,7.24268 -4.2358,16.25376 -5.13662,17.26016 -0.37765,0.42191 -0.98647,1.81391 -1.35292,3.09334 -0.36646,1.27943 -1.94502,3.07702 -3.50791,3.99466 -11.21938,6.5873 -14.56886,8.2544 -16.58503,8.2544 -1.26175,0 -2.6274,0.6904 -3.03476,1.5342 -0.92152,1.9088 -10.75253,1.7227 -15.57973,-0.2949 z m 5.39298,-22.71865 0,-12.27389 -6.89104,0.0169 c -3.79008,0.009 -8.90626,0.44333 -11.36932,0.96457 -4.0841,0.86426 -4.41872,1.30164 -3.80169,4.96936 1.80152,10.7086 9.21999,18.55549 17.5679,18.58244 l 4.49415,0.0138 0,-12.27389 z m 18.03349,7.50858 c 7.06518,-4.82083 13.12597,-13.5505 13.12597,-18.90604 0,-2.31128 -0.6473,-2.6285 -3.74513,-1.83532 -2.05982,0.52739 -7.09834,0.95889 -11.1967,0.95889 l -7.45155,0 0.38818,11.89033 c 0.21352,6.53969 0.39833,12.06293 0.41073,12.27389 0.0603,1.0263 2.05629,-0.006 8.4685,-4.38175 z m -89.939937,-10.57705 0,-9.20542 -7.689999,0 c -8.517607,0 -9.738111,1.35181 -7.150028,7.91927 2.283583,5.79477 7.389884,10.49156 11.406314,10.49156 3.397795,0 3.433713,-0.0963 3.433713,-9.20541 z m 17.353566,2.18602 c 2.480364,-4.19702 2.426578,-12.01699 -0.07418,-10.78847 -1.042631,0.51221 -3.739123,0.93126 -5.992204,0.93126 l -4.096522,0 0,8.25751 0,8.25751 4.208828,-1.85234 c 2.31486,-1.01881 4.994202,-3.18126 5.954094,-4.80547 z m 133.649971,-8.32296 0,-9.20543 -7.69185,0 c -7.89234,0 -12.45556,1.23784 -10.68486,2.89842 0.54963,0.51544 1.8911,3.0084 2.9811,5.53989 2.13113,4.94963 8.32716,9.77935 12.69912,9.89884 2.50314,0.0685 2.69649,-0.58635 2.69649,-9.13172 z m 14.49752,4.46831 c 1.58394,-1.7616 3.58972,-3.71325 4.45731,-4.33703 0.86761,-0.62379 2.02995,-3.70263 2.58302,-6.8419 l 1.00555,-5.70774 -6.77755,0.45579 -6.77755,0.45579 -0.35681,9.58898 c -0.39874,10.71645 0.79948,12.02092 5.86603,6.38611 z M 89.129273,964.8501 c 2.137623,-0.73336 2.696492,-2.02541 2.696492,-6.234 0,-6.63565 -5.729865,-14.75702 -9.879335,-14.00276 -2.404371,0.43706 -2.771238,1.56865 -3.307828,10.20289 -0.331944,5.34123 -0.376886,10.00147 -0.09983,10.35609 0.742062,0.94999 7.479864,0.74499 10.590537,-0.32222 z m -18.193721,-8.53382 c -0.454029,-4.38162 -1.06334,-8.45926 -1.354034,-9.06139 -1.70169,-3.52488 -12.510541,7.0009 -12.510541,12.18292 0,4.23469 1.025989,4.84507 8.143998,4.84507 l 6.546087,0 -0.82551,-7.9666 z m 72.183468,4.59128 c 0.83657,-1.07096 1.43814,-6.20512 1.43814,-12.27389 l 0,-10.4328 -4.21081,0 c -8.16717,0 -15.14201,8.18997 -17.96579,21.09574 -0.73995,3.38189 -0.55153,3.45204 9.27252,3.45204 6.20149,0 10.57656,-0.70251 11.46594,-1.84109 z m 25.19282,-0.56396 c 6.12299,-1.07222 6.34675,-1.27597 5.61143,-5.10924 -1.26878,-6.6142 -3.95973,-10.67702 -9.23134,-13.93764 -5.64945,-3.4943 -11.25483,-4.04633 -11.96228,-1.17806 -0.26016,1.05478 -0.27786,6.40544 -0.0393,11.89033 l 0.43368,9.97254 4.40528,-0.26058 c 2.42288,-0.1433 7.27505,-0.76313 10.78256,-1.37735 z m 54.70927,-5.47843 c 0.53215,-0.68127 -1.30879,-19.66808 -1.99024,-20.5265 -0.205,-0.25827 -1.88224,-0.0983 -3.72721,0.35531 -4.73439,1.16421 -9.59111,7.97605 -11.19982,15.70848 l -1.37145,6.59197 8.88281,-0.72981 c 4.88554,-0.40139 9.1182,-1.03114 9.40591,-1.39945 z m 22.05543,-2.23011 c 1.22081,-0.50158 1.44522,-2.30086 0.86567,-6.94058 -0.86154,-6.89753 -2.06616,-8.89785 -7.06424,-11.73065 -5.00138,-2.8347 -7.65975,-2.3479 -8.47616,1.55211 -0.889,4.24674 -0.98425,17.22285 -0.13442,18.31082 0.66517,0.85153 12.06989,-0.0661 14.80915,-1.1917 z m -102.1397,-79.25568 c -0.41565,-4.4301 -0.76042,-13.40539 -0.76615,-19.94508 l -0.0108,-11.89033 -10.73167,0 -10.73167,0 -0.75717,5.75339 c -0.41645,3.16437 -0.81229,6.44379 -0.87964,7.28762 -0.24439,3.06188 1.87411,12.34683 3.49952,15.33768 2.5471,4.68685 12.52127,11.3751 17.07106,11.44714 l 4.06186,0.0643 -0.75573,-8.05475 z m 15.6523,2.65012 c 5.44839,-2.91434 13.27056,-13.26144 14.21663,-18.80562 0.39167,-2.29522 1.20683,-6.17477 1.81148,-8.62122 2.19247,-8.87093 2.03664,-9.01057 -8.78778,-7.87563 -15.30483,1.6047 -14.20477,0.17513 -13.98387,18.17248 0.17908,14.58977 0.64666,19.46614 1.86657,19.46614 0.28023,0 2.47485,-1.05128 4.87697,-2.33615 z"
       id="path3041"
       inkscape:connector-curvature="0" />
  </g>
</svg>
