<?xml version="1.0" encoding="UTF-8" standalone="no"?>
<!-- Created with Inkscape (http://www.inkscape.org/) -->

<svg
   xmlns:dc="http://purl.org/dc/elements/1.1/"
   xmlns:cc="http://creativecommons.org/ns#"
   xmlns:rdf="http://www.w3.org/1999/02/22-rdf-syntax-ns#"
   xmlns:svg="http://www.w3.org/2000/svg"
   xmlns="http://www.w3.org/2000/svg"
   xmlns:sodipodi="http://sodipodi.sourceforge.net/DTD/sodipodi-0.dtd"
   xmlns:inkscape="http://www.inkscape.org/namespaces/inkscape"
   width="300"
   height="300"
   id="svg2"
   version="1.1"
   inkscape:version="0.47 r22583"
   sodipodi:docname="Nouveau document 1">
  <defs
     id="defs4">
    <inkscape:perspective
       sodipodi:type="inkscape:persp3d"
       inkscape:vp_x="0 : 526.18109 : 1"
       inkscape:vp_y="0 : 1000 : 0"
       inkscape:vp_z="744.09448 : 526.18109 : 1"
       inkscape:persp3d-origin="372.04724 : 350.78739 : 1"
       id="perspective10" />
    <inkscape:perspective
       id="perspective2824"
       inkscape:persp3d-origin="0.5 : 0.33333333 : 1"
       inkscape:vp_z="1 : 0.5 : 1"
       inkscape:vp_y="0 : 1000 : 0"
       inkscape:vp_x="0 : 0.5 : 1"
       sodipodi:type="inkscape:persp3d" />
  </defs>
  <sodipodi:namedview
     id="base"
     pagecolor="#ffffff"
     bordercolor="#666666"
     borderopacity="1.0"
     inkscape:pageopacity="0.0"
     inkscape:pageshadow="2"
     inkscape:zoom="1.979899"
     inkscape:cx="144.32638"
     inkscape:cy="156.00356"
     inkscape:document-units="px"
     inkscape:current-layer="layer1"
     showgrid="false"
     inkscape:window-width="1280"
     inkscape:window-height="950"
     inkscape:window-x="0"
     inkscape:window-y="25"
     inkscape:window-maximized="1" />
  <metadata
     id="metadata7">
    <rdf:RDF>
      <cc:Work
         rdf:about="">
        <dc:format>image/svg+xml</dc:format>
        <dc:type
           rdf:resource="http://purl.org/dc/dcmitype/StillImage" />
        <dc:title></dc:title>
      </cc:Work>
    </rdf:RDF>
  </metadata>
  <g
     inkscape:label="Calque 1"
     inkscape:groupmode="layer"
     id="layer1"
     transform="translate(0,-752.36218)">
    <path
       style="fill:#000000"
       d="m 230.19537,1033.3165 c -4.87354,-4.9806 -15.00825,-33.62579 -15.03661,-42.5003 -0.0121,-3.89066 -1.35959,-9.1927 -2.99362,-11.78231 -1.63405,-2.58961 -4.54774,-18.89845 -6.4749,-36.24183 -3.88538,-34.9671 -3.64588,-34.65328 -26.9463,-35.30702 l -11.21466,-0.31467 0.84745,21.49322 0.84741,21.49323 12.75011,0.77921 c 13.70757,0.83772 18.58662,5.48772 12.39611,11.81417 -7.08506,7.2407 -66.08039,3.27303 -75.98153,-5.11006 -7.1375,-6.04314 -10.46538,-23.15136 -9.44211,-48.54046 1.05061,-26.06661 3.76117,-31.90838 13.35633,-28.78546 3.03389,0.98741 3.97117,8.87942 3.97117,33.43756 l 0,32.14509 9.43972,2.79102 c 6.10593,1.80531 10.4556,1.9294 12.31623,0.35132 4.86565,-4.12685 2.46595,-73.71306 -2.79086,-80.92714 -0.83145,-1.14108 -11.77017,-1.83841 -24.30824,-1.54967 -12.53805,0.28875 -24.795841,-0.002 -27.239538,-0.64905 -3.671627,-0.97019 -4.573163,2.53376 -5.192261,20.18034 -1.832353,52.23007 -6.437631,92.96286 -13.633867,120.58941 -5.750232,22.0753 -7.493549,25.1228 -14.371723,25.1228 -5.210482,0 -5.727241,-1.2566 -4.390994,-10.6772 0.832993,-5.8724 2.94929,-15.7645 4.702901,-21.98242 6.835631,-24.23752 12.917228,-121.60962 12.238939,-195.95782 -0.100377,-11.01676 9.096299,-20.1745 24.980057,-24.87403 16.193156,-4.79111 108.718006,-5.11451 115.410806,-0.40343 14.34657,10.09862 -2.4253,14.16356 -48.28382,11.70241 -34.44034,-1.84838 -61.66645,-0.0626 -69.072522,4.53053 -3.673736,2.27838 -5.039599,8.90401 -6.026611,29.23391 -0.701925,14.45829 -0.688649,28.24233 0.02956,30.6312 1.174019,3.90521 1.936748,3.9686 7.559863,0.62808 9.22177,-5.47836 118.02406,-5.45978 123.38714,0.0202 8.08371,8.26121 1.54072,11.11313 -27.23146,11.86952 l -27.53551,0.72384 -0.57039,11.39051 c -0.77706,15.51908 2.28788,19.36052 12.34589,15.47365 11.1107,-4.29366 18.45543,-3.73405 31.28997,2.38401 l 11.28934,5.38149 1.40725,32.93077 c 1.39702,32.69147 3.2242,45.8913 7.68826,55.54128 14.24109,30.7849 16.89132,44.5318 8.84783,45.8941 -2.59352,0.4392 -6.35772,-0.8797 -8.36486,-2.9309 z M 99.629671,827.06944 c -7.382261,-7.5444 1.829169,-10.93146 34.049709,-12.52018 16.29135,-0.80328 34.61912,-2.09165 40.72837,-2.86307 16.6314,-2.10001 34.35457,1.16906 38.04492,7.01747 1.73989,2.75736 2.59067,5.49916 1.89066,6.09289 -2.01643,1.7102 -24.05454,3.25453 -69.05612,4.83912 -36.0776,1.27039 -42.24243,0.92387 -45.657539,-2.56623 z"
       id="path2830" />
  </g>
</svg>
