<?xml version="1.0" encoding="UTF-8" standalone="no"?>
<!-- Created with Inkscape (http://www.inkscape.org/) -->

<svg
   xmlns:dc="http://purl.org/dc/elements/1.1/"
   xmlns:cc="http://creativecommons.org/ns#"
   xmlns:rdf="http://www.w3.org/1999/02/22-rdf-syntax-ns#"
   xmlns:svg="http://www.w3.org/2000/svg"
   xmlns="http://www.w3.org/2000/svg"
   xmlns:sodipodi="http://sodipodi.sourceforge.net/DTD/sodipodi-0.dtd"
   xmlns:inkscape="http://www.inkscape.org/namespaces/inkscape"
   width="300"
   height="300"
   id="svg2"
   version="1.1"
   inkscape:version="0.47 r22583"
   sodipodi:docname="辰-seal.svg">
  <defs
     id="defs4">
    <inkscape:perspective
       sodipodi:type="inkscape:persp3d"
       inkscape:vp_x="0 : 526.18109 : 1"
       inkscape:vp_y="0 : 1000 : 0"
       inkscape:vp_z="744.09448 : 526.18109 : 1"
       inkscape:persp3d-origin="372.04724 : 350.78739 : 1"
       id="perspective10" />
    <inkscape:perspective
       id="perspective2824"
       inkscape:persp3d-origin="0.5 : 0.33333333 : 1"
       inkscape:vp_z="1 : 0.5 : 1"
       inkscape:vp_y="0 : 1000 : 0"
       inkscape:vp_x="0 : 0.5 : 1"
       sodipodi:type="inkscape:persp3d" />
    <inkscape:perspective
       id="perspective2861"
       inkscape:persp3d-origin="0.5 : 0.33333333 : 1"
       inkscape:vp_z="1 : 0.5 : 1"
       inkscape:vp_y="0 : 1000 : 0"
       inkscape:vp_x="0 : 0.5 : 1"
       sodipodi:type="inkscape:persp3d" />
  </defs>
  <sodipodi:namedview
     id="base"
     pagecolor="#ffffff"
     bordercolor="#666666"
     borderopacity="1.0"
     inkscape:pageopacity="0.0"
     inkscape:pageshadow="2"
     inkscape:zoom="1.979899"
     inkscape:cx="144.32638"
     inkscape:cy="156.00356"
     inkscape:document-units="px"
     inkscape:current-layer="layer1"
     showgrid="false"
     inkscape:window-width="1280"
     inkscape:window-height="950"
     inkscape:window-x="0"
     inkscape:window-y="25"
     inkscape:window-maximized="1" />
  <metadata
     id="metadata7">
    <rdf:RDF>
      <cc:Work
         rdf:about="">
        <dc:format>image/svg+xml</dc:format>
        <dc:type
           rdf:resource="http://purl.org/dc/dcmitype/StillImage" />
        <dc:title></dc:title>
      </cc:Work>
    </rdf:RDF>
  </metadata>
  <g
     inkscape:label="Calque 1"
     inkscape:groupmode="layer"
     id="layer1"
     transform="translate(0,-752.36218)">
    <path
       style="fill:#000000"
       d="m 231.55578,1029.9881 c -2.05523,-5.0979 -5.12047,-36.14882 -6.81164,-69.002 -3.98472,-77.40767 -7.04612,-88.82786 -24.7014,-92.14633 -17.998,-3.38286 -14.3061,-12.54663 5.70118,-14.15105 11.2752,-0.9042 18.82671,1.37332 27.318,8.23904 11.6745,9.43955 11.70943,9.63792 6.75505,38.32531 -5.45278,31.57302 -2.70537,75.83395 6.8119,109.74003 3.30717,11.7821 5.00066,22.9614 3.76332,24.8429 -4.37161,6.6475 -15.14758,3.302 -18.83641,-5.8479 z M 57.194669,1007.9217 c -4.244129,-10.39408 2.033339,-146.00004 7.607723,-164.34192 9.127456,-30.03291 11.43991,-30.95759 76.046808,-30.40899 65.51843,0.55632 83.70176,3.14397 83.70176,11.9116 0,4.92155 -5.86701,5.95992 -29.58819,5.23652 l -29.58819,-0.90225 0,54.91465 0,54.91468 10.73753,-1.92903 c 9.30695,-1.67205 10.91305,-4.47744 12.05445,-21.05625 0.94362,-13.70554 3.18062,-19.12718 7.89207,-19.12718 4.86242,0 6.92521,5.76813 7.91911,22.14366 1.11054,18.29711 -0.35462,23.84297 -8.43509,31.92629 -8.76393,8.76708 -13.54082,9.78262 -46.0155,9.78262 -19.93002,0 -37.45551,1.85379 -38.94552,4.11953 -1.49001,2.26574 -5.55152,4.11951 -9.02556,4.11951 -9.739462,0 -7.480287,-14.01435 3.87537,-24.04015 7.8948,-6.97023 13.32846,-8.40873 24.10889,-6.38241 13.8277,2.599 13.91707,2.50709 13.91707,-14.31407 l 0,-16.92983 -25.20476,2.20988 c -24.409132,2.1401 -41.778672,-2.54123 -34.585853,-9.32139 1.933422,-1.82248 16.670393,-4.24052 32.748823,-5.37338 26.19337,-1.84554 29.37917,-3.0237 30.63424,-11.32869 1.30552,-8.63893 -0.22221,-9.26891 -22.47631,-9.26891 -15.57674,0 -25.721896,-2.0891 -29.184042,-6.00957 -6.02397,-6.82143 1.588711,-9.48034 32.725872,-11.43027 15.40956,-0.96498 17.69834,-2.43689 18.89231,-12.14961 0.91882,-7.4745 -1.28777,-12.38261 -6.81739,-15.1638 -9.87163,-4.96504 -43.153978,-1.38049 -49.037051,5.2814 -7.045198,7.97786 -13.477044,56.72838 -15.194229,115.16547 -0.895097,30.4608 -2.957192,57.40529 -4.582426,59.87669 -4.289387,6.5225 -11.0656,5.5073 -14.18191,-2.1248 z M 196.05863,789.18317 c -8.43811,-0.8347 -40.96254,-2.8403 -72.27647,-4.45691 -51.196799,-2.64309 -57.095851,-3.73183 -58.536208,-10.80373 -1.543079,-7.57627 1.252694,-7.77231 76.290878,-5.34909 62.7034,2.02488 79.24678,3.78836 84.83681,9.04331 6.13566,5.76789 6.17861,6.98288 0.36907,10.4354 -3.61632,2.14912 -8.54769,3.62423 -10.95857,3.27803 -2.41085,-0.34605 -11.28731,-1.31231 -19.72543,-2.14701 z"
       id="path2867" />
  </g>
</svg>
