<?xml version="1.0" encoding="UTF-8" standalone="no"?>
<!-- Created with Inkscape (http://www.inkscape.org/) -->

<svg
   xmlns:dc="http://purl.org/dc/elements/1.1/"
   xmlns:cc="http://creativecommons.org/ns#"
   xmlns:rdf="http://www.w3.org/1999/02/22-rdf-syntax-ns#"
   xmlns:svg="http://www.w3.org/2000/svg"
   xmlns="http://www.w3.org/2000/svg"
   xmlns:sodipodi="http://sodipodi.sourceforge.net/DTD/sodipodi-0.dtd"
   xmlns:inkscape="http://www.inkscape.org/namespaces/inkscape"
   width="300"
   height="300"
   id="svg2"
   version="1.1"
   inkscape:version="0.47 r22583"
   sodipodi:docname="辵-bigseal.svg">
  <defs
     id="defs4">
    <inkscape:perspective
       sodipodi:type="inkscape:persp3d"
       inkscape:vp_x="0 : 526.18109 : 1"
       inkscape:vp_y="0 : 1000 : 0"
       inkscape:vp_z="744.09448 : 526.18109 : 1"
       inkscape:persp3d-origin="372.04724 : 350.78739 : 1"
       id="perspective10" />
    <inkscape:perspective
       id="perspective2824"
       inkscape:persp3d-origin="0.5 : 0.33333333 : 1"
       inkscape:vp_z="1 : 0.5 : 1"
       inkscape:vp_y="0 : 1000 : 0"
       inkscape:vp_x="0 : 0.5 : 1"
       sodipodi:type="inkscape:persp3d" />
    <inkscape:perspective
       id="perspective2838"
       inkscape:persp3d-origin="0.5 : 0.33333333 : 1"
       inkscape:vp_z="1 : 0.5 : 1"
       inkscape:vp_y="0 : 1000 : 0"
       inkscape:vp_x="0 : 0.5 : 1"
       sodipodi:type="inkscape:persp3d" />
    <inkscape:perspective
       id="perspective2875"
       inkscape:persp3d-origin="0.5 : 0.33333333 : 1"
       inkscape:vp_z="1 : 0.5 : 1"
       inkscape:vp_y="0 : 1000 : 0"
       inkscape:vp_x="0 : 0.5 : 1"
       sodipodi:type="inkscape:persp3d" />
    <inkscape:perspective
       id="perspective3676"
       inkscape:persp3d-origin="0.5 : 0.33333333 : 1"
       inkscape:vp_z="1 : 0.5 : 1"
       inkscape:vp_y="0 : 1000 : 0"
       inkscape:vp_x="0 : 0.5 : 1"
       sodipodi:type="inkscape:persp3d" />
    <inkscape:perspective
       id="perspective3698"
       inkscape:persp3d-origin="0.5 : 0.33333333 : 1"
       inkscape:vp_z="1 : 0.5 : 1"
       inkscape:vp_y="0 : 1000 : 0"
       inkscape:vp_x="0 : 0.5 : 1"
       sodipodi:type="inkscape:persp3d" />
    <inkscape:perspective
       id="perspective3741"
       inkscape:persp3d-origin="0.5 : 0.33333333 : 1"
       inkscape:vp_z="1 : 0.5 : 1"
       inkscape:vp_y="0 : 1000 : 0"
       inkscape:vp_x="0 : 0.5 : 1"
       sodipodi:type="inkscape:persp3d" />
    <inkscape:perspective
       id="perspective3757"
       inkscape:persp3d-origin="0.5 : 0.33333333 : 1"
       inkscape:vp_z="1 : 0.5 : 1"
       inkscape:vp_y="0 : 1000 : 0"
       inkscape:vp_x="0 : 0.5 : 1"
       sodipodi:type="inkscape:persp3d" />
    <inkscape:perspective
       id="perspective3779"
       inkscape:persp3d-origin="0.5 : 0.33333333 : 1"
       inkscape:vp_z="1 : 0.5 : 1"
       inkscape:vp_y="0 : 1000 : 0"
       inkscape:vp_x="0 : 0.5 : 1"
       sodipodi:type="inkscape:persp3d" />
  </defs>
  <sodipodi:namedview
     id="base"
     pagecolor="#ffffff"
     bordercolor="#666666"
     borderopacity="1.0"
     inkscape:pageopacity="0.0"
     inkscape:pageshadow="2"
     inkscape:zoom="1.4"
     inkscape:cx="81.270942"
     inkscape:cy="119.87908"
     inkscape:document-units="px"
     inkscape:current-layer="layer1"
     showgrid="false"
     inkscape:window-width="1280"
     inkscape:window-height="950"
     inkscape:window-x="0"
     inkscape:window-y="25"
     inkscape:window-maximized="1" />
  <metadata
     id="metadata7">
    <rdf:RDF>
      <cc:Work
         rdf:about="">
        <dc:format>image/svg+xml</dc:format>
        <dc:type
           rdf:resource="http://purl.org/dc/dcmitype/StillImage" />
        <dc:title></dc:title>
      </cc:Work>
    </rdf:RDF>
  </metadata>
  <g
     inkscape:label="Calque 1"
     inkscape:groupmode="layer"
     id="layer1"
     transform="translate(0,-752.36218)">
    <path
       style="fill:#000000"
       d="m 184.18561,1035.7989 c -51.11698,-5.4209 -50.66056,-5.3259 -62.20559,-12.9504 -11.59774,-7.6593 -12.60792,-9.7097 -16.39217,-33.27317 -1.76866,-11.01313 -1.42583,-12.84722 2.85399,-15.26729 3.93787,-2.22672 5.478,-2.3273 8.08769,-0.5282 5.15448,3.55349 12.5938,15.82027 11.89606,19.61561 -1.28957,7.01485 3.73471,16.72425 10.07353,19.46705 3.48989,1.5102 6.94835,2.3475 7.68548,1.8606 0.73712,-0.4868 1.37635,-13.1613 1.42054,-28.16583 l 0.0803,-27.28085 8.37366,0.53589 8.37369,0.53587 2.23889,14.34948 c 2.12136,13.59609 2.57226,14.34947 8.58824,14.34947 7.167,0 26.50166,-5.56043 41.01237,-11.79472 10.43862,-4.48475 20.58743,-4.05312 20.58743,0.87558 0,2.35531 -9.93598,9.35559 -24.64585,17.36397 -4.75673,2.58967 -35.55047,10.94854 -40.33404,10.94854 -2.30521,0 -3.49648,2.2985 -3.49648,6.7462 0,5.7274 1.09383,7.0407 7.24269,8.6959 11.78733,3.1729 33.36371,5.3284 35.0714,3.5036 0.84143,-0.8991 3.70034,-0.051 6.35315,1.885 2.65279,1.9359 7.00992,3.5198 9.68246,3.5198 2.6726,0 4.85924,0.3273 4.85924,0.7274 0,0.4001 0.71938,1.9655 1.59862,3.4787 1.36857,2.3552 -1.00042,2.7215 -16.46067,2.5446 -9.93259,-0.1136 -24.57769,-0.8979 -32.54466,-1.7428 l 3e-5,0 z M 57.767699,934.89252 c 0,-1.08609 2.666628,-3.66965 5.925841,-5.74127 27.003783,-17.16405 44.81499,-46.28085 32.454793,-53.05539 -4.53603,-2.48615 -22.463224,0.42531 -33.569721,5.45192 -5.800396,2.62516 -8.210737,2.83446 -13.682079,1.18811 -6.926305,-2.08415 -10.606069,-5.96471 -8.14739,-8.59197 0.788964,-0.84307 6.422357,-3.08855 12.518659,-4.98998 14.298127,-4.45957 34.406186,-12.30755 36.130741,-14.10147 2.70961,-2.81859 14.502447,-3.54652 19.365667,-1.19538 15.76757,12.95129 17.08141,29.0135 12.21244,43.91251 0,5.79577 -26.041637,26.88996 -45.583581,36.92347 -5.288748,2.71542 -17.62537,2.85502 -17.62537,0.19945 z M 41.96545,845.67084 c 0,-2.72712 2.844833,-5.56767 8.007558,-7.99545 18.376213,-8.64149 27.677252,-35.08932 19.622615,-55.79748 -2.276313,-5.85231 4.08659,-7.71878 14.356806,-4.21138 9.226614,3.15101 11.068674,6.00396 12.518634,19.38859 1.8392,16.97765 -11.081367,40.69766 -23.6442,43.40674 -2.581479,0.55667 -7.564557,2.90815 -11.073523,5.22551 -8.683936,5.73497 -19.78789,5.7257 -19.78789,-0.0173 l 0,7.7e-4 z"
       id="path3747-8"
       sodipodi:nodetypes="cssssssscccccssssssssssssscccsssssssccsccsssssscc" />
    <path
       style="fill:#b8b8b8;fill-opacity:1"
       d="m 194.96982,964.21779 c -4.05234,-2.19899 -6.06182,-6.24323 -14.0437,-28.2641 -2.42726,-6.69642 -8.95129,-18.4369 -14.49785,-26.08995 -5.54654,-7.65306 -12.5914,-17.43678 -15.65522,-21.74163 -3.06382,-4.30483 -7.94293,-10.56642 -10.84252,-13.91463 -2.89955,-3.34821 -5.993,-9.02277 -6.87434,-12.61013 -0.88131,-3.58737 -2.38426,-6.5225 -3.33985,-6.5225 -0.9556,0 -1.93189,-3.21998 -2.16952,-7.15551 -0.83926,-13.89896 17.31572,-31.23293 36.23627,-34.59758 12.00754,-2.13531 12.7291,-4.3093 6.90268,-20.79745 l -3.35736,-9.501 -12.06097,0.48983 c -9.71224,0.39443 -13.13976,-0.27492 -17.60071,-3.43713 -12.71754,-9.01506 -5.311,-11.89545 31.00296,-12.05696 11.04511,-0.049 28.29875,-0.69159 38.34145,-1.4277 15.40971,-1.12953 19.90377,-0.81376 28.79525,2.02331 15.88247,5.06771 17.94116,7.14123 18.3354,18.46745 0.358,10.2844 -4.32529,19.29151 -10.03068,19.29151 -1.65489,0 -5.38109,1.45953 -8.28043,3.2434 -7.50931,4.62022 -15.49302,7.18487 -22.54405,7.24194 -5.45095,0.0442 -4.84984,0.78336 5.65725,6.95732 6.46593,3.79937 12.73808,6.90796 13.93813,6.90796 1.20001,0 3.61331,0.77625 5.36283,1.72504 1.74955,0.94876 9.43866,4.899 17.08693,8.77832 7.64826,3.87932 13.20788,7.79924 12.35467,8.71094 -2.31608,2.47492 -15.1489,2.0027 -25.85439,-0.95135 -12.80481,-3.53331 -14.10064,-3.35199 -15.53708,2.17418 -0.68377,2.63072 -2.07059,6.05014 -3.08173,7.5987 -1.40968,2.15885 0.80708,3.51122 9.5039,5.79806 12.6262,3.32007 28.46149,10.67343 28.46149,13.21652 0,2.11501 -28.24008,2.17774 -29.40973,0.0654 -0.48283,-0.87202 -4.82277,-1.85039 -9.64423,-2.17417 -8.07274,-0.5421 -9.0424,-0.0642 -12.25546,6.04081 -3.4001,6.46032 -3.31184,6.67399 3.45936,8.37416 3.82168,0.95957 10.5218,2.7764 14.88918,4.03741 4.36737,1.26099 11.70728,3.23885 16.31095,4.39523 4.60367,1.15638 9.11255,3.37992 10.01977,4.94118 2.03418,3.5009 -6.07952,7.80988 -11.73022,6.22961 -2.21438,-0.61927 -8.24161,-1.67786 -13.39388,-2.35239 -5.15224,-0.67455 -13.3342,-2.53325 -18.18212,-4.13043 -10.82771,-3.56725 -12.30705,-3.59576 -14.23699,-0.27437 -2.17024,3.73504 2.82726,10.0895 9.64861,12.26843 24.83873,7.93422 44.67167,15.55937 45.88036,17.63954 0.79347,1.36558 0.15696,3.33189 -1.41428,4.36962 -3.17625,2.09765 -28.57181,-2.27793 -39.55577,-6.81532 l -6.15828,-2.54394 1.99357,11.88116 c 2.38802,14.23167 2.30192,15.72283 -1.26338,21.88229 -3.07422,5.3111 -5.24995,5.81945 -11.16627,2.609 l 0,-8e-5 z m 0.30681,-93.38657 c -0.0482,-3.62183 -3.96814,-6.15135 -21.04785,-13.58221 -11.54369,-5.02231 -22.18348,-9.13147 -23.64401,-9.13147 -6.47902,0 2.06344,19.64445 8.94259,20.56465 2.31226,0.3093 4.20413,1.28767 4.20413,2.17416 0,0.8865 1.55426,1.6118 3.45393,1.6118 1.89968,0 5.80553,1.44685 8.67966,3.21522 2.87418,1.76836 6.94944,3.63508 9.0562,4.14823 5.05946,1.23242 10.42955,-3.43497 10.35535,-9.00038 z m 10.3479,-25.53756 c 3.07039,-7.3438 -0.5632,-11.64772 -15.17342,-17.97263 -9.6291,-4.16853 -18.03908,-3.82038 -25.41718,1.05221 -4.02192,2.65612 -3.95629,3.11074 0.91354,6.32683 9.01229,5.95181 30.55547,16.60801 33.87368,16.75539 1.74259,0.0775 4.35412,-2.6954 5.80338,-6.1618 z m 15.39008,-48.945 c 17.78209,-9.60821 14.15035,-16.06498 -9.03612,-16.06498 -12.23715,0 -14.08311,0.47025 -15.36191,3.91349 -1.11361,2.99857 -0.45152,14.08189 1.20191,20.1195 0.47486,1.73403 13.55734,-2.75988 23.19612,-7.96801 z"
       id="path3747"
       sodipodi:nodetypes="csssssssscccsssssssssssssssssssssssssssssssscccscccsssssssccssssccsssc" />
  </g>
</svg>
