<?xml version="1.0" encoding="UTF-8" standalone="no"?>
<!-- Created with Inkscape (http://www.inkscape.org/) -->

<svg
   xmlns:dc="http://purl.org/dc/elements/1.1/"
   xmlns:cc="http://creativecommons.org/ns#"
   xmlns:rdf="http://www.w3.org/1999/02/22-rdf-syntax-ns#"
   xmlns:svg="http://www.w3.org/2000/svg"
   xmlns="http://www.w3.org/2000/svg"
   xmlns:sodipodi="http://sodipodi.sourceforge.net/DTD/sodipodi-0.dtd"
   xmlns:inkscape="http://www.inkscape.org/namespaces/inkscape"
   width="300"
   height="300"
   id="svg2"
   version="1.1"
   inkscape:version="0.47 r22583"
   sodipodi:docname="辵-bronze.svg">
  <defs
     id="defs4">
    <inkscape:perspective
       sodipodi:type="inkscape:persp3d"
       inkscape:vp_x="0 : 526.18109 : 1"
       inkscape:vp_y="0 : 1000 : 0"
       inkscape:vp_z="744.09448 : 526.18109 : 1"
       inkscape:persp3d-origin="372.04724 : 350.78739 : 1"
       id="perspective10" />
    <inkscape:perspective
       id="perspective2824"
       inkscape:persp3d-origin="0.5 : 0.33333333 : 1"
       inkscape:vp_z="1 : 0.5 : 1"
       inkscape:vp_y="0 : 1000 : 0"
       inkscape:vp_x="0 : 0.5 : 1"
       sodipodi:type="inkscape:persp3d" />
    <inkscape:perspective
       id="perspective2838"
       inkscape:persp3d-origin="0.5 : 0.33333333 : 1"
       inkscape:vp_z="1 : 0.5 : 1"
       inkscape:vp_y="0 : 1000 : 0"
       inkscape:vp_x="0 : 0.5 : 1"
       sodipodi:type="inkscape:persp3d" />
    <inkscape:perspective
       id="perspective2875"
       inkscape:persp3d-origin="0.5 : 0.33333333 : 1"
       inkscape:vp_z="1 : 0.5 : 1"
       inkscape:vp_y="0 : 1000 : 0"
       inkscape:vp_x="0 : 0.5 : 1"
       sodipodi:type="inkscape:persp3d" />
    <inkscape:perspective
       id="perspective3676"
       inkscape:persp3d-origin="0.5 : 0.33333333 : 1"
       inkscape:vp_z="1 : 0.5 : 1"
       inkscape:vp_y="0 : 1000 : 0"
       inkscape:vp_x="0 : 0.5 : 1"
       sodipodi:type="inkscape:persp3d" />
    <inkscape:perspective
       id="perspective3698"
       inkscape:persp3d-origin="0.5 : 0.33333333 : 1"
       inkscape:vp_z="1 : 0.5 : 1"
       inkscape:vp_y="0 : 1000 : 0"
       inkscape:vp_x="0 : 0.5 : 1"
       sodipodi:type="inkscape:persp3d" />
    <inkscape:perspective
       id="perspective3741"
       inkscape:persp3d-origin="0.5 : 0.33333333 : 1"
       inkscape:vp_z="1 : 0.5 : 1"
       inkscape:vp_y="0 : 1000 : 0"
       inkscape:vp_x="0 : 0.5 : 1"
       sodipodi:type="inkscape:persp3d" />
    <inkscape:perspective
       id="perspective3757"
       inkscape:persp3d-origin="0.5 : 0.33333333 : 1"
       inkscape:vp_z="1 : 0.5 : 1"
       inkscape:vp_y="0 : 1000 : 0"
       inkscape:vp_x="0 : 0.5 : 1"
       sodipodi:type="inkscape:persp3d" />
    <inkscape:perspective
       id="perspective3779"
       inkscape:persp3d-origin="0.5 : 0.33333333 : 1"
       inkscape:vp_z="1 : 0.5 : 1"
       inkscape:vp_y="0 : 1000 : 0"
       inkscape:vp_x="0 : 0.5 : 1"
       sodipodi:type="inkscape:persp3d" />
    <inkscape:perspective
       id="perspective3822"
       inkscape:persp3d-origin="0.5 : 0.33333333 : 1"
       inkscape:vp_z="1 : 0.5 : 1"
       inkscape:vp_y="0 : 1000 : 0"
       inkscape:vp_x="0 : 0.5 : 1"
       sodipodi:type="inkscape:persp3d" />
    <inkscape:perspective
       id="perspective3838"
       inkscape:persp3d-origin="0.5 : 0.33333333 : 1"
       inkscape:vp_z="1 : 0.5 : 1"
       inkscape:vp_y="0 : 1000 : 0"
       inkscape:vp_x="0 : 0.5 : 1"
       sodipodi:type="inkscape:persp3d" />
    <inkscape:perspective
       id="perspective3854"
       inkscape:persp3d-origin="0.5 : 0.33333333 : 1"
       inkscape:vp_z="1 : 0.5 : 1"
       inkscape:vp_y="0 : 1000 : 0"
       inkscape:vp_x="0 : 0.5 : 1"
       sodipodi:type="inkscape:persp3d" />
  </defs>
  <sodipodi:namedview
     id="base"
     pagecolor="#ffffff"
     bordercolor="#666666"
     borderopacity="1.0"
     inkscape:pageopacity="0.0"
     inkscape:pageshadow="2"
     inkscape:zoom="1.4"
     inkscape:cx="81.270942"
     inkscape:cy="119.87908"
     inkscape:document-units="px"
     inkscape:current-layer="layer1"
     showgrid="false"
     inkscape:window-width="1280"
     inkscape:window-height="950"
     inkscape:window-x="0"
     inkscape:window-y="25"
     inkscape:window-maximized="1" />
  <metadata
     id="metadata7">
    <rdf:RDF>
      <cc:Work
         rdf:about="">
        <dc:format>image/svg+xml</dc:format>
        <dc:type
           rdf:resource="http://purl.org/dc/dcmitype/StillImage" />
        <dc:title></dc:title>
      </cc:Work>
    </rdf:RDF>
  </metadata>
  <g
     inkscape:label="Calque 1"
     inkscape:groupmode="layer"
     id="layer1"
     transform="translate(0,-752.36218)">
    <path
       style="fill:#000000"
       d="m 128.61831,1029.0497 c -3.00541,-2.4096 -5.46437,-7.9966 -5.46437,-12.4156 0,-4.4191 -2.327,-16.117 -5.17111,-25.9954 -2.84411,-9.87839 -3.71327,-20.97741 -1.93148,-24.66452 3.08389,-6.38149 3.52158,-6.39679 9.10521,-0.31796 10.49521,11.42606 21.03025,3.94895 19.86497,-14.09893 -0.56329,-8.7245 1.31761,-17.74021 4.17981,-20.03493 6.1923,-4.96455 8.87974,-0.4609 11.1677,18.71515 l 1.50889,12.64607 5.31331,-9.9362 c 6.8916,-12.88769 16.5779,-13.29337 12.58136,-0.52693 -1.62007,5.17506 -6.40299,13.60172 -10.62865,18.72584 -4.22567,5.12412 -11.75749,20.67695 -16.73735,34.56181 -9.32579,26.0022 -14.33684,30.9191 -23.78829,23.3416 z m 17.00012,-36.35749 c 0.0713,-6.52259 -6.64595,-8.61458 -10.71438,-3.33691 -1.26606,1.64238 -1.10439,6.65759 0.35927,11.1449 1.99657,6.1211 3.6134,6.9545 6.47366,3.3369 2.09684,-2.652 3.84349,-7.66722 3.88145,-11.14489 z M 79.741543,961.9803 82.635679,930.3651 69.187962,942.785 c -14.275747,13.18458 -24.321387,12.57273 -13.814351,-0.84143 3.431484,-4.38094 12.480782,-17.15843 20.109554,-28.39448 7.628775,-11.23603 15.898511,-20.17862 18.377207,-19.8724 9.229038,1.14014 -3.408526,99.91881 -12.783439,99.91881 -2.533169,0 -3.068762,-12.68008 -1.33539,-31.6152 z M 60.060107,875.06842 c 0,-1.59818 5.588593,-10.13429 12.419104,-18.96912 20.687752,-26.75834 23.44838,-33.18596 24.745142,-57.61475 1.217366,-22.93294 1.389222,-23.23052 7.303807,-12.64607 9.82892,17.58935 7.51765,34.54724 -7.893536,57.91524 -7.825559,11.86592 -16.944753,24.41977 -20.264862,27.89744 -6.193607,6.48755 -16.309655,8.6071 -16.309655,3.41726 z"
       id="path3844-1"
       sodipodi:nodetypes="csssssscccsssccsssccccssssccsssssc" />
    <path
       style="fill:#b0b0b0;fill-opacity:1"
       d="m 192.16718,922.80416 c -0.0857,-28.89078 -3.46944,-37.03496 -15.38777,-37.03496 -14.14149,0 -27.99081,11.7869 -31.5074,26.81532 -2.95883,12.64486 -11.63042,18.24406 -11.63042,7.50975 0,-6.48343 -14.02107,-7.18601 -21.63216,-1.08394 -4.20625,3.37227 -5.40804,3.01622 -5.40804,-1.6023 0,-3.26598 6.08405,-8.81949 13.5201,-12.34117 11.21943,-5.31345 13.5201,-8.72113 13.5201,-20.02542 0,-11.88996 2.29258,-14.83874 18.02679,-23.18671 17.61629,-9.34649 23.15624,-20.08858 12.96456,-25.13856 -3.23936,-1.60511 -4.12408,-8.85952 -2.45682,-20.14571 2.37909,-16.10489 1.36003,-18.77458 -11.72806,-30.72561 -13.8928,-12.68581 -13.99047,-13.00229 -3.17657,-10.29245 6.13634,1.53769 12.56772,4.56198 14.29195,6.72063 3.47827,4.35462 4.55771,3.74313 11.83679,-6.70538 4.22743,-6.06813 5.05625,-4.22022 5.17136,11.52954 0.0752,10.31572 2.16087,19.75871 4.63447,20.98435 7.92246,3.92557 31.55614,-9.96333 31.55614,-18.54475 0,-10.36082 4.42149,-19.3889 9.49558,-19.3889 2.21351,0 4.02452,4.0138 4.02452,8.91953 0,6.44402 1.8762,8.3423 6.76006,6.83977 10.29295,-3.16665 8.06831,3.70457 -3.90069,12.0481 -5.86339,4.08739 -11.97268,13.03832 -13.57621,19.89099 -1.60348,6.85264 -6.94617,15.9281 -11.87272,20.16763 -11.29664,9.72141 -11.22349,13.37631 0.5326,26.61286 6.62675,7.46117 8.83196,14.17029 7.30906,22.23675 -2.17386,11.51458 5.58691,28.20881 17.58568,37.82862 6.57325,5.26998 8.24064,11.66138 3.04222,11.66138 -1.72337,0 -8.82142,-4.369 -15.77346,-9.7089 l -12.64004,-9.7089 0,13.32206 c 0,9.43307 -1.97339,13.32207 -6.76005,13.32207 -5.218,0 -6.77407,-4.73911 -6.82157,-20.77569 z m -22.44824,-46.08815 10.60833,-9.05314 10.45743,7.8764 c 12.84658,9.67589 13.53074,4.4463 0.99774,-7.6263 l -9.15982,-8.82332 -15.4771,6.68241 c -9.01596,3.89272 -15.47714,9.46162 -15.47714,13.33977 0,9.08032 5.45081,8.35685 18.05056,-2.39582 z m 29.75635,-47.85418 c 9.77206,-10.32075 7.48879,-18.61864 -2.48554,-9.0329 -8.78437,8.44212 -18.28115,10.78837 -18.28115,4.51644 0,-1.98723 -2.09936,-3.61315 -4.66526,-3.61315 -3.16302,0 -3.11197,2.32691 0.15864,7.22632 5.94916,8.91217 17.30596,9.31807 25.27336,0.90329 l -5e-5,0 z"
       id="path3844"
       sodipodi:nodetypes="cssssssssssssssssssssssssssscccscccccccsccsssscc" />
  </g>
</svg>
