<?xml version="1.0" encoding="UTF-8" standalone="no"?>
<!-- Created with Inkscape (http://www.inkscape.org/) -->

<svg
   xmlns:dc="http://purl.org/dc/elements/1.1/"
   xmlns:cc="http://creativecommons.org/ns#"
   xmlns:rdf="http://www.w3.org/1999/02/22-rdf-syntax-ns#"
   xmlns:svg="http://www.w3.org/2000/svg"
   xmlns="http://www.w3.org/2000/svg"
   xmlns:sodipodi="http://sodipodi.sourceforge.net/DTD/sodipodi-0.dtd"
   xmlns:inkscape="http://www.inkscape.org/namespaces/inkscape"
   width="300"
   height="300"
   id="svg2"
   version="1.1"
   inkscape:version="0.47 r22583"
   sodipodi:docname="辵-seal.svg">
  <defs
     id="defs4">
    <inkscape:perspective
       sodipodi:type="inkscape:persp3d"
       inkscape:vp_x="0 : 526.18109 : 1"
       inkscape:vp_y="0 : 1000 : 0"
       inkscape:vp_z="744.09448 : 526.18109 : 1"
       inkscape:persp3d-origin="372.04724 : 350.78739 : 1"
       id="perspective10" />
    <inkscape:perspective
       id="perspective2824"
       inkscape:persp3d-origin="0.5 : 0.33333333 : 1"
       inkscape:vp_z="1 : 0.5 : 1"
       inkscape:vp_y="0 : 1000 : 0"
       inkscape:vp_x="0 : 0.5 : 1"
       sodipodi:type="inkscape:persp3d" />
    <inkscape:perspective
       id="perspective2838"
       inkscape:persp3d-origin="0.5 : 0.33333333 : 1"
       inkscape:vp_z="1 : 0.5 : 1"
       inkscape:vp_y="0 : 1000 : 0"
       inkscape:vp_x="0 : 0.5 : 1"
       sodipodi:type="inkscape:persp3d" />
    <inkscape:perspective
       id="perspective2875"
       inkscape:persp3d-origin="0.5 : 0.33333333 : 1"
       inkscape:vp_z="1 : 0.5 : 1"
       inkscape:vp_y="0 : 1000 : 0"
       inkscape:vp_x="0 : 0.5 : 1"
       sodipodi:type="inkscape:persp3d" />
    <inkscape:perspective
       id="perspective3676"
       inkscape:persp3d-origin="0.5 : 0.33333333 : 1"
       inkscape:vp_z="1 : 0.5 : 1"
       inkscape:vp_y="0 : 1000 : 0"
       inkscape:vp_x="0 : 0.5 : 1"
       sodipodi:type="inkscape:persp3d" />
    <inkscape:perspective
       id="perspective3698"
       inkscape:persp3d-origin="0.5 : 0.33333333 : 1"
       inkscape:vp_z="1 : 0.5 : 1"
       inkscape:vp_y="0 : 1000 : 0"
       inkscape:vp_x="0 : 0.5 : 1"
       sodipodi:type="inkscape:persp3d" />
  </defs>
  <sodipodi:namedview
     id="base"
     pagecolor="#ffffff"
     bordercolor="#666666"
     borderopacity="1.0"
     inkscape:pageopacity="0.0"
     inkscape:pageshadow="2"
     inkscape:zoom="0.98994949"
     inkscape:cx="-9.1907166"
     inkscape:cy="30.5743"
     inkscape:document-units="px"
     inkscape:current-layer="layer1"
     showgrid="false"
     inkscape:window-width="1280"
     inkscape:window-height="950"
     inkscape:window-x="0"
     inkscape:window-y="25"
     inkscape:window-maximized="1" />
  <metadata
     id="metadata7">
    <rdf:RDF>
      <cc:Work
         rdf:about="">
        <dc:format>image/svg+xml</dc:format>
        <dc:type
           rdf:resource="http://purl.org/dc/dcmitype/StillImage" />
        <dc:title></dc:title>
      </cc:Work>
    </rdf:RDF>
  </metadata>
  <g
     inkscape:label="Calque 1"
     inkscape:groupmode="layer"
     id="layer1"
     transform="translate(0,-752.36218)">
    <path
       style="fill:#000000"
       d="m 43.241133,1026.6802 c 0,-3.536 4.596144,-12.5426 10.213651,-20.0145 14.467696,-19.24363 26.009296,-47.60059 30.232116,-74.27835 1.995252,-12.60501 4.51924,-24.60276 5.608862,-26.66177 1.089636,-2.05898 0.898654,-5.78913 -0.424394,-8.2892 -1.534397,-2.89944 -8.350116,2.9659 -18.820612,16.1963 -15.72939,19.87548 -23.407181,22.94821 -23.407181,9.36777 0,-7.9568 35.211254,-48.83338 42.065265,-48.83338 9.639171,0 16.53981,12.31977 14.26953,25.4755 -1.16489,6.75032 -3.542501,21.21379 -5.283581,32.14107 -5.732839,35.98037 -9.353569,49.22757 -18.360943,67.17741 -12.900345,25.70775 -36.092713,43.51945 -36.092713,27.71915 z m 81.056967,3.6111 c -14.95952,-2.6728 -17.73266,-10.0253 -14.3253,-37.98116 2.16917,-17.79716 4.45426,-24.76447 8.12202,-24.76447 3.71591,0 4.88749,3.78167 4.30867,13.90744 -0.43726,7.6491 -0.006,18.01826 0.95724,23.04249 1.61322,8.4102 3.29624,9.0408 21.20964,7.9472 l 19.45741,-1.188 0,-26.56841 c 0,-15.92764 1.70336,-28.57949 4.25304,-31.58978 4.93954,-5.83186 9.7894,-1.4559 11.61016,10.47549 1.01508,6.65198 4.2573,8.11501 19.89431,8.97718 26.1841,1.44371 33.99251,4.09325 33.99251,11.53413 0,5.59802 -3.60412,6.1639 -27.21952,4.27356 l -27.21953,-2.17882 0,11.80981 0,11.80984 23.84374,-1.1369 c 21.9652,-1.0472 24.56191,-0.298 32.95921,9.5088 7.98769,9.3284 8.40119,10.9655 3.34218,13.2326 -3.17529,1.4232 -19.73249,0.6599 -36.79376,-1.6961 -20.16412,-2.7843 -33.17246,-2.9384 -37.16956,-0.4401 -6.05529,3.7846 -23.36844,4.2152 -41.22246,1.0252 z M 47.935188,869.4195 c -1.530758,-2.89255 1.343587,-7.93841 7.356452,-12.91407 5.427882,-4.49158 14.311655,-13.16582 19.741722,-19.27615 8.899531,-10.01441 9.713165,-13.05032 8.253181,-30.79509 -1.382659,-16.80483 -0.750261,-19.68538 4.321753,-19.68538 7.483717,0 10.071888,7.80875 10.071888,30.38789 0,19.51172 -4.659311,33.18902 -11.306167,33.18902 -2.344019,0 -9.562879,5.29162 -16.041882,11.7592 -12.824909,12.80219 -18.516988,14.66626 -22.396947,7.33458 z"
       id="path2881"
       sodipodi:nodetypes="cssssssssssccsssscccsssscccccssssccsssssssc" />
    <path
       style="fill:#bababa;fill-opacity:1"
       d="m 119.11097,951.88343 c -4.49238,-10.51674 -4.52539,-12.41623 -0.24919,-14.33259 2.71123,-1.21502 4.92949,-7.25777 4.92949,-13.42832 0,-8.60942 -1.78077,-11.51454 -7.6555,-12.48893 -9.53757,-1.58191 -10.12062,-12.77813 -0.74707,-14.34585 3.79963,-0.63549 8.39295,-4.94716 10.20733,-9.58151 2.13951,-5.4648 9.87567,-10.79791 22.01232,-15.17474 22.96187,-8.28065 26.35167,-17.6304 7.82589,-21.58541 -7.11124,-1.51816 -16.28848,-5.28554 -20.39386,-8.37196 -4.62966,-3.48064 -11.41324,-4.68935 -17.86282,-3.18294 -11.67723,2.72749 -13.05192,-0.47499 -4.78389,-11.14464 3.5938,-4.63765 5.73687,-14.7614 5.95428,-28.12777 0.29441,-18.10106 1.24599,-20.88232 7.14453,-20.88232 5.46198,0 7.14061,3.31129 8.50611,16.77922 1.39177,13.72697 2.62961,16.08719 6.80488,12.97489 6.80131,-5.06974 21.58303,-4.9456 26.00478,0.21816 2.46327,2.87674 9.48608,1.96524 22.96082,-2.98017 17.22123,-6.32041 19.24906,-8.16892 17.96701,-16.37821 -0.89352,-5.72144 0.47356,-10.1135 3.58139,-11.50627 5.90499,-2.64636 11.01886,5.33684 11.09248,17.31638 0.0306,5.0369 2.75074,9.3012 6.70203,10.50794 7.40449,2.26135 12.34556,18.95466 8.78561,29.68215 -2.02714,6.10855 -3.15038,5.62219 -9.15685,-3.96465 -7.51204,-11.98994 -13.08358,-14.16609 -13.08358,-5.1102 0,6.99836 -22.94742,25.97136 -31.41177,25.97136 -3.30829,0 -6.01507,2.68216 -6.01507,5.96034 0,3.99514 3.42122,5.96035 10.37628,5.96035 12.95051,0 29.10054,9.49183 33.8743,19.90891 2.09293,4.56717 7.1196,7.90598 11.90262,7.90598 5.96179,0 7.73133,1.66859 6.32115,5.96034 -1.07717,3.2782 -5.62239,5.96033 -10.10054,5.96033 -6.94296,0 -8.14208,1.93119 -8.14208,13.11274 0,7.21202 1.90108,15.33295 4.2246,18.04648 3.02767,3.53587 3.1576,5.73121 0.45858,7.74843 -2.07129,1.5481 -4.84109,6.83795 -6.15511,11.75521 -3.14429,11.76664 -8.12276,11.33974 -12.15372,-1.04221 -1.78748,-5.49051 -7.49118,-12.09459 -12.67495,-14.67579 -5.18374,-2.58118 -12.12048,-7.32354 -15.41496,-10.53858 -5.34621,-5.21737 -6.82447,-4.92988 -13.75614,2.67508 -4.27139,4.68636 -12.52301,10.45725 -18.3369,12.82417 -5.81385,2.36693 -11.34629,7.76723 -12.29424,12.00067 -2.58362,11.5381 -11.39468,9.277 -17.24823,-4.42627 l -1e-5,2e-4 z m 34.26192,-29.47336 9.54645,-9.80833 -14.46039,-0.12554 c -13.18476,-0.11447 -14.46037,0.75073 -14.46037,9.80833 0,12.75668 7.03608,12.80225 19.37431,0.12554 z m 55.47939,-6.3204 c 0,-6.41656 -2.41386,-7.71261 -14.36436,-7.71261 l -14.36434,0 11.81251,9.50515 c 12.92469,10.40002 16.91619,9.97709 16.91619,-1.79254 z m -44.23174,-25.59361 c 0,-3.91721 -3.35613,-5.96034 -9.79068,-5.96034 -5.38491,0 -11.69678,2.68215 -14.02639,5.96034 -3.64855,5.13415 -2.29141,5.96033 9.79072,5.96033 10.19957,0 14.02635,-1.62613 14.02635,-5.96033 z m 40.8293,0.7947 c 0,-8.44789 -7.52641,-14.70216 -17.69269,-14.70216 -7.89366,0 -9.52684,1.70296 -9.52684,9.9339 0,8.94049 1.36097,9.93389 13.60976,9.93389 8.89872,0 13.60977,-1.7881 13.60977,-5.16563 z m -44.29761,-64.45351 c -7.29211,-9.06504 -8.55962,-9.42858 -13.35227,-3.82988 -4.68773,5.4762 -4.70971,6.61835 -0.19155,9.95495 2.80702,2.07298 8.81552,3.79638 13.35227,3.82988 l 8.24856,0.0608 -8.05693,-10.01578 -8e-5,3e-5 z m 39.00103,1.18451 c 7.78152,-12.97445 6.57441,-15.10714 -5.76136,-10.17894 -17.07961,6.82344 -22.11097,19.01021 -7.84841,19.01021 4.73352,0 10.59387,-3.80273 13.60977,-8.83127 z"
       id="path2881-7"
       sodipodi:nodetypes="csssssssssssssssssssssssssssssssssssssssscccccscccccccsssccsssccsscccccssc" />
  </g>
</svg>
