<?xml version="1.0" standalone="no"?>
<!DOCTYPE svg PUBLIC "-//W3C//DTD SVG 20010904//EN"
 "http://www.w3.org/TR/2001/REC-SVG-20010904/DTD/svg10.dtd">
<svg version="1.0" xmlns="http://www.w3.org/2000/svg"
 width="468pt" height="468pt" viewBox="0 0 468 468"
 preserveAspectRatio="xMidYMid meet">
<metadata>
Created by potrace 1.8, written by Peter Selinger 2001-2007
</metadata>
<g transform="translate(0,468) scale(0.563855,-0.563855)"
fill="#000000" stroke="none">
<path d="M294 639 c3 -19 8 -44 10 -57 4 -21 -11 -70 -49 -156 -21 -49 -9
-123 25 -156 5 -5 15 -25 73 -153 15 -31 27 -64 27 -72 0 -29 38 -15 76 28 45
50 55 62 113 140 l43 56 -7 93 c-4 51 -7 132 -7 181 0 66 -3 87 -13 87 -7 0
-15 4 -17 9 -1 5 -55 11 -118 15 -63 3 -126 9 -139 12 -22 7 -23 5 -17 -27z
m198 -41 c45 -9 58 -16 58 -30 0 -18 -1 -19 -167 -22 -24 -1 -28 3 -31 32 -3
32 -3 32 39 32 24 0 69 -5 101 -12z m50 -120 c15 -25 7 -28 -84 -30 -140 -2
-171 3 -135 23 9 6 16 13 13 17 -2 4 41 6 97 5 69 -2 103 -6 109 -15z m-57
-84 c79 -5 85 -8 85 -43 0 -32 -18 -81 -30 -81 -4 0 -12 -11 -18 -24 -6 -14
-22 -37 -36 -53 -14 -15 -35 -41 -48 -56 l-23 -29 -68 136 c-41 83 -64 141
-61 151 6 15 17 16 73 10 36 -3 93 -8 126 -11z"/>
</g>
</svg>
