<?xml version="1.0" standalone="no"?>
<!DOCTYPE svg PUBLIC "-//W3C//DTD SVG 20010904//EN"
 "http://www.w3.org/TR/2001/REC-SVG-20010904/DTD/svg10.dtd">
<svg version="1.0" xmlns="http://www.w3.org/2000/svg"
 width="468pt" height="468pt" viewBox="0 0 468 468"
 preserveAspectRatio="xMidYMid meet">
<metadata>
Created by potrace 1.8, written by Peter Selinger 2001-2007
</metadata>
<g transform="translate(0,468) scale(0.570732,-0.570732)"
fill="#000000" stroke="none">
<path d="M530 603 c-100 -3 -341 -23 -362 -29 -10 -3 -18 -15 -18 -26 0 -20 4
-21 79 -15 57 5 83 3 96 -7 29 -21 12 -46 -30 -46 -50 0 -81 -34 -91 -96 -9
-58 11 -281 27 -318 16 -33 60 -46 166 -46 103 0 177 17 208 48 33 33 48 114
43 241 -5 135 -18 163 -88 186 -82 27 -64 65 31 65 37 0 66 21 54 40 -3 5 -14
9 -23 8 -9 -1 -51 -3 -92 -5z m-70 -88 c0 -22 -4 -25 -40 -25 -36 0 -40 3 -40
25 0 23 4 25 40 25 36 0 40 -2 40 -25z m-117 -111 c8 -51 23 -64 71 -64 60 0
90 19 96 60 6 41 31 51 61 24 15 -14 19 -31 19 -86 0 -46 -4 -70 -12 -73 -7
-2 -81 -5 -165 -8 l-152 -4 -7 45 c-9 62 5 114 36 129 39 20 47 16 53 -23z
m127 18 c0 -24 -19 -42 -45 -42 -26 0 -45 18 -45 42 0 15 8 18 45 18 37 0 45
-3 45 -18z m113 -232 c-5 -19 -14 -20 -159 -20 -147 0 -154 1 -154 20 0 19 7
20 159 20 154 0 159 -1 154 -20z m-13 -67 c-1 -34 -57 -52 -161 -53 -74 0
-129 15 -129 35 0 8 10 16 23 18 39 8 267 7 267 0z"/>
</g>
</svg>
