<?xml version="1.0" encoding="UTF-8" standalone="no"?>
<!-- Created with Inkscape (http://www.inkscape.org/) -->

<svg
   xmlns:dc="http://purl.org/dc/elements/1.1/"
   xmlns:cc="http://creativecommons.org/ns#"
   xmlns:rdf="http://www.w3.org/1999/02/22-rdf-syntax-ns#"
   xmlns:svg="http://www.w3.org/2000/svg"
   xmlns="http://www.w3.org/2000/svg"
   version="1.1"
   width="300"
   height="300"
   id="svg2">
  <defs
     id="defs4" />
  <metadata
     id="metadata7">
    <rdf:RDF>
      <cc:Work
         rdf:about="">
        <dc:format>image/svg+xml</dc:format>
        <dc:type
           rdf:resource="http://purl.org/dc/dcmitype/StillImage" />
        <dc:title></dc:title>
      </cc:Work>
    </rdf:RDF>
  </metadata>
  <g
     transform="translate(0,-752.36218)"
     id="layer1">
    <path
       d="M 140.80605,1034.5949 C 140.07513,1032.6902 139.24893,1004.0764 138.97007,971.00887 L 138.46303,910.88598 102.75455,909.65466 C 87.965772,908.89102 67.639337,911.65088 65.959857,902.4338 65.895739,892.20806 91.671526,895.83191 102.65854,894.87872 L 138.271,893.6474 140.24295,885.02811 C 141.32751,880.2875 141.53093,863.48099 140.69497,847.68031 139.85902,831.87962 139.97782,813.04032 140.95898,805.81518 142.50876,794.40285 144.21562,791.32059 153.96294,782.33252 167.59547,769.76189 178.00444,764.92551 183.69767,768.5167 191.81091,773.63441 188.31012,780.08221 173.61587,787.08543 163.01713,792.13676 159.04206,795.50028 157.60862,800.63003 156.55976,804.38349 155.70162,826.8479 155.70162,850.55095 L 155.70162,893.6474 193.20462,894.32692 C 226.91104,894.93765 230.95701,895.47241 233.17101,899.6093 237.38597,907.48505 231.27092,908.96073 194.31904,908.98509 174.92484,908.99788 158.04476,910.02043 156.80776,911.25742 155.57076,912.49442 154.26173,941.17585 153.89882,974.99393 L 153.23896,1036.4813 147.68698,1037.2697 C 144.58027,1037.7109 141.54968,1036.5328 140.80605,1034.5949 z M 210.83417,1021.2579 C 209.30107,1017.4406 206.05945,1010.4388 203.63058,1005.6982 196.38564,991.55771 179.99179,948.77704 176.49081,934.87539 170.83822,912.43014 183.14962,910.45466 190.36509,932.64913 197.75908,955.39274 210.52613,986.90261 218.40339,1001.8494 227.1328,1018.4131 227.35815,1026.2469 219.13878,1027.4146 215.01875,1027.9999 212.91576,1026.4408 210.83417,1021.2579 z M 81.399118,1019.0288 C 80.574328,1016.8794 82.96568,1005.5205 86.713233,993.78661 90.460785,982.05275 96.473151,960.26219 100.07405,945.36314 105.64856,922.29804 107.33996,918.27394 111.46014,918.27394 115.62023,918.27394 116.23594,919.82874 115.84863,929.35589 115.29508,942.97243 107.09648,983.89689 102.77472,994.61621 101.68255,997.32511 99.383196,1003.4202 97.665039,1008.1609 95.946882,1012.9014 93.482959,1018.1653 92.189656,1019.8585 88.916619,1024.1432 83.192824,1023.7031 81.399118,1019.0288 z M 99.755237,881.20791 C 97.570628,879.0233 100.66454,805.22419 103.04855,802.65233 107.96482,797.34869 109.98658,806.61007 110.81891,838.24721 111.29939,856.51067 111.21457,873.9537 110.63043,877.00949 109.65688,882.10225 103.15836,884.61104 99.755237,881.20791 z M 181.83598,875.69413 C 180.53828,873.26936 178.69455,856.90036 177.73879,839.31858 176.27883,812.46144 176.58989,806.86301 179.68486,804.29441 185.37488,799.57211 188.07486,804.95961 189.90777,824.69308 190.78841,834.1743 192.1911,848.84026 193.02486,857.28411 194.07966,867.96647 193.59835,873.77215 191.44258,876.36968 187.37575,881.26991 184.7201,881.08316 181.83598,875.69413 z"
       id="path3042"
       style="fill:#000000" />
  </g>
</svg>
