<?xml version="1.0" encoding="UTF-8" standalone="no"?>
<!-- Created with Inkscape (http://www.inkscape.org/) -->

<svg
   xmlns:dc="http://purl.org/dc/elements/1.1/"
   xmlns:cc="http://creativecommons.org/ns#"
   xmlns:rdf="http://www.w3.org/1999/02/22-rdf-syntax-ns#"
   xmlns:svg="http://www.w3.org/2000/svg"
   xmlns="http://www.w3.org/2000/svg"
   version="1.1"
   width="300"
   height="300"
   id="svg2">
  <defs
     id="defs4" />
  <metadata
     id="metadata7">
    <rdf:RDF>
      <cc:Work
         rdf:about="">
        <dc:format>image/svg+xml</dc:format>
        <dc:type
           rdf:resource="http://purl.org/dc/dcmitype/StillImage" />
        <dc:title></dc:title>
      </cc:Work>
    </rdf:RDF>
  </metadata>
  <g
     transform="translate(0,-752.36218)"
     id="layer1">
    <path
       d="M 125.07558,1031.9053 C 121.61269,1025.7431 123.44455,981.98699 136.17228,894.22813 137.29432,886.49157 144.29029,850.09277 139.61402,844.25828 136.33584,840.16815 118.66693,841.94471 118.66693,841.94471 99.85825,839.40625 80.903,831.7501 88.18626,824.34975 90.52769,821.97068 97.83832,823.85685 111.25594,823.35324 111.25594,823.35324 137.22984,826.33957 143.31885,820.37263 147.87132,815.91144 148.04101,796.67187 148.04101,796.67187 146.36128,773.25526 152.8754,771.90498 174.13612,771.41544 198.84002,770.84662 204.97607,770.94152 213.49538,772.61892 216.94219,773.29757 215.54853,779.78162 210.46368,783.85735 206.42082,787.09786 198.21138,788.96522 192.44979,789.06534 172.46043,789.41269 163.60078,787.41791 163.65432,796.74232 163.69557,803.92608 161.73553,817.64688 164.85023,823.05515 166.07441,825.18079 170.93395,823.7916 174.81255,823.74637 195.10124,823.50977 215.89344,825.18693 215.38828,835.48316 215.13706,840.60346 206.79382,840.47245 192.01205,840.47245 180.67893,840.47245 158.91834,840.96999 158.30769,845.58356 153.22185,884.00825 145.17864,917.65789 143.11027,965.0855 141.69794,997.46999 139.6879,1030.5125 138.32619,1032.7158 134.3641,1039.1267 129.03289,1038.9473 125.07558,1031.9053 z M 173.61807,1019.7996 C 167.87708,1015.3821 171.91177,949.80822 178.18027,919.84795 184.94146,887.5329 186.23981,883.64721 192.78348,883.14532 199.18953,882.65398 200.70915,897.42427 197.53239,917.67908 195.40851,931.22073 193.78589,937.41104 192.14977,948.44606 183.98755,1003.4971 183.66832,1027.533 173.61807,1019.7996 z M 87.22815,983.16322 C 82.50965,978.44473 84.6424,906.1417 89.7343,891.53504 92.86742,882.54738 94.93745,873.86342 99.35936,875.37518 108.63782,878.54731 103.89729,954.76048 99.76706,969.19635 95.1832,985.21777 92.9971,988.93218 87.22815,983.16322 z M 94.69961,800.28091 C 90.27365,795.65816 92.9075,785.8894 95.65543,778.46634 98.67264,770.31588 102.25978,764.84202 106.99729,768.54064 110.79604,771.50637 110.4185,782.6092 107.24431,794.23919 105.38213,801.06209 102.00956,807.91589 94.69961,800.28091 z"
       id="path3120"
       style="fill:#000000" />
  </g>
</svg>
