<?xml version="1.0" encoding="UTF-8" standalone="no"?>
<!-- Created with Inkscape (http://www.inkscape.org/) -->

<svg
   xmlns:dc="http://purl.org/dc/elements/1.1/"
   xmlns:cc="http://creativecommons.org/ns#"
   xmlns:rdf="http://www.w3.org/1999/02/22-rdf-syntax-ns#"
   xmlns:svg="http://www.w3.org/2000/svg"
   xmlns="http://www.w3.org/2000/svg"
   xmlns:sodipodi="http://sodipodi.sourceforge.net/DTD/sodipodi-0.dtd"
   xmlns:inkscape="http://www.inkscape.org/namespaces/inkscape"
   width="300"
   height="300"
   id="svg2"
   version="1.1"
   inkscape:version="0.48.4 r9939"
   sodipodi:docname="釆-bronze.svg">
  <defs
     id="defs4" />
  <sodipodi:namedview
     id="base"
     pagecolor="#ffffff"
     bordercolor="#666666"
     borderopacity="1.0"
     inkscape:pageopacity="0.0"
     inkscape:pageshadow="2"
     inkscape:zoom="1.979899"
     inkscape:cx="197.54756"
     inkscape:cy="163.09582"
     inkscape:document-units="px"
     inkscape:current-layer="layer1"
     showgrid="false"
     inkscape:window-width="773"
     inkscape:window-height="484"
     inkscape:window-x="405"
     inkscape:window-y="279"
     inkscape:window-maximized="0" />
  <metadata
     id="metadata7">
    <rdf:RDF>
      <cc:Work
         rdf:about="">
        <dc:format>image/svg+xml</dc:format>
        <dc:type
           rdf:resource="http://purl.org/dc/dcmitype/StillImage" />
        <dc:title></dc:title>
      </cc:Work>
    </rdf:RDF>
  </metadata>
  <g
     inkscape:label="Layer 1"
     inkscape:groupmode="layer"
     id="layer1"
     transform="translate(0,-752.36218)">
    <path
       style="fill:#000000"
       d="M 142.65962,1036.0469 C 138.20955,1033.2966 137.76237,1019.0887 140.01758,952.10307 141.6195,904.52125 141.29907,870.58412 139.23584,869.30897 134.89363,866.62534 87.58442,897.71004 69.2201,915.31307 53.23034,930.63999 46.34823,931.82133 46.34823,919.23911 46.34823,906.42751 84.05483,873.98887 129.84549,847.40719 139.89183,841.57525 142.32325,837.72323 142.32805,827.63144 142.33676,809.35743 153.58938,789.91633 171.11425,777.89767 187.80748,766.44935 203.74537,763.82699 203.74537,772.52866 203.74537,777.89602 182.82835,797.82312 177.19434,797.82312 172.93327,797.82312 165.35581,815.93931 165.35581,826.12672 165.35581,835.42075 176.42147,847.48825 192.2285,855.43237 219.46622,869.12122 253.65177,894.91058 253.65177,901.7697 253.65177,912.54507 244.42402,910.85476 223.07398,896.16851 192.80501,875.34713 169.42872,865.15659 164.10948,870.46384 161.08294,873.48357 158.96542,900.75753 157.67791,953.3033 156.57964,998.12567 154.10228,1033.2916 151.88738,1035.4992 149.61837,1037.7608 145.79948,1037.9874 142.65962,1036.0469 z M 67.76064,1017.1259 C 66.61969,1015.2799 70.64407,1004.7033 76.70369,993.62237 82.76331,982.54144 90.89719,958.9895 94.77896,941.28465 98.58122,923.9424 99.51713,906.48119 102.99984,905.71409 108.08294,904.59449 109.93962,915.52067 110.88044,930.08211 113.58041,971.87026 80.75007,1038.1433 67.76064,1017.1259 z M 208.70411,1010.8535 C 199.6086,1004.4827 194.37081,983.40232 190.33458,936.92213 187.66001,906.12236 189.92102,893.79698 198.24563,893.79698 201.27049,893.79698 203.82284,894.22886 203.91754,894.75671 204.01225,895.28458 204.95331,905.21787 206.00881,916.83071 208.78328,947.3561 215.33308,978.60405 221.4588,990.53987 232.66244,1012.37 226.0056,1022.9719 208.70411,1010.8535 z M 66.78545,853.10795 C 63.99612,845.83907 105.72136,805.95786 116.40915,805.67735 129.60615,805.33099 122.8838,819.36318 100.35073,839.1976 76.08362,860.55841 70.52798,862.86082 66.78545,853.10795 z M 206.865,834.80116 C 179.54095,819.55346 178.53847,818.50363 184.4736,811.35223 191.73165,802.6068 203.38253,804.26425 226.0583,817.26803 242.20629,826.52836 246.20221,830.71658 245.25306,837.38652 243.51091,849.62927 232.05446,848.85769 206.865,834.80116 z"
       id="path3009"
       inkscape:connector-curvature="0"
       sodipodi:nodetypes="cssssssssssssssssccsssscssssssssssssssss" />
  </g>
</svg>
