<?xml version="1.0" encoding="UTF-8" standalone="no"?>
<!-- Created with Inkscape (http://www.inkscape.org/) -->

<svg
   xmlns:dc="http://purl.org/dc/elements/1.1/"
   xmlns:cc="http://creativecommons.org/ns#"
   xmlns:rdf="http://www.w3.org/1999/02/22-rdf-syntax-ns#"
   xmlns:svg="http://www.w3.org/2000/svg"
   xmlns="http://www.w3.org/2000/svg"
   version="1.1"
   width="300"
   height="300"
   id="svg2">
  <defs
     id="defs4" />
  <metadata
     id="metadata7">
    <rdf:RDF>
      <cc:Work
         rdf:about="">
        <dc:format>image/svg+xml</dc:format>
        <dc:type
           rdf:resource="http://purl.org/dc/dcmitype/StillImage" />
        <dc:title></dc:title>
      </cc:Work>
    </rdf:RDF>
  </metadata>
  <g
     transform="translate(0,-752.36218)"
     id="layer1">
    <path
       d="M 185.69937,1032.9568 C 180.78202,1030.5708 171.82104,1023.5594 165.78609,1017.3761 165.78609,1017.3761 159.04446,1010.8496 156.76868,1006.1334 152.40938,997.09951 151.03405,976.27934 151.03405,976.27934 148.95539,959.85959 147.16945,938.13386 147.06531,927.99994 146.96118,917.86604 146.35769,902.3627 145.72422,893.54811 L 144.57247,877.52155 138.31402,876.02063 C 134.87188,875.19512 118.5043,873.95547 101.94162,873.26585 73.083791,872.06429 71.683397,871.83385 68.369537,867.74141 66.467578,865.39259 65.206228,863.17602 65.566539,862.81571 65.926851,862.4554 72.822203,860.49147 80.889546,858.4514 92.595574,855.49119 96.678549,855.13302 101.10943,856.67763 104.16302,857.74212 109.51036,858.61307 112.99242,858.61307 116.47447,858.61307 123.99859,859.5787 129.71267,860.75893 137.94523,862.45933 140.56594,862.44079 142.3372,860.66958 143.95276,859.05405 144.70455,847.92459 145.04891,820.52603 145.31096,799.67645 145.85252,779.8014 146.25239,776.35927 146.65224,772.91713 147.04134,769.49733 147.11703,768.75973 147.38689,766.13 155.69162,767.47455 158.52637,770.60693 160.98346,773.32198 161.48907,780.28905 161.93274,817.54524 L 162.45373,861.29525 189.27562,862.56977 C 229.89311,864.49983 237.94223,866.17107 233.33825,871.71851 231.57846,873.83893 224.56928,874.49078 198.22512,874.98402 176.63883,875.38817 164.60588,876.30577 163.26284,877.65012 161.79408,879.12033 161.44999,891.25573 162.04602,920.56516 162.97483,966.23892 166.31377,987.12279 175.39725,1004.0723 179.75116,1012.1965 181.92068,1014.0787 193.74594,1019.9905 201.12196,1023.6779 209.22943,1026.6953 211.76253,1026.6959 216.48625,1026.6969 225.1377,1034.0478 222.96835,1036.2172 222.30371,1036.8818 215.65793,1037.3962 208.19996,1037.3604 197.58696,1037.3092 192.69694,1036.3523 185.69937,1032.9568 z M 213.68734,971.71204 C 211.26382,967.09326 206.60495,935.24069 205.60063,916.42333 204.88028,902.92682 205.20067,899.84401 207.41181,898.99551 210.9355,897.64334 216.50143,900.70595 217.69803,904.65542 219.3532,910.11844 222.57463,967.7591 221.42688,971.3753 220.05702,975.69137 215.8709,975.87351 213.68734,971.71204 z M 88.420138,967.00392 C 87.013056,965.30849 86.522562,955.32934 86.860098,935.26468 87.340543,906.70488 87.446789,905.98498 91.261456,905.44198 94.399828,904.99525 95.513669,906.12846 96.911219,911.18997 97.868623,914.65741 98.222819,920.69383 97.698322,924.60425 97.173823,928.51469 97.701769,938.25964 98.871537,946.25971 100.7244,958.93149 100.63241,961.36387 98.157467,965.14109 94.9659,970.01205 91.47147,970.68056 88.420138,967.00392 z M 86.871173,829.5484 C 83.335834,825.78521 83.153874,824.19946 84.131323,805.67123 84.868113,791.70482 84.57327,785.45103 83.136143,784.56283 79.54634,782.34421 80.941817,778.11673 85.884268,776.23761 89.787173,774.75373 91.302297,775.0441 94.063279,777.80508 97.057997,780.7998 97.442647,783.95082 97.371478,804.90563 97.275115,833.27779 95.121958,838.33095 86.871173,829.5484 z M 205.48128,829.55601 C 201.98724,813.01135 199.94451,774.80981 202.42144,772.33289 203.72219,771.03214 205.75681,771.42366 209.10833,773.61965 L 213.92559,776.77605 212.7969,794.00189 C 212.11599,804.39372 212.42564,813.97062 213.57739,818.14151 214.62745,821.94409 215.00522,826.97318 214.41689,829.31729 213.00909,834.92641 206.65132,835.09627 205.48128,829.55601 z"
       id="path2996"
       style="fill:#000000" />
  </g>
</svg>
