<?xml version="1.0" encoding="UTF-8" standalone="no"?>
<!-- Created with Inkscape (http://www.inkscape.org/) -->

<svg
   xmlns:dc="http://purl.org/dc/elements/1.1/"
   xmlns:cc="http://creativecommons.org/ns#"
   xmlns:rdf="http://www.w3.org/1999/02/22-rdf-syntax-ns#"
   xmlns:svg="http://www.w3.org/2000/svg"
   xmlns="http://www.w3.org/2000/svg"
   version="1.1"
   width="300"
   height="300"
   id="svg2">
  <defs
     id="defs4" />
  <metadata
     id="metadata7">
    <rdf:RDF>
      <cc:Work
         rdf:about="">
        <dc:format>image/svg+xml</dc:format>
        <dc:type
           rdf:resource="http://purl.org/dc/dcmitype/StillImage" />
        <dc:title></dc:title>
      </cc:Work>
    </rdf:RDF>
  </metadata>
  <g
     transform="translate(0,-752.36218)"
     id="layer1">
    <g
       transform="translate(-87.857142,-25.000006)"
       id="g3011"
       style="fill:#ff0000" />
    <path
       d="M 67.025385,1036.5553 C 57.095983,1034.8203 54.872145,1026.9473 63.647549,1024.5968 67.123262,1023.6659 83.576964,1022.7408 100.21133,1022.5412 116.8457,1022.3417 134.16744,1021.3888 138.70408,1020.4237 146.76947,1018.7081 147.71685,1020.8708 147.76434,1000.1797 147.78821,989.78466 148.30042,978.8969 146.5126,975.5563 143.47333,969.87738 140.92945,969.8679 113.84903,971.40145 91.646484,972.65876 84.807621,972.18783 82.355088,969.23271 79.934535,966.31612 80.514321,964.16583 84.905206,959.77495 89.805392,954.87476 93.987777,954.092 115.2701,954.092 138.13083,954.092 141.38332,954.54896 145.2975,948.57516 148.56083,943.5947 146.86263,937.92594 146.27547,926.40171 145.55969,912.35313 146.39491,910.65416 134.10989,906.859 115.17536,901.00961 105.71943,893.57349 97.295531,880.26065 89.753629,868.34171 89.148534,865.34303 88.242918,835.39872 87.27576,803.41954 87.301265,803.26758 95.680081,791.08939 106.41777,775.4827 119.81101,769.01704 144.20564,767.66342 172.95567,766.06811 194.3385,770.83992 205.07623,781.24734 218.82491,794.57308 220.51389,801.46169 219.28188,839.18601 217.67566,888.3684 210.67394,899.5607 177.19684,906.45924 163.24786,907.10494 165.65293,907.57647 164.33318,930.53483 163.4669,950.96087 164.90763,955.45627 171.13816,953.36526 174.03905,952.3917 185.02924,950.78953 194.60219,950.49795 209.08894,950.05668 212.66824,950.87123 215.94773,955.35556 218.11485,958.31885 219.46236,962.03065 218.9422,963.60402 218.41725,965.19191 207.75785,966.82393 194.9842,967.27213 182.32744,967.71624 169.52565,968.71142 167.27862,969.92621 164.89201,971.21646 163.54949,1002.6216 167.5056,1013.0269 167.5056,1013.0269 167.70837,1019.6531 170.18703,1020.0796 177.7946,1021.3887 204.70991,1020.0796 204.70991,1020.0796 233.61472,1020.0796 239.50364,1020.7854 240.89721,1024.417 245.08049,1035.3185 238.36438,1036.3137 154.97525,1037.1496 110.99685,1037.5905 71.419414,1037.323 67.025385,1036.5553 z M 143.30028,875.0206 C 143.15577,868.51558 144.39794,858.10069 143.30637,851.67378 141.69052,842.16005 140.10428,839.81472 134.77085,839.05348 123.12385,837.39109 103.50453,837.4379 104.33556,845.57752 105.83426,860.25694 117.96271,879.6258 125.39657,883.68855 137.10274,890.08623 143.66704,891.53106 143.30028,875.0206 z M 188.3829,884.50356 C 194.58207,881.29784 196.31654,876.31794 199.69861,864.68401 206.48947,841.32429 205.77448,839.05562 183.21787,839.05562 162.61632,837.57545 162.51628,839.20353 162.47555,860.02316 162.55561,870.63178 163.07159,881.45787 164.07824,884.08114 166.33288,889.95666 177.73369,890.01048 188.3829,884.50356 z M 143.7929,807.90037 C 144.8743,800.14611 146.90887,786.55575 145.57776,785.22465 144.18383,783.83072 133.82316,785.05958 126.46625,787.86921 116.62252,785.34499 101.63589,810.89353 104.24922,820.14608 105.02849,822.17681 112.1639,821.86616 118.62058,822.89194 143.93887,826.91426 141.05516,827.53148 143.7929,807.90037 z M 201.38773,821.77238 C 204.22189,818.35742 203.43805,814.31799 200.44329,805.24376 196.44017,793.11417 190.33379,787.93141 176.70065,785.09226 169.65097,783.62413 167.01289,781.91073 164.64221,786.34039 160.67499,793.75321 159.60187,817.84704 163.69492,821.94009 168.59471,826.83988 197.12417,826.90965 201.38773,821.77238 z"
       id="path3820"
       style="fill:#000000" />
  </g>
</svg>
