<?xml version="1.0" standalone="no"?>
<!DOCTYPE svg PUBLIC "-//W3C//DTD SVG 20010904//EN"
 "http://www.w3.org/TR/2001/REC-SVG-20010904/DTD/svg10.dtd">
<svg version="1.0" xmlns="http://www.w3.org/2000/svg"
 width="469pt" height="469pt" viewBox="0 0 469 469"
 preserveAspectRatio="xMidYMid meet">
<metadata>
Created by potrace 1.8, written by Peter Selinger 2001-2007
</metadata>
<g transform="translate(0,469) scale(0.514286,-0.514286)"
fill="#000000" stroke="none">
<path d="M266 679 c-90 -15 -87 0 -79 -352 6 -314 9 -333 44 -291 10 12 12 49
10 145 -3 167 -3 169 60 169 l49 0 0 -40 c0 -33 3 -40 20 -40 25 0 28 13 34
193 5 163 -2 203 -41 218 -27 10 -28 10 -97 -2z m80 -74 c4 -8 3 -31 0 -50 -7
-34 -8 -35 -56 -35 l-50 0 0 34 c0 19 7 42 16 50 20 21 83 21 90 1z m2 -162
l-3 -38 -52 -3 c-53 -3 -53 -3 -53 27 0 36 21 50 73 51 38 0 38 0 35 -37z"/>
<path d="M518 673 c-47 -7 -48 -17 -41 -216 6 -168 8 -187 24 -187 18 0 29 19
29 51 0 16 7 19 43 19 90 0 86 7 89 -164 3 -143 4 -151 23 -151 19 0 20 8 23
301 l2 302 -31 26 c-31 26 -78 32 -161 19z m138 -98 c10 -57 2 -65 -66 -65
l-60 0 0 43 c0 24 3 47 7 50 3 4 30 7 59 7 53 0 53 0 60 -35z m4 -150 l0 -45
-65 0 -65 0 0 38 c0 21 3 42 7 45 3 4 33 7 65 7 l58 0 0 -45z"/>
</g>
</svg>
