<?xml version="1.0" encoding="UTF-8" standalone="no"?>
<!-- Created with Inkscape (http://www.inkscape.org/) -->

<svg
   xmlns:dc="http://purl.org/dc/elements/1.1/"
   xmlns:cc="http://creativecommons.org/ns#"
   xmlns:rdf="http://www.w3.org/1999/02/22-rdf-syntax-ns#"
   xmlns:svg="http://www.w3.org/2000/svg"
   xmlns="http://www.w3.org/2000/svg"
   xmlns:sodipodi="http://sodipodi.sourceforge.net/DTD/sodipodi-0.dtd"
   xmlns:inkscape="http://www.inkscape.org/namespaces/inkscape"
   width="300"
   height="300"
   id="svg2"
   version="1.1"
   inkscape:version="0.48.3.1 r9886"
   sodipodi:docname="Nouveau document 1">
  <defs
     id="defs4" />
  <sodipodi:namedview
     id="base"
     pagecolor="#ffffff"
     bordercolor="#666666"
     borderopacity="1.0"
     inkscape:pageopacity="0.0"
     inkscape:pageshadow="2"
     inkscape:zoom="1.979899"
     inkscape:cx="173.19729"
     inkscape:cy="166.82086"
     inkscape:document-units="px"
     inkscape:current-layer="layer1"
     showgrid="false"
     inkscape:window-width="1215"
     inkscape:window-height="1000"
     inkscape:window-x="65"
     inkscape:window-y="24"
     inkscape:window-maximized="1" />
  <metadata
     id="metadata7">
    <rdf:RDF>
      <cc:Work
         rdf:about="">
        <dc:format>image/svg+xml</dc:format>
        <dc:type
           rdf:resource="http://purl.org/dc/dcmitype/StillImage" />
        <dc:title></dc:title>
      </cc:Work>
    </rdf:RDF>
  </metadata>
  <g
     inkscape:label="Calque 1"
     inkscape:groupmode="layer"
     id="layer1"
     transform="translate(0,-752.36218)">
    <path
       style="fill:#000000"
       d="m 96.761924,1023.1554 c -2.311122,-11.1904 -4.398092,-34.51655 -5.102356,-57.02934 -1.423356,-45.49943 -2.681541,-60.85536 -5.59984,-68.34519 -5.753003,-14.76509 -6.949207,-24.34969 -4.516185,-36.18598 2.782299,-13.53546 7.810982,-25.7628 13.019076,-31.65613 3.236755,-3.6626 2.819717,-4.68315 -5.251276,-12.85065 -7.87726,-7.97141 -9.144944,-8.53432 -12.487786,-5.54494 -2.046291,1.82993 -4.724086,3.32713 -5.950656,3.32713 -1.226571,0 -6.454375,2.01674 -11.617339,4.48166 -5.162967,2.46491 -10.967207,4.48165 -12.898314,4.48165 -5.302525,0 -4.254388,-8.42818 1.263343,-10.15867 4.771477,-1.49647 29.874268,-21.50827 40.579633,-32.34986 13.109636,-13.27647 28.761646,-14.9041 39.015706,-4.0572 6.1134,6.46686 6.70912,8.3523 5.75124,18.20292 l -1.06855,10.98883 11.59943,-1.59349 c 20.64554,-2.83623 99.45072,-3.88371 97.83499,-1.30042 -0.80539,1.28771 -3.32043,2.34128 -5.58897,2.34128 -2.26855,0 -7.56576,1.39845 -11.7716,3.1077 -4.20585,1.7092 -15.0223,4.31739 -24.03654,5.79596 l -16.38955,2.68829 0.56511,11.57045 0.56512,11.57041 25.96697,-0.61086 c 31.2914,-0.73611 30.91288,1.9328 -1.12123,7.90573 l -22.67702,4.22823 -0.70408,10.79705 c -0.38726,5.93839 0.19774,11.68819 1.29993,12.77734 1.16023,1.1465 13.69938,0.92569 29.7809,-0.52444 15.27729,-1.3776 28.27064,-2.01681 28.8741,-1.42051 2.03311,2.00902 -37.60839,12.29474 -51.3139,13.31434 l -7.93695,0.59046 0.75417,23.52867 c 0.41478,12.94078 1.63197,30.58728 2.70487,39.21446 1.94185,15.61444 -1.27995,48.17776 -4.76667,48.17776 -2.48729,0 -6.62934,-26.61682 -6.62934,-42.60015 0,-7.8225 -0.96775,-17.31943 -2.15057,-21.1043 -1.18282,-3.78486 -3.31451,-15.60565 -4.7371,-26.26839 l -2.58653,-19.38682 -27.01075,1.22972 c -25.89483,1.17892 -27.01074,1.04496 -27.01074,-3.24208 0,-3.8984 2.39888,-4.80303 18.70855,-7.05505 10.28972,-1.4208 22.05659,-2.58197 26.14864,-2.58041 l 7.44006,0.003 -0.75698,-11.76433 -0.75696,-11.76434 -22.65185,0.79173 c -18.91568,0.66116 -23.16267,0.18353 -25.74907,-2.89599 -4.91297,-5.84961 -0.63155,-7.4376 23.26215,-8.62788 12.23364,-0.60943 22.69676,-1.55645 23.25138,-2.1045 0.55461,-0.54804 0.36954,-5.60197 -0.41125,-11.23099 l -1.41963,-10.23457 -21.26482,-0.12867 c -11.69565,-0.0708 -21.26481,0.59904 -21.26481,1.48836 0,0.88932 -3.88599,5.64006 -8.63552,10.5572 -14.291699,14.79607 -16.884841,22.6539 -14.216383,43.07915 1.250286,9.57006 3.353463,22.94616 4.673733,29.72466 2.48121,12.73901 6.37242,51.76143 6.92692,69.46561 0.46215,14.75531 -2.26042,45.06419 -4.62961,51.53899 -1.12742,3.0811 -2.35242,8.0727 -2.72224,11.0924 -0.36981,3.0197 -2.432181,-3.0305 -4.583056,-13.4449 z M 113.37883,804.2793 c 4.31383,-9.35718 4.51856,-11.22885 1.75746,-16.06633 -1.71885,-3.01142 -4.3022,-5.85983 -5.74077,-6.32978 -2.46843,-0.80638 -14.392187,9.24017 -14.392187,12.12637 0,1.41091 12.100047,20.84981 12.982617,20.85673 0.28064,0.003 2.70744,-4.76193 5.39288,-10.58699 z"
       id="path2996"
       inkscape:connector-curvature="0" />
  </g>
</svg>
