<?xml version="1.0" encoding="UTF-8" standalone="no"?>
<!-- Created with Inkscape (http://www.inkscape.org/) -->

<svg
   xmlns:dc="http://purl.org/dc/elements/1.1/"
   xmlns:cc="http://creativecommons.org/ns#"
   xmlns:rdf="http://www.w3.org/1999/02/22-rdf-syntax-ns#"
   xmlns:svg="http://www.w3.org/2000/svg"
   xmlns="http://www.w3.org/2000/svg"
   version="1.1"
   width="300"
   height="300"
   id="svg2">
  <defs
     id="defs4" />
  <metadata
     id="metadata7">
    <rdf:RDF>
      <cc:Work
         rdf:about="">
        <dc:format>image/svg+xml</dc:format>
        <dc:type
           rdf:resource="http://purl.org/dc/dcmitype/StillImage" />
        <dc:title></dc:title>
      </cc:Work>
    </rdf:RDF>
  </metadata>
  <g
     transform="translate(0,-752.36218)"
     id="layer1">
    <path
       d="M 78.485591,1035.0895 C 76.277239,1032.4287 76.150037,1027.3673 77.995401,1015.5848 79.366022,1006.8335 81.750836,986.69151 83.294988,970.82478 88.115913,921.288 98.636684,891.45938 120.19756,866.19821 126.59257,858.70567 134.81217,854.18877 133.78448,852.52593 132.79896,850.93134 123.55936,844.81208 117.55905,842.15786 107.41363,837.67006 102.76181,837.96355 95.595335,841.66948 86.701656,846.26859 80.748447,844.53884 80.748447,838.15014 80.748447,834.17243 100.53132,822.6024 130.05513,807.82558 136.4267,804.63658 141.48499,801.87371 143.84924,798.19469 146.35258,794.29922 145.97139,789.39172 145.97139,782.42378 145.97139,761.07181 160.10327,762.99978 161.52069,784.54514 161.52069,784.54514 162.1953,795.92595 163.39843,797.41364 165.7138,800.27661 185.10758,807.54958 185.10758,807.54958 212.61445,821.41291 216.67728,824.57708 215.70539,831.37938 215.05488,835.93233 213.09288,837.83543 200.91865,836.92141 184.80698,835.71179 170.76123,841.48676 169.02285,846.71817 167.41986,851.54217 183.6836,858.43019 196.67095,862.7164 207.3721,866.2481 214.86315,873.8742 212.83159,879.16838 210.62075,884.92972 207.22931,883.73785 186.41115,873.02932 172.78853,866.02206 165.82677,861.30715 163.86959,863.26432 160.19723,866.93668 159.40729,889.80027 163.16099,893.55398 164.85858,895.25156 173.8639,895.56754 182.68412,895.56754 200.23337,895.56754 212.11964,899.0491 210.57129,903.73585 209.88784,905.80464 212.28486,907.6999 185.9088,908.11042 185.9088,908.11042 165.55147,907.32356 162.80572,908.30752 160.09774,909.27792 160.64089,917.63269 160.64089,917.63269 160.44124,921.90491 160.66205,927.12995 162.47239,928.63241 164.28274,930.13485 175.2929,932.72265 187.0591,932.90729 209.73808,933.26318 209.94004,935.32676 209.94004,938.21331 209.94004,941.20494 205.07011,942.23325 186.17934,943.23046 160.52509,944.35664 161.93166,940.85818 160.25444,955.47173 156.48502,974.60795 159.86027,974.19042 192.10024,975.59799 218.64181,976.75677 226.08121,980.05406 222.41307,985.98923 221.03015,988.22684 214.72493,988.60451 198.92562,987.39608 140.16287,982.90154 98.157447,979.33572 95.369359,981.63911 93.741352,982.9841 92.857263,996.23957 91.89725,1008.5115 90.618282,1024.8606 88.991301,1031.8742 85.809795,1034.7534 82.056478,1038.1502 81.063504,1038.1958 78.485591,1035.0895 z M 145.59809,958.78959 C 144.72456,938.53392 147.86291,941.1177 123.4416,941.2382 99.489047,940.40739 97.276218,942.62873 95.799894,957.3279 94.214117,973.11685 101.40719,972.60766 125.1871,972.60766 146.77663,973.7029 145.59809,977.14881 145.59809,958.78959 z M 147.85692,925.05182 C 149.75049,907.26401 148.83893,907.84036 126.93818,908.11042 107.38871,908.35148 108.17637,907.07153 103.84074,925.60048 102.8824,929.69607 107.81457,928.06937 117.74992,928.8984 140.63555,930.80806 147.0364,932.7596 147.85692,925.05182 z M 146.21721,893.55398 C 150.06492,889.70627 151.77827,862.61264 145.46022,861.72882 141.88567,861.22878 115.83763,888.54984 115.63608,892.86409 115.494,895.90569 121.13463,895.56754 130.41823,895.56754 137.04086,895.56754 144.56155,895.20964 146.21721,893.55398 z M 150.98853,829.05156 C 150.58502,822.72817 156.05514,818.87677 161.08093,821.89421 163.08512,823.09751 164.9534,828.97286 165.80556,831.70887 166.46796,833.83562 170.25972,834.11428 176.87421,829.78031 180.5734,827.35651 186.09878,825.32177 185.96722,824.20997 185.43863,819.74266 177.4125,817.65205 169.85,813.95206 169.85,813.95206 160.19775,806.81442 156.09999,807.22481 150.3683,807.79884 139.11996,816.02304 139.11996,816.02304 127.73589,821.92171 117.17371,825.7198 116.70682,829.05926 116.30286,831.94867 124.64664,834.58868 132.14269,836.8111 145.65999,840.81866 151.98525,844.67103 150.98853,829.05156 z"
       id="path3881"
       style="fill:#000000" />
  </g>
</svg>
