<?xml version="1.0" encoding="UTF-8" standalone="no"?>
<!-- Created with Inkscape (http://www.inkscape.org/) -->

<svg
   xmlns:dc="http://purl.org/dc/elements/1.1/"
   xmlns:cc="http://creativecommons.org/ns#"
   xmlns:rdf="http://www.w3.org/1999/02/22-rdf-syntax-ns#"
   xmlns:svg="http://www.w3.org/2000/svg"
   xmlns="http://www.w3.org/2000/svg"
   xmlns:sodipodi="http://sodipodi.sourceforge.net/DTD/sodipodi-0.dtd"
   xmlns:inkscape="http://www.inkscape.org/namespaces/inkscape"
   width="300"
   height="300"
   id="svg2"
   version="1.1"
   inkscape:version="0.48.3.1 r9886"
   sodipodi:docname="隹-.svg">
  <defs
     id="defs4" />
  <sodipodi:namedview
     id="base"
     pagecolor="#ffffff"
     bordercolor="#666666"
     borderopacity="1.0"
     inkscape:pageopacity="0.0"
     inkscape:pageshadow="2"
     inkscape:zoom="1.979899"
     inkscape:cx="173.19729"
     inkscape:cy="166.82086"
     inkscape:document-units="px"
     inkscape:current-layer="layer1"
     showgrid="false"
     inkscape:window-width="1215"
     inkscape:window-height="1000"
     inkscape:window-x="65"
     inkscape:window-y="24"
     inkscape:window-maximized="1" />
  <metadata
     id="metadata7">
    <rdf:RDF>
      <cc:Work
         rdf:about="">
        <dc:format>image/svg+xml</dc:format>
        <dc:type
           rdf:resource="http://purl.org/dc/dcmitype/StillImage" />
        <dc:title></dc:title>
      </cc:Work>
    </rdf:RDF>
  </metadata>
  <g
     inkscape:label="Calque 1"
     inkscape:groupmode="layer"
     id="layer1"
     transform="translate(0,-752.36218)">
    <path
       style="fill:#000000"
       d="m 131.27208,1006.0894 c 3.6299,-63.7898 3.28515,-68.23497 -5.78386,-74.57065 -10.11471,-7.06619 -21.31047,-23.86821 -31.004954,-46.53071 -7.850565,-18.35184 0.620924,-36.62011 24.112624,-51.99757 17.14646,-11.22396 17.76085,-15.86903 3.69616,-27.94614 -10.53818,-9.04891 -10.82783,-9.07102 -27.788547,-2.11949 -20.998473,8.60643 -44.16361,5.70729 -32.546083,-4.07318 11.395637,-9.59372 77.42061,-28.81193 90.878,-26.45234 18.5807,3.25795 27.11878,21.69024 18.10959,39.09567 -6.86149,13.25617 -6.51889,14.70027 5.03931,21.23871 6.82079,3.85848 12.40145,8.70464 12.40145,10.76923 0,2.06459 9.98003,10.93806 22.17783,19.71884 21.63133,15.57164 27.4642,23.70297 17.00291,23.70297 -7.32,0 -58.40565,-35.41493 -62.85735,-43.57563 -2.03371,-3.72814 -7.51845,-6.77843 -12.18839,-6.77843 -6.49251,0 -8.49067,4.55775 -8.49067,19.36696 0,10.6518 2.11327,19.36693 4.6961,19.36693 15.25403,0 73.06804,56.65362 72.75001,71.28988 -0.17576,8.07451 -0.21734,8.07633 -8.49217,0.36798 -4.57368,-4.26073 -15.09811,-13.64744 -23.38763,-20.85933 -8.28947,-7.21186 -17.38565,-15.92699 -20.21377,-19.36695 -5.49084,-6.67876 -20.25839,-15.61126 -26.14545,-15.81469 -5.87446,-0.20297 -11.03885,12.63549 -6.05831,15.0607 2.53731,1.2355 10.7034,8.34696 18.14689,15.80324 7.44349,7.45627 20.42201,18.60869 28.84128,24.78313 8.41921,6.1745 15.30764,14.79446 15.30764,19.15554 0,6.73258 -2.83228,5.76903 -18.76727,-6.38455 -24.52564,-18.70571 -32.77485,-18.64301 -27.81211,0.21149 2.10273,7.98888 5.63727,15.39673 7.85449,16.46191 2.21723,1.06519 10.86248,11.10237 19.21161,22.3049 8.34919,11.20258 17.40272,21.32778 20.11901,22.50058 2.71629,1.1728 4.93873,4.5893 4.93873,7.5923 0,9.1634 -13.93118,2.3729 -28.13186,-13.7123 -7.39836,-8.3802 -16.21583,-15.28367 -19.59439,-15.34095 -3.37852,-0.0574 -8.36854,7.16325 -11.08893,16.04575 -8.31131,27.1382 -16.70811,21.9008 -14.93189,-9.3135 z m -3.87535,-142.95637 c 0,-7.64901 -2.4052,-11.15489 -6.93058,-10.10227 -8.16432,1.89908 -11.97309,12.55378 -7.43867,20.80887 5.03798,9.17182 14.36925,2.21905 14.36925,-10.7066 z m 27.72229,-65.06763 c 0,-4.57006 -10.81363,-9.45881 -14.78524,-6.68427 -3.97155,2.7746 3.02632,10.32906 9.56801,10.32906 2.86949,0 5.21723,-1.64015 5.21723,-3.64479 z"
       id="path3041"
       inkscape:connector-curvature="0" />
  </g>
</svg>
