<?xml version="1.0" encoding="UTF-8" standalone="no"?>
<!-- Created with Inkscape (http://www.inkscape.org/) -->

<svg
   xmlns:dc="http://purl.org/dc/elements/1.1/"
   xmlns:cc="http://creativecommons.org/ns#"
   xmlns:rdf="http://www.w3.org/1999/02/22-rdf-syntax-ns#"
   xmlns:svg="http://www.w3.org/2000/svg"
   xmlns="http://www.w3.org/2000/svg"
   xmlns:sodipodi="http://sodipodi.sourceforge.net/DTD/sodipodi-0.dtd"
   xmlns:inkscape="http://www.inkscape.org/namespaces/inkscape"
   width="300"
   height="300"
   id="svg2"
   version="1.1"
   inkscape:version="0.48.3.1 r9886"
   sodipodi:docname="隹-.svg">
  <defs
     id="defs4" />
  <sodipodi:namedview
     id="base"
     pagecolor="#ffffff"
     bordercolor="#666666"
     borderopacity="1.0"
     inkscape:pageopacity="0.0"
     inkscape:pageshadow="2"
     inkscape:zoom="1.979899"
     inkscape:cx="173.19729"
     inkscape:cy="166.82086"
     inkscape:document-units="px"
     inkscape:current-layer="layer1"
     showgrid="false"
     inkscape:window-width="1215"
     inkscape:window-height="1000"
     inkscape:window-x="65"
     inkscape:window-y="24"
     inkscape:window-maximized="1" />
  <metadata
     id="metadata7">
    <rdf:RDF>
      <cc:Work
         rdf:about="">
        <dc:format>image/svg+xml</dc:format>
        <dc:type
           rdf:resource="http://purl.org/dc/dcmitype/StillImage" />
        <dc:title></dc:title>
      </cc:Work>
    </rdf:RDF>
  </metadata>
  <g
     inkscape:label="Calque 1"
     inkscape:groupmode="layer"
     id="layer1"
     transform="translate(0,-752.36218)">
    <path
       style="fill:#000000"
       d="m 139.1474,1032.8113 c -10.23114,-5.7818 -23.81122,-23.9675 -23.81122,-31.8867 0,-3.24279 2.58792,-10.46882 5.75099,-16.0579 3.16302,-5.5891 5.75162,-12.60957 5.75244,-15.60107 7.8e-4,-2.9915 1.39487,-7.18773 3.098,-9.32495 5.40843,-6.78705 10.03857,-21.74203 8.47731,-27.38113 -1.07069,-3.8671 -6.07654,-7.55283 -17.28614,-12.72758 -13.99673,-6.4614 -16.35138,-8.54684 -20.84662,-18.46329 -8.479605,-18.70593 -7.018258,-40.42321 3.80513,-56.54769 3.02304,-4.5037 5.49645,-9.45058 5.49645,-10.99308 0,-1.54251 1.29429,-3.34179 2.87622,-3.9984 3.34328,-1.38769 3.90438,-9.99614 0.71347,-10.94613 -2.89224,-0.86108 -15.094564,-25.23307 -15.094564,-30.14875 0,-4.36756 -5.190858,-6.23103 -17.357197,-6.23103 -10.105762,0 -22.07241,-3.47483 -24.082626,-6.99302 -4.90562,-8.58561 65.775527,-13.97011 96.058937,-7.31776 19.66239,4.31922 24.10017,8.18971 22.43757,19.56931 -1.2607,8.62873 -17.17221,29.04174 -25.25134,32.39516 -13.00525,5.39811 19.70592,15.47615 58.99427,18.17564 25.01599,1.71884 36.7018,4.14943 32.74043,6.80987 -0.72897,0.48957 -12.534,1.09761 -26.23342,1.3512 -24.08948,0.44589 -24.97034,0.62399 -26.80462,5.41995 -2.76218,7.22204 -3.75615,11.65079 -4.75917,21.20524 -0.832,7.92503 -0.32484,8.62428 7.26674,10.01937 4.48863,0.82488 17.43161,1.71264 28.76217,1.97279 23.79688,0.54637 27.79157,1.2015 27.79157,4.55772 0,3.3413 -22.27829,5.02174 -49.63716,3.74409 -19.81,-0.92511 -22.49541,-0.64945 -23.93872,2.45722 -0.89414,1.92458 -2.82552,5.00861 -4.29196,6.85343 -1.46644,1.84483 -2.66625,5.53915 -2.66625,8.20959 0,5.27256 -1.61954,5.04004 40.26704,5.78082 16.8927,0.29875 28.76218,2.24297 28.76218,4.71122 0,2.67306 -41.25709,8.04205 -54.85295,7.13829 -7.23127,-0.48069 -14.40418,-0.29201 -15.93982,0.41929 -4.01936,1.8618 -10.5357,16.41314 -9.29214,20.74987 1.06652,3.71933 41.08595,23.78253 47.72746,23.9275 1.9774,0.043 3.59527,1.42174 3.59527,3.06351 0,2.39841 -2.11974,2.72327 -10.78582,1.65308 -13.61994,-1.68195 -38.92444,-9.33476 -43.73331,-13.22621 -5.39093,-4.36252 -8.75766,-1.82576 -8.75766,6.59871 0,8.04832 2.25491,9.72015 31.3422,23.23775 16.3064,7.57807 19.63057,12.83137 6.76769,10.69537 -4.35027,-0.7224 -16.53055,-4.2535 -27.06725,-7.84699 -16.03753,-5.46946 -19.43368,-6.05043 -20.85257,-3.56713 -2.46273,4.31018 -2.07897,9.94062 0.93948,13.78372 1.44895,1.8448 4.84188,6.8312 7.53989,11.0809 2.69798,4.2497 8.22613,10.1171 12.28476,13.0388 l 7.37933,5.3121 -7.50795,0 c -4.12943,0 -11.22882,-2.1027 -15.77652,-4.6727 z m 10.70337,-122.9445 c 0,-2.19469 1.16192,-5.45438 2.58205,-7.24376 1.42013,-1.78938 3.038,-5.28359 3.59528,-7.76488 0.84391,-3.75763 -0.90921,-4.96319 -10.49165,-7.21471 -6.32767,-1.48676 -15.71134,-2.71628 -20.85257,-2.73227 -8.21609,-0.0255 -9.3477,0.59343 -9.3477,5.11327 0,7.37163 13.08052,21.46367 20.85692,22.4698 12.33814,1.59638 13.65767,1.34252 13.65767,-2.62745 z m 13.8033,-37.19481 c 7.21659,-13.40321 2.89753,-30.28663 -7.74781,-30.28663 -1.64126,0 -7.68088,-1.50422 -13.42138,-3.34268 -10.07068,-3.22528 -10.58133,-3.21042 -14.5375,0.42323 -3.9965,3.67068 -7.8807,11.66317 -11.38216,23.42117 -1.57768,5.29778 -0.76635,6.08321 9.30711,9.01011 9.12886,2.65244 26.04367,6.27608 32.74836,7.01567 0.86864,0.0958 3.13367,-2.71258 5.03338,-6.24087 z m -26.35793,-66.50544 c 8.92123,-6.95885 16.04786,-17.17777 14.87189,-21.32482 -0.74286,-2.61961 -4.65435,-3.42309 -18.88438,-3.87905 -22.24273,-0.71273 -22.1104,-1.19066 -7.51366,27.13555 2.32197,4.50601 3.53336,4.30298 11.52615,-1.93168 z"
       id="path3028"
       inkscape:connector-curvature="0" />
  </g>
</svg>
