<?xml version="1.0" encoding="UTF-8" standalone="no"?>
<!-- Created with Inkscape (http://www.inkscape.org/) -->
<svg
   xmlns:svg="http://www.w3.org/2000/svg"
   xmlns="http://www.w3.org/2000/svg"
   xmlns:xlink="http://www.w3.org/1999/xlink"
   version="1.0"
   width="300"
   height="300"
   id="svg2">
  <defs
     id="defs5" />
  <use
     transform="translate(-37.33851,67.39148)"
     id="use2777"
     x="0"
     y="0"
     width="300"
     height="300"
     xlink:href="#path2773" />
  <use
     transform="translate(0.455329,-31.87441)"
     id="use2789"
     x="0"
     y="0"
     width="300"
     height="300"
     xlink:href="#use2775" />
  <use
     transform="translate(-71.48961,67.39148)"
     id="use2775"
     x="0"
     y="0"
     width="300"
     height="300"
     xlink:href="#path2773" />
  <use
     transform="translate(-71.94496,5.919526)"
     id="use2785"
     x="0"
     y="0"
     width="300"
     height="300"
     xlink:href="#path2773" />
  <use
     transform="translate(-38.24921,3.187436)"
     id="use2787"
     x="0"
     y="0"
     width="300"
     height="300"
     xlink:href="#path2773" />
  <use
     transform="translate(-37.33852,32.78505)"
     id="use2781"
     x="0"
     y="0"
     width="300"
     height="300"
     xlink:href="#path2773" />
  <use
     transform="translate(3.642785,62.838)"
     id="use2779"
     x="0"
     y="0"
     width="300"
     height="300"
     xlink:href="#path2773" />
  <use
     transform="translate(2.732085,30.96366)"
     id="use2783"
     x="0"
     y="0"
     width="300"
     height="300"
     xlink:href="#path2773" />
  <path
     d="M 171.19136,66.970194 C 171.19136,59.645904 180.8456,54.690834 185.68571,59.530934 C 190.64934,64.494564 185.74882,73.351114 178.03871,73.351114 C 173.56754,73.351114 171.19136,71.136784 171.19136,66.970194 z "
     style="fill:black;fill-opacity:1"
     id="path2773" />
  <path
     d="M 109.0119,260.73588 C 107.8637,255.63757 105.62954,246.15726 104.04711,239.66852 C 100.56261,225.38041 101.48313,155.40857 105.15566,155.40303 C 110.98055,155.39424 114.12649,173.81104 112.22331,196.77813 C 110.73919,214.68823 111.72121,226.30352 115.93597,240.69129 C 121.60613,260.04727 121.12235,270.00551 114.51188,270.00551 C 112.63509,270.00551 110.1601,265.83418 109.0119,260.73588 z M 138.33327,237.84208 C 131.75004,215.9241 131.19654,210.09381 134.31746,195.54146 C 136.30838,186.25814 137.98555,173.8076 138.04451,167.87359 C 138.14756,157.50204 138.35035,157.34539 143.28411,163.82603 C 147.32437,169.13304 147.94042,175.70531 146.17919,194.7119 C 144.47078,213.14847 145.29815,222.93957 149.67907,236.12927 C 155.17654,252.68062 154.83386,263.26396 148.80046,263.26396 C 147.24311,263.26396 142.53287,251.82411 138.33327,237.84208 z M 189.78186,253.99432 C 188.7499,250.74995 185.00538,240.68815 181.46071,231.63477 C 174.72143,214.4221 172.113,162.14065 177.9935,162.14065 C 182.25421,162.14065 185.02866,174.67098 185.08386,194.16303 C 185.11011,203.43267 188.16452,218.99665 191.87144,228.74965 C 199.27922,248.23973 200.5003,259.89318 195.13473,259.89318 C 193.22262,259.89318 190.81382,257.23869 189.78186,253.99432 z M 61.79714,228.71349 C 74.44758,184.58077 75.12558,179.2747 74.8261,126.74749 C 74.39047,50.340874 77.69734,44.537717 125.73902,37.401715 C 167.79881,31.154249 212.14839,37.811484 221.15029,51.723729 C 222.6583,54.054324 223.89212,87.815016 223.89212,126.74749 C 223.89212,188.86755 224.64417,198.91226 230.03487,208.79307 C 236.01868,219.761 235.51307,231.92806 229.23473,228.04783 C 227.51216,226.98322 219.54979,216.7035 218.67745,203.79904 C 215.41005,155.46437 210.88753,130.92053 211.91349,91.04413 C 212.32788,74.937724 214.46698,65.450537 212.17063,61.159774 C 206.24341,50.084655 187.28832,46.519862 143.84052,48.309253 C 106.58762,49.843509 103.02013,50.582245 95.22634,58.376028 C 86.21536,67.387008 85.88904,70.373594 87.38772,130.11826 C 88.05838,156.85404 78.13605,215.32877 70.51116,229.57601 C 65.54352,238.85813 59.07282,238.21766 61.79714,228.71349 z "
     style="fill:black;fill-opacity:1"
     id="path1875" />
</svg>
