<?xml version="1.0" encoding="UTF-8" standalone="no"?>
<!-- Created with Inkscape (http://www.inkscape.org/) -->
<svg
   xmlns:dc="http://purl.org/dc/elements/1.1/"
   xmlns:cc="http://web.resource.org/cc/"
   xmlns:rdf="http://www.w3.org/1999/02/22-rdf-syntax-ns#"
   xmlns:svg="http://www.w3.org/2000/svg"
   xmlns="http://www.w3.org/2000/svg"
   xmlns:sodipodi="http://sodipodi.sourceforge.net/DTD/sodipodi-0.dtd"
   xmlns:inkscape="http://www.inkscape.org/namespaces/inkscape"
   id="svg2178"
   sodipodi:version="0.32"
   inkscape:version="0.45.1"
   width="300"
   height="300"
   version="1.0"
   sodipodi:docbase="C:\Documents and Settings\Martin\桌面"
   sodipodi:docname="非-seal1.svg"
   inkscape:output_extension="org.inkscape.output.svg.inkscape">
  <metadata
     id="metadata2183">
    <rdf:RDF>
      <cc:Work
         rdf:about="">
        <dc:format>image/svg+xml</dc:format>
        <dc:type
           rdf:resource="http://purl.org/dc/dcmitype/StillImage" />
      </cc:Work>
    </rdf:RDF>
  </metadata>
  <defs
     id="defs2181" />
  <sodipodi:namedview
     inkscape:window-height="577"
     inkscape:window-width="742"
     inkscape:pageshadow="2"
     inkscape:pageopacity="0.0"
     guidetolerance="10.0"
     gridtolerance="10.0"
     objecttolerance="10.0"
     borderopacity="1.0"
     bordercolor="#666666"
     pagecolor="#ffffff"
     id="base"
     width="300px"
     height="300px"
     inkscape:zoom="1.066317"
     inkscape:cx="157.35848"
     inkscape:cy="165.19989"
     inkscape:window-x="22"
     inkscape:window-y="0"
     inkscape:current-layer="svg2178"
     showguides="true"
     inkscape:guide-bbox="true" />
  <path
     style="fill:#000000"
     d="M 162.81317,276.11863 C 161.0823,273.31805 159.55031,35.102734 161.21446,27.533723 C 162.45235,21.903528 169.00904,20.602503 172.74787,25.245184 C 174.1331,26.965311 174.69782,39.683579 174.16426,57.144648 C 173.6053,75.436205 174.14342,86.718974 175.61827,87.6305 C 179.31831,89.917253 193.54669,84.296579 194.8617,80.028707 C 195.51646,77.903753 196.7029,69.471175 197.49827,61.289672 C 199.11242,44.685615 199.72189,42.981362 204.04579,42.981362 C 210.19224,42.981362 214.32415,64.483923 209.80156,72.934467 C 209.02774,33.63495 217.78084,91.274036 194.49154,98.868598 C 171.6033,102.80958 173.03537,101.79447 173.77055,113.55654 L 174.43737,124.22447 L 194.71839,124.88945 C 216.53929,125.60491 224.7697,129.16359 218.6552,135.23931 C 216.99192,136.89205 213.05646,138.23902 209.90971,138.23257 C 206.76297,138.22611 197.3496,138.41865 188.99112,138.66041 L 173.79385,139.09997 L 172.71833,147.68198 C 171.08035,160.75201 173.93924,164.2739 186.18686,164.2739 C 199.56581,164.2739 211.13021,169.78456 214.13884,177.59356 C 215.43844,180.96668 217.06638,197.11444 217.75651,213.47749 C 218.44668,229.84055 219.63042,247.43941 220.38709,252.5861 C 221.43664,259.72495 220.82273,262.88385 217.79787,265.90867 C 210.56794,273.1386 207.46196,266.12794 206.12665,239.56487 C 205.46864,226.4755 204.24841,208.07293 203.41505,198.67025 L 201.89983,181.57446 L 191.9208,179.60513 C 186.43233,178.52201 179.64434,178.21242 176.83635,178.91718 C 171.90045,180.15601 171.75793,180.9789 172.54328,203.70366 C 173.67867,236.55668 173.44384,267.7037 172.02688,272.19596 C 170.54657,276.88906 164.80108,279.33516 162.81317,276.11863 z M 124.27759,272.64437 C 123.48234,270.57201 122.82704,251.32141 122.82135,229.86527 C 122.80782,178.76836 123.14009,179.89724 108.36616,180.75576 L 96.627051,181.43793 L 97.021851,194.02492 C 97.238981,200.94776 96.277061,219.34742 94.884251,234.9131 C 92.255441,264.29207 88.658226,274.03277 82.009392,269.77637 C 78.286922,267.39332 78.15683,225.54308 81.773308,193.83405 C 84.614025,168.9269 87.944671,165.22456 106.67533,166.15283 L 120.09867,166.81809 L 121.7298,155.94098 C 123.8682,141.68121 120.94783,139.42794 103.07708,141.54905 C 93.306031,142.70878 88.380411,142.26777 84.573523,139.89235 C 76.417654,134.80326 81.421012,128.29742 94.916601,126.44325 C 100.89212,125.62229 109.64312,123.97511 114.36323,122.78291 C 122.47117,120.73499 122.94524,120.11446 122.94524,111.5493 C 124.14711,105.02614 116.82993,98.328409 110.54546,97.906267 C 93.759121,97.906267 88.328118,85.311134 92.376981,55.77141 C 93.643731,46.529535 94.518641,45.132978 98.670461,45.725709 C 103.03484,46.34881 103.43364,47.694425 102.87087,59.899155 C 102.09858,76.647712 106.21065,84.175034 116.13238,84.175034 C 122.77567,84.175034 122.955,83.875992 123.33668,72.160207 C 123.55198,65.552075 123.9211,58.085717 124.15699,55.568324 C 124.39283,53.050932 124.73162,45.069654 124.9098,37.83215 C 125.14357,28.337503 126.11169,24.673049 128.38638,24.673049 C 137.40436,24.673049 137.62774,29.268023 135.89599,179.14939 C 134.6651,285.68439 135.22186,276.41231 130.05572,276.41231 C 127.67298,276.41231 125.07283,274.71673 124.27759,272.64437 z "
     id="path2187"
     sodipodi:nodetypes="cssssssscccccsscccsssssscccsssccscccssscccssssccssssssssssc" />
</svg>
