<?xml version="1.0" encoding="UTF-8" standalone="no"?>
<!-- Created with Inkscape (http://www.inkscape.org/) -->

<svg
   xmlns:dc="http://purl.org/dc/elements/1.1/"
   xmlns:cc="http://creativecommons.org/ns#"
   xmlns:rdf="http://www.w3.org/1999/02/22-rdf-syntax-ns#"
   xmlns:svg="http://www.w3.org/2000/svg"
   xmlns="http://www.w3.org/2000/svg"
   version="1.1"
   width="300"
   height="300"
   id="svg2">
  <defs
     id="defs4" />
  <metadata
     id="metadata7">
    <rdf:RDF>
      <cc:Work
         rdf:about="">
        <dc:format>image/svg+xml</dc:format>
        <dc:type
           rdf:resource="http://purl.org/dc/dcmitype/StillImage" />
        <dc:title></dc:title>
      </cc:Work>
    </rdf:RDF>
  </metadata>
  <g
     transform="translate(0,-752.36218)"
     id="layer1">
    <path
       d="M 135.45319,1034.5666 C 131.59997,1033.0182 124.95512,1032.4409 120.68685,1033.2838 110.39549,1035.3159 84.828927,1023.9381 78.713279,1014.6044 71.481868,1003.5679 68.476511,968.82087 69.443337,907.42824 70.763802,823.57987 73.695271,786.2789 79.530777,779.07236 86.419998,770.56453 117.8632,766.72351 174.68593,767.44846 223.86727,768.07592 230.7327,769.25003 230.7327,777.03348 230.7327,783.98669 209.63097,785.98814 160.06282,783.73637 127.30236,782.24814 117.17165,782.75226 104.23053,786.51472 95.535142,789.04279 87.148219,791.9247 86.530737,793.85681 85.913255,795.78891 85.778028,839.78417 85.292413,890.68624 84.343946,990.1045 84.537165,1001.7002 97.117182,1013.5186 104.32193,1020.2871 106.55845,1019.832 159.75864,1018.7547 188.55734,1018.1715 193.43832,1016.7197 201.28418,1010.5646 210.5275,1003.3131 212.05039,989.2763 212.30673,891.45717 212.4596,833.12843 214.40981,810.37941 215.54208,806.12424 216.26933,803.39116 221.19077,805.68506 224.69834,809.45537 229.53591,814.6553 229.68471,820.00349 227.46323,908.8294 226.09056,963.71493 223.86045,1005.7937 222.09403,1010.1374 216.90597,1022.8951 207.44136,1029.2163 187.06439,1033.5331 164.82363,1038.2448 145.56649,1038.6304 135.45319,1034.5666 z M 109.92783,976.62998 C 109.92783,976.62998 105.77079,973.47164 102.27905,969.15106 101.24675,967.87373 100.77602,897.35739 100.77602,897.35739 100.36922,814.84605 100.86885,812.778 122.00527,809.48612 162.69645,803.14869 194.73936,807.30459 196.81378,818.07735 197.60189,822.17008 192.68501,821.43897 175.12561,822.14742 155.3616,822.94482 153.28688,820.1505 152.6276,827.22028 151.40899,840.28779 160.60217,855.58498 175.20192,858.07873 179.17612,858.75754 177.48826,853.59172 177.48826,847.52109 177.48826,838.33874 184.5251,830.67515 188.92053,835.07057 190.60459,836.75464 190.76415,840.53517 189.32357,844.61987 187.01805,851.15701 187.21657,908.83386 189.66709,944.4264 190.80611,960.97021 190.39575,962.35502 181.15533,973.15037 181.15533,973.15037 175.96747,979.66153 171.44686,981.74259 163.46542,985.41684 145.08721,984.49259 145.08721,984.49259 120.16348,984.49259 118.24823,984.06425 109.92783,976.62998 z M 165.42576,967.28769 C 175.30369,961.05201 174.90948,957.84745 174.1524,950.02328 174.1524,950.02328 174.54204,942.75058 172.90111,940.86447 170.51034,938.11649 147.71986,939.66709 147.71986,939.66709 120.95958,940.49022 116.41229,939.9328 115.83682,953.80657 115.49972,961.9333 119.20266,968.45669 126.89751,971.45724 136.77143,975.30751 153.68403,974.69993 165.42576,967.28769 z M 156.1169,924.76138 C 176.86725,923.00729 177.48826,921.58293 177.48826,914.36729 177.48826,905.67878 174.03904,902.9851 142.99288,905.68353 120.37767,907.64917 115.42181,902.7531 113.07739,917.73684 112.25281,923.00692 122.85669,928.81212 129.59022,927.31538 133.5855,926.42731 146.26103,925.59452 156.1169,924.76138 z M 174.5516,888.12469 C 179.58143,871.9689 173.42351,874.16423 161.36814,865.6914 161.36814,865.6914 153.17303,858.13591 148.32997,858.10406 143.16571,858.07008 133.39328,868.39447 133.39328,868.39447 115.66315,880.58113 106.3187,887.89436 116.60711,889.76412 127.87682,891.8122 173.33895,892.01966 174.5516,888.12469 z M 129.35399,853.48323 C 144.08454,839.73724 145.45654,818.33362 131.11225,820.00083 125.67896,820.63232 121.14132,826.58314 116.31249,835.3611 110.09744,846.65894 109.01649,847.57842 113.27981,854.08506 115.77099,857.88708 117.37507,861.14802 119.93197,861.18965 122.87974,861.23766 124.81187,857.72176 129.35399,853.48323 z"
       id="path3812"
       style="fill:#000000" />
  </g>
</svg>
