<?xml version="1.0" encoding="UTF-8" standalone="no"?>
<!-- Created with Inkscape (http://www.inkscape.org/) -->

<svg
   xmlns:dc="http://purl.org/dc/elements/1.1/"
   xmlns:cc="http://creativecommons.org/ns#"
   xmlns:rdf="http://www.w3.org/1999/02/22-rdf-syntax-ns#"
   xmlns:svg="http://www.w3.org/2000/svg"
   xmlns="http://www.w3.org/2000/svg"
   version="1.1"
   width="300"
   height="300"
   id="svg2">
  <defs
     id="defs4" />
  <metadata
     id="metadata7">
    <rdf:RDF>
      <cc:Work
         rdf:about="">
        <dc:format>image/svg+xml</dc:format>
        <dc:type
           rdf:resource="http://purl.org/dc/dcmitype/StillImage" />
        <dc:title></dc:title>
      </cc:Work>
    </rdf:RDF>
  </metadata>
  <g
     transform="translate(0,-752.36218)"
     id="layer1">
    <path
       d="M 140.93134,1035.8039 C 140.01429,1034.8869 140.11139,1020.5461 140.11139,1004.3499 140.11139,984.65812 139.48636,974.137 137.54058,972.93445 135.94021,971.94535 119.67494,971.90281 102.84553,972.21846 85.869278,972.53686 75.740195,972.87069 71.476884,971.23147 67.751368,969.79903 68.505087,966.65962 73.083156,963.31206 78.414593,959.41362 115.61111,958.56691 117.91309,962.29159 119.44937,964.77735 134.20865,962.34759 139.8251,957.95619 143.79704,954.8506 142.85145,942.48598 138.93328,938.56781 137.28261,936.91714 130.64177,937.42665 124.38299,937.42151 111.83857,937.41121 98.792221,930.91984 94.246978,922.42698 90.805366,915.99626 93.602943,865.5941 97.536429,863.16307 98.965959,862.27957 103.11279,865.12294 106.75162,869.48167 109.40231,872.65677 108.43951,875.54393 109.62866,876.71374 111.04305,878.10511 115.08009,877.48867 125.98511,877.91507 145.56149,878.68052 143.61575,874.36529 144.26602,864.90158 145.11341,852.56897 140.05331,852.39652 132.31888,852.39652 129.0335,852.39652 122.97964,849.00199 118.78599,844.80835 111.66206,837.68441 111.29915,836.40906 112.85424,823.96254 113.8608,815.90634 114.12216,809.57247 111.50799,806.87409 108.86536,804.14633 103.28798,805.09281 93.264296,804.10966 75.074656,802.32555 71.925972,799.68607 79.250176,792.36186 83.442663,788.16937 88.047024,788.07158 93.774939,789.02451 110.90743,791.87477 111.75288,787.77293 111.75288,781.05116 111.75288,772.03262 114.37406,767.36219 119.4355,767.36219 124.60647,767.36219 129.03141,774.35381 129.25995,782.11583 129.36989,785.84976 129.01769,788.38182 130.83805,789.87895 134.6301,792.99768 143.89798,791.80256 158.60745,792.37228 189.23776,793.55863 184.28218,790.32024 184.28218,779.28854 184.28218,764.94605 198.33559,768.48005 199.76892,783.17975 200.6475,792.19014 196.79786,792.57625 211.1258,792.37228 222.25961,792.21378 233.09757,800.75667 230.50968,804.94397 229.68218,806.28287 222.38527,807.37835 214.29429,807.37835 206.20332,807.37835 198.9221,807.09258 198.1138,808.40044 197.30549,809.7083 195.91325,816.749 195.8485,821.97502 195.63375,839.30448 194.18609,844.81682 186.69912,848.68848 182.75531,850.72791 176.73912,852.4413 173.33047,852.39652 160.42654,852.22704 159.36402,855.46362 159.76227,868.34154 160.00494,876.18881 157.30342,877.51199 177.27382,878.07903 192.76335,878.51883 198.20009,878.61643 198.44056,871.74657 198.84167,860.28813 204.92548,865.0027 208.56658,868.09677 213.90802,872.63574 214.95245,871.04368 213.29774,894.58385 210.84566,929.46764 207.38931,936.17412 178.70065,937.85633 159.40621,938.9877 159.86456,938.08892 159.27207,948.52678 158.59655,960.42746 161.05619,960.49129 189.51556,959.07481 207.43021,958.18316 213.66543,958.27861 219.61141,961.3534 228.00074,965.69169 229.08128,970.5924 225.5554,971.65783 220.61623,973.15034 207.22758,971.93353 194.82529,972.445 176.9879,973.18061 165.92874,972.70572 160.9644,975.54958 157.59522,977.47964 158.00715,984.05741 157.68116,988.66839 155.84972,1014.5739 153.22446,1033.9448 150.79087,1035.5572 147.30515,1037.8667 143.0993,1037.9719 140.93134,1035.8039 z M 184.32202,922.37272 C 195.85812,920.61645 197.26955,910.58491 196.36704,899.52792 195.82144,892.84358 196.48711,892.53937 177.86017,892.47683 156.2123,892.08523 160.63809,891.65507 159.76552,906.82533 159.25885,919.93662 159.79344,921.0818 164.93702,923.1455 172.42066,926.14807 173.51693,924.0177 184.32202,922.37272 z M 143.7612,909.7007 C 144.67971,895.56825 141.8611,892.89257 125.2571,892.13495 117.26336,891.77021 111.94296,890.34549 109.47154,892.07082 107.04776,893.7629 107.40303,898.54947 106.75086,903.81483 105.05608,917.49799 109.65089,923.52588 131.53685,924.1291 146.86019,923.23528 142.81259,924.29651 143.7612,909.7007 z M 177.89907,835.05205 C 179.68308,833.26805 180.3796,826.51271 181.00263,821.21093 183.03592,803.90836 178.4486,804.87733 152.84776,804.87733 127.81251,804.87733 126.75149,802.68457 127.35241,823.7165 129.93504,839.28506 129.07258,837.12302 144.27759,837.69219 166.97803,841.28081 173.59103,839.36009 177.89907,835.05205 z"
       id="path3825"
       style="fill:#1a1a1a" />
  </g>
</svg>
