<?xml version="1.0" encoding="UTF-8" standalone="no"?>
<!-- Created with Inkscape (http://www.inkscape.org/) -->

<svg
   xmlns:dc="http://purl.org/dc/elements/1.1/"
   xmlns:cc="http://creativecommons.org/ns#"
   xmlns:rdf="http://www.w3.org/1999/02/22-rdf-syntax-ns#"
   xmlns:svg="http://www.w3.org/2000/svg"
   xmlns="http://www.w3.org/2000/svg"
   version="1.1"
   width="300"
   height="300"
   id="svg2">
  <defs
     id="defs4" />
  <metadata
     id="metadata7">
    <rdf:RDF>
      <cc:Work
         rdf:about="">
        <dc:format>image/svg+xml</dc:format>
        <dc:type
           rdf:resource="http://purl.org/dc/dcmitype/StillImage" />
        <dc:title></dc:title>
      </cc:Work>
    </rdf:RDF>
  </metadata>
  <g
     transform="translate(0,-752.36218)"
     id="layer1">
    <path
       d="M 57.562458,1033.2515 C 54.287004,1030.8564 52.918843,1027.3136 54.034031,1024.4074 55.53752,1020.4894 60.388295,1019.6607 81.820375,1019.6607 96.451062,1019.6607 106.13272,1021.364 110.47381,1018.4854 114.65389,1015.7135 113.07876,1008.5048 113.76075,999.74875 114.87302,985.46821 107.40443,985.02634 95.325971,985.02634 84.362781,985.02634 73.361428,979.00081 72.026744,972.26516 65.699248,940.33268 69.298712,918.24861 80.152036,922.41341 83.811653,923.81775 84.89871,928.11908 84.89871,941.19536 84.89871,960.28658 85.166672,968.06713 103.06321,967.70912 116.66582,967.437 116.08336,962.47889 118.21722,939.63305 120.61916,913.91705 119.41008,909.24352 109.16851,909.4289 96.420607,909.65965 79.693817,903.42461 76.535554,896.49298 71.775848,886.04655 72.490804,859.45645 77.646444,855.17766 86.031479,848.21869 89.229406,853.69271 90.138922,872.85567 90.138922,872.85567 87.908314,887.40764 92.299599,891.59546 95.595829,893.28632 117.24847,892.87943 118.46081,891.41009 121.13206,888.17256 120.05224,841.52077 118.46081,841.41772 113.52689,841.09822 103.65904,840.45924 103.65904,840.45924 89.554121,839.54588 83.989519,838.84061 80.38168,833.00996 77.448638,828.26987 76.543946,819.95379 74.213256,806.90596 71.548052,791.98544 73.305347,788.60191 77.308867,787.06561 85.114263,784.0704 90.671118,791.28525 90.671118,804.41474 90.671118,820.92347 89.524604,823.75726 105.10214,823.3989 121.2185,823.02815 119.53316,823.38592 119.53316,795.31213 119.53316,772.75209 123.40022,766.76378 132.88532,774.63571 136.78815,777.87478 137.21501,782.74141 135.63502,805.98531 134.60633,821.11873 133.0821,869.21739 132.24784,912.87123 131.41359,956.52507 129.92825,997.86345 129.62682,1004.9609 128.80169,1020.8648 127.13161,1017.6227 142.25831,1020.2093 151.43446,1021.7784 160.34964,1023.4451 163.94604,1020.2908 169.01369,1015.8461 165.72783,997.33125 165.76375,952.455 165.8381,859.55422 167.7181,782.5268 170.09353,775.05498 172.48332,767.53798 176.37796,763.32565 183.07245,772.94188 185.26832,776.09611 186.20611,782.86025 185.16282,794.36579 184.14715,805.56684 182.94203,814.07699 185.96237,818.67625 188.51999,822.57088 194.68451,823.3989 200.58198,823.3989 210.75423,823.3989 214.59253,823.91606 214.77791,795.79206 214.85505,784.0893 215.39159,782.99204 221.93842,782.99204 230.89066,782.99204 232.88799,790.92783 231.14136,815.07482 229.71839,834.74714 228.11708,836.8728 209.0055,839.33426 199.74079,840.5275 192.59028,840.12316 189.29552,842.98324 185.7191,846.0878 186.00538,852.73135 184.9821,862.5018 182.11735,889.85466 182.81169,892.11167 197.22847,892.6678 207.4581,893.06241 211.95239,896.00486 213.95307,871.5774 214.90795,859.91862 216.96433,853.25345 221.49941,853.25345 226.53903,853.25345 227.86591,858.872 228.618,876.01778 229.78389,902.5968 227.50572,905.89285 206.31148,908.2907 196.778,909.3693 187.9104,910.56677 186.83228,912.3112 185.75416,914.05564 184.65365,928.51753 184.83984,941.27674 185.24729,969.1995 187.22175,975.37775 204.05369,968.56626 213.96651,964.55477 210.61386,961.47601 211.91638,946.87797 213.52192,928.88372 216.95476,923.21748 224.49732,926.11183 228.73541,927.73813 229.29679,931.81122 228.5877,955.79004 229.05422,984.67063 231.66048,983.24866 208.18966,985.26493 197.42277,986.18987 187.08984,985.72813 185.68065,987.1844 181.84332,991.14975 178.57216,1017.5499 182.12422,1021.102 183.82781,1022.8055 200.83801,1023.1455 216.54205,1023.4452 243.75189,1023.9647 245.12607,1024.2929 246.00534,1030.484 247.08364,1040.5791 251.08752,1036.4098 154.91999,1036.978 82.053796,1036.978 61.799352,1036.3495 57.562458,1033.2515 z"
       id="path3838"
       style="fill:#000000" />
  </g>
</svg>
