<?xml version="1.0" encoding="UTF-8" standalone="no"?>
<!-- Created with Inkscape (http://www.inkscape.org/) -->

<svg
   xmlns:dc="http://purl.org/dc/elements/1.1/"
   xmlns:cc="http://creativecommons.org/ns#"
   xmlns:rdf="http://www.w3.org/1999/02/22-rdf-syntax-ns#"
   xmlns:svg="http://www.w3.org/2000/svg"
   xmlns="http://www.w3.org/2000/svg"
   xmlns:sodipodi="http://sodipodi.sourceforge.net/DTD/sodipodi-0.dtd"
   xmlns:inkscape="http://www.inkscape.org/namespaces/inkscape"
   width="300"
   height="300"
   id="svg2"
   version="1.1"
   inkscape:version="0.48.4 r9939"
   sodipodi:docname="音-seal.svg">
  <defs
     id="defs4" />
  <sodipodi:namedview
     id="base"
     pagecolor="#ffffff"
     bordercolor="#666666"
     borderopacity="1.0"
     inkscape:pageopacity="0.0"
     inkscape:pageshadow="2"
     inkscape:zoom="1"
     inkscape:cx="359.44265"
     inkscape:cy="275.95978"
     inkscape:document-units="px"
     inkscape:current-layer="layer1"
     showgrid="false"
     inkscape:window-width="1600"
     inkscape:window-height="873"
     inkscape:window-x="-4"
     inkscape:window-y="-4"
     inkscape:window-maximized="1" />
  <metadata
     id="metadata7">
    <rdf:RDF>
      <cc:Work
         rdf:about="">
        <dc:format>image/svg+xml</dc:format>
        <dc:type
           rdf:resource="http://purl.org/dc/dcmitype/StillImage" />
        <dc:title></dc:title>
      </cc:Work>
    </rdf:RDF>
  </metadata>
  <g
     inkscape:label="Layer 1"
     inkscape:groupmode="layer"
     id="layer1"
     transform="translate(0,-752.36218)">
    <path
       style="opacity:1;fill:#000000"
       d="M 112.52723,1032.9365 C 88.189405,1019.7874 84.140551,1009.9632 85.216244,966.66786 86.021639,934.25168 86.306977,932.92491 92.667348,932.02155 97.520748,931.33221 100.04576,933.09372 102.15443,938.63992 104.7507,945.46864 97.32022,945.62193 120.91876,946.19764 146.28384,946.81646 144.09206,942.29659 141.3943,931.33707 140.19284,926.4562 139.71258,920.80575 137.51246,918.57462 134.37464,915.39258 128.66157,916.76568 120.2562,916.73833 104.54647,916.68721 87.312679,911.34027 79.203123,904.00123 72.673046,898.09158 65.364556,867.53122 68.282612,858.33724 71.603036,847.8755 84.582959,852.67489 84.582959,864.36436 84.582959,876.77344 90.362079,892.34072 99.373565,895.48214 111.40193,899.67525 134.58365,900.99161 138.96153,896.61372 143.74511,891.83016 143.16999,881.71445 139.16675,876.04184 135.67124,871.0887 129.56202,870.36284 122.12433,868.59621 112.30553,866.26401 105.48489,856.4647 103.16011,841.35007 102.02056,833.94124 103.19976,827.67721 100.40271,824.95926 96.725619,821.38618 87.831377,822.65456 74.287702,822.65456 51.012975,822.65456 43.400506,818.72669 50.070155,810.15883 53.188033,806.15359 66.958293,805.23228 148.16442,803.59568 233.27251,801.88045 243.10804,802.16822 247.44012,806.5003 250.08477,809.14495 252.24858,812.48436 252.24858,813.9212 252.24858,815.35804 241.37415,816.91808 228.08317,817.38797 213.87798,817.89018 205.58973,815.27505 202.23122,818.93215 199.25255,822.17562 200.6365,830.83771 197.97929,843.75373 195.86886,854.01202 182.55141,869.71859 175.96395,869.71859 166.4474,869.71859 159.48762,873.06856 161.57691,889.3136 162.48825,896.39965 159.47305,898.56232 172.44146,898.61062 184.66684,898.65615 198.35431,896.25453 204.08343,888.07507 206.44574,884.7024 208.12605,874.01382 208.12605,866.48276 208.12605,839.99091 224.53781,840.26073 226.02902,866.77709 227.23364,888.19726 226.10671,894.72682 220.09076,901.18419 213.98813,907.73459 189.73205,916.93614 173.17602,917.11686 160.28394,917.25759 162.11335,919.46845 160.31905,928.17197 156.41292,947.11924 156.56112,947.09029 172.8858,946.19764 183.90187,945.59528 188.47089,947.80348 189.36998,935.48566 190.20842,923.99869 191.60314,922.53108 198.54763,929.47557 202.22701,933.15495 203.38479,941.53392 203.87153,968.00471 204.73321,1014.867 203.44503,1019.5998 187.41819,1028.4535 170.2976,1037.9114 126.57932,1040.5284 112.52723,1032.9365 z M 155.17901,1019.4232 C 169.44138,1019.4611 184.4262,1017.3062 184.39019,1007.1257 184.37546,1002.9632 184.96989,995.66591 183.42662,994.12271 181.75847,992.45461 167.36421,994.00901 151.88982,995.04571 133.1366,996.30211 112.71337,997.46741 110.35579,999.82491 101.912,1008.2688 112.70328,1023.8972 139.00076,1021.0447 143.90865,1020.5124 151.13445,1019.4125 155.17901,1019.4232 z M 184.0361,981.38938 C 186.39888,977.64505 186.08564,969.02318 183.33675,965.55971 176.98823,957.56082 109.79397,960.31728 103.58711,966.93188 101.36029,969.30499 101.99647,976.35765 103.25187,977.61306 106.22567,980.58686 130.47163,982.96641 157.79867,982.96641 175.30443,982.96641 181.4204,985.53451 184.0361,981.38938 z M 166.72645,853.86041 C 173.82196,850.89571 176.98506,848.19019 178.26495,842.36894 179.26656,837.81331 179.77652,831.12745 180.47822,828.90011 181.17992,826.67277 180.93016,820.4658 178.78033,818.53866 176.35544,816.36496 136.12848,815.15605 126.30695,820.94414 115.03108,827.58932 118.27111,851.41737 138.28068,854.66565 152.12836,856.91363 155.37443,858.60359 166.72645,853.86041 z M 83.112209,782.02803 C 78.186943,780.86542 71.966818,777.6511 71.966818,775.20458 71.966818,768.56003 104.83122,766.20439 160.72784,767.88451 207.56005,769.2922 219.077,771.69918 212.14563,778.63055 208.5694,782.20679 96.383271,785.16067 83.112209,782.02803 z"
       id="path3851"
       inkscape:connector-curvature="0"
       sodipodi:nodetypes="sssssssssssssssssssssssssssssssssssssssscssssscssssssssssssssssss" />
  </g>
</svg>
