<?xml version="1.0" encoding="UTF-8" standalone="no"?>
<!-- Created with Inkscape (http://www.inkscape.org/) -->

<svg
   xmlns:dc="http://purl.org/dc/elements/1.1/"
   xmlns:cc="http://creativecommons.org/ns#"
   xmlns:rdf="http://www.w3.org/1999/02/22-rdf-syntax-ns#"
   xmlns:svg="http://www.w3.org/2000/svg"
   xmlns="http://www.w3.org/2000/svg"
   xmlns:sodipodi="http://sodipodi.sourceforge.net/DTD/sodipodi-0.dtd"
   xmlns:inkscape="http://www.inkscape.org/namespaces/inkscape"
   width="300"
   height="300"
   id="svg2"
   version="1.1"
   inkscape:version="0.47 r22583"
   sodipodi:docname="é -bigseal.svg">
  <defs
     id="defs4">
    <inkscape:perspective
       sodipodi:type="inkscape:persp3d"
       inkscape:vp_x="0 : 526.18109 : 1"
       inkscape:vp_y="0 : 1000 : 0"
       inkscape:vp_z="744.09448 : 526.18109 : 1"
       inkscape:persp3d-origin="372.04724 : 350.78739 : 1"
       id="perspective10" />
    <inkscape:perspective
       id="perspective2824"
       inkscape:persp3d-origin="0.5 : 0.33333333 : 1"
       inkscape:vp_z="1 : 0.5 : 1"
       inkscape:vp_y="0 : 1000 : 0"
       inkscape:vp_x="0 : 0.5 : 1"
       sodipodi:type="inkscape:persp3d" />
    <inkscape:perspective
       id="perspective2862"
       inkscape:persp3d-origin="0.5 : 0.33333333 : 1"
       inkscape:vp_z="1 : 0.5 : 1"
       inkscape:vp_y="0 : 1000 : 0"
       inkscape:vp_x="0 : 0.5 : 1"
       sodipodi:type="inkscape:persp3d" />
    <inkscape:perspective
       id="perspective2900"
       inkscape:persp3d-origin="0.5 : 0.33333333 : 1"
       inkscape:vp_z="1 : 0.5 : 1"
       inkscape:vp_y="0 : 1000 : 0"
       inkscape:vp_x="0 : 0.5 : 1"
       sodipodi:type="inkscape:persp3d" />
  </defs>
  <sodipodi:namedview
     id="base"
     pagecolor="#ffffff"
     bordercolor="#666666"
     borderopacity="1.0"
     inkscape:pageopacity="0.0"
     inkscape:pageshadow="2"
     inkscape:zoom="1.979899"
     inkscape:cx="176.12727"
     inkscape:cy="154.15432"
     inkscape:document-units="px"
     inkscape:current-layer="layer1"
     showgrid="false"
     inkscape:window-width="1280"
     inkscape:window-height="950"
     inkscape:window-x="0"
     inkscape:window-y="25"
     inkscape:window-maximized="1" />
  <metadata
     id="metadata7">
    <rdf:RDF>
      <cc:Work
         rdf:about="">
        <dc:format>image/svg+xml</dc:format>
        <dc:type
           rdf:resource="http://purl.org/dc/dcmitype/StillImage" />
        <dc:title></dc:title>
      </cc:Work>
    </rdf:RDF>
  </metadata>
  <g
     inkscape:label="Calque 1"
     inkscape:groupmode="layer"
     id="layer1"
     transform="translate(0,-752.36218)">
    <path
       style="fill:#000000"
       d="m 76.99028,1029.7783 c -8.81263,-11.8727 -5.892593,-27.8477 -1.956287,-40.99213 9.058877,-11.02677 24.255268,-11.93798 37.108857,-15.24047 10.33762,3.04871 16.75805,-7.38168 15.84143,-15.42586 9.13757,-7.1052 4.64114,-19.84406 -7.36258,-17.26993 -13.01366,-3.76052 -25.96914,-10.19215 -34.871215,-20.57272 -6.89242,-12.23656 -6.409592,-26.93439 -4.573783,-40.41691 9.312664,-8.81601 8.478891,-26.31973 -5.511087,-29.53772 -13.341271,-7.33572 -10.495237,-24.72618 -1.551237,-33.79182 5.348915,-8.93486 1.248602,-15.94272 4.35867,-24.90114 -0.876389,-11.81527 15.281223,-4.6056 21.015437,-1.40267 8.414125,5.11302 17.611355,15.44448 28.342515,10.58649 12.45745,-6.42796 0.20983,-33.6017 18.12451,-31.56615 16.70904,2.3766 15.3201,22.18495 23.96227,31.22143 12.69577,5.3778 29.53879,-5.84767 27.68144,-20.10701 -3.67411,-13.31511 8.6228,-20.27011 19.81184,-15.37496 10.35245,2.38235 21.31261,13.5002 15.57894,24.52399 -13.81205,10.05559 6.27813,14.91576 11.47689,22.23304 -8.59233,11.73842 -29.38117,5.34846 -43.06607,7.92462 -26.8802,0.80003 -53.94919,0.30019 -80.66374,3.37602 -13.46829,0.43423 -23.565238,20.46058 -6.09103,23.89699 11.08162,6.83215 23.52971,2.64913 33.92066,-3.05646 13.40613,-6.2876 30.30203,-13.92146 44.15006,-4.59037 10.51733,12.52606 25.52329,5.62333 38.51711,9.06865 13.53176,7.50355 -0.11512,21.88896 -1.09036,32.47437 -4.1793,15.48751 -8.05751,32.62244 -20.95209,43.42056 -12.29844,3.94404 -1.03724,14.34443 7.42135,12.46911 14.94741,4.9613 22.54603,23.74695 17.93137,38.19234 -6.62267,10.83808 -20.89518,8.11383 -31.60328,10.33594 -26.47528,5.99716 -53.93829,3.27219 -80.8183,5.80036 -15.56261,6.38918 -8.71139,26.70831 -17.59521,37.90941 -7.09598,7.6937 -19.297121,4.7943 -27.53708,0.813 z m 113.75946,-65.00155 c 11.20762,-14.14548 -19.07713,-18.80159 -22.82202,-5.36061 -11.76417,11.8717 9.67765,14.82412 17.18676,8.96743 2.05799,-0.8827 3.99205,-2.07925 5.63526,-3.60682 z m -35.07788,-38.98844 c 10.527,-6.85654 -13.695,-6.90887 -18.55306,-7.13339 -5.0382,-1.87481 -21.98335,-4.34661 -18.53746,1.81803 11.3273,5.73119 24.5997,8.0857 37.09052,5.31536 z m 38.20884,-23.52179 c -8.79594,-12.87694 -26.47758,-4.5053 -39.29572,-7.56226 -13.79683,-0.22103 -27.59126,-0.71673 -41.36062,-1.6259 4.82887,12.25508 21.45855,5.34708 31.54087,8.66829 14.186,0.49452 28.34718,2.81534 42.44954,3.3115 2.39342,-0.34221 4.88844,-1.03813 6.66593,-2.79163 z m 10.27509,-26.23991 c -9.32893,-10.39218 -23.01875,-20.42635 -37.40874,-19.85619 -12.92571,4.10823 -29.70947,6.92693 -38.7153,16.73277 11.46033,3.41863 25.44269,2.79667 37.89244,4.34889 12.5158,0.29362 25.77401,2.44646 37.89577,0.43194 l 0.35566,-0.78785 -0.0198,-0.86956 z"
       id="path2906" />
  </g>
</svg>
