<?xml version="1.0" encoding="UTF-8" standalone="no"?>
<!-- Created with Inkscape (http://www.inkscape.org/) -->

<svg
   xmlns:dc="http://purl.org/dc/elements/1.1/"
   xmlns:cc="http://creativecommons.org/ns#"
   xmlns:rdf="http://www.w3.org/1999/02/22-rdf-syntax-ns#"
   xmlns:svg="http://www.w3.org/2000/svg"
   xmlns="http://www.w3.org/2000/svg"
   xmlns:sodipodi="http://sodipodi.sourceforge.net/DTD/sodipodi-0.dtd"
   xmlns:inkscape="http://www.inkscape.org/namespaces/inkscape"
   width="300"
   height="300"
   id="svg2"
   version="1.1"
   inkscape:version="0.47 r22583"
   sodipodi:docname="é -bronze.svg">
  <defs
     id="defs4">
    <inkscape:perspective
       sodipodi:type="inkscape:persp3d"
       inkscape:vp_x="0 : 526.18109 : 1"
       inkscape:vp_y="0 : 1000 : 0"
       inkscape:vp_z="744.09448 : 526.18109 : 1"
       inkscape:persp3d-origin="372.04724 : 350.78739 : 1"
       id="perspective10" />
    <inkscape:perspective
       id="perspective2824"
       inkscape:persp3d-origin="0.5 : 0.33333333 : 1"
       inkscape:vp_z="1 : 0.5 : 1"
       inkscape:vp_y="0 : 1000 : 0"
       inkscape:vp_x="0 : 0.5 : 1"
       sodipodi:type="inkscape:persp3d" />
    <inkscape:perspective
       id="perspective2862"
       inkscape:persp3d-origin="0.5 : 0.33333333 : 1"
       inkscape:vp_z="1 : 0.5 : 1"
       inkscape:vp_y="0 : 1000 : 0"
       inkscape:vp_x="0 : 0.5 : 1"
       sodipodi:type="inkscape:persp3d" />
    <inkscape:perspective
       id="perspective2900"
       inkscape:persp3d-origin="0.5 : 0.33333333 : 1"
       inkscape:vp_z="1 : 0.5 : 1"
       inkscape:vp_y="0 : 1000 : 0"
       inkscape:vp_x="0 : 0.5 : 1"
       sodipodi:type="inkscape:persp3d" />
    <inkscape:perspective
       id="perspective2940"
       inkscape:persp3d-origin="0.5 : 0.33333333 : 1"
       inkscape:vp_z="1 : 0.5 : 1"
       inkscape:vp_y="0 : 1000 : 0"
       inkscape:vp_x="0 : 0.5 : 1"
       sodipodi:type="inkscape:persp3d" />
  </defs>
  <sodipodi:namedview
     id="base"
     pagecolor="#ffffff"
     bordercolor="#666666"
     borderopacity="1.0"
     inkscape:pageopacity="0.0"
     inkscape:pageshadow="2"
     inkscape:zoom="1.979899"
     inkscape:cx="176.12727"
     inkscape:cy="154.15432"
     inkscape:document-units="px"
     inkscape:current-layer="layer1"
     showgrid="false"
     inkscape:window-width="1280"
     inkscape:window-height="950"
     inkscape:window-x="0"
     inkscape:window-y="25"
     inkscape:window-maximized="1" />
  <metadata
     id="metadata7">
    <rdf:RDF>
      <cc:Work
         rdf:about="">
        <dc:format>image/svg+xml</dc:format>
        <dc:type
           rdf:resource="http://purl.org/dc/dcmitype/StillImage" />
        <dc:title></dc:title>
      </cc:Work>
    </rdf:RDF>
  </metadata>
  <g
     inkscape:label="Calque 1"
     inkscape:groupmode="layer"
     id="layer1"
     transform="translate(0,-752.36218)">
    <path
       style="fill:#000000"
       d="m 183.64625,1015.0634 c 1.94764,-15.71958 1.25798,-23.3947 -2.10218,-23.3947 -6.00385,0 -33.56211,11.7003 -53.01451,22.5081 -10.91466,6.0643 -32.262113,0.1831 -43.184956,-11.8973 -12.863246,-14.22636 -9.619138,-23.53549 11.63519,-33.38795 22.951296,-10.63908 23.924936,-11.74734 24.007676,-27.32736 0.0643,-12.1219 2.09719,-14.68907 19.28394,-24.3531 10.56661,-5.94151 18.2296,-11.41421 17.02893,-12.16149 -1.20066,-0.74729 -14.33784,1.98691 -29.19374,6.07601 -31.061779,8.54978 -36.797478,8.97098 -45.806839,3.3636 -3.597627,-2.2391 -10.620257,-4.55328 -15.60588,-5.14259 -11.053181,-1.30651 -14.712735,-14.59121 -5.617719,-20.39308 15.988859,-10.19965 45.887608,-60.81138 45.887608,-77.67729 0,-6.74766 2.11435,-13.0818 4.69855,-14.07585 2.5842,-0.99404 4.69854,-6.25784 4.69854,-11.69733 0,-15.79796 13.60054,-16.19365 23.08248,-0.67158 6.33721,10.37411 14.50586,10.24365 14.50586,-0.2316 0,-4.51775 2.86579,-10.65333 6.36836,-13.63465 9.25411,-7.87682 21.82289,-3.76729 21.82289,7.13528 0,11.06534 7.26451,11.60721 11.03158,0.82286 4.06174,-11.62804 10.44514,-16.46001 19.03473,-14.40851 8.75427,2.09081 9.80905,13.20251 2.23533,23.54816 -3.19492,4.36431 -4.01054,12.51811 -2.06134,20.60796 2.51522,10.43927 5.16966,13.38632 12.0572,13.38632 4.85755,0 10.13861,-1.31595 11.73575,-2.92433 4.5145,-4.54632 25.81863,-3.44057 28.86356,1.49808 4.48692,7.27752 -2.85187,29.65291 -11.84163,36.1042 -4.61154,3.30932 -19.78755,9.69115 -33.7245,14.18179 -30.06476,9.68718 -34.87221,17.86976 -27.60183,46.97956 2.82622,11.31584 2.9155,20.27937 0.23305,23.39468 -6.56767,7.62726 -32.4268,21.13412 -40.46164,21.13412 -3.89866,0 -7.0885,1.15631 -7.0885,2.56955 0,1.41324 -6.27293,4.18674 -13.93983,6.16331 -17.76218,4.57912 -24.59043,9.73145 -20.87759,15.75333 4.19021,6.79629 9.26059,6.0853 50.84889,-7.1302 45.35861,-14.41355 48.48615,-13.33135 52.30672,18.09938 2.54219,20.91392 1.98917,22.69412 -9.74652,31.37472 -19.52512,14.442 -22.7541,12.0918 -19.49755,-14.1921 z m -22.0591,-74.72073 c 5.73941,-5.45181 6.45486,-8.33217 2.65669,-10.6961 -7.40438,-4.60844 -19.69173,2.38285 -19.69173,11.20432 0,9.05977 7.18807,8.84532 17.03504,-0.50822 z m -24.0697,-48.54063 c 23.55511,-5.03132 30.72054,-8.05541 35.85586,-15.13244 3.52982,-4.86446 10.64656,-10.25959 15.81496,-11.98916 5.1684,-1.72957 10.45425,-3.81438 11.74635,-4.63294 1.2921,-0.81852 10.26359,-4.76637 19.93672,-8.773 16.12972,-6.68094 24.14332,-17.5199 12.95308,-17.5199 -2.58419,0 -4.69854,1.10472 -4.69854,2.45492 0,1.35023 -5.5324,4.02383 -12.29416,5.94135 -10.4457,2.96219 -13.21644,2.70301 -18.42824,-1.72388 -3.37379,-2.86561 -7.41764,-10.47403 -8.9864,-16.90756 -3.96956,-16.27928 -8.61011,-20.23213 -19.56792,-16.66805 -4.86867,1.58356 -14.66659,4.30855 -21.77314,6.05552 -8.15122,2.00378 -12.92099,5.35846 -12.92099,9.08766 0,6.21956 6.81547,7.9527 11.74636,2.98703 4.01391,-4.04218 22.76162,-3.67176 29.60082,0.58487 7.1835,4.47095 6.99895,14.1487 -0.38434,20.15606 -8.5086,6.92297 -38.65741,12.40045 -49.10293,8.92113 -7.41852,-2.47107 -10.74773,-0.28658 -24.22972,15.89739 -23.652652,28.39328 -17.187317,32.35098 34.73228,21.261 z"
       id="path2946" />
  </g>
</svg>
