<?xml version="1.0" encoding="UTF-8" standalone="no"?>
<!-- Created with Inkscape (http://www.inkscape.org/) -->

<svg
   xmlns:dc="http://purl.org/dc/elements/1.1/"
   xmlns:cc="http://creativecommons.org/ns#"
   xmlns:rdf="http://www.w3.org/1999/02/22-rdf-syntax-ns#"
   xmlns:svg="http://www.w3.org/2000/svg"
   xmlns="http://www.w3.org/2000/svg"
   xmlns:sodipodi="http://sodipodi.sourceforge.net/DTD/sodipodi-0.dtd"
   xmlns:inkscape="http://www.inkscape.org/namespaces/inkscape"
   width="300"
   height="300"
   id="svg2"
   version="1.1"
   inkscape:version="0.47 r22583"
   sodipodi:docname="é -seal.svg">
  <defs
     id="defs4">
    <inkscape:perspective
       sodipodi:type="inkscape:persp3d"
       inkscape:vp_x="0 : 526.18109 : 1"
       inkscape:vp_y="0 : 1000 : 0"
       inkscape:vp_z="744.09448 : 526.18109 : 1"
       inkscape:persp3d-origin="372.04724 : 350.78739 : 1"
       id="perspective10" />
    <inkscape:perspective
       id="perspective2824"
       inkscape:persp3d-origin="0.5 : 0.33333333 : 1"
       inkscape:vp_z="1 : 0.5 : 1"
       inkscape:vp_y="0 : 1000 : 0"
       inkscape:vp_x="0 : 0.5 : 1"
       sodipodi:type="inkscape:persp3d" />
    <inkscape:perspective
       id="perspective2862"
       inkscape:persp3d-origin="0.5 : 0.33333333 : 1"
       inkscape:vp_z="1 : 0.5 : 1"
       inkscape:vp_y="0 : 1000 : 0"
       inkscape:vp_x="0 : 0.5 : 1"
       sodipodi:type="inkscape:persp3d" />
  </defs>
  <sodipodi:namedview
     id="base"
     pagecolor="#ffffff"
     bordercolor="#666666"
     borderopacity="1.0"
     inkscape:pageopacity="0.0"
     inkscape:pageshadow="2"
     inkscape:zoom="1.979899"
     inkscape:cx="176.12727"
     inkscape:cy="154.15432"
     inkscape:document-units="px"
     inkscape:current-layer="layer1"
     showgrid="false"
     inkscape:window-width="1280"
     inkscape:window-height="950"
     inkscape:window-x="0"
     inkscape:window-y="25"
     inkscape:window-maximized="1" />
  <metadata
     id="metadata7">
    <rdf:RDF>
      <cc:Work
         rdf:about="">
        <dc:format>image/svg+xml</dc:format>
        <dc:type
           rdf:resource="http://purl.org/dc/dcmitype/StillImage" />
        <dc:title></dc:title>
      </cc:Work>
    </rdf:RDF>
  </metadata>
  <g
     inkscape:label="Calque 1"
     inkscape:groupmode="layer"
     id="layer1"
     transform="translate(0,-752.36218)">
    <path
       style="fill:#000000"
       d="m 221.63558,1033.2573 c -23.43552,-11.2134 -50.90371,-13.4577 -72.07448,-29.5605 -10.7696,-7.46257 -21.57943,-21.20531 -15.03556,-34.74781 5.55281,-13.34984 21.98741,-12.7395 34.04038,-14.38856 14.01871,-1.78335 28.67808,-0.53729 42.19757,-5.02566 10.93347,-6.94275 7.70851,-23.77534 -6.99093,-21.392 -11.77803,-2.18133 -24.23796,-0.37418 -35.66116,-4.23828 -5.80127,-6.66577 -6.78413,-23.05198 -20.48403,-16.90523 -17.108,6.30393 -32.22338,17.43205 -45.57232,29.69838 -11.805563,10.84193 -19.515585,25.75343 -20.827093,41.77666 -2.840953,8.89278 -3.063387,25.8871 -13.819465,26.923 -6.032182,-9.47548 -4.262452,-21.71973 -4.322919,-32.48946 0.113077,-18.20787 9.028701,-36.39135 25.295828,-45.36199 7.115326,-5.90415 26.813189,-10.40951 22.505229,-22.0398 -11.889208,-6.63719 -28.835859,-3.17104 -38.204782,-14.67682 -10.886504,-14.46383 -8.682627,-33.78471 -9.773128,-50.8166 -0.134029,-18.34257 -0.0361,-36.68622 -0.06606,-55.02926 12.143154,-6.44907 24.526702,-12.82182 38.33327,-14.77173 43.78453,-7.90778 88.539,-9.17218 132.92964,-8.08967 9.35883,-2.99389 15.49566,9.25315 4.49384,11.26185 -22.43836,4.41938 -45.85606,0.44138 -68.13995,5.57822 -10.12675,11.62414 12.77209,15.25541 21.1286,17.16968 10.62793,0.71059 26.06623,10.30093 33.25204,-1.69503 11.28646,-8.53616 18.32038,9.92798 18.09264,19.13632 2.07177,20.77129 2.32039,42.68002 -5.19628,62.44467 -10.46505,17.37982 -30.6531,26.32705 -50.06036,29.31941 -13.01054,0.99772 -6.00661,9.68081 2.72851,9.12734 15.40376,3.02938 33.5527,0.40167 46.35431,11.11089 7.06559,8.92943 1.67491,22.24887 -5.76164,29.27394 -14.83394,11.071 -34.53709,10.4332 -52.13878,12.49055 -8.86056,1.86305 -30.74334,0.39071 -27.29418,14.13825 11.03568,15.60169 30.53545,21.85214 47.82806,27.80194 14.53895,5.2184 30.48184,5.599 44.60675,11.9183 12.27296,11.1844 -12.43663,19.3352 -20.79717,13.0893 l -1.56632,-1.0303 -6e-5,0 z M 205.49873,883.60585 c 7.94418,-2.56804 10.00701,-12.35306 -0.90939,-9.98112 -35.82108,-1.11579 -71.75017,-0.19913 -107.477224,2.58317 -11.042257,-2.1049 -17.790177,9.80524 -4.144248,12.70896 22.965882,5.31347 46.836412,2.72842 70.166862,1.89529 14.17153,-1.32151 29.15139,-1.34061 42.364,-7.2063 z m 11.81608,-31.63067 c -7.0903,-7.47701 -20.40759,-4.35283 -30.26272,-5.82143 -32.48697,-0.60531 -65.03156,-2.08147 -97.507837,-0.70844 -13.519597,-2.02088 -10.618449,16.78412 1.751307,13.20849 34.79652,0.95211 69.64728,-0.0882 104.43225,-1.2452 6.65934,-1.3818 17.59223,1.03403 21.587,-5.43342 z m 1.08783,-24.6508 c 16.16073,-5.56069 -8.10665,-14.11067 -14.82952,-14.85047 -20.52139,-5.12086 -41.9533,-8.17869 -62.94702,-3.98723 -18.46577,3.22541 -37.60411,4.82135 -55.046174,12.07224 -13.685384,10.43667 10.900133,12.46 18.364454,11.37852 37.38308,-0.0795 74.77205,-1.71999 112.06256,-4.27392 l 2.3957,-0.33917 0,3e-5 z m -97.56835,-28.25013 c 9.87181,-3.02091 28.78425,-0.69489 29.03493,-15.05636 -3.83151,-13.07344 -23.57855,-5.66768 -33.63953,-4.43919 -11.31065,3.59563 -24.856174,7.24477 -31.299164,18.0807 -2.402977,15.82003 17.054584,2.67456 24.990064,3.36916 3.6292,-0.69874 7.26707,-1.3529 10.9137,-1.95431 z"
       id="path2868" />
  </g>
</svg>
