<?xml version="1.0" encoding="UTF-8" standalone="no"?>
<!-- Created with Inkscape (http://www.inkscape.org/) -->

<svg
   xmlns:dc="http://purl.org/dc/elements/1.1/"
   xmlns:cc="http://creativecommons.org/ns#"
   xmlns:rdf="http://www.w3.org/1999/02/22-rdf-syntax-ns#"
   xmlns:svg="http://www.w3.org/2000/svg"
   xmlns="http://www.w3.org/2000/svg"
   xmlns:sodipodi="http://sodipodi.sourceforge.net/DTD/sodipodi-0.dtd"
   xmlns:inkscape="http://www.inkscape.org/namespaces/inkscape"
   width="300"
   height="300"
   id="svg2"
   version="1.1"
   inkscape:version="0.47 r22583"
   sodipodi:docname="凡-bronze.svg">
  <defs
     id="defs4">
    <inkscape:perspective
       sodipodi:type="inkscape:persp3d"
       inkscape:vp_x="0 : 526.18109 : 1"
       inkscape:vp_y="0 : 1000 : 0"
       inkscape:vp_z="744.09448 : 526.18109 : 1"
       inkscape:persp3d-origin="372.04724 : 350.78739 : 1"
       id="perspective10" />
    <inkscape:perspective
       id="perspective2824"
       inkscape:persp3d-origin="0.5 : 0.33333333 : 1"
       inkscape:vp_z="1 : 0.5 : 1"
       inkscape:vp_y="0 : 1000 : 0"
       inkscape:vp_x="0 : 0.5 : 1"
       sodipodi:type="inkscape:persp3d" />
    <inkscape:perspective
       id="perspective2864"
       inkscape:persp3d-origin="0.5 : 0.33333333 : 1"
       inkscape:vp_z="1 : 0.5 : 1"
       inkscape:vp_y="0 : 1000 : 0"
       inkscape:vp_x="0 : 0.5 : 1"
       sodipodi:type="inkscape:persp3d" />
    <inkscape:perspective
       id="perspective2901"
       inkscape:persp3d-origin="0.5 : 0.33333333 : 1"
       inkscape:vp_z="1 : 0.5 : 1"
       inkscape:vp_y="0 : 1000 : 0"
       inkscape:vp_x="0 : 0.5 : 1"
       sodipodi:type="inkscape:persp3d" />
    <inkscape:perspective
       id="perspective2938"
       inkscape:persp3d-origin="0.5 : 0.33333333 : 1"
       inkscape:vp_z="1 : 0.5 : 1"
       inkscape:vp_y="0 : 1000 : 0"
       inkscape:vp_x="0 : 0.5 : 1"
       sodipodi:type="inkscape:persp3d" />
  </defs>
  <sodipodi:namedview
     id="base"
     pagecolor="#ffffff"
     bordercolor="#666666"
     borderopacity="1.0"
     inkscape:pageopacity="0.0"
     inkscape:pageshadow="2"
     inkscape:zoom="1.979899"
     inkscape:cx="218.75828"
     inkscape:cy="143.58032"
     inkscape:document-units="px"
     inkscape:current-layer="layer1"
     showgrid="false"
     inkscape:window-width="1280"
     inkscape:window-height="950"
     inkscape:window-x="0"
     inkscape:window-y="25"
     inkscape:window-maximized="1" />
  <metadata
     id="metadata7">
    <rdf:RDF>
      <cc:Work
         rdf:about="">
        <dc:format>image/svg+xml</dc:format>
        <dc:type
           rdf:resource="http://purl.org/dc/dcmitype/StillImage" />
        <dc:title></dc:title>
      </cc:Work>
    </rdf:RDF>
  </metadata>
  <g
     inkscape:label="Calque 1"
     inkscape:groupmode="layer"
     id="layer1"
     transform="translate(0,-752.36218)">
    <path
       style="fill:#000000"
       d="m 263.3191,1037.4015 c -3.5724,-2.0757 -7.53307,-6.5471 -8.8015,-9.9365 -1.26843,-3.3893 -3.9109,-8.7492 -5.87216,-11.9108 -1.96127,-3.1616 -6.24029,-14.5434 -9.50895,-25.29282 -7.59957,-24.99229 -17.27802,-50.96757 -19.46389,-52.23766 -1.52606,-0.88671 -9.58825,1.43262 -35.59738,10.24064 -4.61289,1.56216 -12.66148,2.85555 -17.88575,2.87419 l -9.49868,0.0339 2.93032,23.56833 c 6.63252,53.34482 4.39253,65.91242 -11.13097,62.45122 -5.62157,-1.2534 -6.51984,-7.3134 -7.07823,-47.75146 -0.35175,-25.4737 -0.96654,-50.972 -1.36621,-56.66289 -2.34057,-33.3277 -2.32903,-105.8918 0.018,-113.07824 4.47422,-13.69989 24.76959,-22.65835 56.76608,-25.05677 54.69352,-4.09978 79.76847,-1.61631 79.76847,7.90042 0,4.16371 -0.73213,4.21681 -52.21667,3.78663 -26.40022,-0.22057 -36.80924,0.62631 -44.72141,3.6386 -19.26175,7.33326 -22.15297,14.13461 -21.69207,51.02881 0.23253,18.61271 0.20028,44.48245 -0.0716,57.48831 l -0.49436,23.64702 10.8285,-1.57916 c 13.50864,-1.97001 43.46611,-13.55524 46.35232,-17.9255 1.18423,-1.79314 1.12687,-9.03799 -0.12746,-16.09966 l -2.28061,-12.8394 -18.74811,0 c -11.96944,0 -20.55801,-1.26714 -23.75383,-3.50459 -2.75314,-1.92752 -4.30676,-3.73826 -3.45249,-4.02386 15.28655,-5.11057 21.68364,-6.26764 34.65168,-6.26764 18.12107,0 22.55188,2.52753 27.68042,15.79017 6.78409,17.54397 10.66365,16.33879 18.63113,-5.78774 6.86927,-19.07668 7.04114,-24.13427 1.07859,-31.73806 -4.43773,-5.65924 -5.82137,-5.85657 -41.06667,-5.85657 -28.03929,0 -37.64564,-0.82014 -41.53975,-3.54647 -8.36021,-5.85313 -0.1623,-7.49544 43.66904,-8.74832 l 41.55121,-1.18772 9.31665,6.81973 c 8.80557,6.44561 9.23973,8.30048 7.91452,33.81297 -1.35549,26.09512 -1.84521,27.39438 -14.71858,39.04925 l -13.31645,12.056 10.09611,25.8289 c 11.92349,30.5039 13.88103,35.91608 18.49034,51.12174 1.91676,6.3232 5.36612,15.088 7.66526,19.4773 3.24205,6.1894 2.98067,8.6775 -1.16466,11.0861 -4.48834,2.608 -6.38578,2.5008 -11.84015,-0.6684 l -5e-5,0 z m -234.331491,-8.3163 c -3.44801,-3.2416 -6.868152,-209.09654 -3.68785,-221.96796 3.092423,-12.51575 11.773885,-17.84227 34.412318,-21.11369 25.191181,-3.64032 43.676373,-3.37282 52.892913,0.76542 7.6039,3.41415 7.6039,3.48389 0,6.89804 -4.61513,2.0722 -16.068034,3.44903 -28.690125,3.44903 -24.174482,0 -36.837601,5.25382 -36.837601,15.2836 l 0,6.0862 37.299026,-1.29299 c 30.98095,-1.07398 37.68632,-0.70657 39.58542,2.16901 3.02876,4.5861 -0.42423,7.47847 -11.97409,10.02999 -8.4565,1.86815 -9.50874,3.50637 -9.50874,14.80394 0,11.04168 -1.00471,12.70333 -7.680973,12.70333 -12.57463,3.07186 -51.427913,4.62961 -50.349596,14.7902 2.218888,3.3598 6.655091,3.79746 29.333097,2.89388 14.695361,-0.58553 29.857862,-1.81561 33.694442,-2.73353 8.48936,-2.03111 18.74658,2.44008 18.74658,8.17176 0,2.79172 -3.46442,4.40425 -10.51013,4.89199 -9.95189,0.68892 -10.60137,1.51664 -12.22804,15.58369 -1.4478,12.52024 -3.35505,15.6735 -12.130082,20.05468 -5.726694,2.85922 -18.031737,5.86249 -27.344543,6.67394 -14.793995,1.28905 -16.932371,2.20812 -16.932371,7.27748 0,5.74488 0.243898,5.78726 24.732863,4.29703 13.603075,-0.82778 31.410733,-2.11736 39.572583,-2.86571 14.46851,-1.32662 14.83972,-1.18181 14.83972,5.78896 0,6.00322 -1.51469,7.14961 -9.44658,7.14961 -8.90812,0 -9.53577,0.91704 -11.01111,16.08807 -1.83665,18.88648 -5.96034,22.11982 -33.366651,26.16245 l -19.384938,2.85942 -3.513184,18.83336 c -2.958644,15.8605 -4.639527,18.8333 -10.648914,18.8333 -3.924652,0 -8.363201,-1.154 -9.863444,-2.5645 z m 50.699053,-52.30068 c 1.611478,-0.91009 4.079482,-6.52776 5.484459,-12.48371 l 2.554497,-10.82901 -20.324177,0 -20.324177,0 0,7.89803 c 0,4.34392 1.807534,10.66043 4.01674,14.03669 3.429779,5.24162 5.598293,5.91172 14.839718,4.58568 5.952638,-0.85414 12.141461,-2.29759 13.75294,-3.20768 z M 64.884926,913.42697 c 14.201934,-2.8585 15.957833,-4.06157 17.082038,-11.70393 1.847438,-12.55892 -0.260783,-14.06885 -18.251464,-13.07195 -10.646164,0.58992 -16.453565,2.14059 -17.542904,4.68425 -1.382407,3.22797 0.617537,23.41436 2.309635,23.31225 0.315514,-0.019 7.696727,-1.46832 16.402695,-3.22062 z m 15.391866,-73.07772 c 1.309282,-3.80376 1.392967,-7.84437 0.185983,-8.97913 -3.296906,-3.09959 -27.906054,-2.48101 -32.263921,0.811 -2.789282,2.10707 -4.008795,16.24612 -1.443076,16.73104 0.176823,0.0334 7.25577,-0.32347 15.730998,-0.7931 13.504705,-0.74832 15.703765,-1.70876 17.790016,-7.76981 z"
       id="path2944"
       sodipodi:nodetypes="cssssscccssssssssscccscccsssssssscccscccssscccssssscccsssccssssssssssssscccscccccccssccssssccssssc" />
  </g>
</svg>
