<?xml version="1.0" encoding="UTF-8" standalone="no"?>
<!-- Created with Inkscape (http://www.inkscape.org/) -->

<svg
   xmlns:dc="http://purl.org/dc/elements/1.1/"
   xmlns:cc="http://creativecommons.org/ns#"
   xmlns:rdf="http://www.w3.org/1999/02/22-rdf-syntax-ns#"
   xmlns:svg="http://www.w3.org/2000/svg"
   xmlns="http://www.w3.org/2000/svg"
   xmlns:sodipodi="http://sodipodi.sourceforge.net/DTD/sodipodi-0.dtd"
   xmlns:inkscape="http://www.inkscape.org/namespaces/inkscape"
   width="300"
   height="300"
   id="svg2"
   version="1.1"
   inkscape:version="0.47 r22583"
   sodipodi:docname="風-bronze.svg">
  <defs
     id="defs4">
    <inkscape:perspective
       sodipodi:type="inkscape:persp3d"
       inkscape:vp_x="0 : 526.18109 : 1"
       inkscape:vp_y="0 : 1000 : 0"
       inkscape:vp_z="744.09448 : 526.18109 : 1"
       inkscape:persp3d-origin="372.04724 : 350.78739 : 1"
       id="perspective10" />
    <inkscape:perspective
       id="perspective2824"
       inkscape:persp3d-origin="0.5 : 0.33333333 : 1"
       inkscape:vp_z="1 : 0.5 : 1"
       inkscape:vp_y="0 : 1000 : 0"
       inkscape:vp_x="0 : 0.5 : 1"
       sodipodi:type="inkscape:persp3d" />
    <inkscape:perspective
       id="perspective2864"
       inkscape:persp3d-origin="0.5 : 0.33333333 : 1"
       inkscape:vp_z="1 : 0.5 : 1"
       inkscape:vp_y="0 : 1000 : 0"
       inkscape:vp_x="0 : 0.5 : 1"
       sodipodi:type="inkscape:persp3d" />
    <inkscape:perspective
       id="perspective2901"
       inkscape:persp3d-origin="0.5 : 0.33333333 : 1"
       inkscape:vp_z="1 : 0.5 : 1"
       inkscape:vp_y="0 : 1000 : 0"
       inkscape:vp_x="0 : 0.5 : 1"
       sodipodi:type="inkscape:persp3d" />
    <inkscape:perspective
       id="perspective2938"
       inkscape:persp3d-origin="0.5 : 0.33333333 : 1"
       inkscape:vp_z="1 : 0.5 : 1"
       inkscape:vp_y="0 : 1000 : 0"
       inkscape:vp_x="0 : 0.5 : 1"
       sodipodi:type="inkscape:persp3d" />
    <inkscape:perspective
       id="perspective2976"
       inkscape:persp3d-origin="0.5 : 0.33333333 : 1"
       inkscape:vp_z="1 : 0.5 : 1"
       inkscape:vp_y="0 : 1000 : 0"
       inkscape:vp_x="0 : 0.5 : 1"
       sodipodi:type="inkscape:persp3d" />
    <inkscape:perspective
       id="perspective3238"
       inkscape:persp3d-origin="0.5 : 0.33333333 : 1"
       inkscape:vp_z="1 : 0.5 : 1"
       inkscape:vp_y="0 : 1000 : 0"
       inkscape:vp_x="0 : 0.5 : 1"
       sodipodi:type="inkscape:persp3d" />
    <inkscape:perspective
       id="perspective3276"
       inkscape:persp3d-origin="0.5 : 0.33333333 : 1"
       inkscape:vp_z="1 : 0.5 : 1"
       inkscape:vp_y="0 : 1000 : 0"
       inkscape:vp_x="0 : 0.5 : 1"
       sodipodi:type="inkscape:persp3d" />
  </defs>
  <sodipodi:namedview
     id="base"
     pagecolor="#ffffff"
     bordercolor="#666666"
     borderopacity="1.0"
     inkscape:pageopacity="0.0"
     inkscape:pageshadow="2"
     inkscape:zoom="1.979899"
     inkscape:cx="218.75828"
     inkscape:cy="143.58032"
     inkscape:document-units="px"
     inkscape:current-layer="layer1"
     showgrid="false"
     inkscape:window-width="1280"
     inkscape:window-height="950"
     inkscape:window-x="0"
     inkscape:window-y="25"
     inkscape:window-maximized="1" />
  <metadata
     id="metadata7">
    <rdf:RDF>
      <cc:Work
         rdf:about="">
        <dc:format>image/svg+xml</dc:format>
        <dc:type
           rdf:resource="http://purl.org/dc/dcmitype/StillImage" />
        <dc:title></dc:title>
      </cc:Work>
    </rdf:RDF>
  </metadata>
  <g
     inkscape:label="Calque 1"
     inkscape:groupmode="layer"
     id="layer1"
     transform="translate(0,-752.36218)">
    <path
       style="fill:#000000"
       d="m 130.11947,1020.7675 c -3.69269,-15.1253 0.75392,-30.50761 6.16322,-44.58267 -6.83238,-8.18359 -17.63223,9.80274 -25.89064,13.05774 -6.01468,2.96895 -17.992715,13.61513 -22.055463,7.34091 9.061892,-14.60796 23.644753,-24.79168 36.669303,-35.66623 9.87885,-8.33845 22.79925,-15.07547 27.39219,-27.8006 5.20052,-10.011 20.54413,-19.25779 16.98348,-31.41042 -11.19372,-7.33276 -24.03203,-12.32831 -36.76809,-16.33834 -14.17979,3.10965 -24.45815,14.84308 -34.589946,24.49219 -13.889087,9.41205 4.206946,16.41835 10.176536,23.68631 4.15942,4.56051 19.80445,18.88994 7.28729,20.34881 -11.13453,-3.11766 -19.512262,-15.63115 -30.805,-15.76095 -7.438842,9.02987 -8.513425,22.205 -16.489018,30.47428 -10.344059,-6.57685 -2.129906,-22.91974 -8.474897,-32.51837 -5.200225,-4.59114 -22.590338,9.84906 -22.564005,-1.78008 10.985692,-10.29923 27.242581,-12.79075 37.722322,-23.9939 8.047656,-9.08051 15.632916,-18.86971 26.102238,-25.38727 13.55528,-9.33846 -6.217208,-16.80679 -13.537019,-21.43684 -6.228936,-5.85172 -11.292946,-10.06903 -17.679674,-14.98797 -1.126082,-14.39777 19.921127,-2.8054 28.478845,-4.22518 13.565178,0.87231 27.276268,2.77559 40.847478,1.4936 5.45369,-10.62914 -15.02225,-14.06743 -22.56956,-16.39152 -4.41421,-2.81909 -22.669081,-8.02387 -16.766636,-14.15035 6.847406,-2.84361 21.022046,6.98676 23.171406,0.95196 -4.48836,-9.50905 -9.64769,-18.92801 -19.45665,-23.89778 -5.948629,-2.66992 -27.269774,-15.85416 -9.428768,-15.40955 30.517808,2.92988 59.770518,15.19184 90.654028,15.04785 10.46969,-4.63983 15.52506,8.89616 26.34786,8.72588 5.72667,0.45461 16.8648,9.69643 4.63495,9.14782 -12.77658,-2.26667 -27.08683,-4.36452 -35.38811,8.37167 -10.08139,11.356 13.40679,11.57936 20.27788,15.28813 6.87762,0.35776 15.73701,10.57653 3.40511,8.67811 -11.29352,1.40171 -26.10956,-6.62781 -35.0902,1.0889 -1.94714,14.60228 19.87266,8.406 28.8231,12.50309 5.87308,-0.33254 26.12316,5.42999 13.33737,10.20744 -18.43791,0.88057 -36.93377,-2.43549 -55.3266,-0.59083 -17.70987,5.85919 4.62469,14.29706 12.17302,16.92032 24.42642,11.34772 49.14418,23.00452 70.48892,39.62652 10.58505,11.20207 23.72418,23.41975 22.91552,40.24692 1.16573,20.84634 -2.50726,42.2502 -13.84028,60.0929 -3.30111,10.8661 -9.99125,6.5599 -8.63459,-2.8337 -1.1622,-7.3859 0.48099,-32.86795 -12.04765,-21.29423 -2.90536,7.24373 -20.99057,13.65203 -13.35287,0.58027 9.14083,-12.91585 22.65729,-25.10587 23.03358,-42.04846 -2.65477,-11.38336 -12.89491,-19.15713 -20.53926,-27.42884 -4.86087,-4.30733 -21.37164,-21.01945 -22.31658,-7.40346 -4.95294,9.94134 -24.46153,3.14111 -23.84779,17.95636 -7.25979,11.92358 -1.0305,24.93252 8.04838,33.64288 6.64924,8.27601 18.39036,15.57173 15.04657,27.98818 -1.04653,2.6622 0.157,12.266 -3.66847,6.3552 -9.53904,-10.02062 -19.97671,-19.46184 -27.15787,-31.41186 -10.19807,7.36739 -12.91109,20.37763 -14.59416,32.14156 -2.47429,6.9772 -2.89205,26.6255 -13.09059,23.42 -2.39872,-3.2325 -3.28401,-7.2911 -4.21021,-11.1264 z m -3.96026,-161.49482 c -6.38064,-3.26673 -16.68343,1.34048 -4.17137,3.18463 4.23965,1.92704 13.24954,-1.18744 4.17137,-3.18463 z m 34.29817,-39.51596 c 6.39211,-6.32893 12.8179,-18.35688 -1.33712,-19.04084 -11.87152,-6.86259 -27.59013,-1.39233 -15.17506,12.07714 2.93057,5.59842 10.5695,15.79736 16.51218,6.9637 z"
       id="path3282" />
  </g>
</svg>
