<?xml version="1.0" encoding="UTF-8" standalone="no"?>
<!-- Created with Inkscape (http://www.inkscape.org/) -->

<svg
   xmlns:dc="http://purl.org/dc/elements/1.1/"
   xmlns:cc="http://creativecommons.org/ns#"
   xmlns:rdf="http://www.w3.org/1999/02/22-rdf-syntax-ns#"
   xmlns:svg="http://www.w3.org/2000/svg"
   xmlns="http://www.w3.org/2000/svg"
   xmlns:sodipodi="http://sodipodi.sourceforge.net/DTD/sodipodi-0.dtd"
   xmlns:inkscape="http://www.inkscape.org/namespaces/inkscape"
   width="300"
   height="300"
   id="svg2"
   version="1.1"
   inkscape:version="0.47 r22583"
   sodipodi:docname="風-seal.svg">
  <defs
     id="defs4">
    <inkscape:perspective
       sodipodi:type="inkscape:persp3d"
       inkscape:vp_x="0 : 526.18109 : 1"
       inkscape:vp_y="0 : 1000 : 0"
       inkscape:vp_z="744.09448 : 526.18109 : 1"
       inkscape:persp3d-origin="372.04724 : 350.78739 : 1"
       id="perspective10" />
    <inkscape:perspective
       id="perspective2824"
       inkscape:persp3d-origin="0.5 : 0.33333333 : 1"
       inkscape:vp_z="1 : 0.5 : 1"
       inkscape:vp_y="0 : 1000 : 0"
       inkscape:vp_x="0 : 0.5 : 1"
       sodipodi:type="inkscape:persp3d" />
    <inkscape:perspective
       id="perspective2864"
       inkscape:persp3d-origin="0.5 : 0.33333333 : 1"
       inkscape:vp_z="1 : 0.5 : 1"
       inkscape:vp_y="0 : 1000 : 0"
       inkscape:vp_x="0 : 0.5 : 1"
       sodipodi:type="inkscape:persp3d" />
    <inkscape:perspective
       id="perspective2901"
       inkscape:persp3d-origin="0.5 : 0.33333333 : 1"
       inkscape:vp_z="1 : 0.5 : 1"
       inkscape:vp_y="0 : 1000 : 0"
       inkscape:vp_x="0 : 0.5 : 1"
       sodipodi:type="inkscape:persp3d" />
    <inkscape:perspective
       id="perspective2938"
       inkscape:persp3d-origin="0.5 : 0.33333333 : 1"
       inkscape:vp_z="1 : 0.5 : 1"
       inkscape:vp_y="0 : 1000 : 0"
       inkscape:vp_x="0 : 0.5 : 1"
       sodipodi:type="inkscape:persp3d" />
    <inkscape:perspective
       id="perspective2976"
       inkscape:persp3d-origin="0.5 : 0.33333333 : 1"
       inkscape:vp_z="1 : 0.5 : 1"
       inkscape:vp_y="0 : 1000 : 0"
       inkscape:vp_x="0 : 0.5 : 1"
       sodipodi:type="inkscape:persp3d" />
  </defs>
  <sodipodi:namedview
     id="base"
     pagecolor="#ffffff"
     bordercolor="#666666"
     borderopacity="1.0"
     inkscape:pageopacity="0.0"
     inkscape:pageshadow="2"
     inkscape:zoom="1.979899"
     inkscape:cx="218.75828"
     inkscape:cy="143.58032"
     inkscape:document-units="px"
     inkscape:current-layer="layer1"
     showgrid="false"
     inkscape:window-width="1280"
     inkscape:window-height="950"
     inkscape:window-x="0"
     inkscape:window-y="25"
     inkscape:window-maximized="1" />
  <metadata
     id="metadata7">
    <rdf:RDF>
      <cc:Work
         rdf:about="">
        <dc:format>image/svg+xml</dc:format>
        <dc:type
           rdf:resource="http://purl.org/dc/dcmitype/StillImage" />
        <dc:title></dc:title>
      </cc:Work>
    </rdf:RDF>
  </metadata>
  <g
     inkscape:label="Calque 1"
     inkscape:groupmode="layer"
     id="layer1"
     transform="translate(0,-752.36218)">
    <path
       style="fill:#000000"
       d="m 116.06349,1039.5387 c -3.98205,-15.8407 2.27786,-32.3653 8.83002,-46.59304 10.76066,-15.44355 30.13759,-20.3025 46.54877,-27.32654 11.22641,-4.23391 25.6168,-1.95493 33.75941,-12.28986 11.4664,-12.22747 17.75857,-28.13123 25.59693,-42.67781 4.3521,-10.60146 3.53215,-27.8725 -9.97326,-30.89227 -32.89822,-2.09629 -66.09422,4.16915 -98.88976,-1.10154 -14.7892,-7.00837 -7.86914,-33.53322 8.78335,-30.89775 35.91393,-6.97031 73.46493,-5.91621 108.15629,-18.69359 6.95588,-8.25169 2.75679,-29.11344 -10.33345,-26.63248 -44.97694,0.24332 -90.49737,-4.34623 -135.021274,3.87775 -15.333088,4.33626 -23.694008,20.6536 -23.001619,35.80775 -4.456417,41.85498 -0.627323,84.13779 -5.131064,125.97252 -3.086262,22.78414 -12.059592,45.38616 -27.631632,62.51896 -15.241689,-5.2885 1.200223,-24.7847 0.27527,-36.05821 7.027354,-26.18878 13.992687,-53.84789 7.384528,-80.89172 -4.618164,-30.15906 -9.734391,-63.83956 6.904105,-91.36442 13.51933,-21.58835 39.005787,-32.64149 63.805596,-33.6266 37.28608,-4.26576 75.12422,-7.475 112.56363,-3.5579 16.83828,2.19202 35.04134,14.2938 34.97452,32.91966 0.3479,14.97691 -11.97418,28.73824 -27.09139,29.32798 -32.1415,6.82827 -65.19043,6.04279 -97.71697,9.70729 9.50327,13.29405 28.72255,3.55814 42.37852,7.35914 23.88464,-0.31765 49.56976,-1.61556 70.73172,11.43365 16.5457,6.17181 11.28013,26.96107 1.63909,36.90775 -7.82592,12.42225 -17.21249,24.09404 -22.34608,38.00513 14.53119,6.41147 24.43695,-9.7458 32.46414,-19.10541 15.13902,-13.31147 21.8857,17.04345 6.44456,21.59449 -10.1898,11.02458 -24.22578,19.12572 -39.42069,20.03432 -10.76989,9.55772 0.15481,23.42041 8.18836,30.64755 7.817,10.6805 26.49837,14.0228 28.35057,27.9184 -13.10338,10.9303 -31.50589,-5.5529 -43.15531,-13.4601 -12.58639,-9.2241 -21.99364,-22.96732 -23.80257,-38.38563 -12.09063,-7.25079 -27.36045,2.42661 -39.45135,6.58901 -15.57054,7.60892 -28.52267,23.18152 -27.64082,41.24992 -1.45885,7.1547 -9.00642,18.1923 -17.17214,11.6836 z m 3.73063,-97.32458 c -17.47463,-4.25987 -19.41578,-27.02341 -13.09657,-40.93874 8.4803,-15.69323 28.5343,-14.35321 43.86087,-14.51285 14.81477,0.27902 29.73774,2.65214 43.48401,8.33522 13.90008,12.50647 9.39847,39.52399 -8.50588,45.98273 -13.35265,5.70737 -28.14784,7.97362 -42.56828,8.40472 -8.17174,-0.4728 -16.14706,-3.11344 -23.17415,-7.27108 z m 53.33792,-13.20387 c 15.49763,-7.21213 7.44144,-33.44956 -9.54153,-30.48847 -16.1746,-2.56755 -36.80496,1.79053 -44.14127,18.03865 -3.08558,18.02243 20.98391,20.57207 33.83501,18.0942 6.8834,-0.58056 13.84813,-2.08774 19.84779,-5.64438 z m -29.25829,-13.37118 c 1.07785,-16.88719 37.45547,-10.15623 21.65301,4.39295 -6.15162,4.82149 -22.46552,7.95932 -21.65301,-4.39295 z m -36.28929,-87.30256 c -16.150958,-3.93565 2.60725,-14.57852 11.58973,-11.27116 28.66972,-2.12775 57.54732,-1.41298 86.19335,-0.16356 13.17286,9.25731 -8.57113,10.694 -15.37305,9.84462 -24.61484,0.63125 -49.25666,1.13178 -73.82923,2.41345 -2.8729,-0.10432 -5.74374,-0.3514 -8.5808,-0.82335 z"
       id="path2982" />
  </g>
</svg>
