<?xml version="1.0" encoding="UTF-8" standalone="no"?>
<!-- Created with Inkscape (http://www.inkscape.org/) -->

<svg
   xmlns:dc="http://purl.org/dc/elements/1.1/"
   xmlns:cc="http://creativecommons.org/ns#"
   xmlns:rdf="http://www.w3.org/1999/02/22-rdf-syntax-ns#"
   xmlns:svg="http://www.w3.org/2000/svg"
   xmlns="http://www.w3.org/2000/svg"
   xmlns:sodipodi="http://sodipodi.sourceforge.net/DTD/sodipodi-0.dtd"
   xmlns:inkscape="http://www.inkscape.org/namespaces/inkscape"
   width="300"
   height="300"
   id="svg2"
   version="1.1"
   inkscape:version="0.47 r22583"
   sodipodi:docname="風-bigseal.svg">
  <defs
     id="defs4">
    <inkscape:perspective
       sodipodi:type="inkscape:persp3d"
       inkscape:vp_x="0 : 526.18109 : 1"
       inkscape:vp_y="0 : 1000 : 0"
       inkscape:vp_z="744.09448 : 526.18109 : 1"
       inkscape:persp3d-origin="372.04724 : 350.78739 : 1"
       id="perspective10" />
    <inkscape:perspective
       id="perspective2824"
       inkscape:persp3d-origin="0.5 : 0.33333333 : 1"
       inkscape:vp_z="1 : 0.5 : 1"
       inkscape:vp_y="0 : 1000 : 0"
       inkscape:vp_x="0 : 0.5 : 1"
       sodipodi:type="inkscape:persp3d" />
    <inkscape:perspective
       id="perspective2864"
       inkscape:persp3d-origin="0.5 : 0.33333333 : 1"
       inkscape:vp_z="1 : 0.5 : 1"
       inkscape:vp_y="0 : 1000 : 0"
       inkscape:vp_x="0 : 0.5 : 1"
       sodipodi:type="inkscape:persp3d" />
    <inkscape:perspective
       id="perspective2901"
       inkscape:persp3d-origin="0.5 : 0.33333333 : 1"
       inkscape:vp_z="1 : 0.5 : 1"
       inkscape:vp_y="0 : 1000 : 0"
       inkscape:vp_x="0 : 0.5 : 1"
       sodipodi:type="inkscape:persp3d" />
    <inkscape:perspective
       id="perspective2938"
       inkscape:persp3d-origin="0.5 : 0.33333333 : 1"
       inkscape:vp_z="1 : 0.5 : 1"
       inkscape:vp_y="0 : 1000 : 0"
       inkscape:vp_x="0 : 0.5 : 1"
       sodipodi:type="inkscape:persp3d" />
    <inkscape:perspective
       id="perspective2976"
       inkscape:persp3d-origin="0.5 : 0.33333333 : 1"
       inkscape:vp_z="1 : 0.5 : 1"
       inkscape:vp_y="0 : 1000 : 0"
       inkscape:vp_x="0 : 0.5 : 1"
       sodipodi:type="inkscape:persp3d" />
    <inkscape:perspective
       id="perspective3238"
       inkscape:persp3d-origin="0.5 : 0.33333333 : 1"
       inkscape:vp_z="1 : 0.5 : 1"
       inkscape:vp_y="0 : 1000 : 0"
       inkscape:vp_x="0 : 0.5 : 1"
       sodipodi:type="inkscape:persp3d" />
  </defs>
  <sodipodi:namedview
     id="base"
     pagecolor="#ffffff"
     bordercolor="#666666"
     borderopacity="1.0"
     inkscape:pageopacity="0.0"
     inkscape:pageshadow="2"
     inkscape:zoom="1.979899"
     inkscape:cx="218.75828"
     inkscape:cy="143.58032"
     inkscape:document-units="px"
     inkscape:current-layer="layer1"
     showgrid="false"
     inkscape:window-width="1280"
     inkscape:window-height="950"
     inkscape:window-x="0"
     inkscape:window-y="25"
     inkscape:window-maximized="1" />
  <metadata
     id="metadata7">
    <rdf:RDF>
      <cc:Work
         rdf:about="">
        <dc:format>image/svg+xml</dc:format>
        <dc:type
           rdf:resource="http://purl.org/dc/dcmitype/StillImage" />
        <dc:title></dc:title>
      </cc:Work>
    </rdf:RDF>
  </metadata>
  <g
     inkscape:label="Calque 1"
     inkscape:groupmode="layer"
     id="layer1"
     transform="translate(0,-752.36218)">
    <path
       style="fill:#000000"
       d="m 28.828879,1040.0842 c -1.31009,-1.8024 2.934687,-16.089 9.432837,-31.748 14.368461,-34.62449 16.236106,-90.77808 4.35668,-130.99013 -8.968839,-30.35965 -5.025397,-48.40084 16.228738,-74.24627 15.602375,-18.97279 33.540246,-25.18045 84.493916,-29.24036 46.94993,-3.74091 85.1668,5.59001 106.15912,25.9195 22.27441,27.89108 9.34325,79.60543 13.14224,115.52812 -0.66161,55.89974 -0.20209,105.27264 1.02119,109.71754 2.89655,10.5249 -12.25589,13.6184 -16.89806,3.4498 -1.861,-4.0764 -4.37325,-51.90482 -5.58277,-106.28525 -1.20952,-54.38043 -3.39286,-102.15603 -4.85186,-106.16798 -4.14404,-11.39532 -46.72963,-27.72324 -72.30619,-27.72324 -26.75904,0 -63.58151,7.32537 -78.813592,15.67898 -20.678873,11.34076 -22.120706,18.91175 -20.980481,110.16739 0.976064,78.11765 0.145402,88.5696 -8.383679,105.4882 -8.992191,17.8374 -21.846121,27.5673 -27.018089,20.4517 z m 117.268901,-79.60635 -1.33747,-62.6447 -12.11274,-2.40664 c -8.9741,-1.78303 -13.26105,-6.31566 -16.54429,-17.4924 -3.10626,-10.57425 -7.43834,-15.45286 -14.4858,-16.31333 -5.529832,-0.67517 -10.794253,-4.52835 -11.698706,-8.56263 -1.517984,-6.7709 3.10575,-7.24618 60.117906,-6.17959 40.2574,0.75314 62.39109,2.76587 63.56807,5.78057 0.99314,2.54381 -2.64403,5.61455 -8.08261,6.82384 -6.69849,1.48945 -9.88832,5.59315 -9.88832,12.72131 0,10.44162 -3.14794,14.06551 -21.80293,25.09936 -8.98918,5.31682 -9.6469,10.07519 -9.09171,65.77517 0.55647,55.82859 -0.0299,60.04369 -8.35272,60.04369 -8.2538,0 -9.05542,-4.8807 -10.28868,-62.64465 z m 24.34154,-78.25008 c 3.19776,-2.71902 5.81412,-9.31419 5.81412,-14.65594 0,-8.8757 -1.77001,-9.60313 -20.54987,-8.44544 -20.96636,1.29249 -27.50894,8.11622 -21.19528,22.1061 3.24554,7.19154 27.8425,7.87286 35.93103,0.99528 z m -68.10454,125.64573 c -4.842224,-7.568 -3.172017,-87.48437 1.8839,-90.14129 9.73327,-5.11491 13.74465,8.28976 13.8194,46.17973 0.0541,27.40604 -1.77964,38.91136 -6.7621,42.42726 -3.75996,2.6533 -7.7835,3.3438 -8.9412,1.5343 z M 196.688,958.56459 c 1.1247,-40.05606 2.66258,-48.73463 8.63602,-48.73463 6.03832,0 7.26764,8.00445 7.26764,47.32164 0,42.12125 -0.94906,47.4769 -8.63601,48.7346 -7.95233,1.3012 -8.52769,-2.4451 -7.26765,-47.32161 z M 103.20618,827.05545 c -10.508467,-10.76629 0.93971,-14.03915 49.10772,-14.03915 39.58329,0 48.16502,1.10104 48.16502,6.1796 0,4.68548 -6.15015,6.22298 -25.43676,6.35901 -13.99021,0.0987 -34.68216,1.70039 -45.98211,3.55936 -15.0908,2.48261 -21.95471,1.93602 -25.85387,-2.05882 z"
       id="path3244"
       sodipodi:nodetypes="cssssccssssssssccccssssssssssccsssccsssccsssccssssc" />
  </g>
</svg>
