<?xml version="1.0" encoding="UTF-8" standalone="no"?>
<!-- Created with Inkscape (http://www.inkscape.org/) -->

<svg
   xmlns:dc="http://purl.org/dc/elements/1.1/"
   xmlns:cc="http://creativecommons.org/ns#"
   xmlns:rdf="http://www.w3.org/1999/02/22-rdf-syntax-ns#"
   xmlns:svg="http://www.w3.org/2000/svg"
   xmlns="http://www.w3.org/2000/svg"
   xmlns:sodipodi="http://sodipodi.sourceforge.net/DTD/sodipodi-0.dtd"
   xmlns:inkscape="http://www.inkscape.org/namespaces/inkscape"
   width="300"
   height="300"
   id="svg2"
   version="1.1"
   inkscape:version="0.47 r22583"
   sodipodi:docname="飛-bronze.svg">
  <defs
     id="defs4">
    <inkscape:perspective
       sodipodi:type="inkscape:persp3d"
       inkscape:vp_x="0 : 526.18109 : 1"
       inkscape:vp_y="0 : 1000 : 0"
       inkscape:vp_z="744.09448 : 526.18109 : 1"
       inkscape:persp3d-origin="372.04724 : 350.78739 : 1"
       id="perspective10" />
    <inkscape:perspective
       id="perspective2824"
       inkscape:persp3d-origin="0.5 : 0.33333333 : 1"
       inkscape:vp_z="1 : 0.5 : 1"
       inkscape:vp_y="0 : 1000 : 0"
       inkscape:vp_x="0 : 0.5 : 1"
       sodipodi:type="inkscape:persp3d" />
    <inkscape:perspective
       id="perspective2861"
       inkscape:persp3d-origin="0.5 : 0.33333333 : 1"
       inkscape:vp_z="1 : 0.5 : 1"
       inkscape:vp_y="0 : 1000 : 0"
       inkscape:vp_x="0 : 0.5 : 1"
       sodipodi:type="inkscape:persp3d" />
  </defs>
  <sodipodi:namedview
     id="base"
     pagecolor="#ffffff"
     bordercolor="#666666"
     borderopacity="1.0"
     inkscape:pageopacity="0.0"
     inkscape:pageshadow="2"
     inkscape:zoom="1.979899"
     inkscape:cx="99.333779"
     inkscape:cy="152.67396"
     inkscape:document-units="px"
     inkscape:current-layer="layer1"
     showgrid="false"
     inkscape:window-width="1280"
     inkscape:window-height="950"
     inkscape:window-x="0"
     inkscape:window-y="25"
     inkscape:window-maximized="1" />
  <metadata
     id="metadata7">
    <rdf:RDF>
      <cc:Work
         rdf:about="">
        <dc:format>image/svg+xml</dc:format>
        <dc:type
           rdf:resource="http://purl.org/dc/dcmitype/StillImage" />
        <dc:title></dc:title>
      </cc:Work>
    </rdf:RDF>
  </metadata>
  <g
     inkscape:label="Calque 1"
     inkscape:groupmode="layer"
     id="layer1"
     transform="translate(0,-752.36218)">
    <path
       style="fill:#000000"
       d="m 45.446695,1022.1886 c -12.915897,-11.8782 8.672227,-22.20267 19.47503,-18.8699 12.02233,1.3849 33.709972,-4.26635 28.417655,-20.20245 -11.195086,-8.2438 -26.882866,-3.17987 -39.989702,-4.65488 -13.146415,2.67405 -15.64182,-13.97942 -1.984445,-14.68999 12.864372,-3.6189 26.942958,1.63676 39.247058,-3.88464 6.995596,-5.03063 4.126303,-16.79869 2.536526,-23.28719 -15.105961,1.2481 -30.140573,4.79917 -45.370182,3.45142 -15.608408,-7.30596 3.511104,-22.43165 14.25921,-18.38309 16.202412,-0.66228 34.643511,-3.19999 48.610765,6.8283 10.53694,8.25934 1.30421,24.94993 10.72526,32.68742 6.59188,-0.0834 23.92281,5.883 22.47438,-4.96398 -0.99281,-33.23382 -0.65219,-66.52124 -3.01512,-99.70371 2.81066,-16.78338 -22.51771,-13.04825 -21.36784,1.67515 -2.31991,12.82339 -11.3101,25.38368 -25.700353,23.80697 -13.16012,1.30624 -26.440179,1.89804 -39.637877,0.79232 -11.355663,-12.00473 13.762074,-16.04963 22.351488,-14.93914 12.919476,2.94427 26.857002,-4.3531 22.45632,-19.23117 1.019487,-12.08608 -18.402103,-3.49682 -26.794174,-5.93891 -10.101436,-1.32502 -23.646376,2.56945 -30.932721,-5.73429 3.24858,-13.13304 21.919423,-10.03418 32.484648,-10.79288 11.872098,1.65666 30.720189,-0.004 25.21013,-16.88893 -5.08774,-16.92785 -23.969664,-0.676 -34.916171,-8.64279 -10.220207,-10.20519 8.665145,-15.26785 16.796543,-14.99265 20.326297,-1.52096 40.700277,-3.59262 61.099117,-3.24564 10.44351,0.187 23.71514,4.31412 23.89198,16.94611 -0.52235,11.81382 -1.1523,30.95823 16.55315,27.32806 17.20426,-1.68556 7.4488,-25.18454 22.26857,-31.88249 13.31704,-10.89456 34.58034,-13.08772 48.35086,-1.82251 -5.63113,12.81959 -24.44748,3.65774 -33.22542,13.08383 -3.77992,6.84954 -6.31523,19.21921 -3.02679,25.21825 13.38045,-1.04327 27.20721,-5.66024 40.51832,-1.52417 4.77371,14.03005 -19.13992,10.44608 -27.65712,12.54959 -17.31821,1.94952 -14.31937,28.29021 3.57895,24.17206 7.05828,-2.39091 25.18008,6.5276 12.59627,11.63934 -13.73364,2.49531 -28.91471,2.8094 -42.17847,-1.65189 -14.92131,-4.31741 -4.89131,-23.53887 -16.02432,-28.87377 -7.98769,-0.9006 -24.4587,-5.00805 -20.65995,8.57131 -1.75387,32.69653 -4.88552,65.40037 -3.69726,98.17721 5.33611,15.32109 32.21791,7.4686 25.2181,-8.95434 -2.53455,-13.33075 5.98606,-26.67484 20.52174,-23.91565 12.46911,-0.86669 25.33003,-0.87871 37.29703,3.19181 11.48528,11.41751 -14.28691,14.66672 -22.14972,12.19478 -14.81875,-2.17294 -19.14739,20.99803 -5.63648,25.05956 6.28554,2.31605 27.9777,-1.40718 22.69016,9.47803 -10.4112,7.32762 -27.02155,3.48537 -33.1085,16.92537 -3.92432,16.44036 19.83687,9.19727 29.14026,11.24007 18.01858,1.27279 4.08948,20.05839 -7.6217,18.37679 -12.55053,1.0831 -27.70282,1.0987 -37.21625,-8.4246 -5.25621,-9.60381 -0.77199,-31.29085 -18.51068,-26.97546 -19.00687,-0.56144 -8.67769,24.63026 -17.8977,33.86076 -12.79835,6.1956 -18.60712,-10.991 -15.41393,-20.76896 -0.28845,-16.68826 -25.46825,-17.03242 -24.70102,0.20584 -0.54728,12.57742 -9.14811,22.83282 -21.461239,25.31482 -12.664913,3.8161 -26.038948,5.4686 -39.21614,5.6215 -3.588871,-0.3922 -7.28234,-1.7071 -9.658246,-4.5566 z M 147.38442,814.78021 c 1.33227,-14.32272 -27.31245,-19.4326 -26.63134,-3.15992 -2.28622,14.7714 17.08397,19.46399 26.054,11.57123 1.47414,-2.54216 1.2342,-5.66873 0.57734,-8.41131 z"
       id="path2867" />
  </g>
</svg>
