<?xml version="1.0" encoding="UTF-8" standalone="no"?>
<!-- Created with Inkscape (http://www.inkscape.org/) -->
<svg
   xmlns:svg="http://www.w3.org/2000/svg"
   xmlns="http://www.w3.org/2000/svg"
   version="1.0"
   width="300"
   height="300"
   id="svg2">
  <defs
     id="defs5" />
  <path
     d="M 144.43093,276.71178 L 137.79047,100.32391 L 130.96536,102.00782 C 127.21155,102.93397 123.23199,104.57538 122.12188,105.6554 C 121.01177,106.73541 122.0495,117.02741 124.42793,128.5265 C 133.27948,171.32132 126.04123,204.54513 103.76952,223.34936 C 83.924455,240.10474 51.673585,249.07573 51.673585,237.8405 C 51.673585,234.27267 56.717205,229.87861 68.153325,223.48317 C 77.217175,218.41438 88.409715,210.35207 93.025645,205.56693 C 100.91588,197.38744 108.46232,182.9455 106.08723,180.57041 C 105.49763,179.98081 99.238905,182.89673 92.178955,187.05023 C 75.601875,196.80284 63.938535,200.77693 57.123565,198.99478 C 45.568825,195.97314 51.621055,189.02464 77.339185,175.78547 C 97.009125,165.65978 103.51967,160.94407 105.46356,155.41446 C 109.05239,145.20567 106.41845,144.25444 95.353535,151.76329 C 82.825795,160.26484 61.128755,167.40945 54.361395,165.26157 C 44.083255,161.99942 49.121795,155.94207 71.236455,144.97433 C 95.078095,133.15008 99.106315,128.33878 99.106315,111.68659 C 99.106315,94.454031 104.01789,90.545748 134.26784,83.707526 C 141.73504,82.019509 141.75417,81.961388 139.95234,66.436675 C 137.84861,48.310829 141.57051,34.102915 149.9622,28.225138 C 153.29205,25.89282 161.44361,24.264238 169.78771,24.264238 C 182.45599,24.264238 184.93124,25.237275 193.13687,33.44288 C 200.82666,41.13268 202.04039,43.874042 200.61951,50.343239 C 198.65398,59.292281 199.74501,59.843022 224.74367,62.520866 C 242.52475,64.42557 248.30867,69.866228 239.57159,76.468772 C 234.83959,80.044689 213.61152,79.50784 199.90088,75.46552 C 195.47635,74.161033 193.97179,74.798478 193.97179,77.97751 C 193.97179,80.320547 194.26824,82.314709 194.63058,82.408979 C 194.99291,82.503249 204.65651,83.985522 216.10524,85.702918 C 230.8329,87.912177 237.76946,90.196174 239.82161,93.511988 C 242.05996,97.128652 241.81974,98.773746 238.76937,100.7183 C 233.76121,103.9109 213.60093,104.04595 202.83733,100.95899 C 195.46368,98.844252 194.74713,99.126569 195.93724,103.67759 C 197.77394,110.70119 203.09337,112.92309 223.04276,114.99946 C 243.07107,117.08404 247.56013,119.22157 246.21504,126.03334 C 245.34354,130.44676 242.6368,130.98554 221.43199,130.96644 C 195.61227,130.94318 187.57353,127.90145 179.08213,114.94194 C 174.08593,107.31677 172.77958,79.233289 176.38241,56.903937 C 178.3349,44.802833 178.03713,43.292625 173.46274,42.096395 C 170.66108,41.363746 166.42167,41.853987 164.04181,43.185819 C 160.35434,45.249436 159.71481,50.997268 159.71481,82.07525 L 159.71481,118.54317 L 169.32311,120.34569 C 182.2393,122.76879 190.14196,128.32974 194.03888,137.73774 C 197.3968,145.84447 198.23812,146.20604 224.20022,150.69974 C 232.85453,152.19769 241.74817,155.26625 243.96386,157.51876 C 247.582,161.19703 247.4713,162.00051 242.87723,165.40591 C 236.48366,170.1452 228.11537,170.15711 210.44149,165.4521 C 197.36299,161.97043 196.60694,162.03908 196.60694,166.70824 C 196.60694,172.57642 202.05944,175.7564 216.37058,178.23466 C 239.31,182.20708 246.67482,185.09033 246.67482,190.09844 C 246.67482,198.94225 230.08462,200.8699 208.88393,194.48943 C 194.84292,190.2637 193.83676,191.72357 200.23546,207.03783 C 203.84881,215.68577 207.46722,218.08275 234.21901,229.54991 C 241.13128,232.51285 247.54716,236.91863 248.47653,239.34052 C 250.83011,245.47386 242.27749,251.17824 233.73177,249.17491 C 222.88093,246.63119 192.50332,230.07007 186.00986,223.15809 C 176.72846,213.27848 173.25992,195.05771 175.98867,170.51516 C 178.67918,146.31678 176.29877,137.57607 167.01798,137.57521 L 161.03239,137.57466 C 158.40856,181.73327 167.81764,228.95326 160.00581,272.6273 C 157.04983,280.28937 149.88696,282.16781 144.43093,276.71178 z "
     style="fill:black;fill-opacity:1"
     id="path1875" />
</svg>
