<?xml version="1.0" encoding="UTF-8" standalone="no"?>
<!-- Created with Inkscape (http://www.inkscape.org/) -->

<svg
   xmlns:dc="http://purl.org/dc/elements/1.1/"
   xmlns:cc="http://creativecommons.org/ns#"
   xmlns:rdf="http://www.w3.org/1999/02/22-rdf-syntax-ns#"
   xmlns:svg="http://www.w3.org/2000/svg"
   xmlns="http://www.w3.org/2000/svg"
   xmlns:sodipodi="http://sodipodi.sourceforge.net/DTD/sodipodi-0.dtd"
   xmlns:inkscape="http://www.inkscape.org/namespaces/inkscape"
   width="300"
   height="300"
   id="svg2"
   version="1.1"
   inkscape:version="0.47 r22583"
   sodipodi:docname="Nouveau document 1">
  <defs
     id="defs4">
    <inkscape:perspective
       sodipodi:type="inkscape:persp3d"
       inkscape:vp_x="0 : 526.18109 : 1"
       inkscape:vp_y="0 : 1000 : 0"
       inkscape:vp_z="744.09448 : 526.18109 : 1"
       inkscape:persp3d-origin="372.04724 : 350.78739 : 1"
       id="perspective10" />
    <inkscape:perspective
       id="perspective2824"
       inkscape:persp3d-origin="0.5 : 0.33333333 : 1"
       inkscape:vp_z="1 : 0.5 : 1"
       inkscape:vp_y="0 : 1000 : 0"
       inkscape:vp_x="0 : 0.5 : 1"
       sodipodi:type="inkscape:persp3d" />
  </defs>
  <sodipodi:namedview
     id="base"
     pagecolor="#ffffff"
     bordercolor="#666666"
     borderopacity="1.0"
     inkscape:pageopacity="0.0"
     inkscape:pageshadow="2"
     inkscape:zoom="1.979899"
     inkscape:cx="99.333779"
     inkscape:cy="152.67396"
     inkscape:document-units="px"
     inkscape:current-layer="layer1"
     showgrid="false"
     inkscape:window-width="1280"
     inkscape:window-height="950"
     inkscape:window-x="0"
     inkscape:window-y="25"
     inkscape:window-maximized="1" />
  <metadata
     id="metadata7">
    <rdf:RDF>
      <cc:Work
         rdf:about="">
        <dc:format>image/svg+xml</dc:format>
        <dc:type
           rdf:resource="http://purl.org/dc/dcmitype/StillImage" />
        <dc:title></dc:title>
      </cc:Work>
    </rdf:RDF>
  </metadata>
  <g
     inkscape:label="Calque 1"
     inkscape:groupmode="layer"
     id="layer1"
     transform="translate(0,-752.36218)">
    <path
       style="fill:#000000"
       d="m 163.07932,1023.8231 c -10.42384,-3.2595 -19.68654,-6.5955 -20.58376,-7.4134 -5.79207,-5.2804 -27.36509,-45.25903 -27.36509,-50.71239 0,-3.65788 -4.74495,-18.96787 -10.54435,-34.02218 C 94.693097,905.99444 92.932925,904.12872 76.091118,901.47168 45.494783,896.64466 36.914323,885.73597 57.305924,877.5893 c 8.730964,-3.48812 15.984748,-2.99312 29.683442,2.02558 17.048974,6.24611 25.809264,17.04142 35.276204,43.47088 2.60025,7.25926 6.30257,7.78526 35.49991,5.04361 29.8391,-2.80191 32.45014,-2.39263 30.86214,4.83759 -1.25852,5.7301 -8.49561,8.89231 -26.36186,11.51869 -13.5449,1.99112 -26.19075,5.83869 -28.10192,8.55014 -5.41052,7.67611 5.20937,21.31322 14.71908,18.90094 4.60383,-1.16781 21.47661,-3.47349 37.4951,-5.12373 23.62185,-2.43353 28.69836,-1.86658 26.86897,3.0008 -1.39279,3.70577 -15.36122,7.67909 -36.5189,10.3878 l -34.26336,4.38658 17.19417,10.82187 c 11.3945,7.17165 28.79862,12.28755 51.59753,15.16715 37.21626,4.7005 47.47697,12.4034 22.38378,16.8039 -24.18434,4.2411 -49.74022,2.9524 -70.56089,-3.558 z M 182.8655,903.25274 c -11.77122,-9.98117 -20.2267,-23.59315 -27.80394,-44.75992 -15.88042,-44.36144 -23.51905,-49.97057 -68.051007,-49.97057 -37.973044,0 -46.746042,-5.2604 -22.675505,-13.59651 7.495424,-2.59582 17.578035,-6.50718 22.405811,-8.6919 5.788299,-2.61941 18.178521,-1.57597 36.380631,3.06378 22.03745,5.61738 29.60875,10.01699 37.55151,21.82085 11.33446,16.84436 12.49231,17.04897 46.01865,8.13206 26.7748,-7.12123 37.28574,-5.9398 37.28574,4.1909 0,9.94336 -19.11599,16.72507 -40.16575,14.24945 -12.6996,-1.49356 -20.78973,-0.24311 -24.62198,3.80573 -8.52665,9.00855 5.52396,12.1518 40.13884,8.97946 30.98051,-2.83928 40.11554,1.25697 28.99787,13.00297 -4.61872,4.87976 -11.84897,6.13917 -25.81515,4.49663 -22.16609,-2.6069 -33.04599,-0.0752 -33.04599,7.68965 0,9.81284 19.88921,21.35826 41.06244,23.83619 14.02028,1.64081 20.88319,4.58598 20.88319,8.96188 0,4.79224 -6.8347,6.864 -25.81499,7.82515 -23.44272,1.18712 -27.36944,-0.0113 -42.73037,-13.0358 z"
       id="path2830" />
  </g>
</svg>
