<?xml version="1.0" encoding="UTF-8" standalone="no"?>
<!-- Created with Inkscape (http://www.inkscape.org/) -->
<svg
   xmlns:dc="http://purl.org/dc/elements/1.1/"
   xmlns:cc="http://web.resource.org/cc/"
   xmlns:rdf="http://www.w3.org/1999/02/22-rdf-syntax-ns#"
   xmlns:svg="http://www.w3.org/2000/svg"
   xmlns="http://www.w3.org/2000/svg"
   xmlns:sodipodi="http://sodipodi.sourceforge.net/DTD/sodipodi-0.dtd"
   xmlns:inkscape="http://www.inkscape.org/namespaces/inkscape"
   width="300"
   height="300"
   id="svg2"
   sodipodi:version="0.32"
   inkscape:version="0.45.1"
   version="1.0"
   sodipodi:docbase="C:\Documents and Settings\Martin\桌面"
   sodipodi:docname="drawing.svg"
   inkscape:output_extension="org.inkscape.output.svg.inkscape">
  <defs
     id="defs4" />
  <sodipodi:namedview
     id="base"
     pagecolor="#ffffff"
     bordercolor="#666666"
     borderopacity="1.0"
     gridtolerance="10000"
     guidetolerance="10"
     objecttolerance="10"
     inkscape:pageopacity="0.0"
     inkscape:pageshadow="2"
     inkscape:zoom="0.92866691"
     inkscape:cx="208.70809"
     inkscape:cy="163.32792"
     inkscape:document-units="px"
     inkscape:current-layer="layer1"
     width="300px"
     height="300px"
     inkscape:window-width="742"
     inkscape:window-height="577"
     inkscape:window-x="22"
     inkscape:window-y="0" />
  <metadata
     id="metadata7">
    <rdf:RDF>
      <cc:Work
         rdf:about="">
        <dc:format>image/svg+xml</dc:format>
        <dc:type
           rdf:resource="http://purl.org/dc/dcmitype/StillImage" />
      </cc:Work>
    </rdf:RDF>
  </metadata>
  <g
     inkscape:label="Layer 1"
     inkscape:groupmode="layer"
     id="layer1">
    <path
       style="fill:#000000"
       d="M 147.53372,282.21807 C 133.48933,274.09512 131.4048,266.02253 133.03916,226.08655 C 135.09944,175.74335 134.74207,170.5063 129.24589,170.50061 C 124.26993,170.49548 114.87734,160.4284 113.34677,153.45975 C 110.68654,141.34777 110.02844,123.57215 112.19081,122.23573 C 114.26348,113.23146 118.39945,106.09764 124.91593,99.027362 C 141.70226,81.854752 145.02466,73.227202 137.6798,65.882342 C 134.53404,62.736572 133.71421,62.859382 129.13362,67.162612 C 116.42468,72.881952 107.4475,83.374462 94.330922,87.605772 C 88.805322,87.605772 92.590712,79.053522 103.256,67.441502 C 109.48086,60.664062 118.67601,49.132705 123.68963,41.816261 C 128.70325,34.499815 134.68498,26.49605 136.98234,24.030111 C 139.2797,21.564175 141.15937,18.224379 141.15937,16.608343 C 141.15937,9.3277083 156.01918,16.681637 162.64836,27.24298 C 163.76816,29.027011 169.17412,33.508387 174.66158,37.201593 C 197.38918,52.497842 215.87912,76.403402 204.98253,76.403402 C 201.29021,76.403402 193.47932,72.393672 188.78052,68.086062 C 184.1063,63.801002 171.23243,61.019462 161.87997,62.273892 C 153.51389,63.396022 153.33696,63.611932 154.24292,71.593372 C 163.70296,97.325912 175.82877,88.122162 183.87878,116.07177 C 186.44762,126.45278 186.29018,129.14924 182.44597,140.61276 C 180.07064,147.69598 175.72871,157.05131 172.79721,161.40238 C 167.78453,168.84243 167.63677,169.97502 170.31533,180.42623 C 171.8818,186.53827 174.97007,195.62787 177.17815,200.62534 C 179.38623,205.62281 181.85782,214.75273 182.67057,220.91404 C 183.92601,230.43153 183.40433,233.06081 179.20205,238.39559 C 172.53138,246.86395 153.36795,255.97931 146.08055,254.15029 C 140.73055,252.80752 140.53813,253.09528 141.97663,260.28774 C 143.60013,268.4053 146.29371,270.6509 160.19915,275.47969 C 166.31048,277.60188 173.4297,278.11851 182.6039,277.10559 C 206.49338,274.46793 207.07502,274.496 207.85359,278.32435 C 208.9017,283.47822 204.1407,284.70287 178.40321,285.89959 C 158.24781,286.83679 154.81073,286.42689 147.53372,282.21807 z M 159.75455,240.79337 C 168.94837,236.11888 168.14565,237.12351 170.29243,227.60499 C 172.23444,218.99435 170.78218,212.33651 163.34019,195.73311 C 160.99883,190.50944 159.08318,184.90491 159.08318,183.2786 C 159.08318,177.80503 153.54441,172.43064 149.50205,173.98184 C 146.32246,175.20196 145.62737,178.48851 145.56701,192.58768 C 145.52671,202.00588 144.58994,216.72901 143.48534,225.30577 C 142.38075,233.8825 141.96912,241.69616 142.57065,242.66945 C 144.34766,245.54469 152.06724,244.70191 159.75455,240.79337 z M 147.07625,160.34008 C 148.91642,160.8027 151.50341,160.19796 155.04594,158.7887 C 158.49245,157.41765 161.99404,155.62471 162.91091,153.13968 C 165.86366,148.44173 167.87149,144.75941 168.53256,139.04937 C 169.11064,131.96505 168.68135,131.3494 163.56413,131.92419 C 160.48347,132.27023 151.91365,133.12484 144.52008,133.82333 C 129.55588,135.23703 125.57315,138.38755 127.17863,147.54112 C 128.94943,157.63728 138.26161,162.5753 147.07625,160.34008 z M 155.69968,122.95792 C 169.51492,120.3372 170.06522,119.98341 168.7687,114.55613 C 167.45261,109.04701 153.71824,94.327202 149.89402,94.327202 C 147.22223,94.327202 130.04589,121.78465 131.37369,123.93306 C 132.88671,126.38117 138.9312,126.13887 155.69968,122.95792 z M 155.16235,52.560602 C 164.83085,50.962503 165.61412,48.631087 158.52305,42.557507 C 147.38113,33.014286 146.13795,33.001652 136.61663,42.334879 C 131.72157,47.133242 127.71652,51.720559 127.71652,52.528912 C 127.71652,54.377952 144.0533,54.396812 155.16235,52.560602 z "
       id="path2228"
       sodipodi:nodetypes="csssccsccsssssssssccssssssssssssccsssssssccsccsssccsssccsssc" />
  </g>
</svg>
