<?xml version="1.0" encoding="UTF-8" standalone="no"?>
<!-- Created with Inkscape (http://www.inkscape.org/) -->
<svg
   xmlns:dc="http://purl.org/dc/elements/1.1/"
   xmlns:cc="http://web.resource.org/cc/"
   xmlns:rdf="http://www.w3.org/1999/02/22-rdf-syntax-ns#"
   xmlns:svg="http://www.w3.org/2000/svg"
   xmlns="http://www.w3.org/2000/svg"
   xmlns:sodipodi="http://sodipodi.sourceforge.net/DTD/sodipodi-0.dtd"
   xmlns:inkscape="http://www.inkscape.org/namespaces/inkscape"
   width="300"
   height="300"
   id="svg2"
   sodipodi:version="0.32"
   inkscape:version="0.45.1"
   version="1.0"
   sodipodi:docbase="C:\Documents and Settings\Martin\桌面"
   sodipodi:docname="drawing.svg"
   inkscape:output_extension="org.inkscape.output.svg.inkscape">
  <defs
     id="defs4" />
  <sodipodi:namedview
     id="base"
     pagecolor="#ffffff"
     bordercolor="#666666"
     borderopacity="1.0"
     gridtolerance="10000"
     guidetolerance="10"
     objecttolerance="10"
     inkscape:pageopacity="0.0"
     inkscape:pageshadow="2"
     inkscape:zoom="2.6266667"
     inkscape:cx="230.00352"
     inkscape:cy="147.5732"
     inkscape:document-units="px"
     inkscape:current-layer="layer1"
     width="300px"
     height="300px"
     inkscape:window-width="742"
     inkscape:window-height="577"
     inkscape:window-x="22"
     inkscape:window-y="0" />
  <metadata
     id="metadata7">
    <rdf:RDF>
      <cc:Work
         rdf:about="">
        <dc:format>image/svg+xml</dc:format>
        <dc:type
           rdf:resource="http://purl.org/dc/dcmitype/StillImage" />
      </cc:Work>
    </rdf:RDF>
  </metadata>
  <g
     inkscape:label="Layer 1"
     inkscape:groupmode="layer"
     id="layer1">
    <path
       style="fill:#000000"
       d="M 132.8429,278.60813 C 121.08007,253.60899 113.7208,224.6218 115.92221,211.95976 C 117.63708,202.09617 122.90314,197.87338 140.77743,192.02865 C 157.92098,186.42284 162.24598,183.59608 161.26261,178.63979 C 160.74856,176.04884 156.68809,175.08509 145.21879,174.83172 C 128.12855,174.45418 116.25146,168.30203 112.23909,157.74867 C 108.55477,148.05813 109.59985,115.8139 113.88987,106.81763 C 117.72011,98.785554 131.76668,88.857013 139.29995,88.857013 C 142.40919,88.857013 143.08121,87.009272 142.50482,80.045039 L 141.77549,71.233068 L 128.85126,70.058138 C 121.74295,69.411928 116.19139,68.090132 116.5145,67.120816 C 116.83761,66.151499 117.10196,64.528146 117.10196,63.513334 C 117.10196,61.381706 155.80781,55.882168 170.48752,55.928013 C 178.94967,55.95445 180.17731,55.357067 178.87465,51.84673 C 176.95692,46.679038 166.24359,37.166807 162.33675,37.162977 C 148.42908,29.12568 135.72942,41.485067 123.12098,51.749307 C 100.76371,68.220719 116.38719,56.84564 110.32803,60.182715 C 132.14664,44.15712 102.82657,66.971129 98.30309,70.105748 C 93.779617,73.240365 88.028691,77.684302 85.52325,79.981171 C 79.861645,85.171447 70.104791,85.536942 70.104791,80.558767 C 70.104791,78.579574 71.847147,76.29161 73.976693,75.474424 C 76.106239,74.65726 80.714822,70.989412 84.217993,67.323679 C 111.59967,47.994362 94.714582,60.649066 99.6224,56.48258 C 102.12784,54.18571 107.87876,49.805597 112.40225,46.748946 C 120.2574,41.441037 128.45698,34.29025 142.93262,20.123633 C 150.97094,12.256952 153.43979,12.107016 160.0991,19.081112 C 169.27215,28.68775 223.60553,67.708281 227.80906,67.708281 C 228.95644,67.708281 229.89521,70.951862 229.89521,74.916215 C 229.89521,81.307102 229.2959,81.939521 224.60803,80.495485 C 221.70008,79.599743 214.56238,75.672258 208.74647,71.767755 C 202.93058,67.863253 194.73544,62.727049 190.53507,60.353973 L 182.89803,56.039279 L 182.89803,61.62238 C 182.89803,68.242662 179.06379,70.058138 165.0819,70.058138 C 155.15901,70.058138 154.69972,70.36388 154.69972,76.969028 C 154.69972,85.648537 156.57259,86.761338 173.06442,87.880716 C 184.2311,88.63864 187.28839,89.853352 191.69835,95.284322 C 196.4941,101.19042 196.9749,104.28497 196.98552,129.31374 C 196.98552,129.31374 197.06996,147.88741 194.99717,156.84625 C 192.92438,165.80509 190.69435,163.14911 190.69435,163.14911 C 196.7877,161.24358 179.25619,173.45194 177.86858,173.45194 C 176.48096,173.45194 176.00854,175.17942 176.81874,177.29082 C 177.62898,179.40221 176.11614,184.81733 173.45693,189.32439 L 168.62194,197.51904 L 175.55695,212.33884 C 183.3848,229.06654 199.08448,253.00612 209.0992,263.4856 C 212.78248,267.33978 215.79604,272.97996 215.79604,276.01932 C 215.79604,280.4875 214.55311,281.54546 209.3037,281.54546 C 205.33761,281.54546 201.90877,279.82591 200.49172,277.12628 C 199.21594,274.69576 192.85025,264.91446 186.34572,255.39009 C 174.88038,238.60175 167.65898,225.08988 161.70615,209.28728 C 158.4628,200.67738 153.56811,199.68853 137.71063,204.43954 C 124.21492,208.48294 122.88337,214.14671 130.20418,236.3687 C 133.49338,246.35308 138.23561,259.00467 140.74245,264.48337 C 146.03779,276.05646 146.35811,279.54768 142.48045,283.42534 C 138.2275,287.67829 136.76724,286.94842 132.8429,278.60813 z M 173.4593,159.82385 C 180.17569,156.53927 181.92336,154.13484 183.19844,146.42502 C 184.0531,141.25728 184.26378,136.51715 183.66662,135.89143 C 182.01647,134.16233 123.20019,135.94585 121.43544,137.77851 C 120.58777,138.65877 120.58777,143.44919 121.43544,148.4239 C 122.64154,155.50229 124.50933,158.14307 130.0262,160.5698 C 140.17835,165.03556 163.62579,164.63283 173.4593,159.82385 z M 155.66166,123.08777 C 184.41056,121.9452 182.89803,122.43305 182.89803,114.30302 C 182.89803,102.00634 177.45157,98.254474 159.62273,98.269554 C 131.57952,98.293264 119.45183,104.88307 119.45183,120.09711 L 119.45183,126.79292 L 132.75053,125.13135 C 140.06479,124.21751 150.3748,123.2979 155.66166,123.08777 z "
       id="path2240"
       sodipodi:nodetypes="cssssssscccsssscccssssccssssssscccsssscscsscccssssssssssccsssssccsscccc" />
  </g>
</svg>
