<?xml version="1.0" encoding="UTF-8" standalone="no"?>
<!-- Created with Inkscape (http://www.inkscape.org/) -->
<svg
   xmlns:dc="http://purl.org/dc/elements/1.1/"
   xmlns:cc="http://web.resource.org/cc/"
   xmlns:rdf="http://www.w3.org/1999/02/22-rdf-syntax-ns#"
   xmlns:svg="http://www.w3.org/2000/svg"
   xmlns="http://www.w3.org/2000/svg"
   xmlns:sodipodi="http://sodipodi.sourceforge.net/DTD/sodipodi-0.dtd"
   xmlns:inkscape="http://www.inkscape.org/namespaces/inkscape"
   width="300"
   height="300"
   id="svg2"
   sodipodi:version="0.32"
   inkscape:version="0.45.1"
   version="1.0"
   sodipodi:docbase="C:\Documents and Settings\Martin\桌面"
   sodipodi:docname="drawing.svg"
   inkscape:output_extension="org.inkscape.output.svg.inkscape">
  <defs
     id="defs4" />
  <sodipodi:namedview
     id="base"
     pagecolor="#ffffff"
     bordercolor="#666666"
     borderopacity="1.0"
     gridtolerance="10000"
     guidetolerance="10"
     objecttolerance="10"
     inkscape:pageopacity="0.0"
     inkscape:pageshadow="2"
     inkscape:zoom="0.65666667"
     inkscape:cx="111.10589"
     inkscape:cy="75.128774"
     inkscape:document-units="px"
     inkscape:current-layer="layer1"
     width="300px"
     height="300px"
     inkscape:window-width="742"
     inkscape:window-height="577"
     inkscape:window-x="22"
     inkscape:window-y="0" />
  <metadata
     id="metadata7">
    <rdf:RDF>
      <cc:Work
         rdf:about="">
        <dc:format>image/svg+xml</dc:format>
        <dc:type
           rdf:resource="http://purl.org/dc/dcmitype/StillImage" />
      </cc:Work>
    </rdf:RDF>
  </metadata>
  <g
     inkscape:label="Layer 1"
     inkscape:groupmode="layer"
     id="layer1">
    <path
       style="fill:#000000"
       d="M 103.36616,269.36927 C 93.746881,260.59325 93.378811,258.63717 96.602871,233.42712 C 99.643571,209.65082 99.061371,205.43035 91.222341,194.42143 C 80.409771,179.23659 79.776051,146.55653 89.913951,126.95191 L 96.791171,113.65291 L 150.58059,113.65291 C 180.16476,113.65291 207.96041,115.57442 212.34868,117.92295 C 219.2683,121.62624 220.32738,126.80865 220.32738,156.96474 C 220.32738,194.09688 216.83483,200.27657 195.84897,200.27657 C 191.16239,200.27657 187.32792,201.73639 187.32792,203.52064 C 187.32792,205.30484 198.43621,217.83432 212.01299,231.36396 C 227.43336,246.7307 236.72227,259.44656 236.76261,265.24434 C 236.87724,281.73418 223.36565,275.20758 199.97779,247.47592 C 187.65115,232.85987 176.30221,220.90126 174.75793,220.90126 C 171.58506,220.90126 150.20349,250.72768 150.20349,255.15371 C 150.20349,256.73331 160.87676,258.05411 173.92187,258.08884 C 202.6015,258.16523 212.04207,262.56519 204.08857,272.14856 C 199.8139,277.29921 189.84459,278.65037 156.1158,278.65037 C 117.72634,278.65037 112.53862,277.73761 103.36616,269.36927 z M 129.57881,251.4814 C 129.57881,243.98124 153.98887,208.52645 159.15262,208.52645 C 161.03674,208.52645 162.5783,206.67022 162.5783,204.40152 C 162.5783,199.8963 138.32067,198.76379 127.85368,202.78037 C 122.84547,204.70223 121.32894,211.41344 121.32894,231.65493 C 121.32894,246.48548 123.13405,258.0257 125.45387,258.0257 C 127.72259,258.0257 129.57881,255.08073 129.57881,251.4814 z M 190.67631,174.49572 C 191.91803,168.00716 187.85542,167.27708 150.50593,167.27708 C 111.45775,167.27708 108.95412,167.78317 108.95412,175.67632 C 108.95412,183.63118 111.07941,184.0131 149.12446,182.89496 C 183.54828,181.88323 189.49245,180.68173 190.67631,174.49572 z M 191.45285,142.96878 C 191.45285,138.67406 188.51669,134.03352 184.92808,132.65644 C 172.29289,127.80787 118.96366,130.01892 111.17479,135.7143 C 96.554071,146.40523 107.95296,150.77733 150.44691,150.77733 C 187.93038,150.77733 191.45285,150.10658 191.45285,142.96878 z M 35.736501,135.67066 C 24.997761,131.3375 31.333541,117.78865 52.236241,100.38668 C 127.54402,37.691146 144.76575,23.981754 151.07344,21.707057 C 155.65493,20.054896 164.1129,24.159909 175.18212,33.407976 C 184.5603,41.243211 193.58331,47.653899 195.2332,47.653899 C 199.68648,47.653899 263.07533,100.98537 267.11105,108.1275 C 271.14891,115.27347 270.73263,115.84144 258.76247,119.51716 C 251.48752,121.7511 242.78365,116.03613 213.38816,89.72422 C 162.60738,44.270337 162.46961,44.216673 137.58659,60.184051 C 126.37616,67.377787 117.204,74.873899 117.204,76.842123 C 117.204,78.810334 133.75214,79.466817 153.97769,78.300987 C 191.94278,76.112627 201.15005,79.281312 191.30288,91.146456 C 183.92374,100.03775 122.56307,99.548654 112.58538,90.518969 C 105.74571,84.329164 103.44473,85.503409 78.232131,108.04995 C 63.369731,121.34079 51.208561,133.60728 51.207281,135.30882 C 51.204771,138.72303 43.734041,138.89772 35.736501,135.67066 z "
       id="path2252" />
  </g>
</svg>
