<?xml version="1.0" encoding="UTF-8" standalone="no"?>
<!-- Created with Inkscape (http://www.inkscape.org/) -->
<svg
   xmlns:dc="http://purl.org/dc/elements/1.1/"
   xmlns:cc="http://web.resource.org/cc/"
   xmlns:rdf="http://www.w3.org/1999/02/22-rdf-syntax-ns#"
   xmlns:svg="http://www.w3.org/2000/svg"
   xmlns="http://www.w3.org/2000/svg"
   xmlns:sodipodi="http://sodipodi.sourceforge.net/DTD/sodipodi-0.dtd"
   xmlns:inkscape="http://www.inkscape.org/namespaces/inkscape"
   width="300"
   height="300"
   id="svg2"
   sodipodi:version="0.32"
   inkscape:version="0.45.1"
   version="1.0"
   sodipodi:docbase="C:\Documents and Settings\Martin\桌面"
   sodipodi:docname="drawing.svg"
   inkscape:output_extension="org.inkscape.output.svg.inkscape">
  <defs
     id="defs4" />
  <sodipodi:namedview
     id="base"
     pagecolor="#ffffff"
     bordercolor="#666666"
     borderopacity="1.0"
     gridtolerance="10000"
     guidetolerance="10"
     objecttolerance="10"
     inkscape:pageopacity="0.0"
     inkscape:pageshadow="2"
     inkscape:zoom="0.92866691"
     inkscape:cx="178.35418"
     inkscape:cy="126.88913"
     inkscape:document-units="px"
     inkscape:current-layer="layer1"
     width="300px"
     height="300px"
     inkscape:window-width="742"
     inkscape:window-height="577"
     inkscape:window-x="22"
     inkscape:window-y="0" />
  <metadata
     id="metadata7">
    <rdf:RDF>
      <cc:Work
         rdf:about="">
        <dc:format>image/svg+xml</dc:format>
        <dc:type
           rdf:resource="http://purl.org/dc/dcmitype/StillImage" />
      </cc:Work>
    </rdf:RDF>
  </metadata>
  <g
     inkscape:label="Layer 1"
     inkscape:groupmode="layer"
     id="layer1">
    <path
       style="fill:#000000"
       d="M 162.68088,288.11612 C 160.78592,286.22119 153.08484,284.42552 145.56738,284.12574 L 131.89919,283.58067 L 131.89919,262.89865 C 131.89919,242.46873 131.70304,242.02598 115.80515,226.57361 C 94.801167,206.15822 92.025268,192.44399 102.48855,160.78369 C 109.03584,140.97254 121.25669,114.95521 135.3415,90.842131 C 139.89198,83.051738 151.17356,71.060605 153.9525,71.060605 C 157.43421,71.060605 171.19675,89.848924 171.28787,94.72653 C 174.15114,100.24332 174.95557,102.67883 177.97399,110.95131 C 177.97399,114.57675 181.6068,125.22641 186.04686,134.61724 C 190.48696,144.00811 194.41089,156.87493 194.76675,163.21022 C 195.37632,174.06254 188.10334,208.70777 180.5914,230.73537 C 177.95047,238.47954 178.61604,245.37229 183.61324,262.02919 C 187.13808,273.77836 189.4093,285.2296 188.66034,287.4764 C 187.00667,292.43747 167.48295,292.91823 162.68088,288.11612 z M 170.22443,270.11047 C 171.27879,267.36284 170.28095,260.62308 168.00697,255.13324 C 162.5203,241.88726 150.50485,242.72334 148.93182,256.46059 C 148.34431,261.59121 148.66808,267.88537 149.65131,270.44758 C 152.04052,276.6738 167.80498,276.41549 170.22443,270.11047 z M 167.70474,224.91755 C 169.20734,220.84487 171.41564,211.18107 172.61207,203.44241 C 174.31226,192.44523 173.68861,188.95054 169.75665,187.44172 C 166.98975,186.37995 163.51216,187.12632 160.65404,186.91001 C 157.91544,186.70277 156.00505,187.59516 150.72436,188.02338 C 145.82157,188.42094 138.98701,188.29871 131.80078,188.98401 C 114.89979,190.59576 114.41149,198.59882 130.24787,214.43524 C 148.58083,232.76817 163.28952,236.88442 167.70474,224.91755 z M 162.34147,167.72818 C 178.49457,165.59508 180.12529,163.82722 174.8985,154.11515 C 173.20696,150.97205 169.88349,143.58729 167.513,137.70451 C 163.70735,129.73727 162.65747,125.46377 159.46715,116.5661 C 153.69232,93.463362 142.58742,107.76896 128.20227,149.58014 C 119.93458,173.61061 120.07603,174.12041 134.36749,171.79799 C 141.15529,170.695 153.74358,168.86356 162.34147,167.72818 z M 212.57982,197.43847 C 205.7753,179.62108 200.66277,143.0491 204.4075,138.97859 C 208.87778,134.11946 213.17613,139.43331 218.87907,156.86904 C 224.20709,173.15855 225.47067,212.57608 220.6648,212.57608 C 219.39767,212.57608 215.75942,205.76414 212.57982,197.43847 z M 82.360905,154.77481 C 78.830356,150.52075 79.129421,146.67608 84.088747,132.56017 C 92.470741,108.70212 95.227856,103.97118 100.74995,103.97118 C 108.36098,103.97118 107.1434,135.90761 99.024675,149.22322 C 91.720047,161.2037 88.567941,162.25383 82.360905,154.77481 z M 214.99839,108.9215 C 211.6679,99.553878 206.99596,94.128849 201.71186,86.093432 C 199.70596,81.690919 194.84853,74.389905 190.91762,69.868946 C 185.03327,63.10138 182.3583,62.185973 175.77781,64.687868 C 170.91392,66.537113 162.37159,66.546163 153.95598,64.711003 C 122.60047,57.873437 120.54579,58.346658 101.12905,76.878044 C 84.394384,92.84961 72.660153,98.605938 72.660153,90.843712 C 72.660153,85.49877 100.47025,50.889484 119.28851,32.815291 C 145.44285,7.6951444 164.38472,5.6096992 145.01537,29.982876 C 139.61155,36.782694 135.19025,43.503758 135.19025,44.918583 C 135.19025,46.333409 144.0761,47.533494 154.93658,47.585459 C 175.11749,47.681953 178.27621,45.504523 169.98419,37.212506 C 163.32361,30.551933 159.50274,8.5305124 165.00765,8.5305124 C 171.89146,8.5305124 196.94638,36.841473 206.16851,55.040461 C 213.08247,68.684561 227.33985,107.46529 227.33985,112.62755 C 227.33985,115.70825 218.68559,113.10943 214.99839,108.9215 z "
       id="path2208"
       sodipodi:nodetypes="ccccssssccsssssccsssccssssssccsccssccsssccssscccsssssssssssssc" />
  </g>
</svg>
