<?xml version="1.0" encoding="UTF-8" standalone="no"?>
<!-- Created with Inkscape (http://www.inkscape.org/) -->
<svg
   xmlns:dc="http://purl.org/dc/elements/1.1/"
   xmlns:cc="http://web.resource.org/cc/"
   xmlns:rdf="http://www.w3.org/1999/02/22-rdf-syntax-ns#"
   xmlns:svg="http://www.w3.org/2000/svg"
   xmlns="http://www.w3.org/2000/svg"
   xmlns:sodipodi="http://sodipodi.sourceforge.net/DTD/sodipodi-0.dtd"
   xmlns:inkscape="http://www.inkscape.org/namespaces/inkscape"
   width="300"
   height="300"
   id="svg6370"
   sodipodi:version="0.32"
   inkscape:version="0.45.1"
   version="1.0"
   sodipodi:docbase="C:\Documents and Settings\Martin\桌面"
   sodipodi:docname="首-oracle.svg"
   inkscape:output_extension="org.inkscape.output.svg.inkscape">
  <defs
     id="defs6372" />
  <sodipodi:namedview
     id="base"
     pagecolor=""
     bordercolor="#666666"
     borderopacity="1.0"
     gridtolerance="10000"
     guidetolerance="10"
     objecttolerance="10"
     inkscape:pageopacity="0.0"
     inkscape:pageshadow="2"
     inkscape:zoom="1"
     inkscape:cx="121.10975"
     inkscape:cy="162.94127"
     inkscape:document-units="px"
     inkscape:current-layer="layer1"
     width="300px"
     height="300px"
     inkscape:window-width="800"
     inkscape:window-height="578"
     inkscape:window-x="0"
     inkscape:window-y="0" />
  <metadata
     id="metadata6375">
    <rdf:RDF>
      <cc:Work
         rdf:about="">
        <dc:format>image/svg+xml</dc:format>
        <dc:type
           rdf:resource="http://purl.org/dc/dcmitype/StillImage" />
      </cc:Work>
    </rdf:RDF>
  </metadata>
  <g
     inkscape:label="Layer 1"
     inkscape:groupmode="layer"
     id="layer1"
     transform="translate(-123.453,113.2973)">
    <g
       id="g9105" />
    <path
       style="fill:#000000"
       d="M 269.3125,-99.0625 C 266.72965,-82.108542 270.08614,-61.806483 256.625,-48.71875 C 253.48302,-45.308742 246.36147,-41.257772 243.25,-46.90625 C 243.69895,-55.675707 238.78434,-65.00796 233.09375,-70.4375 C 228.3963,-56.333649 235.46797,-40.913911 231.1875,-27.03125 C 227.42915,-22.643008 218.7986,-25.408671 219.15625,-31.46875 C 216.58917,-40.801471 214.94334,-50.436437 209.875,-58.8125 C 205.85571,-40.187337 213.66206,-20.209771 206.09375,-2.125 C 204.8735,9.193013 208.61389,20.462083 211.01768,31.360525 C 214.48521,43.838795 220.93315,56.615635 218.875,69.8125 C 216.15534,76.87652 210.76674,82.341464 206.46875,88.46875 C 205.85548,82.229917 205.33799,75.37967 201.15625,70.34375 C 191.90913,86.282168 186.68724,105.30024 190.15625,123.625 C 193.84754,131.77908 202.11044,138.43282 210.59375,140.625 C 216.42097,138.44297 219.62162,132.43247 224.75687,129.03066 C 233.62472,120.57923 242.36492,111.65632 247.375,100.3125 C 253.13968,98.256579 255.86665,105.84558 256.21875,110.21875 C 256.6177,122.78308 249.61061,134.62256 241.03125,143.25 C 236.67548,147.11248 230.91397,149.11239 226.0625,151.875 C 224.56532,158.99221 232.57367,163.19491 236.46875,167.90625 C 239.32205,171.03306 244.79559,175.56146 248.67734,171.16637 C 262.56865,161.5762 276.24216,150.97521 285.9375,137.15625 C 292.05443,123.16437 287.02929,106.05391 296.1875,93.1875 C 304.13286,90.650677 308.0355,99.880378 311.96875,104.8125 C 315.44216,109.89025 322.77926,113.83434 328.25,109.34375 C 339.40932,103.30787 350.62932,95.31081 357.03125,84.21875 C 360.74945,72.143632 352.70204,60.831182 351.3125,49 C 343.67982,15.897132 340.39895,-18.651331 330.125,-50.90625 C 325.15699,-53.105618 321.84151,-46.503163 320.21875,-42.75 C 317.48828,-36.950624 315.02755,-29.485833 308.03125,-27.71875 C 302.7861,-36.662486 307.71934,-46.83051 307.8125,-56.34375 C 308.72366,-64.686889 311.2349,-74.66755 306.625,-82.1875 C 297.2945,-87.635275 286.65635,-79.049967 281,-71.75 C 278.23,-68.906768 275.7083,-73.042345 276.66478,-75.871606 C 276.13802,-84.059576 275.95767,-93.439189 269.34375,-99.3125 L 269.3125,-99.0625 z M 295.15625,-62.09375 C 300.49179,-59.607855 296.47086,-53.585229 296.21875,-49.5625 C 293.84399,-28.691001 289.79844,-6.6975188 295.5625,13.9375 C 296.86223,16.174225 299.53558,16.370589 300.0625,13.46875 C 307.19944,2.656631 310.81289,-10.742671 321,-19.375 C 329.38692,-13.576777 327.38753,-2.2243739 330.31237,6.2905686 C 334.32623,28.015618 341.18782,49.594504 341.125,71.8125 C 339.96355,80.843332 337.15365,91.474935 329,96.28125 C 320.4649,96.079677 315.62225,87.278115 311.99535,80.72806 C 309.83263,75.161839 305.61877,70.727943 301.75,66.625 C 298.50422,59.111134 306.09197,53.225556 307.78125,46.625 C 308.33976,44.500279 306.81062,40.385848 304.3125,43.25 C 290.40943,52.994399 285.6207,70.699626 280.32398,85.846136 C 275.60341,104.82501 277.88221,126.46268 266.375,143.34375 C 262.32615,148.26575 256.3143,153.2599 249.4375,151.3125 C 253.07588,136.99931 269.29929,127.43835 266.875,111.46875 C 262.93882,100.69078 265.81258,88.016824 259.375,78.125 C 251.50015,75.149728 245.65237,83.649909 242.06331,89.461389 C 232.05955,102.18693 221.66454,117.25245 205.375,121.875 C 198.81573,121.78758 195.15064,111.77261 201.34375,108.34375 C 210.74428,98.638708 228.13706,95.738309 231.71875,81.03125 C 236.45524,58.71699 227.17618,36.834544 221.34375,15.65625 C 218.15772,8.1598213 218.10922,-1.3927844 224.40625,-7.28125 C 238.04631,-24.419261 256.38606,-37.142394 273.21875,-50.96875 C 279.91847,-55.384731 287.32162,-61.143409 295.15625,-62.09375 z M 264.40625,-13.125 C 254.78623,-8.6993889 255.58739,3.9865279 249.8125,11.65625 C 242.91555,27.190585 251.18062,44.581639 261.3125,56.625 C 264.95035,59.786006 268.16576,54.684637 268.625,51.40625 C 269.35948,46.103138 272.23231,41.745553 275.4375,37.75 C 279.85159,27.064781 276.58955,14.85766 274.4375,3.96875 C 272.53052,-2.1738999 270.01813,-9.6370122 264.40625,-13.125 z M 263.125,10.75 C 268.82256,16.802645 265.94111,26.117703 265.59375,33.25 C 262.79974,37.50945 257.89762,33.121137 257.3125,29.53125 C 254.28881,22.775127 255.42684,13.804925 261.75,9.3125 L 262.44122,10.035142 L 263.125,10.75 z "
       id="path9103" />
  </g>
</svg>
