<?xml version="1.0" encoding="UTF-8" standalone="no"?>
<!-- Created with Inkscape (http://www.inkscape.org/) -->
<svg
   xmlns:dc="http://purl.org/dc/elements/1.1/"
   xmlns:cc="http://web.resource.org/cc/"
   xmlns:rdf="http://www.w3.org/1999/02/22-rdf-syntax-ns#"
   xmlns:svg="http://www.w3.org/2000/svg"
   xmlns="http://www.w3.org/2000/svg"
   xmlns:sodipodi="http://sodipodi.sourceforge.net/DTD/sodipodi-0.dtd"
   xmlns:inkscape="http://www.inkscape.org/namespaces/inkscape"
   id="svg2178"
   sodipodi:version="0.32"
   inkscape:version="0.45.1"
   width="300"
   height="300"
   version="1.0"
   sodipodi:docbase="C:\Documents and Settings\L'équipage\Mes documents\Bertrand\Gifs"
   sodipodi:docname="首-seal.svg"
   inkscape:output_extension="org.inkscape.output.svg.inkscape">
  <metadata
     id="metadata2183">
    <rdf:RDF>
      <cc:Work
         rdf:about="">
        <dc:format>image/svg+xml</dc:format>
        <dc:type
           rdf:resource="http://purl.org/dc/dcmitype/StillImage" />
      </cc:Work>
    </rdf:RDF>
  </metadata>
  <defs
     id="defs2181" />
  <sodipodi:namedview
     inkscape:window-height="579"
     inkscape:window-width="752"
     inkscape:pageshadow="2"
     inkscape:pageopacity="0.0"
     guidetolerance="10.0"
     gridtolerance="10.0"
     objecttolerance="10.0"
     borderopacity="1.0"
     bordercolor="#666666"
     pagecolor="#ffffff"
     id="base"
     width="300px"
     height="300px"
     inkscape:zoom="1"
     inkscape:cx="34"
     inkscape:cy="148.40407"
     inkscape:window-x="132"
     inkscape:window-y="132"
     inkscape:current-layer="svg2178" />
  <path
     style="fill:#000000"
     d="M 122.33096,279.99332 C 112.08441,277.21819 101.29407,274.72782 94.660404,266.26741 C 85.280707,258.02061 81.994051,246.28653 81.890882,234.87009 C 80.834839,204.93662 80.437248,174.8789 83.188649,145.00888 C 84.74601,135.71409 85.463269,122.55555 97.382544,119.21203 C 104.1725,119.32754 109.03351,116.789 103.39636,111.37356 C 98.955643,90.316908 102.6178,68.798465 104.41617,47.693354 C 103.61232,40.286863 84.317865,25.293526 102.40205,24.312545 C 111.27366,30.458122 119.22325,39.455628 121.46377,49.417643 C 122.45187,64.140637 115.02471,78.601826 118.0947,93.260765 C 122.84486,101.02537 122.30457,109.91194 120.44684,118.29276 C 146.92916,117.94651 173.52852,119.30978 199.89923,116.73072 C 213.57492,114.96582 193.66495,111.09356 197.15596,104.15461 C 195.15031,92.139871 182.97102,81.946099 187.51469,69.153095 C 189.17186,57.15833 192.27241,44.894387 190.43229,32.833677 C 187.80509,30.027039 176.96148,25.31826 187.36935,24.276405 C 199.77972,23.46864 210.32941,32.42609 207.9818,43.732951 C 207.24084,59.3608 204.87277,75.632353 212.07059,90.471846 C 216.55733,98.536924 214.45021,110.68291 211.12257,115.54298 C 220.91596,112.6127 236.01886,128.78291 220.17928,129.70348 C 202.29071,130.89624 184.25488,128.45933 166.41729,130.40106 C 157.75773,138.47983 164.61346,151.58331 176.42502,153.47108 C 184.32694,155.99959 203.97408,168.27936 203.12638,153.30708 C 201.89089,144.75133 214.27348,132.32321 218.87076,145.78067 C 224.32795,155.93168 224.74903,167.14379 223.19839,178.08544 C 221.37359,200.23565 222.14498,222.64944 217.81359,244.57886 C 213.92403,257.84832 205.44209,272.73006 189.67721,277.05758 C 178.04649,279.4976 166.92746,283.89763 154.16432,282.45207 C 143.61425,282.17598 132.48036,282.90167 122.33096,279.99332 z M 186.69155,262.87582 C 194.9811,259.4352 210.13546,240.03155 194.88623,237.81141 C 164.97556,236.74374 134.79125,237.517 105.18699,241.65003 C 92.880407,244.33349 110.42792,256.97585 115.65842,261.42996 C 128.35414,270.3304 145.78792,267.91266 160.8294,267.62764 C 169.55271,266.84071 178.61586,266.14568 186.69155,262.87582 z M 199.23826,224.27776 C 205.07857,218.86943 202.44227,210.31951 203.0445,203.39366 C 201.59824,201.12191 195.35224,203.35675 191.99329,202.88087 C 161.11444,204.425 130.2057,205.73277 99.269943,205.55972 C 99.269943,212.40025 99.269943,219.24078 99.269943,226.08131 C 132.01086,225.71541 164.79799,226.3459 197.49234,224.54414 L 199.23827,224.27776 L 199.23826,224.27776 z M 159.80508,191.70146 C 173.97874,191.32358 188.16312,191.10293 202.32383,190.44499 C 207.94184,178.45218 190.28296,177.19958 182.7543,171.68864 C 172.09256,167.36332 161.18177,157.09807 148.74405,160.60657 C 132.86646,166.01378 116.66303,171.5594 102.53137,180.07826 C 91.532028,191.42392 111.73578,196.89206 121.55953,192.96544 C 134.2987,192.35232 147.05292,192.01343 159.80508,191.70146 z M 119.53613,156.5545 C 129.70893,151.27741 145.75421,147.06938 145.19284,134.18413 C 141.19456,124.57515 125.17348,132.13679 116.43912,132.203 C 104.16271,132.16537 97.797449,140.08889 99.443147,150.5687 C 98.885338,156.98335 97.095369,169.38205 107.633,161.59654 C 111.61658,159.94577 115.58137,158.25923 119.53613,156.5545 z M 149.6209,107.75951 C 144.28279,91.233633 142.31239,72.961388 149.37371,56.588916 C 153.67486,46.975319 148.29933,37.071826 139.9427,30.835916 C 138.73802,28.739038 130.26732,24.254041 135.82574,24.379977 C 143.33599,23.678725 152.73976,22.004306 157.39989,28.902296 C 166.06457,38.928901 166.49577,52.711773 161.51836,64.178896 C 158.89941,75.409234 158.77684,88.128955 166.38293,97.916257 C 172.58582,106.23864 161.08999,118.41931 151.78616,111.01662 C 150.7602,110.12247 150.04928,108.9717 149.6209,107.75951 z "
     id="path2345" />
</svg>
