<?xml version="1.0" encoding="UTF-8" standalone="no"?>
<!-- Created with Inkscape (http://www.inkscape.org/) -->
<svg
   xmlns:dc="http://purl.org/dc/elements/1.1/"
   xmlns:cc="http://web.resource.org/cc/"
   xmlns:rdf="http://www.w3.org/1999/02/22-rdf-syntax-ns#"
   xmlns:svg="http://www.w3.org/2000/svg"
   xmlns="http://www.w3.org/2000/svg"
   xmlns:sodipodi="http://sodipodi.sourceforge.net/DTD/sodipodi-0.dtd"
   xmlns:inkscape="http://www.inkscape.org/namespaces/inkscape"
   id="svg2667"
   sodipodi:version="0.32"
   inkscape:version="0.45.1"
   width="300"
   height="300"
   version="1.0"
   sodipodi:docbase="/home/michelet/Images/Temp"
   sodipodi:docname="首-bronze.svg"
   inkscape:output_extension="org.inkscape.output.svg.inkscape">
  <metadata
     id="metadata2672">
    <rdf:RDF>
      <cc:Work
         rdf:about="">
        <dc:format>image/svg+xml</dc:format>
        <dc:type
           rdf:resource="http://purl.org/dc/dcmitype/StillImage" />
      </cc:Work>
    </rdf:RDF>
  </metadata>
  <defs
     id="defs2670" />
  <sodipodi:namedview
     inkscape:window-height="941"
     inkscape:window-width="1269"
     inkscape:pageshadow="2"
     inkscape:pageopacity="0.0"
     guidetolerance="10.0"
     gridtolerance="10.0"
     objecttolerance="10.0"
     borderopacity="1.0"
     bordercolor="#666666"
     pagecolor="#ffffff"
     id="base"
     width="300px"
     height="300px"
     inkscape:zoom="2"
     inkscape:cx="47.5"
     inkscape:cy="125.5"
     inkscape:window-x="0"
     inkscape:window-y="27"
     inkscape:current-layer="svg2667" />
  <path
     style="fill:#000000"
     d="M 44.085556,262.77905 C 27.924473,259.11909 9.4713973,248.86742 8.221337,230.43096 C 8.603668,217.35441 4.6704988,197.10389 14.065861,188.86156 C 35.818509,181.56149 61.042049,176.28504 74.744008,155.94276 C 83.966223,143.02343 86.701371,125.87302 99.810183,115.63835 C 110.19389,105.19605 129.37039,99.683255 127.09018,81.542158 C 126.86136,67.665223 130.06394,54.168922 131.06765,40.398004 C 138.06384,29.238064 142.39956,53.121732 142.48623,58.770236 C 141.3332,71.854495 144.29361,94.727866 162.6955,83.922615 C 175.76178,79.740802 175.99538,65.705245 176.74045,54.45043 C 177.73709,44.226785 179.35137,33.557403 185.30563,24.904151 C 193.64961,34.62709 191.48503,48.86143 193.69441,60.737145 C 193.54194,77.580232 210.39666,70.544891 220.46092,68.118288 C 238.4736,69.230786 234.95199,48.289914 239.10529,35.871091 C 238.31454,27.248567 243.15039,15.882115 249.64728,27.721397 C 256.5602,39.068632 249.64885,58.02562 255.79565,66.200603 C 266.74799,67.323019 285.46003,62.81748 291.2749,70.799055 C 282.61583,83.721845 263.97857,81.384501 250.4122,84.632124 C 224.66069,87.173442 198.45474,89.422156 174.25181,99.246245 C 155.58242,104.43947 135.96274,110.17465 121.6294,123.94419 C 118.52822,137.85891 141.93537,127.53368 150.19212,129.88933 C 173.24618,128.96455 196.21595,126.238 219.25098,125.34218 C 235.17564,131.14364 218.33217,149.95892 215.30542,160.0981 C 211.50128,180.22449 233.28799,167.13824 242.66044,164.18218 C 250.6985,160.92098 271.31898,165.37205 255.90358,172.57043 C 238.69705,183.26744 219.4036,190.8135 204.35145,204.80218 C 187.28108,219.85046 172.67969,237.49689 155.45171,252.32771 C 137.9142,267.33525 113.55341,266.50813 91.867801,266.99789 C 75.880298,266.77613 59.831018,265.55557 44.085556,262.77905 z M 75.897865,251.57204 C 83.529988,240.13214 59.955556,231.95364 64.999225,217.9246 C 66.416139,206.64167 67.263789,182.33565 49.149867,192.26642 C 31.135176,194.74301 21.966732,213.60624 28.59917,229.86721 C 31.555127,246.1283 49.288531,249.82249 62.819994,253.0587 C 67.203038,253.73075 71.825261,253.43972 75.897865,251.57204 z M 152.78873,231.12541 C 172.1905,210.69842 165.87602,176.93297 148.83742,157.11215 C 136.53381,143.6277 114.37272,146.15797 103.37363,159.92212 C 90.370748,171.66693 80.012732,187.67458 80.570757,205.78376 C 80.293253,217.83134 83.908215,230.49236 92.699317,239.0885 C 105.78477,243.57694 120.36341,248.44063 133.68055,241.85568 C 140.60249,239.4433 147.37825,236.16165 152.78873,231.12541 z M 115.24825,210.78766 C 104.8965,196.42985 131.15099,180.02312 134.92898,199.80021 C 136.37474,208.64045 118.91803,226.49311 115.24825,210.78766 z M 198.14513,147.80849 C 186.4127,137.93409 167.5618,153.29312 180.51793,165.18083 C 183.47635,174.44532 182.74813,184.50206 186.03243,193.66054 C 191.19908,178.70889 195.54713,163.42942 198.14513,147.80849 z "
     id="path2676" />
</svg>
