<?xml version="1.0" encoding="UTF-8" standalone="no"?>
<!-- Created with Inkscape (http://www.inkscape.org/) -->

<svg
   xmlns:dc="http://purl.org/dc/elements/1.1/"
   xmlns:cc="http://creativecommons.org/ns#"
   xmlns:rdf="http://www.w3.org/1999/02/22-rdf-syntax-ns#"
   xmlns:svg="http://www.w3.org/2000/svg"
   xmlns="http://www.w3.org/2000/svg"
   version="1.1"
   width="300"
   height="300"
   id="svg2">
  <defs
     id="defs4" />
  <metadata
     id="metadata7">
    <rdf:RDF>
      <cc:Work
         rdf:about="">
        <dc:format>image/svg+xml</dc:format>
        <dc:type
           rdf:resource="http://purl.org/dc/dcmitype/StillImage" />
        <dc:title></dc:title>
      </cc:Work>
    </rdf:RDF>
  </metadata>
  <g
     transform="translate(0,-752.36218)"
     id="layer1">
    <path
       d="M 83.149126,1035.3325 C 81.461613,1032.602 78.071085,946.7316 78.410953,915.3308 78.560515,901.5126 79.86306,887.28972 81.305498,883.72446 84.379299,876.12698 96.198507,868.50904 123.60159,860.33277 143.54847,854.38121 143.40743,856.94446 143.52897,847.24115 143.57523,843.5481 143.84381,835.2494 142.72973,834.13532 141.61565,833.02124 131.66885,840.61589 121.16485,845.62094 110.66086,850.62597 94.83874,856.94183 86.004581,859.65616 72.077902,863.93519 69.560316,864.13084 67.067993,861.12777 62.811073,855.99849 67.884482,852.2833 88.906471,845.13571 112.90491,836.97612 140.26228,828.29353 141.42685,821.35979 141.7949,819.16841 130.14538,821.94915 124.98314,821.12367 113.62792,819.3079 101.98533,810.05841 99.75771,801.08325 98.858504,797.46032 98.265498,790.21671 93.35895,788.35189 85.025617,785.18465 88.974402,777.11277 97.776887,775.36957 101.4523,774.64171 109.30481,773.05017 115.2269,771.83282 121.149,770.61546 131.64253,768.92502 138.54587,768.07627 153.08024,766.28932 153.05926,765.98032 156.90591,790.69388 158.53973,801.19071 155.38184,807.86392 164.27582,807.42402 171.42278,807.07051 172.93647,805.6909 181.40845,797.08423 193.14045,785.16571 198.98332,782.06555 198.96478,790.44996 198.93879,802.21194 182.31782,817.22737 169.32419,817.22737 165.98514,817.22737 161.25982,816.55756 159.5666,817.73824 157.18043,819.40213 158.93131,823.29133 162.66273,825.28832 170.63972,829.55747 211.34039,840.32583 216.29077,841.15504 225.9468,842.77246 239.41872,852.415 232.34173,856.78882 229.72569,858.40562 198.51188,848.75838 180.02316,840.61874 174.20643,838.05792 166.66339,834.53889 163.27379,834.24459 156.17335,833.62808 156.37003,835.04663 156.35765,841.60341 156.33205,855.15647 161.9025,854.14772 176.24245,856.63385 189.31391,858.90007 214.82199,871.31902 216.94079,876.44841 219.91479,883.64808 225.90161,1013.73 223.62441,1021.6702 222.47023,1025.6945 219.92797,1028.6898 218.02631,1028.9872 213.3256,1029.7224 214.22817,1018.7801 212.6721,965.5789 210.71929,898.8131 210.16385,885.33836 201.82815,877.50902 193.47424,869.66259 158.70934,862.05178 155.43815,867.34469 154.36377,869.08307 155.18844,882.81726 155.4736,897.326 156.00793,924.5122 154.33771,931.4348 147.84522,928.9434 144.76747,927.7623 143.96757,922.1893 143.41639,898.0869 142.75615,871.42206 147.74674,867.31597 132.89812,867.01963 120.94823,867.52024 95.66142,880.73978 92.113028,887.37001 90.309509,890.7399 91.025034,914.0821 91.809952,962.3128 92.901336,1029.3751 93.772179,1037.2149 86.176365,1037.3619 85.201397,1037.3808 83.838958,1036.4487 83.149126,1035.3325 z M 143.45714,797.87567 C 144.01389,789.30928 143.52331,782.81563 139.26089,781.21361 136.27023,780.08959 131.27342,782.49345 124.1207,783.46409 116.59923,784.48478 109.66261,786.10258 108.70598,787.05922 107.74935,788.01585 108.06513,793.17343 110.6657,797.98138 115.62204,807.14468 124.04218,810.70832 136.3006,810.00168 143.059,809.61208 142.78545,808.21057 143.45714,797.87567 z M 137.95818,996.6849 C 137.14484,995.3688 132.94715,994.2921 128.62998,994.2921 117.56073,994.2921 115.2269,987.5931 115.2269,955.8201 115.2269,934.6466 115.71997,927.1585 118.82166,927.1285 127.5452,927.0443 125.33132,930.9406 126.45111,934.0073 128.86064,940.6062 134.02614,937.8306 151.95298,937.2448 161.67923,936.927 171.76821,937.0717 172.65816,928.2848 173.54159,919.5621 178.06822,921.6459 181.27774,926.0352 185.21009,931.413 186.01323,978.3447 182.33831,988.0105 180.78357,992.0997 177.1722,994.806 170.97267,996.5276 159.44829,999.7278 139.89641,999.821 137.95818,996.6849 z M 166.90521,984.4333 C 173.68554,981.0461 172.33914,979.4712 172.33914,973.6595 172.33914,966.4822 173.07215,966.3341 156.6062,965.7832 136.6497,965.1155 123.9559,967.4777 126.01443,975.9692 126.7751,979.1069 128.58869,984.7077 130.65672,986.7758 135.6973,991.8164 156.39761,989.6825 166.90521,984.4333 z M 162.93519,958.6966 C 169.27682,957.5115 171.99219,955.0268 172.04506,952.9868 172.28291,943.8099 169.69022,946.9579 149.84627,946.9363 138.48971,946.9239 129.44007,946.1252 126.27442,947.4585 123.39609,948.6708 124.14692,952.1159 126.17103,955.898 128.40299,960.0685 131.90955,960.77 142.22972,960.6583 149.09252,960.584 158.15146,959.5906 162.93519,958.6966 z M 106.01242,916.9568 C 101.94168,912.0519 105.20392,910.4926 120.55485,910.0058 135.49603,909.5319 144.92194,913.6343 140.37178,916.0958 137.87528,917.4463 127.98554,917.0695 119.92718,918.0503 109.56973,919.311 108.33696,919.7578 106.01242,916.9568 z M 170.86876,917.5598 C 160.05587,917.4668 159.96256,915.5006 163.10573,911.7133 167.36249,906.5843 194.1882,906.6735 194.1882,911.8168 194.1882,913.8321 192.84342,915.8994 191.19724,916.4024 184.99361,918.2981 177.98477,917.621 170.86876,917.5598 z M 102.48624,897.007 C 98.394353,892.9151 107.09544,889.0104 120.30542,889.0104 132.77385,889.0104 134.36903,889.5532 134.36903,893.7959 134.36903,898.0777 132.77385,898.5814 119.21485,898.5814 110.88004,898.5814 103.35217,897.873 102.48624,897.007 z M 173.84968,894.5309 C 169.90162,894.0135 165.05626,893.0212 163.08223,892.3258 156.24527,889.9172 168.13022,884.22484 179.99594,884.22484 193.21323,884.22484 199.93162,889.4415 192.10723,893.629 189.47673,895.0368 185.90779,896.0273 184.17624,895.8302 182.4447,895.633 177.79774,895.0483 173.84968,894.5309 z"
       id="path3009"
       style="fill:#000000" />
  </g>
</svg>
