<?xml version="1.0" encoding="UTF-8" standalone="no"?>
<!-- Created with Inkscape (http://www.inkscape.org/) -->
<svg
   xmlns:svg="http://www.w3.org/2000/svg"
   xmlns="http://www.w3.org/2000/svg"
   version="1.0"
   width="300"
   height="300"
   id="svg2">
  <defs
     id="defs5" />
  <path
     d="M 160.09074,227.08255 C 152.34422,222.81714 142.48051,241.96422 135.12186,245.91658 C 127.14422,251.71198 118.18676,265.91005 108.19274,262.27953 C 106.41275,247.38033 115.23419,251.3817 152.55965,208.06008 C 145.55544,200.24008 140.51862,195.70217 132.12562,187.42592 C 97.41124,207.80475 103.40387,212.77075 74.168392,217.7856 C 70.385455,204.30003 81.598004,206.9205 121.39809,176.73753 C 112.44491,168.22243 110.54347,166.79268 100.97837,161.37582 C 88.55723,166.16369 67.03485,181.02733 46.045961,184.16833 C 36.774152,171.55849 52.217062,173.99097 92.36608,153.23668 C 78.492912,139.5996 67.037282,127.86865 70.52225,111.05554 C 76.698966,85.323886 92.68321,62.80654 110.90395,44.052193 C 123.88449,31.889082 139.24464,18.637493 158.02169,18.601904 C 169.52251,20.87634 178.19105,29.977056 187.75145,36.238048 C 217.3216,58.891842 223.98936,63.15142 261.90874,92.755816 C 273.07262,107.06303 250.70256,109.22573 242.78359,101.1433 C 229.29486,94.507666 218.20251,80.449755 205.04879,73.289001 C 200.56313,78.252925 196.7453,82.118596 188.81106,90.876206 C 218.32567,114.61027 221.42272,117.11731 235.09387,126.94529 C 241.56856,134.09707 235.81199,145.07275 225.92877,135.96285 C 209.72435,125.51599 195.03131,112.94289 179.67565,101.31713 C 173.10984,108.04542 167.27489,113.62304 159.50553,122.20627 C 172.5803,135.74317 188.52049,144.91988 201.07418,157.14907 C 207.51085,160.79636 219.49098,179.25948 205.11746,177.50227 C 188.62427,173.27611 179.77627,157.52173 165.83104,149.04369 C 159.53729,144.60572 151.47471,138.61172 145.14128,134.23062 C 136.64422,141.74291 129.37466,145.78769 120.33877,155.599 C 128.89121,160.81609 138.80372,168.92975 146.66793,177.00858 C 159.8319,189.22202 171.95254,206.13683 191.53723,207.20617 C 210.88558,211.06693 215.11454,209.67801 223.30284,217.95618 C 219.8725,232.15589 196.16901,222.63961 176.87236,224.02169 C 181.02575,241.61786 181.38399,261.6372 171.02559,277.17636 C 146.44381,288.44294 172.92171,251.85977 160.09074,227.08255 z M 131.98728,123.41686 C 115.25739,107.8979 107.98811,102.17044 95.43331,92.868236 C 74.666853,118.3757 93.87684,134.19202 105.71115,144.07007 C 116.29931,135.03263 120.49085,132.21745 131.98728,123.41686 z M 164.14366,91.437476 C 147.17783,77.252802 137.94526,68.664099 121.42024,56.54052 C 108.76179,64.054891 112.66358,65.210738 105.22703,77.211289 C 118.14614,88.416736 129.8876,99.362076 144.87589,111.83618 C 154.40747,101.55136 159.88199,96.846266 164.14366,91.437476 z M 193.22174,60.634203 C 187.2913,55.122627 182.44736,52.59839 176.83143,46.983895 C 156.87842,27.035979 145.72968,36.961931 134.36221,47.342369 C 150.39431,62.877165 159.67029,67.970589 173.49949,80.595156 C 181.82138,72.440879 185.5092,69.039068 193.22174,60.634203 z "
     style="fill:black;fill-opacity:1"
     id="path1875" />
</svg>
