<?xml version="1.0" encoding="UTF-8" standalone="no"?>
<!-- Created with Inkscape (http://www.inkscape.org/) -->

<svg
   xmlns:dc="http://purl.org/dc/elements/1.1/"
   xmlns:cc="http://creativecommons.org/ns#"
   xmlns:rdf="http://www.w3.org/1999/02/22-rdf-syntax-ns#"
   xmlns:svg="http://www.w3.org/2000/svg"
   xmlns="http://www.w3.org/2000/svg"
   version="1.1"
   width="300"
   height="300"
   id="svg2">
  <defs
     id="defs4" />
  <metadata
     id="metadata7">
    <rdf:RDF>
      <cc:Work
         rdf:about="">
        <dc:format>image/svg+xml</dc:format>
        <dc:type
           rdf:resource="http://purl.org/dc/dcmitype/StillImage" />
        <dc:title></dc:title>
      </cc:Work>
    </rdf:RDF>
  </metadata>
  <g
     transform="translate(0,-752.36218)"
     id="layer1">
    <path
       d="M 218.17593,898.36665 C 217.37489,895.17506 217.00542,890.53473 217.3549,888.05482 218.6231,879.05544 215.6554,858.00491 211.70759,854.50739 206.82751,850.18391 194.12299,847.47317 150.20378,846.30229 92.47746,844.76333 89.18496,850.11873 85.33771,881.73872 82.98603,901.06683 78.87732,905.273 72.15447,898.55015 68.62981,895.0255 68.63746,892.96955 72.24328,874.66691 77.22607,849.37491 82.08512,840.69861 100.62807,836.06033 108.05139,834.20349 122.01926,832.21533 132.30047,832.7983 140.67003,833.27287 141.62116,836.41221 146.43679,835.6979 146.61301,835.67177 143.80346,806.10987 158.82321,797.94376 167.7966,793.06502 199.19286,799.71096 199.34503,796.8608 199.49239,794.10057 205.95769,781.0893 185.2879,779.31476 137.91783,775.24796 126.78002,782.6373 124.59068,783.0367 114.18678,784.9347 117.27382,812.30194 113.00966,825.5879 110.08204,834.70956 103.15512,829.10008 102.90345,828.62982 99.37503,822.0369 102.01022,791.95446 106.95355,782.39509 113.66696,769.41282 122.25655,767.04882 161.4628,767.39327 188.78026,767.63327 198.5182,768.59287 204.376,771.62206 208.54349,773.77715 212.45367,776.36706 213.0653,777.3774 213.67692,778.38775 214.95334,789.66651 215.90179,802.44132 217.39864,822.60264 217.07812,826.21636 213.47339,829.8211 208.44257,834.8519 205.15439,835.33688 204.90299,827.23272 204.43331,812.09267 194.5023,805.71699 177.86311,809.60885 165.30465,812.54623 157.27395,809.31261 159.41837,821.51902 161.41017,832.85671 161.77815,836.59658 173.39763,836.68602 187.59147,836.79528 215.58949,841.95497 223.32177,847.02135 228.36562,850.32621 229.30144,852.96579 229.62421,864.79788 229.83269,872.44034 230.19018,881.96877 230.41863,885.97219 231.30744,901.54751 221.47312,911.50372 218.17593,898.36665 z M 146.79041,1017.8593 C 146.83607,994.65956 148.91082,989.51316 171.72692,964.62397 195.93092,938.22066 199.75046,920.2852 188.49081,899.31126 181.07513,885.49767 172.47562,880.35364 158.81248,881.89367 148.48852,883.05733 140.09411,883.91283 141.99125,887.29766 143.01175,889.1184 150.87203,893.29288 155.23192,896.36601 165.64484,903.7057 166.161,904.62959 166.161,915.92755 166.161,929.49822 157.48949,952.69582 152.41664,952.69582 146.67031,952.69582 144.72146,946.28678 150.62044,933.54159 157.60777,918.44495 152.61563,907.8877 141.71221,900.61329 128.10364,891.53409 122.11555,893.38325 116.01214,905.01871 109.22152,917.96426 112.55048,916.54199 124.11377,926.69468 133.60198,935.02544 132.43043,937.06156 125.96061,958.78603 120.10459,978.44948 113.22933,991.27126 107.32289,991.41406 101.42828,991.55666 103.05398,987.22656 111.6492,965.76107 119.54405,946.04465 118.87766,935.81557 111.16982,931.69046 104.74185,928.25032 99.74214,933.41476 93.55022,949.40034 90.47762,957.33285 91.1348,967.15826 86.22755,966.78293 84.20798,966.62847 82.63705,963.06483 80.6966,959.97475 75.69508,952.01005 99.68006,904.75695 117.22151,888.01661 131.58551,874.3086 141.78705,870.20115 161.46914,870.20115 177.07033,870.20115 179.7273,870.92971 187.989,877.4731 198.50812,885.8044 203.63069,896.9854 206.05853,916.91332 208.35338,935.74961 200.96894,952.91033 177.38888,975.65843 158.43281,993.94566 156.45575,1004.5334 156.45575,1023.947 156.45575,1030.1309 155.99912,1035.1905 155.44104,1035.1905 144.88846,1040.9099 147.33765,1035.3997 146.79041,1017.8593 z"
       id="path3800"
       style="fill:#000000" />
  </g>
</svg>
