<?xml version="1.0" encoding="UTF-8" standalone="no"?>
<!-- Created with Inkscape (http://www.inkscape.org/) -->

<svg
   xmlns:dc="http://purl.org/dc/elements/1.1/"
   xmlns:cc="http://creativecommons.org/ns#"
   xmlns:rdf="http://www.w3.org/1999/02/22-rdf-syntax-ns#"
   xmlns:svg="http://www.w3.org/2000/svg"
   xmlns="http://www.w3.org/2000/svg"
   version="1.1"
   width="300"
   height="300"
   id="svg2">
  <defs
     id="defs4" />
  <metadata
     id="metadata7">
    <rdf:RDF>
      <cc:Work
         rdf:about="">
        <dc:format>image/svg+xml</dc:format>
        <dc:type
           rdf:resource="http://purl.org/dc/dcmitype/StillImage" />
        <dc:title></dc:title>
      </cc:Work>
    </rdf:RDF>
  </metadata>
  <g
     transform="translate(0,-752.36218)"
     id="layer1">
    <path
       d="M 178.43331,1028.7465 C 178.43331,1016.2394 185.32381,988.23718 192.83269,970.22897 204.29426,942.74123 217.09667,918.31471 222.89891,912.8638 227.85076,908.21177 228.96249,908.01794 231.70933,911.32767 234.27251,914.41612 233.69287,916.66325 228.56941,923.50035 225.11354,928.11209 221.4159,934.74827 220.35244,938.2474 219.28898,941.74653 214.62807,951.76257 209.99485,960.50529 207.63991,964.94896 203.49827,969.74327 201.45651,974.99538 199.48121,980.07653 199.57421,985.64621 199.13184,988.22958 196.646,1002.7473 188.41241,1030.7271 185.49062,1034.3145 181.00175,1039.8258 178.43331,1037.7994 178.43331,1028.7465 z M 158.63771,1027.5072 C 157.9714,1025.5236 158.70912,1008.9906 157.98615,992.89458 156.32779,955.97413 151.7703,910.78849 149.28058,902.48695 148.23115,898.98782 144.91258,895.31331 142.39691,891.04855 139.88125,886.78379 136.9301,877.04984 135.8388,869.41756 134.0302,856.76876 137.52156,853.73053 127.15945,854.06727 119.11165,854.32882 118.66111,854.01789 113.92195,862.03693 105.22688,876.74966 97.024008,900.48072 97.010808,908.51304 97.004318,912.4541 95.928618,917.67866 94.620358,920.12318 93.312091,922.56769 91.086737,937.22721 90.166052,952.53624 86.162055,1019.1141 85.983811,1027.1149 81.997865,1027.1149 80.945918,1027.1149 78.410751,1026.7102 77.82399,1024.3042 76.59189,1019.2518 78.016831,1006.7439 78.159633,980.23696 78.450549,926.23691 81.165539,911.28119 93.378277,881.01501 98.396028,868.57978 102.10868,863.09391 101.83689,855.09318 101.78476,853.55841 93.041327,853.91923 85.762582,854.53765 64.623253,856.3337 64.744733,853.04071 69.194008,847.67966 71.075781,845.41227 77.161972,844.08899 85.708734,844.08899 93.152836,844.08899 101.87333,844.62429 102.06814,842.94107 103.22675,832.93082 99.218478,833.9407 94.410515,826.63426 81.941328,807.68542 79.185267,802.07905 79.185267,793.9261 79.185267,784.25001 85.607638,775.62555 96.067688,771.25506 108.35607,766.12064 160.00942,766.04357 165.11788,771.15203 172.63476,778.6689 166.26198,781.04584 143.13965,779.34952 117.01348,777.43284 96.263308,778.87037 92.521575,788.15471 86.332172,803.51246 90.66822,805.29286 102.98899,816.11063 107.73833,820.2806 111.21439,824.03019 112.12135,830.73065 113.50599,840.9603 128.70217,847.99888 133.36718,841.61911 138.59225,834.47338 128.46753,803.36472 120.30882,800.23392 114.88639,798.15314 116.61436,793.76941 122.92183,790.39374 127.784,787.79159 129.22732,788.34219 134.36089,794.75765 137.59204,798.79563 138.90251,803.35998 138.90947,804.40972 138.91152,804.72042 138.87305,805.0842 139.09346,805.22098 148.6628,811.15915 151.50951,804.52444 158.90297,798.88517 163.49057,795.38605 165.28933,793.32645 167.48219,793.32645 171.9762,793.32645 173.82657,798.11407 174.95637,800.52148 175.81389,802.3487 169.38989,803.67289 166.97575,805.09895 157.2708,810.83182 147.78864,821.09271 147.84575,834.94088 147.87291,841.52316 144.92098,844.36049 159.78299,843.72611 170.35117,843.27501 178.13163,847.83624 175.12439,850.82847 173.83703,852.1094 168.05761,852.33733 163.80059,853.01744 158.55189,853.85597 151.06698,853.88312 148.9675,855.04146 142.79914,858.44471 143.64698,880.73373 153.10144,889.18034 157.97349,893.53302 161.55437,902.71988 162.20685,907.12798 162.85932,911.53608 163.65216,924.15004 165.27785,934.66809 169.0217,958.89056 168.21114,1023.2957 163.88402,1027.618 161.45212,1030.0471 159.58883,1030.3386 158.63771,1027.5072 z M 124.64464,984.26543 C 105.50233,981.58276 104.63348,979.96522 104.63348,947.00834 104.63348,917.44284 107.3541,903.9259 112.91982,905.83911 115.18728,906.61855 118.89053,915.33647 116.181,935.94761 111.47567,971.74064 119.6816,974.7243 123.75194,973.3864 125.90941,972.67727 125.20794,960.54655 126.93392,937.37971 128.98532,909.84481 125.80055,897.86638 132.22485,900.67803 135.12781,901.94854 136.56503,907.16954 137.15768,935.6213 137.79544,966.23762 135.66996,975.36025 143.68571,976.31718 147.06413,976.7205 147.93431,976.51555 146.73947,983.8658 146.30349,986.54782 145.65227,985.90376 135.76563,984.64546 133.13657,984.31085 128.48579,984.80377 124.64464,984.26543 z M 176.71939,916.3835 C 173.79049,906.94274 220.05614,829.77013 226.80946,833.91656 230.97441,836.47376 229.20784,843.67529 217.81313,860.3168 213.94249,865.96969 207.55936,873.739 202.71422,882.13186 199.63046,887.47362 197.84559,893.51856 195.54594,897.97645 184.46008,919.46653 179.17756,924.30693 176.71939,916.3835 z M 178.43473,833.2735 C 178.43926,823.20407 217.92281,772.83398 225.81141,772.83398 228.30338,772.83398 231.87456,778.18684 231.87456,781.92205 231.87456,782.49259 225.29892,789.94403 218.65057,797.55511 212.00223,805.1662 199.15508,820.42149 193.80413,827.52158 184.63963,839.6818 178.43133,840.8716 178.43473,833.2735 z"
       id="path3007"
       style="fill:#000000" />
  </g>
</svg>
