<?xml version="1.0" encoding="UTF-8" standalone="no"?>
<!-- Created with Inkscape (http://www.inkscape.org/) -->
<svg
   xmlns:dc="http://purl.org/dc/elements/1.1/"
   xmlns:cc="http://web.resource.org/cc/"
   xmlns:rdf="http://www.w3.org/1999/02/22-rdf-syntax-ns#"
   xmlns:svg="http://www.w3.org/2000/svg"
   xmlns="http://www.w3.org/2000/svg"
   xmlns:sodipodi="http://sodipodi.sourceforge.net/DTD/sodipodi-0.dtd"
   xmlns:inkscape="http://www.inkscape.org/namespaces/inkscape"
   width="300"
   height="300"
   id="svg2"
   sodipodi:version="0.32"
   inkscape:version="0.45.1"
   version="1.0"
   sodipodi:docbase="C:\Documents and Settings\Martin\桌面"
   sodipodi:docname="鬥-seal.svg"
   inkscape:output_extension="org.inkscape.output.svg.inkscape">
  <defs
     id="defs4" />
  <sodipodi:namedview
     id="base"
     pagecolor="#ffffff"
     bordercolor="#666666"
     borderopacity="1.0"
     gridtolerance="10000"
     guidetolerance="10"
     objecttolerance="10"
     inkscape:pageopacity="0.0"
     inkscape:pageshadow="2"
     inkscape:zoom="0.98994949"
     inkscape:cx="186.64277"
     inkscape:cy="133.99407"
     inkscape:document-units="px"
     inkscape:current-layer="layer1"
     width="300px"
     height="300px"
     inkscape:window-width="742"
     inkscape:window-height="577"
     inkscape:window-x="50"
     inkscape:window-y="0" />
  <metadata
     id="metadata7">
    <rdf:RDF>
      <cc:Work
         rdf:about="">
        <dc:format>image/svg+xml</dc:format>
        <dc:type
           rdf:resource="http://purl.org/dc/dcmitype/StillImage" />
      </cc:Work>
    </rdf:RDF>
  </metadata>
  <g
     inkscape:label="Layer 1"
     inkscape:groupmode="layer"
     id="layer1">
    <path
       style="fill:#000000"
       d="M 75.504472,275.42026 C 74.326659,264.08157 76.610598,229.30657 79.835358,209.47843 C 83.586443,186.41398 84.033201,185.33875 94.958784,173.08054 C 101.15077,166.13328 107.61819,160.44916 109.33082,160.44916 C 113.90571,160.44916 122.02407,149.13272 122.02407,142.75563 C 122.02407,136.72819 118.97536,135.0315 100.09965,130.554 C 93.760866,129.05039 86.874825,126.28187 84.797303,124.40176 C 78.458755,118.66543 74.982053,95.657519 76.47365,69.317836 C 78.859548,27.186188 84.284682,21.790559 124.26085,21.790559 C 145.90419,21.790559 147.44482,22.097704 147.44482,26.412513 C 147.44482,30.474231 145.90419,31.034466 134.73444,31.034466 C 121.53364,31.034466 120.59078,31.901756 124.17513,40.747381 C 125.35818,43.66702 126.98955,49.121397 127.80035,52.868218 C 128.93773,58.124031 129.75827,58.916096 131.39138,56.334685 C 132.55564,54.494418 133.54004,50.908868 133.57895,48.366794 C 133.6179,45.82472 134.59449,42.251801 135.7492,40.426975 C 139.51368,34.477785 145.13384,41.911151 145.13384,52.839352 C 145.13384,60.582736 143.7445,63.854504 138.20091,69.165587 C 131.50212,75.583442 129.74197,82.143146 132.67072,89.775371 C 134.73019,95.142254 137.49782,94.235841 139.14991,87.653401 C 140.80327,81.065874 148.4304,79.710673 150.69139,85.602697 C 151.84374,88.605686 152.78365,88.779875 155.53115,86.499642 C 157.40649,84.943259 160.42793,84.240503 162.24549,84.937963 C 165.91579,86.346385 168.66848,81.610407 166.29656,77.968144 C 165.46089,76.684888 162.43728,74.402743 159.57745,72.896704 C 155.29581,70.641919 154.37775,68.214303 154.37775,59.147076 C 154.37775,48.988356 157.23573,42.589352 161.77287,42.589352 C 162.7897,42.589352 163.62165,46.101805 163.62165,50.394803 C 163.62165,60.251161 169.8031,66.556066 171.46264,58.392392 C 175.40314,39.007996 175.30825,38.088513 169.20944,36.557806 C 164.54699,35.387606 163.51112,33.867198 164.07315,29.019015 C 164.72778,23.371857 165.5063,22.983815 175.17654,23.484722 C 205.7269,25.067185 213.98635,26.762565 219.44241,32.57098 C 224.66184,38.12749 224.86035,39.691518 224.8032,74.809849 C 224.74478,110.72139 224.64966,111.40206 218.57702,119.36371 C 214.32692,124.93587 209.94883,127.8483 204.49121,128.73394 C 200.13579,129.44073 191.75824,132.21205 185.8744,134.89247 C 169.71395,142.2544 172.21175,151.38354 192.31493,158.43172 C 205.33738,162.9974 213.91302,172.47456 215.61318,184.17922 C 216.39443,189.55774 218.40568,210.59735 220.0826,230.93395 C 223.23398,269.15178 222.3248,276.95373 214.88498,275.53578 C 211.73882,274.93618 210.90713,271.71174 210.52753,258.64178 C 209.67638,229.33517 204.69061,191.84584 200.552,183.63274 C 197.34556,177.26958 193.52656,174.41247 182.01804,169.76688 C 173.65115,166.38947 165.55596,161.26324 162.87093,157.64208 C 158.7668,152.10707 158.53718,150.3072 160.92042,142.35262 C 164.91093,129.03349 164.27747,115.69946 159.35213,109.34159 C 157.00387,106.31034 154.27225,100.71043 153.28186,96.89731 L 151.48117,89.964378 L 148.74863,96.370765 C 147.2457,99.894277 143.59535,104.47269 140.63668,106.54501 C 135.46106,110.17016 135.31392,111.11816 136.75184,131.57404 C 138.49958,156.43779 137.00764,159.48035 116.34152,173.19773 C 98.083386,185.3168 92.402289,201.73416 88.365475,254.04372 C 87.482682,265.48305 85.595237,275.60655 84.17119,276.54036 C 80.158572,279.17159 75.83612,278.61294 75.504472,275.42026 z M 198.28631,117.74026 C 208.51664,112.48429 208.57688,112.37915 212.12042,93.599148 C 215.25647,76.978757 213.97708,56.950443 209.16351,47.309612 C 205.89486,40.763035 192.62433,36.346666 187.92951,40.243031 C 183.87953,43.604221 181.17408,58.755178 184.10119,61.68229 C 185.64598,63.227083 187.58101,61.206373 189.9219,55.60384 C 194.24835,45.249203 200.5973,44.291663 200.5973,53.993791 C 200.5973,64.366965 196.65219,72.489104 190.47256,74.838607 C 180.16892,78.756039 174.3011,91.63101 180.15254,97.48244 C 183.40417,100.7341 191.35339,97.156414 191.35339,92.441296 C 191.35339,88.653602 197.60906,85.843468 199.44131,88.808096 C 202.44654,93.670661 193.85573,107.17009 185.15446,111.25816 C 179.58085,113.87678 176.07038,117.236 175.62152,120.3804 C 174.97684,124.89642 175.61935,125.19726 182.55446,123.62672 C 186.75835,122.67472 193.83769,120.02581 198.28631,117.74026 z M 122.02407,114.22963 C 120.63127,111.62715 117.18531,109.60768 114.13733,109.60768 C 106.75092,109.60768 103.18553,104.59994 101.7962,92.274092 C 100.31413,79.125037 105.43868,77.968153 111.24365,90.1413 C 115.50077,99.068571 120.4103,99.65844 121.62386,91.388452 C 122.17516,87.63154 119.23253,83.387142 110.72732,75.671576 C 98.582576,64.654352 91.788239,51.101997 96.198556,46.691689 C 100.11581,42.774456 105.51961,46.456922 107.59242,54.456095 C 111.6639,70.168493 118.64513,62.855556 116.05604,45.590314 C 112.91094,24.617323 97.517456,28.025077 90.767527,51.188598 C 85.93093,67.786153 86.768289,105.43579 92.089291,110.61913 C 95.969652,114.39909 108.72854,118.34095 118.06118,118.64316 C 123.80179,118.82905 124.23025,118.35187 122.02407,114.22963 z "
       id="path2188" />
  </g>
</svg>
