<?xml version="1.0" encoding="UTF-8" standalone="no"?>
<!-- Created with Inkscape (http://www.inkscape.org/) -->
<svg
   xmlns:dc="http://purl.org/dc/elements/1.1/"
   xmlns:cc="http://web.resource.org/cc/"
   xmlns:rdf="http://www.w3.org/1999/02/22-rdf-syntax-ns#"
   xmlns:svg="http://www.w3.org/2000/svg"
   xmlns="http://www.w3.org/2000/svg"
   xmlns:sodipodi="http://sodipodi.sourceforge.net/DTD/sodipodi-0.dtd"
   xmlns:inkscape="http://www.inkscape.org/namespaces/inkscape"
   id="svg2178"
   sodipodi:version="0.32"
   inkscape:version="0.45.1"
   width="300"
   height="300"
   version="1.0"
   sodipodi:docbase="C:\Documents and Settings\Martin\桌面"
   sodipodi:docname="鬥-oracle.svg"
   inkscape:output_extension="org.inkscape.output.svg.inkscape">
  <metadata
     id="metadata2183">
    <rdf:RDF>
      <cc:Work
         rdf:about="">
        <dc:format>image/svg+xml</dc:format>
        <dc:type
           rdf:resource="http://purl.org/dc/dcmitype/StillImage" />
      </cc:Work>
    </rdf:RDF>
  </metadata>
  <defs
     id="defs2181" />
  <sodipodi:namedview
     inkscape:window-height="577"
     inkscape:window-width="742"
     inkscape:pageshadow="2"
     inkscape:pageopacity="0.0"
     guidetolerance="10.0"
     gridtolerance="10.0"
     objecttolerance="10.0"
     borderopacity="1.0"
     bordercolor="#666666"
     pagecolor="#ffffff"
     id="base"
     width="300px"
     height="300px"
     inkscape:zoom="0.65984965"
     inkscape:cx="141.61721"
     inkscape:cy="151.23674"
     inkscape:window-x="22"
     inkscape:window-y="0"
     inkscape:current-layer="svg2178" />
  <path
     style="fill:#000000"
     d="M 231.43107,262.98563 C 231.43107,239.97913 230.74957,238.51111 209.03956,214.75183 C 196.72423,201.27401 178.41385,181.05096 168.34983,169.81171 L 150.05161,149.37671 L 128.01147,169.81171 C 115.8894,181.05096 98.857412,195.81632 90.162595,202.62362 L 74.353833,215.00053 L 74.795077,249.08622 C 75.185952,279.28051 74.427874,283.01736 68.15485,281.81814 C 60.765481,280.40552 56.169141,256.96119 52.616353,202.56172 C 50.051552,163.29012 50.184391,154.53872 53.67561,132.77664 C 57.27803,110.32135 66.191181,105.20341 73.33555,121.48788 C 75.564234,126.56782 78.833648,130.72413 80.600881,130.72413 C 85.252635,130.72413 115.32878,111.29556 118.4201,106.29368 C 119.8607,103.96274 118.00365,91.236376 114.29334,78.01287 C 102.50075,35.984434 111.9652,16.653858 124.9035,56.342232 C 132.94172,80.999565 139.09916,86.939985 150.36793,80.909124 C 162.0517,74.656162 163.1793,66.84268 155.69855,43.971615 C 147.90971,20.158618 149.67579,7.5530439 159.64206,15.82432 C 163.00198,18.612797 165.751,24.157956 165.751,28.146888 C 165.751,32.135819 169.18367,39.638668 173.37917,44.819886 L 181.00733,54.240277 L 192.33418,45.330586 C 208.84845,32.340467 213.77884,39.111705 198.94778,54.413476 C 191.97831,61.604146 186.27601,69.70854 186.27601,72.423253 C 186.27601,78.38631 197.08533,79.011368 200.64353,73.254078 C 204.41817,67.146575 215.01104,68.289258 215.01104,74.803938 C 215.01104,77.914125 212.24018,82.75844 208.85354,85.56909 C 198.9283,93.806302 201.69771,107.68536 216.70339,124.90895 L 230.71075,140.98665 L 235.07432,129.69788 C 244.25281,105.95265 247.85074,118.38585 248.73525,176.90544 C 250.13191,269.30812 248.35262,286.71432 237.51037,286.71432 C 232.84244,286.71432 231.43107,281.20546 231.43107,262.98563 z M 232.11784,185.75396 C 230.61194,168.07636 227.15692,162.01384 203.09585,134.82914 C 189.27639,119.21563 185.5977,117.06006 179.3272,120.90161 C 175.24692,123.40136 171.3206,128.43272 170.60205,132.08241 C 168.48013,142.86014 220.6614,206.19804 229.23285,203.24879 C 231.57074,202.44437 232.86899,194.57169 232.11784,185.75396 z M 108.51514,165.09949 C 132.16561,146.51862 140.12129,134.96468 134.98617,126.65587 C 130.56824,119.50752 124.0737,121.99962 101.2673,139.59464 C 77.464571,157.95831 69.38663,168.9835 72.943461,178.25246 C 76.531915,187.60383 82.839204,185.27165 108.51514,165.09949 z M 169.27717,104.65772 C 177.1161,96.31359 177.52686,94.336917 172.31991,90.015531 C 163.09118,82.356374 143.5993,103.0991 152.06764,111.56744 C 156.56988,116.06968 159.75921,114.78915 169.27717,104.65772 z "
     id="path2187" />
</svg>
