<?xml version="1.0" encoding="UTF-8" standalone="no"?>
<!-- Created with Inkscape (http://www.inkscape.org/) -->

<svg
   xmlns:dc="http://purl.org/dc/elements/1.1/"
   xmlns:cc="http://creativecommons.org/ns#"
   xmlns:rdf="http://www.w3.org/1999/02/22-rdf-syntax-ns#"
   xmlns:svg="http://www.w3.org/2000/svg"
   xmlns="http://www.w3.org/2000/svg"
   xmlns:sodipodi="http://sodipodi.sourceforge.net/DTD/sodipodi-0.dtd"
   xmlns:inkscape="http://www.inkscape.org/namespaces/inkscape"
   width="300"
   height="300"
   id="svg2"
   version="1.1"
   inkscape:version="0.47 r22583"
   sodipodi:docname="Nouveau document 1">
  <defs
     id="defs4">
    <inkscape:perspective
       sodipodi:type="inkscape:persp3d"
       inkscape:vp_x="0 : 526.18109 : 1"
       inkscape:vp_y="0 : 1000 : 0"
       inkscape:vp_z="744.09448 : 526.18109 : 1"
       inkscape:persp3d-origin="372.04724 : 350.78739 : 1"
       id="perspective10" />
    <inkscape:perspective
       id="perspective2824"
       inkscape:persp3d-origin="0.5 : 0.33333333 : 1"
       inkscape:vp_z="1 : 0.5 : 1"
       inkscape:vp_y="0 : 1000 : 0"
       inkscape:vp_x="0 : 0.5 : 1"
       sodipodi:type="inkscape:persp3d" />
  </defs>
  <sodipodi:namedview
     id="base"
     pagecolor="#ffffff"
     bordercolor="#666666"
     borderopacity="1.0"
     inkscape:pageopacity="0.0"
     inkscape:pageshadow="2"
     inkscape:zoom="1.979899"
     inkscape:cx="197.52225"
     inkscape:cy="124.56012"
     inkscape:document-units="px"
     inkscape:current-layer="layer1"
     showgrid="false"
     inkscape:window-width="1280"
     inkscape:window-height="950"
     inkscape:window-x="0"
     inkscape:window-y="25"
     inkscape:window-maximized="1" />
  <metadata
     id="metadata7">
    <rdf:RDF>
      <cc:Work
         rdf:about="">
        <dc:format>image/svg+xml</dc:format>
        <dc:type
           rdf:resource="http://purl.org/dc/dcmitype/StillImage" />
        <dc:title></dc:title>
      </cc:Work>
    </rdf:RDF>
  </metadata>
  <g
     inkscape:label="Calque 1"
     inkscape:groupmode="layer"
     id="layer1"
     transform="translate(0,-752.36218)">
    <path
       style="fill:#000000"
       d="m 110.81774,1023.1568 c -30.950828,-21.3441 -16.73465,-67.87496 23.7258,-77.65681 6.7994,-1.64385 10.37352,-5.02314 10.37352,-9.80805 0,-5.59041 -3.75476,-7.93792 -16.03181,-10.02325 -33.104742,-5.62303 -48.831496,-20.36879 -57.339972,-53.76326 -3.214324,-12.61567 -5.844218,-30.4377 -5.844218,-39.60449 0,-9.16681 -2.53495,-22.86917 -5.633249,-30.4497 -6.254213,-15.30214 -4.85228,-20.67601 5.393975,-20.67601 12.407183,0 16.524754,10.77429 18.040879,47.207 1.847282,44.39106 11.37565,69.88242 28.387325,75.94493 16.96173,6.04472 52.09218,4.99731 73.90152,-2.20334 22.67459,-7.48634 29.39539,-18.69632 35.12173,-58.58156 2.03191,-14.15282 4.45797,-31.07071 5.39122,-37.59533 1.90448,-13.31524 10.96643,-28.05155 14.82459,-24.10738 1.38824,1.41917 0.78586,11.8284 -1.33857,23.13157 -2.12446,11.30323 -4.98603,32.69861 -6.35913,47.54528 -2.35818,25.49877 -3.41189,27.89402 -19.02401,43.24378 -10.42857,10.25336 -23.16767,18.22918 -34.52151,21.61361 -14.93066,4.45061 -17.99391,6.91747 -17.99391,14.49059 0,7.21106 3.35139,10.39244 15.96603,15.15614 20.20626,7.6305 27.14295,17.04748 27.2942,37.05343 0.15691,20.73105 -10.04677,33.75115 -32.60863,41.61015 -25.16623,8.7661 -46.62329,7.8876 -61.72578,-2.5273 z m 68.99209,-17.854 c 8.17659,-3.2543 10.37352,-6.62774 10.37352,-15.92867 0,-6.49001 -2.74143,-16.07721 -6.09214,-21.30498 -8.87139,-13.84131 -39.12534,-13.56319 -59.43669,0.54643 -12.96228,9.00441 -14.22701,11.31417 -12.14144,22.17361 3.45019,17.96491 11.89367,22.75861 36.17617,20.53891 11.41087,-1.0432 25.41513,-3.7545 31.12058,-6.0253 z M 141.71676,893.50449 c -8.64649,-5.69383 -3.46512,-17.7245 8.22512,-19.09799 9.64696,-1.1334 10.50691,-0.25412 9.39823,9.60773 -1.26428,11.24596 -8.79717,15.30246 -17.62335,9.49026 z M 108.85815,881.0695 c -1.40491,-2.3239 5.58707,-12.67532 15.53778,-23.00318 l 18.0922,-18.77785 -19.53259,-21.11324 c -10.74293,-11.61226 -19.53259,-22.95243 -19.53259,-25.20034 0,-8.9144 14.99326,-3.2813 30.17754,11.33801 8.81168,8.48383 18.93372,15.42512 22.49342,15.42512 3.55974,0 12.75453,-6.94129 20.43287,-15.42512 7.67836,-8.48381 16.3383,-15.42512 19.24428,-15.42512 12.86113,0 9.10727,9.88989 -11.11529,29.28418 l -21.58686,20.7027 13.55723,16.19163 c 7.45645,8.90539 13.55721,18.48227 13.55721,21.28192 0,9.43254 -10.3492,5.18674 -20.49129,-8.40668 -5.5386,-7.42335 -12.3155,-13.49698 -15.05975,-13.49698 -2.74428,0 -12.41768,6.94131 -21.49647,15.42512 -17.70139,16.5414 -20.3185,17.74872 -24.27769,11.19983 z M 89.698339,848.66013 c -3.585012,-9.55063 1.584695,-17.35327 11.497531,-17.35327 11.69186,0 15.07619,5.29225 9.8132,15.34541 -4.76965,9.11085 -18.170572,10.37344 -21.310731,2.00786 z m 101.126141,-14.1524 c 1.6086,-11.60987 16.33373,-12.75727 16.33373,-1.27273 0,5.1417 -2.92978,8.13679 -8.78936,8.98529 -7.31355,1.05902 -8.58029,-0.236 -7.54437,-7.71256 z m -47.1648,-36.62197 c -1.38315,-1.41395 -2.51481,-6.61992 -2.51481,-11.56885 0,-6.47345 2.14988,-8.99797 7.66275,-8.99797 9.49634,0 13.62218,9.72087 7.38615,17.40235 -5.07211,6.24775 -8.63754,7.14792 -12.53409,3.16447 z"
       id="path2830" />
  </g>
</svg>
