<?xml version="1.0" encoding="UTF-8" standalone="no"?>
<!-- Created with Inkscape (http://www.inkscape.org/) -->

<svg
   xmlns:dc="http://purl.org/dc/elements/1.1/"
   xmlns:cc="http://creativecommons.org/ns#"
   xmlns:rdf="http://www.w3.org/1999/02/22-rdf-syntax-ns#"
   xmlns:svg="http://www.w3.org/2000/svg"
   xmlns="http://www.w3.org/2000/svg"
   xmlns:sodipodi="http://sodipodi.sourceforge.net/DTD/sodipodi-0.dtd"
   xmlns:inkscape="http://www.inkscape.org/namespaces/inkscape"
   width="300"
   height="300"
   id="svg2"
   version="1.1"
   inkscape:version="0.47 r22583"
   sodipodi:docname="鬯-oracle.svg">
  <defs
     id="defs4">
    <inkscape:perspective
       sodipodi:type="inkscape:persp3d"
       inkscape:vp_x="0 : 526.18109 : 1"
       inkscape:vp_y="0 : 1000 : 0"
       inkscape:vp_z="744.09448 : 526.18109 : 1"
       inkscape:persp3d-origin="372.04724 : 350.78739 : 1"
       id="perspective10" />
    <inkscape:perspective
       id="perspective2824"
       inkscape:persp3d-origin="0.5 : 0.33333333 : 1"
       inkscape:vp_z="1 : 0.5 : 1"
       inkscape:vp_y="0 : 1000 : 0"
       inkscape:vp_x="0 : 0.5 : 1"
       sodipodi:type="inkscape:persp3d" />
    <inkscape:perspective
       id="perspective2861"
       inkscape:persp3d-origin="0.5 : 0.33333333 : 1"
       inkscape:vp_z="1 : 0.5 : 1"
       inkscape:vp_y="0 : 1000 : 0"
       inkscape:vp_x="0 : 0.5 : 1"
       sodipodi:type="inkscape:persp3d" />
    <inkscape:perspective
       id="perspective2898"
       inkscape:persp3d-origin="0.5 : 0.33333333 : 1"
       inkscape:vp_z="1 : 0.5 : 1"
       inkscape:vp_y="0 : 1000 : 0"
       inkscape:vp_x="0 : 0.5 : 1"
       sodipodi:type="inkscape:persp3d" />
    <inkscape:perspective
       id="perspective2935"
       inkscape:persp3d-origin="0.5 : 0.33333333 : 1"
       inkscape:vp_z="1 : 0.5 : 1"
       inkscape:vp_y="0 : 1000 : 0"
       inkscape:vp_x="0 : 0.5 : 1"
       sodipodi:type="inkscape:persp3d" />
  </defs>
  <sodipodi:namedview
     id="base"
     pagecolor="#ffffff"
     bordercolor="#666666"
     borderopacity="1.0"
     inkscape:pageopacity="0.0"
     inkscape:pageshadow="2"
     inkscape:zoom="1.979899"
     inkscape:cx="197.52225"
     inkscape:cy="124.56012"
     inkscape:document-units="px"
     inkscape:current-layer="layer1"
     showgrid="false"
     inkscape:window-width="1280"
     inkscape:window-height="950"
     inkscape:window-x="0"
     inkscape:window-y="25"
     inkscape:window-maximized="1" />
  <metadata
     id="metadata7">
    <rdf:RDF>
      <cc:Work
         rdf:about="">
        <dc:format>image/svg+xml</dc:format>
        <dc:type
           rdf:resource="http://purl.org/dc/dcmitype/StillImage" />
        <dc:title></dc:title>
      </cc:Work>
    </rdf:RDF>
  </metadata>
  <g
     inkscape:label="Calque 1"
     inkscape:groupmode="layer"
     id="layer1"
     transform="translate(0,-752.36218)">
    <path
       style="fill:#000000"
       d="m 123.59869,1023.9538 c -3.67263,-1.3372 -6.6775,-3.2489 -6.6775,-4.2481 0,-0.9993 -3.72465,-5.921 -8.27699,-10.9373 -18.656312,-20.55748 -22.884684,-29.52014 -22.884684,-48.5074 0,-17.37777 0.257307,-18.02296 9.796399,-24.57274 18.812145,-13.51792 43.451075,-9.94787 64.249675,-18.204 9.72718,-3.64195 20.15783,-2.29123 17.83065,-17.39792 -1.59862,-3.70297 -5.27158,-4.0755 -40.18221,-4.0755 -34.78874,0 -39.381142,-0.46185 -48.555733,-4.88327 -17.24478,-8.31056 -19.114183,-13.95734 -19.312876,-58.33661 -0.172131,-38.4301 1.415007,-46.63131 9.799188,-50.63699 7.066934,-3.37633 8.313756,1.82906 6.036017,25.19969 -2.78161,28.54066 -1.813966,58.35623 1.987254,61.23064 1.630438,1.23291 6.487979,-1.26124 12.388011,-6.36068 5.338209,-4.61389 14.380099,-12.02778 20.093069,-16.47534 15.39356,-10.046 24.47257,-14.83803 23.42042,-19.34233 -2.02193,-8.65604 -16.80901,-15.18631 -32.32375,-30.16411 -6.35606,-5.94053 -7.74198,-12.60806 -3.06266,-14.73417 3.50626,-1.59311 18.00199,8.69934 23.54709,16.71928 l 23.02994,19.37969 7.92062,-5.82304 c 5.32522,-3.67364 7.59639,-8.92429 13.85614,-10.68254 9.57703,-4.16294 10.05837,-13.49072 23.82606,-13.0529 4.92574,2.23807 3.1842,8.90144 -3.79356,14.51443 -18.99758,15.28187 -28.93584,24.45256 -28.93584,26.70102 0,1.37669 2.0524,4.65733 4.56089,7.29023 7.37148,7.73717 37.53473,29.23668 39.24954,27.97597 3.80746,-2.79913 6.78544,-26.40523 6.69436,-53.06504 -0.0932,-27.27325 0.23001,-28.90929 5.71241,-28.90929 8.5884,0 11.25338,5.43406 8.90482,18.15745 -1.15156,6.23861 -2.25984,22.97175 -2.46281,37.18477 2.32003,14.22455 -3.37967,26.37455 -6.16737,39.56756 -1.25905,6.9197 -3.43203,9.41858 -10.49127,12.06475 -20.61034,7.72581 -20.40182,7.54365 -16.95515,14.81243 4.09534,8.63674 -0.73815,16.80464 -11.98069,20.24556 -4.48877,1.37386 -8.16139,3.46571 -8.16139,4.64858 11.52783,25.80709 34.36172,45.45327 56.22441,62.64997 12.14222,9.29085 16.28455,19.76145 7.8179,19.76145 -4.23268,0 -28.38897,-16.2672 -28.47477,-19.1753 -15.9107,-15.39773 -33.86775,-27.26093 -43.18179,-47.84716 -2.89184,-6.93794 -5.37929,-12.78745 -5.52767,-12.99892 -0.24455,-0.3483 -30.04066,4.45112 -44.79122,7.21477 -13.72955,2.57232 -19.739915,8.29417 -19.960124,19.0019 -0.116041,5.63866 1.1052,12.44229 2.713674,15.1192 9.80145,16.31225 17.20866,25.71936 26.24757,33.33421 10.50528,8.8501 11.67127,11.1922 8.54948,17.173 -2.02298,3.8757 -2.8872,3.9097 -12.29553,0.4841 z m 68.2589,-143.65319 c 9.60376,-2.67568 9.85439,-3.36816 2.90804,-8.03403 -5.85518,-3.93291 -16.89975,-13.73896 -25.90832,-23.00302 -15.45026,-15.88843 -14.02299,-15.32046 -23.04774,-9.17159 -14.95044,7.66568 -26.33815,19.94377 -38.8697,30.77304 -9.114732,7.7058 -7.067291,10.04669 10.6643,12.1927 16.23184,1.96449 63.62222,0.20487 74.25342,-2.7571 z M 134.31468,869.9837 c -10.31094,-6.19396 -4.13274,-9.25859 17.04535,-8.45511 15.20809,0.57697 17.61448,1.26745 18.39299,5.27762 0.70817,3.6477 -1.07847,4.90404 -8.53237,6.00005 -14.78796,2.17435 -19.3917,1.69137 -26.90597,-2.82256 z m 59.29874,-39.64431 c -1.06288,-14.20545 2.15172,-20.62511 8.78524,-17.5443 6.09286,2.82966 3.59286,29.50413 -2.84968,30.40583 -4.07322,0.57012 -5.09648,-1.64713 -5.93556,-12.86153 z m -90.35286,3.37073 c -1.87091,-5.48024 0.11397,-20.10442 3.0185,-22.23976 0.81555,-0.59957 3.54365,-0.50874 6.06246,0.20182 3.25328,0.91779 4.57967,4.34501 4.57967,11.83324 0,14.42007 -9.73806,21.69453 -13.66063,10.20466 l 0,4e-5 z m 41.11258,-39.50863 c -5.28163,-1.5668 -4.59664,-8.7471 0.98468,-10.32167 15.79048,-4.45469 30.33978,0.28807 26.05662,8.4939 -1.66873,3.19698 -18.57385,4.33963 -27.0413,1.82777 z"
       id="path2941"
       sodipodi:nodetypes="cssscccssssssscscscccccsssssssccsssccsccssssssccssccsccsssccssccssscccssc" />
  </g>
</svg>
