<?xml version="1.0" encoding="UTF-8" standalone="no"?>
<!-- Created with Inkscape (http://www.inkscape.org/) -->

<svg
   xmlns:dc="http://purl.org/dc/elements/1.1/"
   xmlns:cc="http://creativecommons.org/ns#"
   xmlns:rdf="http://www.w3.org/1999/02/22-rdf-syntax-ns#"
   xmlns:svg="http://www.w3.org/2000/svg"
   xmlns="http://www.w3.org/2000/svg"
   xmlns:sodipodi="http://sodipodi.sourceforge.net/DTD/sodipodi-0.dtd"
   xmlns:inkscape="http://www.inkscape.org/namespaces/inkscape"
   width="300"
   height="300"
   id="svg2"
   version="1.1"
   inkscape:version="0.47 r22583"
   sodipodi:docname="鬯-bigseal.svg">
  <defs
     id="defs4">
    <inkscape:perspective
       sodipodi:type="inkscape:persp3d"
       inkscape:vp_x="0 : 526.18109 : 1"
       inkscape:vp_y="0 : 1000 : 0"
       inkscape:vp_z="744.09448 : 526.18109 : 1"
       inkscape:persp3d-origin="372.04724 : 350.78739 : 1"
       id="perspective10" />
    <inkscape:perspective
       id="perspective2824"
       inkscape:persp3d-origin="0.5 : 0.33333333 : 1"
       inkscape:vp_z="1 : 0.5 : 1"
       inkscape:vp_y="0 : 1000 : 0"
       inkscape:vp_x="0 : 0.5 : 1"
       sodipodi:type="inkscape:persp3d" />
    <inkscape:perspective
       id="perspective2861"
       inkscape:persp3d-origin="0.5 : 0.33333333 : 1"
       inkscape:vp_z="1 : 0.5 : 1"
       inkscape:vp_y="0 : 1000 : 0"
       inkscape:vp_x="0 : 0.5 : 1"
       sodipodi:type="inkscape:persp3d" />
  </defs>
  <sodipodi:namedview
     id="base"
     pagecolor="#ffffff"
     bordercolor="#666666"
     borderopacity="1.0"
     inkscape:pageopacity="0.0"
     inkscape:pageshadow="2"
     inkscape:zoom="1.979899"
     inkscape:cx="197.52225"
     inkscape:cy="124.56012"
     inkscape:document-units="px"
     inkscape:current-layer="layer1"
     showgrid="false"
     inkscape:window-width="1280"
     inkscape:window-height="950"
     inkscape:window-x="0"
     inkscape:window-y="25"
     inkscape:window-maximized="1" />
  <metadata
     id="metadata7">
    <rdf:RDF>
      <cc:Work
         rdf:about="">
        <dc:format>image/svg+xml</dc:format>
        <dc:type
           rdf:resource="http://purl.org/dc/dcmitype/StillImage" />
        <dc:title></dc:title>
      </cc:Work>
    </rdf:RDF>
  </metadata>
  <g
     inkscape:label="Calque 1"
     inkscape:groupmode="layer"
     id="layer1"
     transform="translate(0,-752.36218)">
    <path
       style="fill:#000000"
       d="m 139.34851,1021.2618 c -30.48916,-2.4192 -49.655323,-29.21895 -49.655323,-69.43226 0,-12.37224 -0.876648,-13.51886 -12.354647,-16.15942 -11.505329,-0.83406 -15.737017,-10.57549 -23.785564,-16.40138 -6.265532,-3.54705 -9.302747,-50.60258 -4.368976,-67.68807 9.657167,-33.44236 24.38177,-59.81414 38.308332,-68.61026 25.293308,-10.17067 38.338418,24.64384 53.528888,40.49765 l 10.34298,9.91269 27.71455,-27.69528 c 20.38942,-25.64128 21.38586,-30.68359 40.43729,-28.81362 21.7111,0 40.51636,80.37255 27.10688,115.85304 -5.43175,15.2802 -3.60894,22.72491 -19.24845,29.42599 -7.65992,2.87969 -12.70935,7.06436 -12.88336,10.67698 -1.18509,24.60558 -3.4055,35.35921 -11.20995,54.29044 -7.41357,17.9831 -11.29774,22.8485 -23.12193,28.9633 -13.33046,8.4017 -26.05312,6.3556 -40.81072,5.1802 z m 21.12529,-22.8173 c 14.10183,-4.48414 19.89266,-14.55564 25.0711,-43.604 l 2.43058,-13.63445 -32.55196,1.22065 c -41.12701,1.54221 -42.31987,1.87652 -42.26398,11.8447 0.0772,13.75338 11.02791,40.66478 18.16305,44.63538 8.55092,4.75852 12.95232,4.68862 29.15121,-0.46228 z m -24.37262,-23.28572 c -2.05004,-17.61825 7.97491,-27.85522 21.84495,-22.30703 4.32416,1.72972 8.9642,4.42957 10.3112,5.99967 3.83098,4.46549 -0.81755,14.07942 -6.80765,14.07942 -8.26831,1.75757 -14.33037,12.78834 -25.3485,2.22794 z m 41.09784,-51.56051 c 3.39587,-0.99171 6.17426,-3.90036 6.17426,-6.46365 0,-7.34934 -28.45396,-51.14505 -33.22884,-51.14505 -8.9096,0 -32.08149,44.68004 -29.65661,57.18387 0.51499,2.65565 47.85804,3.01028 56.71119,0.42483 z m -40.44829,-8.3945 c -3.20979,-2.94336 -3.13274,-6.02621 0.29353,-11.74934 5.13664,-8.5797 11.81099,-9.90042 18.59492,-3.6796 5.46814,5.01431 2.67382,11.23942 -7.13858,15.90301 -5.8202,2.76618 -8.32673,2.66506 -11.75003,-0.47407 l 1.6e-4,0 z m -38.209656,-5.41694 c 2.316096,-10.86167 19.883336,-40.96979 31.248646,-53.55639 7.38659,-8.18029 6.61384,-11.2622 -5.00135,-19.94678 -8.738,-6.56746 -13.68719,-19.12227 -23.88308,-23.74443 -5.213537,-0.043 -10.492753,8.15472 -17.20372,26.71503 -9.943601,27.50053 -11.541428,55.35087 -3.962549,69.06623 7.587221,13.73052 16.046307,14.39022 18.802053,1.46634 z M 84.269769,861.3185 c -3.029337,-6.00794 4.046403,-16.12306 11.278429,-16.12306 8.476242,1.70062 17.106972,10.80383 7.554822,16.84575 -9.413044,5.23821 -15.95415,4.98722 -18.833251,-0.72269 z m 143.709871,12.64788 c 4.38849,-18.54061 -9.04965,-61.44745 -19.24493,-61.44745 -13.34429,5.4994 -21.91104,18.36121 -33.96785,26.1611 -8.44007,4.67563 -9.17387,16.30166 -1.34116,21.24883 12.59839,11.48168 21.33101,26.64941 30.82637,40.68004 4.18653,6.19261 4.59514,6.0491 12.68562,-4.45589 4.59785,-5.97002 9.56673,-15.95401 11.04195,-22.18663 z m -32.16896,-11.58206 c -5.91364,-4.50052 -5.99123,-17.93584 -0.12955,-22.39692 6.64075,-5.05387 18.91869,0.98688 18.91869,9.30804 0,9.25452 -12.4404,17.92063 -18.78929,13.08888 l 1.5e-4,0 z"
       id="path2867"
       sodipodi:nodetypes="csccscccccccssccccccssccsscccsssccssscccsccssccccccccccsccsscc" />
  </g>
</svg>
