<?xml version="1.0" encoding="UTF-8" standalone="no"?>
<!-- Created with Inkscape (http://www.inkscape.org/) -->

<svg
   xmlns:dc="http://purl.org/dc/elements/1.1/"
   xmlns:cc="http://creativecommons.org/ns#"
   xmlns:rdf="http://www.w3.org/1999/02/22-rdf-syntax-ns#"
   xmlns:svg="http://www.w3.org/2000/svg"
   xmlns="http://www.w3.org/2000/svg"
   xmlns:sodipodi="http://sodipodi.sourceforge.net/DTD/sodipodi-0.dtd"
   xmlns:inkscape="http://www.inkscape.org/namespaces/inkscape"
   width="300"
   height="300"
   id="svg2"
   version="1.1"
   inkscape:version="0.47 r22583"
   sodipodi:docname="鬯-bronze.svg">
  <defs
     id="defs4">
    <inkscape:perspective
       sodipodi:type="inkscape:persp3d"
       inkscape:vp_x="0 : 526.18109 : 1"
       inkscape:vp_y="0 : 1000 : 0"
       inkscape:vp_z="744.09448 : 526.18109 : 1"
       inkscape:persp3d-origin="372.04724 : 350.78739 : 1"
       id="perspective10" />
    <inkscape:perspective
       id="perspective2824"
       inkscape:persp3d-origin="0.5 : 0.33333333 : 1"
       inkscape:vp_z="1 : 0.5 : 1"
       inkscape:vp_y="0 : 1000 : 0"
       inkscape:vp_x="0 : 0.5 : 1"
       sodipodi:type="inkscape:persp3d" />
    <inkscape:perspective
       id="perspective2861"
       inkscape:persp3d-origin="0.5 : 0.33333333 : 1"
       inkscape:vp_z="1 : 0.5 : 1"
       inkscape:vp_y="0 : 1000 : 0"
       inkscape:vp_x="0 : 0.5 : 1"
       sodipodi:type="inkscape:persp3d" />
    <inkscape:perspective
       id="perspective2898"
       inkscape:persp3d-origin="0.5 : 0.33333333 : 1"
       inkscape:vp_z="1 : 0.5 : 1"
       inkscape:vp_y="0 : 1000 : 0"
       inkscape:vp_x="0 : 0.5 : 1"
       sodipodi:type="inkscape:persp3d" />
  </defs>
  <sodipodi:namedview
     id="base"
     pagecolor="#ffffff"
     bordercolor="#666666"
     borderopacity="1.0"
     inkscape:pageopacity="0.0"
     inkscape:pageshadow="2"
     inkscape:zoom="1.979899"
     inkscape:cx="197.52225"
     inkscape:cy="124.56012"
     inkscape:document-units="px"
     inkscape:current-layer="layer1"
     showgrid="false"
     inkscape:window-width="1280"
     inkscape:window-height="950"
     inkscape:window-x="0"
     inkscape:window-y="25"
     inkscape:window-maximized="1" />
  <metadata
     id="metadata7">
    <rdf:RDF>
      <cc:Work
         rdf:about="">
        <dc:format>image/svg+xml</dc:format>
        <dc:type
           rdf:resource="http://purl.org/dc/dcmitype/StillImage" />
        <dc:title></dc:title>
      </cc:Work>
    </rdf:RDF>
  </metadata>
  <g
     inkscape:label="Calque 1"
     inkscape:groupmode="layer"
     id="layer1"
     transform="translate(0,-752.36218)">
    <path
       style="fill:#000000"
       d="m 143.13688,1027.3008 c -18.63436,-4.0505 -21.56693,-8.9048 -27.19659,-45.01901 C 113.6607,967.65817 109.38678,960.80044 98.003937,953.50233 81.965325,943.21912 78.804296,937.94546 68.310417,903.96335 59.451099,875.27454 56.537659,773.04314 64.579368,773.04314 c 3.216139,0 5.84754,1.61885 5.84754,3.59743 0,1.9786 4.905975,3.59744 10.902167,3.59744 11.239314,0 23.904195,7.1054 38.157575,21.40753 4.49714,4.51255 12.05181,11.65968 16.78814,15.88249 4.73633,4.22284 10.17859,10.51086 12.09388,13.9734 4.09927,7.41089 20.17773,8.51673 20.17773,1.38778 0,-7.20653 56.55308,-45.45634 67.20808,-45.45634 5.0089,0 9.30414,1.21414 9.54502,2.69808 9.50418,58.55332 5.73999,95.16317 -11.85747,115.32347 -10.00476,5.94853 -8.60495,17.30703 -18.36127,26.38084 -2.99809,0 -2.97426,7.18442 -3.03369,16.58271 -0.20768,32.84324 -10.45326,66.74863 -22.78912,75.41443 -12.55439,8.8192 -19.20372,9.3193 -46.12107,3.4684 z m 43.80692,-28.06909 c 5.57766,-18.40478 4.01778,-31.92721 -3.68291,-31.92721 -3.89943,0 -13.69225,2.02355 -21.76181,4.49679 -11.38911,3.49062 -14.68146,7.04694 -14.71449,15.89421 -0.0649,17.4616 4.99128,22.7782 21.66363,22.7782 12.53842,0 15.66451,-1.9001 18.49558,-11.24199 z m -20.94785,-47.93208 c 10.39701,-2.86694 18.9037,-7.4559 18.9037,-10.19768 0,-4.41474 -28.68987,-24.16151 -35.10399,-24.16151 -4.8373,0 -30.30901,17.05784 -30.30901,20.2973 0,5.1223 16.36524,19.27446 22.2885,19.27446 2.92439,0 13.82372,-2.34567 24.2208,-5.21257 z m -48.84547,-32.30351 c 10.92751,-7.21158 9.82847,-11.56189 -6.48744,-25.679 -23.647941,-20.46108 -27.109488,-15.31597 -15.288324,22.72396 2.889292,9.29764 10.582954,10.34169 21.775764,2.95504 z m 94.40426,-18.20491 c 11.66935,-16.38353 15.61592,-41.40969 6.53023,-41.40969 -2.73471,0 -14.78977,9.49183 -26.78896,21.09297 l -21.81677,21.09298 11.64706,7.68648 c 6.40595,4.22756 13.28488,7.68649 15.28652,7.68649 2.00169,0 8.81555,-7.26717 15.14192,-16.14923 z m -42.70069,-20.72444 c 5.62749,-4.45183 10.31341,-10.92721 10.41316,-14.38973 0.15262,-5.3027 -4.92577,-6.29552 -32.20342,-6.29552 -17.81163,0 -33.72873,1.43506 -35.37126,3.18902 -4.45173,4.75361 25.32257,25.28855 36.90133,25.45033 5.51562,0.077 14.63272,-3.50229 20.26019,-7.9541 z m -45.49304,-36.43272 c 4.09638,-2.70336 -31.781447,-34.61658 -38.917024,-34.61658 -5.998861,0 -3.051461,30.97979 3.349309,35.20393 5.875287,3.87743 29.390885,3.48908 35.567715,-0.58735 z m 99.69622,-16.62942 c 0,-9.89293 -1.83975,-17.92572 -4.08831,-17.85064 -3.61058,0.12054 -33.85875,26.08193 -38.61182,33.13973 -0.99941,1.48394 8.1993,2.69807 20.44156,2.69807 l 22.25857,0 0,-17.98716 z"
       id="path2904"
       sodipodi:nodetypes="cssssssssssssccssccssssccssssccssccscccsccssssccssccssccc" />
  </g>
</svg>
