<?xml version="1.0" encoding="utf-8"?>
<!-- Generator: Adobe Illustrator 11.0, SVG Export Plug-In . SVG Version: 6.0.0 Build 78)  -->
<!DOCTYPE svg PUBLIC "-//W3C//DTD SVG 1.0//EN"    "http://www.w3.org/TR/2001/REC-SVG-20010904/DTD/svg10.dtd" [
	<!ENTITY ns_flows "http://ns.adobe.com/Flows/1.0/">
	<!ENTITY ns_extend "http://ns.adobe.com/Extensibility/1.0/">
	<!ENTITY ns_ai "http://ns.adobe.com/AdobeIllustrator/10.0/">
	<!ENTITY ns_graphs "http://ns.adobe.com/Graphs/1.0/">
	<!ENTITY ns_vars "http://ns.adobe.com/Variables/1.0/">
	<!ENTITY ns_imrep "http://ns.adobe.com/ImageReplacement/1.0/">
	<!ENTITY ns_sfw "http://ns.adobe.com/SaveForWeb/1.0/">
	<!ENTITY ns_custom "http://ns.adobe.com/GenericCustomNamespace/1.0/">
	<!ENTITY ns_adobe_xpath "http://ns.adobe.com/XPath/1.0/">
	<!ENTITY ns_svg "http://www.w3.org/2000/svg">
	<!ENTITY ns_xlink "http://www.w3.org/1999/xlink">
]>
<svg 
	 xmlns:x="&ns_extend;" xmlns:i="&ns_ai;" xmlns:graph="&ns_graphs;" i:viewOrigin="138.3569 491.0225" i:rulerOrigin="0 0" i:pageBounds="0 841.8896 595.2754 0"
	 xmlns="&ns_svg;" xmlns:xlink="&ns_xlink;" xmlns:a="http://ns.adobe.com/AdobeSVGViewerExtensions/3.0/"
	 width="107.22" height="197.467" viewBox="0 0 107.22 197.467" overflow="visible" enable-background="new 0 0 107.22 197.467"
	 xml:space="preserve">
	<metadata>
		<variableSets  xmlns="&ns_vars;">
			<variableSet  varSetName="binding1" locked="none">
				<variables></variables>
				<v:sampleDataSets  xmlns="&ns_custom;" xmlns:v="&ns_vars;"></v:sampleDataSets>
			</variableSet>
		</variableSets>
		<sfw  xmlns="&ns_sfw;">
			<slices></slices>
			<sliceSourceBounds  y="293.556" x="138.357" width="107.22" height="197.467" bottomLeftOrigin="true"></sliceSourceBounds>
		</sfw>
<?xpacket begin='﻿' id='W5M0MpCehiHzreSzNTczkc9d'?><x:xmpmeta xmlns:x='adobe:ns:meta/' x:xmptk='XMP toolkit 3.0-29, framework 1.6'>
<rdf:RDF xmlns:rdf='http://www.w3.org/1999/02/22-rdf-syntax-ns#' xmlns:iX='http://ns.adobe.com/iX/1.0/'>

 <rdf:Description rdf:about=''
  xmlns:pdf='http://ns.adobe.com/pdf/1.3/'>
 </rdf:Description>

 <rdf:Description rdf:about=''
  xmlns:tiff='http://ns.adobe.com/tiff/1.0/'>
 </rdf:Description>

 <rdf:Description rdf:about=''
  xmlns:xap='http://ns.adobe.com/xap/1.0/'
  xmlns:xapGImg='http://ns.adobe.com/xap/1.0/g/img/'>
  <xap:CreateDate>2009-10-03T16:22:56Z</xap:CreateDate>
  <xap:ModifyDate>2009-10-03T16:52:45Z</xap:ModifyDate>
  <xap:CreatorTool>Illustrator</xap:CreatorTool>
  <xap:Thumbnails>
   <rdf:Alt>
    <rdf:li rdf:parseType='Resource'>
     <xapGImg:format>JPEG</xapGImg:format>
     <xapGImg:width>140</xapGImg:width>
     <xapGImg:height>256</xapGImg:height>
     <xapGImg:image>/9j/4AAQSkZJRgABAgEASABIAAD/7QAsUGhvdG9zaG9wIDMuMAA4QklNA+0AAAAAABAASAAAAAEA&#xA;AQBIAAAAAQAB/+4ADkFkb2JlAGTAAAAAAf/bAIQABgQEBAUEBgUFBgkGBQYJCwgGBggLDAoKCwoK&#xA;DBAMDAwMDAwQDA4PEA8ODBMTFBQTExwbGxscHx8fHx8fHx8fHwEHBwcNDA0YEBAYGhURFRofHx8f&#xA;Hx8fHx8fHx8fHx8fHx8fHx8fHx8fHx8fHx8fHx8fHx8fHx8fHx8fHx8fHx8f/8AAEQgBAACMAwER&#xA;AAIRAQMRAf/EAaIAAAAHAQEBAQEAAAAAAAAAAAQFAwIGAQAHCAkKCwEAAgIDAQEBAQEAAAAAAAAA&#xA;AQACAwQFBgcICQoLEAACAQMDAgQCBgcDBAIGAnMBAgMRBAAFIRIxQVEGE2EicYEUMpGhBxWxQiPB&#xA;UtHhMxZi8CRygvElQzRTkqKyY3PCNUQnk6OzNhdUZHTD0uIIJoMJChgZhJRFRqS0VtNVKBry4/PE&#xA;1OT0ZXWFlaW1xdXl9WZ2hpamtsbW5vY3R1dnd4eXp7fH1+f3OEhYaHiImKi4yNjo+Ck5SVlpeYmZ&#xA;qbnJ2en5KjpKWmp6ipqqusra6voRAAICAQIDBQUEBQYECAMDbQEAAhEDBCESMUEFURNhIgZxgZEy&#xA;obHwFMHR4SNCFVJicvEzJDRDghaSUyWiY7LCB3PSNeJEgxdUkwgJChgZJjZFGidkdFU38qOzwygp&#xA;0+PzhJSktMTU5PRldYWVpbXF1eX1RlZmdoaWprbG1ub2R1dnd4eXp7fH1+f3OEhYaHiImKi4yNjo&#xA;+DlJWWl5iZmpucnZ6fkqOkpaanqKmqq6ytrq+v/aAAwDAQACEQMRAD8A9U4q7FWGedPzj/LXyZI8&#xA;Gv67BBeoPisIuVxcioqoaGEOych0L0GKvJdc/wCc2fJVsWXRdBv9RZejXDxWiMfYg3DU+a4qwfVf&#xA;+c2/Ospb9FeX9NtFPT6y09ywHzRrcfhirE9R/wCcs/zquyfQ1O208HtbWcB/5PrMcVYvqH56fnBf&#xA;19fzdqSV/wCWeY23h/vj0/DFWMah5q8z6iSdQ1i9vCepuLmWWv8AwbHFUrxVkvl/8y/zB8vMp0Xz&#xA;Ff2SLuIUuJDCfnExaM/SuKvYPJ3/ADmb5700xweZrC2123FA9xH/AKJdU7klA0LfL0x88VfQPkD/&#xA;AJyM/K/zm0Vrbaj+jNVkoBp2ogQOzH9mN6mKTfoFbl7Yq9OxV2KuxV2KuxV2KuxV2KvjX/nIP/nH&#xA;bz3H5r1bzdoUMmv6Zqk8l5PFAOV3bNIeRQxD4pI16KUBIHUbVKr54likikaKVGjkQlXRgQwI6gg9&#xA;MVWYq7FUZpOkanrGpW+maXbSXmoXbiO2toVLO7HsAPvPhir1GH/nFP8AO+SJXOiRRlhXg95ach86&#xA;SEYqlWr/APOOn506Uf3/AJXuZ1JorWjw3dfekDyMPpGKsG1vQdb0K/fTtasLjTb5AGa2uo3hk4t0&#xA;bi4BoexxVAYq7FX2L/zhtrHnzVNE1g6tfTXflmxaK10tbg82WeheVY5Gq/BEKfCTQVFO+Kvo/FXY&#xA;q7FXYq7FXYq7FXYqxLzt+VP5f+dYXTzDo0FzcMvFb9F9K6SnTjOnF9v5SSvtir4q/Pz8ln/LHzBa&#xA;R2ty97oeqo8mnzygCVWiIEkUnEBWZeankAK16Yq8txV9X/8AOE/kq1NprfnO4jD3IlGl2DnrGFRZ&#xA;rgj/AFvUjFfYjFX1LirsVeb/AJ8flVYfmD5IurdYR+n9Oje50W5AHP1VWpgr14TU4keNG7Yq/PQg&#xA;g0OxGKtYq/Rf8iPLMflz8pPLVgqgSzWaXtye5lvP9IYE9+PqcfoxVnuKuxV2KuxV2KuxV2KuxV2K&#xA;vAf+cz9IjuvyxsNR4/vtO1OKj+Ec8UiOPpbh92KvinFX2x/zhhewS/lbf2yn99batP6i+0kELKfk&#xA;dx9GKvfMVdirsVfmP55t4rbzt5gt4Rxih1K8jjXwVJ3AH3DFUjxV+o+hwpDomnwxikcdtCiDrssY&#xA;AxVG4q7FXYq7FXYq7FXYq7FXYq8g/wCcsLf1fyS1iThy+rz2clf5a3Ucdf8Ah6fTir4KxV7T/wA4&#xA;w/m7p3kLzVd2OuSmHQNcWOOa5NStvcRE+lKwFfgIdleg8D0GKvt/StZ0jV7RbzSr631C0fdLi1lS&#xA;aM18GQsMVRmKoXVNU07StOuNS1K4jtLC0jaW5uZWCoiKKkknFX5i+YNTOq69qWqEcTf3U90VPUet&#xA;Iz02/wBbFUvxV+pWk/8AHKsv+MEX/EBiqKxV2KuxV2KuxV2KuxV2KuxV5V/zlH/5InzN/wBGP/dQ&#xA;t8VfAGKuxVFafqmp6bOLjTruayuB0mt5Hif/AIJCDirLbL87vzds4+EPm7VGXp++uHnPj1lLnFUk&#xA;8w+ePOXmSg1/W77VEU8kjuriSWNT4qjEqv0DFUjxV2Kv1M02N49OtY5BxdIY1ZT1BCgEYqiMVdir&#xA;sVdirsVdirsVdirsVeQ/85XO6/kjrQUkB5rJXA7j61GaH6QMVfBQBJAAqTsAMVfor5Q/JP8ALfQt&#xA;F063fy1ptxqNtbRR3N7PaxTSvMsYWSTnIrmrNUmmKsnk8neUZEMcmiae6NsyNawkEe4K4qx7V/yP&#xA;/KLVkZLvylpq8/tNbQLaOd61523pNXfrXFXhH53f84p6BonljUPNPk2eeFdMiNzeaTcN6yGBN5Gh&#xA;kPxqUWrEOWqB1GKvlrFVa0gFxdwwE8RLIqcutORArir9TsVdirsVdirsVdirsVdirsVdirxH/nMG&#xA;dI/yedGBJm1G1RaeI5vv9CYq+ILGZIL23mevCKVHanWisCcVfqYjo6K6MGRgCrA1BB3BBGKt4q7F&#xA;Uk8820V15J8wW0391Ppt5HJWh+F4HU9duhxV+Y2Krkd0dXRirqQVYGhBHQg4q/UnS9Qh1HTLTUIC&#xA;DDeQx3ERBqOMqB1oe+xxVE4q7FXYq7FXYq7FXYq7FXYq+ff+c1br0/yy0m3BYNPrMTGnQrHbXFQf&#xA;pYHFXxbir0XRv+chvzl0azhs7DzNOLa3jWGGOaK2uOKKAFFZ4pDsBiqf2f8Azlp+dUBUy6la3YAA&#xA;Ims4ADTufSWLr7YqynTP+c2vO8SKup6Dpt2RQFoGntyada8mnFTiqU/mJ/zlt5v82eXLrQbDTINE&#xA;tr+Mw3s8crzztE+zxoxEaoHX4W+EmnfFXhGKuxV9zf8AOJ35hx+ZPy6j0K5l5at5a42rqx+JrRqm&#xA;2ceyqDF/sR44q9uxV2KuxV2KuxV2KuxV2KuxV8wf85xaiE0nynpoO8893cstf98pEgJFf+LjTFXy&#xA;ViqaeW/LGv8AmbVodI0Gxl1HUZ/7u3hFTQdWYmiooruzEAdzir2Sx/5wz/Nq5tllmutIspG6289z&#xA;Mzr8zDBMn3NiqI/6Eq/NP/q66H/0kXn/AGSYqhr7/nDT82raEyQ3OkXrjpDBczK5+maCFf8AhsVe&#xA;V+cPy787eTblYPMuj3GmlyVimkUNBIR1EcyFonP+q2KscxVl35W/mLqv5f8AnGz8w2FZI0PpX9pW&#xA;iz2rkepGfA7clPZgDir9FPLfmLSPMmhWWuaROLjTr+ITW8o60PVWHZlPwsOx2xVMsVdirsVdirsV&#xA;dirsVdir4q/5zO8wJffmVY6RE/JNI0+MSr/LPcu0rD/kV6ZxV4Bir7U/5w58jjSfIV15muYQt75g&#xA;nP1eQj4xZ25KJ13HOXmfccTir6AxV2KuxVAa7oGja/pNxpGs2cd9pt0vCe2mFVYdj4hgdww3B3GK&#xA;vhv8/fyCv/y5vhqmmM955SvJOFvcPvLbSNUiGalK1p8D9+h36qvHsVe5f84z/nifJOtDy5rk3/Oq&#xA;6rKP3rnazuWoom36RvsJPD7XY1VfcKsrKGUhlYVVhuCD3GKt4q7FXYq7FXYq7FWPef8Azzovkjyr&#xA;e+YtXelvar+6hBAeeZv7uGP/ACnP3CpOwOKvzh81eZdT8z+Y9R1/U3532pTtPNT7K8j8KL/kotFX&#xA;2GKpr+WPkDUvPnnTT/LllyRbhud7cgVEFqhBllPbYbLXqxA74q/SDStMsdK0y00ywiEFjYwpb2sK&#xA;9EiiUIij5AYqisVdirsVdiqB1zRNK13SLvR9Wtku9NvYzFc28n2WU/LcEHcEbg7jFXwR+eP5Jax+&#xA;W2ulo1e68sXsjfovUTuR39CcgACVR9DDcdwFXmGKvrT/AJxY/PlbmK2/L/zPc0uYwI/L19Kf7xRs&#xA;LR2P7Y/3V4j4evGqr6gxV2KuxV2KuxVJvN3m/wAveUdBuNd1+7W00+2HxOd2dz9mONBu7t2A/Vir&#xA;4J/Oj85tc/MvXvXmDWmhWbMNK0ytQinYyy02aVx1PQdB4lV55HHJLIscal5HIVEUEsWJoAAOpOKv&#xA;vn/nHX8n0/L7ygJ9RiX/ABPq6rNqb9WhSlY7UH/IrV6dWr1AGKvWcVdirsVdirsVdiqW+Y/Lmi+Z&#xA;NFutF1q1S8028ThPA/3hlI3VlO6sNwdxir4P/O/8itb/AC11QTxs9/5YvHIsNS47o25EFxTZZAOh&#xA;6ONx3AVeXxySRSLJGxSRCGR1JDBgaggjoRir7U/5xn/P2fzlb/4T8yyhvMlnFzs7xjQ3sKD4uX/F&#xA;0Y3b+YfF2bFXv2KuxV2KsX/MX8xfLfkHy3NrmuTcUWqWlohHrXE1KrFEp6k9z0A3OKvgj80/zZ80&#xA;fmNrp1HWJPSs4Sw07S4yfQtoz2HTm5/ac7n2FAFWFYq+qP8AnFr8gphPbef/ADTbFESkvl/T5V3Z&#xA;jut5Ip6Af7qBH+X/AC1VfVmKuxV2KuxV2KuxV2KuxVB6xo2l61plzpeq2sd5p92hiuLaUckdW/z2&#xA;I3HbFXwJ+fP5P3P5bebPq9v6k3l7UQ02kXT7mgPxwO21XiqPmCDirBvK/mLUfLfmLTte05+F7ptw&#xA;lxCakAlDUo1P2XFVYdwcVfploOs2et6Jp+s2RJs9Storu3J6+nOgkWvvRt8VR2KoPWNX07RtKu9W&#xA;1KdbawsYnnup26LHGOTH39h3xV+d/wCb35qaz+Y3mubVrwtDp0JaPSNOJqtvBXw6GR6AyN3PsAAq&#xA;wfFX1V/zjv8A84yRPFbeb/Pdpy5Ul0rQpl+HiRVZrpCO/VYz/svDFX1UAAKDYDoMVdirsVdirsVd&#xA;irsVdirsVdirzf8A5yE8hp5y/K7VrSOL1NT05DqOmECretbgsyL7yx8k+ZGKvzzxV91/84lebv05&#xA;+U8GnSvyu/L88li9ftGFj60DfILJwH+rir2nFXzF/wA5m/mM9rp+n+Q7CXjJfgX2r8T/ALoRiIIm&#xA;p2eRS5H+Svjir5IxV9Cf84nfk9b+Ztal8463AJdG0aUJYW7iqT3oAfkw7pCCGp3YjwIxV9oYq7FX&#xA;Yq7FXYq7FXYqsnngt4JJ55FigiUvLK5CoiKKszMdgANyTirxPUP+cvPyrtfM8ejxfW7qw9T0rjW4&#xA;ox9VQk05qpYSyIp+0wXpuvLFXtdvcQXNvFc28izW8yLJDMhDI6OKqysNiCDUHFVTFXYq/N384vKK&#xA;+UvzM8waFGnC1gumls1psLe4AmhA8eKSBfmMVej/APOHnnIaP+Y8+gzycbXzFbGJFJoPrVtWWIn/&#xA;AJ5+qo9yMVfbeKvzn/PXzBJr35ueab12LJFfSWcNenp2Z+rJx9iIq/TirBUR5HWONS7uQqqoqSTs&#xA;AAMVfpX+Wfk638m+RNG8uxKFeytlF0woedy/xzvUfzSs1PbFWT4q7FUm85ea9L8peWNR8xao3Gy0&#xA;6Eyuo+07fZSNa/tSOQq+5xV8TN/zlZ+bo81S61HqEYspJKrobxo1osVdo+gk6fthgx/DFX2t5I83&#xA;6Z5w8qab5k0w/wCiajCJBGTVo3BKyRMf5o3UqfliqeYq7FXyx/zl/wDm9cwyL+XejTmMPGk/mCaM&#xA;0Yq45RWu3QFaO/iCo8Rir5SxV9d/84jfnGL+xH5e61P/AKbZoz6DM53kt1HJ7ap/aiFWT/IqP2cV&#xA;fTOKuxV8d/8AObPlwWvm/QfMCIFTU7J7WUjvLZycuTe5S4UfRir590LWL3RNasNYsW4XmnXEV1bt&#xA;4SQuHWvtVcVfpd/inS/8If4r5/7iv0f+lfUqP95/R9eten2MVfmZqV417qN1eNXlczSTGtAayMW7&#xA;bd8VZt+Q3lxfMP5u+WdPkXlAl2LudSKqUs1NyQ3s3pcfpxV+iuKuxV2Kvkf/AJzM/Md7nVLHyFYy&#xA;0t7ILfauFP2p5B+4ian8kZ5kH+ZfDFXzHir6h/5wv/MNIL3UvIl9NRLuuoaQGP8Au1FC3ES1/mRV&#xA;cAfyscVfWeKqGoX1tp9hc390/p2tpE887/yxxqXY/QBir8yPNvmO98y+ZtU1+9JNzqdzJcuCa8Q7&#xA;Eqg9kWij2GKpTiqL0rVNQ0nUrXU9Ona2v7OVZ7a4jNGSRDyVh9OKv0S/J38y7L8w/JFprsQWK+T/&#xA;AEfVbVf91XSAcwK/suCHX2PjXFWb4q8E/wCczNEF7+V9pqarWTStSidm8Ip0eJh9LlMVfE2Kvqv/&#xA;ABy//Ql1fV/0yn6Crv0+t04/9ImKvlTFXuf/ADhxaCf83ZJeJb6rpdzKCP2avFFU/wDIymKvuHFX&#xA;YqlPm3zLp/ljyzqXmDUGpaaZbvcSCtCxUfDGpP7TtRV9zir80/Mevah5g17UNc1F+d7qVxJczneg&#xA;aRi3Fa1oq9FHYYqluKo/Qdc1PQdastZ0uYwahp8yXFtKN6OhqKjuD0I7jFX6K/lV+ZejfmH5Rttd&#xA;08iO4FItSsSatb3KgF0Pip+0jd196gKpB/zkt5k/QP5Na+6PxuNSRNNgHTl9aYJKP+RHqHFX59Yq&#xA;7FXYq9a/5xr/ADQbyP5/hgvJeGga6Us9SBNEjcmkE57fu3ajH+VmxV99Yq88/wCchNNTUfyY81wM&#xA;KiOz+sjtvayJOP8Ak3ir87sVerfXT/0K39W9Yc/8aU9Go5el+i+XTrx5/jiry24heC4lgcgvE7Ix&#xA;HSqmhpir3z/nCr/yaeq/9sO4/wCoy0xV9qYq7FXzB/zmj+YRgsNN8i2ctJLumoasFP8AulGK28bf&#xA;60ilyP8AJXFXyVirsVdir0H8k/zWvvy485Q6mC8uj3fGDWbNT/eQV2dR09SInkn0r0Y4q9U/5y6/&#xA;NXy15msPLuheW9Uh1OzUtqd7JbOJEV2T07dWI+zIFeTkhoVqK4q+asVeh/kp+T+p/mZ5lewjlNnp&#xA;Fiol1XUAvIxqxISNAdjJIVPGvQAntQqo/wDPb8kb38stZt/Qmkv/AC/qKk2N9IoDrIv24JeO3MCj&#xA;A0AYdOhoq8txV9//APON35k/42/Li1+ty+prWi8bDUqmrPwX9zMe/wC8j6nuwbFWUfm76X/KqvOP&#xA;q8eP6E1CnKlOX1WTj178qU98Vfmxir1ah/6FYrTb/HFf+5RTFXm2txSQ61fxSDjJHczI67GjLIQR&#xA;tir2z/nDKZ4/zZu0WlJtHuUevgJ7d9vpUYq+28VU7q5t7W2muriQRW8CNLNK2yqiDkzH2AGKvzW/&#xA;MvzncedPPWseZJuQS+uGNrG3VLdPggQgbVWJVB98VUPIXkrV/Ovmuw8uaUv+k3r0eYglIYl3kmen&#xA;7KLv79OpxV9V/mL/AM4oeT0/LZofKls6+Z9JiM8d67u0l8yLWWORa8AZAPg4gcWoOhOKvjTFXYq7&#xA;FXYq/Qj/AJx3/L7/AAV+WOnWtxEI9W1IfpDU/wCYSTgFIz/xjiCqR/NXxxVk35j+Q9J89eUL7y5q&#xA;Q4pcrytrigLQXCbxTL7qeviKjvir85vNPlnV/K/mC+0DWITBqOnymKdOx7q6nurqQynuDirKvyW/&#xA;NjUfy283JqkatcaTdhYNYsl6yQcq80rt6kf2k+kdCcVfT357/nX5EuPybvxomsW2oXnmKAWllawy&#xA;K0wSUj1mli+3Fwj5A8gPioMVfEWKvff0M/8A0Jx9b3p+nvrnUdOf1T9eKvGfN6OnmzWkdSrrf3QZ&#xA;SKEETMCCDir17/nDb/ybk3/bKuf+TsOKvt/FXjX/ADld52Plz8q7nT7eThf+YpBp0YBowgI53LU7&#xA;qY19M/6+KvhSCCa4mjggjaWeVgkUSAs7Oxoqqo3JJ2AGKvvH/nHL8l1/L7y019qkanzVq6q182xN&#xA;vDsyWqn2O8hHVvEKDir1/FXwX/zk5+WH+C/zAlvrGH09B18veWPEfBHNUG4hHhxduSjsrAdsVeP4&#xA;q7FXqP8Azjj+XR86/mXYx3MQk0fSKahqfIVVliYelEex9STiCP5eXhir9A8Vdirwn/nKL8lj5w0D&#xA;/FGiQcvMmjREyxItXu7Ras0YA3aSPdk8d16kYq+IcVdirsVfY/6A/wCsK/qXE/8AHM/SFKH/AJbv&#xA;r1ev0/2Yq+WPzC/5T7zL/wBtW+/6iXxV6r/zht/5Nyb/ALZVz/ydhxV9v4q+W/8AnKDyH+Znnz8x&#xA;9H0ny/o1xd6VZaeGivCPTtVmnlf1y08nGINwij+GvLbpuMVZt+R3/ONOk+Qpo9d12WPVfNAX9yyA&#xA;/VrTkKH0eQDO/UeoQNugHdV7dirsVYP+cv5a2n5heRb3Q24pqMf+k6TcN0juoweFT2VwSjexr1GK&#xA;vzqvbK6sbyeyvImgu7WR4biBxRkkjYq6MPFWFDiqhir7P/5wr0S0t/y91bWFUfXNQ1JoZXpv6VtE&#xA;hjWvs0zn6cVfQuKuxV2Kviv/AJyq/JkeV9c/xhokHHQNYlP12FB8NteNVjQD7Mc27L4NUbfCMVfP&#xA;+KuxV+gn6Kj/AOhZ/wBG0X/lD+Fd6ep+ja8/+D+LFXxL+bAA/NPzkBsBrmpUH/R3Jir0v/nDb/yb&#xA;k3/bKuf+TsOKvt/FXYq7FXYq7FXYq+F/+ct/J0eg/mm+pW0fC08wW6X2woouFJinHzJRZD7tirxP&#xA;FX2//wA4bf8Ako5v+2rc/wDJqHFXuuKuxV2KpX5o8taT5n8vX+gatF62n6jC0M6dxXdXUmtGRgGU&#xA;9iBir83vPfk7VPJvm3UvLepD/SdPlKLKBRZYj8UUq/5MiEN7dOuKpBir9OP0E3+CP0DxHL9GfUeF&#xA;FpX6v6VKV4/jTFX59/nQiJ+bXnAIAoOr3jEDxaZiT9JOKvTP+cK7b1PzR1OcpVYdGmo38rvc24H3&#xA;ryxV9qYq7FXYq7FXYq7FXzL/AM5waYj6D5X1Tj8dvdXFrz9p41eh/wCRGKvkXFX3D/zhwjr+UUhZ&#xA;SA+qXLIT3HpxCo+kHFXueKuxV2KuxV86f85gflc+s+XoPO+mQ8tQ0RfS1NUFWksWaokPc+g5J/1W&#xA;Yn7OKvlf8u9GbW/Pvl3SQvIXuo2sMgHaNpl5n6EqcVfpnir87/8AnIWzNp+dHmuIqF5XYmoBx/v4&#xA;klrT35198Veuf84PaVz1TzXqxH9xBaWqHx9Z5JGp8vRXFX1pirsVdirsVdirsVfNf/ObxP8AhXy0&#xA;O316bb/njir4/wAVfdX/ADiF/wCSbtv+Y67/AOJDFXtWKuxV2KuxVTuLeC5t5ba4jWa3mRo5oXAZ&#xA;HRxRlZTsQQaEYq8A/L//AJxgfyf+co8zwXUM/lazWebSrdixuY5plMaxSKV4ssayNR+VTQbYq+g8&#xA;VfCn/OXWlmy/Oa7uStP0nZWl0DTrxj+rV/6d8Verf84QxgeVvM0nGha+hXnTrxhJpX25Yq+lcVdi&#xA;rsVdirsVdir5w/5zcg5eS/L1xy/u9SePjTrzgY1r7cMVfHWKvvP/AJxNRF/JPSSqgF7i8LEDqfrD&#xA;ip+gYq9hxV2KuxV2KuxV2KuxV80/85jflvrWtQaL5p0aylvpLEPY6hFbxtLKInb1IX4oCeKvzDf6&#xA;wxV6R/zjn+Xt35I/LKzstRiMGr6jI+oajC32o3mCqkbeBSJEDDs1cVenYq7FXYq7FXYq7FXhH/OZ&#xA;dj9Y/Ke2uAN7LVreUnavFopoqffIMVfEWKvv3/nFiKNPyL8uMoo0rXzud9yL+da/coxV6virsVdi&#xA;rsVdirsVdirsVdirsVdirsVdirsVdiry3/nJ6wN7+SHmNVBLwC2uFpXpFdRM3T/I5Yq/P3FX6Ef8&#xA;41wrF+SHlZFXiDDO9Pd7uZyd/EtXFXpmKuxV2KuxV2KuxV2KuxV2KuxV2KuxV2KuxV2KsR/N7Txq&#xA;H5WebbWlWbSbx0Bp9uOBpE6/5SjFX5s4q/SL8mdPbT/yn8pWzCjfoq1lZT1DTRCUg18C+KsyxV2K&#xA;uxV2KuxV2KuxV2KuxV2KuxV2KuxV2KuxVDapZC+0y7siaC6hkhJ6f3iFf44q/Mny15b1LzB5l0/y&#xA;/ZRsb7ULlLVEpurO1GZh2CCpbwAxV+nNlZwWVnBZ244wW0aQxL1okahVH3DFVbFXYq7FXYq7FXYq&#xA;7FXYq7FXYq7FXYq7FXYq7FXYq+Z/+cbfypNp+ZPnHzXfQFIdH1K+0nRqiimUTOlxIv8AqR0QEbfE&#xA;3hir6YxV2KuxV2KuxV2KuxV2Kv8A/9k=</xapGImg:image>
    </rdf:li>
   </rdf:Alt>
  </xap:Thumbnails>
 </rdf:Description>

 <rdf:Description rdf:about=''
  xmlns:dc='http://purl.org/dc/elements/1.1/'>
  <dc:format>image/svg+xml</dc:format>
 </rdf:Description>

</rdf:RDF>
</x:xmpmeta>
                                                                                                                                                                                                                                                                                                                                                                                                                                                                                                                                                                                                                                                                                                                                                                                                                                                                                                                                                                                                                                                                                                                                                                                                                                                                                                                                                                                                                                                                                                                                                                                                                                                                                                                                                                                                                                                                                                                                                                                                                                                                                                                                <?xpacket end='w'?>
			</metadata>
		<g id="レイヤー_1" i:layer="yes" i:dimmedPercent="50" i:rgbTrio="#4F008000FFFF">
			<path i:knockout="Off" d="M6.755,171.322c-1.212,1.873-2.925,0.701-3.807-2.605c-0.882-3.306-1.727-10.509-1.879-16.007
				l-1.052-38.117c-0.152-5.498,0.716-12.521,1.928-15.606c1.212-3.087,3.467-7.324,5.01-9.418c1.543-2.095,4.519-5.25,6.613-7.014
				s5.34-4.739,7.213-6.612s4.218-5.12,5.209-7.213s2.093-8.298,2.447-13.787l0.315-4.888c0.354-5.489,0.644-12.955,0.644-16.592
				s-0.271-8.776-0.601-11.421s-1.142-5.44-1.804-6.211c-0.662-0.771-3.006-2.034-5.21-2.806s-4.909-1.944-6.011-2.605
				s-2.274-1.743-2.605-2.405c-0.331-0.661-0.06-1.563,0.601-2.004c0.661-0.44,3.096-1.252,5.41-1.803
				c2.314-0.551,7.093-1.363,10.62-1.804c3.527-0.44,8.035-0.981,10.019-1.202s5.14-0.581,7.013-0.802
				C48.704,0.18,51.769,0,53.643,0s6.202,0.902,9.618,2.004c3.417,1.102,7.835,2.815,9.819,3.807
				c1.984,0.992,3.877,2.074,4.208,2.405s0.06,1.503-0.601,2.605s-1.563,3.717-2.004,5.811s-0.711,6.783-0.602,10.419
				s0.02,9.227-0.2,12.423s0.05,7.434,0.602,9.417c0.551,1.984,1.994,5.14,3.206,7.014c1.212,1.874,3.466,5.029,5.009,7.013
				c1.543,1.984,4.338,5.5,6.211,7.814c1.874,2.314,4.668,5.38,6.211,6.813c1.543,1.434,3.526,5.311,4.408,8.617
				c0.882,3.306,2.865,9.257,4.408,13.225s2.985,10.37,3.206,14.227c0.221,3.857-0.05,10.62-0.601,15.029
				c-0.551,4.408-1.092,10.179-1.202,12.823s-0.651,7.243-1.202,10.22c-0.551,2.976-1.362,5.86-1.803,6.412
				c-0.441,0.551-1.613-0.081-2.605-1.403s-2.886-4.479-4.208-7.013c-1.322-2.535-3.306-5.962-4.408-7.615
				c-1.102-1.652-3.537-5.079-5.41-7.613c-1.874-2.535-4.488-6.232-5.811-8.216s-3.036-4.508-3.807-5.61s-2.214-1.282-3.206-0.4
				c-0.992,0.881-2.435,3.136-3.206,5.009s-2.484,5.57-3.807,8.216c-1.323,2.645-2.314,5.71-2.204,6.813s0.11,6.422,0,11.822
				s-0.351,14.315-0.534,19.813l-0.135,4.057c-0.183,5.497-1.054,11.527-1.936,13.4c-0.882,1.874-2.234,4.76-3.006,6.412
				c-0.771,1.653-1.493,2.194-1.603,1.203c-0.11-0.992-0.651-5.951-1.202-11.021c-0.551-5.069-1.363-12.463-1.804-16.431
				s-0.622-10.73-0.401-15.028s-1.493-10.88-3.807-14.627c-2.314-3.748-5.109-8.797-6.211-11.222s-2.725-4.318-3.606-4.208
				s-2.505,1.643-3.607,3.406s-3.266,4.739-4.809,6.613c-1.543,1.873-3.978,4.037-5.41,4.809s-3.236,1.583-4.008,1.803
				c-0.771,0.221-1.132-0.681-0.802-2.003s1.593-4.929,2.805-8.015c1.212-3.087,3.016-7.415,4.008-9.619
				c0.992-2.203,2.886-6.352,4.208-9.217s3.306-6.833,4.408-8.816c1.102-1.984,2.725-3.518,3.607-3.406
				c0.882,0.11,2.144,0.651,2.805,1.202s2.194,3.347,3.406,6.212c1.212,2.864,3.286,6.472,4.609,8.014
				c1.323,1.543,3.396,4.339,4.609,6.213c1.212,1.873,2.745,1.513,3.406-0.802s1.743-6.553,2.404-9.418s2.104-6.743,3.206-8.616
				s2.906-4.128,4.008-5.01c1.102-0.881,2.635-1.603,3.406-1.603s2.124,1.172,3.005,2.604c0.882,1.434,3.136,4.77,5.01,7.414
				c1.874,2.646,4.489,6.974,5.811,9.619c1.322,2.645,3.036,6.071,3.807,7.613c0.771,1.543,2.665,3.888,4.208,5.21
				s3.346,0.24,4.007-2.405c0.661-2.645,0.661-8.506,0-13.023c-0.661-4.519-2.104-11.372-3.206-15.229
				c-1.102-3.857-2.815-8.637-3.807-10.62s-2.795-4.508-4.007-5.61s-4.188-3.897-6.612-6.212s-5.851-5.921-7.614-8.015
				s-4.739-4.799-6.613-6.011s-5.571-2.204-8.216-2.204s-7.514,0-10.82,0s-6.462,1.894-7.013,4.208
				c-0.551,2.314-2.625,6.642-4.608,9.618c-1.983,2.976-4.688,6.853-6.011,8.616s-4.118,4.648-6.212,6.412s-4.889,4.648-6.211,6.412
				s-3.036,5.1-3.807,7.414c-0.771,2.313-1.763,6.011-2.204,8.215s-0.711,7.614-0.601,12.023c0.11,4.408,0.2,12.515,0.2,18.015
				v2.843c0,5.5-0.361,11.894-0.802,14.208s-0.711,5.65-0.601,7.414S7.967,169.449,6.755,171.322z M50.036,51.697
				c3.417,0.661,7.384,0.841,8.817,0.4c1.433-0.44,2.605-2.154,2.605-3.807c0-1.653-0.256-4.064-0.456-5.376
				c-0.399-2.63-1.68-3.078-3.223-3.739s-5.186-1.455-9.153-1.676c0,0-2.076-0.7-7.22,0.129c-2.679,0.432-3.48,0.387-3.48,0.387
				c-1.934,4.77-1.215,11.928-0.113,12.479C38.915,51.045,46.62,51.036,50.036,51.697z M53.242,32.06
				c3.637,0.221,7.333-0.771,8.215-2.204s1.243-5.851,0.802-9.818s-3.146-7.935-6.011-8.816c0,0,0,0-1.202,0s-1.202,0-1.202,0
				c-3.307-0.882-7.996-1.062-10.42-0.401s-4.408,4.809-4.408,9.217s1.713,8.827,3.807,9.818S49.605,31.839,53.242,32.06z"/>
		</g>
	</svg>
