<?xml version="1.0" encoding="UTF-8" standalone="no"?>
<!-- Created with Inkscape (http://www.inkscape.org/) -->

<svg
   xmlns:dc="http://purl.org/dc/elements/1.1/"
   xmlns:cc="http://creativecommons.org/ns#"
   xmlns:rdf="http://www.w3.org/1999/02/22-rdf-syntax-ns#"
   xmlns:svg="http://www.w3.org/2000/svg"
   xmlns="http://www.w3.org/2000/svg"
   xmlns:sodipodi="http://sodipodi.sourceforge.net/DTD/sodipodi-0.dtd"
   xmlns:inkscape="http://www.inkscape.org/namespaces/inkscape"
   width="300"
   height="300"
   id="svg2"
   version="1.1"
   inkscape:version="0.48.2 r9819"
   sodipodi:docname="Nouveau document 1">
  <defs
     id="defs4" />
  <sodipodi:namedview
     id="base"
     pagecolor="#ffffff"
     bordercolor="#666666"
     borderopacity="1.0"
     inkscape:pageopacity="0.0"
     inkscape:pageshadow="2"
     inkscape:zoom="1.979899"
     inkscape:cx="202.69582"
     inkscape:cy="157.82486"
     inkscape:document-units="px"
     inkscape:current-layer="layer1"
     showgrid="false"
     inkscape:window-width="1280"
     inkscape:window-height="999"
     inkscape:window-x="0"
     inkscape:window-y="24"
     inkscape:window-maximized="1" />
  <metadata
     id="metadata7">
    <rdf:RDF>
      <cc:Work
         rdf:about="">
        <dc:format>image/svg+xml</dc:format>
        <dc:type
           rdf:resource="http://purl.org/dc/dcmitype/StillImage" />
        <dc:title></dc:title>
      </cc:Work>
    </rdf:RDF>
  </metadata>
  <g
     inkscape:label="Calque 1"
     inkscape:groupmode="layer"
     id="layer1"
     transform="translate(0,-752.36218)">
    <path
       style="fill:#000000"
       d="m 211.38586,1019.2573 c -10.48883,-1.1644 -19.4219,-8.0958 -29.94057,-8.0252 -10.05524,-2.7166 -19.19543,-9.6255 -29.50282,-12.91418 -11.19928,-5.93461 -23.74816,-13.04461 -28.66762,-25.36863 2.36604,-10.53471 10.49274,-21.23724 19.75811,-26.98236 7.38367,-6.81177 22.09032,-16.41306 14.0383,-27.82741 -7.60745,-8.30311 -20.91268,-4.06468 -31.07003,-5.53635 -18.5752,-0.79487 -39.034477,6.84597 -49.110506,23.12621 -10.084471,20.09618 -7.526465,43.16554 -8.573456,64.96102 0.729464,3.1535 -1.848302,9.5421 1.049378,10.5746 4.634629,0.7781 15.519966,-2.3196 15.241462,3.4209 -12.079679,11.7428 -33.369934,1.2808 -35.051077,-14.4492 -2.358946,-16.78773 -2.451872,-34.48955 2.655453,-50.78503 9.886163,-25.65663 36.009632,-38.52135 58.944736,-50.40287 9.39457,-2.12887 8.48,-11.54316 -1.13238,-11.49177 -19.445034,-4.05985 -40.745389,-4.3108 -57.277219,-16.86239 -10.31426,-6.9353 -5.507086,-21.35489 -6.37537,-31.74906 -1.07725,-12.14874 6.305722,-21.81267 15.979416,-27.85029 19.272213,-7.60079 40.402253,-6.09988 60.739533,-6.33624 -0.14722,-7.26985 -0.92118,-16.91241 7.40545,-20.0859 11.63281,-5.67733 15.90143,6.151 17.16264,14.96513 8.80209,7.16461 21.35898,4.2673 31.88417,5.21387 13.07015,-0.38051 26.05325,5.08696 33.9895,15.65507 9.19314,11.62113 8.46748,28.12032 6.09056,41.97884 -1.12876,12.08006 -12.80098,17.95597 -23.46023,19.95226 -16.33794,4.20435 -33.29769,3.69356 -49.98972,4.48953 -11.74785,5.05351 3.66545,14.73099 11.212,13.53147 11.56069,1.27927 20.91194,10.72702 21.48843,22.39877 0.49402,15.82578 -15.2299,24.09925 -25.68794,33.00579 -10.24072,6.16765 -12.75942,20.28203 -2.81656,28.14798 11.75986,10.48514 28.87455,10.48872 42.14081,18.17484 17.1648,1.4955 34.02642,6.4054 49.91416,12.9847 11.65985,10.2153 -10.92771,9.6331 -17.11054,7.0989 -4.67386,-0.8529 -9.31162,-1.893 -13.92807,-3.013 z M 189.65788,866.15719 c 7.56909,-3.98472 9.3151,-12.4897 8.57771,-20.23126 -3.00842,-0.79968 -7.82174,0.31209 -11.52247,0.24561 -13.46816,1.15691 -27.3525,0.32579 -40.37057,4.24339 -4.60318,5.2096 -2.23196,17.62122 1.56309,22.77235 13.14032,0.38938 27.28207,0.36914 39.35028,-5.56894 l 1.21353,-0.70401 1.18843,-0.75714 0,0 z m -66.03844,-1.705 c 6.69364,-13.48458 -7.28608,-18.51122 -18.1232,-16.39201 -11.635491,0.67024 -23.659542,-0.69221 -35.015846,2.13128 -3.876995,10.63484 6.496094,21.80595 17.855647,20.12974 10.995982,-0.17352 22.880529,2.81833 33.345799,-0.80667 1.31595,-1.34953 1.53881,-3.32575 1.9376,-5.06234 z m -1.25151,-37.64432 c 3.83776,-13.15107 -12.94373,-8.77287 -20.57634,-9.40502 -10.037779,1.45156 -23.311622,-2.55725 -30.456334,6.26091 -6.88826,7.51583 -0.844062,15.58522 8.534736,12.92831 13.784146,0.30419 27.562738,-0.37719 41.342598,-0.64201 0.38511,-3.0474 0.77023,-6.09479 1.15534,-9.14219 z m 72.11044,4.9412 c -0.76081,-12.44451 -16.06024,-14.31079 -25.92585,-14.71502 -9.00644,-0.77545 -25.45633,-2.45647 -22.918,11.38976 -0.61403,4.4741 -0.34567,8.06582 5.12953,6.4507 14.17169,-0.42877 28.6151,1.19595 42.54947,-1.61926 l 0.8887,-0.6792 0.27615,-0.82698 z m 18.7861,153.77724 c -12.74711,-1.58829 -26.75608,-1.88705 -37.61148,-9.53489 -9.58978,-9.61858 1.01103,-24.45412 10.93033,-29.08774 9.17739,-6.80984 20.55586,-15.37808 18.94171,-28.31528 1.50917,-7.63519 -6.5063,-27.57142 6.10082,-25.04697 11.33855,1.8223 12.91416,15.88651 11.85619,25.19842 -2.54604,18.455 -17.12079,31.76826 -31.53704,41.976 -12.5084,9.94099 9.5311,12.38059 16.69885,12.17686 8.634,-0.78314 23.23473,4.264 26.9576,-6.48829 3.97736,-12.09512 -14.64158,-13.88934 -13.88836,-23.07545 12.3285,-2.16181 24.9376,6.87302 33.58931,15.04332 8.85663,11.166 -2.22428,25.24883 -14.11655,27.59518 -8.91064,3.02931 -18.72874,-0.43244 -27.92138,-0.44116 z"
       id="path2996"
       inkscape:connector-curvature="0" />
  </g>
</svg>
