<?xml version="1.0" encoding="UTF-8" standalone="no"?>
<!-- Created with Inkscape (http://www.inkscape.org/) -->

<svg
   xmlns:dc="http://purl.org/dc/elements/1.1/"
   xmlns:cc="http://creativecommons.org/ns#"
   xmlns:rdf="http://www.w3.org/1999/02/22-rdf-syntax-ns#"
   xmlns:svg="http://www.w3.org/2000/svg"
   xmlns="http://www.w3.org/2000/svg"
   xmlns:sodipodi="http://sodipodi.sourceforge.net/DTD/sodipodi-0.dtd"
   xmlns:inkscape="http://www.inkscape.org/namespaces/inkscape"
   width="300"
   height="300"
   id="svg2"
   version="1.1"
   inkscape:version="0.48.2 r9819"
   sodipodi:docname="鬼-seal.svg">
  <defs
     id="defs4" />
  <sodipodi:namedview
     id="base"
     pagecolor="#ffffff"
     bordercolor="#666666"
     borderopacity="1.0"
     inkscape:pageopacity="0.0"
     inkscape:pageshadow="2"
     inkscape:zoom="1.979899"
     inkscape:cx="202.69582"
     inkscape:cy="157.82486"
     inkscape:document-units="px"
     inkscape:current-layer="layer1"
     showgrid="false"
     inkscape:window-width="1280"
     inkscape:window-height="999"
     inkscape:window-x="0"
     inkscape:window-y="24"
     inkscape:window-maximized="1" />
  <metadata
     id="metadata7">
    <rdf:RDF>
      <cc:Work
         rdf:about="">
        <dc:format>image/svg+xml</dc:format>
        <dc:type
           rdf:resource="http://purl.org/dc/dcmitype/StillImage" />
        <dc:title></dc:title>
      </cc:Work>
    </rdf:RDF>
  </metadata>
  <g
     inkscape:label="Calque 1"
     inkscape:groupmode="layer"
     id="layer1"
     transform="translate(0,-752.36218)">
    <path
       style="fill:#000000"
       d="m 96.002253,1024.9015 c -4.340096,-4.2812 -12.192872,-17.5814 -17.450613,-29.55598 -8.052924,-18.3407 -9.205193,-24.92941 -7.311234,-41.80594 2.745556,-24.46492 8.278319,-32.7659 29.532654,-44.30877 9.03626,-4.90744 16.42955,-9.9942 16.42955,-11.30391 0,-5.60791 -9.60778,-10.48809 -20.648281,-10.48809 -14.821457,0 -19.446771,-7.13706 -19.446771,-30.00721 0,-14.70542 1.562661,-18.32549 11.846266,-27.44316 6.515446,-5.77673 18.132136,-13.54858 25.814866,-17.27076 7.68273,-3.72219 16.70412,-11.2234 20.04753,-16.66935 7.06825,-11.51321 18.83644,-13.43742 18.83644,-3.07993 0,5.23005 6.72615,9.85463 28.24878,19.42253 24.87111,11.05646 29.20368,14.37549 36.23491,27.75825 11.53597,21.9568 10.65977,28.52633 -5.25237,39.38097 -7.51782,5.12837 -13.84091,9.38579 -14.0513,9.46094 -0.21039,0.0752 0.60973,7.54335 1.8225,16.596 2.03066,15.15772 3.21056,16.76049 14.9198,20.26699 25.81647,7.73111 27.95062,33.50953 4.01186,48.45938 -15.1487,9.46042 -27.64896,9.74603 -43.1529,0.98597 -10.71222,-6.05262 -11.84627,-8.24299 -11.84627,-22.8806 0,-9.20431 2.45503,-19.43534 5.69105,-23.71676 7.13682,-9.44239 9.01983,-36.34133 2.51021,-35.85873 -2.50594,0.18578 -11.93739,0.56578 -20.95877,0.84446 -17.57641,0.54293 -21.58367,5.59331 -8.20127,10.33612 4.5107,1.59861 11.35858,6.1545 15.21752,10.12419 6.93318,7.13216 6.92312,7.42672 -0.84925,24.87693 -14.51152,32.58068 -14.19341,35.51517 6.30837,58.19327 18.02594,19.93949 22.20776,29.57129 14.70464,33.86849 -6.5545,3.754 -28.71169,-14.9831 -38.16816,-32.27674 -10.58051,-19.34919 -11.46022,-36.011 -3.04953,-57.75891 8.02545,-20.75179 4.94955,-28.08423 -10.62224,-25.32172 -16.04911,2.84718 -35.482663,22.53401 -35.482663,35.94512 0,13.19599 13.105283,49.33725 22.166403,61.12975 3.8465,5.0059 6.99364,11.5271 6.99364,14.4915 0,8.1594 -15.67815,6.6485 -24.845367,-2.3943 z M 211.21727,951.1637 c 0.74104,-3.62784 -2.82887,-6.79881 -10.41215,-9.24859 -14.00616,-4.52469 -17.99242,-2.65992 -17.99242,8.41682 0,7.69501 1.2173,8.35556 13.63845,7.40077 9.1278,-0.70163 14.01141,-2.8742 14.76612,-6.569 z m -47.35533,-76.03234 c 8.24104,-2.04554 8.19201,-2.19148 -2.82186,-8.39846 -14.66457,-8.26438 -21.48322,-7.82599 -34.72496,2.23254 l -10.93501,8.30632 20.04752,-0.0294 c 11.02614,-0.0162 23.82158,-0.96611 28.43431,-2.11105 z m -49.95548,-17.1324 c 13.14266,-7.1945 13.23229,-9.68253 0.5624,-15.61067 -13.79906,-6.45646 -19.136278,-3.70512 -19.136278,9.86478 0,13.01882 3.378628,14.06401 18.573878,5.74589 z m 86.35757,-6.08639 c 0.57685,-3.71012 -1.20198,-9.5982 -3.95296,-13.08463 -4.49886,-5.70157 -6.04328,-5.86893 -15.35969,-1.66441 -13.98823,6.31295 -14.63456,10.44544 -2.71352,17.34968 12.44816,7.20951 20.65148,6.24094 22.02617,-2.60064 z m -46.37175,-18.6379 c 16.01657,-7.9435 -1.13098,-20.04605 -18.79535,-13.26554 -12.15967,4.66752 -13.30257,8.21447 -4.22555,13.11382 8.23266,4.44361 14.28667,4.48351 23.0209,0.1517 z"
       id="path3029"
       inkscape:connector-curvature="0" />
  </g>
</svg>
