<?xml version="1.0" encoding="UTF-8" standalone="no"?>
<!-- Created with Inkscape (http://www.inkscape.org/) -->

<svg
   xmlns:dc="http://purl.org/dc/elements/1.1/"
   xmlns:cc="http://creativecommons.org/ns#"
   xmlns:rdf="http://www.w3.org/1999/02/22-rdf-syntax-ns#"
   xmlns:svg="http://www.w3.org/2000/svg"
   xmlns="http://www.w3.org/2000/svg"
   xmlns:sodipodi="http://sodipodi.sourceforge.net/DTD/sodipodi-0.dtd"
   xmlns:inkscape="http://www.inkscape.org/namespaces/inkscape"
   width="300"
   height="300"
   id="svg2"
   version="1.1"
   inkscape:version="0.48.2 r9819"
   sodipodi:docname="鬼-bigseal.svg">
  <defs
     id="defs4" />
  <sodipodi:namedview
     id="base"
     pagecolor="#ffffff"
     bordercolor="#666666"
     borderopacity="1.0"
     inkscape:pageopacity="0.0"
     inkscape:pageshadow="2"
     inkscape:zoom="1.979899"
     inkscape:cx="202.69582"
     inkscape:cy="157.82486"
     inkscape:document-units="px"
     inkscape:current-layer="layer1"
     showgrid="false"
     inkscape:window-width="1280"
     inkscape:window-height="999"
     inkscape:window-x="0"
     inkscape:window-y="24"
     inkscape:window-maximized="1" />
  <metadata
     id="metadata7">
    <rdf:RDF>
      <cc:Work
         rdf:about="">
        <dc:format>image/svg+xml</dc:format>
        <dc:type
           rdf:resource="http://purl.org/dc/dcmitype/StillImage" />
        <dc:title></dc:title>
      </cc:Work>
    </rdf:RDF>
  </metadata>
  <g
     inkscape:label="Calque 1"
     inkscape:groupmode="layer"
     id="layer1"
     transform="translate(0,-752.36218)">
    <path
       style="fill:#000000"
       d="m 197.24314,1014.9167 c -4.06767,-7.7205 -21.98831,-7.5431 -13.24201,-19.17957 7.55382,-7.80942 9.92852,-18.59274 8.32462,-29.13244 -1.75237,-13.38062 -1.23942,-27.54386 -6.50526,-40.15547 -7.6098,-8.71806 -21.15465,-4.06368 -31.33728,-4.31596 -8.86211,1.74634 -21.65159,1.47628 -26.13005,10.72213 -3.8516,14.85737 -6.36941,31.43849 -18.40993,42.28435 -9.41259,3.23448 -6.79032,-16.05459 -8.45991,-22.06752 -1.2888,-20.79614 0.0984,-41.61566 0.62836,-62.41289 -14.362352,-4.25118 -31.757983,-7.18454 -39.132469,-21.91881 -4.121751,-9.11377 -3.649254,-20.42157 0.803707,-29.26466 7.952107,-8.51704 12.940553,-20.12353 22.93539,-26.46745 10.071946,-4.74028 16.553602,-14.8135 26.074922,-20.64421 7.5006,-6.63019 13.62888,-14.88763 20.92542,-21.57001 11.06451,2.92196 16.50007,15.04555 25.65395,19.11887 3.48088,8.75615 7.18767,18.29348 13.70449,25.84165 8.17507,8.69343 17.27418,16.87396 18.76388,29.67405 4.45798,12.14961 -5.32474,22.86957 -13.65059,30.38558 -8.5552,7.27534 -20.80801,6.49045 -30.13082,12.84392 -6.40995,2.26771 -20.8156,1.66618 -13.91565,12.29948 2.4578,2.61935 2.98101,8.89748 6.922,8.88918 23.80534,-0.57103 47.64436,-2.92949 71.44051,-1.42404 14.75725,-0.68658 10.97903,14.7311 8.67903,23.93605 -3.60569,24.97538 -1.60367,50.57575 -6.95845,75.29297 -3.52342,3.6904 -4.42924,8.1219 -6.7291,11.6891 -3.84765,0.6939 -8.10489,-1.1692 -10.25476,-4.4243 z M 107.07257,864.82949 c 2.77738,-13.02903 -18.869506,-11.83117 -23.630235,-4.69214 1.606918,8.32807 18.871125,16.45526 23.343355,11.29181 0.22259,-2.19209 0.28134,-4.39756 0.28688,-6.59967 z m 50.73859,0.65426 c 6.26623,-1.24814 11.26963,-9.96171 1.54706,-9.67834 -8.48599,-1.3883 -26.67703,-2.14744 -19.69873,11.4606 5.06161,4.94043 12.91086,0.57485 18.15167,-1.78226 z m 3.95106,-27.32195 c -2.88607,-6.5282 -12.21622,-25.43456 -19.6159,-14.03236 -5.98546,11.37759 5.97678,21.51134 16.87738,16.23067 0.84465,-0.42182 2.66055,-0.87841 2.73852,-2.19831 z m -49.24799,-2.96876 c 5.91307,-6.42169 0.0999,-17.78111 -7.69689,-10.02402 -5.997768,2.57314 -21.157678,15.12825 -5.590181,13.77685 4.492961,-0.41925 9.795951,-0.49125 13.287071,-3.75283 z"
       id="path3061"
       inkscape:connector-curvature="0" />
  </g>
</svg>
