<?xml version="1.0" encoding="UTF-8" standalone="no"?>
<!-- Created with Inkscape (http://www.inkscape.org/) -->

<svg
   xmlns:dc="http://purl.org/dc/elements/1.1/"
   xmlns:cc="http://creativecommons.org/ns#"
   xmlns:rdf="http://www.w3.org/1999/02/22-rdf-syntax-ns#"
   xmlns:svg="http://www.w3.org/2000/svg"
   xmlns="http://www.w3.org/2000/svg"
   xmlns:sodipodi="http://sodipodi.sourceforge.net/DTD/sodipodi-0.dtd"
   xmlns:inkscape="http://www.inkscape.org/namespaces/inkscape"
   width="300"
   height="300"
   id="svg2"
   version="1.1"
   inkscape:version="0.48.2 r9819"
   sodipodi:docname="鬼-bronze.svg">
  <defs
     id="defs4" />
  <sodipodi:namedview
     id="base"
     pagecolor="#ffffff"
     bordercolor="#666666"
     borderopacity="1.0"
     inkscape:pageopacity="0.0"
     inkscape:pageshadow="2"
     inkscape:zoom="1.979899"
     inkscape:cx="202.69582"
     inkscape:cy="137.35013"
     inkscape:document-units="px"
     inkscape:current-layer="layer1"
     showgrid="false"
     inkscape:window-width="1280"
     inkscape:window-height="999"
     inkscape:window-x="0"
     inkscape:window-y="24"
     inkscape:window-maximized="1" />
  <metadata
     id="metadata7">
    <rdf:RDF>
      <cc:Work
         rdf:about="">
        <dc:format>image/svg+xml</dc:format>
        <dc:type
           rdf:resource="http://purl.org/dc/dcmitype/StillImage" />
        <dc:title></dc:title>
      </cc:Work>
    </rdf:RDF>
  </metadata>
  <g
     inkscape:label="Calque 1"
     inkscape:groupmode="layer"
     id="layer1"
     transform="translate(0,-752.36218)">
    <path
       style="fill:#000000"
       d="m 182.89492,1012.7818 c -1.15908,-2.0665 -3.54363,-12.3177 -5.29899,-22.78059 -1.88681,-11.24633 -5.47006,-19.02336 -8.76498,-19.02336 -3.06537,0 -16.02621,5.91447 -28.80187,13.14326 -19.73479,11.16645 -24.37186,12.59814 -30.83053,9.51888 -10.01234,-4.77351 -10.560792,-39.8881 -0.76268,-48.83033 3.76167,-3.43308 8.33193,-13.8513 10.15615,-23.15161 3.69099,-18.81757 10.97012,-36.84287 17.97137,-44.50246 6.57904,-7.19767 1.20384,-10.45389 -17.25671,-10.45389 -17.79821,0 -24.829906,-5.35976 -29.57934,-22.5462 -1.499235,-5.42518 -4.84895,-17.38165 -7.443816,-26.56995 -2.59486,-9.18829 -3.516143,-17.82305 -2.04729,-19.18835 1.468853,-1.3653 8.531547,-1.76351 15.694882,-0.88492 29.107234,3.57005 80.082584,4.31274 89.852254,1.30912 16.77575,-5.1576 23.85666,1.97355 25.61886,25.80064 0.85188,11.51843 0.49331,26.26975 -0.79682,32.78071 l -2.3457,11.83812 -22.6696,0.84412 c -22.00384,0.81933 -22.62271,1.09242 -21.07327,9.29894 0.87798,4.65016 5.9011,15.80237 11.16247,24.78271 10.6268,18.13823 9.23328,21.22234 -14.04726,31.08924 -24.16492,10.24171 -36.36445,20.59153 -34.60864,29.3612 l 1.55564,7.76991 23.44347,-13.57792 c 33.50292,-19.40414 39.58236,-17.61206 41.33615,12.1849 0.77495,13.16657 1.97023,28.25729 2.65616,33.53493 1.23664,9.5149 -8.85237,15.8613 -13.11991,8.2529 z m -31.01273,-88.00123 c 10.24216,-4.4664 10.59573,-9.14492 1.4074,-18.62303 -7.58651,-7.82576 -9.44699,-6.31382 -14.73876,11.97767 -3.25405,11.24792 -0.43986,12.65072 13.33136,6.64536 z m 40.47386,-73.38312 c 0,-3.37441 -5.11639,-6.34283 -13.79791,-8.00523 -15.53886,-2.97551 -15.64146,-2.94758 -20.14752,5.48318 -2.61264,4.8882 -0.99789,6.38525 7.97591,7.39455 18.75546,2.10946 25.96952,0.75593 25.96952,-4.8725 z m -52.39746,-2.30997 c -1.12247,-4.54025 -5.39919,-6.59437 -15.05898,-7.23288 -7.42021,-0.49047 -13.49129,0.35697 -13.49129,1.88321 0,7.14419 7.0146,11.69079 18.03682,11.69079 9.72248,0 11.77507,-1.23801 10.51345,-6.34112 z m 47.49154,-26.11907 c 0,-6.97188 -2.10984,-8.17354 -15.94425,-9.08109 -14.34986,-0.94135 -15.94425,-0.31665 -15.94425,6.24712 0,4.93208 3.57342,8.11492 11.03833,9.83183 16.01277,3.68289 20.85017,2.05933 20.85017,-6.99786 z m -56.41812,-2.76824 c 0,-5.50235 -2.50747,-7.04569 -11.44715,-7.04569 -14.53521,0 -17.5367,1.79262 -14.42966,8.61802 1.58762,3.48761 6.73368,5.47336 14.18419,5.47336 9.20152,0 11.69262,-1.50109 11.69262,-7.04569 z"
       id="path3094"
       inkscape:connector-curvature="0" />
  </g>
</svg>
