<?xml version="1.0" encoding="UTF-8" standalone="no"?>
<!-- Created with Inkscape (http://www.inkscape.org/) -->

<svg
   xmlns:dc="http://purl.org/dc/elements/1.1/"
   xmlns:cc="http://creativecommons.org/ns#"
   xmlns:rdf="http://www.w3.org/1999/02/22-rdf-syntax-ns#"
   xmlns:svg="http://www.w3.org/2000/svg"
   xmlns="http://www.w3.org/2000/svg"
   xmlns:sodipodi="http://sodipodi.sourceforge.net/DTD/sodipodi-0.dtd"
   xmlns:inkscape="http://www.inkscape.org/namespaces/inkscape"
   width="300"
   height="300"
   id="svg2"
   version="1.1"
   inkscape:version="0.47 r22583"
   sodipodi:docname="魚-oracle.svg">
  <defs
     id="defs4">
    <inkscape:perspective
       sodipodi:type="inkscape:persp3d"
       inkscape:vp_x="0 : 526.18109 : 1"
       inkscape:vp_y="0 : 1000 : 0"
       inkscape:vp_z="744.09448 : 526.18109 : 1"
       inkscape:persp3d-origin="372.04724 : 350.78739 : 1"
       id="perspective10" />
    <inkscape:perspective
       id="perspective2824"
       inkscape:persp3d-origin="0.5 : 0.33333333 : 1"
       inkscape:vp_z="1 : 0.5 : 1"
       inkscape:vp_y="0 : 1000 : 0"
       inkscape:vp_x="0 : 0.5 : 1"
       sodipodi:type="inkscape:persp3d" />
    <inkscape:perspective
       id="perspective2841"
       inkscape:persp3d-origin="0.5 : 0.33333333 : 1"
       inkscape:vp_z="1 : 0.5 : 1"
       inkscape:vp_y="0 : 1000 : 0"
       inkscape:vp_x="0 : 0.5 : 1"
       sodipodi:type="inkscape:persp3d" />
    <inkscape:perspective
       id="perspective2855"
       inkscape:persp3d-origin="0.5 : 0.33333333 : 1"
       inkscape:vp_z="1 : 0.5 : 1"
       inkscape:vp_y="0 : 1000 : 0"
       inkscape:vp_x="0 : 0.5 : 1"
       sodipodi:type="inkscape:persp3d" />
    <inkscape:perspective
       id="perspective2905"
       inkscape:persp3d-origin="0.5 : 0.33333333 : 1"
       inkscape:vp_z="1 : 0.5 : 1"
       inkscape:vp_y="0 : 1000 : 0"
       inkscape:vp_x="0 : 0.5 : 1"
       sodipodi:type="inkscape:persp3d" />
  </defs>
  <sodipodi:namedview
     id="base"
     pagecolor="#ffffff"
     bordercolor="#666666"
     borderopacity="1.0"
     inkscape:pageopacity="0.0"
     inkscape:pageshadow="2"
     inkscape:zoom="0.7"
     inkscape:cx="157.42227"
     inkscape:cy="-22.228591"
     inkscape:document-units="px"
     inkscape:current-layer="layer1"
     showgrid="false"
     inkscape:window-width="1280"
     inkscape:window-height="950"
     inkscape:window-x="0"
     inkscape:window-y="25"
     inkscape:window-maximized="1" />
  <metadata
     id="metadata7">
    <rdf:RDF>
      <cc:Work
         rdf:about="">
        <dc:format>image/svg+xml</dc:format>
        <dc:type
           rdf:resource="http://purl.org/dc/dcmitype/StillImage" />
        <dc:title></dc:title>
      </cc:Work>
    </rdf:RDF>
  </metadata>
  <g
     inkscape:label="Calque 1"
     inkscape:groupmode="layer"
     id="layer1"
     transform="translate(184.92857,250.28068)">
    <path
       style="fill:#000000"
       d="M -123.61688,17.566779 C -127.22063,5.642674 -109.8122,4.3682058 -102.11301,0.69235217 -84.573047,-8.4752865 -64.608095,-12.820187 -48.134541,-24.16148 c 8.477351,-8.240599 3.270994,-22.96922 -8.038422,-25.146992 -9.853459,-0.680652 -19.137828,-3.566696 -28.628893,-6.577096 -12.137035,-3.27286 -24.542044,-10.874266 -27.578144,-23.944838 -5.99937,-17.219084 -8.93789,-37.790564 1.1835,-54.089774 15.469133,-14.98444 38.501,-14.87228 58.589777,-14.396 12.991755,-2.72039 12.289233,-23.08205 26.641185,-23.45395 9.67928,-0.57902 19.4508298,-3.00938 28.8803778,-5.59006 9.3842882,-0.67163 20.0645582,-13.3729 7.1874112,-18.38896 -10.64977106,-2.78324 -21.729292,0.24965 -32.518913,-1.24222 -12.675978,2.09974 -16.904038,20.4307 -31.277527,18.57917 -17.660892,8.72045 -40.817693,5.57475 -55.001231,21.02762 -4.72867,5.53085 -18.84344,21.0003 -20.61269,5.87504 0.70154,-9.78876 9.96463,-16.54607 17.64977,-21.51012 9.19352,-6.14666 19.673342,-9.34984 30.395133,-11.61405 7.7833,-1.64825 27.686377,-9.01828 11.085171,-12.45182 -8.721164,-2.90485 -21.014407,-1.62514 -26.103386,-10.7716 -4.411188,-13.74564 15.064463,-6.34871 22.649251,-4.80525 15.592799,3.72532 31.844081,2.98749 47.776876,3.53993 18.2819592,0.37044 37.1051,-0.41916 54.855941,4.33896 11.15707,4.2535 19.51121,20.58804 9.546059,30.07493 -18.267595,13.93518 -44.5739688,6.63126 -62.756563,20.89152 13.958412,9.78881 31.8040691,2.23546 47.328867,5.83495 19.592992,1.36851 30.630382,23.58332 26.996228,41.35023 -2.047192,15.379417 0.109462,34.393079 -13.504941,45.139025 -15.327107,6.778351 -32.4598338,10.724511 -49.347599,9.937518 -10.509992,0.635438 -13.412149,13.724843 -7.474121,21.025205 4.691791,8.734607 15.0973,9.228981 23.245499,12.717006 22.378251,7.651965 46.010033,12.6041469 66.540121,24.8242209 C 76.751141,21.028999 56.209562,17.332602 49.049684,13.544985 23.296302,4.3259327 -1.6464474,-7.0516508 -27.615307,-15.678817 -57.805961,-4.7053814 -86.854726,9.699406 -117.83884,18.288976 c -1.99744,0.159591 -3.85152,-0.247313 -5.77804,-0.722197 z M -5.7294272,-66.098704 c 7.4058586,2.241485 23.9339882,-6.729561 8.9615428,-9.917824 -17.2351316,-8.669676 -39.1549466,-17.386712 -57.3591356,-6.381061 -7.665512,6.049649 -21.230053,1.983779 -26.950493,9.870348 9.293027,9.077992 24.711482,7.666133 36.938248,9.456595 12.892566,0.695156 25.741633,-0.755499 38.4098378,-3.028058 z M -67.429503,-87.485653 c 14.124261,-0.02583 21.078441,-16.272237 31.019556,-20.761287 12.506336,2.78991 20.695623,15.318738 33.8690264,16.2598 8.6576359,3.897047 19.4748936,7.575457 28.5912206,3.394027 5.564919,-11.040767 -10.264826,-16.657597 -18.1053441,-20.511577 -10.3878067,-4.25714 -20.8709849,-8.53779 -31.4880749,-12.05546 -13.123621,-1.38684 -24.055134,8.18422 -36.905895,8.86367 -11.72674,5.06209 -26.578414,0.52038 -36.84136,9.19085 -7.770146,8.183355 0.518591,23.742556 11.911463,21.138125 6.293532,-0.520233 12.272618,-2.882965 17.949408,-5.518148 z m -9.02473,-32.736177 c 8.959536,-2.99004 23.216477,-3.33157 26.21553,-13.943 -3.708308,-7.70611 -16.246299,-1.66949 -23.648321,-1.67531 -8.474234,2.29218 -19.474825,4.03527 -23.495269,12.89454 -1.741763,13.6381 14.314615,1.48383 20.92806,2.72377 z m 103.315956,-4.50726 c -4.444265,-12.71193 -19.8050243,-13.13128 -31.0615943,-13.74421 -7.5496747,-2.82876 -27.3070117,-0.79133 -16.5895087,10.33561 7.254409,7.86123 18.152473,4.01601 27.1309208,7.17545 6.1006662,1.01909 20.5254252,6.91887 20.5201822,-3.76685 z m 14.40452,106.015558 C 25.956264,-26.115421 8.775276,-29.776422 -5.16972,-39.868869 c 0.01442,-14.500674 17.636237,-5.507305 25.093855,-2.239572 10.115017,3.926148 19.87941,8.572943 30.538023,11.02631 8.746096,-0.392605 23.138312,14.767966 8.71477,17.20238 -6.247046,-0.230517 -12.113353,-2.73012 -17.910685,-4.833781 z M -121.0138,-21.163241 c 4.83445,-12.737936 20.43734,-13.57487 30.94485,-19.302271 6.094797,-7.193897 25.65645,-10.408246 25.713519,2.146245 -10.861482,8.635075 -26.035804,10.319548 -38.414679,16.611411 -5.53962,1.735982 -13.95095,7.565343 -18.24369,0.544615 z"
       id="path2911" />
  </g>
</svg>
