<?xml version="1.0" encoding="UTF-8" standalone="no"?>
<!-- Created with Inkscape (http://www.inkscape.org/) -->

<svg
   xmlns:dc="http://purl.org/dc/elements/1.1/"
   xmlns:cc="http://creativecommons.org/ns#"
   xmlns:rdf="http://www.w3.org/1999/02/22-rdf-syntax-ns#"
   xmlns:svg="http://www.w3.org/2000/svg"
   xmlns="http://www.w3.org/2000/svg"
   xmlns:sodipodi="http://sodipodi.sourceforge.net/DTD/sodipodi-0.dtd"
   xmlns:inkscape="http://www.inkscape.org/namespaces/inkscape"
   width="300"
   height="300"
   id="svg2"
   version="1.1"
   inkscape:version="0.47 r22583"
   sodipodi:docname="魚-seal.svg">
  <defs
     id="defs4">
    <inkscape:perspective
       sodipodi:type="inkscape:persp3d"
       inkscape:vp_x="0 : 526.18109 : 1"
       inkscape:vp_y="0 : 1000 : 0"
       inkscape:vp_z="744.09448 : 526.18109 : 1"
       inkscape:persp3d-origin="372.04724 : 350.78739 : 1"
       id="perspective10" />
    <inkscape:perspective
       id="perspective2824"
       inkscape:persp3d-origin="0.5 : 0.33333333 : 1"
       inkscape:vp_z="1 : 0.5 : 1"
       inkscape:vp_y="0 : 1000 : 0"
       inkscape:vp_x="0 : 0.5 : 1"
       sodipodi:type="inkscape:persp3d" />
    <inkscape:perspective
       id="perspective2841"
       inkscape:persp3d-origin="0.5 : 0.33333333 : 1"
       inkscape:vp_z="1 : 0.5 : 1"
       inkscape:vp_y="0 : 1000 : 0"
       inkscape:vp_x="0 : 0.5 : 1"
       sodipodi:type="inkscape:persp3d" />
    <inkscape:perspective
       id="perspective2855"
       inkscape:persp3d-origin="0.5 : 0.33333333 : 1"
       inkscape:vp_z="1 : 0.5 : 1"
       inkscape:vp_y="0 : 1000 : 0"
       inkscape:vp_x="0 : 0.5 : 1"
       sodipodi:type="inkscape:persp3d" />
    <inkscape:perspective
       id="perspective2905"
       inkscape:persp3d-origin="0.5 : 0.33333333 : 1"
       inkscape:vp_z="1 : 0.5 : 1"
       inkscape:vp_y="0 : 1000 : 0"
       inkscape:vp_x="0 : 0.5 : 1"
       sodipodi:type="inkscape:persp3d" />
    <inkscape:perspective
       id="perspective2945"
       inkscape:persp3d-origin="0.5 : 0.33333333 : 1"
       inkscape:vp_z="1 : 0.5 : 1"
       inkscape:vp_y="0 : 1000 : 0"
       inkscape:vp_x="0 : 0.5 : 1"
       sodipodi:type="inkscape:persp3d" />
  </defs>
  <sodipodi:namedview
     id="base"
     pagecolor="#ffffff"
     bordercolor="#666666"
     borderopacity="1.0"
     inkscape:pageopacity="0.0"
     inkscape:pageshadow="2"
     inkscape:zoom="0.7"
     inkscape:cx="157.42227"
     inkscape:cy="-22.228591"
     inkscape:document-units="px"
     inkscape:current-layer="layer1"
     showgrid="false"
     inkscape:window-width="1280"
     inkscape:window-height="950"
     inkscape:window-x="0"
     inkscape:window-y="25"
     inkscape:window-maximized="1" />
  <metadata
     id="metadata7">
    <rdf:RDF>
      <cc:Work
         rdf:about="">
        <dc:format>image/svg+xml</dc:format>
        <dc:type
           rdf:resource="http://purl.org/dc/dcmitype/StillImage" />
        <dc:title></dc:title>
      </cc:Work>
    </rdf:RDF>
  </metadata>
  <g
     inkscape:label="Calque 1"
     inkscape:groupmode="layer"
     id="layer1"
     transform="translate(184.92857,250.28068)">
    <path
       style="fill:#000000"
       d="m -130.82098,16.867708 c -9.66259,-12.9857445 11.96989,-16.4158117 11.47101,-29.411342 7.52218,-23.80984 5.97437,-48.810154 7.09309,-73.294685 0.0284,-20.153291 17.857564,-35.487061 36.40712,-43.040401 18.865692,-7.91938 42.164812,-10.86115 55.053859,-27.57494 9.59951,-12.17052 -10.023758,-21.06026 -20.398579,-14.44767 -16.126949,6.01278 -28.797154,18.14024 -45.722523,22.64067 -12.184263,3.68347 -25.088557,7.46671 -38.018117,5.85421 -11.89127,-6.96364 8.97236,-12.30786 15.89666,-12.66316 16.824473,-2.44039 31.462047,-11.7304 45.116071,-20.67175 13.694016,-6.6115 1.188934,-17.97069 -4.577963,-25.13121 -7.061701,-6.72002 1.317417,-18.75288 8.391396,-8.85835 10.213688,9.79385 22.799736,17.95276 37.509452,20.24045 12.244364,4.285 25.9878715,10.34462 31.6079954,22.02882 -0.4685611,12.39667 -14.4384752,22.05769 -26.8455784,23.82148 -1.462233,8.10092 18.00993862,5.92028 24.6519957,8.51068 14.7614553,3.13588 29.3231863,10.8407 37.8151233,22.67198 6.055423,15.699389 4.818082,32.850359 7.812839,49.155966 2.807982,20.044116 7.273086,40.353565 18.417105,57.9600253 C 78.195504,4.6790812 61.977688,16.000417 54.590083,5.4246283 44.072473,-9.8381478 42.126322,-28.54809 38.516255,-45.986025 34.702676,-64.764074 34.521551,-84.361512 27.758501,-102.51927 19.983977,-114.6209 5.4271729,-122.44085 -9.2076703,-125.32162 c -10.5171317,-4.53352 -26.1905097,6.20233 -12.9291307,14.44869 11.385203,6.69882 24.1209835,11.53557 34.54116,19.709238 1.79249,1.701721 10.536628,6.100781 3.812523,4.497942 -16.21211858,-1.581604 -31.880896,-5.964658 -46.979153,-11.558018 -11.723487,-2.770862 -21.927054,5.659384 -32.35528,9.213866 -4.137808,2.778206 -22.327266,9.01055 -14.760673,-0.156698 11.615571,-7.92289 28.045478,-12.29924 33.073824,-26.31187 1.713917,-13.17253 -17.889888,-8.58196 -26.064546,-6.77877 -12.655203,1.56683 -15.943357,14.6426 -18.429913,24.303558 -7.802387,30.442986 -2.786206,63.296732 -17.502521,92.2075329 -4.88497,8.245253 -10.66481,27.1154931 -24.0196,22.6138571 z m 54.566119,1.178867 c 10.964245,-12.146414 28.20686,-19.3574297 35.465111,-34.2463 4.644276,-10.712516 1.936641,-23.765672 9.353823,-33.349362 11.060455,3.927133 8.685769,20.688728 15.349224,29.215191 C -9.7083716,-6.9527157 6.3862999,-0.68211999 13.316378,12.140422 8.9459284,21.807535 -5.4599665,11.541046 -11.382494,7.1273987 -16.929211,2.3575883 -22.000697,-2.8681179 -27.324961,-7.8509959 -40.254229,1.6333912 -51.989143,13.190923 -67.526625,18.953173 c -2.744646,0.365352 -6.377885,0.604307 -8.728236,-0.906598 z m -2.862296,-34.583058 c 8.159046,-9.219024 14.344785,-19.716325 20.667547,-30.057116 1.697058,8.118604 3.293294,17.063874 -2.644369,24.192496 -4.01911,6.703044 -16.218728,15.6072156 -22.570293,11.348966 1.251595,-2.004467 2.984997,-3.694194 4.547115,-5.484346 z m 80.5147799,-8.013941 c -6.1605596,-6.743353 -11.5930939,-17.188704 -6.2414394,-25.642256 9.5698511,-1.382609 10.6064764,14.596533 19.3495565,18.60918 12.613516,5.463198 8.912348,21.360889 -5.0744173,13.20231 -3.0155481,-1.633908 -5.6624642,-3.800666 -8.0336998,-6.169234 z M -62.004886,-69.012462 c 12.670145,-9.486922 29.436844,-18.041118 46.015898,-12.36264 11.6695519,3.299758 22.3065132,9.793949 34.629539,11.016569 4.912457,11.128935 -17.0741686,6.014462 -24.2129638,4.38175 -11.8381302,-2.829615 -24.7477022,-6.728061 -36.3790882,-0.905533 -11.492727,3.823252 -22.412564,10.728035 -34.699432,11.544126 0.97239,-5.714316 10.24221,-9.693833 14.646047,-13.674272 z"
       id="path2951" />
  </g>
</svg>
