<?xml version="1.0" encoding="UTF-8" standalone="no"?>
<!-- Created with Inkscape (http://www.inkscape.org/) -->

<svg
   xmlns:dc="http://purl.org/dc/elements/1.1/"
   xmlns:cc="http://creativecommons.org/ns#"
   xmlns:rdf="http://www.w3.org/1999/02/22-rdf-syntax-ns#"
   xmlns:svg="http://www.w3.org/2000/svg"
   xmlns="http://www.w3.org/2000/svg"
   xmlns:sodipodi="http://sodipodi.sourceforge.net/DTD/sodipodi-0.dtd"
   xmlns:inkscape="http://www.inkscape.org/namespaces/inkscape"
   width="300"
   height="300"
   id="svg2"
   version="1.1"
   inkscape:version="0.47 r22583"
   sodipodi:docname="魚-bigseal.svg">
  <defs
     id="defs4">
    <inkscape:perspective
       sodipodi:type="inkscape:persp3d"
       inkscape:vp_x="0 : 526.18109 : 1"
       inkscape:vp_y="0 : 1000 : 0"
       inkscape:vp_z="744.09448 : 526.18109 : 1"
       inkscape:persp3d-origin="372.04724 : 350.78739 : 1"
       id="perspective10" />
    <inkscape:perspective
       id="perspective2824"
       inkscape:persp3d-origin="0.5 : 0.33333333 : 1"
       inkscape:vp_z="1 : 0.5 : 1"
       inkscape:vp_y="0 : 1000 : 0"
       inkscape:vp_x="0 : 0.5 : 1"
       sodipodi:type="inkscape:persp3d" />
    <inkscape:perspective
       id="perspective2841"
       inkscape:persp3d-origin="0.5 : 0.33333333 : 1"
       inkscape:vp_z="1 : 0.5 : 1"
       inkscape:vp_y="0 : 1000 : 0"
       inkscape:vp_x="0 : 0.5 : 1"
       sodipodi:type="inkscape:persp3d" />
    <inkscape:perspective
       id="perspective2855"
       inkscape:persp3d-origin="0.5 : 0.33333333 : 1"
       inkscape:vp_z="1 : 0.5 : 1"
       inkscape:vp_y="0 : 1000 : 0"
       inkscape:vp_x="0 : 0.5 : 1"
       sodipodi:type="inkscape:persp3d" />
    <inkscape:perspective
       id="perspective2905"
       inkscape:persp3d-origin="0.5 : 0.33333333 : 1"
       inkscape:vp_z="1 : 0.5 : 1"
       inkscape:vp_y="0 : 1000 : 0"
       inkscape:vp_x="0 : 0.5 : 1"
       sodipodi:type="inkscape:persp3d" />
    <inkscape:perspective
       id="perspective2945"
       inkscape:persp3d-origin="0.5 : 0.33333333 : 1"
       inkscape:vp_z="1 : 0.5 : 1"
       inkscape:vp_y="0 : 1000 : 0"
       inkscape:vp_x="0 : 0.5 : 1"
       sodipodi:type="inkscape:persp3d" />
    <inkscape:perspective
       id="perspective2987"
       inkscape:persp3d-origin="0.5 : 0.33333333 : 1"
       inkscape:vp_z="1 : 0.5 : 1"
       inkscape:vp_y="0 : 1000 : 0"
       inkscape:vp_x="0 : 0.5 : 1"
       sodipodi:type="inkscape:persp3d" />
  </defs>
  <sodipodi:namedview
     id="base"
     pagecolor="#ffffff"
     bordercolor="#666666"
     borderopacity="1.0"
     inkscape:pageopacity="0.0"
     inkscape:pageshadow="2"
     inkscape:zoom="0.7"
     inkscape:cx="157.42227"
     inkscape:cy="-22.228591"
     inkscape:document-units="px"
     inkscape:current-layer="layer1"
     showgrid="false"
     inkscape:window-width="1280"
     inkscape:window-height="950"
     inkscape:window-x="0"
     inkscape:window-y="25"
     inkscape:window-maximized="1" />
  <metadata
     id="metadata7">
    <rdf:RDF>
      <cc:Work
         rdf:about="">
        <dc:format>image/svg+xml</dc:format>
        <dc:type
           rdf:resource="http://purl.org/dc/dcmitype/StillImage" />
        <dc:title></dc:title>
      </cc:Work>
    </rdf:RDF>
  </metadata>
  <g
     inkscape:label="Calque 1"
     inkscape:groupmode="layer"
     id="layer1"
     transform="translate(184.92857,250.28068)">
    <path
       style="fill:#000000"
       d="M 17.09572,24.522864 C 6.0026093,18.875913 -5.1335334,13.28302 -16.004382,7.0039022 -27.038653,2.7956246 -38.800902,-10.534743 -49.848754,1.2120409 -61.448375,7.005536 -70.836521,16.231119 -81.916128,22.593903 c -16.162758,-0.01481 8.586314,-11.14488 6.738618,-19.6040657 1.692786,-15.4041873 1.909122,-31.0273013 0.759614,-46.4796223 -8.381026,-5.969334 -25.107479,3.671785 -33.629174,10.013152 -3.63651,6.558787 -11.69301,17.87233 -16.51038,5.149592 -3.87951,-13.929558 -5.05543,-32.050022 7.04741,-42.468329 7.9229,-8.47416 19.821229,-12.823877 26.307071,-22.559301 2.760465,-12.305929 -8.595971,-23.490459 -20.429601,-15.505379 -12.55948,0.83859 -17.24234,16.151612 -28.0717,17.654116 -5.21815,-9.420586 -1.08181,-21.603096 -0.91487,-32.053016 3.40681,-14.81584 20.00396,-20.29693 32.94502,-24.09516 11.691509,-3.87042 12.077985,-17.4011 13.096431,-27.55252 0.874509,-11.19532 11.13878,-16.87307 14.248786,-2.69949 3.439797,10.21138 14.012144,15.08933 24.250932,14.65201 10.140622,-0.8321 20.277344,-3.13859 29.855903,-6.72861 13.585692,-7.23841 7.664058,-26.41089 -6.024995,-29.11388 -14.609549,-6.11488 -29.554073,-12.9916 -45.58886,-13.75357 -9.133905,1.30988 -18.25476,-11.52621 -4.010228,-10.31809 11.783827,-2.66528 21.029599,5.46809 32.125567,6.89836 10.392084,3.74615 20.922026,8.29342 31.022089,13.26339 14.4934818,7.87161 27.5949184,19.36565 44.526736,21.63327 14.580954,4.0155 29.383209,7.89878 43.102834,14.33049 9.772192,8.44372 8.85469,22.99116 10.807025,34.72413 0.730633,10.37156 2.756133,24.47217 -4.254859,31.44469 8.569199,8.266221 4.133705,23.342078 4.314943,34.348602 -0.968022,7.236577 -2.038956,18.954214 -8.769362,21.738099 0.367299,-14.992593 -14.677569,-18.417466 -26.376792,-21.071727 -11.257928,-7.009817 -21.026917,0.723287 -23.591366,12.432168 -5.122741,12.71098 -8.413172,26.648012 -4.97969,40.249675 2.124563,11.97334349 2.36548,25.237966 9.816013,35.366352 8.89535,3.644638 2.819429,9.581191 -3.943302,4.73049 -1.696902,-0.748501 -3.324884,-1.653204 -4.857965,-2.696865 z M 3.9449517,-0.54726639 C 0.37955497,-10.815045 -2.9053901,-21.898957 2.1457483,-32.322711 c 3.2154648,-8.139981 7.525516,-22.681079 -6.8124245,-18.778717 -11.0632168,-0.654782 -28.0781208,1.235811 -23.1712688,16.583722 -4.209351,11.25728 -0.446819,22.184529 11.423293,26.6223949 6.188083,2.4231293 15.73556719,12.4686527 21.0201722,8.71296084 l -0.6605685,-1.36491613 0,0 z M -47.157973,-16.404274 c 6.365436,-8.53842 9.581508,-18.87337 9.826864,-29.445158 -8.281605,0.464898 -17.007749,-1.192147 -24.918237,1.431385 1.213457,12.029448 4.526854,24.624999 2.709444,36.9292569 -3.358973,12.183542 11.625696,-7.2886689 12.381929,-8.9154839 z m -55.517157,-34.287493 c 11.66781,-4.683257 30.917069,-10.037332 19.406153,-26.207896 -8.407908,-2.076112 -19.105983,8.789421 -24.026143,15.887585 -6.83209,1.78057 -3.92938,18.569296 4.61999,10.320311 z m 63.408587,-5.39752 c 5.051678,-6.139635 2.662115,-14.900692 3.225727,-22.307332 -10.96458,-0.09114 -22.237574,0.703097 -32.739346,-3.053508 -5.780458,4.527147 3.380159,19.710898 7.542302,26.267991 7.044882,1.803143 15.08514,1.461664 21.971317,-0.907151 z m 42.4478984,-4.014828 c 12.1811976,-1.988974 9.1593566,-19.530566 13.0353046,-28.472528 -7.8836899,-1.406109 -18.5601624,7.400701 -28.125569,8.39751 -10.759535,-0.716947 -16.534868,19.658633 -8.138126,22.535622 7.786329,-0.272534 15.5079833,-1.487911 23.2283904,-2.460604 z M 67.588788,-77.667379 c 2.058005,-10.978254 -2.711271,-22.591681 -15.284982,-22.490661 -9.48498,-6.50191 -21.442115,-3.23327 -20.032294,9.744612 -5.519118,12.27709 8.33793,15.959522 16.328331,18.915218 7.894713,-2.197197 19.167422,9.963672 18.814588,-4.508981 l 0.174357,-1.660188 0,0 z M -37.082733,-95.549868 c -1.559597,-7.302692 -0.301051,-17.088962 -2.211119,-23.310822 -12.650109,-0.46634 -25.684978,1.40311 -37.977396,-2.12972 -13.388038,-8.18622 -4.131406,14.58519 -1.783826,20.80778 3.694328,12.917021 18.126068,15.44514 29.678219,14.748781 4.472549,0 8.945099,0 13.417648,0 -0.374509,-3.372006 -0.749017,-6.744013 -1.123526,-10.116019 z m 28.6541488,6.597404 c 8.40860799,-3.776645 22.9149402,-4.090252 26.1466512,-15.086026 -0.198434,-9.96761 2.581004,-23.39942 -2.436752,-31.2788 -11.4340739,3.5277 -21.9767901,9.91984 -33.980549,11.86382 -8.704897,7.12494 -2.677227,22.47745 -3.422486,32.804838 0.34877,9.977308 8.555453,-0.399541 13.6931358,1.696168 z M 65.569612,-112.04337 c 7.095001,-13.3036 -5.243551,-20.80912 -16.451212,-20.89178 -4.767309,-1.42116 -12.713749,-5.36986 -17.014069,-3.95948 -0.385224,9.4995 -0.750745,24.79213 11.852904,24.70735 5.657336,1.60737 19.970787,10.74331 21.612377,0.14391 z m -181.608482,-5.05801 c 10.085,-2.38165 19.996072,-5.71073 14.83127,-18.62537 -6.94073,-8.24856 -22.1377,10.085 -24.58053,18.35601 -1.41727,7.09704 7.21168,1.34933 9.74926,0.26936 z m 72.256306,-20.89627 c 2.680467,-16.41283 -17.000378,-14.99415 -27.816249,-16.62356 -5.79338,-0.64746 -16.172233,-3.73574 -12.973611,5.63137 -7.454241,6.65292 -4.203652,15.28332 5.149167,16.44779 6.898294,7.28797 17.879961,4.22131 26.903678,4.88483 3.744593,-0.51267 10.600195,2.08568 8.737015,-4.03476 0,-2.10189 0,-4.20378 0,-6.30567 z m 30.783774,4.62267 c 9.7680784,-3.69232 31.405287,-7.13989 24.263713,-21.74666 -3.5928346,-5.24705 -6.6980735,-25.04581 -14.3808305,-19.41183 -5.2494776,11.36041 -21.8275005,13.15666 -24.9643105,25.50994 -2.091904,9.15621 0.174613,22.73718 12.467537,16.26481 l 2.613891,-0.61626 0,0 z m 80.181266,-5.65626 c -5.127859,-10.53189 -8.781786,-24.66494 -20.333314,-29.70144 -8.988947,-2.14577 -30.323068,-4.32789 -21.556751,10.8007 3.90413,11.04108 17.25736,15.08411 27.535674,16.33912 4.850056,-0.0691 9.659851,5.79918 14.354391,2.56162 z m -122.244918,-42.30935 c -12.284748,-9.77616 17.074009,-13.71085 20.422977,-4.44251 1.609996,7.95059 -16.463442,6.96816 -20.422977,4.44251 z"
       id="path2993" />
  </g>
</svg>
