<?xml version="1.0" encoding="UTF-8" standalone="no"?>
<!-- Created with Inkscape (http://www.inkscape.org/) -->

<svg
   xmlns:dc="http://purl.org/dc/elements/1.1/"
   xmlns:cc="http://creativecommons.org/ns#"
   xmlns:rdf="http://www.w3.org/1999/02/22-rdf-syntax-ns#"
   xmlns:svg="http://www.w3.org/2000/svg"
   xmlns="http://www.w3.org/2000/svg"
   xmlns:sodipodi="http://sodipodi.sourceforge.net/DTD/sodipodi-0.dtd"
   xmlns:inkscape="http://www.inkscape.org/namespaces/inkscape"
   width="300"
   height="300"
   id="svg2"
   version="1.1"
   inkscape:version="0.47 r22583"
   sodipodi:docname="Nouveau document 1">
  <defs
     id="defs4">
    <inkscape:perspective
       sodipodi:type="inkscape:persp3d"
       inkscape:vp_x="0 : 526.18109 : 1"
       inkscape:vp_y="0 : 1000 : 0"
       inkscape:vp_z="744.09448 : 526.18109 : 1"
       inkscape:persp3d-origin="372.04724 : 350.78739 : 1"
       id="perspective10" />
    <inkscape:perspective
       id="perspective2824"
       inkscape:persp3d-origin="0.5 : 0.33333333 : 1"
       inkscape:vp_z="1 : 0.5 : 1"
       inkscape:vp_y="0 : 1000 : 0"
       inkscape:vp_x="0 : 0.5 : 1"
       sodipodi:type="inkscape:persp3d" />
    <inkscape:perspective
       id="perspective2841"
       inkscape:persp3d-origin="0.5 : 0.33333333 : 1"
       inkscape:vp_z="1 : 0.5 : 1"
       inkscape:vp_y="0 : 1000 : 0"
       inkscape:vp_x="0 : 0.5 : 1"
       sodipodi:type="inkscape:persp3d" />
    <inkscape:perspective
       id="perspective2855"
       inkscape:persp3d-origin="0.5 : 0.33333333 : 1"
       inkscape:vp_z="1 : 0.5 : 1"
       inkscape:vp_y="0 : 1000 : 0"
       inkscape:vp_x="0 : 0.5 : 1"
       sodipodi:type="inkscape:persp3d" />
  </defs>
  <sodipodi:namedview
     id="base"
     pagecolor="#ffffff"
     bordercolor="#666666"
     borderopacity="1.0"
     inkscape:pageopacity="0.0"
     inkscape:pageshadow="2"
     inkscape:zoom="0.7"
     inkscape:cx="157.42227"
     inkscape:cy="-22.228591"
     inkscape:document-units="px"
     inkscape:current-layer="layer1"
     showgrid="false"
     inkscape:window-width="1280"
     inkscape:window-height="950"
     inkscape:window-x="0"
     inkscape:window-y="25"
     inkscape:window-maximized="1" />
  <metadata
     id="metadata7">
    <rdf:RDF>
      <cc:Work
         rdf:about="">
        <dc:format>image/svg+xml</dc:format>
        <dc:type
           rdf:resource="http://purl.org/dc/dcmitype/StillImage" />
        <dc:title></dc:title>
      </cc:Work>
    </rdf:RDF>
  </metadata>
  <g
     inkscape:label="Calque 1"
     inkscape:groupmode="layer"
     id="layer1"
     transform="translate(184.92857,250.28068)">
    <path
       style="fill:#000000"
       d="m -124.41309,4.4935373 c 5.90792,-13.0852096 12.2543,-26.0421423 17.666,-39.3051453 5.64139,-24.992313 7.073917,-50.905761 6.06576,-76.462302 0.993804,-7.62001 -3.57528,-15.21193 -11.01836,-8.51817 -11.91035,4.07378 -16.54575,15.26593 -24.23076,24.044201 -3.77067,8.565271 -12.91292,9.314604 -10.6091,-2.176305 0.0189,-16.317966 1.845,-33.072696 8.05439,-48.265046 7.61254,-10.97374 21.3558,-14.93778 32.42059,-21.53321 15.559933,-7.27775 25.011887,-22.30708 37.721626,-33.16609 7.450353,-5.11611 12.831871,-15.3243 23.730855,-16.46338 11.976537,1.22561 22.008376,9.52065 32.088615,15.54796 12.61971484,8.28549 24.088996,19.384 30.283324,33.31168 -0.127375,8.34141 -2.018313,17.59089 8.625564,20.65557 12.37836,7.90438 28.377867,16.41539 29.843426,32.74883 0.485084,11.42816 -1.41026,23.085243 -5.005916,33.910094 -12.816996,7.762623 -11.264914,-15.951594 -20.075359,-20.669894 -5.090509,-5.36706 -12.277382,-7.45335 -18.998311,-9.93019 -0.48751,8.32497 1.492453,17.318125 -2.4453984,24.987571 -10.37690752,3.420683 8.2357994,7.675293 6.4394894,15.67279 3.931242,15.934003 8.337334,31.87214 16.164364,46.428381 3.98021,9.483856 9.530181,20.1020574 6.455299,30.5133058 C 28.684048,10.803392 22.807912,-5.3708061 14.314126,-9.446078 -6.0763129,-21.789261 -25.749277,-36.320192 -40.446059,-55.303349 c -8.712686,-10.82703 10.412312,-11.705081 14.185273,-3.324447 7.624658,5.860156 15.783678,15.001569 25.98919751,14.454702 1.62097559,-9.37587 -8.37458691,-16.645762 -15.94138851,-20.69431 -10.148203,-5.639093 -20.13819,-12.121425 -31.282309,-15.559485 -11.19255,1.947601 -21.54757,6.953226 -32.26495,10.543952 -2.071454,5.239538 -6.648362,20.609563 -0.559789,21.601998 11.687116,-6.946585 20.564739,-19.149767 34.373888,-22.21883 4.401654,5.722903 -9.518335,14.990071 -12.684592,21.32703 -8.029384,11.574056 -22.379267,15.951556 -31.219944,26.781722 -6.597011,8.258587 -12.983677,16.8823274 -22.048847,22.69574791 -2.21156,1.09555989 -13.80951,10.80134809 -12.51357,4.18880639 z m 60.600639,-97.4472443 c -4.195971,-6.004862 -11.228123,-9.197783 -16.994691,-13.528313 0.395485,6.18425 -2.089018,14.198142 3.508523,18.457072 4.480975,0.885247 10.766537,-1.272727 13.486168,-4.928759 z m 47.106335,-4.24941 c -6.416458,-1.239771 -14.886171,6.024874 -4.419646,8.226795 5.358445,4.220928 6.429118,-5.672108 4.419646,-8.226795 z m -18.55615,-7.831393 c 7.584617,-7.43078 -10.695578,-13.08822 -14.956694,-18.52004 -8.768879,-5.34486 -16.702579,-17.40289 -28.382617,-12.25844 -14.408126,7.02531 6.381907,16.07282 13.147544,20.30387 8.733884,4.02006 15.847537,15.787313 26.406155,12.57534 1.316292,-0.59705 2.557775,-1.34269 3.785612,-2.10073 z m 64.60638,-21.34934 c -3.651383,-4.78235 -19.30783,-18.63859 -17.119832,-3.81218 3.029991,7.96529 15.481264,7.12736 22.239154,12.37874 2.029344,-2.24057 -4.020783,-6.59466 -5.119322,-8.56656 z M -8.8055258,-141.7047 c -0.3006335,-6.41012 2.1662967,-20.75979 -8.5824972,-14.29717 -9.217472,3.04127 -19.507847,4.48306 -27.719641,9.51469 3.057511,8.56922 12.48169,13.52452 19.683858,18.6456 6.648445,5.85576 15.177726,12.57071 15.5754388,-1.48392 0.6523863,-4.09308 0.9710873,-8.23644 1.0428414,-12.3792 z m -96.4669442,-1.82534 c -0.98855,-18.56414 -22.17491,-3.33323 -20.51718,8.34532 0.50256,3.01491 -2.18974,12.45637 3.01335,7.53944 6.45464,-4.31009 15.78495,-7.48547 17.50383,-15.88476 z m 27.616202,-10.71972 c 0.65136,-9.20294 -10.782293,-10.56297 -10.253229,-0.47069 -0.586133,6.14447 10.278214,6.54727 10.253229,0.47069 z m 34.573112,-7.04129 c 10.702099,-4.6364 23.483209,-3.19932 33.6246002,-9.39515 -2.3499682,-10.97719 -12.9887342,-18.14127 -22.1132292,-23.47708 -3.52564,-1.7522 -6.473364,-8.32113 -10.087485,-7.77373 -10.401033,7.1032 -21.733535,14.14804 -27.963804,25.43739 1.945415,8.97942 11.669672,20.64678 22.243463,17.01902 1.311002,-0.62348 3.377896,-0.4204 4.296455,-1.81045 z"
       id="path2869" />
  </g>
</svg>
