<?xml version="1.0" encoding="UTF-8" standalone="no"?>
<!-- Created with Inkscape (http://www.inkscape.org/) -->

<svg
   xmlns:dc="http://purl.org/dc/elements/1.1/"
   xmlns:cc="http://creativecommons.org/ns#"
   xmlns:rdf="http://www.w3.org/1999/02/22-rdf-syntax-ns#"
   xmlns:svg="http://www.w3.org/2000/svg"
   xmlns="http://www.w3.org/2000/svg"
   xmlns:sodipodi="http://sodipodi.sourceforge.net/DTD/sodipodi-0.dtd"
   xmlns:inkscape="http://www.inkscape.org/namespaces/inkscape"
   width="300"
   height="300"
   id="svg2"
   version="1.1"
   inkscape:version="0.48.2 r9819"
   sodipodi:docname="垔-oracle.svg">
  <defs
     id="defs4" />
  <sodipodi:namedview
     id="base"
     pagecolor="#ffffff"
     bordercolor="#666666"
     borderopacity="1.0"
     inkscape:pageopacity="0.0"
     inkscape:pageshadow="2"
     inkscape:zoom="1.979899"
     inkscape:cx="232.82198"
     inkscape:cy="159.43695"
     inkscape:document-units="px"
     inkscape:current-layer="layer1"
     showgrid="false"
     inkscape:window-width="1280"
     inkscape:window-height="999"
     inkscape:window-x="0"
     inkscape:window-y="24"
     inkscape:window-maximized="1" />
  <metadata
     id="metadata7">
    <rdf:RDF>
      <cc:Work
         rdf:about="">
        <dc:format>image/svg+xml</dc:format>
        <dc:type
           rdf:resource="http://purl.org/dc/dcmitype/StillImage" />
        <dc:title></dc:title>
      </cc:Work>
    </rdf:RDF>
  </metadata>
  <g
     inkscape:label="Calque 1"
     inkscape:groupmode="layer"
     id="layer1"
     transform="translate(0,-752.36218)">
    <path
       style="fill:#000000"
       d="m 66.311604,1034.3798 c -3.342959,-2.0565 -5.211125,-6.2225 -4.151479,-9.2579 1.353803,-3.878 14.471603,-6.3564 44.120115,-8.3358 23.20642,-1.5493 42.9875,-3.6897 43.95794,-4.7564 0.97045,-1.0668 -0.17925,-6.6288 -2.55489,-12.36009 -3.91675,-9.44926 -6.45507,-10.42054 -27.23275,-10.42054 -17.15993,0 -23.476264,-1.61235 -25.155036,-6.42124 -3.224437,-9.23648 -1.3661,-10.14192 26.735906,-13.0265 22.6334,-2.32325 25.2132,-3.49563 24.19864,-10.99695 -0.90779,-6.71184 -5.97053,-9.47657 -25.23342,-13.77985 -43.16087,-9.64202 -49.662213,-20.89437 -49.699761,-86.01909 -0.0274,-47.52713 4.521189,-57.4874 30.457891,-66.69517 10.78158,-3.82756 22.47356,-6.95919 25.98218,-6.95919 8.32932,0 15.46469,-8.06384 15.46469,-17.47697 0,-11.91377 14.5448,-9.47518 17.37334,2.91283 2.13131,9.33441 4.28981,10.40296 21.01435,10.40296 23.58966,0 42.3769,8.5521 51.16132,23.28906 5.51154,9.2463 6.86784,20.12207 6.91919,55.48325 0.0566,38.98707 -0.94275,45.74889 -8.79896,59.53372 -8.80808,15.45503 -13.49533,18.02595 -49.81352,27.32232 -9.52724,2.43869 -13.58935,5.95269 -14.45919,12.50819 -1.13901,8.58411 0.23013,9.11671 23.43642,9.11671 39.2407,0 39.42285,14.45663 0.24992,19.83536 -20.6913,2.84107 -22.47665,3.91114 -22.47665,13.47159 0,10.1974 0.65055,10.4232 35.92397,12.4661 30.00759,1.7379 36.12767,3.2554 37.16085,9.214 0.81337,4.6909 -1.76564,7.8173 -7.53218,9.1308 -17.21373,3.9209 -161.085185,5.4874 -167.048886,1.8188 z M 187.6821,924.4317 c 4.68465,-1.05607 8.49604,-3.28885 8.46977,-4.96174 -0.0261,-1.67288 -9.46462,-12.1202 -20.97411,-23.21626 l -20.92634,-20.17465 -24.35847,20.17465 c -13.39717,11.09606 -24.40091,22.42597 -24.45276,25.17758 -0.14715,7.80781 52.41089,9.72528 82.24191,3.00042 z m -44.48047,-15.81619 c 0,-3.15275 2.64076,-8.14136 5.86835,-11.08581 4.83432,-4.41022 6.91434,-4.20375 11.80464,1.17177 3.26496,3.58892 4.78243,8.57753 3.37216,11.0858 -3.73052,6.63503 -21.04515,5.67098 -21.04515,-1.17176 z m 77.19921,-9.17222 c 3.02668,-8.67 2.97407,-74.51113 -0.0622,-77.84867 -3.86934,-4.25326 -50.63801,35.95665 -50.63801,43.53662 0,3.58114 41.93763,40.88721 45.96825,40.89154 1.33879,0.001 3.46817,-2.95933 4.73196,-6.57949 z m -25.88286,-30.49303 c -3.65172,-6.49487 2.3319,-17.49212 8.78274,-16.14172 3.38163,0.7079 6.69278,5.48115 7.3581,10.60724 0.90897,7.00322 -0.68237,9.32015 -6.40134,9.32015 -4.18606,0 -8.56883,-1.70355 -9.7395,-3.78567 z m -74.32713,13.14833 20.07241,-19.76562 -21.74111,-22.59833 C 98.03954,818.44444 96.481103,817.5872 91.599544,824.92553 c -5.311215,7.98422 -7.053861,50.10938 -2.795505,67.57602 3.31247,13.58687 8.908019,11.73226 31.386811,-10.40296 z m -22.021317,-13.1676 c -6.125904,-4.26377 -2.946008,-17.03137 4.218387,-16.93726 8.77898,0.11531 15.45941,7.29994 13.09235,14.08046 -2.57412,7.37363 -9.24059,8.47381 -17.310737,2.8568 z m 86.173377,-42.60044 c 17.8922,-15.70285 22.77256,-22.0625 18.93253,-24.67125 -5.87196,-3.98915 -76.07978,-2.13965 -82.4255,2.17135 -2.28102,1.54963 -4.14732,4.79585 -4.14732,7.21382 0,6.52683 31.26954,36.7468 37.85404,36.58346 3.12402,-0.0775 16.52783,-9.66132 29.78625,-21.29738 z m -35.2671,-0.77626 c -8.1043,-6.514 -4.96576,-15.23611 5.48253,-15.23611 9.76076,0 13.3837,7.87762 6.90046,15.00415 -4.52494,4.97391 -6.43875,5.00976 -12.38299,0.23195 z"
       id="path3129"
       inkscape:connector-curvature="0" />
  </g>
</svg>
