<?xml version="1.0" encoding="UTF-8" standalone="no"?>
<!-- Created with Inkscape (http://www.inkscape.org/) -->
<svg
   xmlns:dc="http://purl.org/dc/elements/1.1/"
   xmlns:cc="http://creativecommons.org/ns#"
   xmlns:rdf="http://www.w3.org/1999/02/22-rdf-syntax-ns#"
   xmlns:svg="http://www.w3.org/2000/svg"
   xmlns="http://www.w3.org/2000/svg"
   xmlns:sodipodi="http://sodipodi.sourceforge.net/DTD/sodipodi-0.dtd"
   xmlns:inkscape="http://www.inkscape.org/namespaces/inkscape"
   width="300"
   height="300"
   id="svg2400"
   sodipodi:version="0.32"
   inkscape:version="0.46"
   version="1.0"
   sodipodi:docname="้นต-seal.svg"
   inkscape:output_extension="org.inkscape.output.svg.inkscape">
  <defs
     id="defs2402">
    <inkscape:perspective
       sodipodi:type="inkscape:persp3d"
       inkscape:vp_x="0 : 526.18109 : 1"
       inkscape:vp_y="0 : 1000 : 0"
       inkscape:vp_z="744.09448 : 526.18109 : 1"
       inkscape:persp3d-origin="372.04724 : 350.78739 : 1"
       id="perspective2408" />
    <inkscape:perspective
       id="perspective3684"
       inkscape:persp3d-origin="372.04724 : 350.78739 : 1"
       inkscape:vp_z="744.09448 : 526.18109 : 1"
       inkscape:vp_y="0 : 1000 : 0"
       inkscape:vp_x="0 : 526.18109 : 1"
       sodipodi:type="inkscape:persp3d" />
    <inkscape:perspective
       id="perspective3736"
       inkscape:persp3d-origin="372.04724 : 350.78739 : 1"
       inkscape:vp_z="744.09448 : 526.18109 : 1"
       inkscape:vp_y="0 : 1000 : 0"
       inkscape:vp_x="0 : 526.18109 : 1"
       sodipodi:type="inkscape:persp3d" />
    <inkscape:perspective
       id="perspective2478"
       inkscape:persp3d-origin="372.04724 : 350.78739 : 1"
       inkscape:vp_z="744.09448 : 526.18109 : 1"
       inkscape:vp_y="0 : 1000 : 0"
       inkscape:vp_x="0 : 526.18109 : 1"
       sodipodi:type="inkscape:persp3d" />
    <inkscape:perspective
       id="perspective2513"
       inkscape:persp3d-origin="372.04724 : 350.78739 : 1"
       inkscape:vp_z="744.09448 : 526.18109 : 1"
       inkscape:vp_y="0 : 1000 : 0"
       inkscape:vp_x="0 : 526.18109 : 1"
       sodipodi:type="inkscape:persp3d" />
    <inkscape:perspective
       id="perspective2550"
       inkscape:persp3d-origin="372.04724 : 350.78739 : 1"
       inkscape:vp_z="744.09448 : 526.18109 : 1"
       inkscape:vp_y="0 : 1000 : 0"
       inkscape:vp_x="0 : 526.18109 : 1"
       sodipodi:type="inkscape:persp3d" />
    <inkscape:perspective
       id="perspective2585"
       inkscape:persp3d-origin="372.04724 : 350.78739 : 1"
       inkscape:vp_z="744.09448 : 526.18109 : 1"
       inkscape:vp_y="0 : 1000 : 0"
       inkscape:vp_x="0 : 526.18109 : 1"
       sodipodi:type="inkscape:persp3d" />
    <inkscape:perspective
       id="perspective2620"
       inkscape:persp3d-origin="372.04724 : 350.78739 : 1"
       inkscape:vp_z="744.09448 : 526.18109 : 1"
       inkscape:vp_y="0 : 1000 : 0"
       inkscape:vp_x="0 : 526.18109 : 1"
       sodipodi:type="inkscape:persp3d" />
  </defs>
  <sodipodi:namedview
     id="base"
     pagecolor="#ffffff"
     bordercolor="#666666"
     borderopacity="1.0"
     gridtolerance="10000"
     guidetolerance="10"
     objecttolerance="10"
     inkscape:pageopacity="0.0"
     inkscape:pageshadow="2"
     inkscape:zoom="1.4"
     inkscape:cx="96.988258"
     inkscape:cy="94.794366"
     inkscape:document-units="px"
     inkscape:current-layer="layer1"
     showgrid="false"
     width="300px"
     inkscape:window-width="1680"
     inkscape:window-height="979"
     inkscape:window-x="0"
     inkscape:window-y="25" />
  <metadata
     id="metadata2405">
    <rdf:RDF>
      <cc:Work
         rdf:about="">
        <dc:format>image/svg+xml</dc:format>
        <dc:type
           rdf:resource="http://purl.org/dc/dcmitype/StillImage" />
      </cc:Work>
    </rdf:RDF>
  </metadata>
  <g
     inkscape:label="Layer 1"
     inkscape:groupmode="layer"
     id="layer1">
    <path
       style="fill:#000000"
       d="M 109.48281,285 C 92.223333,281.9604 79.789823,275.0682 78.239653,267.68113 C 72.235263,239.06826 71.205393,225.48391 71.341713,176.69504 C 71.441193,141.08995 72.681193,117.65019 74.784913,111.60826 C 79.189763,98.9574 90.809133,92.580282 109.91229,92.329112 C 135.64468,91.990783 136.09424,91.060261 136.95853,36.34787 C 137.26498,16.948788 137.79867,15 142.80489,15 C 147.49785,15 148.31402,16.836378 148.31402,27.395538 C 148.31402,34.213083 148.6239,39.959144 149.00266,40.164563 C 149.38142,40.369982 164.56594,41.299647 182.74606,42.230485 C 209.53951,43.602336 215.80083,44.705585 215.80083,48.054766 C 215.80083,51.366525 209.93595,52.519434 186.25165,53.863479 C 169.227,54.829601 154.9588,56.987477 152.58859,58.954566 C 148.61739,62.250377 148.28684,79.889227 152.08125,86.028697 C 152.94624,87.428285 166.49282,89.228665 182.18476,90.029539 C 210.68608,91.484169 221.44531,94.853345 224.04961,103.13922 C 229.4536,120.3326 230.40052,223.87469 225.37516,248.08174 C 221.41996,267.13379 212.2942,277.00934 194.41343,281.58726 C 167.05184,276.89244 142.96053,284.01817 109.48281,285 z M 184.67278,266.92191 C 193.84102,264.90824 194.58769,258.91097 186.88693,249.13792 C 183.90252,245.3504 173.57363,232.06531 163.93382,219.6155 C 146.4096,196.98296 146.40603,196.9803 140.67564,202.31898 C 137.52344,205.25569 131.44488,212.33459 127.16773,218.04985 C 122.89058,223.7651 116.69201,231.20509 113.39311,234.58314 C 110.09423,237.96121 105.17864,244.47729 102.4696,249.06333 C 99.760553,253.64941 96.571763,257.40162 95.383403,257.40162 C 94.195043,257.40162 93.222743,258.49079 93.222743,259.822 C 93.222743,262.65638 105.3912,267.76764 115.25925,269.07824 C 125.4898,270.43698 175.78202,268.87465 184.67278,266.92191 z M 121.81512,242.38343 C 120.97092,240.18346 121.01681,237.19163 121.91709,235.73493 C 123.48752,233.19391 166.66327,233.51422 169.23501,236.08596 C 169.91987,236.77082 169.69864,239.3679 168.74338,241.85726 C 166.34865,248.09782 124.18933,248.57051 121.81512,242.38343 z M 212.65555,236.05375 C 216.52917,212.61833 211.39405,119.39093 206.25134,119.78636 C 205.44352,119.84848 199.20459,127.36499 192.38704,136.48973 C 185.5695,145.61446 174.76165,159.19703 168.36961,166.67323 C 155.76953,181.41039 155.62379,184.27952 166.78752,197.82007 C 170.37222,202.16796 175.27446,209.53359 177.68141,214.18812 C 183.20291,224.8655 203.21576,246.38336 207.62485,246.38336 C 209.45267,246.38336 211.71649,241.73503 212.65555,236.05375 z M 190.29035,205.52978 C 183.62447,201.29819 187.57456,149.97363 194.5661,149.97363 C 202.28565,149.97363 206.04442,187.39894 199.75331,201.6217 C 196.77198,208.36182 195.5479,208.86735 190.29035,205.52978 z M 96.615493,233.29918 C 99.134803,229.1329 106.37752,220.14614 112.71041,213.3286 C 135.1331,189.18991 138.05299,184.23172 134.01257,177.15598 C 132.0308,173.68543 129.1287,169.42877 127.56348,167.69674 C 125.99824,165.96471 120.04651,156.5604 114.33742,146.79829 C 100.83395,123.70841 91.532403,112.22228 88.649173,115.07683 C 85.799603,117.89803 83.823913,212.68489 86.274113,229.02398 C 88.347413,242.84963 90.341843,243.67416 96.615493,233.29918 z M 105.20866,198.9011 C 103.82386,196.98865 103.14411,186.3664 103.69811,175.29608 C 104.54817,158.31 105.42159,155.30483 109.29369,156.04335 C 115.55718,157.23797 117.54028,194.23356 111.60487,199.15951 C 108.62895,201.62931 107.14064,201.56919 105.20866,198.9011 z M 192.38704,107.88492 C 192.38704,103.17637 189.57277,102.86067 152.20826,103.37779 C 107.38557,103.99812 105.10823,105.04627 115.71639,120.17308 C 119.24225,125.2008 122.50852,129.89828 122.97477,130.61191 C 123.44101,131.32554 124.79398,130.33752 125.98135,128.41631 C 129.30014,123.04638 168.97324,125.14611 168.97324,130.69168 C 168.97324,133.9398 164.40732,134.9956 147.62537,135.62804 C 135.88405,136.07052 126.27751,137.11872 126.27751,137.95738 C 126.27751,138.79604 128.49139,142.77244 131.19725,146.79384 C 133.90312,150.81524 137.83125,157.51424 139.92642,161.68052 C 142.02159,165.8468 144.56674,169.25558 145.58232,169.25558 C 161.42109,156.52698 185.61042,125.63959 192.38704,107.88492 z"
       id="path2626"
       sodipodi:nodetypes="csssssssssssssssscccsssssssssccsssccssssssccssccssssssccsssccssssssssscc" />
  </g>
</svg>
