<?xml version="1.0" encoding="UTF-8" standalone="no"?>
<!-- Created with Inkscape (http://www.inkscape.org/) -->
<svg
   xmlns:dc="http://purl.org/dc/elements/1.1/"
   xmlns:cc="http://creativecommons.org/ns#"
   xmlns:rdf="http://www.w3.org/1999/02/22-rdf-syntax-ns#"
   xmlns:svg="http://www.w3.org/2000/svg"
   xmlns="http://www.w3.org/2000/svg"
   xmlns:sodipodi="http://sodipodi.sourceforge.net/DTD/sodipodi-0.dtd"
   xmlns:inkscape="http://www.inkscape.org/namespaces/inkscape"
   width="300"
   height="300"
   id="svg2400"
   sodipodi:version="0.32"
   inkscape:version="0.46"
   version="1.0"
   sodipodi:docname="้นต-bronze.svg"
   inkscape:output_extension="org.inkscape.output.svg.inkscape">
  <defs
     id="defs2402">
    <inkscape:perspective
       sodipodi:type="inkscape:persp3d"
       inkscape:vp_x="0 : 526.18109 : 1"
       inkscape:vp_y="0 : 1000 : 0"
       inkscape:vp_z="744.09448 : 526.18109 : 1"
       inkscape:persp3d-origin="372.04724 : 350.78739 : 1"
       id="perspective2408" />
    <inkscape:perspective
       id="perspective3684"
       inkscape:persp3d-origin="372.04724 : 350.78739 : 1"
       inkscape:vp_z="744.09448 : 526.18109 : 1"
       inkscape:vp_y="0 : 1000 : 0"
       inkscape:vp_x="0 : 526.18109 : 1"
       sodipodi:type="inkscape:persp3d" />
    <inkscape:perspective
       id="perspective3736"
       inkscape:persp3d-origin="372.04724 : 350.78739 : 1"
       inkscape:vp_z="744.09448 : 526.18109 : 1"
       inkscape:vp_y="0 : 1000 : 0"
       inkscape:vp_x="0 : 526.18109 : 1"
       sodipodi:type="inkscape:persp3d" />
    <inkscape:perspective
       id="perspective2478"
       inkscape:persp3d-origin="372.04724 : 350.78739 : 1"
       inkscape:vp_z="744.09448 : 526.18109 : 1"
       inkscape:vp_y="0 : 1000 : 0"
       inkscape:vp_x="0 : 526.18109 : 1"
       sodipodi:type="inkscape:persp3d" />
    <inkscape:perspective
       id="perspective2513"
       inkscape:persp3d-origin="372.04724 : 350.78739 : 1"
       inkscape:vp_z="744.09448 : 526.18109 : 1"
       inkscape:vp_y="0 : 1000 : 0"
       inkscape:vp_x="0 : 526.18109 : 1"
       sodipodi:type="inkscape:persp3d" />
    <inkscape:perspective
       id="perspective2550"
       inkscape:persp3d-origin="372.04724 : 350.78739 : 1"
       inkscape:vp_z="744.09448 : 526.18109 : 1"
       inkscape:vp_y="0 : 1000 : 0"
       inkscape:vp_x="0 : 526.18109 : 1"
       sodipodi:type="inkscape:persp3d" />
    <inkscape:perspective
       id="perspective2585"
       inkscape:persp3d-origin="372.04724 : 350.78739 : 1"
       inkscape:vp_z="744.09448 : 526.18109 : 1"
       inkscape:vp_y="0 : 1000 : 0"
       inkscape:vp_x="0 : 526.18109 : 1"
       sodipodi:type="inkscape:persp3d" />
  </defs>
  <sodipodi:namedview
     id="base"
     pagecolor="#ffffff"
     bordercolor="#666666"
     borderopacity="1.0"
     gridtolerance="10000"
     guidetolerance="10"
     objecttolerance="10"
     inkscape:pageopacity="0.0"
     inkscape:pageshadow="2"
     inkscape:zoom="1.4"
     inkscape:cx="135.46998"
     inkscape:cy="102.59739"
     inkscape:document-units="px"
     inkscape:current-layer="layer1"
     showgrid="false"
     width="300px"
     inkscape:window-width="1680"
     inkscape:window-height="979"
     inkscape:window-x="0"
     inkscape:window-y="25" />
  <metadata
     id="metadata2405">
    <rdf:RDF>
      <cc:Work
         rdf:about="">
        <dc:format>image/svg+xml</dc:format>
        <dc:type
           rdf:resource="http://purl.org/dc/dcmitype/StillImage" />
      </cc:Work>
    </rdf:RDF>
  </metadata>
  <g
     inkscape:label="Layer 1"
     inkscape:groupmode="layer"
     id="layer1">
    <path
       style="fill:#000000"
       d="M 119.27018,283.80913 C 101.33974,280.87659 77.751728,269.43523 69.726831,259.77814 C 66.412026,255.78912 62.721049,246.40589 61.524648,238.92651 C 49.221146,208.65267 50.237366,183.01316 56.653558,149.43132 C 62.779187,131.68997 77.52573,105.27891 88.446044,92.490972 C 99.235818,79.855901 136.39159,51.261874 142.02014,51.261874 C 144.19763,51.261874 147.01508,47.998141 148.28114,44.009134 C 149.95766,38.72687 153.76796,36.756394 162.30572,36.756394 C 168.75317,36.756394 175.57864,35.24859 177.47342,33.40572 C 184.15671,26.905518 220.97819,15.001809 234.40743,15.000003 C 250.3729,14.997857 252.21023,20.745994 238.03379,26.345232 C 232.54891,28.511589 225.22766,31.740335 221.76433,33.520225 C 213.0267,36.477798 205.06616,38.31266 197.36746,43.78431 C 188.95282,50.250631 188.74106,51.250154 193.73531,60.928931 C 196.6522,66.581818 199.8573,72.022841 200.85772,73.020094 C 209.9962,83.847153 210.82251,97.998434 218.99535,109.28379 C 226.91619,120.17008 225.98039,133.56265 232.94617,144.98768 C 243.07883,159.54921 248.00632,177.1518 248.00632,198.78746 C 248.00632,222.97553 241.03061,240.27252 225.50261,254.58776 C 214.43357,264.79231 207.28727,268.8185 182.37904,278.8834 C 169.4163,284.12136 136.7626,286.67003 119.27018,283.80913 z M 158.65411,262.9116 C 173.11869,260.92901 175.47892,259.43666 175.47892,252.27344 C 175.47892,245.81379 163.88614,222.74432 151.1819,203.92268 C 150.63992,203.11973 145.38031,202.59971 139.49385,202.76708 C 117.28847,202.3061 111.60351,228.70321 101.13834,233.89176 C 92.684991,237.13561 94.481487,252.50847 103.85811,257.16523 C 119.38128,264.8746 133.51712,266.357 158.65411,262.9116 z M 128.11138,249.69029 C 113.46175,238.26489 119.86367,222.41492 137.35493,226.80496 C 147.33244,229.30915 149.96701,242.13624 142.11631,249.98694 C 136.78357,255.31968 135.28879,255.28802 128.11138,249.69029 z M 208.16611,242.43755 C 218.92658,233.77802 226.00113,218.81689 224.24713,208.42967 C 219.19014,178.48199 217.49224,172.0676 212.66415,164.6711 L 207.39372,156.59693 L 190.52972,165.89127 C 164.34355,180.3234 163.3878,181.81606 169.31583,199.0223 C 176.39728,219.57637 193.03847,247.10896 198.29659,246.97052 C 200.70565,246.90707 205.14692,244.86725 208.16611,242.43755 z M 188.9327,206.05934 C 187.92748,203.4398 187.91905,197.03831 188.91395,191.83381 C 190.7203,182.3845 190.73871,182.37993 201.89567,188.61286 C 217.18487,197.1543 217.77874,202.01986 204.11353,206.78358 C 189.93211,211.72725 191.12961,211.78438 188.9327,206.05934 z M 119.92357,181.73055 C 121.55872,181.6862 126.80385,178.6457 131.57943,174.9739 C 139.71589,168.718 139.94544,167.58204 135.22715,156.92267 C 124.38753,141.15281 119.87525,121.6299 104.40651,109.28379 C 98.46256,109.83535 98.270475,116.71371 94.792184,120.81046 C 83.562872,132.68146 77.454317,168.5741 82.716824,191.76283 L 85.386769,203.52765 L 101.16867,192.66942 C 109.84873,186.69739 118.28843,181.7749 119.92357,181.73055 z M 100.05043,177.45955 C 92.453345,169.86246 95.678017,145.42442 104.2461,145.66281 C 106.52583,145.72624 111.30791,147.99063 114.87292,150.69478 C 121.0418,155.37403 121.05315,156.24392 115.10787,168.7113 C 108.29677,182.99433 106.58167,183.99078 100.05043,177.45955 z M 185.4729,139.55125 C 187.97783,137.12698 193.39942,134.07324 197.52087,132.76513 C 202.73292,131.11089 204.26752,128.55437 202.56127,124.36825 C 201.21205,121.05805 198.68387,113.59615 196.94311,107.78624 C 193.74536,97.113567 176.57319,69.652033 170.26833,65.128239 C 166.75604,62.608139 137.79955,77.020556 128.64763,85.84397 C 125.03227,89.329554 124.61733,92.178771 127.241,95.502904 C 129.28778,98.096132 132.0457,104.75031 133.36971,110.28995 C 134.69373,115.82961 139.9433,129.16137 145.03543,139.91612 L 154.29384,159.4702 L 167.60615,151.7146 C 174.92793,147.44903 182.96796,141.97552 185.4729,139.55125 z M 156.6019,125.09727 C 143.04426,117.94557 147.58686,104.35317 164.08447,102.70788 C 175.17646,101.60169 175.47892,101.96266 175.47892,116.30677 C 175.47892,132.36609 172.77158,133.62682 156.6019,125.09727 z"
       id="path2591"
       sodipodi:nodetypes="csccsssssssccscccsssccssccsccssccscccssccsssccsccccccccsssccssssssscccccssc" />
  </g>
</svg>
