<?xml version="1.0" encoding="UTF-8" standalone="no"?>
<!-- Created with Inkscape (http://www.inkscape.org/) -->

<svg
   xmlns:dc="http://purl.org/dc/elements/1.1/"
   xmlns:cc="http://creativecommons.org/ns#"
   xmlns:rdf="http://www.w3.org/1999/02/22-rdf-syntax-ns#"
   xmlns:svg="http://www.w3.org/2000/svg"
   xmlns="http://www.w3.org/2000/svg"
   xmlns:sodipodi="http://sodipodi.sourceforge.net/DTD/sodipodi-0.dtd"
   xmlns:inkscape="http://www.inkscape.org/namespaces/inkscape"
   width="300"
   height="300"
   id="svg2"
   version="1.1"
   inkscape:version="0.47 r22583"
   sodipodi:docname="Nouveau document 1">
  <defs
     id="defs4">
    <inkscape:perspective
       sodipodi:type="inkscape:persp3d"
       inkscape:vp_x="0 : 526.18109 : 1"
       inkscape:vp_y="0 : 1000 : 0"
       inkscape:vp_z="744.09448 : 526.18109 : 1"
       inkscape:persp3d-origin="372.04724 : 350.78739 : 1"
       id="perspective10" />
    <inkscape:perspective
       id="perspective2824"
       inkscape:persp3d-origin="0.5 : 0.33333333 : 1"
       inkscape:vp_z="1 : 0.5 : 1"
       inkscape:vp_y="0 : 1000 : 0"
       inkscape:vp_x="0 : 0.5 : 1"
       sodipodi:type="inkscape:persp3d" />
  </defs>
  <sodipodi:namedview
     id="base"
     pagecolor="#ffffff"
     bordercolor="#666666"
     borderopacity="1.0"
     inkscape:pageopacity="0.0"
     inkscape:pageshadow="2"
     inkscape:zoom="1.979899"
     inkscape:cx="170.05914"
     inkscape:cy="156.20854"
     inkscape:document-units="px"
     inkscape:current-layer="layer1"
     showgrid="false"
     inkscape:window-width="1280"
     inkscape:window-height="950"
     inkscape:window-x="0"
     inkscape:window-y="25"
     inkscape:window-maximized="1" />
  <metadata
     id="metadata7">
    <rdf:RDF>
      <cc:Work
         rdf:about="">
        <dc:format>image/svg+xml</dc:format>
        <dc:type
           rdf:resource="http://purl.org/dc/dcmitype/StillImage" />
        <dc:title></dc:title>
      </cc:Work>
    </rdf:RDF>
  </metadata>
  <g
     inkscape:label="Calque 1"
     inkscape:groupmode="layer"
     id="layer1"
     transform="translate(0,-752.36218)">
    <path
       style="fill:#000000"
       d="m 176.43603,1018.4825 c -12.49706,-23.64591 -13.60604,-27.01652 -14.91153,-45.32182 -1.19212,-16.71618 -0.61283,-19.31799 5.65144,-25.38223 5.19779,-5.03178 10.44591,-7.0207 20.55617,-7.79039 18.17899,-1.38397 23.90648,-3.59528 25.86085,-9.98446 2.74661,-8.9793 -5.32966,-24.33819 -15.31101,-29.11735 -9.51539,-4.55605 -19.65626,-6.02235 -19.69649,-2.84796 -0.0388,3.0627 -15.67115,8.071 -25.19198,8.071 -4.88169,0 -13.56621,-2.37854 -19.29891,-5.28566 -9.24935,-4.69043 -11.28963,-4.90515 -18.11767,-1.90674 -11.28346,4.95487 -13.97353,12.40396 -6.40894,17.74678 4.73614,3.3451 11.65198,4.34594 30.03063,4.34594 18.76173,0 23.87748,0.76596 23.87748,3.57515 0,2.3387 -3.92531,3.84175 -11.34974,4.34592 l -11.34974,0.77077 -2.6621,14.54787 c -2.44897,13.38326 -0.9607,28.93295 5.91533,61.80418 2.32488,11.1144 0.0591,17.1854 -5.73358,15.3616 -6.2054,-1.9539 -10.89179,-17.3126 -13.11137,-42.97006 -1.07853,-12.46742 -2.90793,-22.66804 -4.0653,-22.66804 -9.21562,0 -15.90704,20.17977 -16.3961,49.4469 -0.28904,17.2922 -5.553568,22.8461 -10.840518,11.4362 -5.465339,-11.7949 -2.530993,-37.99732 6.290878,-56.17439 1.72612,-3.5566 8.47126,-9.70297 14.98919,-13.65862 15.90903,-9.65498 15.34294,-13.99357 -2.38245,-18.25979 -14.826178,-3.56844 -21.679152,-8.35125 -21.846583,-15.24715 -0.173123,-7.1291 9.188353,-19.44625 18.040943,-23.73704 8.4058,-4.07424 12.00197,-9.72641 12.08744,-18.99812 0.0351,-3.80129 -2.14207,-4.36704 -14.33499,-3.72508 l -14.37634,0.75692 -5.721178,13.65861 c -3.847531,9.18545 -6.532245,25.4515 -8.19769,49.6677 -1.362059,19.805 -3.269603,39.36165 -4.239022,43.45924 -0.969388,4.09758 -3.189882,14.1553 -4.934412,22.35046 -4.395891,20.65016 -10.643001,30.88626 -18.921925,31.00426 -2.81511,0.04 -1.178812,-11.1575 4.349164,-29.76257 4.800846,-16.15777 8.379313,-37.18308 11.623371,-68.29308 3.71194,-35.59675 11.517868,-65.9614 17.948842,-69.81985 2.767885,-1.66066 12.190469,-3.75322 20.93903,-4.6501 15.2138,-1.55968 15.90649,-1.95505 15.90649,-9.07952 0,-10.15697 -7.73289,-16.42917 -15.40701,-12.49676 -8.662758,4.439 -35.829405,3.78684 -38.027321,-0.9129 -2.870273,-6.13733 0.91712,-7.27008 28.703433,-8.58473 23.722048,-1.12237 26.244198,-1.71903 26.244198,-6.20847 0,-3.78058 -2.52215,-5.26331 -10.56067,-6.20847 -12.651452,-1.48751 -17.303847,-8.00722 -18.60725,-26.07553 -0.847086,-11.74291 -0.49046,-12.41693 6.56962,-12.41693 6.68164,0 7.56659,1.16799 8.43004,11.12651 1.31013,15.10953 4.75064,17.82276 21.46966,16.93118 l 13.88478,-0.74046 0.88871,-16.53874 c 0.66634,-12.40019 2.1001,-16.92015 5.72974,-18.06298 7.49189,-2.35891 8.57462,0.21581 7.72945,18.37953 -0.72997,15.6876 -0.30491,16.97545 6.05318,18.3398 3.76107,0.80708 11.79542,0.81704 17.85414,0.0223 12.49086,-1.6387 17.73684,-8.18216 17.73684,-22.12363 0,-9.29723 1.70364,-10.18364 9.83644,-5.118 12.0943,7.53309 2.59264,34.60999 -13.04569,37.17631 -7.02623,1.15304 -8.89715,2.77865 -8.89715,7.73062 0,5.98579 0.79869,6.27054 17.5889,6.27054 23.21709,0 32.36243,6.08742 29.36734,19.54777 -1.10277,4.95614 -4.03562,11.59693 -6.51748,14.75734 -4.08951,5.20768 -5.99789,5.59387 -20.36426,4.12108 -17.85137,-1.83007 -21.06946,-0.0752 -24.12557,13.1562 -1.84065,7.96916 -1.51454,8.25907 17.20389,15.29356 21.86534,8.21712 29.21955,15.71034 29.21955,29.77183 0,12.75106 -4.84964,21.3075 -14.01981,24.7358 -7.50062,2.80414 -7.8005,8.05526 -1.2227,21.41105 1.34537,2.73173 4.11862,9.99563 6.16272,16.142 4.05303,12.18698 9.45593,22.87962 12.54833,24.83382 1.08068,0.683 2.44483,4.5736 3.03141,8.6458 0.7933,5.5073 -0.29056,7.6216 -4.23143,8.2533 -7.91555,1.2689 -28.15026,-34.58174 -32.76407,-58.04935 -3.52223,-17.91534 -3.87704,-18.45096 -12.2223,-18.45096 -5.86911,0 -10.19575,2.00489 -13.64321,6.32201 -5.31664,6.6579 -5.51724,5.32309 5.39479,35.89554 4.66556,13.07156 9.79659,22.35046 12.35933,22.35046 3.62938,0 2.65526,8.6387 -1.34415,11.9203 -5.66814,4.6508 -7.01601,3.7818 -13.6741,-8.8161 z m -8.74387,-131.20171 c 1.01039,-2.1605 1.83711,-8.30688 1.83711,-13.65863 l 0,-9.73042 -18.15959,0 -18.15958,0 0,8.13928 c 0,12.55564 7.2632,19.17796 21.03398,19.17796 7.79567,0 12.21462,-1.29078 13.44808,-3.92819 z m 4.93862,-39.69272 c 1.62344,-3.50355 2.95168,-7.28461 2.95168,-8.40232 0,-2.94943 -11.50706,-4.22107 -27.99603,-3.09389 -13.48157,0.92161 -14.37633,1.42013 -14.37633,8.01013 0,7.60436 3.34518,8.87568 25.04434,9.51803 9.66226,0.28601 11.87998,-0.64449 14.37634,-6.03195 z m 41.11022,-0.0199 c 2.29841,-7.51408 -0.53678,-10.38445 -10.91916,-11.05474 -13.85349,-0.89436 -15.13299,-0.15421 -15.13299,8.75315 0,8.47795 0.29661,8.69184 12.04874,8.69184 10.41925,0 12.31307,-0.86422 14.00341,-6.39029 z M 174.96907,819.0615 c 0.86321,-6.07966 0.29389,-6.32198 -13.96369,-5.94346 -16.48915,0.43779 -21.74209,2.20244 -21.74209,7.30395 0,3.41382 12.33212,5.79136 27.23938,5.25154 5.74984,-0.2081 7.78257,-1.7957 8.4664,-6.61203 z"
       id="path2830" />
  </g>
</svg>
