<?xml version="1.0" encoding="UTF-8" standalone="no"?>
<!-- Created with Inkscape (http://www.inkscape.org/) -->

<svg
   xmlns:dc="http://purl.org/dc/elements/1.1/"
   xmlns:cc="http://creativecommons.org/ns#"
   xmlns:rdf="http://www.w3.org/1999/02/22-rdf-syntax-ns#"
   xmlns:svg="http://www.w3.org/2000/svg"
   xmlns="http://www.w3.org/2000/svg"
   xmlns:sodipodi="http://sodipodi.sourceforge.net/DTD/sodipodi-0.dtd"
   xmlns:inkscape="http://www.inkscape.org/namespaces/inkscape"
   width="300"
   height="300"
   id="svg2"
   version="1.1"
   inkscape:version="0.47 r22583"
   sodipodi:docname="鹿-bronze.svg">
  <defs
     id="defs4">
    <inkscape:perspective
       sodipodi:type="inkscape:persp3d"
       inkscape:vp_x="0 : 526.18109 : 1"
       inkscape:vp_y="0 : 1000 : 0"
       inkscape:vp_z="744.09448 : 526.18109 : 1"
       inkscape:persp3d-origin="372.04724 : 350.78739 : 1"
       id="perspective10" />
    <inkscape:perspective
       id="perspective2824"
       inkscape:persp3d-origin="0.5 : 0.33333333 : 1"
       inkscape:vp_z="1 : 0.5 : 1"
       inkscape:vp_y="0 : 1000 : 0"
       inkscape:vp_x="0 : 0.5 : 1"
       sodipodi:type="inkscape:persp3d" />
    <inkscape:perspective
       id="perspective2861"
       inkscape:persp3d-origin="0.5 : 0.33333333 : 1"
       inkscape:vp_z="1 : 0.5 : 1"
       inkscape:vp_y="0 : 1000 : 0"
       inkscape:vp_x="0 : 0.5 : 1"
       sodipodi:type="inkscape:persp3d" />
    <inkscape:perspective
       id="perspective2928"
       inkscape:persp3d-origin="0.5 : 0.33333333 : 1"
       inkscape:vp_z="1 : 0.5 : 1"
       inkscape:vp_y="0 : 1000 : 0"
       inkscape:vp_x="0 : 0.5 : 1"
       sodipodi:type="inkscape:persp3d" />
    <inkscape:perspective
       id="perspective2966"
       inkscape:persp3d-origin="0.5 : 0.33333333 : 1"
       inkscape:vp_z="1 : 0.5 : 1"
       inkscape:vp_y="0 : 1000 : 0"
       inkscape:vp_x="0 : 0.5 : 1"
       sodipodi:type="inkscape:persp3d" />
    <inkscape:perspective
       id="perspective2984"
       inkscape:persp3d-origin="0.5 : 0.33333333 : 1"
       inkscape:vp_z="1 : 0.5 : 1"
       inkscape:vp_y="0 : 1000 : 0"
       inkscape:vp_x="0 : 0.5 : 1"
       sodipodi:type="inkscape:persp3d" />
    <inkscape:perspective
       id="perspective3000"
       inkscape:persp3d-origin="0.5 : 0.33333333 : 1"
       inkscape:vp_z="1 : 0.5 : 1"
       inkscape:vp_y="0 : 1000 : 0"
       inkscape:vp_x="0 : 0.5 : 1"
       sodipodi:type="inkscape:persp3d" />
  </defs>
  <sodipodi:namedview
     id="base"
     pagecolor="#ffffff"
     bordercolor="#666666"
     borderopacity="1.0"
     inkscape:pageopacity="0.0"
     inkscape:pageshadow="2"
     inkscape:zoom="1.979899"
     inkscape:cx="170.05914"
     inkscape:cy="156.20854"
     inkscape:document-units="px"
     inkscape:current-layer="layer1"
     showgrid="false"
     inkscape:window-width="1280"
     inkscape:window-height="950"
     inkscape:window-x="0"
     inkscape:window-y="25"
     inkscape:window-maximized="1" />
  <metadata
     id="metadata7">
    <rdf:RDF>
      <cc:Work
         rdf:about="">
        <dc:format>image/svg+xml</dc:format>
        <dc:type
           rdf:resource="http://purl.org/dc/dcmitype/StillImage" />
        <dc:title></dc:title>
      </cc:Work>
    </rdf:RDF>
  </metadata>
  <g
     inkscape:label="Calque 1"
     inkscape:groupmode="layer"
     id="layer1"
     transform="translate(0,-752.36218)">
    <path
       style="fill:#000000"
       d="m 69.59897,1031.0771 c 0,-0.4848 2.356338,-5.9791 5.236314,-12.2094 3.390733,-7.3355 5.962275,-22.6888 7.296066,-43.56119 2.150793,-33.65781 4.112861,-41.02391 10.927286,-41.02391 2.249208,0 4.977153,-1.75817 6.06208,-3.90704 1.084924,-2.14887 3.190334,-3.90703 4.678684,-3.90703 6.87291,0 31.26357,-11.21454 32.95563,-15.15262 2.14318,-4.988 -0.49798,-15.61628 -4.97274,-20.01074 -2.65229,-2.60469 -3.83455,-2.60469 -10.64038,0 -12.74541,4.87788 -56.391598,24.81583 -61.88753,28.27077 -8.655306,5.44104 -12.324545,1.65373 -10.128311,-10.45422 3.905416,-21.5308 13.134824,-32.20811 39.517998,-45.7176 20.459213,-10.47612 22.557863,-14.92665 11.360663,-24.09215 -3.786669,-3.09959 -7.772521,-6.07517 -8.857437,-6.61239 -5.603241,-2.77455 -9.118112,-10.66628 -9.118112,-20.47232 0,-8.97973 -1.354606,-11.81313 -7.492234,-15.67147 -9.339875,-5.87138 -13.581487,-16.36893 -7.600814,-18.81122 2.95514,-1.20677 6.777555,0.16234 12.77684,4.57655 l 8.560235,6.29846 3.774383,-6.28603 c 3.702677,-6.16662 6.850607,-7.73323 9.687079,-4.8209 0.78484,0.80582 -0.73946,9.09826 -3.387337,18.42764 -3.972839,13.99766 -4.12431,18.00972 -0.866575,22.95386 6.009192,9.11991 15.623932,6.92355 15.623932,-3.5691 0,-6.04567 12.64225,-20.39047 16.07084,-18.23513 2.74599,1.72625 -1.49377,14.76236 -11.74028,36.09803 -1.34585,2.80238 0.3236,3.41867 9.2606,3.41867 5.99637,0 11.76672,0.87908 12.82304,1.95351 1.05632,1.07444 5.52656,1.95353 9.93391,1.95353 7.84707,0 7.97218,-0.21278 6.02955,-10.25598 -1.09109,-5.64079 -2.865,-13.55254 -3.94202,-17.58168 -1.73647,-6.49616 -1.23212,-7.3257 4.45409,-7.3257 7.86545,0 10.82652,5.2028 10.82652,19.02294 0,5.65392 1.01568,10.27985 2.25702,10.27985 2.954,0 6.10046,-12.24178 6.14356,-23.90257 0.0382,-10.30163 4.84456,-24.47577 11.67101,-34.41745 6.40217,-9.32377 10.83053,-5.27485 7.28379,6.65969 -1.57839,5.31113 -2.24301,10.05062 -1.47693,10.53221 0.76608,0.48157 5.54506,-0.6663 10.61993,-2.55082 13.94564,-5.17863 12.14282,0.5779 -2.7513,8.78513 -10.62025,5.85215 -12.22122,7.92753 -14.12081,18.30525 -1.48383,8.1065 -1.17963,10.80395 0.98955,8.77449 2.74592,-2.5691 3.79975,-2.51061 8.54939,0.47443 4.23134,2.65929 4.59613,3.92099 1.66615,5.76289 -2.0632,1.297 -3.77247,5.03938 -3.79842,8.3164 -0.0407,5.1268 -2.83477,11.83695 -11.16849,26.82068 -1.00358,1.80442 -9.35581,5.52236 -18.5605,8.26209 l -16.73582,4.98134 1.76031,9.31958 c 0.96819,5.12577 3.10616,11.57543 4.75101,14.33256 4.90577,8.22305 -2.82976,17.85839 -18.59565,23.16262 -9.44761,3.17851 -22.20005,10.20029 -22.20005,12.22385 0,2.3105 39.66151,1.97745 41.95196,-0.35229 1.05632,-1.07444 5.5214,-1.95353 9.92241,-1.95353 4.40101,0 13.23559,-0.98574 19.6324,-2.19053 9.48061,-1.78564 14.60826,-1.56882 27.73906,1.17288 14.77983,3.08602 16.56174,3.10558 21.60395,0.23702 7.74216,-4.40458 9.66741,-3.9258 9.66741,2.40404 0,3.85987 -2.28486,6.29917 -7.56397,8.07525 -12.37278,4.16264 -15.46943,11.60001 -11.19657,26.89122 6.16569,22.06494 7.01577,32.69578 3.30675,41.35478 -5.28707,12.3431 -10.62544,9.0147 -13.13332,-8.1884 -1.19511,-8.19793 -4.20701,-18.67563 -6.69311,-23.28398 l -4.52015,-8.37864 -18.16735,-0.40823 c -9.99201,-0.22452 -26.55769,-0.9224 -36.81262,-1.55084 -11.73053,-0.71886 -23.83137,-0.17426 -32.62929,1.46865 l -13.98399,2.61125 -2.06726,11.63742 c -1.136994,6.40071 -4.422557,15.59337 -7.301255,20.42837 -2.878686,4.835 -6.835393,11.6478 -8.792672,15.1397 -2.187081,3.902 -5.661039,6.349 -9.01339,6.349 -3.000092,0 -5.454713,-0.3966 -5.454713,-0.8815 z m 69.91992,-67.65662 c 5.12746,-0.14222 22.03788,0.35257 37.57876,1.09952 l 28.25609,1.3581 3.38795,-5.54177 c 7.56767,-12.37864 7.41692,-13.35628 -2.41923,-15.69025 -7.61919,-1.8079 -12.27368,-1.53245 -25.51433,1.50991 -10.40577,2.39098 -27.34553,4.01133 -47.38747,4.53274 -30.30656,0.78848 -31.21897,0.94656 -32.12792,5.56614 -0.76332,3.87939 0.95281,5.13082 9.32265,6.79835 5.642,1.12407 12.35578,1.72473 14.91951,1.33478 2.56373,-0.38994 8.85653,-0.82532 13.98399,-0.96752 z M 86.690506,898.01314 c 10.254919,-4.88352 20.609164,-9.60035 23.009414,-10.48186 3.56619,-1.30968 3.14006,-2.42866 -2.33067,-6.12011 -3.68212,-2.48454 -6.69477,-5.67022 -6.69477,-7.07927 0,-4.46085 -6.471472,-2.79504 -18.179165,4.67944 -9.350828,5.9698 -10.387625,7.36709 -5.904349,7.95732 5.523123,0.72713 7.354993,3.47538 3.107546,4.6621 -2.675677,0.74756 -16.314646,12.65776 -16.314646,14.24671 0,2.44285 5.70462,0.51796 23.30664,-7.86433 z M 137.8663,866.6893 c 0.0985,-6.03931 -5.40174,-18.36157 -8.19602,-18.36157 -5.46027,0 -16.56559,12.34797 -16.56559,18.41923 0,1.39518 3.68943,4.85602 8.19872,7.69074 7.66827,4.82054 8.46613,4.93258 12.33139,1.73152 2.27296,-1.88237 4.17711,-6.14833 4.2315,-9.47992 z m 27.72415,-0.2915 c 10.32903,-6.11247 15.97104,-21.9771 7.81579,-21.9771 -2.40108,0 -4.37447,0.65931 -4.38524,1.46514 -0.0125,0.80582 -4.20602,2.96264 -9.32267,4.79294 -8.19196,2.93035 -9.30301,4.38854 -9.30301,12.2095 0,4.88492 1.37634,8.8817 3.05852,8.8817 1.68217,0 7.14367,-2.41749 12.13661,-5.37218 z"
       id="path3006" />
  </g>
</svg>
