<?xml version="1.0" encoding="UTF-8" standalone="no"?>
<!-- Created with Inkscape (http://www.inkscape.org/) -->

<svg
   xmlns:dc="http://purl.org/dc/elements/1.1/"
   xmlns:cc="http://creativecommons.org/ns#"
   xmlns:rdf="http://www.w3.org/1999/02/22-rdf-syntax-ns#"
   xmlns:svg="http://www.w3.org/2000/svg"
   xmlns="http://www.w3.org/2000/svg"
   xmlns:sodipodi="http://sodipodi.sourceforge.net/DTD/sodipodi-0.dtd"
   xmlns:inkscape="http://www.inkscape.org/namespaces/inkscape"
   width="300"
   height="300"
   id="svg2"
   version="1.1"
   inkscape:version="0.47 r22583"
   sodipodi:docname="鹿-bigseal.svg">
  <defs
     id="defs4">
    <inkscape:perspective
       sodipodi:type="inkscape:persp3d"
       inkscape:vp_x="0 : 526.18109 : 1"
       inkscape:vp_y="0 : 1000 : 0"
       inkscape:vp_z="744.09448 : 526.18109 : 1"
       inkscape:persp3d-origin="372.04724 : 350.78739 : 1"
       id="perspective10" />
    <inkscape:perspective
       id="perspective2824"
       inkscape:persp3d-origin="0.5 : 0.33333333 : 1"
       inkscape:vp_z="1 : 0.5 : 1"
       inkscape:vp_y="0 : 1000 : 0"
       inkscape:vp_x="0 : 0.5 : 1"
       sodipodi:type="inkscape:persp3d" />
    <inkscape:perspective
       id="perspective2861"
       inkscape:persp3d-origin="0.5 : 0.33333333 : 1"
       inkscape:vp_z="1 : 0.5 : 1"
       inkscape:vp_y="0 : 1000 : 0"
       inkscape:vp_x="0 : 0.5 : 1"
       sodipodi:type="inkscape:persp3d" />
    <inkscape:perspective
       id="perspective2928"
       inkscape:persp3d-origin="0.5 : 0.33333333 : 1"
       inkscape:vp_z="1 : 0.5 : 1"
       inkscape:vp_y="0 : 1000 : 0"
       inkscape:vp_x="0 : 0.5 : 1"
       sodipodi:type="inkscape:persp3d" />
  </defs>
  <sodipodi:namedview
     id="base"
     pagecolor="#ffffff"
     bordercolor="#666666"
     borderopacity="1.0"
     inkscape:pageopacity="0.0"
     inkscape:pageshadow="2"
     inkscape:zoom="1.979899"
     inkscape:cx="170.05914"
     inkscape:cy="156.20854"
     inkscape:document-units="px"
     inkscape:current-layer="layer1"
     showgrid="false"
     inkscape:window-width="1280"
     inkscape:window-height="950"
     inkscape:window-x="0"
     inkscape:window-y="25"
     inkscape:window-maximized="1" />
  <metadata
     id="metadata7">
    <rdf:RDF>
      <cc:Work
         rdf:about="">
        <dc:format>image/svg+xml</dc:format>
        <dc:type
           rdf:resource="http://purl.org/dc/dcmitype/StillImage" />
        <dc:title></dc:title>
      </cc:Work>
    </rdf:RDF>
  </metadata>
  <g
     inkscape:label="Calque 1"
     inkscape:groupmode="layer"
     id="layer1"
     transform="translate(0,-752.36218)">
    <path
       style="fill:#000000"
       d="m 100.54037,1025.164 c -7.260262,-10.0851 -3.339631,-23.6667 -2.355458,-35.09642 3.274748,-14.12586 5.585438,-29.28627 -2.634604,-42.24227 -5.055762,-12.68765 7.844962,-21.51895 17.941532,-25.71601 5.71697,-4.2442 30.47816,-5.05536 16.63373,-14.91382 -10.75568,-5.50795 -18.2371,-17.61552 -31.571587,-16.34543 -16.194713,-1.13959 -35.548437,-0.0432 -47.003415,-13.8839 -6.255271,-3.91137 -19.415735,-13.44169 -3.996639,-14.93374 13.251224,-1.39364 26.233316,4.64862 39.338052,2.73567 9.983392,-8.17357 24.526739,-8.80355 33.016119,-18.34893 -14.0701,-9.37754 -32.875604,-11.1115 -44.968537,-23.62263 5.551014,-7.82725 24.705844,11.76757 26.981867,-0.91713 2.7706,-13.8476 1.32773,-29.38456 9.46648,-41.57891 6.26112,-3.98019 10.86696,-9.8764 15.88007,-15.23278 -2.51845,9.69858 -6.5545,19.24595 -6.82504,29.33013 3.00641,2.20217 19.60519,-7.66102 15.60328,2.88341 -9.48815,6.29267 -23.67963,12.23349 -21.92801,26.38097 3.34414,16.57091 22.03897,10.59879 28.11196,-0.63799 5.22128,-11.39644 16.93685,-18.03855 25.08101,-5.27863 3.94679,14.45337 25.4196,8.27619 27.51854,-3.45412 0.93527,-14.05253 -13.93128,-15.03661 -22.64893,-21.41619 -12.00473,-8.94018 25.72717,0.23925 9.79647,-9.98084 -6.16501,-3.92612 -21.35221,-21.34762 -3.97177,-15.79351 16.0504,7.79459 27.26961,24.65445 29.48,42.25097 1.52106,8.90883 26.08561,-2.4104 17.05837,10.62738 -12.03308,8.3819 -25.37412,14.60113 -38.22007,21.6052 11.7487,1.47078 24.0078,0.76389 35.25194,4.75051 10.92747,6.53202 15.67797,22.93704 0.60914,27.98027 -12.28601,7.41683 -26.46507,11.08797 -40.4181,13.46279 -4.59751,12.41604 -17.80387,18.00762 -24.46905,28.67416 -10.84261,11.45143 -26.94746,14.28088 -41.59877,17.71246 -15.37936,8.0743 10.48257,11.34549 17.56268,9.43572 26.94172,-1.72415 54.0957,-3.60168 80.48455,-9.5288 11.81752,-2.28293 20.16827,-11.12416 28.92306,-18.53671 11.24434,-10.05444 17.56043,8.20371 8.20052,15.07863 -8.23491,8.88456 -17.64226,18.44406 -16.10485,31.76036 -2.74997,12.79588 1.33001,25.54972 14.69711,29.67078 11.07694,4.73711 1.70318,10.12395 -5.82877,8.08815 -16.22161,-1.87579 -2.19786,22.8582 -17.06823,25.7049 -11.37319,-2.9423 -8.64343,-21.5137 -11.29638,-31.37126 -1.63322,-15.09478 -1.83472,-30.30714 -1.89066,-45.46175 -9.07485,-4.52688 -21.00195,-0.0237 -31.0917,0.1266 -19.57859,3.51379 -39.52586,4.02653 -59.17821,6.80694 -11.43165,3.99004 -3.82062,23.21151 4.31877,28.23178 4.59051,2.07967 23.26237,6.17386 9.70704,8.87887 -9.89228,-0.16765 -28.04197,-3.93456 -26.82409,11.79702 -3.74428,8.197 12.58928,26.0271 -1.1395,25.3053 -3.24495,-0.8766 -6.19336,-2.6952 -8.62992,-4.9872 z m 60.50989,-127.2931 c 12.98253,-12.61618 -12.05035,-10.68147 -19.53198,-10.3463 -10.52839,-2.44474 -12.80895,5.77884 -3.21522,9.89989 6.84723,3.55323 15.8612,4.26047 22.7472,0.44641 z m -50.29454,-23.93923 c -0.65763,-14.74545 -19.051503,1.72117 -28.001167,0.19163 -3.979107,-0.60541 -15.851081,2.06629 -5.478102,3.78467 10.90301,0.16032 23.978119,2.62581 33.426139,-2.92273 l 0.0531,-1.05357 z m 56.71918,-6.51523 c 3.57879,-16.75793 -15.93951,-11.42856 -25.93826,-10.77745 -11.1122,-2.89176 -25.96798,18.7896 -10.86631,21.36936 12.07306,1.13843 24.2096,-0.12429 36.3072,-0.2854 0.16579,-3.4355 0.33158,-6.87101 0.49737,-10.30651 z m 32.63992,0.54498 c 12.64256,-7.58915 0.71477,-17.90092 -9.91226,-16.08707 -13.12925,-1.59492 -9.34247,30.84534 4.08577,20.4708 2.07839,-1.2691 3.99137,-2.78899 5.82649,-4.38373 z m -37.43828,-25.11777 c 1.35278,-9.47062 -11.56355,-15.89472 -15.73758,-5.42174 -1.31909,2.09961 -13.47927,7.12008 -7.1314,6.7211 7.61561,-0.17467 15.43343,0.61211 22.86898,-1.29936 z"
       id="path2934" />
  </g>
</svg>
