<?xml version="1.0" encoding="UTF-8" standalone="no"?>
<!-- Created with Inkscape (http://www.inkscape.org/) -->

<svg
   xmlns:dc="http://purl.org/dc/elements/1.1/"
   xmlns:cc="http://creativecommons.org/ns#"
   xmlns:rdf="http://www.w3.org/1999/02/22-rdf-syntax-ns#"
   xmlns:svg="http://www.w3.org/2000/svg"
   xmlns="http://www.w3.org/2000/svg"
   xmlns:sodipodi="http://sodipodi.sourceforge.net/DTD/sodipodi-0.dtd"
   xmlns:inkscape="http://www.inkscape.org/namespaces/inkscape"
   width="300"
   height="300"
   id="svg2"
   version="1.1"
   inkscape:version="0.47 r22583"
   sodipodi:docname="鹿-bigseal.svg">
  <defs
     id="defs4">
    <inkscape:perspective
       sodipodi:type="inkscape:persp3d"
       inkscape:vp_x="0 : 526.18109 : 1"
       inkscape:vp_y="0 : 1000 : 0"
       inkscape:vp_z="744.09448 : 526.18109 : 1"
       inkscape:persp3d-origin="372.04724 : 350.78739 : 1"
       id="perspective10" />
    <inkscape:perspective
       id="perspective2824"
       inkscape:persp3d-origin="0.5 : 0.33333333 : 1"
       inkscape:vp_z="1 : 0.5 : 1"
       inkscape:vp_y="0 : 1000 : 0"
       inkscape:vp_x="0 : 0.5 : 1"
       sodipodi:type="inkscape:persp3d" />
    <inkscape:perspective
       id="perspective2861"
       inkscape:persp3d-origin="0.5 : 0.33333333 : 1"
       inkscape:vp_z="1 : 0.5 : 1"
       inkscape:vp_y="0 : 1000 : 0"
       inkscape:vp_x="0 : 0.5 : 1"
       sodipodi:type="inkscape:persp3d" />
  </defs>
  <sodipodi:namedview
     id="base"
     pagecolor="#ffffff"
     bordercolor="#666666"
     borderopacity="1.0"
     inkscape:pageopacity="0.0"
     inkscape:pageshadow="2"
     inkscape:zoom="1.979899"
     inkscape:cx="170.05914"
     inkscape:cy="156.20854"
     inkscape:document-units="px"
     inkscape:current-layer="layer1"
     showgrid="false"
     inkscape:window-width="1280"
     inkscape:window-height="950"
     inkscape:window-x="0"
     inkscape:window-y="25"
     inkscape:window-maximized="1" />
  <metadata
     id="metadata7">
    <rdf:RDF>
      <cc:Work
         rdf:about="">
        <dc:format>image/svg+xml</dc:format>
        <dc:type
           rdf:resource="http://purl.org/dc/dcmitype/StillImage" />
        <dc:title></dc:title>
      </cc:Work>
    </rdf:RDF>
  </metadata>
  <g
     inkscape:label="Calque 1"
     inkscape:groupmode="layer"
     id="layer1"
     transform="translate(0,-752.36218)">
    <path
       style="fill:#000000"
       d="m 89.293944,1025.7927 c -8.875198,-8.7866 -18.959891,-21.6798 -22.4104,-28.65142 -13.509448,-27.29546 -4.234749,-61.80733 22.206776,-82.63314 6.335827,-4.9902 11.23925,-12.99598 11.23925,-18.35012 0,-8.95748 -1.034745,-9.37964 -18.187563,-7.42008 -23.542615,2.68958 -27.727965,6.5031 -20.980462,19.11666 4.121068,7.70381 4.170738,11.10763 0.211253,14.48008 -8.555087,7.28672 -15.279273,-2.2223 -17.123401,-24.21515 -2.054596,-24.50282 4.648874,-36.23597 26.383903,-46.17984 21.489722,-9.83164 21.34177,-16.91542 -0.353331,-16.91542 -23.953267,0 -31.045319,-6.10252 -32.61182,-28.06165 -1.082173,-15.16976 0.085,-18.91135 6.234146,-19.9844 5.290542,-0.92325 8.387422,1.86336 10.298536,9.26671 5.209263,20.1798 8.328978,21.78241 9.633037,4.94848 1.931221,-24.92986 5.044909,-33.83086 11.834453,-33.83086 7.016971,0 11.421345,8.04565 11.421345,20.86386 0,12.46909 12.298123,7.9517 14.086134,-5.17415 0.80724,-5.92612 4.50082,-10.4942 9.08367,-11.23444 6.10995,-0.98692 7.7092,1.3621 7.65571,11.2448 -0.0772,14.26031 -2.50525,18.09125 -16.70235,26.35185 l -10.149996,5.90578 11.253326,2.40565 c 11.27863,2.41106 15.11639,11.06218 6.83998,15.41887 -11.072307,5.82854 -2.67083,9.70492 18.75654,8.65417 17.06037,-0.83662 23.16983,-2.62299 23.16983,-6.77467 0,-3.10116 -4.46846,-6.17901 -9.92992,-6.83967 -15.22929,-1.84223 -12.42936,-11.95524 3.30998,-11.95524 7.28198,0 13.2399,-1.69155 13.2399,-3.759 0,-2.06745 -3.72875,-3.75899 -8.2862,-3.75899 -12.56215,0 -18.91629,-9.17166 -17.37503,-25.07952 1.86687,-19.26896 15.57379,-22.59425 17.63851,-4.27911 1.84352,16.35259 12.89531,16.34252 17.87219,-0.015 2.70607,-8.89485 5.94295,-12.08374 11.31381,-11.14618 6.0768,1.06079 7.25935,4.79586 6.15078,19.42737 -1.03294,13.63277 0.0591,17.71129 4.41329,16.48588 3.18213,-0.89565 6.7787,-7.39508 7.99235,-14.44334 1.42163,-8.25578 4.95439,-13.26251 9.92994,-14.07298 6.5068,-1.05989 7.70122,1.59772 7.58294,16.87275 -0.16682,21.56309 -6.94487,30.42674 -25.7115,33.6236 -7.62734,1.2993 -13.86788,4.68824 -13.86788,7.53098 0,6.40733 10.52406,6.67692 22.01624,0.564 10.73841,-5.71198 16.49794,-1.46922 20.36572,15.00233 2.41759,10.2959 0.76182,13.68598 -11.41727,23.37618 -7.83471,6.23365 -18.99988,11.33391 -24.81145,11.33391 -13.46762,0 -13.5832,5.1405 -0.23213,10.32178 10.52996,4.08643 24.97201,25.21921 24.97201,36.54097 0,3.4415 -1.95859,9.37438 -4.35245,13.18418 -3.52931,5.61688 -1.43141,9.11146 11.09279,18.47751 8.49495,6.35281 21.37649,14.16296 28.62565,17.35587 13.10962,5.77419 17.14687,14.35753 8.81592,18.74298 -6.69771,3.52566 -35.68278,-9.59857 -49.41693,-22.37569 -9.63326,-8.96195 -13.13593,-10.3252 -16.22427,-6.31461 -6.00337,7.79614 -1.36155,17.22105 15.22559,30.91436 16.66488,13.7575 19.86395,25.994 6.79582,25.994 -12.0751,0 -44.69514,-31.59745 -44.69514,-43.29407 0,-5.29711 4.01235,-16.32995 8.91632,-24.51736 l 8.91628,-14.88619 -21.54022,0 c -11.84711,0 -30.68101,1.06714 -41.8531,2.37141 l -20.312831,2.37138 19.715181,19.19605 c 10.84335,10.55777 19.04587,20.90855 18.22782,23.00171 -3.76918,9.64447 -16.22855,4.5957 -31.9268,-12.93725 -18.319861,-20.46103 -23.995366,-23.18708 -23.995366,-11.52546 0,14.07365 14.865245,39.05028 31.852906,53.51938 9.35845,7.9709 15.83271,16.1225 14.38727,18.1145 -5.68698,7.8375 -19.82503,2.8769 -35.209299,-12.3538 z m 95.703716,-99.74369 c 3.93075,-3.34797 3.23561,-6.19665 -2.92761,-11.99724 -8.45465,-7.95719 -19.95426,-10.2303 -19.95426,-3.94435 0,6.59464 -26.37261,15.45597 -42.68567,14.34254 -10.51417,-0.71761 -16.68925,0.67919 -18.08875,4.09164 -1.73541,4.23134 5.26568,4.88021 38.18829,3.53954 22.2505,-0.90609 42.62291,-3.60887 45.468,-6.03213 z m -41.41773,-24.11483 c 2.91281,-2.48092 5.29596,-7.76699 5.29596,-11.74681 0,-6.12491 -2.15313,-6.8693 -14.02141,-4.84751 -17.3197,2.95033 -17.07247,2.72371 -13.97525,12.81154 2.773,9.0319 14.28554,10.95034 22.7007,3.78278 z M 91.502985,868.85513 c 0,-8.37769 -5.210506,-9.43086 -17.943345,-3.62675 -12.63519,5.75959 -10.362499,11.14471 4.70344,11.14471 10.297701,0 13.239905,-1.67064 13.239905,-7.51796 z m 61.062995,-7.05358 c 1.4367,-8.65199 0.81179,-8.84791 -19.85986,-6.22662 -24.83568,3.14934 -25.51224,3.50282 -21.92886,11.45641 2.02474,4.49416 7.47203,5.72524 21.5084,4.86085 15.95674,-0.98268 19.02103,-2.50735 20.28032,-10.09064 z m 38.23627,-2.34388 c 0,-2.06745 -4.46847,-4.29954 -9.92993,-4.96017 -6.83249,-0.82653 -9.92993,0.72071 -9.92993,4.96017 0,4.23944 3.09744,5.7867 9.92993,4.96015 5.46146,-0.66063 9.92993,-2.89273 9.92993,-4.96015 z"
       id="path2867" />
  </g>
</svg>
