<?xml version="1.0" encoding="UTF-8" standalone="no"?>
<!-- Created with Inkscape (http://www.inkscape.org/) -->

<svg
   xmlns:dc="http://purl.org/dc/elements/1.1/"
   xmlns:cc="http://creativecommons.org/ns#"
   xmlns:rdf="http://www.w3.org/1999/02/22-rdf-syntax-ns#"
   xmlns:svg="http://www.w3.org/2000/svg"
   xmlns="http://www.w3.org/2000/svg"
   version="1.1"
   width="300"
   height="300"
   id="svg2">
  <defs
     id="defs4" />
  <metadata
     id="metadata7">
    <rdf:RDF>
      <cc:Work
         rdf:about="">
        <dc:format>image/svg+xml</dc:format>
        <dc:type
           rdf:resource="http://purl.org/dc/dcmitype/StillImage" />
        <dc:title></dc:title>
      </cc:Work>
    </rdf:RDF>
  </metadata>
  <g
     transform="translate(0,-752.36218)"
     id="layer1">
    <path
       d="M 206.65533,1026.3626 C 193.31714,1011.1601 168.12602,977.31266 158.10154,960.07143 158.10154,960.07143 155.00155,949.51649 150.8172,946.36798 149.02166,945.01693 137.83793,947.14679 137.83793,947.14679 118.31678,948.1829 119.54809,950.29598 112.30937,953.34271 99.203783,958.85878 90.464571,958.81725 90.464571,953.23889 90.464571,949.73639 101.16312,945.36042 117.9357,941.69714 138.3204,937.24495 141.4078,938.39928 141.4078,931.55593 141.4078,928.05709 139.02044,918.97888 136.85058,916.3191 132.58324,911.08828 122.42092,915.16328 102.9702,923.33297 93.50452,927.30875 88.210171,926.19041 88.210171,921.30353 88.210171,917.43206 96.949695,912.85958 113.60191,908.01864 120.5723,905.99229 124.60714,907.24396 127.14271,902.97715 128.84189,900.11781 127.279,894.02472 124.7954,887.49236 123.00195,882.77522 120.17885,881.18554 123.33604,880.69608 133.76671,879.07902 133.13785,882.72908 138.4701,893.72518 140.8863,898.70783 143.1261,897.85905 158.68845,895.87072 178.30848,893.36395 177.74528,893.73745 178.41174,886.91193 178.63282,884.64775 175.90879,881.36311 176.54061,879.98954 178.68984,875.31699 186.14961,876.98579 189.78713,882.30451 191.45047,884.73663 194.15359,888.27985 194.15941,892.31324 194.16946,899.28031 196.6965,904.49484 197.59896,908.52524 199.05763,915.03956 198.33132,916.68541 191.05797,923.34753 186.55795,927.4694 178.27568,933.1394 172.65293,935.94753 167.14482,938.69842 162.78486,937.57959 162.97428,941.17078 163.66301,954.22835 169.93884,959.30508 187.82086,983.94073 196.64831,996.10215 209.0454,1012.7424 214.92108,1019.2733 223.75674,1029.0943 225.73642,1031.481 223.44192,1034.2457 219.09022,1039.4891 217.65784,1038.903 206.65533,1026.3626 z M 169.42229,922.83143 C 172.47664,921.27321 177.17548,919.75635 179.2227,916.75996 182.61744,911.79131 182.1478,904.65132 180.00186,902.50538 179.35276,901.85628 171.37752,904.7275 162.57831,905.59455 154.07068,906.43287 147.95948,905.54005 145.8782,907.50399 143.68481,909.57372 146.0766,914.87149 149.16241,920.8388 153.22193,928.68905 157.49422,928.91669 169.42229,922.83143 z M 73.932308,896.3127 C 71.11975,893.50015 72.42233,890.95934 82.010574,880.55531 92.60772,869.05653 116.24703,852.51114 122.29004,852.72764 135.95584,853.21726 138.56611,844.85365 128.08046,837.33983 124.79391,834.98475 121.80053,830.44876 119.32593,830.21081 115.89751,829.88113 110.58633,835.84453 103.02404,841.22112 93.712754,847.8412 92.969666,847.54852 90.449674,845.02853 86.650472,841.22933 89.237147,836.07795 95.660989,832.70472 98.382597,831.27557 104.66728,827.11394 109.62696,823.45666 121.04453,815.0373 123.87296,815.03139 130.07526,823.42046 132.82541,827.14022 138.85328,832.11425 141.34299,832.38693 146.93107,832.99895 144.36343,831.27225 144.85349,817.46567 143.78084,803.75513 147.55788,803.30087 134.54777,803.6279 128.95482,803.76849 117.48985,807.72084 105.1585,813.63521 85.548396,823.04062 79.192574,824.58349 79.192574,817.89319 79.192574,813.66041 94.768367,805.72196 119.24764,797.47848 135.23581,792.09441 138.80306,794.40651 139.90525,785.20841 141.58484,771.19189 143.97597,768.16115 148.61225,767.47771 152.31243,766.93226 153.75659,768.23819 154.8448,773.11372 155.62384,776.60398 156.24776,782.93244 156.82975,785.08249 157.81104,788.70774 170.66502,794.15199 206.39532,810.24494 217.00654,815.02425 222.19897,817.48277 222.19897,820.94936 222.19897,828.19608 216.78324,826.8152 187.05418,812.00055 171.96181,804.47968 162.62754,798.10309 155.25418,799.24478 151.6842,799.79756 151.83284,834.70593 154.92371,836.61618 155.7388,837.11992 158.84037,836.15066 161.30188,833.94536 162.88916,832.5233 163.70973,830.15825 165.15204,828.77643 165.15204,828.77643 168.7839,824.61928 171.84113,824.18548 176.62887,823.50615 184.69484,829.09376 184.69484,829.09376 193.71183,833.81204 198.98762,837.82333 199.49298,841.38167 200.47714,848.31123 191.88069,847.44565 182.56003,839.55781 176.67458,834.5771 175.96834,833.59487 171.85671,836.32491 167.41131,839.27654 161.37475,843.98001 163.84505,846.49547 165.75089,848.43615 173.47797,849.89629 179.82241,852.06946 195.41454,857.41022 221.25852,871.01281 225.76235,876.43959 228.28256,879.47626 227.993,880.77233 223.87418,884.89115 L 219.00931,889.75603 210.53333,881.62566 C 197.83042,869.44071 163.74427,853.71374 157.55698,857.5377 156.34453,858.28703 154.86292,863.81204 154.86292,869.2171 154.86292,881.94768 153.11641,887.40047 147.85853,887.40047 144.23679,887.40047 144.57016,884.82702 144.57016,875.20089 144.57016,867.32627 144.78588,862.24717 142.49644,861.36863 136.40166,859.02984 118.00951,865.91752 103.20551,875.9154 95.982183,880.79367 91.198575,886.59893 86.054832,892.07419 80.676208,897.79947 76.780997,899.16139 73.932308,896.3127 z"
       id="path3833"
       style="fill:#000000" />
  </g>
</svg>
