<?xml version="1.0" encoding="UTF-8" standalone="no"?>
<!-- Created with Inkscape (http://www.inkscape.org/) -->
<svg
   xmlns:dc="http://purl.org/dc/elements/1.1/"
   xmlns:cc="http://creativecommons.org/ns#"
   xmlns:rdf="http://www.w3.org/1999/02/22-rdf-syntax-ns#"
   xmlns:svg="http://www.w3.org/2000/svg"
   xmlns="http://www.w3.org/2000/svg"
   xmlns:sodipodi="http://sodipodi.sourceforge.net/DTD/sodipodi-0.dtd"
   xmlns:inkscape="http://www.inkscape.org/namespaces/inkscape"
   width="300"
   height="300"
   id="svg2400"
   sodipodi:version="0.32"
   inkscape:version="0.46"
   version="1.0"
   sodipodi:docname="麻-bigseal.svg"
   inkscape:output_extension="org.inkscape.output.svg.inkscape">
  <defs
     id="defs2402">
    <inkscape:perspective
       sodipodi:type="inkscape:persp3d"
       inkscape:vp_x="0 : 526.18109 : 1"
       inkscape:vp_y="0 : 1000 : 0"
       inkscape:vp_z="744.09448 : 526.18109 : 1"
       inkscape:persp3d-origin="372.04724 : 350.78739 : 1"
       id="perspective2408" />
    <inkscape:perspective
       id="perspective3684"
       inkscape:persp3d-origin="372.04724 : 350.78739 : 1"
       inkscape:vp_z="744.09448 : 526.18109 : 1"
       inkscape:vp_y="0 : 1000 : 0"
       inkscape:vp_x="0 : 526.18109 : 1"
       sodipodi:type="inkscape:persp3d" />
    <inkscape:perspective
       id="perspective3736"
       inkscape:persp3d-origin="372.04724 : 350.78739 : 1"
       inkscape:vp_z="744.09448 : 526.18109 : 1"
       inkscape:vp_y="0 : 1000 : 0"
       inkscape:vp_x="0 : 526.18109 : 1"
       sodipodi:type="inkscape:persp3d" />
    <inkscape:perspective
       id="perspective2478"
       inkscape:persp3d-origin="372.04724 : 350.78739 : 1"
       inkscape:vp_z="744.09448 : 526.18109 : 1"
       inkscape:vp_y="0 : 1000 : 0"
       inkscape:vp_x="0 : 526.18109 : 1"
       sodipodi:type="inkscape:persp3d" />
    <inkscape:perspective
       id="perspective2513"
       inkscape:persp3d-origin="372.04724 : 350.78739 : 1"
       inkscape:vp_z="744.09448 : 526.18109 : 1"
       inkscape:vp_y="0 : 1000 : 0"
       inkscape:vp_x="0 : 526.18109 : 1"
       sodipodi:type="inkscape:persp3d" />
  </defs>
  <sodipodi:namedview
     id="base"
     pagecolor="#ffffff"
     bordercolor="#666666"
     borderopacity="1.0"
     gridtolerance="10000"
     guidetolerance="10"
     objecttolerance="10"
     inkscape:pageopacity="0.0"
     inkscape:pageshadow="2"
     inkscape:zoom="1.979899"
     inkscape:cx="270.38718"
     inkscape:cy="109.1957"
     inkscape:document-units="px"
     inkscape:current-layer="layer1"
     showgrid="false"
     width="300px"
     inkscape:window-width="1680"
     inkscape:window-height="979"
     inkscape:window-x="0"
     inkscape:window-y="25" />
  <metadata
     id="metadata2405">
    <rdf:RDF>
      <cc:Work
         rdf:about="">
        <dc:format>image/svg+xml</dc:format>
        <dc:type
           rdf:resource="http://purl.org/dc/dcmitype/StillImage" />
      </cc:Work>
    </rdf:RDF>
  </metadata>
  <g
     inkscape:label="Layer 1"
     inkscape:groupmode="layer"
     id="layer1">
    <path
       style="fill:#000000"
       d="M 49.666535,278.3163 C 47.098031,273.51702 46.870532,259.78174 49.041969,240.60755 C 50.920516,224.01966 51.421749,182.33955 50.15583,147.98508 C 46.73384,55.119183 49.254696,51.483665 122.1999,44.085004 C 147.58612,41.510139 151.51692,40.077455 150.43854,33.792685 C 148.95641,25.154945 156.4328,15 164.2743,15 C 167.85089,15 169.82545,19.658927 169.82511,28.097014 L 169.82458,41.194029 L 211.13108,41.194029 C 249.75101,41.194029 252.43758,41.718232 252.43758,49.253731 C 252.43758,56.960966 248.91293,57.423386 171.84056,59.827691 C 127.51221,61.210536 87.931122,63.72465 83.882603,65.414617 C 71.941284,70.399256 69.102356,84.922456 68.675523,143.21011 C 67.86753,253.5474 61.319209,300.08954 49.666535,278.3163 z M 198.0346,214.47761 C 198.0346,148.17483 197.58187,143.95523 190.46833,143.95523 C 179.19719,143.95523 174.94325,136.39375 171.7646,110.70895 C 169.3891,91.513915 169.93551,87.537313 174.94851,87.537313 C 179.01328,87.537313 181.8753,93.373827 183.66595,105.3147 C 187.83852,133.13944 196.46516,131.86646 199.48433,102.9805 C 200.87484,89.676807 203.05623,77.103229 204.33187,75.039206 C 209.53942,66.613224 214.154,77.218241 214.154,97.611938 C 214.154,109.54063 215.82123,120.33087 217.85897,121.59025 C 225.01043,126.01011 234.30325,111.15842 234.30325,95.309168 C 234.30325,84.463649 236.07122,79.477608 239.91688,79.477608 C 250.592,79.477608 253.66515,101.2123 246.07044,122.99849 C 242.96793,131.89834 237.76079,136.78932 227.93611,140.03176 L 214.154,144.58027 L 214.154,214.79013 C 214.154,282.31343 213.84559,285 206.09429,285 C 198.34162,285 198.0346,282.31343 198.0346,214.47761 z M 113.40773,214.35113 L 113.40773,147.98508 L 103.47489,147.98508 C 98.01182,147.98508 91.843787,144.81157 89.768134,140.93284 C 83.871227,129.91338 80.541603,98.213497 84.634576,92.058339 C 90.962985,82.541423 97.28832,91.264205 97.28832,109.50817 C 97.28832,121.71679 99.20688,127.70975 103.66269,129.41959 C 113.3495,133.13678 113.40391,133.05528 113.46276,114.7388 C 113.53651,91.781919 117.19684,79.477608 123.95236,79.477608 C 128.0794,79.477608 129.52713,85.756755 129.52713,103.65671 C 129.52713,121.55667 130.97486,127.83582 135.1019,127.83582 C 141.4512,127.83582 145.51108,115.74809 145.5915,96.604473 C 145.66184,79.865548 156.07731,78.870743 159.67681,95.259155 C 165.33481,121.01985 152.93008,152.01492 136.96226,152.01492 C 130.13587,152.01492 129.52713,156.0979 129.52713,201.88432 C 129.52713,257.99292 127.13062,275.45123 119.00029,278.57113 C 114.36963,280.34809 113.40773,269.30255 113.40773,214.35113 z M 80.255537,227.57463 C 81.635822,176.68077 83.91203,161.19391 89.225641,166.54397 C 94.44004,171.79414 101.98563,238.53116 98.84881,251.6563 C 95.67109,264.95263 89.97443,272.91044 83.63387,272.91044 C 80.3768,272.91044 79.386441,259.6202 80.255537,227.57463 z M 140.38865,266.07093 C 137.29418,260.98053 139.2632,165.11288 142.52929,161.84774 C 148.57817,155.80061 151.69131,175.61758 151.69131,220.16929 C 151.69131,251.42892 150.19615,266.66339 147.0233,267.73276 C 144.45589,268.59807 141.47029,267.85024 140.38865,266.07093 z M 168.91176,266.07093 C 167.55661,263.41788 167.98808,177.40626 169.40811,167.12686 C 169.63775,165.46455 172.39107,164.10448 175.52659,164.10448 C 187.55196,164.10448 187.26898,263.75957 175.23225,267.75613 C 172.66484,268.60857 169.82062,267.85024 168.91176,266.07093 z M 232.86299,261.75071 C 229.6375,256.53176 228.39809,160.60665 231.51585,157.48889 C 237.80055,151.20419 241.76583,163.7515 245.97018,203.22671 C 248.83516,230.12636 249.00364,247.9091 246.45699,254.60731 C 242.62506,264.68603 236.62555,267.83867 232.86299,261.75071 z"
       id="path2521" />
  </g>
</svg>
