<?xml version="1.0" encoding="UTF-8" standalone="no"?>
<!-- Created with Inkscape (http://www.inkscape.org/) -->
<svg
   xmlns:dc="http://purl.org/dc/elements/1.1/"
   xmlns:cc="http://creativecommons.org/ns#"
   xmlns:rdf="http://www.w3.org/1999/02/22-rdf-syntax-ns#"
   xmlns:svg="http://www.w3.org/2000/svg"
   xmlns="http://www.w3.org/2000/svg"
   xmlns:sodipodi="http://sodipodi.sourceforge.net/DTD/sodipodi-0.dtd"
   xmlns:inkscape="http://www.inkscape.org/namespaces/inkscape"
   width="300"
   height="300"
   id="svg2400"
   sodipodi:version="0.32"
   inkscape:version="0.46"
   version="1.0"
   sodipodi:docname="麻-oracle.svg"
   inkscape:output_extension="org.inkscape.output.svg.inkscape">
  <defs
     id="defs2402">
    <inkscape:perspective
       sodipodi:type="inkscape:persp3d"
       inkscape:vp_x="0 : 526.18109 : 1"
       inkscape:vp_y="0 : 1000 : 0"
       inkscape:vp_z="744.09448 : 526.18109 : 1"
       inkscape:persp3d-origin="372.04724 : 350.78739 : 1"
       id="perspective2408" />
    <inkscape:perspective
       id="perspective3684"
       inkscape:persp3d-origin="372.04724 : 350.78739 : 1"
       inkscape:vp_z="744.09448 : 526.18109 : 1"
       inkscape:vp_y="0 : 1000 : 0"
       inkscape:vp_x="0 : 526.18109 : 1"
       sodipodi:type="inkscape:persp3d" />
    <inkscape:perspective
       id="perspective3736"
       inkscape:persp3d-origin="372.04724 : 350.78739 : 1"
       inkscape:vp_z="744.09448 : 526.18109 : 1"
       inkscape:vp_y="0 : 1000 : 0"
       inkscape:vp_x="0 : 526.18109 : 1"
       sodipodi:type="inkscape:persp3d" />
    <inkscape:perspective
       id="perspective2478"
       inkscape:persp3d-origin="372.04724 : 350.78739 : 1"
       inkscape:vp_z="744.09448 : 526.18109 : 1"
       inkscape:vp_y="0 : 1000 : 0"
       inkscape:vp_x="0 : 526.18109 : 1"
       sodipodi:type="inkscape:persp3d" />
  </defs>
  <sodipodi:namedview
     id="base"
     pagecolor="#ffffff"
     bordercolor="#666666"
     borderopacity="1.0"
     gridtolerance="10000"
     guidetolerance="10"
     objecttolerance="10"
     inkscape:pageopacity="0.0"
     inkscape:pageshadow="2"
     inkscape:zoom="1.979899"
     inkscape:cx="270.38718"
     inkscape:cy="109.1957"
     inkscape:document-units="px"
     inkscape:current-layer="layer1"
     showgrid="false"
     width="300px"
     inkscape:window-width="1680"
     inkscape:window-height="979"
     inkscape:window-x="0"
     inkscape:window-y="25" />
  <metadata
     id="metadata2405">
    <rdf:RDF>
      <cc:Work
         rdf:about="">
        <dc:format>image/svg+xml</dc:format>
        <dc:type
           rdf:resource="http://purl.org/dc/dcmitype/StillImage" />
      </cc:Work>
    </rdf:RDF>
  </metadata>
  <g
     inkscape:label="Layer 1"
     inkscape:groupmode="layer"
     id="layer1">
    <path
       style="fill:#000000"
       d="M 167.93684,282.71878 C 165.8544,280.63637 163.56405,274.7738 162.84716,269.69088 C 161.95827,238.72867 160.17031,200.8559 164.90859,170.16133 C 166.14724,163.92641 165.72218,158.80766 163.64322,154.9231 C 161.10806,150.1861 161.10627,148.35836 163.63386,145.31281 C 168.23606,139.76749 171.29236,140.17344 185.48372,148.215 C 186.00228,148.50884 185.20356,151.81835 183.70878,155.56946 C 182.214,159.32057 180.39995,178.93721 179.67757,199.16199 C 177.74171,253.36012 175.67772,282.25758 173.58168,284.50883 C 172.55945,285.60673 170.01928,284.80122 167.93684,282.71878 z M 124.81426,278.2225 C 122.74687,274.35057 121.71012,250.78777 121.33564,199.16199 C 120.96997,148.75078 119.97455,125.61733 118.17106,125.61733 C 112.37079,125.61733 98.020209,113.26441 95.398819,106.01508 C 93.864991,101.77336 92.610043,90.383196 92.610043,80.70361 C 92.610043,63.678879 92.805387,63.104368 98.594089,63.104368 C 107.0061,63.104368 108.49779,66.876956 107.62676,85.948752 C 107.02297,99.169331 107.7593,103.65442 111.14835,107.39928 C 118.51716,115.54173 122.84775,113.53642 120.77614,102.94106 C 118.4694,91.14304 118.30723,70.946438 120.45066,62.406309 C 123.94528,48.482669 139.71434,57.146961 138.9602,72.576342 C 137.98683,92.490661 139.27234,107.23116 141.98243,107.23116 C 147.96629,107.23116 151.29143,98.312111 151.3678,82.0567 L 151.44577,65.462445 L 158.18737,67.079761 C 161.89525,67.969286 165.48055,69.193123 166.15471,69.799398 C 168.59591,71.994785 166.60261,105.49082 163.70903,110.89754 C 162.07669,113.9476 156.72013,118.56058 151.80556,121.14863 L 142.86997,125.85418 L 142.31794,197.43184 C 140.92518,205.62038 146.28632,279.89328 132.6567,283.73835 C 129.96318,283.73835 126.43408,281.25622 124.81426,278.2225 z M 206.04708,279.49311 C 204.17894,274.62482 204.08029,267.27656 204.93567,196.7105 C 205.88178,118.65999 206.05634,121.9401 200.95645,121.9401 C 196.23756,121.9401 183.25133,109.51463 178.70631,100.65073 C 173.21611,89.943502 178.08284,58.20139 185.2147,58.20139 C 189.45811,58.20139 190.16897,61.053193 191.61471,83.876857 C 192.5505,98.649931 193.89811,104.18789 197.13277,106.55313 C 199.48671,108.27437 202.24712,109.68266 203.26702,109.68266 C 204.28693,109.68266 205.14546,98.048681 205.17489,83.829391 C 205.20432,69.610097 205.87128,56.935905 206.65704,55.664519 C 207.47769,54.336675 210.63952,55.026245 214.08657,57.28484 C 219.66369,60.939113 220.08746,62.668341 220.08746,81.772479 C 220.08746,102.52023 222.02939,106.92212 226.72243,96.812341 C 233.24405,82.763422 234.79639,76.731716 234.79639,65.440507 C 234.79639,55.496633 235.57308,53.305209 239.0865,53.335953 C 246.39171,53.399873 249.26965,56.790155 249.52324,65.630681 C 250.0608,84.370986 241.72526,105.21712 227.9876,119.4886 L 222.08812,125.61733 L 221.29659,197.97549 C 220.4952,271.23613 218.99955,283.73835 211.03681,283.73835 C 209.18844,283.73835 206.94306,281.82798 206.04708,279.49311 z M 240.8978,278.2225 C 240.15723,275.18878 239.1476,253.95276 238.65417,231.03134 C 238.16073,208.10993 236.95328,180.32659 235.97095,169.29061 C 233.73479,144.16869 235.44805,136.04539 242.7596,137.10276 C 251.20152,138.32359 251.30385,140.23805 249.71272,267.1908 C 249.55121,280.07745 248.70212,283.73835 245.8748,283.73835 C 243.87801,283.73835 241.63836,281.25622 240.8978,278.2225 z M 57.030883,259.83633 C 55.563629,252.32069 54.516356,211.756 55.480253,199.77486 C 55.615846,198.08946 55.214671,190.09148 54.588754,182.00156 C 53.962836,173.91166 53.270084,159.57045 53.049303,150.13221 C 52.828523,140.69399 51.7003,131.74289 50.542141,130.24089 C 48.561191,127.67184 49.590086,57.84869 51.900115,38.085791 C 53.279294,26.286562 54.421909,24.675939 65.197126,19.342421 C 72.932725,15.513451 79.483657,14.967989 110.99621,15.528981 C 131.22099,15.889024 149.97488,16.341968 152.67152,16.535523 C 155.36816,16.729078 174.35627,16.259265 194.86734,15.491492 C 235.75278,13.961068 244.60235,15.688475 244.60235,25.199622 C 244.60235,35.571933 241.05335,36.135205 185.56774,34.569172 C 112.11695,32.496085 93.942358,33.015985 79.378611,37.606802 C 67.384621,41.387576 66.728664,42.023642 67.329615,49.29045 C 67.679164,53.517309 68.497935,92.277081 69.149104,135.42328 C 69.800272,178.56949 71.033978,223.35753 71.890675,234.95228 C 73.372418,255.00651 73.154908,256.3502 67.426257,262.53153 C 64.114128,266.10536 60.824023,269.02942 60.114911,269.02942 C 59.405799,269.02942 58.017986,264.89253 57.030883,259.83633 z M 90.032547,256.15911 C 90.117908,249.08043 89.511454,221.18272 88.684871,194.1642 C 87.364462,151.00398 87.656467,144.64583 91.089925,141.79631 C 93.393919,139.88417 97.499349,139.18085 101.09261,140.0827 C 107.81068,141.76883 107.68352,138.67165 103.71974,204.06497 C 103.06591,214.85152 103.38746,232.2553 104.43427,242.74005 C 106.0437,258.85984 105.72114,262.36107 102.34513,265.41632 C 100.1493,267.40352 96.445749,269.02942 94.115024,269.02942 C 90.617521,269.02942 89.904454,266.78142 90.032547,256.15911 z"
       id="path2484"
       sodipodi:nodetypes="cccssssssccssssssssssscccssccccccssssssssssssssscccsccsssssccsssssssssssssssssccsssssssc" />
  </g>
</svg>
