<?xml version="1.0" encoding="UTF-8" standalone="no"?>
<!-- Created with Inkscape (http://www.inkscape.org/) -->
<svg
   xmlns:dc="http://purl.org/dc/elements/1.1/"
   xmlns:cc="http://creativecommons.org/ns#"
   xmlns:rdf="http://www.w3.org/1999/02/22-rdf-syntax-ns#"
   xmlns:svg="http://www.w3.org/2000/svg"
   xmlns="http://www.w3.org/2000/svg"
   xmlns:sodipodi="http://sodipodi.sourceforge.net/DTD/sodipodi-0.dtd"
   xmlns:inkscape="http://www.inkscape.org/namespaces/inkscape"
   width="300"
   height="300"
   id="svg2400"
   sodipodi:version="0.32"
   inkscape:version="0.46"
   version="1.0"
   sodipodi:docname="麻-seal.svg"
   inkscape:output_extension="org.inkscape.output.svg.inkscape">
  <defs
     id="defs2402">
    <inkscape:perspective
       sodipodi:type="inkscape:persp3d"
       inkscape:vp_x="0 : 526.18109 : 1"
       inkscape:vp_y="0 : 1000 : 0"
       inkscape:vp_z="744.09448 : 526.18109 : 1"
       inkscape:persp3d-origin="372.04724 : 350.78739 : 1"
       id="perspective2408" />
    <inkscape:perspective
       id="perspective3684"
       inkscape:persp3d-origin="372.04724 : 350.78739 : 1"
       inkscape:vp_z="744.09448 : 526.18109 : 1"
       inkscape:vp_y="0 : 1000 : 0"
       inkscape:vp_x="0 : 526.18109 : 1"
       sodipodi:type="inkscape:persp3d" />
    <inkscape:perspective
       id="perspective3736"
       inkscape:persp3d-origin="372.04724 : 350.78739 : 1"
       inkscape:vp_z="744.09448 : 526.18109 : 1"
       inkscape:vp_y="0 : 1000 : 0"
       inkscape:vp_x="0 : 526.18109 : 1"
       sodipodi:type="inkscape:persp3d" />
    <inkscape:perspective
       id="perspective2478"
       inkscape:persp3d-origin="372.04724 : 350.78739 : 1"
       inkscape:vp_z="744.09448 : 526.18109 : 1"
       inkscape:vp_y="0 : 1000 : 0"
       inkscape:vp_x="0 : 526.18109 : 1"
       sodipodi:type="inkscape:persp3d" />
    <inkscape:perspective
       id="perspective2513"
       inkscape:persp3d-origin="372.04724 : 350.78739 : 1"
       inkscape:vp_z="744.09448 : 526.18109 : 1"
       inkscape:vp_y="0 : 1000 : 0"
       inkscape:vp_x="0 : 526.18109 : 1"
       sodipodi:type="inkscape:persp3d" />
    <inkscape:perspective
       id="perspective2550"
       inkscape:persp3d-origin="372.04724 : 350.78739 : 1"
       inkscape:vp_z="744.09448 : 526.18109 : 1"
       inkscape:vp_y="0 : 1000 : 0"
       inkscape:vp_x="0 : 526.18109 : 1"
       sodipodi:type="inkscape:persp3d" />
  </defs>
  <sodipodi:namedview
     id="base"
     pagecolor="#ffffff"
     bordercolor="#666666"
     borderopacity="1.0"
     gridtolerance="10000"
     guidetolerance="10"
     objecttolerance="10"
     inkscape:pageopacity="0.0"
     inkscape:pageshadow="2"
     inkscape:zoom="1.979899"
     inkscape:cx="270.38718"
     inkscape:cy="109.1957"
     inkscape:document-units="px"
     inkscape:current-layer="layer1"
     showgrid="false"
     width="300px"
     inkscape:window-width="1680"
     inkscape:window-height="979"
     inkscape:window-x="0"
     inkscape:window-y="25" />
  <metadata
     id="metadata2405">
    <rdf:RDF>
      <cc:Work
         rdf:about="">
        <dc:format>image/svg+xml</dc:format>
        <dc:type
           rdf:resource="http://purl.org/dc/dcmitype/StillImage" />
      </cc:Work>
    </rdf:RDF>
  </metadata>
  <g
     inkscape:label="Layer 1"
     inkscape:groupmode="layer"
     id="layer1">
    <path
       style="fill:#000000"
       d="M 80.34883,282.69748 C 78.544588,280.52351 78.720328,271.72864 80.956631,252.28068 C 85.927121,209.05505 88.050105,144.2395 86.159739,93.427924 C 84.785428,56.487825 87.174589,45.926101 97.920753,41.436068 C 102.3955,39.566397 113.98096,38.138041 124.67122,38.138041 C 145.1171,38.138041 146.41695,37.281428 146.41695,23.807369 C 146.41695,20.0656 147.55516,16.300704 148.9463,15.44093 C 153.00499,12.932522 160.69345,21.633166 160.69345,28.734589 C 160.69345,32.480334 162.29322,35.863375 164.45717,36.693762 C 166.52723,37.488116 179.40967,38.138041 193.08484,38.138041 C 213.29998,38.138041 218.21221,38.824545 219.35775,41.809784 C 220.1327,43.829244 220.08425,46.164005 219.25012,46.998142 C 218.41598,47.832282 205.70254,48.365821 190.99804,48.183786 C 151.96359,47.700557 105.89885,51.462815 101.90105,55.460626 C 99.253553,58.108118 98.480659,73.75647 97.987188,134.70263 C 97.341792,214.41241 95.637258,249.56317 91.722088,263.90122 C 90.429124,268.6363 89.089989,275.10344 88.746253,278.27263 C 88.019886,284.96954 83.994719,287.0905 80.34883,282.69748 z M 128.71439,273.93164 C 127.89888,272.61212 127.26731,237.44373 127.3109,195.77967 L 127.39016,120.02684 L 117.86822,111.00389 C 112.63117,106.04127 108.3463,99.7381 108.3463,96.996847 C 108.3463,94.255598 107.0433,88.40937 105.45074,84.005234 C 102.54353,75.965475 104.34498,69.214509 109.89085,67.365887 C 113.64815,66.113453 117.86396,77.768008 117.86396,89.407432 C 117.86396,98.2413 118.61774,100.00285 122.3978,100.00285 C 126.56137,100.00285 126.84167,98.49689 125.83018,81.562374 C 124.63602,61.569461 126.93983,54.249278 132.87574,59.175645 C 135.03476,60.967472 136.72275,67.866154 137.32803,77.371783 C 137.86421,85.792366 139.11605,93.495076 140.10989,94.488917 C 143.29085,97.66988 146.34297,89.640894 146.38051,77.99325 C 146.4118,68.28945 147.08997,66.691027 151.17579,66.691027 C 155.52922,66.691027 155.93462,68.277305 155.93462,85.311586 C 155.93462,101.60765 155.26629,104.53373 150.58093,108.75118 C 147.6364,111.40164 143.29504,114.25394 140.93347,115.08961 C 136.92762,116.50713 136.72572,119.8415 137.92237,164.81704 C 139.48469,223.53526 139.30774,250.15022 137.26303,263.98883 C 135.75764,274.17728 131.74826,278.84055 128.71439,273.93164 z M 184.20774,261.20824 C 183.55756,226.65736 182.90146,184.65939 182.51811,153.05299 C 182.12853,120.93249 181.82798,118.97427 176.46428,113.61057 C 167.55226,104.69856 165.45228,98.95711 165.45228,83.503361 C 165.45228,70.65672 165.97531,69.070442 170.21111,69.070442 C 174.34366,69.070442 174.96994,70.65672 174.96994,81.123945 C 174.96994,93.369511 178.03178,102.38226 182.1919,102.38226 C 183.48387,102.38226 184.4876,93.666807 184.4876,82.448575 C 184.4876,67.492045 185.39312,61.763378 188.11423,59.505059 C 190.10886,57.849652 192.41085,57.165225 193.22973,57.984108 C 194.04862,58.802993 194.5435,69.127575 194.32947,80.927624 C 194.11544,92.727674 194.75798,102.36586 195.75735,102.34583 C 201.52697,102.23013 204.07202,97.2545 204.07202,86.090408 C 204.07202,71.325474 208.22896,64.089772 213.97281,68.856752 C 218.5304,72.639212 219.02061,87.046824 215.04337,100.32164 C 213.00014,107.14134 211.00008,109.54008 207.31027,109.59617 C 204.57289,109.6378 200.41115,111.12957 198.06195,112.91122 C 194.14557,115.88144 193.80126,121.13546 193.91787,176.14945 C 193.98781,209.14883 194.65911,237.1419 195.40963,238.35627 C 196.16015,239.57065 196.02541,248.55518 195.11019,258.32192 C 193.68465,273.5346 192.8042,276.07959 188.96688,276.07959 C 185.08843,276.07959 184.45006,274.08484 184.20774,261.20824 z M 211.9033,267.27359 C 207.81842,257.20119 201.26013,192.69282 200.58239,155.91911 C 200.16481,133.26239 206.11389,116.07717 212.25035,122.21362 C 213.42032,123.38359 213.38217,147.54758 212.16709,174.95443 C 211.99303,178.88047 213.80521,197.61837 216.19418,216.5942 C 222.11955,263.66021 222.26911,269.84902 217.50396,270.79068 C 215.37844,271.21071 212.85814,269.62802 211.9033,267.27359 z M 106.2432,258.56692 C 104.29464,256.21904 104.20335,249.19801 105.91063,232.98821 C 107.20489,220.69981 108.28239,192.17545 108.30507,169.60075 L 108.3463,128.55583 L 114.24951,128.55583 C 118.52523,128.55583 120.55496,130.15853 121.61176,134.36913 C 122.41424,137.56645 122.19517,141.58171 121.12496,143.29194 C 120.05475,145.00217 118.4491,169.95766 117.55686,198.74859 C 115.66183,259.89733 114.1187,268.0563 106.2432,258.56692 z M 148.01706,260.01854 C 144.01646,253.28434 140.68521,131.60059 144.33959,125.68768 C 145.86246,123.22361 146.80154,123.22953 149.29214,125.71891 C 152.64471,129.06984 157.00672,236.04329 154.47735,252.88029 C 153.22918,261.18888 150.50229,264.20194 148.01706,260.01854 z M 164.00422,258.41874 C 163.2157,256.36387 162.60021,252.26949 162.63647,249.32007 C 163.22153,201.73068 162.95364,168.49918 161.84206,150.77339 C 160.42262,128.13822 162.4512,122.1556 169.24285,128.94724 C 171.90522,131.60961 172.69796,145.19784 173.17849,196.40828 C 173.73679,255.90591 173.4791,260.59388 169.60906,261.34511 C 167.31492,261.79044 164.79274,260.47358 164.00422,258.41874 z"
       id="path2556" />
  </g>
</svg>
