<?xml version="1.0" encoding="UTF-8" standalone="no"?>
<!-- Created with Inkscape (http://www.inkscape.org/) -->

<svg
   xmlns:dc="http://purl.org/dc/elements/1.1/"
   xmlns:cc="http://creativecommons.org/ns#"
   xmlns:rdf="http://www.w3.org/1999/02/22-rdf-syntax-ns#"
   xmlns:svg="http://www.w3.org/2000/svg"
   xmlns="http://www.w3.org/2000/svg"
   xmlns:sodipodi="http://sodipodi.sourceforge.net/DTD/sodipodi-0.dtd"
   xmlns:inkscape="http://www.inkscape.org/namespaces/inkscape"
   width="300"
   height="300"
   id="svg2"
   version="1.1"
   inkscape:version="0.47 r22583"
   sodipodi:docname="黃-seal.svg">
  <defs
     id="defs4">
    <inkscape:perspective
       sodipodi:type="inkscape:persp3d"
       inkscape:vp_x="0 : 526.18109 : 1"
       inkscape:vp_y="0 : 1000 : 0"
       inkscape:vp_z="744.09448 : 526.18109 : 1"
       inkscape:persp3d-origin="372.04724 : 350.78739 : 1"
       id="perspective10" />
    <inkscape:perspective
       id="perspective2824"
       inkscape:persp3d-origin="0.5 : 0.33333333 : 1"
       inkscape:vp_z="1 : 0.5 : 1"
       inkscape:vp_y="0 : 1000 : 0"
       inkscape:vp_x="0 : 0.5 : 1"
       sodipodi:type="inkscape:persp3d" />
    <inkscape:perspective
       id="perspective2863"
       inkscape:persp3d-origin="0.5 : 0.33333333 : 1"
       inkscape:vp_z="1 : 0.5 : 1"
       inkscape:vp_y="0 : 1000 : 0"
       inkscape:vp_x="0 : 0.5 : 1"
       sodipodi:type="inkscape:persp3d" />
  </defs>
  <sodipodi:namedview
     id="base"
     pagecolor="#ffffff"
     bordercolor="#666666"
     borderopacity="1.0"
     inkscape:pageopacity="0.0"
     inkscape:pageshadow="2"
     inkscape:zoom="1.979899"
     inkscape:cx="172.64536"
     inkscape:cy="151.71186"
     inkscape:document-units="px"
     inkscape:current-layer="layer1"
     showgrid="false"
     inkscape:window-width="1280"
     inkscape:window-height="950"
     inkscape:window-x="0"
     inkscape:window-y="25"
     inkscape:window-maximized="1" />
  <metadata
     id="metadata7">
    <rdf:RDF>
      <cc:Work
         rdf:about="">
        <dc:format>image/svg+xml</dc:format>
        <dc:type
           rdf:resource="http://purl.org/dc/dcmitype/StillImage" />
        <dc:title></dc:title>
      </cc:Work>
    </rdf:RDF>
  </metadata>
  <g
     inkscape:label="Calque 1"
     inkscape:groupmode="layer"
     id="layer1"
     transform="translate(0,-752.36218)">
    <path
       style="fill:#000000"
       d="m 114.57193,1010.2844 c 2.08687,-8.2512 16.39822,-18.39061 8.54804,-25.11348 -13.58744,-11.79583 -28.730083,-25.88559 -28.611253,-45.38046 -1.442526,-17.78901 -2.092109,-35.93674 0.889768,-53.57172 5.514845,-14.02585 20.082735,-21.63439 32.379435,-28.63821 10.83126,-9.97353 -4.50063,-21.1203 -6.70105,-31.44455 -3.91207,-13.38356 -18.66238,-15.39539 -30.44999,-16.67615 -13.021682,-1.60033 -26.438758,-2.07978 -38.782993,-6.96416 -3.422592,-14.7162 19.146831,-15.27785 29.29823,-16.19715 12.134802,2.16734 22.651663,-3.55327 27.538193,-14.14314 12.6381,-5.72809 18.12475,12.70812 29.77187,12.80497 15.35106,2.71361 31.08001,0.33895 46.46344,1.3442 12.84089,-2.90883 15.64814,-22.92243 30.89474,-19.63149 14.29314,-0.50939 2.48749,20.31143 17.97162,19.38907 11.49713,1.89096 30.42473,-4.29105 34.48087,10.88184 -2.28448,11.03582 -17.51674,7.43611 -26.04746,8.76505 -8.91586,0.15145 -17.8323,-0.21467 -26.74788,-0.0199 -13.47553,14.79884 -26.95107,29.59766 -40.42662,44.39648 14.59712,4.50055 31.91788,11.13366 35.59247,27.90136 6.67641,21.43609 5.11031,44.40262 3.01864,66.42383 -2.89675,16.73397 -15.47524,29.46944 -29.38214,38.10921 -14.93595,7.13871 9.55986,17.14771 12.03317,27.0778 8.91576,7.7001 2.47788,27.4898 -9.49046,16.7624 -14.20315,-10.2675 -20.01528,-29.39126 -36.00207,-37.39733 -13.86987,11.95353 -18.18214,32.94133 -35.61507,41.08733 -6.93873,2.5216 -15.788269,2.4846 -8.82389,-5.3543 2.73342,-4.8036 5.46722,-9.6088 8.20039,-14.4115 z m 28.54364,-62.58943 c 0,-7.13271 0,-14.26543 0,-21.39814 -9.91718,1.82916 -24.82898,-4.61175 -30.73083,5.63751 -3.29987,12.9627 2.75274,30.28687 15.56831,35.70235 15.98114,5.5904 15.88311,-8.78796 15.16252,-19.94172 z m 44.97863,9.98221 c 7.49785,-11.82695 8.19637,-34.89975 -11.19987,-32.22517 -17.70751,-2.35514 -18.30855,17.87821 -15.09681,29.93019 2.38251,14.54444 19.77853,11.59263 26.29668,2.29498 z m -44.97863,-62.18671 c 2.01039,-9.7975 6.66572,-32.05566 -10.85738,-25.53519 -13.08878,5.48228 -19.95014,20.10752 -20.18169,33.69875 9.24704,5.06201 29.0748,7.77778 31.02088,-6.31291 0.006,-0.61688 0.0122,-1.23379 0.0182,-1.85065 z m 48.78231,-4.78521 c 1.97983,-13.29938 -15.00835,-30.98593 -25.45096,-15.96206 -7.15628,10.21319 -10.34406,33.68716 7.93818,32.56685 11.43833,2.40688 21.76071,-3.75954 17.51278,-16.60479 z m -16.89658,-64.4966 c 4.92197,-4.83187 9.84395,-9.66373 14.76592,-14.4956 -17.85103,-3.57301 -36.8057,-5.84516 -54.48179,-0.17051 1.08608,11.92512 11.61908,23.42006 21.56255,28.47566 7.81814,-1.58846 11.92423,-9.58788 18.15332,-13.80955 z M 50.460243,1014.6356 c -2.489525,-37.53882 1.406967,-75.12456 4.440556,-112.51283 1.27077,-13.65322 5.974356,-27.1884 15.557916,-37.25743 11.940195,-10.05402 9.291871,-30.99844 -9.235085,-27.81884 -8.877526,2.45962 -21.795472,-7.63111 -8.292776,-12.61562 13.549366,-4.30809 31.695839,-2.41212 41.714945,8.20725 8.222371,15.39397 -2.372229,31.97228 -10.311685,45.10519 -7.317227,10.45745 -9.825255,23.05434 -10.240849,35.59025 -3.121768,35.93351 -1.210119,72.19426 -6.052686,107.99233 -3.242784,13.1832 -18.406925,2.4296 -17.580336,-6.6903 z M 233.39052,952.10435 c -1.11625,-27.5832 2.84566,-56.55102 -7.48597,-82.84164 -4.84391,-11.51613 -12.9588,-24.80698 -7.18748,-37.35742 8.97766,-12.45313 24.7931,-18.69325 39.85835,-18.292 15.01895,7.87846 -8.69694,20.42544 -17.6216,21.4498 -16.14756,9.96616 6.30174,20.61902 6.42993,32.6901 6.9717,34.61804 8.45795,70.17155 8.25307,105.42219 -0.58581,11.57081 -0.27587,23.38217 -2.36542,34.71812 -0.96068,12.0743 -19.61921,16.5203 -18.45517,1.2965 -2.37488,-18.94236 -0.89684,-38.06428 -1.42571,-57.08565 z"
       id="path2869" />
  </g>
</svg>
