<?xml version="1.0" encoding="UTF-8" standalone="no"?>
<!-- Created with Inkscape (http://www.inkscape.org/) -->

<svg
   xmlns:dc="http://purl.org/dc/elements/1.1/"
   xmlns:cc="http://creativecommons.org/ns#"
   xmlns:rdf="http://www.w3.org/1999/02/22-rdf-syntax-ns#"
   xmlns:svg="http://www.w3.org/2000/svg"
   xmlns="http://www.w3.org/2000/svg"
   xmlns:sodipodi="http://sodipodi.sourceforge.net/DTD/sodipodi-0.dtd"
   xmlns:inkscape="http://www.inkscape.org/namespaces/inkscape"
   width="300"
   height="300"
   id="svg2"
   version="1.1"
   inkscape:version="0.47 r22583"
   sodipodi:docname="黃-bigseal.svg">
  <defs
     id="defs4">
    <inkscape:perspective
       sodipodi:type="inkscape:persp3d"
       inkscape:vp_x="0 : 526.18109 : 1"
       inkscape:vp_y="0 : 1000 : 0"
       inkscape:vp_z="744.09448 : 526.18109 : 1"
       inkscape:persp3d-origin="372.04724 : 350.78739 : 1"
       id="perspective10" />
    <inkscape:perspective
       id="perspective2824"
       inkscape:persp3d-origin="0.5 : 0.33333333 : 1"
       inkscape:vp_z="1 : 0.5 : 1"
       inkscape:vp_y="0 : 1000 : 0"
       inkscape:vp_x="0 : 0.5 : 1"
       sodipodi:type="inkscape:persp3d" />
    <inkscape:perspective
       id="perspective2863"
       inkscape:persp3d-origin="0.5 : 0.33333333 : 1"
       inkscape:vp_z="1 : 0.5 : 1"
       inkscape:vp_y="0 : 1000 : 0"
       inkscape:vp_x="0 : 0.5 : 1"
       sodipodi:type="inkscape:persp3d" />
    <inkscape:perspective
       id="perspective2902"
       inkscape:persp3d-origin="0.5 : 0.33333333 : 1"
       inkscape:vp_z="1 : 0.5 : 1"
       inkscape:vp_y="0 : 1000 : 0"
       inkscape:vp_x="0 : 0.5 : 1"
       sodipodi:type="inkscape:persp3d" />
  </defs>
  <sodipodi:namedview
     id="base"
     pagecolor="#ffffff"
     bordercolor="#666666"
     borderopacity="1.0"
     inkscape:pageopacity="0.0"
     inkscape:pageshadow="2"
     inkscape:zoom="1.979899"
     inkscape:cx="172.64536"
     inkscape:cy="151.71186"
     inkscape:document-units="px"
     inkscape:current-layer="layer1"
     showgrid="false"
     inkscape:window-width="1280"
     inkscape:window-height="950"
     inkscape:window-x="0"
     inkscape:window-y="25"
     inkscape:window-maximized="1" />
  <metadata
     id="metadata7">
    <rdf:RDF>
      <cc:Work
         rdf:about="">
        <dc:format>image/svg+xml</dc:format>
        <dc:type
           rdf:resource="http://purl.org/dc/dcmitype/StillImage" />
        <dc:title></dc:title>
      </cc:Work>
    </rdf:RDF>
  </metadata>
  <g
     inkscape:label="Calque 1"
     inkscape:groupmode="layer"
     id="layer1"
     transform="translate(0,-752.36218)">
    <path
       style="fill:#000000"
       d="m 199.17525,1027.4694 c -25.32213,-4.7156 -20.34777,-34.03372 -51.0098,-22.083 -12.80392,12.0205 -35.90654,25.5475 -71.497105,26.745 2.026084,-11.1749 19.696617,-23.0265 34.446925,-33.08698 38.6922,-21.60874 -54.575693,-20.84759 -61.313942,-39.76799 -19.65731,-14.8736 -12.012907,-33.85922 20.187658,-45.06773 15.383898,-11.09307 70.703744,-12.60956 54.112774,-28.43004 -20.14542,-16.3143 -57.804224,20.01353 -79.510956,3.39655 11.280338,-11.16763 45.835671,-17.48559 69.084836,-25.09809 30.59081,-16.50422 -32.150048,-23.40267 -43.00748,-37.04204 -8.722346,-12.34593 -21.843134,-24.03656 -23.647642,-37.0989 -7.557132,-8.56772 -7.506183,-33.58723 20.781443,-17.02507 19.138347,13.76175 55.080479,6.97833 84.798809,6.29043 36.14627,1.75089 42.65899,-11.44466 48.26827,-21.00704 41.73281,4.69885 13.47202,31.37512 12.89257,44.90893 -3.92078,18.58033 -25.90007,35.51419 -53.91269,50.05751 -8.09162,15.70582 41.00049,17.46905 68.68275,19.64229 24.39152,-0.80699 60.44587,16.46906 14.93347,12.97753 -25.27763,-2.77131 -79.17035,-11.61924 -77.55898,5.97257 10.75863,12.43127 58.05203,8.16999 75.94605,19.30636 51.11889,19.65941 34.11783,57.6035 -32.27713,68.57778 -31.58232,9.03836 -6.15239,25.22643 7.27948,35.58793 20.03079,5.9387 26.01592,29.3228 -9.207,15.9161 l -5.04123,-1.9991 -3.43108,-1.673 0,0 z m -58.12534,-62.11992 c 22.51407,-21.54737 -88.268149,-18.21833 -38.27365,-0.32041 8.54715,3.14136 34.85781,7.12476 38.27365,0.32041 z m 64.4582,-0.12158 c 44.85691,-4.6502 9.46498,-28.36756 -23.13624,-15.26389 -13.48702,7.65559 -13.17283,27.79882 23.13624,15.26389 z m -69.76739,-29.54102 c 5.09205,-9.11074 -0.75289,-30.32196 -32.87764,-16.87383 -24.437014,4.56757 -38.028127,21.52229 3.2035,18.20478 9.96377,0.13889 20.18944,-2.8e-4 29.67414,-1.33095 z m 96.32503,-3.71516 c 0.84906,-10.62784 -46.29246,-23.58617 -62.12881,-17.60295 0.9828,6.91512 0.19332,13.8765 0.44658,20.81491 18.37899,-1.35941 49.74873,3.05574 61.68223,-3.21196 z M 160.54626,828.30697 c 8.38421,-9.99536 32.59349,-25.74643 5.69859,-33.56188 -26.14525,-3.37015 -95.819035,-3.48112 -75.537323,13.31307 9.686333,10.26768 20.543853,27.99886 57.996493,24.32341 4.93166,-0.82232 8.90567,-2.34855 11.84224,-4.0746 z"
       id="path2908" />
  </g>
</svg>
