<?xml version="1.0" encoding="UTF-8" standalone="no"?>
<!-- Created with Inkscape (http://www.inkscape.org/) -->

<svg
   xmlns:dc="http://purl.org/dc/elements/1.1/"
   xmlns:cc="http://creativecommons.org/ns#"
   xmlns:rdf="http://www.w3.org/1999/02/22-rdf-syntax-ns#"
   xmlns:svg="http://www.w3.org/2000/svg"
   xmlns="http://www.w3.org/2000/svg"
   xmlns:sodipodi="http://sodipodi.sourceforge.net/DTD/sodipodi-0.dtd"
   xmlns:inkscape="http://www.inkscape.org/namespaces/inkscape"
   width="300"
   height="300"
   id="svg2"
   version="1.1"
   inkscape:version="0.47 r22583"
   sodipodi:docname="Nouveau document 1">
  <defs
     id="defs4">
    <inkscape:perspective
       sodipodi:type="inkscape:persp3d"
       inkscape:vp_x="0 : 526.18109 : 1"
       inkscape:vp_y="0 : 1000 : 0"
       inkscape:vp_z="744.09448 : 526.18109 : 1"
       inkscape:persp3d-origin="372.04724 : 350.78739 : 1"
       id="perspective10" />
    <inkscape:perspective
       id="perspective2824"
       inkscape:persp3d-origin="0.5 : 0.33333333 : 1"
       inkscape:vp_z="1 : 0.5 : 1"
       inkscape:vp_y="0 : 1000 : 0"
       inkscape:vp_x="0 : 0.5 : 1"
       sodipodi:type="inkscape:persp3d" />
  </defs>
  <sodipodi:namedview
     id="base"
     pagecolor="#ffffff"
     bordercolor="#666666"
     borderopacity="1.0"
     inkscape:pageopacity="0.0"
     inkscape:pageshadow="2"
     inkscape:zoom="1.979899"
     inkscape:cx="172.64536"
     inkscape:cy="151.71186"
     inkscape:document-units="px"
     inkscape:current-layer="layer1"
     showgrid="false"
     inkscape:window-width="1280"
     inkscape:window-height="950"
     inkscape:window-x="0"
     inkscape:window-y="25"
     inkscape:window-maximized="1" />
  <metadata
     id="metadata7">
    <rdf:RDF>
      <cc:Work
         rdf:about="">
        <dc:format>image/svg+xml</dc:format>
        <dc:type
           rdf:resource="http://purl.org/dc/dcmitype/StillImage" />
        <dc:title></dc:title>
      </cc:Work>
    </rdf:RDF>
  </metadata>
  <g
     inkscape:label="Calque 1"
     inkscape:groupmode="layer"
     id="layer1"
     transform="translate(0,-752.36218)">
    <path
       style="fill:#000000"
       d="m 227.83061,1021.6276 c -31.89884,-15.3704 -57.40873,-36.44114 -73.95864,-60.41586 -18.33546,6.20777 -24.67009,28.90777 -44.71396,38.27835 -13.441275,6.52261 -32.26401,28.68761 -47.634743,21.78881 9.016849,-15.6427 30.314376,-26.16131 44.812033,-39.44687 14.34381,-10.94465 38.71385,-35.45487 0.62223,-37.32665 -29.239384,-10.71076 -38.684251,-36.47431 -28.013292,-57.00001 5.105685,-16.31625 28.901822,-23.60148 50.885822,-23.28923 14.51567,-8.96292 7.52923,-26.92656 -10.70935,-31.14657 -20.170535,-7.80162 -11.30697,-33.24806 -42.555054,-25.60219 -12.032296,1.64637 -58.714472,-2.26046 -32.893842,-12.61345 20.654876,-7.48511 66.613476,8.94067 57.454776,-16.02723 5.64366,-21.7906 28.10403,3.27211 22.65868,13.80411 21.80354,0.47806 63.21918,3.9576 55.10273,-19.48234 8.76225,-17.76232 25.27879,12.2669 27.12108,16.03551 18.12037,1.81086 52.13178,-7.7393 56.22763,9.29345 -13.15174,8.50267 -37.403,2.02002 -55.34821,4.06623 -12.25147,3.15756 -1.44094,25.82146 -22.66329,30.08807 -22.47738,1.11266 -39.61938,23.72371 -13.3132,29.66932 28.82717,-1.02183 57.10863,12.17134 51.7771,33.73204 -1.36602,15.77872 6.5673,37.58827 -17.4711,47.14477 -13.6976,7.52831 -53.13899,3.75255 -31.13413,21.428 24.98312,21.88258 60.0274,36.83044 88.46443,56.38384 3.80074,15.1933 -28.22564,7.028 -34.7177,0.6379 z M 134.97725,920.2258 c 5.0059,-13.38513 -7.81508,-14.03313 -25.41636,-11.16086 -30.938032,-2.06484 -6.00008,27.17132 14.4678,24.34505 10.8801,0.46925 12.12622,-7.77378 10.94856,-13.18419 z m 44.36313,10.62021 c 23.85388,-4.4745 23.84206,-31.44669 -5.78606,-23.32141 -21.91182,-6.18761 -23.02731,38.50556 5.78606,23.32141 z M 136.76289,885.0457 c 3.03988,-18.10179 -44.088138,-5.10879 -35.71441,7.54091 12.06419,2.64758 42.36413,7.72916 35.71441,-7.54091 z m 59.71846,6.98298 c 11.75653,-13.66769 -30.87189,-23.94726 -38.3749,-11.72177 -8.89785,21.05177 20.28697,14.91634 38.3749,11.72177 z m -20.34596,-76.28803 c 13.10723,-18.39475 -40.83519,-16.63914 -51.93299,-8.16402 -7.63994,21.53054 34.30518,15.95891 50.33292,10.63623 l 1.60007,-2.47221 z M 29.624385,872.67494 c 11.998655,-16.79399 41.959616,-19.3537 62.910123,-28.78917 16.532292,-9.54291 33.274862,7.97036 10.158232,11.96192 -23.34809,4.23784 -40.062196,19.17903 -65.417274,19.2259 -2.768887,0.30651 -6.696013,-0.31112 -7.651081,-2.39865 z m 216.062655,-5.36198 c -15.43555,-10.77048 -55.62956,-14.23824 -55.26019,-29.37316 20.01062,4.34418 39.54704,10.71258 59.96575,14.93109 24.55893,2.7572 20.16879,24.28082 -4.70556,14.44207 z"
       id="path2830" />
  </g>
</svg>
