<?xml version="1.0" encoding="UTF-8" standalone="no"?>
<!-- Created with Inkscape (http://www.inkscape.org/) -->

<svg
   xmlns:dc="http://purl.org/dc/elements/1.1/"
   xmlns:cc="http://creativecommons.org/ns#"
   xmlns:rdf="http://www.w3.org/1999/02/22-rdf-syntax-ns#"
   xmlns:svg="http://www.w3.org/2000/svg"
   xmlns="http://www.w3.org/2000/svg"
   xmlns:sodipodi="http://sodipodi.sourceforge.net/DTD/sodipodi-0.dtd"
   xmlns:inkscape="http://www.inkscape.org/namespaces/inkscape"
   width="300"
   height="300"
   id="svg2"
   version="1.1"
   inkscape:version="0.47 r22583"
   sodipodi:docname="黃-bronze.svg">
  <defs
     id="defs4">
    <inkscape:perspective
       sodipodi:type="inkscape:persp3d"
       inkscape:vp_x="0 : 526.18109 : 1"
       inkscape:vp_y="0 : 1000 : 0"
       inkscape:vp_z="744.09448 : 526.18109 : 1"
       inkscape:persp3d-origin="372.04724 : 350.78739 : 1"
       id="perspective10" />
    <inkscape:perspective
       id="perspective2824"
       inkscape:persp3d-origin="0.5 : 0.33333333 : 1"
       inkscape:vp_z="1 : 0.5 : 1"
       inkscape:vp_y="0 : 1000 : 0"
       inkscape:vp_x="0 : 0.5 : 1"
       sodipodi:type="inkscape:persp3d" />
    <inkscape:perspective
       id="perspective2863"
       inkscape:persp3d-origin="0.5 : 0.33333333 : 1"
       inkscape:vp_z="1 : 0.5 : 1"
       inkscape:vp_y="0 : 1000 : 0"
       inkscape:vp_x="0 : 0.5 : 1"
       sodipodi:type="inkscape:persp3d" />
    <inkscape:perspective
       id="perspective2902"
       inkscape:persp3d-origin="0.5 : 0.33333333 : 1"
       inkscape:vp_z="1 : 0.5 : 1"
       inkscape:vp_y="0 : 1000 : 0"
       inkscape:vp_x="0 : 0.5 : 1"
       sodipodi:type="inkscape:persp3d" />
    <inkscape:perspective
       id="perspective2941"
       inkscape:persp3d-origin="0.5 : 0.33333333 : 1"
       inkscape:vp_z="1 : 0.5 : 1"
       inkscape:vp_y="0 : 1000 : 0"
       inkscape:vp_x="0 : 0.5 : 1"
       sodipodi:type="inkscape:persp3d" />
  </defs>
  <sodipodi:namedview
     id="base"
     pagecolor="#ffffff"
     bordercolor="#666666"
     borderopacity="1.0"
     inkscape:pageopacity="0.0"
     inkscape:pageshadow="2"
     inkscape:zoom="1.979899"
     inkscape:cx="172.64536"
     inkscape:cy="129.69372"
     inkscape:document-units="px"
     inkscape:current-layer="layer1"
     showgrid="false"
     inkscape:window-width="1280"
     inkscape:window-height="950"
     inkscape:window-x="0"
     inkscape:window-y="25"
     inkscape:window-maximized="1" />
  <metadata
     id="metadata7">
    <rdf:RDF>
      <cc:Work
         rdf:about="">
        <dc:format>image/svg+xml</dc:format>
        <dc:type
           rdf:resource="http://purl.org/dc/dcmitype/StillImage" />
        <dc:title></dc:title>
      </cc:Work>
    </rdf:RDF>
  </metadata>
  <g
     inkscape:label="Calque 1"
     inkscape:groupmode="layer"
     id="layer1"
     transform="translate(0,-752.36218)">
    <path
       style="fill:#000000"
       d="m 214.63437,1023.0644 c -21.09757,-20.9933 -31.02102,-62.69669 -56.50754,-78.68165 -6.92117,-3.86287 -8.79469,-3.15353 -15.56823,5.89441 -8.33942,11.13949 -19.34789,46.31873 -19.47998,62.25124 -0.10334,12.4358 -7.88992,20.0803 -15.90005,15.6097 -9.622158,-39.26585 23.21897,-78.50426 26.6906,-105.83214 -4.06069,-16.52718 -51.902119,7.9e-4 -62.912911,-0.5599 -13.792494,-6.92058 -14.218002,-86.72257 -1.986228,-87.21835 18.699111,4.77282 62.993179,4.74171 71.579159,-0.0502 8.06103,-4.49905 18.55642,-33.55771 13.20003,-36.54722 -28.86754,-2.50161 -81.590591,37.57417 -105.548695,15.96121 31.589623,-14.98621 67.441375,-21.0008 100.661355,-32.49315 23.39546,-8.64629 43.90448,-11.12183 43.90448,-5.29947 14.05731,16.875 77.28596,36.41455 71.42127,58.22692 l -76.51528,-35.57314 c -6.97157,8.65403 -13.89823,17.22286 -11.32898,28.97985 2.99781,8.2513 5.82648,9.51875 23.04267,10.3247 14.31158,1.5418 20.09693,3.73135 22.55702,7.59204 0.70069,20.40862 11.26983,39.92917 13.56468,59.56236 0.0878,7.86015 -1.1296,8.2815 -22.66278,7.84288 -54.03599,-1.10069 -55.51784,0.0595 -31.77166,24.87293 28.82589,30.12152 57.68797,91.65718 45.0368,96.02108 -2.74027,0.9452 -7.90432,-3.9526 -11.47573,-10.884 l 0,-10e-5 z M 137.89693,893.16969 c 2.03045,-2.87628 3.76188,-12.62571 3.8477,-21.66543 l 0.15576,-16.43584 -29.44859,0 -29.4486,0 -3.146288,43.33085 27.174038,0 c 20.90422,0 28.02586,-1.20663 30.86578,-5.22958 l 2e-4,0 z m 65.31044,-35.55061 c -6.30976,-9.86866 -24.20545,-6.08045 -33.07934,-3.24411 -6.28181,2.00784 -4.13312,11.43232 -4.13312,20.26441 0,18.37883 1.90533,19.6177 31.41165,20.42491 17.35722,1.07117 4.81822,-23.15145 5.80081,-37.44521 z"
       id="path2947"
       sodipodi:nodetypes="ccssccccsccccccccccsssccccccccccccsscc" />
  </g>
</svg>
