<?xml version="1.0" standalone="no"?>
<!DOCTYPE svg PUBLIC "-//W3C//DTD SVG 20010904//EN"
 "http://www.w3.org/TR/2001/REC-SVG-20010904/DTD/svg10.dtd">
<svg version="1.0" xmlns="http://www.w3.org/2000/svg"
 width="468pt" height="468pt" viewBox="0 0 468 468"
 preserveAspectRatio="xMidYMid meet">
<metadata>
Created by potrace 1.8, written by Peter Selinger 2001-2007
</metadata>
<g transform="translate(0,468) scale(0.537931,-0.537931)"
fill="#000000" stroke="none">
<path d="M355 711 c-107 -12 -135 -42 -135 -142 0 -101 6 -104 188 -101 176 3
210 8 240 35 42 39 24 182 -27 203 -24 10 -197 13 -266 5z m73 -68 l3 -33 -75
0 c-57 0 -76 3 -76 13 0 22 32 45 70 50 66 8 75 5 78 -30z m174 21 c4 -3 8
-16 8 -30 0 -23 -2 -24 -70 -24 l-70 0 0 36 0 37 62 -7 c34 -4 66 -10 70 -12z
m18 -109 c0 -32 -26 -45 -94 -45 -55 0 -56 0 -56 30 0 29 0 29 68 33 37 2 70
4 75 5 4 1 7 -9 7 -23z m-190 3 c0 -7 3 -23 6 -35 6 -22 4 -23 -55 -23 -74 0
-101 12 -101 45 0 24 2 25 75 25 53 0 75 -4 75 -12z"/>
<path d="M447 444 c-4 -4 -7 -15 -7 -25 0 -16 -11 -19 -82 -21 -66 -2 -83 -6
-83 -18 0 -12 17 -16 78 -18 l77 -3 0 -33 0 -33 -72 5 c-112 7 -181 -20 -127
-48 17 -9 31 -10 61 -1 21 7 54 9 72 5 l35 -6 -24 -41 c-14 -26 -26 -69 -30
-111 -7 -63 -6 -68 11 -64 15 2 20 15 25 59 6 59 44 139 65 139 38 0 64 -64
64 -157 0 -46 9 -53 35 -26 24 23 9 124 -26 175 -11 14 -19 29 -19 32 0 3 28
6 63 6 74 0 109 8 104 24 -2 7 -38 11 -98 12 l-94 1 0 34 0 34 85 5 c67 4 85
8 85 20 0 12 -16 15 -84 16 -75 0 -84 2 -95 22 -7 13 -15 19 -19 16z"/>
<path d="M260 188 c-11 -18 -20 -45 -20 -59 0 -15 -3 -40 -6 -58 -5 -23 -2
-32 10 -37 9 -4 19 -4 22 -1 6 6 33 149 34 175 0 22 -20 12 -40 -20z"/>
<path d="M610 216 c0 -2 6 -16 14 -31 8 -15 18 -50 21 -77 6 -38 11 -48 24
-46 39 8 0 158 -41 158 -10 0 -18 -2 -18 -4z"/>
</g>
</svg>
