<?xml version="1.0" encoding="UTF-8" standalone="no"?>
<!-- Created with Inkscape (http://www.inkscape.org/) -->

<svg
   xmlns:dc="http://purl.org/dc/elements/1.1/"
   xmlns:cc="http://creativecommons.org/ns#"
   xmlns:rdf="http://www.w3.org/1999/02/22-rdf-syntax-ns#"
   xmlns:svg="http://www.w3.org/2000/svg"
   xmlns="http://www.w3.org/2000/svg"
   xmlns:sodipodi="http://sodipodi.sourceforge.net/DTD/sodipodi-0.dtd"
   xmlns:inkscape="http://www.inkscape.org/namespaces/inkscape"
   width="300"
   height="300"
   id="svg2"
   version="1.1"
   inkscape:version="0.48.2 r9819"
   sodipodi:docname="黹-seal.svg">
  <defs
     id="defs4" />
  <sodipodi:namedview
     id="base"
     pagecolor="#ffffff"
     bordercolor="#666666"
     borderopacity="1.0"
     inkscape:pageopacity="0.0"
     inkscape:pageshadow="2"
     inkscape:zoom="1.979899"
     inkscape:cx="176.44883"
     inkscape:cy="149.85119"
     inkscape:document-units="px"
     inkscape:current-layer="layer1"
     showgrid="false"
     inkscape:window-width="1280"
     inkscape:window-height="999"
     inkscape:window-x="0"
     inkscape:window-y="24"
     inkscape:window-maximized="1" />
  <metadata
     id="metadata7">
    <rdf:RDF>
      <cc:Work
         rdf:about="">
        <dc:format>image/svg+xml</dc:format>
        <dc:type
           rdf:resource="http://purl.org/dc/dcmitype/StillImage" />
        <dc:title></dc:title>
      </cc:Work>
    </rdf:RDF>
  </metadata>
  <g
     inkscape:label="Calque 1"
     inkscape:groupmode="layer"
     id="layer1"
     transform="translate(0,-752.36218)">
    <path
       style="fill:#000000"
       d="m 140.21898,1028.84 c -1.52867,-2.0195 -2.41176,-23.0027 -1.96242,-46.62937 0.88044,-46.2945 -1.43833,-50.89517 -18.00409,-35.72192 -9.58558,8.77982 -24.96209,41.54402 -25.03627,53.34716 -0.08273,13.16363 -4.277721,23.02853 -9.792782,23.02853 -11.808838,0 -13.022887,-31.69553 -2.112084,-55.14073 9.020256,-19.3828 24.263286,-33.56826 42.974446,-39.99288 12.04265,-4.13493 13.06227,-5.50171 10.84797,-14.5414 -1.34421,-5.48763 -8.17449,-17.19817 -15.17839,-26.02342 l -12.73438,-16.0459 -33.18316,1.10439 c -22.347016,0.74374 -33.686616,-0.0889 -34.724867,-2.54986 -1.907181,-4.52052 19.23931,-10.81694 36.32862,-10.81694 6.987819,0 18.003461,-0.8652 24.479207,-1.92267 11.59438,-1.89332 11.81371,-2.31075 14.3714,-27.35138 2.57199,-25.1806 8.42721,-41.47396 14.90419,-41.47396 1.84412,0 2.51957,5.4267 1.50097,12.05932 -7.82069,50.92502 -6.83157,55.47287 12.06483,55.47287 13.06643,0 13.32399,-0.26604 13.23186,-13.66723 -0.0923,-13.42935 -4.10904,-30.70509 -9.72006,-41.80564 -3.78817,-7.49431 2.40607,-7.13683 12.7562,0.73619 5.19296,3.95013 9.30544,12.18325 10.84263,21.70677 5.62688,34.86105 2.64045,32.12431 37.83073,34.6677 32.5443,2.35214 39.2891,7.05856 16.90321,11.79479 -9.74069,2.06085 -12.50328,4.96375 -16.58656,17.42892 -4.42668,13.51348 -4.0848,16.32995 3.54413,29.19711 4.64388,7.8325 7.52354,14.99197 6.39924,15.90994 -1.1243,0.91797 -7.63996,-2.41358 -14.47924,-7.40344 -15.52167,-11.32442 -20.39935,-31.91337 -10.48682,-44.26546 8.67132,-10.80542 8.17672,-12.02957 -4.38216,-10.84602 -7.14027,0.67289 -11.27219,3.19604 -12.19886,7.44919 -0.77072,3.5374 -5.40011,10.04943 -10.28753,14.47118 -4.88741,4.42175 -10.02586,10.67684 -11.41876,13.90019 -3.38257,7.82766 3.86457,18.258 12.68589,18.258 3.90078,0 15.384,5.27447 25.51827,11.72104 15.1418,9.63193 19.57113,14.93379 24.85097,29.74632 12.26808,34.41795 7.51352,69.07811 -8.03098,58.54481 -4.26834,-2.8923 -5.2225,-8.2468 -3.6719,-20.6057 1.15225,-9.18393 0.16283,-22.53398 -2.19875,-29.66682 -5.26768,-15.91042 -27.89022,-36.87638 -39.79008,-36.87638 -8.54501,0 -8.65947,0.61815 -7.5923,41.00168 0.73394,27.77352 -0.47013,43.33602 -3.7321,48.23732 -5.29671,7.9584 -10.45838,9.2072 -14.73022,3.5637 z M 158.1448,879.90135 c 5.73577,-5.64286 2.1843,-11.41477 -6.98185,-11.34699 -10.57994,0.0782 -17.86639,5.28257 -15.23494,10.88156 3.02129,6.42846 15.88172,6.69788 22.21679,0.46543 z M 103.14723,1002.586 c 0,-10.29239 15.68658,-47.25379 20.05471,-47.25379 7.25828,0 3.81128,32.6975 -4.62144,43.83793 -9.54635,12.61166 -15.43327,13.91456 -15.43327,3.41586 z m 71.79546,0.1795 c -3.59007,-3.60512 -6.99365,-33.77206 -5.44236,-48.23724 0.87529,-8.16173 11.92524,-6.9113 14.20893,1.6079 5.82005,21.71148 9.65924,45.31664 7.77519,47.80564 -3.11409,4.1141 -11.89541,3.4896 -16.54176,-1.1763 z M 44.067851,940.52957 c 0,-1.06665 7.975717,-9.18231 17.723815,-18.0348 15.429025,-14.01148 17.723814,-17.95876 17.723814,-30.48681 0,-16.87377 5.730681,-17.27328 16.75051,-1.16775 10.49736,15.34195 6.21851,25.75663 -16.357368,39.81367 -16.572802,10.31918 -35.840771,15.62834 -35.840771,9.87569 z m 23.631753,-95.74933 c 0,-2.43649 2.64585,-6.22285 5.879671,-8.41416 3.23382,-2.1913 7.733085,-9.60408 9.998374,-16.47285 4.428259,-13.4273 13.519107,-16.55586 17.600271,-6.05703 3.27473,8.42428 -0.91443,19.15416 -10.985807,28.13841 -8.988829,8.01856 -22.492509,9.70295 -22.492509,2.80563 z M 200.89296,829.77868 c -9.86306,-4.69779 -24.85248,-32.02157 -17.56657,-32.02157 1.83723,0 41.91823,32.72543 41.91823,34.22549 0,2.43197 -18.04792,0.79856 -24.35166,-2.20392 z"
       id="path3028"
       inkscape:connector-curvature="0" />
  </g>
</svg>
