<?xml version="1.0" encoding="UTF-8" standalone="no"?>
<!-- Created with Inkscape (http://www.inkscape.org/) -->

<svg
   xmlns:dc="http://purl.org/dc/elements/1.1/"
   xmlns:cc="http://creativecommons.org/ns#"
   xmlns:rdf="http://www.w3.org/1999/02/22-rdf-syntax-ns#"
   xmlns:svg="http://www.w3.org/2000/svg"
   xmlns="http://www.w3.org/2000/svg"
   xmlns:sodipodi="http://sodipodi.sourceforge.net/DTD/sodipodi-0.dtd"
   xmlns:inkscape="http://www.inkscape.org/namespaces/inkscape"
   width="300"
   height="300"
   id="svg2"
   version="1.1"
   inkscape:version="0.48.2 r9819"
   sodipodi:docname="黹-bronze.svg">
  <defs
     id="defs4" />
  <sodipodi:namedview
     id="base"
     pagecolor="#ffffff"
     bordercolor="#666666"
     borderopacity="1.0"
     inkscape:pageopacity="0.0"
     inkscape:pageshadow="2"
     inkscape:zoom="1.979899"
     inkscape:cx="176.44883"
     inkscape:cy="149.85119"
     inkscape:document-units="px"
     inkscape:current-layer="layer1"
     showgrid="false"
     inkscape:window-width="1280"
     inkscape:window-height="999"
     inkscape:window-x="0"
     inkscape:window-y="24"
     inkscape:window-maximized="1" />
  <metadata
     id="metadata7">
    <rdf:RDF>
      <cc:Work
         rdf:about="">
        <dc:format>image/svg+xml</dc:format>
        <dc:type
           rdf:resource="http://purl.org/dc/dcmitype/StillImage" />
        <dc:title></dc:title>
      </cc:Work>
    </rdf:RDF>
  </metadata>
  <g
     inkscape:label="Calque 1"
     inkscape:groupmode="layer"
     id="layer1"
     transform="translate(0,-752.36218)">
    <path
       style="fill:#000000"
       d="m 84.70358,1025.3055 c -5.525963,-10.9799 -7.527966,-61.43978 -2.534074,-63.87065 2.596751,-1.26401 15.329816,-2.99125 28.295694,-3.8383 12.96588,-0.84705 30.06065,-2.85162 37.98837,-4.4546 7.92772,-1.60298 20.91208,-3.57036 28.85412,-4.37196 l 14.44009,-1.45745 1.01429,33.52897 c 1.4544,48.07739 -8.85961,49.52509 -14.81869,2.08005 l -2.72088,-21.6632 -16.47319,1.11864 c -9.06025,0.61526 -17.86311,1.79297 -19.56191,2.61714 -1.69879,0.82417 -3.08872,13.81913 -3.08872,28.87768 0,16.09038 -1.69803,27.37918 -4.1183,27.37918 -2.26506,0 -4.1436,-8.3928 -4.17453,-18.6507 -0.0919,-30.49509 -2.04159,-33.24692 -23.55504,-33.24692 -17.269268,0 -18.349221,0.4974 -15.845569,7.2981 5.312092,14.4293 7.829093,54.33032 3.427214,54.33032 -2.349661,0 -5.557654,-2.5543 -7.128875,-5.6763 z m 20.08729,-79.97275 c -1.26376,-2.59383 6.15422,-14.42231 16.52779,-26.3547 10.35133,-11.90683 21.00373,-27.70257 23.67201,-35.10165 6.45883,-17.91022 10.3969,-20.96123 17.36622,-13.45445 6.34722,6.8367 3.35389,17.00014 -10.98643,37.30299 -21.03258,29.77769 -42.10517,46.79144 -46.57959,37.60781 z m 76.5877,-19.78829 c -2.78639,-2.64431 -4.06621,-8.10037 -2.84404,-12.12458 9.67771,-31.86565 14.74944,-45.1284 18.6858,-48.86404 7.03177,-6.67323 -1.86722,-11.74331 -15.12906,-8.61959 -6.04289,1.42336 -17.60496,4.17056 -25.6935,6.10489 -8.08853,1.93434 -17.73403,3.51698 -21.43444,3.51698 -4.58321,0 -7.52752,3.87757 -9.23596,12.16351 -4.82616,23.4068 -6.03472,24.48893 -41.595677,37.24444 -14.594359,5.2349 -24.102246,1.89344 -25.294398,-8.88949 -0.59009,-5.33733 0.612799,-11.74146 2.673084,-14.23139 5.151112,-6.22531 16.932146,-2.01783 16.932146,6.04715 0,9.1666 6.790071,8.22731 20.908276,-2.8923 11.441759,-9.01161 16.830309,-26.19832 8.213969,-26.19832 -4.60812,0 -15.214299,8.02386 -18.145266,13.72739 -1.614472,3.14168 -3.144579,2.96394 -6.482088,-0.75298 -6.610435,-7.3619 -5.685181,-47.08167 1.201607,-51.58326 6.546457,-4.27913 10.77669,1.35599 10.77669,14.35569 0,9.76747 4.299732,11.73671 20.168507,9.23704 l 12.77787,-2.01279 0,-25.54336 c 0,-19.75078 1.30952,-25.54337 5.77457,-25.54337 7.38021,0 14.81691,16.71265 14.81691,33.29835 0,11.87574 0.71498,12.68826 9.26617,10.53038 5.09639,-1.28607 14.82587,-3.03483 21.62106,-3.88613 12.21523,-1.53032 12.35574,-1.78076 12.42986,-22.15576 0.0806,-22.1475 2.17461,-26.15524 12.09884,-23.1558 5.3356,1.6126 6.31252,9.44809 6.10729,48.98392 -0.13438,25.88534 -1.98604,47.91207 -4.11483,48.9483 -2.12879,1.03623 -3.87053,4.67134 -3.87053,8.07803 0,4.53251 1.9332,5.63357 7.20702,4.10476 12.04377,-3.49132 25.73935,-17.03024 25.73935,-25.44492 0,-5.77949 2.24265,-7.94189 8.2366,-7.94189 6.79901,0 8.23659,2.1624 8.23659,12.38947 0,13.27878 -7.74503,20.70245 -30.94444,29.66047 -6.76372,2.61168 -17.18561,7.33793 -23.15975,10.50278 -9.53838,5.05303 -11.47945,5.16836 -15.92823,0.94642 z"
       id="path3093"
       inkscape:connector-curvature="0" />
  </g>
</svg>
