<?xml version="1.0" encoding="UTF-8" standalone="no"?>
<!-- Created with Inkscape (http://www.inkscape.org/) -->

<svg
   xmlns:dc="http://purl.org/dc/elements/1.1/"
   xmlns:cc="http://creativecommons.org/ns#"
   xmlns:rdf="http://www.w3.org/1999/02/22-rdf-syntax-ns#"
   xmlns:svg="http://www.w3.org/2000/svg"
   xmlns="http://www.w3.org/2000/svg"
   xmlns:sodipodi="http://sodipodi.sourceforge.net/DTD/sodipodi-0.dtd"
   xmlns:inkscape="http://www.inkscape.org/namespaces/inkscape"
   width="300"
   height="300"
   id="svg2"
   version="1.1"
   inkscape:version="0.48.2 r9819"
   sodipodi:docname="Nouveau document 1">
  <defs
     id="defs4" />
  <sodipodi:namedview
     id="base"
     pagecolor="#ffffff"
     bordercolor="#666666"
     borderopacity="1.0"
     inkscape:pageopacity="0.0"
     inkscape:pageshadow="2"
     inkscape:zoom="1.979899"
     inkscape:cx="176.44883"
     inkscape:cy="149.85119"
     inkscape:document-units="px"
     inkscape:current-layer="layer1"
     showgrid="false"
     inkscape:window-width="1280"
     inkscape:window-height="999"
     inkscape:window-x="0"
     inkscape:window-y="24"
     inkscape:window-maximized="1" />
  <metadata
     id="metadata7">
    <rdf:RDF>
      <cc:Work
         rdf:about="">
        <dc:format>image/svg+xml</dc:format>
        <dc:type
           rdf:resource="http://purl.org/dc/dcmitype/StillImage" />
        <dc:title></dc:title>
      </cc:Work>
    </rdf:RDF>
  </metadata>
  <g
     inkscape:label="Calque 1"
     inkscape:groupmode="layer"
     id="layer1"
     transform="translate(0,-752.36218)">
    <path
       style="fill:#000000"
       d="m 140.77702,1024.9345 c -2.1811,-4.9679 -3.06574,-29.50559 -2.29665,-63.70313 l 1.25092,-55.62278 -17.01825,0 c -20.26733,0 -36.416789,5.34452 -38.920808,12.8805 -0.997217,3.00117 -2.174242,29.11164 -2.615612,58.02327 -0.774686,50.74544 -1.03955,52.56654 -7.645278,52.56654 -6.640821,0 -6.842013,-1.6237 -6.816456,-55.0115 0.01448,-30.25635 1.191509,-58.01717 2.615612,-61.6907 3.321696,-8.56848 18.589985,-14.35175 46.968282,-17.79051 l 22.23907,-2.69483 0.40281,-14.28486 c 0.63092,-22.37459 -0.67639,-24.12361 -16.87106,-22.57137 -11.55622,1.10766 -17.44548,4.08713 -36.787149,18.61125 -12.665549,9.51086 -24.536364,17.29247 -26.379593,17.29247 -1.843229,0 -5.063858,-1.47458 -7.156953,-3.27684 -2.957941,-2.54694 0.05882,-6.06756 13.543511,-15.80557 17.526031,-12.65648 19.414576,-19.20547 4.781475,-16.58094 -13.169611,2.36204 -29.042802,-1.03012 -29.042802,-6.20655 0,-3.97305 2.737116,-4.58429 20.52837,-4.58429 13.239564,0 20.52837,-1.00252 20.52837,-2.82353 0,-1.55294 -6.054032,-6.939 -13.453408,-11.96902 -7.399374,-5.03003 -13.942792,-11.07186 -14.540929,-13.42629 -2.338009,-9.20307 8.106332,-5.5925 31.669511,10.94803 21.657727,15.20296 26.139997,17.27081 37.436297,17.27081 10.17321,0 13.22352,-1.06781 14.71822,-5.15232 1.037,-2.83377 0.61376,-7.50975 -0.94053,-10.39107 -3.25399,-6.03221 -29.88837,-26.02089 -34.67214,-26.02089 -1.76331,0 -8.554057,-2.47552 -15.09056,-5.50115 -11.92738,-5.52098 -16.226414,-14.05851 -7.079099,-14.05851 5.465627,0 40.598599,16.26697 52.275159,24.204 4.15529,2.82452 9.39522,5.13549 11.64429,5.13549 2.24907,0 12.16133,-5.2261 22.02725,-11.61355 30.58813,-19.80355 34.52834,-21.497 41.03673,-17.63705 7.38534,4.38004 6.06976,8.55194 -3.69988,11.73291 -9.45336,3.07798 -10.15008,3.44629 -31.51929,16.66196 -12.918,7.98907 -14.54093,10.17078 -14.54093,19.54741 0,9.36892 1.01489,10.73667 9.03396,12.17493 14.73851,2.64343 25.50108,-1.9097 39.73051,-16.80811 8.4664,-8.86443 15.84333,-14.0585 19.96673,-14.0585 9.37524,0 8.37293,8.73934 -2.014,17.56059 -4.70442,3.99529 -8.55349,8.27998 -8.55349,9.52153 0,1.24155 10.00758,2.25737 22.23907,2.25737 21.44074,0 22.23907,0.21941 22.23907,6.11239 0,5.93775 -0.68428,6.1124 -23.94977,6.1124 -13.17237,0 -23.94976,0.88917 -23.94976,1.97594 0,1.08677 6.07802,5.21264 13.50672,9.16859 18.55304,9.87993 23.77067,17.05363 16.29111,22.39859 -5.29305,3.78246 -6.4446,3.41237 -16.88381,-5.42618 -6.16183,-5.21702 -14.66749,-11.67552 -18.90146,-14.35222 -4.23398,-2.6767 -7.69814,-6.20094 -7.69814,-7.83166 0,-4.05238 -8.072,-5.93306 -25.4651,-5.93306 l -14.64126,0 -1.90293,14.9967 c -1.04662,8.24819 -1.20986,16.28738 -0.36277,17.86486 0.84709,1.57749 13.42169,4.36805 27.94355,6.20126 14.52187,1.83321 31.02227,5.15987 36.66758,7.39259 9.68769,3.83147 10.39109,5.147 12.52372,23.4225 1.24274,10.64967 3.40024,38.34201 4.79443,61.53855 2.52339,41.98395 2.50176,42.17555 -4.7604,42.17555 -11.11064,0 -13.88065,-13.7088 -14.44739,-71.50029 -0.48735,-49.69596 -0.38363,-49.54786 -36.2145,-51.70517 l -24.41855,-1.4702 -2.23672,7.93751 c -2.99747,10.6372 -2.94332,8.20635 -1.51024,67.79573 1.1389,47.35702 0.7064,52.60092 -4.39697,53.31202 -3.85689,0.5375 -6.79032,-1.7856 -9.20769,-7.2916 z m -38.53585,-16.0265 c -1.3735,-33.84939 -0.90249,-86.08891 0.7871,-87.29631 1.11481,-0.79665 4.55673,-0.75473 7.64872,0.0932 4.82144,1.32214 5.67733,6.46447 6.0119,36.12067 0.21455,19.01848 0.98636,37.87975 1.71511,41.91393 2.06007,11.40405 -1.34776,18.33715 -9.0132,18.33715 -5.48483,0 -6.84856,-1.7488 -7.14963,-9.1686 z m 79.89715,-0.5727 c -2.64712,-6.0611 -4.25443,-24.535 -4.25443,-48.89914 0,-32.75897 0.81897,-39.15782 5.01171,-39.15782 9.01878,0 11.38949,8.03034 13.93865,47.21454 1.94664,29.92279 1.5055,39.99972 -1.95326,44.61802 -6.05652,8.087 -7.78551,7.5748 -12.74267,-3.7756 z"
       id="path2996"
       inkscape:connector-curvature="0" />
  </g>
</svg>
