<?xml version="1.0" encoding="UTF-8" standalone="no"?>
<!-- Created with Inkscape (http://www.inkscape.org/) -->

<svg
   xmlns:dc="http://purl.org/dc/elements/1.1/"
   xmlns:cc="http://creativecommons.org/ns#"
   xmlns:rdf="http://www.w3.org/1999/02/22-rdf-syntax-ns#"
   xmlns:svg="http://www.w3.org/2000/svg"
   xmlns="http://www.w3.org/2000/svg"
   xmlns:sodipodi="http://sodipodi.sourceforge.net/DTD/sodipodi-0.dtd"
   xmlns:inkscape="http://www.inkscape.org/namespaces/inkscape"
   width="300"
   height="300"
   id="svg2"
   version="1.1"
   inkscape:version="0.48.2 r9819"
   sodipodi:docname="黹-bigseal.svg">
  <defs
     id="defs4" />
  <sodipodi:namedview
     id="base"
     pagecolor="#ffffff"
     bordercolor="#666666"
     borderopacity="1.0"
     inkscape:pageopacity="0.0"
     inkscape:pageshadow="2"
     inkscape:zoom="1.979899"
     inkscape:cx="176.44883"
     inkscape:cy="149.85119"
     inkscape:document-units="px"
     inkscape:current-layer="layer1"
     showgrid="false"
     inkscape:window-width="1280"
     inkscape:window-height="999"
     inkscape:window-x="0"
     inkscape:window-y="24"
     inkscape:window-maximized="1" />
  <metadata
     id="metadata7">
    <rdf:RDF>
      <cc:Work
         rdf:about="">
        <dc:format>image/svg+xml</dc:format>
        <dc:type
           rdf:resource="http://purl.org/dc/dcmitype/StillImage" />
        <dc:title></dc:title>
      </cc:Work>
    </rdf:RDF>
  </metadata>
  <g
     inkscape:label="Calque 1"
     inkscape:groupmode="layer"
     id="layer1"
     transform="translate(0,-752.36218)">
    <path
       style="fill:#000000"
       d="m 208.72908,1031.1157 c -3.06102,-15.3939 1.35869,-31.83597 -4.11722,-46.74715 -7.39263,-8.53546 -22.57142,-5.79818 -30.89535,0.3631 -4.67955,1.59422 -4.92328,5.44611 -4.28309,9.74788 -0.12663,12.05807 1.58967,24.38767 -1.13313,36.20917 -10.68677,1.41 -6.37226,-18.7603 -8.33819,-26.6253 0.20164,-10.75277 -1.57635,-24.57979 -16.02029,-21.04246 -10.1944,0.29834 -23.30707,0.5535 -20.4128,14.10928 -4.66591,9.36708 -5.06436,21.97328 -11.56392,29.50098 -12.013925,-5.2846 -2.40026,-21.1899 -3.21324,-31.16475 3.106,-10.10064 -2.51026,-19.64461 -13.841792,-15.84273 -5.856869,0.20527 -11.713503,0.41716 -17.570267,0.6254 0.773856,7.4276 -0.210368,15.662 3.882962,22.13808 -5.739737,7.8661 -12.93373,15.1517 -15.52661,24.5568 -6.565489,9.9027 -17.741989,-6.2904 -8.448856,-12.7985 6.782084,-8.9137 6.705016,-21.03738 1.368654,-30.60664 -4.943488,-11.79307 16.508965,-9.63532 24.258265,-12.05807 11.39537,0.10238 23.030154,-3.96398 28.523344,-14.66633 9.45897,-13.04819 18.49036,-26.48734 24.99594,-41.2463 6.3237,-10.10272 8.68325,-21.92937 14.17339,-32.41727 2.3668,-9.47165 3.6591,-20.11389 8.94599,-27.70787 7.99547,-10.55193 -15.33676,-9.75172 -18.08929,-1.06352 -9.43561,7.4584 -14.56625,19.36015 -18.62791,30.01703 -6.54458,6.08479 -8.61215,18.2796 -14.76477,25.91782 -7.44401,12.36555 -13.984577,27.04664 -28.512737,32.50881 -9.51679,5.40876 -24.836248,9.0627 -27.891817,-5.27818 -7.324105,-18.30522 3.621283,-37.19764 11.349821,-53.41294 0.979012,-7.28775 7.692076,-15.34174 11.871476,-4.80253 8.795087,6.90799 14.343233,20.15672 2.093319,26.92666 -5.386394,-0.60266 -11.248861,-2.15733 -11.893319,6.40439 -7.875999,12.07847 3.721766,21.52381 15.716931,17.18634 14.789753,-7.58321 20.800416,-24.58916 27.868416,-38.5823 2.77702,-11.67709 16.17698,-25.39785 7.55851,-36.88178 -10.89456,-7.52846 -25.880017,0.0996 -38.137944,0.72064 -11.153148,3.53095 -28.406138,4.32804 -27.559896,-12.19724 0.815346,-13.66387 1.035613,-27.81286 5.363534,-40.87713 9.593825,5.5922 12.309642,20.47296 14.545227,31.25238 6.889034,10.33478 22.019455,2.92662 32.153929,2.1312 11.11256,-6.44215 6.01423,-22.87039 8.7472,-33.5422 -2.70826,-8.40603 7.69435,-18.06746 10.9384,-6.52287 4.1839,11.98816 -5.68127,26.47138 1.98626,36.4414 10.74935,5.95722 24.35082,3.78689 35.77781,1.12214 3.44937,-9.50085 -0.0541,-21.31931 1.30025,-31.67222 -0.68653,-6.843 -0.27872,-26.49708 10.11848,-14.95274 2.44334,10.60028 6.76535,21.62989 5.78461,32.70965 -3.08248,8.7046 -2.86691,16.92958 8.34594,12.58087 10.54447,-1.40817 21.28333,-2.16718 31.58425,-4.86081 5.69316,-10.0181 1.3085,-23.34127 3.06019,-34.59064 -0.4726,-5.78043 1.18775,-16.70282 6.53776,-6.64688 9.55641,12.69507 6.21878,29.53614 6.29687,44.31524 -0.021,13.65597 -18.92917,6.37081 -27.91507,10.87259 -12.63557,1.44347 -23.04575,9.59025 -29.09088,20.56139 -6.77054,9.70152 -9.41185,21.22113 -16.57853,30.42671 -6.90951,14.47145 -14.02595,29.11949 -18.40759,44.64189 2.16276,10.58348 -18.0649,15.51695 -10.27708,23.65543 9.75743,9.07135 29.18354,9.95031 31.8926,-6.12131 7.7246,-16.55438 16.17247,-32.9304 27.1593,-47.52805 11.67531,-20.51035 35.36445,-28.86525 56.51951,-35.92033 11.58144,-2.91523 22.06264,11.99298 19.09924,22.8706 -1.03383,11.68083 -6.11165,23.13705 -13.27455,32.245 -9.48948,6.44955 -22.2506,9.97455 -33.46135,6.59014 -6.8264,-3.94641 -8.89483,-29.69711 3.21842,-21.67763 2.70798,7.78011 6.70885,16.14238 16.17623,10.17971 11.86663,-3.42332 18.97429,-14.15138 14.76332,-26.56052 0.9717,-15.60604 -15.52542,-9.29375 -24.12028,-5.4168 -12.86557,4.94882 -25.23571,12.50503 -32.1888,24.81707 -6.39075,10.9193 -13.42943,21.68746 -18.27265,33.37306 -1.97869,7.39128 -15.54219,22.86966 0.35933,21.55497 16.3372,0.40811 33.86911,-0.34695 48.7118,7.49939 3.49355,2.80061 8.44044,6.09184 1.64765,8.00524 -8.2852,7.7503 -5.9758,20.69664 -8.57285,30.92024 -2.26476,6.9737 1.14838,27.4825 -11.69306,16.3333 z"
       id="path3060"
       inkscape:connector-curvature="0" />
  </g>
</svg>
