<?xml version="1.0" encoding="UTF-8" standalone="no"?>
<!-- Created with Inkscape (http://www.inkscape.org/) -->

<svg
   xmlns:dc="http://purl.org/dc/elements/1.1/"
   xmlns:cc="http://creativecommons.org/ns#"
   xmlns:rdf="http://www.w3.org/1999/02/22-rdf-syntax-ns#"
   xmlns:svg="http://www.w3.org/2000/svg"
   xmlns="http://www.w3.org/2000/svg"
   version="1.1"
   width="300"
   height="300"
   id="svg2">
  <defs
     id="defs4" />
  <metadata
     id="metadata7">
    <rdf:RDF>
      <cc:Work
         rdf:about="">
        <dc:format>image/svg+xml</dc:format>
        <dc:type
           rdf:resource="http://purl.org/dc/dcmitype/StillImage" />
        <dc:title></dc:title>
      </cc:Work>
    </rdf:RDF>
  </metadata>
  <g
     transform="translate(0,-752.36218)"
     id="layer1">
    <path
       d="M 192.67671,1028.9413 C 183.57294,1024.6314 170.68123,1020.504 168.58037,1019.3356 166.47949,1018.1673 158.06458,1013.5243 149.88055,1009.0176 141.69653,1004.511 132.16785,997.10987 128.70572,992.57077 121.42299,983.02267 121.24049,980.65868 122.59309,913.39107 123.29689,878.38898 123.96999,865.69785 121.51753,862.74282 119.35011,860.13125 112.58195,859.18205 103.67981,859.18205 92.581018,859.18205 89.177138,858.02612 83.470048,852.31902 77.020808,845.8698 76.709038,844.50344 78.298998,829.65664 80.857768,805.76319 83.003668,797.46358 87.146738,795.43649 96.815888,790.70566 110.31652,787.87977 123.24881,787.87977 138.35666,787.87977 142.06941,788.20655 143.50789,775.14722 144.04487,770.27226 146.2513,767.36217 151.10949,767.36217 156.45104,767.36217 156.41122,770.26562 157.92859,777.1851 160.36286,788.28585 157.68895,789.33976 193.51031,792.25382 213.95161,793.91671 214.94027,794.05679 222.19126,802.85349 228.19573,810.13795 229.6966,814.40527 229.6966,824.1929 229.6966,838.52133 224.43126,852.66752 217.81627,856.11136 215.24668,857.44911 206.63539,859.33268 198.68007,860.29706 190.72475,861.26145 181.78955,863.1235 180.34136,864.86845 177.41199,868.39814 172.82413,920.33908 175.00009,923.85985 175.75924,925.08819 178.62453,924.88812 180.93387,923.84875 183.24322,922.80939 192.00825,921.29886 200.41174,920.49201 214.35146,919.15362 216.48648,922.39635 216.43537,912.65644 216.33788,894.07865 211.69896,896.86022 196.8074,895.42934 182.66891,894.0708 178.37035,889.98782 183.97226,883.23792 186.43301,880.27291 191.49048,879.52318 205.22609,880.08721 205.22609,880.08721 221.63481,880.3584 222.87196,881.20619 224.81856,882.54014 229.12792,891.49944 229.12792,891.49944 234.79062,901.78211 234.91986,903.31524 232.66994,933.51686 230.82591,958.27011 229.17193,966.82266 224.80533,974.18419 218.43513,984.92354 217.39976,985.46455 198.90107,987.72003 188.85275,988.94518 183.8235,988.4245 180.28725,985.79295 173.3788,980.65192 176.48841,977.6814 192.90007,973.7443 209.05719,969.86828 213.88714,970.03004 215.43051,948.88208 216.64822,932.19634 218.43756,936.08296 192.13558,934.66419 181.39965,934.08508 177.42422,928.06061 175.97888,930.13491 173.08018,934.29504 173.67338,948.53838 173.67338,948.53838 173.67338,957.2199 171.39386,970.51629 168.36311,979.51291 168.36311,979.51291 160.75427,992.71047 162.30042,996.27947 163.2607,998.49607 168.68511,999.83687 168.68511,999.83687 171.78287,1002.3454 177.3238,1005.1201 180.9983,1006.0029 190.81713,1008.3622 211.2914,1019.0325 217.05102,1024.7921 227.69148,1035.4326 226.21799,1038.4664 209.13062,1037.0268 204.381,1036.6266 199.10841,1031.986 192.67671,1028.9413 z M 153.77855,975.49535 C 157.81771,968.85348 158.67526,956.39646 160.23304,914.85033 163.42226,829.79377 162.43255,807.67146 157.54251,804.5869 154.55541,802.70269 151.98358,802.74204 148.84491,804.71998 145.25141,806.98456 144.81024,814.24387 141.28654,841.63135 137.04939,874.56401 135.97303,971.64035 138.72001,978.79888 141.29644,985.51294 148.47209,984.22114 153.77855,975.49535 z M 126.69558,843.21364 C 128.51744,841.01843 128.1394,830.72596 127.67585,820.07678 126.0881,802.18778 130.85051,803.80118 114.16806,803.49886 99.241748,802.39991 94.140708,810.78715 95.215998,827.61609 95.868008,837.82045 94.094168,840.16323 99.356218,842.81341 107.83178,847.08203 123.01572,847.6476 126.69558,843.21364 z M 205.06747,844.36716 C 210.75825,842.1834 215.83995,831.05835 214.32519,814.32936 213.8429,809.00284 210.80335,810.94826 204.23151,807.74616 193.71676,802.62291 185.38458,801.46148 181.49925,806.03149 178.46611,809.59913 178.76641,816.86747 178.76641,827.10814 178.76641,835.87845 178.28893,844.35014 179.22265,845.28385 181.34675,847.40795 199.66186,846.44149 205.06747,844.36716 z M 80.355078,982.19871 C 69.515768,980.07849 67.137958,974.05006 66.486028,947.03662 64.790398,876.77699 65.681768,874.4611 94.419768,874.4611 106.64679,874.4611 115.16803,875.58047 117.31659,878.16931 122.17213,884.01989 116.34982,886.39481 100.10988,888.23216 82.426118,890.23285 79.190598,888.91577 79.038098,906.75138 79.741648,919.8012 79.265858,917.71993 96.091008,916.65585 108.1793,916.65585 114.45496,923.82914 111.28363,928.96046 110.44682,930.31444 104.33811,930.38139 97.275198,931.06005 90.212298,931.7387 84.379678,932.87989 81.358048,934.12805 80.422008,934.51471 79.985018,940.88077 79.681498,948.19298 78.990648,964.83682 82.395778,972.11521 103.77619,971.22847 115.78646,970.73035 119.81917,974.45941 115.01109,980.25281 112.04414,983.82775 93.893498,984.8469 80.355078,982.19871 z"
       id="path3872"
       style="fill:#000000" />
  </g>
</svg>
