<?xml version="1.0" encoding="UTF-8" standalone="no"?>
<!-- Created with Inkscape (http://www.inkscape.org/) -->
<svg
   xmlns:dc="http://purl.org/dc/elements/1.1/"
   xmlns:cc="http://web.resource.org/cc/"
   xmlns:rdf="http://www.w3.org/1999/02/22-rdf-syntax-ns#"
   xmlns:svg="http://www.w3.org/2000/svg"
   xmlns="http://www.w3.org/2000/svg"
   xmlns:sodipodi="http://sodipodi.sourceforge.net/DTD/sodipodi-0.dtd"
   xmlns:inkscape="http://www.inkscape.org/namespaces/inkscape"
   width="300"
   height="300"
   id="svg2"
   sodipodi:version="0.32"
   inkscape:version="0.45.1"
   version="1.0"
   sodipodi:docbase="C:\Documents and Settings\Martin\桌面"
   sodipodi:docname="drawing.svg"
   inkscape:output_extension="org.inkscape.output.svg.inkscape">
  <defs
     id="defs4" />
  <sodipodi:namedview
     id="base"
     pagecolor="#ffffff"
     bordercolor="#666666"
     borderopacity="1.0"
     gridtolerance="10000"
     guidetolerance="10"
     objecttolerance="10"
     inkscape:pageopacity="0.0"
     inkscape:pageshadow="2"
     inkscape:zoom="0.70710678"
     inkscape:cx="20.23149"
     inkscape:cy="156.85303"
     inkscape:document-units="px"
     inkscape:current-layer="layer1"
     width="300px"
     height="300px"
     inkscape:window-width="742"
     inkscape:window-height="577"
     inkscape:window-x="50"
     inkscape:window-y="0" />
  <metadata
     id="metadata7">
    <rdf:RDF>
      <cc:Work
         rdf:about="">
        <dc:format>image/svg+xml</dc:format>
        <dc:type
           rdf:resource="http://purl.org/dc/dcmitype/StillImage" />
      </cc:Work>
    </rdf:RDF>
  </metadata>
  <g
     inkscape:label="Layer 1"
     inkscape:groupmode="layer"
     id="layer1">
    <path
       style="fill:#000000"
       d="M 243.105,281.41618 C 241.87414,279.42445 238.95603,264.32072 236.62047,247.85213 C 234.28488,231.38394 231.43042,216.96635 230.27722,215.81299 C 229.12411,214.65979 215.96346,213.62712 201.03131,213.51801 C 165.29455,213.25714 161.61108,204.97985 195.48206,201.04868 C 212.06625,199.12378 220.27074,196.35011 220.27074,192.66843 C 220.27074,184.6809 214.37084,182.18901 194.69985,181.86776 C 170.93217,181.47918 162.89664,179.00192 162.89664,172.06232 C 162.89664,164.08727 209.98255,164.0814 225.26578,172.05443 C 236.20346,177.76039 236.45538,177.6141 238.99079,164.09859 C 240.41158,156.52586 240.52854,148.63916 239.251,146.57187 C 237.97323,144.50467 223.65767,141.70086 207.4386,140.3407 C 180.10164,138.0491 168.57285,132.60277 173.65421,124.38089 C 174.76569,122.58272 182.94269,121.11146 191.82577,121.11146 C 206.12836,121.11146 207.97642,119.98932 207.97642,111.30483 C 207.97642,101.2913 201.22989,96.522709 187.06259,96.522709 C 175.01363,96.522709 169.6344,80.146937 172.9545,53.573811 C 175.26713,35.064481 177.20048,30.735297 182.68726,31.780008 C 188.04963,32.800915 189.79939,38.630196 190.75451,58.655938 C 191.81481,80.871031 193.02527,84.228279 199.97564,84.228279 C 207.18819,84.228279 207.97642,81.24986 207.97642,53.99389 C 207.97642,22.112248 213.48119,11.077426 226.83061,16.200084 C 231.67957,18.060822 232.65329,21.255643 230.40513,27.928477 C 225.14441,43.542204 223.26919,84.228279 227.81023,84.228279 C 237.24075,84.228279 244.85949,70.667343 244.85949,53.882382 C 244.85949,34.009502 247.8331,29.015368 255.75244,35.587794 C 263.36147,41.902596 263.069,81.716669 255.36709,88.109109 C 252.12995,90.795129 244.29245,94.370199 237.94971,96.053069 C 229.83163,98.207429 226.08274,102.06587 225.28541,109.08777 C 224.35047,117.32286 227.09067,120.28565 240.99583,126.07612 L 257.83894,133.08984 L 255.38645,162.95945 C 251.40304,211.47151 251.94613,223.60434 259.12354,246.42347 C 264.34088,263.00975 264.8745,270.07247 261.4017,276.56199 C 256.73921,285.27353 247.07393,287.83789 243.105,281.41618 z M 68.677877,268.93099 C 43.815849,267.03955 37.721179,265.23224 36.616767,259.42407 C 35.498796,253.54438 38.260607,252.25233 51.946205,252.25233 C 68.385065,252.25233 68.639272,252.02708 68.639272,237.47576 C 68.639272,227.69309 65.176707,218.58427 58.3939,210.52327 C 45.929182,195.70967 45.370862,181.60253 56.623883,165.79934 C 64.637146,154.54573 66.710152,153.89676 94.644422,153.89676 C 133.84768,153.89676 142.40593,159.68526 142.40593,186.19992 C 142.40593,201.84473 140.32327,207.70022 131.96662,215.55104 C 123.9084,223.12148 121.80523,228.659 122.74578,239.82973 C 123.74901,251.74514 125.7739,254.55169 134.20961,255.71847 C 146.45943,257.41309 155.48059,264.06674 152.36428,269.10902 C 150.00859,272.92072 120.29137,272.85746 68.677877,268.93099 z M 101.42445,237.90855 C 101.42445,222.19927 100.21016,219.46702 93.228147,219.46702 C 86.457319,219.46702 85.031868,222.19927 85.031868,235.17678 C 85.031868,251.97713 87.288989,256.35051 95.960254,256.35051 C 99.704244,256.35051 101.42445,250.54471 101.42445,237.90855 z M 121.15029,183.60817 L 122.43449,170.28918 L 100.13681,170.28918 C 75.436786,170.28918 66.220014,176.70163 70.687649,190.77778 C 73.098097,198.3724 76.098309,199.22436 96.639651,198.14622 C 119.55757,196.94351 119.88316,196.75013 121.15029,183.60817 z M 138.6737,135.89605 C 126.81378,121.60564 112.00735,120.06521 77.084036,129.48879 C 30.281359,142.11711 26.500527,134.44312 70.688346,116.50684 C 81.50324,112.11672 87.526528,106.88774 88.390491,101.13847 C 89.50752,93.705819 87.654187,92.424509 75.785907,92.424509 C 55.092021,92.424509 43.540593,78.494034 46.782632,57.447974 C 48.159403,48.510296 51.118838,38.869696 53.359081,36.024432 C 59.73724,27.92382 68.639272,37.91508 68.639272,53.174248 C 68.639272,66.800222 74.763338,76.031886 83.802419,76.031886 C 87.581804,76.031886 89.129999,68.886402 89.129999,51.443016 C 89.129999,30.496932 90.222848,26.854142 96.506677,26.854142 C 108.97537,26.854142 112.57799,34.402333 110.48849,56.148572 C 108.70005,74.761124 109.27929,76.700433 116.23184,75.377449 C 122.49614,74.185423 124.20334,69.633794 125.22353,51.40464 C 126.65071,25.903279 130.85287,18.966562 140.18316,26.709992 C 149.87765,34.755703 148.64774,69.790087 138.30777,80.130043 C 133.7998,84.637969 126.64894,88.326449 122.41699,88.326449 C 118.185,88.326449 112.62977,90.847839 110.07197,93.929739 C 104.48806,100.65811 108.88894,104.8248 130.11146,112.90335 C 151.17177,120.91999 159.83886,129.26344 154.18409,136.07713 C 148.36032,143.09438 144.61144,143.05054 138.6737,135.89605 z "
       id="path3192" />
  </g>
</svg>
