<?xml version="1.0" encoding="UTF-8" standalone="no"?>
<!-- Created with Inkscape (http://www.inkscape.org/) -->
<svg
   xmlns:dc="http://purl.org/dc/elements/1.1/"
   xmlns:cc="http://web.resource.org/cc/"
   xmlns:rdf="http://www.w3.org/1999/02/22-rdf-syntax-ns#"
   xmlns:svg="http://www.w3.org/2000/svg"
   xmlns="http://www.w3.org/2000/svg"
   xmlns:sodipodi="http://sodipodi.sourceforge.net/DTD/sodipodi-0.dtd"
   xmlns:inkscape="http://www.inkscape.org/namespaces/inkscape"
   width="300"
   height="300"
   id="svg2"
   sodipodi:version="0.32"
   inkscape:version="0.45.1"
   version="1.0"
   sodipodi:docbase="C:\Documents and Settings\Martin\桌面"
   sodipodi:docname="drawing.svg"
   inkscape:output_extension="org.inkscape.output.svg.inkscape">
  <defs
     id="defs4" />
  <sodipodi:namedview
     id="base"
     pagecolor="#ffffff"
     bordercolor="#666666"
     borderopacity="1.0"
     gridtolerance="10000"
     guidetolerance="10"
     objecttolerance="10"
     inkscape:pageopacity="0.0"
     inkscape:pageshadow="2"
     inkscape:zoom="0.70710678"
     inkscape:cx="131.76846"
     inkscape:cy="144.83221"
     inkscape:document-units="px"
     inkscape:current-layer="layer1"
     width="300px"
     height="300px"
     inkscape:window-width="742"
     inkscape:window-height="577"
     inkscape:window-x="50"
     inkscape:window-y="0" />
  <metadata
     id="metadata7">
    <rdf:RDF>
      <cc:Work
         rdf:about="">
        <dc:format>image/svg+xml</dc:format>
        <dc:type
           rdf:resource="http://purl.org/dc/dcmitype/StillImage" />
      </cc:Work>
    </rdf:RDF>
  </metadata>
  <g
     inkscape:label="Layer 1"
     inkscape:groupmode="layer"
     id="layer1">
    <path
       style="fill:#000000"
       d="M 220.55072,278.13524 C 217.89838,272.31456 215.72823,263.32312 215.72823,258.15424 C 215.72823,252.9854 213.29245,245.42551 210.31528,241.35448 C 205.39367,234.62442 204.40445,234.55233 199.41776,240.56029 C 194.78701,246.13936 182.48443,249.99772 182.48443,245.87096 C 182.48443,245.15756 186.22488,236.8328 190.79657,227.37155 C 197.66698,213.15294 198.27213,208.33307 194.28509,199.5834 C 189.33396,188.71813 180.84022,185.72819 176.20928,193.22049 C 174.77372,195.54296 171.83804,196.35498 169.68561,195.02483 C 165.05685,192.16441 166.04241,167.19349 170.91865,163.78469 C 172.77568,162.48656 176.52025,150.81678 179.23997,137.85199 L 184.18489,114.2796 L 170.8682,100.54174 C 150.9191,79.093448 160.90768,42.814333 190.52215,39.416723 C 203.54037,40.625912 206.65905,73.940297 205.70575,83.701038 C 204.27071,94.766251 202.10113,112.23356 200.88449,122.51719 C 199.66783,132.80092 196.79589,145.02612 194.50234,149.6843 C 191.61549,155.54756 191.84897,161.94036 195.26121,170.45947 L 200.19007,182.76511 L 203.92248,169.26132 C 205.97534,161.83417 209.24456,155.75746 211.18747,155.75746 C 217.63639,155.75746 225.08519,180.36145 222.18438,192.08139 C 217.73058,210.07576 218.55472,218.27027 230.54551,275.21446 C 233.95395,291.40107 227.46045,293.29864 220.55072,278.13524 z M 190.15335,74.95037 C 191.07173,70.21357 189.57418,68.215719 185.99788,69.406447 C 182.9227,70.430326 179.76057,74.600517 178.97093,78.673548 C 178.05257,83.410345 179.55005,85.408197 183.12639,84.217474 C 186.20158,83.193595 189.36372,79.023393 190.15335,74.95037 z M 81.713932,249.69409 C 71.827984,242.19044 72.480109,238.91422 86.927514,223.50193 C 102.35203,207.04737 102.62793,199.32024 88.040824,192.32956 C 77.557836,187.30576 76.360124,184.09116 72.088228,149.51378 C 69.547964,128.95256 68.010969,111.443 68.672687,110.60365 C 69.334413,109.76435 78.383041,108.11886 88.780744,106.94703 C 111.3211,104.4067 114.91528,93.279476 95.758324,85.345274 C 89.198234,82.628293 81.718362,75.769313 79.136374,70.103079 C 73.702496,58.17834 72.755025,14.486565 77.930309,14.486565 C 82.495496,14.486565 91.063784,33.461755 91.063784,43.571748 C 91.063784,54.796657 99.910004,72.816593 104.13787,70.203913 C 106.08918,68.998071 107.68568,58.773011 107.68568,47.481559 C 107.68568,36.190106 109.23968,26.951646 111.139,26.951646 C 115.03059,26.951646 122.89216,41.41679 125.8172,53.959312 C 126.88308,58.529844 127.57854,52.415051 127.36269,40.370883 C 126.74951,6.1638831 140.96456,0.20072614 142.17805,34.155892 C 143.37608,67.677938 140.92455,78.998628 131.57972,83.097981 C 126.43735,85.353821 121.65489,91.234316 120.95216,96.16573 C 119.92715,103.35829 122.39326,105.70733 133.41861,108.04063 C 152.0474,111.98309 167.35287,126.10274 161.12758,133.60284 C 158.32272,136.98216 157.55076,145.77498 159.17015,155.90046 C 161.45812,170.20714 160.33541,174.12671 151.38667,183.0745 C 136.41083,198.04867 136.37175,227.13755 151.31829,233.94692 C 157.03204,236.54999 161.70697,240.21407 161.70697,242.08925 C 161.70697,253.84117 95.473534,260.13795 81.713932,249.69409 z M 121.72444,200.42401 C 123.86086,191.51973 122.97452,188.99766 117.70896,188.99766 C 113.25479,188.99766 111.81159,191.23751 113.47437,195.57002 C 114.86162,199.18483 115.99667,205.10575 115.99667,208.72759 C 115.99667,217.70473 118.42192,214.18887 121.72444,200.42401 z M 131.57972,173.91373 C 149.20615,169.19058 142.41896,160.7654 122.77143,162.97973 C 111.75399,164.22142 103.48681,163.20373 101.74875,160.39186 C 97.213794,153.05489 91.063784,154.99513 91.063784,163.76284 C 91.063784,174.50432 110.86328,179.46497 131.57972,173.91373 z M 140.17972,138.0986 C 139.07137,130.29536 135.58614,128.37451 119.0982,126.47966 C 99.576154,124.23602 91.063784,127.62162 91.063784,137.62958 C 91.063784,141.15128 95.496634,142.05068 105.14084,140.4858 C 112.88321,139.22948 122.70051,140.22508 126.95714,142.69816 C 138.60055,149.46311 141.6435,148.40459 140.17972,138.0986 z "
       id="path2185"
       sodipodi:nodetypes="cssssssssscccccsscccsssccsssccsssssssssssssssssssssssccsssccsssccssssc" />
  </g>
</svg>
