<?xml version="1.0" encoding="UTF-8" standalone="no"?>
<!-- Created with Inkscape (http://www.inkscape.org/) -->

<svg
   xmlns:dc="http://purl.org/dc/elements/1.1/"
   xmlns:cc="http://creativecommons.org/ns#"
   xmlns:rdf="http://www.w3.org/1999/02/22-rdf-syntax-ns#"
   xmlns:svg="http://www.w3.org/2000/svg"
   xmlns="http://www.w3.org/2000/svg"
   version="1.1"
   width="300"
   height="300"
   id="svg2">
  <defs
     id="defs4" />
  <metadata
     id="metadata7">
    <rdf:RDF>
      <cc:Work
         rdf:about="">
        <dc:format>image/svg+xml</dc:format>
        <dc:type
           rdf:resource="http://purl.org/dc/dcmitype/StillImage" />
        <dc:title></dc:title>
      </cc:Work>
    </rdf:RDF>
  </metadata>
  <g
     transform="translate(0,-752.36218)"
     id="layer1">
    <path
       d="M 209.21019,1034.6652 C 207.19388,1028.2463 203.02552,987.34719 202.98773,974.16019 202.91679,949.40779 198.6466,943.30139 182.50378,961.32379 170.81586,974.37259 155.47455,978.80079 152.27001,975.59189 148.54454,971.86119 152.09941,965.34129 160.12476,961.18549 173.75876,954.12549 195.88838,935.22299 197.35084,929.38809 198.20304,925.98799 197.11799,919.96749 194.761,915.01809 190.71288,906.51739 190.67748,906.50249 177.70307,907.84339 168.37163,908.80779 163.93824,908.26599 161.99712,905.92389 158.02986,901.13701 166.2615,897.49694 181.05346,897.49694 191.08956,897.49694 194.59828,898.74464 201.41439,904.73749 205.85657,908.64309 209.32273,913.67069 211.71923,914.14839 216.28675,915.05869 217.44903,906.64579 217.44903,893.00951 217.44903,875.77025 214.50624,869.04864 197.66887,872.62097 190.78449,874.0816 181.05301,873.05064 175.22257,874.37979 167.9048,876.04799 162.91915,877.647 161.15741,875.88283 157.50037,872.22078 164.40668,866.0073 174.40109,863.96774 L 182.50088,862.31483 183.18885,841.86777 C 183.68676,827.06933 183.83877,819.75441 181.34914,816.34497 178.32167,812.19896 176.4993,812.41264 172.84629,815.44853 170.56342,817.34574 165.46182,824.63582 161.50942,831.64871 154.41082,844.24399 149.27155,847.53894 146.79694,841.08137 144.81543,835.91054 155.97204,814.89244 164.25254,808.19655 181.79321,794.01256 182.47935,803.10315 180.69376,782.79753 179.62796,770.67735 181.30788,766.35432 187.61012,767.55515 191.24119,768.24702 193.25419,770.9261 192.87087,781.0845 192.17625,799.49263 194.10331,794.12633 206.12706,803.10716 224.6536,816.94508 232.45058,826.02004 231.50951,832.65004 230.20542,841.83753 223.65919,840.70595 216.63628,830.07907 208.99003,818.50894 197.72366,808.12187 194.2606,811.58967 192.92285,812.92925 193.46179,827.03353 193.85385,839.78873 L 194.55197,862.50084 206.20561,862.50084 C 220.81084,862.50084 226.09612,868.17672 228.35589,886.28809 230.26074,901.55489 227.19275,914.12109 218.4905,926.69569 212.19054,935.79899 212.11587,936.37449 213.7561,963.18129 216.71633,1011.5615 217.63908,1036.1232 214.32713,1037.2358 212.6708,1037.7922 209.76609,1036.4348 209.21019,1034.6652 z M 73.643374,992.66359 C 71.636794,987.42729 77.277264,983.96359 85.396364,985.44609 95.634174,987.31539 99.348374,981.63739 99.348374,964.11719 99.348374,951.13419 98.504854,948.22879 93.319164,943.35039 82.126974,932.82149 78.768454,904.82309 87.063604,891.20102 90.894464,884.91008 93.520574,883.48173 103.32356,882.35714 121.02634,880.32629 138.33835,882.93991 144.53995,888.57965 154.35911,897.50918 150.45874,928.42669 137.77525,942.20199 134.1513,946.13799 133.41949,950.15169 133.9987,962.91529 134.39385,971.62259 135.49996,980.01499 136.45674,981.56519 137.41352,983.11539 141.86441,984.38379 146.34761,984.38379 154.62749,984.38379 159.43935,988.07739 155.65797,991.53059 154.51413,992.57509 135.93262,994.14379 114.36572,995.01659 79.403914,996.43149 74.989514,996.17639 73.643374,992.66359 z M 122.96249,981.17499 C 126.7901,974.01329 124.08627,948.02319 119.9408,944.57799 118.01043,942.97379 112.92707,943.09159 111.54339,943.94799 108.81204,945.63839 108.69929,982.35809 111.91156,984.23439 115.41184,986.27889 120.3784,986.01009 122.96249,981.17499 z M 131.71415,929.90719 C 136.3091,925.30579 136.97052,899.93321 132.60937,895.56611 131.01863,893.97319 123.91944,892.66989 116.83339,892.66989 100.38408,892.66989 91.634894,899.95426 93.072254,912.45289 93.576514,916.83779 94.110334,921.70549 94.258514,923.26989 94.893004,929.96879 102.318,933.69979 115.01478,933.69979 123.53923,933.69979 129.21364,932.41109 131.71415,929.90719 z M 69.390664,866.3966 C 66.111904,861.08418 70.963794,858.88055 85.939304,858.88055 102.43326,858.88055 108.48574,860.22334 105.49289,847.18832 104.88822,844.55474 100.73963,841.14915 96.744344,839.49197 86.949524,835.42926 82.954594,826.69772 82.272674,807.8619 81.624244,789.95088 83.433044,784.67539 88.716974,789.06669 90.977764,790.94556 92.117724,796.92717 92.117724,806.91125 92.117724,818.92285 91.817034,822.81446 95.717944,826.34959 103.48708,833.39021 107.76537,831.50652 107.24987,798.55168 106.82367,771.30554 109.0936,767.41899 116.21989,771.96486 119.1272,773.81943 119.71641,779.26185 119.22853,799.75531 118.71626,821.27359 117.76337,828.57219 121.02495,829.82549 126.79716,832.04353 130.60321,823.15029 130.64429,806.58381 130.68643,789.58247 132.21501,784.06131 136.8798,784.06131 141.8614,784.06131 145.14251,792.17553 145.14251,804.49511 145.14251,819.37249 140.18915,830.34677 129.9412,838.17398 125.27603,841.73717 120.50374,841.81443 117.95759,849.35355 116.54902,853.52433 123.70427,859.41161 127.84857,858.1308 129.46724,857.63054 137.58044,856.1883 144.53995,855.37179 155.9408,854.03422 157.19359,854.34782 157.19359,858.5392 157.19359,861.09778 155.29554,863.95673 152.97571,864.89242 145.25216,868.00767 71.207404,869.34017 69.390664,866.3966 z"
       id="path2996"
       style="fill:#000000" />
  </g>
</svg>
