<?xml version="1.0" encoding="UTF-8" standalone="no"?>
<!-- Created with Inkscape (http://www.inkscape.org/) -->
<svg
   xmlns:dc="http://purl.org/dc/elements/1.1/"
   xmlns:cc="http://web.resource.org/cc/"
   xmlns:rdf="http://www.w3.org/1999/02/22-rdf-syntax-ns#"
   xmlns:svg="http://www.w3.org/2000/svg"
   xmlns="http://www.w3.org/2000/svg"
   xmlns:sodipodi="http://sodipodi.sourceforge.net/DTD/sodipodi-0.dtd"
   xmlns:inkscape="http://www.inkscape.org/namespaces/inkscape"
   width="300"
   height="300"
   id="svg2"
   sodipodi:version="0.32"
   inkscape:version="0.45.1"
   version="1.0"
   sodipodi:docbase="C:\Documents and Settings\Martin\桌面"
   sodipodi:docname="drawing.svg"
   inkscape:output_extension="org.inkscape.output.svg.inkscape">
  <defs
     id="defs4" />
  <sodipodi:namedview
     id="base"
     pagecolor="#ffffff"
     bordercolor="#666666"
     borderopacity="1.0"
     gridtolerance="10000"
     guidetolerance="10"
     objecttolerance="10"
     inkscape:pageopacity="0.0"
     inkscape:pageshadow="2"
     inkscape:zoom="0.70710678"
     inkscape:cx="20.23149"
     inkscape:cy="156.85303"
     inkscape:document-units="px"
     inkscape:current-layer="layer1"
     width="300px"
     height="300px"
     inkscape:window-width="742"
     inkscape:window-height="577"
     inkscape:window-x="50"
     inkscape:window-y="0" />
  <metadata
     id="metadata7">
    <rdf:RDF>
      <cc:Work
         rdf:about="">
        <dc:format>image/svg+xml</dc:format>
        <dc:type
           rdf:resource="http://purl.org/dc/dcmitype/StillImage" />
      </cc:Work>
    </rdf:RDF>
  </metadata>
  <g
     inkscape:label="Layer 1"
     inkscape:groupmode="layer"
     id="layer1">
    <path
       style="fill:#000000"
       d="M 269.22188,269.47749 C 257.95808,251.36139 253.2047,235.86836 253.08942,216.89263 C 253.03373,207.71065 251.53224,197.9453 249.75173,195.19074 C 247.97147,192.4362 246.4924,191.75494 246.46426,193.67753 C 246.43614,195.60041 237.02245,198.89996 225.54591,201.01109 C 214.06915,203.12192 201.44286,205.81803 197.48853,207.00233 C 188.2577,209.76717 187.2481,206.24492 184.52855,161.8026 C 179.19133,74.595169 188.29451,73.443142 178.09261,72.269332 C 171.60696,71.522963 159.60584,69.317789 159.60584,64.757126 C 159.60584,59.809919 161.94539,58.301346 169.62158,58.301346 C 181.98738,57.780697 183.55786,63.787545 186.31453,52.635273 C 186.31453,49.07104 187.63396,18.236242 189.24567,18.236242 C 195.09543,18.236242 199.23351,27.030129 200.27606,41.673119 L 201.33982,56.63199 L 216.10432,58.301346 C 240.21024,61.026795 237.70723,68.455401 211.35612,72.394687 C 205.62295,73.25178 204.53743,76.354511 203.68184,94.342542 L 202.68496,115.29214 L 217.19623,121.71187 C 237.20277,130.56177 244.25151,137.70086 249.70912,154.64608 C 252.28578,162.64526 256.21588,169.8894 258.44428,170.74474 C 260.67261,171.59964 264.05067,176.32311 265.95218,181.24103 C 271.69905,196.10483 286.97643,275.1526 284.78693,278.69563 C 281.14113,284.59462 277.15171,282.23162 269.22188,269.47749 z M 228.04985,178.49698 C 228.04985,175.11932 223.97207,173.15146 215.52919,172.45201 C 202.20831,171.34983 201.85615,171.60764 205.10431,180.07251 C 207.84403,187.21285 228.04985,185.82424 228.04985,178.49698 z M 233.05841,155.40574 C 233.05841,149.91858 213.87223,138.31644 208.32091,140.44598 C 201.62247,143.01642 201.44712,150.58077 207.99966,154.24827 C 215.233,158.29581 233.05841,159.11918 233.05841,155.40574 z M 34.990232,274.49431 C 27.799208,269.23627 30.701057,258.6269 39.330214,258.6269 C 43.535165,258.6269 45.804105,255.05511 47.283205,246.10701 C 51.340118,221.56301 49.965059,211.98674 41.85273,208.29095 C 26.718545,201.39503 19.272801,184.96065 17.056888,153.56072 L 15.000049,124.4154 L 36.386512,125.13015 C 69.439151,126.23415 69.458743,126.22868 69.458743,115.41726 C 69.458743,104.90544 65.616554,102.19286 52.764934,103.63095 C 40.391995,105.01428 25.558933,98.409383 26.769845,92.054622 C 27.49129,88.268016 32.714182,86.170245 44.452801,84.951992 C 65.695453,82.74745 69.458743,80.204461 69.458743,68.054889 C 69.458743,58.341509 69.195184,58.194585 54.269773,59.588894 C 36.915462,61.210069 27.981231,54.640431 24.213857,37.487637 C 20.611029,21.083893 27.357908,19.316717 41.104801,33.063647 C 50.183828,42.142789 55.679907,45.064239 62.250264,44.304142 C 68.543874,43.575956 70.845068,41.587162 70.155665,37.471874 C 68.943637,30.235479 75.12137,18.236242 80.059084,18.236242 C 85.56924,18.236242 92.603144,28.898615 92.723845,37.434117 C 92.87959,48.456739 100.85547,46.62067 111.7364,33.057527 C 122.86919,19.180069 131.41939,20.02507 133.65028,35.222855 C 135.33125,46.673036 128.08986,58.861745 120.0741,58.075923 C 117.02616,57.776929 109.64929,57.705414 103.68098,57.91692 C 93.590658,58.27442 92.829977,59.116034 92.829977,69.923363 C 92.829977,82.586517 94.997064,83.808317 121.2093,85.923697 C 136.3591,87.146193 140.20222,96.096623 126.21739,97.586111 C 121.62631,98.075078 112.23667,100.19361 105.35045,102.29351 C 94.717961,105.53748 92.829977,107.54256 92.829977,115.5948 C 92.829977,124.83042 93.294622,125.07688 110.69459,125.07688 C 120.52082,125.07688 133.28406,126.72284 139.05753,128.73613 C 150.43889,132.70413 150.48592,133.20775 142.31376,163.47223 C 136.18433,186.17218 130.33322,196.50368 118.20003,206.05046 C 106.69038,215.10648 106.53495,215.56492 107.53754,237.51516 C 108.42763,256.9973 109.48453,260.13476 115.96452,262.5322 C 120.56341,264.23236 122.9485,267.49591 122.2514,271.13169 C 121.26677,276.26603 116.17207,277.10503 81.039328,277.92135 C 52.078304,278.59476 39.295889,277.64297 34.990232,274.49431 z M 92.155273,239.40717 C 93.100258,219.55875 92.715434,218.35279 84.425647,215.20093 C 66.061096,208.21933 63.842279,210.77003 60.505405,242.69483 L 58.448723,262.3727 L 74.804615,261.33409 L 91.160621,260.29652 L 92.155273,239.40717 z M 106.81676,192.25971 C 118.09825,187.9535 123.1521,178.65814 123.93535,160.77312 L 124.5487,146.77867 L 81.144376,144.64321 C 57.27226,143.46904 36.613633,143.18147 35.236419,144.00605 C 29.478306,147.44939 32.872863,173.62154 40.261213,182.74542 C 51.530474,196.66299 83.358577,201.21279 106.81676,192.25971 z M 70.293426,174.36066 C 55.543135,171.31046 54.2491,169.90031 59.127909,162.19799 C 61.911353,157.80295 75.188131,158.44747 93.664682,163.87522 C 110.82306,168.91571 89.728889,178.38005 70.293426,174.36066 z "
       id="path3180"
       sodipodi:nodetypes="cssssssssccscccscccssssccssccssccssscccsssssssssssssssssssssssssssssccscccccccccssccssc" />
  </g>
</svg>
