<?xml version="1.0" encoding="UTF-8" standalone="no"?>
<!-- Created with Inkscape (http://www.inkscape.org/) -->

<svg
   xmlns:dc="http://purl.org/dc/elements/1.1/"
   xmlns:cc="http://creativecommons.org/ns#"
   xmlns:rdf="http://www.w3.org/1999/02/22-rdf-syntax-ns#"
   xmlns:svg="http://www.w3.org/2000/svg"
   xmlns="http://www.w3.org/2000/svg"
   version="1.1"
   width="300"
   height="300"
   id="svg2">
  <defs
     id="defs4" />
  <metadata
     id="metadata7">
    <rdf:RDF>
      <cc:Work
         rdf:about="">
        <dc:format>image/svg+xml</dc:format>
        <dc:type
           rdf:resource="http://purl.org/dc/dcmitype/StillImage" />
        <dc:title></dc:title>
      </cc:Work>
    </rdf:RDF>
  </metadata>
  <g
     transform="translate(0,-752.36218)"
     id="layer1">
    <path
       d="M 140.89067,1035.8584 C 140.16607,1034.686 138.91823,1026.7845 138.11769,1018.2995 135.95157,995.34064 139.8394,986.07279 162.19018,979.42425 196.31923,969.27212 196.94607,956.89004 193.78068,904.1249 192.42834,881.58225 192.84103,876.77083 195.94783,874.19243 203.81648,867.66202 205.28037,874.868 204.63694,916.96414 204.29864,939.09646 202.92335,960.67423 201.58072,964.91475 198.81088,973.66296 189.82605,979.90293 171.38851,985.88327 164.54998,988.1014 156.71631,990.89034 155.0017,992.95634 153.28708,995.02234 151.31103,1005.4978 150.61048,1016.2351 149.59105,1031.8602 149.3774,1036.6252 146.19026,1037.2319 144.00008,1037.6489 141.61526,1037.0308 140.89067,1035.8584 z M 101.47958,962.49077 C 90.563297,956.30987 88.366718,950.99613 87.329205,914.25197 86.571643,887.42249 87.815075,878.17447 88.806709,875.57391 91.367045,868.85941 97.292797,869.86905 98.648981,879.67421 99.801275,888.00527 100.40277,887.88712 114.53911,889.16507 122.89985,889.92089 128.64365,887.68288 126.85303,893.8685 126.12393,896.38716 122.53144,897.44348 112.9172,898.3175 99.211911,900.08269 98.742616,894.79675 98.742616,907.57361 98.742616,912.00214 98.877372,916.46914 100.48761,917.42832 101.82427,918.22454 107.35562,916.25653 110.89044,915.91052 121.72788,914.84969 127.33856,916.89284 127.33856,920.93995 127.33856,925.21 120.59587,926.44397 110.40163,927.16022 105.23198,927.52344 101.13311,926.36328 98.817006,928.6204 96.417241,930.95903 96.777876,936.19267 97.537046,940.73474 98.782129,948.184 102.78303,950.93723 118.9261,951.153 129.86806,951.29924 131.77952,953.32227 131.77952,958.76463 131.77952,964.29632 129.9895,964.81916 118.9261,965.3481 112.31631,965.66412 104.46538,964.18135 101.47958,962.49077 z M 149.51196,960.8002 C 138.90475,957.56791 142.03339,932.8051 142.30128,916.97477 142.8801,882.77079 143.45706,877.85326 146.97053,877.17869 149.41621,876.70913 154.41245,878.53204 154.18121,882.99199 153.71973,891.89299 154.69204,890.43329 168.19908,889.74001 176.12809,889.33304 180.42703,885.72139 179.85072,895.06225 179.77461,896.29591 175.89161,897.6553 168.24624,897.88186 152.85629,898.33791 152.35646,897.61565 151.61478,910.36831 151.09753,919.2622 152.09025,918.57398 165.30492,916.11991 175.11767,914.29759 178.11204,915.52769 179.30295,918.63114 181.46911,924.27607 179.08182,925.69552 165.04715,927.1074 151.34365,928.63027 152.85382,924.95386 151.79985,937.88037 150.86644,949.32824 150.56338,953.83813 168.25788,953.59937 178.8135,953.45695 181.76918,955.08353 178.59918,961.00671 175.34084,967.09499 159.75417,967.04487 149.51196,960.8002 z M 126.80068,866.87243 C 100.32299,862.99212 90.940413,853.87385 88.109935,830.57368 85.222223,806.80235 85.252738,791.18355 89.891427,784.10402 97.535019,772.43842 134.30525,762.41673 140.60035,770.00186 144.33637,774.50349 134.833,778.63769 120.46246,780.95466 110.10577,782.62449 99.617744,787.05547 98.495836,797.53892 97.701828,804.95837 101.62893,800.51564 120.71473,794.77195 129.19598,792.21961 132.80772,792.26146 134.85435,794.30809 138.71859,798.17233 136.93273,803.62365 131.19921,803.62365 128.55151,803.62365 117.89867,806.38752 110.5902,809.61966 100.69227,813.997 97.168021,816.89192 96.824588,820.55506 95.63084,833.28787 103.26266,827.55516 115.59915,821.26155 120.93477,818.53952 128.10909,816.64671 131.54207,817.05531 143.48455,818.47674 140.06218,823.60684 121.54064,832.04738 114.36312,835.31828 106.6697,836.12273 104.8998,838.98145 100.61589,845.9008 104.78293,848.08057 114.42828,852.54488 121.35765,855.75212 130.31117,856.75375 152.14659,856.64807 179.80592,856.51419 191.62175,856.33027 191.383,846.73661 191.26189,841.87026 180.56817,833.96646 167.87553,828.53699 161.08284,825.63132 157.47304,822.51288 156.77027,820.80229 154.34285,814.89383 167.8717,815.92846 176.4122,820.96748 180.82225,823.56948 185.14508,825.98088 189.37423,826.90975 192.33542,827.56014 193.91435,831.37425 198.44229,830.89723 200.05429,830.72741 199.71249,824.11501 199.26516,820.20603 198.62273,814.59216 196.11147,813.63746 185.26275,808.3279 177.99198,804.76946 169.50325,802.39193 166.69071,802.31499 161.15877,802.16365 155.23308,796.71381 157.80451,794.14237 160.51385,791.43303 170.8557,792.39498 184.1827,796.59594 191.02973,798.75428 191.39538,802.90311 197.85909,801.71823 200.08997,801.30927 199.66614,794.30413 197.54498,790.3407 194.50128,784.65351 175.80787,778.13949 167.05518,778.13949 161.6954,778.13949 157.40725,772.90759 160.35282,769.96201 163.05258,767.26226 182.11865,770.4571 193.43646,772.92418 210.16433,776.57056 213.85792,786.68844 213.86299,813.66054 213.86625,831.07064 212.94989,835.3747 206.53374,848.08502 200.93817,859.16978 197.25483,863.42465 190.98779,866.04319 181.92882,869.82827 149.80229,870.24332 126.80068,866.87243 z"
       id="path3011"
       style="fill:#000000" />
  </g>
</svg>
