<?xml version="1.0" encoding="UTF-8" standalone="no"?>
<!-- Created with Inkscape (http://www.inkscape.org/) -->

<svg
   xmlns:dc="http://purl.org/dc/elements/1.1/"
   xmlns:cc="http://creativecommons.org/ns#"
   xmlns:rdf="http://www.w3.org/1999/02/22-rdf-syntax-ns#"
   xmlns:svg="http://www.w3.org/2000/svg"
   xmlns="http://www.w3.org/2000/svg"
   xmlns:sodipodi="http://sodipodi.sourceforge.net/DTD/sodipodi-0.dtd"
   xmlns:inkscape="http://www.inkscape.org/namespaces/inkscape"
   width="300"
   height="300"
   id="svg2"
   version="1.1"
   inkscape:version="0.48.3.1 r9886"
   sodipodi:docname="鼠.svg">
  <defs
     id="defs4" />
  <sodipodi:namedview
     id="base"
     pagecolor="#ffffff"
     bordercolor="#666666"
     borderopacity="1.0"
     inkscape:pageopacity="0.0"
     inkscape:pageshadow="2"
     inkscape:zoom="1.979899"
     inkscape:cx="170.89598"
     inkscape:cy="150.92094"
     inkscape:document-units="px"
     inkscape:current-layer="layer1"
     showgrid="false"
     inkscape:window-width="1215"
     inkscape:window-height="1000"
     inkscape:window-x="65"
     inkscape:window-y="24"
     inkscape:window-maximized="1" />
  <metadata
     id="metadata7">
    <rdf:RDF>
      <cc:Work
         rdf:about="">
        <dc:format>image/svg+xml</dc:format>
        <dc:type
           rdf:resource="http://purl.org/dc/dcmitype/StillImage" />
        <dc:title></dc:title>
      </cc:Work>
    </rdf:RDF>
  </metadata>
  <g
     inkscape:label="Calque 1"
     inkscape:groupmode="layer"
     id="layer1"
     transform="translate(0,-752.36218)">
    <path
       style="fill:#000000"
       d="m 154.62998,1025.5985 c -1.29562,-2.55 -5.78056,-12.9132 -9.96655,-23.0294 -11.41218,-27.5795 -16.32228,-34.29298 -27.04218,-36.97413 -5.36446,-1.3417 -13.35946,-6.81974 -17.766672,-12.1734 -8.175166,-9.93079 -7.048639,-17.11956 8.217422,-52.43835 2.3639,-5.46898 0.91089,-7.6368 -6.66636,-9.94586 -7.31015,-2.22764 -9.689122,-5.47902 -9.689122,-13.24226 0,-9.62801 2.23066,-15.3527 20.490912,-52.58722 3.89799,-7.94841 7.11191,-16.4439 7.14203,-18.87885 0.0301,-2.43497 2.25057,-7.71574 4.93433,-11.73506 3.90651,-5.85053 5.7329,-6.53962 9.15858,-3.45552 2.35345,2.11878 4.3108,7.68164 4.34966,12.3619 0.0388,4.68027 3.4909,10.78409 7.67119,13.56404 8.17525,5.43665 20.08719,4.64549 20.08719,-1.33414 0,-2.01314 2.07657,-3.66024 4.61461,-3.66024 7.86541,0 5.07717,20.71369 -4.17885,31.04452 -10.71609,11.96046 -9.02202,14.20653 29.16603,38.66931 21.90532,14.03229 29.35494,17.21892 38.04303,16.27324 5.94203,-0.64679 10.80368,-0.93039 10.80368,-0.63024 0,0.30014 -3.26697,4.27461 -7.25991,8.83214 -6.57416,7.50368 -20.4278,11.5872 -20.4278,6.02129 0,-1.24581 -9.71592,-8.36355 -21.59091,-15.8172 -23.7504,-14.90755 -28.97711,-14.31017 -29.09922,3.32581 -0.0754,10.88288 -8.3424,30.20052 -14.69244,34.33194 -8.14748,5.30083 -2.90259,10.90469 22.32815,23.85638 31.03245,15.92985 31.08776,24.16296 0.082,12.20333 -10.6287,-4.09974 -22.97006,-8.20966 -27.42524,-9.13316 -7.5098,-1.55669 -7.45742,-0.96152 0.7186,8.16387 4.8504,5.41364 10.05453,15.72504 11.56472,22.91421 1.51019,7.18918 3.9775,17.95805 5.48288,23.93095 2.74669,10.8979 -4.48613,18.5242 -9.04975,9.5421 z m -21.31811,-98.57214 c 3.38559,-6.14195 7.87111,-12.29047 9.96785,-13.66338 2.09672,-1.3729 3.63372,-10.24096 3.41557,-19.7068 -0.31513,-13.67478 -1.19741,-15.69159 -4.29443,-9.8168 -2.14379,4.06661 -6.38808,9.10239 -9.43179,11.19064 -3.04369,2.08824 -9.28184,11.74548 -13.86252,21.46052 -6.2834,13.32621 -6.98612,18.14978 -2.86178,19.64313 9.13214,3.30659 10.67936,2.48096 17.0671,-9.10731 z m 4.44822,-69.30896 c 0.0565,-3.07468 -2.68634,-6.90827 -6.09503,-8.51909 -4.81333,-2.27459 -7.39017,-1.43849 -11.53655,3.74327 -5.99586,7.49303 -7.01901,17.73012 -2.0546,20.55686 4.74095,2.6995 19.56509,-9.184 19.68618,-15.78104 z m 9.33184,-23.50069 c 0,-3.71614 -3.11487,-8.53024 -6.92191,-10.69798 -3.80707,-2.16775 -7.09498,-3.56131 -7.30648,-3.09679 -2.86305,6.288 -2.1228,14.66327 1.52614,17.26692 7.38185,5.2672 12.70225,3.81287 12.70225,-3.47215 z m 68.7249,46.06492 c -5.67157,-1.80728 -6.766,-5.56309 -5.10521,-17.5199 3.90644,-28.12441 19.44344,-28.73798 19.44344,-0.76781 0,18.96194 -2.44318,22.0781 -14.33823,18.28771 z M 69.46877,839.27883 c -2.619067,-2.66483 -2.732177,-7.65755 -0.283614,-12.5189 2.240087,-4.44746 4.072887,-11.34572 4.072887,-15.32947 0,-9.8062 7.390911,-9.19247 10.938767,0.90834 3.219012,9.16454 -0.958829,28.06021 -6.64667,30.06181 -2.048672,0.72096 -5.685289,-0.68385 -8.08137,-3.12178 z m 87.74072,-51.51388 c 0.99311,-7.81558 3.49648,-11.16718 8.34092,-11.16718 8.69517,0 11.44213,9.81516 4.74202,16.94368 -8.40296,8.94023 -14.60498,6.20184 -13.08294,-5.7765 z"
       id="path3028"
       inkscape:connector-curvature="0" />
  </g>
</svg>
