<?xml version="1.0" encoding="UTF-8" standalone="no"?>
<!-- Created with Inkscape (http://www.inkscape.org/) -->

<svg
   xmlns:dc="http://purl.org/dc/elements/1.1/"
   xmlns:cc="http://creativecommons.org/ns#"
   xmlns:rdf="http://www.w3.org/1999/02/22-rdf-syntax-ns#"
   xmlns:svg="http://www.w3.org/2000/svg"
   xmlns="http://www.w3.org/2000/svg"
   xmlns:sodipodi="http://sodipodi.sourceforge.net/DTD/sodipodi-0.dtd"
   xmlns:inkscape="http://www.inkscape.org/namespaces/inkscape"
   width="300"
   height="300"
   id="svg2"
   version="1.1"
   inkscape:version="0.48.3.1 r9886"
   sodipodi:docname="Nouveau document 1">
  <defs
     id="defs4" />
  <sodipodi:namedview
     id="base"
     pagecolor="#ffffff"
     bordercolor="#666666"
     borderopacity="1.0"
     inkscape:pageopacity="0.0"
     inkscape:pageshadow="2"
     inkscape:zoom="1.979899"
     inkscape:cx="170.89598"
     inkscape:cy="150.92094"
     inkscape:document-units="px"
     inkscape:current-layer="layer1"
     showgrid="false"
     inkscape:window-width="1215"
     inkscape:window-height="1000"
     inkscape:window-x="65"
     inkscape:window-y="24"
     inkscape:window-maximized="1" />
  <metadata
     id="metadata7">
    <rdf:RDF>
      <cc:Work
         rdf:about="">
        <dc:format>image/svg+xml</dc:format>
        <dc:type
           rdf:resource="http://purl.org/dc/dcmitype/StillImage" />
        <dc:title></dc:title>
      </cc:Work>
    </rdf:RDF>
  </metadata>
  <g
     inkscape:label="Calque 1"
     inkscape:groupmode="layer"
     id="layer1"
     transform="translate(0,-752.36218)">
    <path
       style="fill:#000000"
       d="m 44.423945,1028.7806 c -2.226166,-4.196 19.966124,-61.44449 29.864892,-77.04116 9.235583,-14.55176 32.326213,-25.29652 67.703673,-31.50452 63.10609,-11.07381 56.38502,-7.95952 58.59761,-27.15159 1.08321,-9.39582 0.79601,-17.92811 -0.63818,-18.96066 -1.43421,-1.03256 -9.27028,-0.0871 -17.4135,2.10053 -8.14324,2.18784 -26.49106,4.02191 -40.77296,4.07564 l -25.96708,0.098 -24.768697,25.98677 c -23.648058,24.81102 -31.405406,30.33744 -31.405406,22.3735 0,-1.98727 9.652523,-14.75074 21.450055,-28.3632 l 21.450048,-24.74997 -12.01203,2.57633 c -6.606612,1.417 -16.465979,3.65902 -21.909696,4.98231 -7.123096,1.73143 -9.491819,0.98758 -8.449896,-2.65366 2.888568,-10.0947 28.984774,-15.43554 82.921782,-16.97076 58.75385,-1.67227 60.5386,-2.39054 60.64153,-24.40541 0.0524,-11.20338 3.4e-4,-11.22901 -16.24946,-7.99593 -8.96613,1.78388 -33.97322,2.76643 -55.57133,2.18344 -27.90567,-0.75322 -44.647504,0.76141 -57.855008,5.2341 -10.222183,3.46168 -19.430654,5.30982 -20.463272,4.10691 -3.263195,-3.8013 29.31291,-18.5199 50.70433,-22.90926 20.17705,-4.14021 20.55111,-4.45454 20.55111,-17.26762 0,-12.73994 -0.42892,-13.11404 -18.01805,-15.71511 -23.137308,-3.4215 -40.326097,-9.85819 -40.326097,-15.10096 0,-2.65604 3.355603,-2.91088 9.43803,-0.7168 5.190904,1.87254 30.813047,2.77879 56.938097,2.01394 61.57514,-1.80272 75.05305,2.18593 84.20281,24.91912 10.82881,26.90478 12.35829,58.32811 4.35979,89.57249 -3.78504,14.78535 -8.81595,42.88201 -11.17981,62.43702 -4.24353,35.10418 -4.19826,35.64858 3.57197,42.97813 10.65502,10.05068 16.16758,9.34318 23.08972,-2.96353 4.68219,-8.32433 5.03868,-11.88631 1.79512,-17.93659 -4.83677,-9.0221 -5.30435,-19.65188 -0.86438,-19.65188 6.55572,0 17.40913,21.4867 17.40913,34.46514 0,11.21588 -2.25033,15.13164 -13.82206,24.05234 -13.01137,10.0304 -14.62465,10.3469 -27.50519,5.3949 -7.52574,-2.8933 -15.47057,-7.7694 -17.65518,-10.8358 -4.57044,-6.41513 -5.17938,-39.23931 -1.18863,-64.07098 3.20545,-19.94561 2.13336,-20.33138 -30.77716,-11.07437 -11.32564,3.18566 -24.76671,5.85617 -29.86909,5.9345 -9.72148,0.14912 -14.73209,8.92046 -23.10668,40.44898 -8.65405,32.58067 -22.540678,55.20427 -34.077168,55.51737 -3.849055,0.1044 -3.785761,-1.4774 0.354823,-8.8682 4.387448,-7.8315 30.069965,-74.1643 30.069965,-77.66479 0,-0.71224 -2.19811,-1.29502 -4.8847,-1.29502 -10.807064,0 -27.372658,22.66262 -40.059387,54.80343 C 49.561802,1032.524 47.86568,1035.268 44.423945,1028.7808 z M 190.24247,812.30536 c 5.21648,-3.25218 5.99164,-5.85734 3.4129,-11.47032 -3.26587,-7.10866 -22.56935,-12.39165 -45.27785,-12.39165 -8.83796,0 -9.81702,1.32909 -9.81702,13.32654 0,7.32963 1.1583,14.71531 2.57401,16.41265 3.34284,4.00791 40.35775,-0.42203 49.10796,-5.87722 z m -35.75621,-4.96643 c -5.58625,-4.75833 -5.68777,-5.8665 -0.95651,-10.4406 7.40166,-7.1558 17.63483,-3.94224 17.63483,5.53794 0,9.65656 -8.2502,12.08173 -16.67832,4.90266 z m -83.819867,0.43842 c 1.003028,-3.5368 8.958671,-5.75004 23.550381,-6.55166 27.290196,-1.49928 23.694826,5.11071 -4.946735,9.09445 -16.02561,2.22902 -19.81022,1.71173 -18.603646,-2.54279 z"
       id="path2996"
       inkscape:connector-curvature="0" />
  </g>
</svg>
