<?xml version="1.0" encoding="UTF-8" standalone="no"?>
<!-- Created with Inkscape (http://www.inkscape.org/) -->

<svg
   xmlns:dc="http://purl.org/dc/elements/1.1/"
   xmlns:cc="http://creativecommons.org/ns#"
   xmlns:rdf="http://www.w3.org/1999/02/22-rdf-syntax-ns#"
   xmlns:svg="http://www.w3.org/2000/svg"
   xmlns="http://www.w3.org/2000/svg"
   version="1.1"
   width="300"
   height="300"
   id="svg2">
  <defs
     id="defs4" />
  <metadata
     id="metadata7">
    <rdf:RDF>
      <cc:Work
         rdf:about="">
        <dc:format>image/svg+xml</dc:format>
        <dc:type
           rdf:resource="http://purl.org/dc/dcmitype/StillImage" />
        <dc:title></dc:title>
      </cc:Work>
    </rdf:RDF>
  </metadata>
  <g
     transform="translate(0,-752.36218)"
     id="layer1">
    <path
       d="M 119.30552,1032.3216 C 118.41502,1029.516 119.14195,1020.0405 120.07174,1008.293 121.39176,991.61488 120.17601,981.78095 117.61877,980.13123 115.81751,978.96921 104.13258,979.07998 92.17387,980.10284 82.020034,980.97132 71.099341,982.27882 70.039585,976.10784 69.00194,970.06561 78.252576,969.5746 154.36099,967.76536 235.52228,965.83601 225.86583,965.64038 227.94402,969.81973 233.65063,981.296 227.75385,977.33243 209.153,977.8539 198.75104,978.14552 187.88569,978.05424 186.06926,979.56175 183.75416,981.48311 183.77686,992.13428 183.29467,1010.2971 182.65593,1034.3566 183.36487,1036.944 178.84869,1036.944 174.32387,1036.944 172.83137,1034.3543 172.18485,1009.6021 171.80265,994.96928 171.75826,980.55747 170.31058,978.81311 167.13596,974.98793 138.97155,976.32515 134.16521,980.79998 132.23884,982.59349 131.74526,997.15958 131.19202,1011.7877 130.70659,1024.6228 130.17691,1033.2618 129.26434,1034.7383 126.54945,1039.1311 121.04262,1037.7948 119.30552,1032.3216 z M 117.0502,953.61022 C 98.955188,948.75353 96.27925,944.01606 96.27925,916.83737 96.27925,885.67079 95.158968,886.2989 151.61541,885.81166 208.04716,885.32461 208.14032,885.37199 208.14032,914.56059 208.14032,925.83531 206.94803,937.67687 205.49079,940.87514 204.03357,944.07342 197.98568,949.04923 192.05106,951.9325 182.9629,956.34786 177.14748,957.1489 155.18443,957.01066 140.84241,956.92039 123.68201,955.3902 117.0502,953.61022 z M 143.34326,942.6208 C 144.94115,940.69547 145.0361,932.72852 144.60509,928.9696 143.84274,922.32102 142.53461,923.38152 126.69056,923.38457 113.40281,923.38714 109.20155,921.86407 107.10029,925.79032 103.9852,931.61092 108.5707,940.78695 116.33799,942.44286 128.63158,945.0637 140.56391,945.96971 143.34326,942.6208 z M 190.01532,938.76778 C 192.41477,936.67103 193.81056,929.51316 193.41732,926.76443 192.80386,922.47642 188.9681,923.38182 176.79501,922.75084 168.42707,922.31709 160.90157,923.39925 159.28755,925.48652 156.33652,929.30284 156.57232,939.99479 159.79653,943.49966 163.2395,947.24234 184.64909,943.45704 190.01532,938.76778 z M 145.74066,906.6809 C 146.09328,901.36562 144.93935,896.95119 140.42009,895.96704 137.51336,895.33404 133.1424,897.05626 127.12364,897.76365 113.02435,899.42074 110.46065,896.784 111.17993,910.36357 111.34755,913.52794 115.99576,913.31178 127.97733,913.15763 141.94718,912.97789 145.24434,914.16239 145.74066,906.6809 z M 194.75465,909.35234 C 197.09252,904.98399 196.70184,901.67884 193.07903,899.02977 184.45544,892.72405 169.83895,891.74488 162.87571,896.08968 160.0317,897.86423 159.38539,901.34558 159.50507,904.43448 159.87354,913.94452 157.5087,913.64872 176.84714,913.40307 188.82696,913.2509 192.35403,913.83796 194.75465,909.35234 z M 118.96452,870.94995 C 114.72306,869.10493 110.07231,865.38969 108.62953,862.69382 107.10971,859.85402 106.0063,843.40479 106.0063,823.58773 106.0063,796.15044 106.66929,787.17239 109.35733,787.17239 111.2004,787.17239 114.30007,791.78042 116.24548,794.71038 117.7324,796.94978 118.63811,801.38672 119.96513,801.80157 121.47284,802.27289 123.48189,798.4648 126.87709,797.05802 139.19771,791.95304 149.39667,787.05193 147.05667,777.04898 145.64396,771.00996 150.29846,767.36216 153.771,767.36216 157.35195,767.36216 158.47609,770.64482 159.04194,776.49237 159.3544,779.72126 159.13805,784.29081 161.30915,786.92449 163.28346,789.31942 166.68639,789.9978 171.31149,793.32059 176.00686,796.69388 179.55437,799.69616 182.41842,800.8791 183.09384,801.15807 183.73127,801.33585 184.33677,801.39345 191.45735,802.07085 191.48645,802.06193 191.11798,794.24672 190.85797,788.73172 197.46131,785.02677 200.94884,788.51429 204.19044,791.7559 206.345,824.69575 204.47532,842.42872 203.18181,854.69699 201.3823,859.46101 195.51947,866.13841 195.51947,866.13841 191.33793,871.01239 188.30522,873.14383 186.32947,874.53241 157.42934,874.39969 157.42934,874.39969 136.82667,874.33593 124.13092,873.1973 118.96452,870.94995 z M 177.40785,861.41897 C 187.25051,859.72429 189.81462,857.36144 188.38264,852.29062 187.51311,849.21153 123.01742,847.96898 116.79359,851.17387 111.68393,853.80503 121.39529,859.29271 133.66138,860.1467 139.17014,860.53023 144.10072,861.27607 147.44439,862.36015 153.38972,864.28773 158.73214,864.63448 177.40785,861.41897 z M 185.41191,839.08071 C 190.05774,837.57327 193.9888,832.9648 192.25634,830.74232 190.55672,828.56201 183.30485,828.76111 176.33494,827.92394 149.90142,824.74898 120.44752,824.34495 117.09699,828.3821 114.79858,831.15152 114.79152,835.51314 117.18692,837.40093 119.47109,839.20107 123.91752,838.5958 131.5398,838.48048 151.50572,838.17843 179.4118,841.02758 185.41191,839.08071 z M 189.10349,817.76028 C 189.26084,816.78343 178.86908,809.21199 171.33411,804.64205 171.33411,804.64205 161.31353,796.83291 155.77498,796.76183 150.31133,796.69173 136.55148,802.87547 136.55148,802.87547 124.6208,806.84795 115.68608,812.09617 115.20301,814.60458 114.51062,818.19986 123.92237,818.94406 152.07304,817.18755 170.17675,816.05795 188.48906,821.57464 189.10349,817.76028 z"
       id="path3846"
       style="fill:#000000" />
  </g>
</svg>
