<?xml version="1.0" encoding="UTF-8" standalone="no"?>
<!-- Created with Inkscape (http://www.inkscape.org/) -->

<svg
   xmlns:dc="http://purl.org/dc/elements/1.1/"
   xmlns:cc="http://creativecommons.org/ns#"
   xmlns:rdf="http://www.w3.org/1999/02/22-rdf-syntax-ns#"
   xmlns:svg="http://www.w3.org/2000/svg"
   xmlns="http://www.w3.org/2000/svg"
   version="1.1"
   width="300"
   height="300"
   id="svg2">
  <defs
     id="defs4" />
  <metadata
     id="metadata7">
    <rdf:RDF>
      <cc:Work
         rdf:about="">
        <dc:format>image/svg+xml</dc:format>
        <dc:type
           rdf:resource="http://purl.org/dc/dcmitype/StillImage" />
        <dc:title></dc:title>
      </cc:Work>
    </rdf:RDF>
  </metadata>
  <g
     transform="translate(0,-752.36218)"
     id="layer1">
    <path
       d="M 85.159634,1035.6189 C 83.373327,1032.7178 85.492408,991.60973 88.617064,968.54805 90.176114,957.04139 93.127554,945.84164 93.520597,923.91118 94.697696,858.23293 93.459002,866.77429 87.68484,857.62742 84.422139,852.45897 79.94063,847.5981 77.725929,845.76007 75.511228,843.92203 73.6992,840.79216 73.6992,838.80481 73.6992,834.59139 95.319445,808.5625 98.819215,808.5625 100.12282,808.5625 107.74142,813.71005 115.74944,820.00151 125.5059,827.66661 130.30947,833.19632 130.30947,836.76251 130.30947,839.68959 125.32303,847.92624 119.22851,855.06616 114.42583,860.69265 111.81908,861.5127 109.29245,865.73895 105.75756,871.65169 103.38095,880.55957 104.18986,886.27434 104.93411,891.53218 108.30101,891.08282 121.91976,891.73923 132.53146,892.25071 139.32277,892.3201 141.36013,889.86522 143.17035,887.68403 143.58535,875.3214 143.9555,854.48558 143.9555,854.48558 144.61866,827.73774 143.84671,822.5743 143.25475,818.61479 136.98578,809.40375 136.98578,809.40375 133.33157,804.15325 126.03293,800.57203 122.31019,799.69553 118.58745,798.81904 115.19289,799.30552 115.54157,796.12745 116.24503,789.71587 156.6444,764.70835 162.51397,767.59279 177.01781,774.7203 198.1268,788.89893 198.72772,791.91709 199.18865,794.23216 196.90972,796.1482 192.57443,797.09052 188.78749,797.91366 179.63858,804.43127 172.24352,811.57409 160.08236,823.32045 159.33006,819.22919 157.76536,831.47326 156.81388,838.91874 154.13505,859.0102 154.02082,868.77708 153.83659,884.52813 154.40954,888.45685 158.844,890.59222 165.07582,893.59307 183.47403,892.47786 188.74005,888.10745 192.71172,884.81126 193.15889,876.60252 189.92301,868.72188 187.46204,862.72846 182.76683,857.86034 176.47768,850.03255 170.65969,842.7912 169.7523,840.12057 171.80608,836.28303 175.38697,829.59209 193.64294,813.48514 197.64572,813.48514 201.46914,813.48514 226.3008,838.94738 226.3008,842.8679 226.3008,844.29952 222.39567,850.90651 217.62273,857.55009 204.32576,876.0585 201.05531,882.6727 202.44228,923.0137 203.35517,949.56567 205.03165,1024.333 204.40927,1032.0981 204.25612,1034.0088 201.86897,1035.0222 198.61099,1034.5594 193.156,1033.7847 193.05436,1033.109 191.82717,989.46924 191.14195,965.10221 189.93865,941.93186 188.85183,940.23971 186.65951,936.82632 132.02879,937.90467 114.31092,941.03584 L 104.46565,942.77573 101.97282,958.9851 C 100.63028,967.7148 99.55269,987.12312 98.737487,1002.0039 97.660156,1021.6694 96.925621,1029.995 94.080214,1033.1391 89.884063,1037.7758 86.984137,1038.5819 85.159634,1035.6189 z M 187.16523,925.54446 C 189.55929,923.53592 189.8366,910.17966 186.87544,904.6467 184.52636,900.2574 181.31684,903.31644 146.5228,902.09251 104.46744,900.61316 103.65544,898.34536 103.5591,917.31496 103.82397,930.69375 103.03664,926.13837 122.92552,926.98223 141.12392,928.4681 182.7076,929.28426 187.16523,925.54446 z M 206.4174,851.2964 C 210.28214,844.74785 207.14074,838.97306 204.01161,832.92197 199.82651,824.82888 191.59165,829.32157 186.40096,837.18223 183.56316,841.47972 184.94536,842.84808 188.29855,850.10415 194.20089,862.87639 199.83605,862.44812 206.4174,851.2964 z M 111.93709,846.46846 C 118.21616,839.10639 117.29344,837.45813 110.53858,830.26791 103.91338,823.21571 101.35391,823.34246 94.163691,830.09732 90.995734,833.07347 87.306723,835.42822 86.956064,837.84523 86.49365,841.03254 90.419349,844.19928 94.952317,847.76492 102.9515,854.05708 104.2742,855.45303 111.93709,846.46846 z M 164.82295,804.41928 C 172.36546,796.29028 174.80315,789.69409 167.65372,784.28218 161.81722,779.86413 156.21639,778.07065 148.84282,781.74908 142.47822,784.92416 138.27522,787.06765 138.99592,790.70499 139.53828,793.4422 143.77629,797.32784 146.91966,801.44901 154.51647,811.40895 157.82786,811.95832 164.82295,804.41928 z"
       id="path3792"
       style="fill:#000000" />
  </g>
</svg>
