<?xml version="1.0" encoding="UTF-8" standalone="no"?>
<!-- Created with Inkscape (http://www.inkscape.org/) -->

<svg
   xmlns:dc="http://purl.org/dc/elements/1.1/"
   xmlns:cc="http://creativecommons.org/ns#"
   xmlns:rdf="http://www.w3.org/1999/02/22-rdf-syntax-ns#"
   xmlns:svg="http://www.w3.org/2000/svg"
   xmlns="http://www.w3.org/2000/svg"
   xmlns:sodipodi="http://sodipodi.sourceforge.net/DTD/sodipodi-0.dtd"
   xmlns:inkscape="http://www.inkscape.org/namespaces/inkscape"
   width="300"
   height="300"
   id="svg2994"
   version="1.1"
   inkscape:version="0.48.0 r9654"
   sodipodi:docname="齒-oracle.svg">
  <defs
     id="defs3" />
  <sodipodi:namedview
     inkscape:document-units="mm"
     id="base"
     pagecolor="#ffffff"
     bordercolor="#666666"
     borderopacity="1.0"
     inkscape:pageopacity="0.0"
     inkscape:pageshadow="2"
     inkscape:zoom="1"
     inkscape:cx="29.598199"
     inkscape:cy="135.36706"
     inkscape:current-layer="layer1"
     showgrid="false"
     fit-margin-top="0"
     fit-margin-left="0"
     fit-margin-right="0"
     fit-margin-bottom="0"
     showguides="false"
     inkscape:guide-bbox="true"
     inkscape:window-width="1024"
     inkscape:window-height="574"
     inkscape:window-x="-4"
     inkscape:window-y="-4"
     inkscape:window-maximized="1">
    <inkscape:grid
       type="xygrid"
       id="grid3000"
       empspacing="5"
       visible="true"
       enabled="true"
       snapvisiblegridlinesonly="true" />
  </sodipodi:namedview>
  <metadata
     id="metadata4">
    <rdf:RDF>
      <cc:Work
         rdf:about="">
        <dc:format>image/svg+xml</dc:format>
        <dc:type
           rdf:resource="http://purl.org/dc/dcmitype/StillImage" />
        <dc:title></dc:title>
      </cc:Work>
    </rdf:RDF>
  </metadata>
  <g
     inkscape:label="Layer 1"
     inkscape:groupmode="layer"
     id="layer1"
     transform="translate(0,-752.36217)">
    <path
       style="fill:#000000"
       d="M 99.866489,1011.6741 C 78.805101,1010.3175 66.005814,998.54762 58.137747,973.30179 50.465504,927.69332 45.643524,840.7605 55.420386,792.43861 c 3.855618,-1.28521 9.799577,13.82 12.537251,31.86052 1.149939,7.57787 3.171668,15.52204 4.492712,17.65373 3.656809,5.90078 21.383126,8.50257 79.508471,11.66991 29.21482,1.59196 58.78347,3.88083 65.70809,5.08638 11.89859,2.07148 12.65163,1.65688 13.70784,-7.54741 0.66264,-5.77461 3.44592,-10.18052 6.83712,-10.82316 6.01991,-1.14077 10.95798,-2.20271 11.74387,79.78419 0.17594,18.35356 0.46967,31.86045 -2.56256,41.04821 -4.66149,14.12449 -12.45484,35.36512 -39.81291,46.09102 -7.88597,3.0918 -73.51578,6.6148 -107.713781,4.4121 z m 60.513381,-17.57383 c -2.94432,-10.84545 -4.94694,-20.80734 -4.99409,-31.38922 0,-19.27187 1.12036,-19.2917 5.79166,-21.08424 9.06811,-0.54153 9.86952,0.72357 20.03486,0.8323 6.35114,0 15.49701,1.79951 20.32416,3.9989 7.39251,3.36826 8.48739,5.66517 6.94254,14.56458 -2.05276,11.82526 2.37141,21.26418 8.26081,17.62431 8.44764,-5.22098 13.49811,-26.42132 14.07188,-59.06959 0.80396,-45.74717 0.81616,-45.65738 -6.20135,-45.65738 -9.4404,0 -14.38786,6.98346 -14.4457,20.39041 -0.0738,17.11087 -3.81065,21.23792 -20.98249,23.17342 -19.7598,2.22722 -30.23674,-5.7489 -31.96407,-24.3343 -1.11525,-11.99956 -5.87155,-19.03212 -12.96992,-19.17705 -2.80928,-0.0573 -3.72828,5.01538 -2.69128,14.85537 1.11319,10.56296 -6.83623,25.44023 -14.72411,27.55603 -27.030431,7.2505 -43.821728,-4.19721 -46.03033,-31.38187 -1.479765,-18.21376 -5.564204,-24.83313 -11.599236,-18.7981 -2.67155,19.28406 0.469053,38.03849 0.341107,60.70087 0,24.69682 10.087989,55.80631 16.14859,58.13193 3.608081,1.38459 4.164776,-1.76412 2.593226,-14.667 -3.956736,-32.48617 -5.915624,-29.71565 20.393363,-28.84296 12.95049,0.42956 25.67308,2.54605 28.27241,4.7033 3.08846,2.5632 4.72604,11.29739 4.72604,25.20673 0,11.70639 1.02809,22.31251 2.28464,23.56901 3.37007,3.3701 14.14203,2.776 16.41729,-0.90545 z m -39.26368,-4.94892 c 0,-14.87671 -4.67908,-26.13049 -10.86453,-26.13049 -5.73212,0 -6.28178,1.65737 -4.26197,12.85106 1.27536,7.06815 2.97839,14.00767 3.78449,15.42124 2.53766,4.45025 11.34201,2.78759 11.34201,-2.14181 z m 66.69499,-6.42549 c -4.57802,-21.34498 -11.86364,-22.92338 -11.86364,-2.57023 0,11.59778 1.09693,13.70776 7.12619,13.70776 6.2452,0 6.83089,-1.37687 4.73745,-11.13753 z m -66.69499,-97.01382 c 0,-10.8177 -0.84953,-11.79211 -10.28088,-11.79211 -9.01593,0 -10.28087,1.20051 -10.28087,9.7572 0,6.78932 2.34536,10.82955 7.71065,13.2827 10.42247,4.76543 12.8511,2.6398 12.8511,-11.24779 z m 69.73523,13.03382 c 0.8803,-1.42435 0.79153,-6.82182 -0.19725,-11.99435 -1.20234,-6.28958 -3.93568,-9.40461 -8.25223,-9.40461 -5.09183,0 -6.4544,2.5321 -6.4544,11.99435 0,9.58815 1.33439,11.99435 6.65165,11.99435 3.65843,0 7.37193,-1.16538 8.25223,-2.58974 z"
       id="path2994"
       inkscape:connector-curvature="0"
       sodipodi:nodetypes="sccssssssssssccccsssssssssssscccssssccssscssssssssssssssss" />
  </g>
</svg>
