<?xml version="1.0" encoding="UTF-8" standalone="no"?>
<!-- Created with Inkscape (http://www.inkscape.org/) -->

<svg
   xmlns:dc="http://purl.org/dc/elements/1.1/"
   xmlns:cc="http://creativecommons.org/ns#"
   xmlns:rdf="http://www.w3.org/1999/02/22-rdf-syntax-ns#"
   xmlns:svg="http://www.w3.org/2000/svg"
   xmlns="http://www.w3.org/2000/svg"
   version="1.1"
   width="300"
   height="300"
   id="svg2">
  <defs
     id="defs4" />
  <metadata
     id="metadata7">
    <rdf:RDF>
      <cc:Work
         rdf:about="">
        <dc:format>image/svg+xml</dc:format>
        <dc:type
           rdf:resource="http://purl.org/dc/dcmitype/StillImage" />
        <dc:title></dc:title>
      </cc:Work>
    </rdf:RDF>
  </metadata>
  <g
     transform="translate(0,-752.36218)"
     id="layer1">
    <path
       d="M 125.95825,1033.9249 C 119.65728,1030.3609 111.83696,1019.5493 109.59735,1011.3057 106.51977,999.97772 104.90715,955.21974 107.48376,952.64313 109.45422,950.67266 110.45231,954.99173 111.10892,968.33036 111.93038,985.01772 112.86541,985.94872 122.09125,979.26553 129.53405,973.87399 132.48319,968.2888 134.39639,955.96151 135.2866,950.2257 136.69319,945.91106 137.79233,945.54469 139.29003,945.04544 139.56951,947.82218 139.17742,959.30613 L 138.68623,973.69301 130.16691,981.74384 C 125.48129,986.17182 119.64802,990.84812 117.2041,992.13562 112.92828,994.38832 112.81389,994.68172 114.1725,999.91392 114.94905,1002.9044 115.92986,1007.1518 116.3521,1009.3526 116.77434,1011.5534 118.02714,1013.7022 119.13609,1014.1278 123.94588,1015.9734 133.73647,1000.9213 133.73647,991.68092 133.73647,988.90342 134.3471,987.64862 135.50424,988.04842 136.73226,988.47262 137.16818,991.59312 136.93192,998.26822 136.65745,1006.0231 135.90714,1008.775 133.04376,1012.5291 131.09232,1015.0875 128.18628,1017.5964 126.58588,1018.1044 118.42336,1020.6951 131.18761,1030.0417 142.9289,1030.0715 150.26388,1030.0901 159.19244,1026.0837 159.19244,1022.7736 159.19244,1021.8324 157.44234,1019.2368 155.30333,1017.0055 151.71798,1013.2656 151.37595,1011.9065 150.92416,999.60392 150.62047,991.33452 150.97127,986.25912 151.84648,986.25912 153.87815,986.25912 156.364,994.23172 156.364,1000.7478 156.364,1006.6583 160.0893,1014.5436 162.8816,1014.5436 164.79091,1014.5436 166.16559,1011.7062 167.67777,1004.6441 168.26069,1001.9217 169.17859,998.64582 169.71755,997.36442 170.27445,996.04042 169.89306,994.38272 168.83406,993.52452 158.22688,984.92832 156.25505,982.59633 153.60524,975.51409 150.56598,967.39092 149.44847,946.19152 151.97714,944.62871 153.21994,943.86062 156.34121,958.39281 156.38726,965.16164 156.41882,969.80036 161.84954,978.97772 166.68514,982.56398 170.09076,985.08972 170.83187,985.20682 172.00254,983.40404 172.75068,982.25197 173.01086,979.81657 172.58072,977.99208 172.15058,976.16758 172.5595,973.75801 173.48944,972.63751 174.41938,971.517 175.44817,965.69118 175.77565,959.69124 176.53544,945.77037 176.95507,944.38397 179.71538,946.67482 183.11231,949.49403 182.60599,979.10164 178.92312,993.00262 172.26781,1018.1233 166.70199,1029.5638 158.78879,1034.3887 151.96039,1038.5522 133.68249,1038.2939 125.95825,1033.9249 z M 96.613164,940.22112 C 96.029798,939.61463 95.552499,937.95169 95.552499,936.52568 95.552499,934.27311 96.897696,933.89987 105.80559,933.68081 111.4448,933.54213 117.3315,933.52495 118.88714,933.64263 124.39012,934.05886 138.80529,932.34128 140.85281,931.02538 142.5387,929.94189 141.73281,928.51231 136.5649,923.41896 133.06471,919.96926 128.69911,915.17012 126.86358,912.7542 122.66387,907.22654 114.85763,888.79562 112.77291,879.48544 111.90206,875.59633 110.53502,869.42782 109.73503,865.77765 107.83347,857.10133 107.86338,824.1473 109.79705,797.46061 111.77387,770.17838 112.29749,766.74256 114.37204,767.44145 115.50345,767.82259 115.98507,771.4606 115.83505,778.49246 115.13328,811.38596 115.24417,859.89093 116.03289,865.03264 118.49334,881.07247 129.56077,906.88142 137.9804,916.21368 140.80802,919.3478 144.55342,923.98036 146.30351,926.50828 L 149.48549,931.1045 176.9665,931.1045 C 203.22617,931.1045 204.4475,931.22649 204.4475,933.84948 204.4475,935.35921 203.86553,936.95415 203.15423,937.39375 202.44293,937.83337 188.28303,938.48014 171.68782,938.83107 155.09259,939.18198 131.65048,939.8864 119.59425,940.39645 107.53802,940.90651 97.19653,940.82761 96.613164,940.22112 z M 163.20214,922.14151 C 151.02418,909.92105 139.13494,884.16906 135.34705,861.80767 134.35886,855.97401 133.00359,848.97362 132.33532,846.25124 130.56848,839.05349 130.60722,820.07273 132.43455,797.63225 134.04071,777.90778 136.63485,767.77961 139.80678,768.84923 141.63508,769.46576 141.63102,768.48954 140.00989,817.74554 139.08118,845.96354 139.65145,853.58301 143.88983,869.58589 147.40773,882.86842 157.06513,904.66226 164.15,915.30698 168.34934,921.61632 171.23347,927.11948 170.55917,927.53623 169.88486,927.95297 166.5742,925.52534 163.20214,922.14151 z M 146.46445,867.98701 C 146.46445,866.71872 148.63624,862.65804 151.29066,858.9633 161.1634,845.22115 166.95495,828.88762 169.15867,808.57132 171.46208,787.33607 172.49617,781.8385 174.04176,782.61129 175.92049,783.55066 175.64687,810.81477 173.65854,820.79527 169.83377,839.99387 164.63939,851.88326 155.27713,862.86833 148.68947,870.59788 146.46445,871.89024 146.46445,867.98701 z"
       id="path3799"
       style="fill:#000000" />
  </g>
</svg>
