<?xml version="1.0" encoding="UTF-8" standalone="no"?>
<!-- Created with Inkscape (http://www.inkscape.org/) -->

<svg
   xmlns:dc="http://purl.org/dc/elements/1.1/"
   xmlns:cc="http://creativecommons.org/ns#"
   xmlns:rdf="http://www.w3.org/1999/02/22-rdf-syntax-ns#"
   xmlns:svg="http://www.w3.org/2000/svg"
   xmlns="http://www.w3.org/2000/svg"
   version="1.1"
   width="300"
   height="300"
   id="svg2">
  <defs
     id="defs4" />
  <metadata
     id="metadata7">
    <rdf:RDF>
      <cc:Work
         rdf:about="">
        <dc:format>image/svg+xml</dc:format>
        <dc:type
           rdf:resource="http://purl.org/dc/dcmitype/StillImage" />
        <dc:title></dc:title>
      </cc:Work>
    </rdf:RDF>
  </metadata>
  <g
     transform="translate(0,-752.36218)"
     id="layer1">
    <path
       d="M 53.028827,1030.0673 C 51.326288,1025.9255 48.930852,995.38901 47.705626,962.20835 45.781049,910.08822 46.425397,901.0936 52.441413,896.10074 60.53473,889.3839 61.710567,891.04455 64.445003,925.08585 65.324816,936.03874 66.59644,943.00019 71.207934,945.92432 75.269603,948.4998 82.468053,948.01152 86.622713,943.40377 90.482673,939.12284 91.201923,929.02435 96.083453,919.26131 113.17636,885.0755 122.51692,883.43894 147.18523,910.30782 157.13857,921.14906 166.3225,938.53897 168.70964,938.53897 171.09679,938.53897 176.4135,923.24172 179.40887,914.95816 184.7463,900.19777 193.9242,895.40671 199.51946,904.46003 201.07047,906.9696 199.93699,914.823 197.00062,921.91201 193.13848,931.23602 187.78999,937.01491 191.19246,940.41738 195.32209,944.54702 210.67884,943.18003 218.40764,937.07649 224.15762,932.53565 223.1042,924.55801 223.80712,918.6114 225.5857,903.56474 234.80851,900.67538 239.73106,913.62266 241.84765,919.18972 244.96279,944.04066 246.65358,968.84698 250.81122,1029.8448 251.43586,1029.2988 172.41081,1033.7576 74.298515,1039.2933 56.596375,1038.7461 53.028827,1030.0673 z M 98.586573,1000.8796 C 125.85989,966.15189 125.11055,966.68488 147.71599,986.53276 156.16138,993.94781 159.00818,1004.2886 164.22676,1002.322 167.52222,1001.0801 169.19146,990.42453 173.10332,982.7327 177.01518,975.04083 183.0338,968.74748 186.47802,968.74748 193.10761,968.74748 194.73593,982.96817 193.03345,997.32661 192.26603,1003.7988 193.4893,1006.8834 203.94888,1007.1601 218.14136,1007.5356 220.57156,1004.7516 224.78865,997.23841 230.06081,987.84536 230.25715,980.07171 225.88908,970.48483 225.88908,970.48483 222.10314,960.54498 217.83379,960.33719 213.61944,960.13208 146.56162,961.16076 146.56162,961.16076 68.567091,963.375 65.442341,958.7314 68.113008,992.2245 70.05541,1016.5844 67.457492,1019.2904 89.535413,1014.0087 93.688353,1013.0152 93.780123,1006.9998 98.586573,1000.8796 z M 140.00611,1013.4347 C 143.65746,1000.6899 123.7109,997.00321 114.86068,1000.3994 105.44297,1004.0133 107.94796,1015.065 116.58575,1018.3255 119.38899,1019.3836 123.11039,1016.0821 126.92267,1016.0821 132.63621,1016.0821 139.06667,1016.7138 140.00611,1013.4347 z M 142.22005,943.22994 C 149.35268,938.01443 144.69527,934.31474 135.98219,923.23786 130.90727,916.78615 132.46122,910.85657 120.7054,914.11805 113.99949,915.97849 108.45433,940.06227 111.38926,944.81109 114.88743,950.47125 133.41749,949.66652 142.22005,943.22994 z M 53.719,866.20902 C 47.756415,859.62044 46.449297,851.70291 47.464904,828.3264 48.69494,800.01419 49.200577,798.77325 59.506717,798.77325 69.489192,798.77325 70.424515,800.57095 72.483557,823.71494 74.967043,851.62972 70.789515,856.27473 102.7915,856.7998 142.60154,857.45299 134.67058,850.09846 133.21034,807.8489 132.10615,775.90097 132.95929,770.41792 139.42021,767.93863 149.25202,764.16581 162.3726,779.70142 159.27019,791.56501 157.84728,797.00628 158.17803,806.6193 161.21007,810.3148 165.5211,815.56913 174.68717,813.21775 186.66903,813.83425 216.23743,815.35564 218.72309,805.71378 218.72309,792.53805 218.72309,783.36577 229.4806,773.26807 235.37274,776.9096 237.63721,778.30913 240.86007,787.5638 242.53465,797.47553 246.91922,823.42763 235.57945,831.93902 198.41393,830.59167 184.53388,830.08848 175.85328,825.74297 169.77638,828.22816 162.51915,831.19604 159.62372,841.57158 164.8942,847.92213 169.86109,853.90686 178.45513,853.05742 206.18029,850.63892 233.94382,848.21708 242.40604,851.34566 248.54541,857.48502 262.90852,871.84812 248.11943,871.86973 152.69352,873.23259 66.819418,874.45903 60.798487,874.03177 53.719,866.20902 z"
       id="path3812"
       style="fill:#000000" />
  </g>
</svg>
