<?xml version="1.0" encoding="UTF-8" standalone="no"?>
<!-- Created with Inkscape (http://www.inkscape.org/) -->
<svg
   xmlns:svg="http://www.w3.org/2000/svg"
   xmlns="http://www.w3.org/2000/svg"
   version="1.0"
   width="300"
   height="300"
   id="svg2">
  <defs
     id="defs5" />
  <path
     d="M 83.818207,276.44675 C 82.084731,262.6449 86.120579,248.29761 92.62051,236.14235 C 99.52971,223.05557 112.8439,215.98894 123.42164,206.47032 C 137.40684,192.50994 135.85231,171.23673 135.73125,153.01637 C 136.37448,141.75457 122.16248,138.47049 113.2868,139.4917 C 106.84448,139.49504 94.206478,147.43592 106.70907,149.30363 C 114.25579,156.12622 122.94684,162.92689 126.82661,172.60612 C 130.40855,178.75129 122.89625,184.96899 120.80514,176.20694 C 115.67184,165.87177 105.73787,158.16268 95.381008,153.58793 C 84.999359,158.81394 97.495142,170.66341 104.42685,173.26505 C 110.87316,180.60078 123.0721,195.74989 111.64393,203.32759 C 103.77057,194.74153 101.69948,181.29951 91.113061,174.91735 C 84.334083,177.02987 91.001842,191.79396 89.844423,198.68172 C 92.794089,204.90885 85.537795,221.86335 81.354458,208.95217 C 77.473319,191.02256 78.172575,172.04126 82.061476,154.16972 C 85.079437,144.26204 91.652156,135.16104 101.52785,131.23679 C 112.3801,128.66079 113.65554,113.41473 101.03411,113.10612 C 88.84634,112.01818 85.021352,100.18406 84.272265,89.801139 C 80.371092,83.423919 84.603389,66.748793 92.192805,77.834935 C 95.676971,86.293272 92.964718,102.37141 106.86603,100.39414 C 118.19874,96.777947 106.22255,83.832046 104.06529,76.735559 C 101.2962,68.359613 98.969,58.104542 87.727136,61.228074 C 77.56346,64.030363 74.636201,49.072159 87.028349,52.077246 C 108.17318,50.957895 129.38008,50.305563 150.54916,50.431042 C 162.7092,52.722561 149.09789,63.137757 142.22035,58.083599 C 138.33541,64.242703 140.76418,76.534215 131.2072,80.03297 C 119.54241,79.226188 119.27511,100.55547 128.48088,102.26059 C 143.06337,103.1051 138.93444,88.137055 142.49237,79.290792 C 155.02447,73.430835 154.97606,97.308173 149.57337,104.31686 C 145.72728,117.25883 125.87811,107.48149 123.14968,119.16314 C 123.76209,130.89825 141.89714,129.42768 144.67251,140.91033 C 149.64073,155.26723 147.40888,171.10242 144.77967,185.73407 C 141.80752,199.66847 134.32468,214.65033 120.35362,220.03845 C 109.85558,228.71231 101.07023,240.16231 96.228439,252.93543 C 95.187136,258.76531 90.260137,260.70791 93.14756,267.50123 C 93.526698,272.52761 89.178611,288.36308 83.818207,276.44675 z M 127.76856,65.748436 C 129.74863,60.36882 130.1594,60.469829 128.51332,59.063674 C 128.10625,58.715938 108.4063,58.757653 107.48178,59.542974 C 106.56357,60.322926 108.16768,65.897096 110.16656,69.113957 C 114.49078,77.85414 125.6739,75.55694 127.76856,65.748436 z M 218.3614,277.19128 C 213.58932,267.47756 212.58571,255.12013 207.50306,244.85611 C 201.56449,238.43941 198.78358,228.91046 189.55506,224.62141 C 180.74706,220.11745 172.52991,215.45808 165.392,209.03518 C 158.58966,194.82829 159.64084,178.41939 158.85463,163.03497 C 159.19134,146.74282 158.02125,129.71488 163.84309,114.20654 C 169.72338,102.99118 184.27831,105.76341 194.58585,102.65107 C 206.70709,101.96517 205.51755,82.614739 197.6362,78.414161 C 188.44465,76.781312 178.24182,78.578553 169.86089,73.747591 C 164.91387,63.834573 167.05223,52.076455 166.36194,41.304172 C 166.4026,35.437866 164.53996,16.855306 174.64471,25.590241 C 173.90814,36.404135 181.33954,43.14146 192.32409,39.670209 C 200.61566,38.7979 218.79236,37.313203 218.12217,48.600828 C 206.13931,51.828898 193.43545,50.055792 181.10983,50.502655 C 176.43953,49.418607 174.63465,51.199983 175.72546,55.877054 C 176.42785,58.83856 174.23787,64.434066 176.91457,65.597626 C 188.15592,67.241513 200.38137,65.972154 210.53803,71.706978 C 218.05817,79.221449 215.82572,91.167547 215.63779,100.84269 C 215.12732,113.57764 199.96208,112.44641 190.85545,112.57483 C 181.78407,110.29567 164.89125,118.78392 179.5226,125.66515 C 191.78293,133.18882 207.61456,133.27593 218.78342,142.6268 C 223.79661,156.68714 204.52177,145.31469 198.55334,143.77036 C 190.48417,142.1351 177.60108,132.72139 171.4537,137.55454 C 168.39366,151.48983 186.1031,153.67106 195.72061,156.12569 C 203.88656,161.38849 215.55925,159.50574 221.92619,167.512 C 216.95085,176.92434 203.94247,167.79787 196.14027,165.89352 C 189.38664,161.10952 175.23878,154.69715 171.36136,165.87382 C 170.051,177.46771 185.10926,177.78115 192.54105,182.16007 C 202.81865,186.38203 214.40055,187.69781 223.8334,193.77556 C 232.32666,206.77839 211.4235,200.67375 205.48473,197.50503 C 195.27445,194.08743 185.45018,188.41507 174.60681,187.61042 C 165.90761,194.98552 177.86154,205.34381 184.58488,207.57412 C 192.2619,214.0426 203.51607,215.83709 209.99478,224.33891 C 218.14515,232.52664 224.78097,243.0032 225.14726,254.83393 C 230.59928,261.3533 231.02927,281.82194 218.36141,277.19128 L 218.3614,277.19128 z M 92.517426,36.969208 C 92.693004,27.715079 109.45221,30.980349 116.65234,28.932826 C 125.58592,29.53224 138.18681,25.314967 144.71751,31.745909 C 139.65464,40.721773 124.41708,35.867159 115.22164,38.106574 C 107.75848,38.054226 99.597299,39.576807 92.517426,36.969208 z "
     style="fill:black;fill-opacity:1"
     id="path2913" />
</svg>
