<?xml version="1.0" encoding="UTF-8" standalone="no"?>
<!-- Created with Inkscape (http://www.inkscape.org/) -->
<svg
   xmlns:dc="http://purl.org/dc/elements/1.1/"
   xmlns:cc="http://web.resource.org/cc/"
   xmlns:rdf="http://www.w3.org/1999/02/22-rdf-syntax-ns#"
   xmlns:svg="http://www.w3.org/2000/svg"
   xmlns="http://www.w3.org/2000/svg"
   xmlns:sodipodi="http://sodipodi.sourceforge.net/DTD/sodipodi-0.dtd"
   xmlns:inkscape="http://www.inkscape.org/namespaces/inkscape"
   width="300"
   height="300"
   id="svg2"
   sodipodi:version="0.32"
   inkscape:version="0.45.1"
   version="1.0"
   sodipodi:docbase="C:\Documents and Settings\Martin\桌面"
   sodipodi:docname="drawing.svg"
   inkscape:output_extension="org.inkscape.output.svg.inkscape">
  <defs
     id="defs4" />
  <sodipodi:namedview
     id="base"
     pagecolor="#ffffff"
     bordercolor="#666666"
     borderopacity="1.0"
     gridtolerance="10000"
     guidetolerance="10"
     objecttolerance="10"
     inkscape:pageopacity="0.0"
     inkscape:pageshadow="2"
     inkscape:zoom="1.2311444"
     inkscape:cx="203.96439"
     inkscape:cy="171.63633"
     inkscape:document-units="px"
     inkscape:current-layer="layer1"
     width="300px"
     height="300px"
     inkscape:window-width="1024"
     inkscape:window-height="712"
     inkscape:window-x="-4"
     inkscape:window-y="-4" />
  <metadata
     id="metadata7">
    <rdf:RDF>
      <cc:Work
         rdf:about="">
        <dc:format>image/svg+xml</dc:format>
        <dc:type
           rdf:resource="http://purl.org/dc/dcmitype/StillImage" />
      </cc:Work>
    </rdf:RDF>
  </metadata>
  <g
     inkscape:label="Layer 1"
     inkscape:groupmode="layer"
     id="layer1">
    <path
       style="fill:#000000"
       d="M 169.42584,280.09409 C 153.08066,272.17968 148.15054,257.72637 155.08803,238.06558 C 158.40963,228.65372 164.52022,217.51681 168.66758,213.31693 C 181.80111,200.01739 183.38875,176.46718 172.35558,158.61523 C 167.00464,149.95724 161.68518,142.87286 160.53556,142.87286 C 159.38531,142.87286 158.8849,153.77248 159.42406,167.09327 C 160.39589,191.11198 160.20313,191.50063 136.28625,213.74902 C 123.02115,226.08822 109.66466,236.21923 106.60471,236.26203 C 98.399677,236.37698 99.475597,234.34496 116.7831,217.03732 L 132.52535,201.29533 L 112.91167,192.61941 C 101.86747,187.73392 88.183398,184.92093 81.591788,186.18111 C 75.153368,187.41192 69.885658,186.87923 69.885658,184.99755 C 69.885658,178.588 98.629948,144.10697 107.27598,140.14488 C 119.35166,134.61091 126.99153,121.30184 120.47306,117.15426 C 113.61465,112.79086 96.590358,81.851251 96.590358,73.750367 C 96.590358,61.897476 104.85656,66.907443 118.84442,87.23814 C 126.4233,98.253885 133.32017,107.2668 134.17009,107.2668 C 135.02005,107.2668 132.49616,95.249618 128.56058,80.561977 C 123.86276,63.028489 118.67293,52.989911 113.44873,51.331852 C 109.07259,49.942913 105.49206,45.718035 105.49206,41.943268 C 105.49206,36.46391 108.85741,35.664991 122.18235,37.981027 C 131.36228,39.576581 154.39519,42.010614 173.36681,43.390023 C 211.89825,46.191706 218.14125,51.770018 187.83191,56.315166 C 169.83158,58.722971 153.05332,78.537615 156.60189,97.526815 C 157.35283,98.289755 165.25435,92.51533 174.1616,84.694839 C 183.06855,76.874322 191.43808,71.557562 192.76027,72.879821 C 197.39408,77.513613 180.92439,102.65666 168.85987,109.36663 C 156.93679,115.99826 157.15188,116.088 178.93014,113.55754 C 223.79745,108.34503 240.94553,129.37974 210.08579,151.77489 C 197.35898,161.01067 194.73223,165.74889 194.63057,179.6527 C 194.56316,188.86572 192.76558,199.8814 190.63602,204.13208 C 184.01438,217.34875 167.80337,254.28904 167.80337,256.16135 C 167.80337,257.14036 171.30801,258.733 175.59231,259.70069 C 185.6666,261.97628 214.8874,247.64482 218.29873,238.75497 C 221.47167,230.48643 230.11434,229.59759 230.11434,237.53968 C 230.11434,246.55497 194.2549,285.32918 186.22408,284.99757 C 182.21253,284.83194 174.65323,282.62538 169.42584,280.09409 z M 141.09872,181.41949 C 141.09872,170.4104 126.20568,160.67616 109.36241,160.67616 C 97.131587,160.67616 100.14555,166.83664 118.84442,180.05642 C 138.60594,194.02757 141.09872,194.1802 141.09872,181.41949 z M 145.54938,145.09888 C 145.54938,133.06787 142.58885,131.62132 132.19665,138.57514 C 126.41803,142.44145 126.68232,143.92877 134.16022,149.63375 C 145.39919,158.20881 145.54938,158.14932 145.54938,145.09888 z M 207.07405,132.35656 C 208.09463,127.18878 205.32096,125.07002 197.53594,125.07002 C 186.80976,125.07002 178.76278,135.4006 183.50812,143.07878 C 187.1373,148.95122 205.44154,140.62246 207.07405,132.35656 z M 150.74102,64.984144 C 151.84858,58.340912 149.40246,55.704625 141.09872,54.592958 C 132.10495,53.388977 131.03791,54.199645 135.53506,58.821231 C 138.59476,61.966037 141.09872,68.54477 141.09872,73.440668 C 141.09872,84.36592 148.60638,77.781287 150.74102,64.984144 z M 137.76036,26.623669 C 112.95985,19.462817 120.31212,12.405001 148.88696,15.942011 C 177.69419,19.507711 181.52241,21.38311 172.125,27.326185 C 164.25464,32.303561 156.91169,32.15345 137.76036,26.623669 z "
       id="path2384"
       sodipodi:nodetypes="cssssssscccssssssssssssccssssssssssssccssccssccssccsssccssc" />
  </g>
</svg>
