<?xml version="1.0" encoding="UTF-8" standalone="no"?>
<!-- Created with Inkscape (http://www.inkscape.org/) -->
<svg
   xmlns:svg="http://www.w3.org/2000/svg"
   xmlns="http://www.w3.org/2000/svg"
   version="1.0"
   width="300"
   height="300"
   id="svg2">
  <defs
     id="defs5" />
  <path
     d="M 62.069621,54.542861 L 157.9954,53.837525"
     style="fill:none;fill-opacity:0.75;fill-rule:evenodd;stroke:#000000;stroke-width:15;stroke-linecap:round;stroke-linejoin:miter;stroke-miterlimit:4;stroke-dasharray:none;stroke-opacity:1"
     id="path1313" />
  <path
     d="M 50.607901,107.26677 L 167.16478,101.44775"
     style="fill:none;fill-opacity:0.75;fill-rule:evenodd;stroke:#000000;stroke-width:15;stroke-linecap:round;stroke-linejoin:miter;stroke-miterlimit:4;stroke-dasharray:none;stroke-opacity:1"
     id="path1315" />
  <path
     d="M 134.71929,54.366527 L 135.07196,102.68208"
     style="fill:none;fill-opacity:0.75;fill-rule:evenodd;stroke:#000000;stroke-width:15;stroke-linecap:round;stroke-linejoin:miter;stroke-miterlimit:4;stroke-dasharray:none;stroke-opacity:1"
     id="path1317" />
  <path
     d="M 87.461739,54.013859 L 86.932737,104.97443"
     style="fill:none;fill-opacity:0.75;fill-rule:evenodd;stroke:#000000;stroke-width:15;stroke-linecap:round;stroke-linejoin:miter;stroke-miterlimit:4;stroke-dasharray:none;stroke-opacity:1"
     id="path1319" />
  <path
     d="M 111.26685,23.684385 L 111.26685,53.837525"
     style="fill:none;fill-opacity:0.75;fill-rule:evenodd;stroke:#000000;stroke-width:15;stroke-linecap:round;stroke-linejoin:miter;stroke-miterlimit:4;stroke-dasharray:none;stroke-opacity:1"
     id="path1321" />
  <path
     d="M 41.61486,208.30624 C 110.73785,104.62176 102.36198,105.06259 102.36198,105.06259"
     style="fill:none;fill-opacity:0.75;fill-rule:evenodd;stroke:#000000;stroke-width:15;stroke-linecap:round;stroke-linejoin:miter;stroke-miterlimit:4;stroke-dasharray:none;stroke-opacity:1"
     id="path1323" />
  <path
     d="M 70.53366,266.14384 C 164.34343,158.93268 143.18333,146.94196 143.18333,146.94196 L 101.56847,105.3271"
     style="fill:none;fill-opacity:0.75;fill-rule:evenodd;stroke:#000000;stroke-width:15;stroke-linecap:round;stroke-linejoin:miter;stroke-miterlimit:4;stroke-dasharray:none;stroke-opacity:1"
     id="path1325" />
  <path
     d="M 62.42229,175.86076 L 109.15084,218.35729"
     style="fill:none;fill-opacity:0.75;fill-rule:evenodd;stroke:#000000;stroke-width:15;stroke-linecap:round;stroke-linejoin:miter;stroke-miterlimit:4;stroke-dasharray:none;stroke-opacity:1"
     id="path1327" />
  <path
     d="M 81.642712,145.88395 L 132.42695,183.97213"
     style="fill:none;fill-opacity:0.75;fill-rule:evenodd;stroke:#000000;stroke-width:15;stroke-linecap:round;stroke-linejoin:miter;stroke-miterlimit:4;stroke-dasharray:none;stroke-opacity:1"
     id="path1329" />
  <path
     d="M 208.25063,240.04639 L 169.28079,198.7842"
     style="fill:none;fill-opacity:0.75;fill-rule:evenodd;stroke:#000000;stroke-width:15;stroke-linecap:round;stroke-linejoin:miter;stroke-miterlimit:4;stroke-dasharray:none;stroke-opacity:1"
     id="path1331" />
  <path
     d="M 226.06038,208.83524 L 195.02557,169.51273"
     style="fill:none;fill-opacity:0.75;fill-rule:evenodd;stroke:#000000;stroke-width:15;stroke-linecap:round;stroke-linejoin:miter;stroke-miterlimit:4;stroke-dasharray:none;stroke-opacity:1"
     id="path1333" />
  <path
     d="M 255.15552,185.55914 L 228.88173,157.52201"
     style="fill:none;fill-opacity:0.75;fill-rule:evenodd;stroke:#000000;stroke-width:15;stroke-linecap:round;stroke-linejoin:miter;stroke-miterlimit:4;stroke-dasharray:none;stroke-opacity:1"
     id="path1335" />
  <path
     d="M 192.90956,283.24826 L 165.7541,235.81437"
     style="fill:none;fill-opacity:0.75;fill-rule:evenodd;stroke:#000000;stroke-width:15;stroke-linecap:round;stroke-linejoin:miter;stroke-miterlimit:4;stroke-dasharray:none;stroke-opacity:1"
     id="path1337" />
  <path
     d="M 193.17406,25.271392 L 195.90724,107.97211"
     style="fill:none;fill-opacity:0.75;fill-rule:evenodd;stroke:#000000;stroke-width:15;stroke-linecap:round;stroke-linejoin:miter;stroke-miterlimit:4;stroke-dasharray:none;stroke-opacity:1"
     id="path1339" />
  <path
     d="M 166.01861,236.43154 C 162.42594,222.51434 164.38609,218.94947 165.13693,215.18328 C 165.66594,212.52985 166.45944,208.09664 167.16478,204.07422 C 168.12099,198.6211 171.27663,192.28814 173.33647,189.70299 C 176.96595,185.14792 180.14294,180.4102 183.38752,177.97677 C 189.60722,173.31199 194.67061,168.94892 202.43161,167.39672 C 203.38217,167.2066 204.3125,166.92649 205.25295,166.69138 C 210.53224,165.37156 215.70022,161.78722 221.47569,160.34335 C 227.6015,158.8119 237.25042,154.4052 242.63579,151.17398 C 246.9314,148.59661 249.6701,143.06971 250.39449,139.44775 C 251.48105,134.01498 252.30806,129.21056 251.80516,125.69369 C 251.17451,121.28335 248.4786,118.28649 242.81213,117.40599 C 237.75375,116.61997 235.08547,116.52431 227.64739,116.52431 C 221.53447,116.52431 217.89024,116.78881 211.60099,116.17164 C 208.32515,115.85018 196.90647,116.08348 195.90724,108.06028"
     style="fill:none;fill-opacity:0.75;fill-rule:evenodd;stroke:#000000;stroke-width:15;stroke-linecap:round;stroke-linejoin:miter;stroke-miterlimit:4;stroke-dasharray:none;stroke-opacity:1"
     id="path1343" />
  <path
     d="M 248.80749,23.067215 C 248.00839,28.35724 246.42697,34.787842 246.42697,39.730793 C 246.42697,44.403472 246.6684,44.185285 246.60331,48.459334 C 246.55736,51.476369 246.16248,56.143102 246.16248,58.774881 C 246.16248,62.987757 246.18268,64.983154 244.31097,69.35493 C 243.07245,72.247739 238.004,76.287821 237.16943,76.496463 C 230.91783,78.059364 220.30729,79.229643 213.71699,79.229643 C 209.48497,79.229643 205.25295,79.229643 201.02093,79.229643 C 200.08048,79.229643 196.49502,79.405977 195.55458,79.405977"
     style="fill:none;fill-opacity:0.75;fill-rule:evenodd;stroke:#000000;stroke-width:15;stroke-linecap:round;stroke-linejoin:miter;stroke-miterlimit:4;stroke-dasharray:none;stroke-opacity:1"
     id="path1345" />
</svg>
