<?xml version="1.0" encoding="UTF-8" standalone="no"?>
<!-- Created with Inkscape (http://www.inkscape.org/) -->
<svg
   xmlns:dc="http://purl.org/dc/elements/1.1/"
   xmlns:cc="http://web.resource.org/cc/"
   xmlns:rdf="http://www.w3.org/1999/02/22-rdf-syntax-ns#"
   xmlns:svg="http://www.w3.org/2000/svg"
   xmlns="http://www.w3.org/2000/svg"
   xmlns:sodipodi="http://sodipodi.sourceforge.net/DTD/sodipodi-0.dtd"
   xmlns:inkscape="http://www.inkscape.org/namespaces/inkscape"
   width="300"
   height="300"
   id="svg2"
   sodipodi:version="0.32"
   inkscape:version="0.45.1"
   version="1.0"
   sodipodi:docbase="C:\Documents and Settings\Martin\桌面"
   sodipodi:docname="drawing.svg"
   inkscape:output_extension="org.inkscape.output.svg.inkscape">
  <defs
     id="defs4" />
  <sodipodi:namedview
     id="base"
     pagecolor="#ffffff"
     bordercolor="#666666"
     borderopacity="1.0"
     gridtolerance="10000"
     guidetolerance="10"
     objecttolerance="10"
     inkscape:pageopacity="0.0"
     inkscape:pageshadow="2"
     inkscape:zoom="1.2311444"
     inkscape:cx="22.818656"
     inkscape:cy="157.0437"
     inkscape:document-units="px"
     inkscape:current-layer="layer1"
     width="300px"
     height="300px"
     inkscape:window-width="1024"
     inkscape:window-height="712"
     inkscape:window-x="0"
     inkscape:window-y="22" />
  <metadata
     id="metadata7">
    <rdf:RDF>
      <cc:Work
         rdf:about="">
        <dc:format>image/svg+xml</dc:format>
        <dc:type
           rdf:resource="http://purl.org/dc/dcmitype/StillImage" />
      </cc:Work>
    </rdf:RDF>
  </metadata>
  <g
     inkscape:label="Layer 1"
     inkscape:groupmode="layer"
     id="layer1">
    <path
       style="fill:#000000"
       d="M 153.49107,278.73111 C 145.25264,269.85372 142.0304,264.12265 137.4741,250.2435 C 131.35361,231.5995 132.51209,217.95699 141.89226,198.21389 C 145.81477,189.95798 168.48827,165.42842 172.19707,165.42842 C 174.64213,165.42842 183.62241,157.40725 183.62241,155.22338 C 183.62241,154.23597 180.15098,149.28188 175.90816,144.21431 C 171.66537,139.14673 168.19391,134.03615 168.19391,132.85749 C 168.19391,131.67882 167.32606,130.71445 166.26535,130.71445 C 165.20465,130.71445 164.33678,132.39888 164.33678,134.45769 C 164.33678,136.51658 163.59645,138.65861 162.69155,139.21784 C 161.78663,139.77714 159.5993,144.83498 157.83078,150.4575 C 154.14475,162.17629 147.96287,173.14267 145.04286,173.14267 C 142.84679,173.14267 143.75403,168.31837 148.93854,152.42725 C 151.32116,145.12422 151.64084,141.85245 150.09026,140.63794 C 147.27571,138.43331 123.34625,136.33665 120.64448,138.05788 C 119.49192,138.79218 118.17052,144.73588 117.70803,151.26612 C 117.11191,159.68331 115.49575,165.15277 112.15577,170.05638 C 106.78742,177.93798 104.00954,179.02214 105.48339,172.66055 C 108.1911,160.97319 110.12731,133.59022 108.37024,131.83313 C 107.33067,130.79357 106.48012,128.92389 106.48012,127.67831 C 106.48012,124.27185 117.8371,112.85332 128.17638,105.86442 C 136.16654,100.46342 137.33703,98.81386 137.33703,92.954397 C 137.33703,89.202599 136.27266,85.957791 134.92633,85.605158 C 105.31647,77.849666 103.61813,75.544601 105.22277,45.290148 C 106.22552,26.383786 108.97485,15.001033 112.53861,15.001033 C 115.09158,15.001033 116.67895,24.24592 115.45168,31.966962 C 114.8274,35.894529 114.95567,40.135287 115.73673,41.390878 C 116.6396,42.842286 125.92437,44.093394 141.22897,44.825905 C 154.4686,45.459581 166.75276,46.422139 168.52693,46.96491 C 171.19652,47.781581 171.96897,46.025133 173.00604,36.779936 C 174.57754,22.770626 175.38876,20.238079 177.8231,21.742563 C 180.59403,23.455079 180.24255,59.817829 177.36601,69.034601 C 174.29953,78.859967 165.78,84.520175 153.89768,82.738312 L 146.15731,83.317262 L 146.93478,90.76996 C 147.88009,99.358088 149.1943,102.11301 154.75749,107.16829 C 158.43502,110.51012 162.10263,113.26979 162.90766,113.30089 C 163.7127,113.33198 167.18406,117.55428 170.62192,122.68374 C 174.05969,127.81318 180.99473,137.45496 186.03308,144.10999 C 191.07142,150.76499 195.1937,157.81364 195.1937,159.77365 C 195.1937,161.98793 191.72511,165.36439 186.03308,168.69092 C 172.1279,176.81729 159.35313,188.06613 150.18827,200.25417 C 139.38478,214.62142 139.11492,234.83928 149.44331,256.07062 C 153.26986,263.93665 161.53955,273.41933 164.57792,273.42525 C 166.37448,273.42875 168.19391,262.63471 168.19391,251.97245 C 168.19391,246.8015 169.06178,242.57068 170.12248,242.57068 C 171.1832,242.57068 172.05103,245.56544 172.05103,249.22574 C 172.05103,252.88602 172.95714,260.10568 174.06455,265.26946 C 176.9349,278.6534 174.25335,284.99897 165.72717,284.99897 C 160.96366,284.99897 157.80739,283.38215 153.49107,278.73111 z M 156.26854,123.56345 C 155.83138,119.82206 153.65939,117.29199 148.60964,114.64209 C 142.3451,111.35468 140.89693,111.23712 135.59188,113.58537 C 131.45077,114.78903 129.70548,118.4671 125.76568,119.7019 C 119.08994,121.44767 121.5679,124.19036 130.22577,124.63856 C 134.80022,124.87534 141.09214,125.83077 144.20779,126.76172 C 154.69287,129.89461 156.93876,129.29902 156.26854,123.56345 z M 163.85468,73.66825 C 166.78098,73.072099 168.20353,71.383251 168.22344,68.481737 C 168.23969,66.115354 169.00119,62.998342 169.91565,61.555045 C 170.8301,60.111738 171.14444,57.271841 170.61422,55.244156 C 169.81079,52.171882 168.48411,51.753404 162.65422,52.733209 C 149.82663,54.889054 149.38604,55.235788 148.03622,64.237046 C 146.15877,76.756773 146.80449,77.141758 163.85468,73.66825 z M 136.95567,64.661366 L 136.37275,54.536445 L 128.65852,53.504557 C 124.4157,52.937021 119.85282,51.796872 118.5188,50.970899 C 112.28095,49.216192 113.08213,58.472384 114.19435,62.549138 C 114.19435,70.358267 119.81934,74.362675 131.17,74.634031 L 137.5386,74.786288 L 136.95567,64.661366 z "
       id="path2187"
       sodipodi:nodetypes="cssssssssssssssssssssssssssssssscccssssssssssssssccsccssccsssssccccccccc" />
  </g>
</svg>
