<?xml version="1.0" encoding="UTF-8" standalone="no"?>
<!-- Created with Inkscape (http://www.inkscape.org/) -->
<svg
   xmlns:dc="http://purl.org/dc/elements/1.1/"
   xmlns:cc="http://web.resource.org/cc/"
   xmlns:rdf="http://www.w3.org/1999/02/22-rdf-syntax-ns#"
   xmlns:svg="http://www.w3.org/2000/svg"
   xmlns="http://www.w3.org/2000/svg"
   xmlns:sodipodi="http://sodipodi.sourceforge.net/DTD/sodipodi-0.dtd"
   xmlns:inkscape="http://www.inkscape.org/namespaces/inkscape"
   width="300"
   height="300"
   id="svg2"
   sodipodi:version="0.32"
   inkscape:version="0.45.1"
   version="1.0"
   sodipodi:docbase="C:\Documents and Settings\Martin\桌面"
   sodipodi:docname="drawing.svg"
   inkscape:output_extension="org.inkscape.output.svg.inkscape">
  <defs
     id="defs4" />
  <sodipodi:namedview
     id="base"
     pagecolor="#ffffff"
     bordercolor="#666666"
     borderopacity="1.0"
     gridtolerance="10000"
     guidetolerance="10"
     objecttolerance="10"
     inkscape:pageopacity="0.0"
     inkscape:pageshadow="2"
     inkscape:zoom="0.65666667"
     inkscape:cx="254.31866"
     inkscape:cy="115.52173"
     inkscape:document-units="px"
     inkscape:current-layer="layer1"
     width="300px"
     height="300px"
     inkscape:window-width="742"
     inkscape:window-height="577"
     inkscape:window-x="44"
     inkscape:window-y="0" />
  <metadata
     id="metadata7">
    <rdf:RDF>
      <cc:Work
         rdf:about="">
        <dc:format>image/svg+xml</dc:format>
        <dc:type
           rdf:resource="http://purl.org/dc/dcmitype/StillImage" />
      </cc:Work>
    </rdf:RDF>
  </metadata>
  <g
     inkscape:label="Layer 1"
     inkscape:groupmode="layer"
     id="layer1">
    <path
       style="fill:#000000"
       d="M 96.424715,279.57247 C 96.424715,278.55341 97.302169,276.72955 98.37462,275.51939 C 101.31797,272.19818 108.79131,242.06689 107.09296,240.36855 C 106.27826,239.55383 104.37842,240.12057 102.87104,241.62792 C 100.09264,244.40635 91.792621,245.47087 91.792621,243.04886 C 91.792621,242.32299 95.082008,236.94814 99.102339,231.10478 C 104.13992,223.78291 106.31909,218.00707 106.11294,212.52341 C 105.94842,208.14707 107.87015,200.53565 110.38345,195.60919 C 115.1518,186.26242 116.37104,176.03691 112.96787,173.93363 C 108.36718,171.09025 105.21527,145.7842 107.58717,130.73296 C 109.87012,116.24631 109.73275,115.48677 102.69104,103.66877 C 98.706278,96.98117 94.62398,91.509515 93.619307,91.509515 C 90.828592,91.509515 91.44565,69.32849 94.417857,62.805212 C 96.687257,57.824426 96.067642,55.533607 89.846678,45.904901 C 85.888645,39.778713 81.489617,33.41017 80.071057,31.75258 C 77.418931,28.653556 78.652093,22.019744 81.876718,22.038844 C 82.872088,22.044733 87.179144,25.322795 91.447991,29.323426 C 97.6436,35.129742 99.622364,35.945312 101.25573,33.365791 C 102.38114,31.588458 103.31787,29.291108 103.33739,28.260559 C 103.3569,27.230016 104.48585,27.074713 105.84621,27.915451 C 107.20654,28.75619 108.03274,32.77291 107.68223,36.841508 C 107.05277,44.147592 112.34387,53.264505 125.9543,68.325382 C 128.82041,71.496938 131.16541,74.884149 131.16541,75.852537 C 131.16541,79.60091 137.87578,77.378884 139.2052,73.190284 C 139.97726,70.757673 142.0033,67.610163 143.70748,66.195823 C 146.13328,64.182591 147.6401,65.382056 150.64796,71.720624 C 152.76101,76.173609 159.11346,84.792782 164.76451,90.874345 L 175.03911,101.93171 L 175.1047,83.982364 C 175.14078,74.110213 174.61572,66.033006 173.93788,66.033006 C 173.26007,66.033006 169.09118,67.543152 164.67369,69.388893 C 160.25623,71.234635 156.64191,72.166279 156.64191,71.45921 C 156.64191,70.752157 159.76858,66.22592 163.59006,61.400913 C 171.85078,50.970905 171.90461,50.361034 165.72454,37.213521 C 163.07701,31.581174 161.2776,24.557539 161.72585,21.605446 C 162.46178,16.75859 163.30509,17.299718 170.42099,27.184696 C 176.53788,35.681949 178.98734,37.561893 181.36781,35.586286 C 183.05448,34.186475 184.43449,30.476388 184.43449,27.341647 C 184.43449,19.995814 189.4889,21.483162 192.38662,29.681691 C 193.899,33.960639 193.63506,37.505786 191.50826,41.479737 C 189.67145,44.911841 188.33929,56.167998 188.14304,69.914147 C 187.9142,85.944785 186.68953,94.88543 183.99811,100.17406 C 181.89704,104.30268 181.00108,108.18931 182.00707,108.81105 C 183.61122,109.80245 184.58837,112.95586 188.12871,128.56627 C 188.56206,130.477 189.35939,137.77255 189.90053,144.77859 C 191.04176,159.55331 192.80903,164.78605 197.23071,166.48281 C 206.72492,170.12606 213.22427,208.09692 205.27889,213.21726 C 204.0882,155.56013 210.42918,228.67851 212.21782,233.94639 C 215.06413,242.86316 218.31502,251.96843 219.44205,254.18033 C 220.56912,256.39226 221.43656,261.60336 221.36974,265.76057 L 221.24826,273.31917 L 217.31666,267.56386 C 209.78364,256.53658 201.01721,247.85824 199.22317,249.65228 C 198.22964,250.64582 197.52086,255.13137 197.6481,259.62023 C 197.82573,265.88584 197.02903,267.6179 194.2186,267.07638 C 186.82261,265.65133 186.72551,250.97622 193.82028,206.86478 C 196.11851,192.57568 196.10524,187.64532 193.75332,181.96728 C 189.7836,172.38353 185.95934,173.06574 180.91233,184.25801 C 178.58822,189.41196 174.82926,195.77045 172.55907,198.38801 C 169.71996,201.66151 168.85067,205.24323 169.77431,209.86161 C 170.65662,214.27303 170.16804,216.57604 168.34993,216.57604 C 165.25923,216.57604 148.79967,205.5679 141.44171,198.57989 C 136.48041,193.86803 126.42057,187.83624 125.75593,189.17485 C 125.54659,189.5965 123.47843,193.35251 121.16004,197.52149 C 117.5463,204.01992 117.34132,206.303 119.72368,213.52159 C 123.79277,225.85113 120.98381,249.68904 114.07836,261.42975 C 105.33839,276.28953 96.424715,285.45016 96.424715,279.57247 z M 166.91747,190.69764 C 171.43036,181.65132 171.52374,177.20324 167.20082,177.20324 C 162.58166,177.20324 160.84928,180.71083 160.31669,191.14147 C 159.79774,201.30606 161.68872,201.17891 166.91747,190.69764 z M 152.00982,185.3094 C 152.00982,183.35698 149.94097,181.83534 147.28641,181.83534 C 143.32468,181.83534 143.04457,182.38132 145.54937,185.2213 C 149.43364,189.62531 152.00982,189.66045 152.00982,185.3094 z M 144.48268,170.28672 C 147.56688,170.25302 148.21406,163.18967 145.91795,154.62178 C 144.4361,149.09221 140.01233,148.22031 126.82282,150.85821 C 117.74239,152.6743 117.24171,158.85799 125.50596,167.12227 C 129.67145,171.28771 132.93295,172.63915 136.50719,171.6807 C 139.30142,170.93138 142.8904,170.30411 144.48268,170.28672 z M 177.11457,159.72391 C 180.27386,152.79004 180.53308,144.88559 177.74542,140.48639 C 176.22052,138.07995 174.65077,137.9455 170.98498,139.90737 C 168.3591,141.31273 164.05767,142.46254 161.42627,142.46254 C 157.22908,142.46254 156.64191,143.88374 156.64191,154.04278 L 156.64191,165.62302 L 165.53433,165.62302 C 172.81588,165.62302 174.91367,164.55438 177.11457,159.72391 z M 135.21849,136.66131 C 140.95044,135.50767 142.73719,133.94742 142.71018,130.11928 C 142.65328,122.05404 139.81265,119.6959 131.16541,120.53544 C 126.70702,120.96828 122.27757,121.38897 121.32221,121.47028 C 120.36685,121.55159 119.58517,125.85724 119.58517,131.03838 C 119.58517,138.90077 120.25546,140.26992 123.63826,139.31746 C 125.86746,138.68981 131.07855,137.49454 135.21849,136.66131 z M 175.17029,126.68694 C 175.17029,120.8602 166.17854,111.75382 162.00609,113.35493 C 160.12125,114.07821 157.10102,114.66998 155.29447,114.66998 C 153.08464,114.66998 152.00982,117.32248 152.00982,122.77614 L 152.00982,130.88232 L 163.59006,130.88232 C 173.22445,130.88232 175.17029,130.17735 175.17029,126.68694 z M 139.26022,105.42414 C 140.04126,104.16041 139.75506,101.47314 138.62424,99.45245 C 136.86743,96.3132 135.9987,96.64762 132.65537,101.75016 C 128.90791,107.46951 128.93477,107.72185 133.29138,107.72185 C 135.79322,107.72185 138.4792,106.68789 139.26022,105.42414 z M 128.84391,85.357644 C 128.85133,81.704168 106.02738,65.550452 103.26771,67.256014 C 99.277756,69.721936 100.93904,76.991429 108.5014,90.157799 L 115.94602,103.11914 L 122.39225,95.57729 C 125.9377,91.429274 128.84094,86.830438 128.84391,85.357644 z M 156.64191,100.91039 C 156.64191,99.71174 155.5997,98.08689 154.32587,97.29964 C 153.05205,96.51236 152.00982,97.49308 152.00982,99.47899 C 152.00982,101.4649 153.05205,103.08975 154.32587,103.08975 C 155.5997,103.08975 156.64191,102.10904 156.64191,100.91039 z "
       id="path2220"
       sodipodi:nodetypes="cssssssssssssssssssssssssscccsssssssssssssssssccscccssssssssssssssccssccssccssssccssscccccsssssccsscccccsssccscccccsssc" />
  </g>
</svg>
