<?xml version="1.0" encoding="UTF-8" standalone="no"?>
<!-- Created with Inkscape (http://www.inkscape.org/) -->
<svg
   xmlns:dc="http://purl.org/dc/elements/1.1/"
   xmlns:cc="http://web.resource.org/cc/"
   xmlns:rdf="http://www.w3.org/1999/02/22-rdf-syntax-ns#"
   xmlns:svg="http://www.w3.org/2000/svg"
   xmlns="http://www.w3.org/2000/svg"
   xmlns:sodipodi="http://sodipodi.sourceforge.net/DTD/sodipodi-0.dtd"
   xmlns:inkscape="http://www.inkscape.org/namespaces/inkscape"
   width="300"
   height="300"
   id="svg2"
   sodipodi:version="0.32"
   inkscape:version="0.45.1"
   version="1.0"
   sodipodi:docbase="C:\Documents and Settings\Martin\桌面"
   sodipodi:docname="drawing.svg"
   inkscape:output_extension="org.inkscape.output.svg.inkscape">
  <defs
     id="defs4" />
  <sodipodi:namedview
     id="base"
     pagecolor="#ffffff"
     bordercolor="#666666"
     borderopacity="1.0"
     gridtolerance="10000"
     guidetolerance="10"
     objecttolerance="10"
     inkscape:pageopacity="0.0"
     inkscape:pageshadow="2"
     inkscape:zoom="0.65666667"
     inkscape:cx="275.56408"
     inkscape:cy="163.59588"
     inkscape:document-units="px"
     inkscape:current-layer="layer1"
     width="300px"
     height="300px"
     inkscape:window-width="742"
     inkscape:window-height="577"
     inkscape:window-x="50"
     inkscape:window-y="0" />
  <metadata
     id="metadata7">
    <rdf:RDF>
      <cc:Work
         rdf:about="">
        <dc:format>image/svg+xml</dc:format>
        <dc:type
           rdf:resource="http://purl.org/dc/dcmitype/StillImage" />
      </cc:Work>
    </rdf:RDF>
  </metadata>
  <g
     inkscape:label="Layer 1"
     inkscape:groupmode="layer"
     id="layer1">
    <path
       style="fill:#000000"
       d="M 128.92955,268.2036 C 126.44667,262.75427 124.41521,254.8771 124.41521,250.69878 C 124.41521,246.5205 121.78949,243.10192 118.58027,243.10192 C 115.21161,243.10192 112.74533,246.62004 112.74533,251.42546 C 112.74533,262.35964 102.1189,270.05421 86.806264,270.2079 C 60.023344,270.47678 51.130664,256.15558 76.763204,254.03411 C 98.265384,252.25453 96.602584,241.53516 74.578334,239.94907 C 61.288634,238.99198 58.064554,237.3766 59.050854,232.16915 C 59.902094,227.67461 64.896654,225.21546 74.850594,224.38978 C 92.138704,222.95578 94.538064,215.8722 77.735694,215.8722 C 63.202454,215.8722 61.748424,205.43412 75.790714,201.90974 C 90.704474,198.16662 104.83039,203.3407 108.89668,214.03587 C 114.79608,229.55241 123.60058,225.90569 126.47218,206.75628 C 131.1415,175.61917 122.94979,158.07468 113.46342,178.89494 C 107.9913,190.905 92.025854,197.61604 76.853884,194.28374 C 59.125584,190.38993 66.436064,180.52242 91.350554,174.71648 C 102.59223,172.09677 102.31153,171.83849 83.700174,167.67736 C 59.159154,162.19047 58.684614,155.92598 82.693564,154.38829 C 103.48863,153.05644 104.22881,145.85291 83.570634,145.85291 C 66.547274,145.85291 63.254624,140.09431 75.638424,131.98013 C 88.654384,123.45175 102.24485,127.21637 113.00787,142.33164 C 122.55352,155.73725 128.1388,152.39398 128.24562,133.21054 C 128.30331,122.84956 127.64236,122.51315 107.22855,122.51315 C 95.636394,122.51315 83.383024,121.45063 79.998834,120.15199 C 71.533624,116.90358 72.189974,98.19008 81.157574,87.11557 C 87.297144,79.533522 92.957694,77.832216 116.46417,76.503982 C 135.54766,75.425669 145.11602,73.209828 146.52314,69.542945 C 149.48818,61.816193 156.77493,62.91718 162.41207,71.943673 C 166.39714,78.324822 171.48353,79.723593 190.70242,79.723593 C 221.09157,79.723593 241.11401,87.79854 241.11401,100.05434 C 241.11401,105.03616 238.38902,113.00265 235.05851,117.75765 C 229.86627,125.17056 225.42969,126.40311 203.93883,126.40311 L 178.87465,126.40311 L 178.87465,140.01797 L 178.87465,153.63283 L 205.32638,153.63283 C 220.71335,153.63283 233.73071,155.58544 236.44606,158.30078 C 239.31253,161.16727 241.11401,175.19619 241.11401,194.65251 C 241.11401,233.2902 236.65332,239.21196 207.54856,239.21196 C 187.47586,239.21196 178.87465,243.94993 178.87465,255.00695 C 178.87465,259.95447 184.49401,262.27581 202.88699,264.92635 C 216.09379,266.82951 227.61779,270.57476 228.49591,273.24911 C 229.71561,276.9638 218.68579,278.11157 181.7682,278.11157 C 133.75913,278.11157 133.41448,278.04692 128.92955,268.2036 z M 162.61287,251.85433 C 163.61873,244.77184 161.99261,243.10192 154.09004,243.10192 C 143.00837,243.10192 138.22056,248.47882 141.55795,257.17587 C 145.07487,266.34081 161.13184,262.28246 162.61287,251.85433 z M 162.5183,197.11952 L 163.66678,168.64195 L 152.7934,169.8898 C 142.11496,171.11528 141.89945,171.64818 140.77156,199.61524 L 139.62309,228.09278 L 150.49646,226.84496 C 161.17491,225.61947 161.39041,225.08658 162.5183,197.11952 z M 213.88429,222.48513 C 213.88429,217.12209 206.35539,208.09228 201.8838,208.09228 C 200.41826,208.09228 196.35181,212.46849 192.84723,217.81718 L 186.47521,227.54208 L 200.17977,227.54208 C 208.83119,227.54208 213.88429,225.67751 213.88429,222.48513 z M 191.98603,199.4344 C 195.88887,193.24714 189.72437,180.86256 182.74178,180.86256 C 179.12622,180.86256 174.93914,200.98155 177.64391,205.35799 C 180.35229,209.74022 187.29373,206.87325 191.98603,199.4344 z M 225.55417,193.64384 C 225.55417,180.38904 225.0391,179.71047 219.31942,185.43015 C 215.33867,189.41094 214.02713,194.6343 215.69161,199.87859 C 219.85367,212.99215 225.55417,209.38853 225.55417,193.64384 z M 209.99433,175.02761 C 214.08945,170.09327 213.26236,169.19267 204.63568,169.19267 C 194.77408,169.19267 191.66297,172.9044 197.02781,178.26924 C 201.05334,182.29477 204.72491,181.37689 209.99433,175.02761 z M 164.708,139.04548 C 166.03413,131.02244 167.13841,117.01858 167.16194,107.9258 C 167.20283,92.14034 166.67757,91.39347 155.53489,91.39347 L 143.86501,91.39347 L 143.86501,122.51315 C 143.86501,152.65586 144.15435,153.63283 153.08095,153.63283 C 160.7085,153.63283 162.71241,151.1187 164.708,139.04548 z M 127.60323,100.14588 C 128.71502,92.31758 127.19906,91.39347 113.24546,91.39347 C 96.780664,91.39347 91.132914,95.70678 94.864554,105.43129 C 96.453714,109.57256 101.45507,110.95831 111.74157,110.10746 C 123.49076,109.13563 126.60417,107.18033 127.60323,100.14588 z M 219.92871,106.61437 C 223.81326,100.32903 217.76507,96.56953 199.29694,93.78985 C 183.57458,91.42344 182.76461,91.78024 182.76461,101.0724 C 182.76461,110.04015 184.18456,110.84327 200.03985,110.84327 C 209.54123,110.84327 218.49121,108.94026 219.92871,106.61437 z M 76.277044,68.840601 C 72.809644,63.230213 76.388064,61.612546 99.130474,58.509443 C 116.79334,56.099423 136.02865,47.126312 131.91117,43.217509 C 130.99761,42.350254 120.6225,40.127613 108.85537,38.278306 C 93.994874,35.942848 87.460594,33.145026 87.460594,29.117552 C 87.460594,24.282009 97.246294,23.141216 146.39197,22.24747 C 200.12418,21.270316 206.52834,21.886711 218.98134,29.234169 C 247.34923,45.971632 239.46739,61.091365 201.29043,63.170712 C 187.89201,63.900473 174.51731,62.867673 171.56884,60.875601 C 161.66352,54.183236 171.38387,48.603913 192.94864,48.603913 C 206.2213,48.603913 213.43076,47.12716 211.93931,44.713953 C 210.61704,42.574475 196.62785,40.823993 180.85219,40.823993 C 156.26056,40.823993 151.84021,41.860551 149.86279,48.09089 C 145.3134,62.424673 133.76555,68.374709 105.97377,70.70467 C 88.588294,72.162207 77.915884,71.492297 76.277044,68.840601 z "
       id="path2207" />
  </g>
</svg>
