<?xml version="1.0" encoding="UTF-8" standalone="no"?>
<!-- Created with Inkscape (http://www.inkscape.org/) -->
<svg
   xmlns:dc="http://purl.org/dc/elements/1.1/"
   xmlns:cc="http://web.resource.org/cc/"
   xmlns:rdf="http://www.w3.org/1999/02/22-rdf-syntax-ns#"
   xmlns:svg="http://www.w3.org/2000/svg"
   xmlns="http://www.w3.org/2000/svg"
   xmlns:sodipodi="http://sodipodi.sourceforge.net/DTD/sodipodi-0.dtd"
   xmlns:inkscape="http://www.inkscape.org/namespaces/inkscape"
   width="300"
   height="300"
   id="svg2"
   sodipodi:version="0.32"
   inkscape:version="0.45.1"
   version="1.0"
   sodipodi:docbase="C:\Documents and Settings\Martin\桌面"
   sodipodi:docname="drawing.svg"
   inkscape:output_extension="org.inkscape.output.svg.inkscape">
  <defs
     id="defs4" />
  <sodipodi:namedview
     id="base"
     pagecolor="#ffffff"
     bordercolor="#666666"
     borderopacity="1.0"
     gridtolerance="10000"
     guidetolerance="10"
     objecttolerance="10"
     inkscape:pageopacity="0.0"
     inkscape:pageshadow="2"
     inkscape:zoom="0.65666667"
     inkscape:cx="275.56408"
     inkscape:cy="163.59588"
     inkscape:document-units="px"
     inkscape:current-layer="layer1"
     width="300px"
     height="300px"
     inkscape:window-width="742"
     inkscape:window-height="577"
     inkscape:window-x="50"
     inkscape:window-y="0" />
  <metadata
     id="metadata7">
    <rdf:RDF>
      <cc:Work
         rdf:about="">
        <dc:format>image/svg+xml</dc:format>
        <dc:type
           rdf:resource="http://purl.org/dc/dcmitype/StillImage" />
      </cc:Work>
    </rdf:RDF>
  </metadata>
  <g
     inkscape:label="Layer 1"
     inkscape:groupmode="layer"
     id="layer1">
    <path
       style="fill:#000000"
       d="M 163.94782,283.05315 C 151.90771,278.09094 137.87448,272.55663 134.58779,258.87571 C 133.69247,254.16774 130.44495,251.81456 129.25435,247.18907 C 127.67368,239.90316 125.8671,238.71089 116.35555,238.67636 C 108.30273,238.64715 94.318517,233.03313 82.818937,225.21291 C 73.216239,218.68265 68.744622,219.67702 66.867231,228.76014 C 65.358538,236.05941 57.52556,244.68826 50.815328,246.44302 C 45.087701,247.94083 45.155624,243.94669 50.939242,239.15529 C 54.009013,236.61216 56.520631,233.43516 56.520631,232.09528 C 56.520631,228.80747 55.455429,229.00971 49.471706,233.43369 C 45.292724,236.52335 43.674713,236.83811 40.554773,235.16836 C 35.203012,232.30417 35.814098,229.00024 42.137075,226.61358 C 49.434359,223.85917 48.951954,220.66939 41.238107,220.66939 C 37.777066,220.66939 34.945302,219.81903 34.945302,218.7797 C 34.945302,215.26216 47.922846,211.24462 55.798382,212.32409 C 61.598257,213.11905 63.925269,212.62657 66.1891,210.12507 C 69.721683,206.22161 69.77742,204.91755 66.666507,198.95614 C 63.055966,192.03727 59.520832,166.18281 60.914543,156.88882 L 62.136225,148.74205 L 56.021398,152.34989 C 50.776017,155.44473 49.034623,155.66398 43.774378,153.89176 C 36.156125,151.32511 33.147356,149.03788 33.147356,145.81331 C 33.147356,143.93443 34.818434,143.58146 39.889646,144.38919 C 45.584994,145.29633 47.30773,144.74236 50.984065,140.82163 C 53.377717,138.26884 54.99587,135.91239 54.579948,135.58507 C 54.16401,135.25773 49.923511,133.20089 45.156599,131.01426 C 34.657466,126.19823 34.973327,122.68142 45.904982,122.68142 C 50.260287,122.68142 54.025984,122.07461 54.273209,121.33295 C 55.874582,116.52882 53.879295,111.60622 48.235113,106.43636 C 44.666971,103.16806 42.287495,99.620362 42.947395,98.552612 C 45.660187,94.163202 63.712413,97.777212 63.712413,102.70971 C 63.712413,104.13508 64.560398,105.58395 65.596838,105.92944 C 66.633278,106.27493 67.960087,111.1968 68.545285,116.86694 C 69.671396,127.77771 71.338411,129.29886 76.12334,123.7818 C 81.391021,117.70811 91.442491,113.32416 109.56737,109.19516 C 128.84108,104.80446 132.03431,102.90638 132.03431,95.84068 C 132.03431,91.744262 131.30785,91.217397 125.65976,91.217397 C 121.43378,91.217397 117.93611,89.853898 115.28247,87.172022 C 108.54028,80.358022 103.26719,71.975147 103.26719,68.070744 C 103.26719,58.948463 117.99844,40.874951 125.4338,40.874951 C 128.11477,40.874951 128.617,39.997071 127.74817,36.829575 C 124.63355,25.474612 124.53816,19.860817 127.41106,16.987927 C 129.0222,15.376783 131.33885,14.44171 132.55917,14.909987 C 134.67099,15.720371 135.9127,18.145192 140.98166,31.357617 C 142.48645,35.279892 145.00201,37.722216 148.85105,38.997946 C 156.53417,41.544449 165.54972,49.611806 168.00648,56.138769 C 169.19595,59.298908 169.4823,64.114746 168.70135,67.825404 C 167.97075,71.296739 167.31028,74.92211 167.23361,75.881769 C 167.15695,76.841428 165.2978,78.522222 163.10219,79.616861 C 158.63192,81.845529 151.81169,89.83892 151.81169,92.849443 C 151.81169,93.929551 151.07836,94.813288 150.18206,94.813288 C 149.28577,94.813288 148.94981,96.332812 149.43547,98.190012 C 150.54466,102.43151 157.32785,105.60094 165.29628,105.60094 C 168.66426,105.60094 173.27838,106.35403 175.54986,107.27447 C 177.82133,108.19489 181.76166,109.38801 184.30612,109.92582 C 186.85059,110.46362 191.94323,112.94685 195.62312,115.44408 C 199.30301,117.94133 202.68242,119.9845 203.13296,119.9845 C 204.75732,119.9845 203.90978,112.97882 202.15413,111.89376 C 199.18897,110.0612 200.10077,104.35581 204.66061,96.210002 C 207.74966,90.69165 210.28795,88.359846 213.65034,87.951572 C 219.14567,87.2843 219.86245,91.089381 215.82231,99.481402 C 212.3305,106.73443 210.6629,112.79273 212.15823,112.79273 C 212.84942,112.79273 217.0254,109.18226 221.43821,104.76948 C 230.44814,95.759544 235.96916,93.174005 238.30995,96.868312 C 239.16024,98.210222 239.86831,99.796812 239.88345,100.39406 C 239.92703,102.11345 231.97134,110.22845 228.14019,112.37247 C 221.81713,115.91102 228.93594,118.24136 238.56251,115.78419 C 242.34028,114.81992 243.50686,115.16657 243.50686,117.25334 C 243.50686,118.75547 242.69779,119.9845 241.70891,119.9845 C 240.72004,119.9845 239.91096,121.07273 239.91096,122.40277 C 239.91096,123.73281 238.32473,126.25654 236.38602,128.01108 C 232.94823,131.12221 228.57024,131.1507 219.12837,128.12341 C 216.25125,127.20094 214.92859,128.02864 213.19306,131.83774 C 211.89975,134.67619 211.65075,137.18599 212.60141,137.80098 C 215.10642,139.42148 216.74021,149.58183 217.74555,169.7919 C 218.52877,185.53688 218.11688,189.5816 214.83772,198.34596 C 212.73655,203.96183 211.24812,208.76948 211.53011,209.02961 C 211.81212,209.28976 215.22211,208.97662 219.1079,208.33378 C 224.8022,207.39178 226.42379,206.22715 227.4657,202.33126 C 229.66288,194.1157 240.9957,184.7105 248.6979,184.7105 C 253.23764,184.7105 261.4863,188.37574 261.4863,190.39295 C 261.4863,191.22308 259.50168,191.90228 257.07604,191.90228 C 252.02322,191.90228 243.63724,195.34567 243.23717,197.58472 C 242.21315,203.31568 242.77805,203.58033 254.74401,202.97571 C 261.41888,202.63845 266.86775,203.04298 266.85261,203.87469 C 266.77687,208.03447 258.51055,213.44053 252.07149,213.54133 C 249.83313,213.57636 246.03589,214.694 243.63318,216.02496 L 239.26466,218.44489 L 244.89236,221.35509 C 247.98761,222.9557 252.58294,224.26528 255.10421,224.26528 C 260.09489,224.26528 260.89831,225.93204 257.53083,229.29952 C 252.91922,233.91114 235.54999,229.7287 230.59201,222.81278 C 228.47369,219.85791 226.61987,219.65068 212.98968,220.84505 C 199.75308,217.36269 188.21521,234.29519 178.22525,235.08003 C 172.67146,235.11819 160.52255,239.56862 161.98365,241.02972 C 158.66525,243.57448 155.44324,250.09052 154.7103,255.72932 C 155.22812,265.90606 161.66292,272.61439 174.85677,276.73216 C 179.93989,278.3186 182.37675,280.10254 182.37675,282.23728 C 182.37675,285.88333 175.19172,286.20143 163.94782,283.05315 z M 163.49833,225.39367 C 187.18923,221.105 198.33595,212.46056 202.92457,194.81802 C 207.47803,177.31067 206.89044,154.43557 201.60274,143.35777 C 198.61014,137.08828 187.75904,125.461 182.37675,122.75659 C 167.97595,115.52066 118.93094,114.89294 102.36822,121.73257 C 100.39048,122.54929 96.34511,124.18283 93.378494,125.36268 C 67.241964,135.75739 65.358197,198.62543 90.657917,216.15813 C 102.49669,224.36241 114.68978,227.6052 133.83224,227.64051 C 143.2265,227.65783 156.57624,226.64675 163.49833,225.39367 z M 132.27972,75.48538 C 132.63917,72.76599 132.52873,66.495655 132.03431,61.551311 C 131.24055,53.613799 130.64858,52.561584 126.97665,52.561584 C 113.67827,52.561584 117.00231,78.874746 130.48178,80.308039 C 131.1112,80.374975 131.92027,78.204771 132.27972,75.48538 z M 150.01374,71.278716 C 150.01374,70.201138 151.82713,67.851093 154.04349,66.056379 C 158.01176,62.843086 158.02121,62.735795 154.6638,59.025898 C 152.78862,56.953825 149.96388,55.258 148.38663,55.25739 C 146.06075,55.256479 145.63659,56.955116 146.14188,64.247109 C 146.48456,69.19207 147.4959,73.237941 148.38931,73.237941 C 149.28275,73.237941 150.01374,72.356295 150.01374,71.278716 z "
       id="path2159"
       sodipodi:nodetypes="cccsssssssssssssscccsssssssssssssssssssssssssssssssssssssssssssssssssssssssssssssssssscccsssccccssccsssssssccsssccsssssc" />
  </g>
</svg>
