<?xml version="1.0" encoding="UTF-8" standalone="no"?>
<!-- Created with Inkscape (http://www.inkscape.org/) -->
<svg
   xmlns:dc="http://purl.org/dc/elements/1.1/"
   xmlns:cc="http://web.resource.org/cc/"
   xmlns:rdf="http://www.w3.org/1999/02/22-rdf-syntax-ns#"
   xmlns:svg="http://www.w3.org/2000/svg"
   xmlns="http://www.w3.org/2000/svg"
   xmlns:sodipodi="http://sodipodi.sourceforge.net/DTD/sodipodi-0.dtd"
   xmlns:inkscape="http://www.inkscape.org/namespaces/inkscape"
   id="svg2178"
   sodipodi:version="0.32"
   inkscape:version="0.45.1"
   width="300"
   height="300"
   version="1.0"
   sodipodi:docbase="C:\Documents and Settings\L'équipage\Mes documents\Bertrand\Gifs"
   sodipodi:docname="龠-seal.svg"
   inkscape:output_extension="org.inkscape.output.svg.inkscape">
  <metadata
     id="metadata2183">
    <rdf:RDF>
      <cc:Work
         rdf:about="">
        <dc:format>image/svg+xml</dc:format>
        <dc:type
           rdf:resource="http://purl.org/dc/dcmitype/StillImage" />
      </cc:Work>
    </rdf:RDF>
  </metadata>
  <defs
     id="defs2181" />
  <sodipodi:namedview
     inkscape:window-height="579"
     inkscape:window-width="752"
     inkscape:pageshadow="2"
     inkscape:pageopacity="0.0"
     guidetolerance="10.0"
     gridtolerance="10.0"
     objecttolerance="10.0"
     borderopacity="1.0"
     bordercolor="#666666"
     pagecolor="#ffffff"
     id="base"
     width="300px"
     height="300px"
     inkscape:zoom="1"
     inkscape:cx="34"
     inkscape:cy="148.40407"
     inkscape:window-x="132"
     inkscape:window-y="132"
     inkscape:current-layer="svg2178" />
  <path
     style="fill:#000000"
     d="M 205.94823,287.02646 C 193.44821,270.5404 199.36442,248.71134 194.56297,229.8891 C 192.13332,223.19994 183.51551,226.54805 178.00195,225.75941 C 177.16253,236.14755 178.11052,246.85717 175.2792,256.94764 C 165.12204,264.23276 168.55038,242.37633 167.40893,236.27411 C 169.32792,226.70302 164.00494,219.62711 154.43619,220.69532 C 152.39714,222.36957 154.15992,228.30818 153.57013,231.60801 C 153.17389,247.29958 154.79817,263.24501 151.69235,278.69788 C 142.89648,291.76246 143.32779,271.56102 143.71184,265.32502 C 143.03045,251.66267 145.60388,237.30745 140.84057,224.2284 C 129.57544,213.13629 125.77458,232.21067 127.2191,240.89938 C 126.2951,247.72131 128.13395,263.68962 119.18426,262.55268 C 114.53534,251.37581 116.95553,238.59745 112.86318,227.33169 C 100.75747,222.21789 100.56125,242.32356 100.34248,250.54578 C 100.79062,262.36423 99.965936,277.55505 87.705346,283.35554 C 74.295677,283.78401 88.968155,264.4477 87.603114,256.11672 C 92.661604,219.67322 89.990918,182.59705 95.015241,146.15904 C 104.72904,139.40312 105.09675,157.77011 105.25364,164.22096 C 113.70757,174.85482 116.13666,157.30253 116.97717,151.14697 C 129.65277,141.35792 125.65438,161.28239 128.67706,167.85882 C 142.97548,174.19033 146.06045,157.93721 143.83347,147.32866 C 145.96848,134.69296 131.86482,127.13985 135.30766,114.42232 C 136.12235,107.18963 135.18538,83.954371 146.98183,94.35151 C 153.79171,101.22935 159.66514,94.966204 159.96336,87.622621 C 170.79201,82.358205 168.65173,103.40796 169.92124,110.25774 C 170.29567,119.65196 168.94056,132.79024 158.08555,134.90713 C 154.28977,144.27243 151.97362,157.53454 158.35705,166.1745 C 170.39285,169.02161 162.47493,142.75509 172.72392,141.81368 C 183.82981,147.64832 177.24246,160.99723 178.17707,170.55106 C 190.03218,177.26941 188.47405,154.40686 192.85075,147.82818 C 195.68618,137.74524 206.54834,142.09595 203.88291,151.57277 C 204.20742,185.31934 204.85209,219.21704 210.54975,252.57969 C 211.36242,263.30529 214.64935,274.8746 210.6428,285.24166 C 209.69407,286.52821 207.59706,288.38464 205.94823,287.02646 z M 115.67859,206.9962 C 116.63473,200.47532 117.65981,178.20523 107.21112,188.02221 C 105.44809,194.67965 103.17886,217.97772 115.03928,208.459 L 115.67859,206.9962 L 115.67859,206.9962 z M 141.44658,207.62344 C 144.703,199.7094 145.31042,179.85566 132.14992,182.23285 C 123.89083,185.75344 123.40764,203.98727 130.79227,209.51164 C 134.31066,212.20062 138.97473,211.17777 141.44658,207.62344 z M 166.75089,209.03053 C 166.15176,200.87174 167.01063,182.18548 155.72578,182.66997 C 152.71732,190.94676 149.71035,209.91469 162.50621,211.04191 C 164.10979,211.0529 165.84051,210.40122 166.75089,209.03053 z M 192.30707,201.13419 C 195.16257,192.79795 182.13625,174.98476 178.26181,189.41804 C 176.27142,198.51512 176.8649,216.17477 190.64934,210.40172 C 192.875,207.97442 192.07542,204.14997 192.30707,201.13419 z M 159.03093,117.88561 C 163.27192,105.32742 142.51666,99.727837 144.74398,115.04967 C 145.78803,122.85921 156.88788,129.00206 159.03093,117.88561 z M 97.549629,129.37843 C 90.45068,123.55505 94.248584,105.29719 89.017675,103.80777 C 82.153942,107.8516 70.02754,130.18054 64.798516,115.2317 C 65.864979,103.60926 78.812754,97.610475 85.142896,88.662907 C 99.440392,74.307948 112.60173,58.914903 125.50411,43.333234 C 134.97137,34.658321 140.88714,22.759826 150.65346,14.475361 C 162.81444,11.107091 164.64756,30.924419 174.17337,36.122083 C 182.99516,45.882395 187.96837,58.508986 198.19786,67.123782 C 210.35336,79.794604 225.67482,89.537513 236.01448,103.8586 C 240.80146,115.71535 226.93666,115.53694 222.77206,107.06026 C 219.03136,102.08064 210.55703,95.962949 211.83475,107.01121 C 213.33635,118.48534 208.49843,132.58373 195.15609,133.45563 C 182.96254,136.21232 177.53226,123.5947 176.4215,113.71302 C 174.87427,107.13376 171.61747,87.923356 182.0941,91.861397 C 180.67927,106.15781 202.20928,98.413988 196.69321,86.73923 C 193.37782,75.098118 182.02182,68.121215 175.48796,58.251704 C 167.71587,49.93447 162.74068,38.681495 152.91961,32.521228 C 145.03114,33.819038 140.47589,47.890433 133.04138,53.633903 C 125.70074,59.554961 128.1946,67.780982 138.23514,65.693493 C 152.13264,67.597758 166.6782,66.318963 180.09554,70.761475 C 187.19844,81.850376 164.77319,79.509361 158.48989,80.266957 C 145.23612,80.64165 132.81278,75.451565 120.15119,72.514832 C 110.87917,74.996868 96.512465,87.380278 102.72139,97.505386 C 112.22495,103.88918 118.2988,91.412283 122.37428,88.127344 C 132.78733,92.544926 128.67969,107.96807 129.30533,117.25285 C 131.45458,131.47896 116.91807,136.5622 105.36513,132.84888 C 102.59534,132.22878 99.645995,131.41024 97.549629,129.37843 z M 119.6753,115.64735 C 123.15267,102.55024 100.47875,102.22309 102.52629,115.00312 C 103.57324,123.87715 121.76752,129.37911 119.6753,115.64735 z M 199.57025,120.64135 C 203.89878,108.70032 178.86027,104.93887 187.74719,117.9912 C 189.40485,121.81634 198.79274,128.71711 199.57025,120.64135 z "
     id="path2372" />
</svg>
