<?xml version="1.0" encoding="UTF-8" standalone="no"?>
<!-- Created with Inkscape (http://www.inkscape.org/) -->
<svg
   xmlns:dc="http://purl.org/dc/elements/1.1/"
   xmlns:cc="http://web.resource.org/cc/"
   xmlns:rdf="http://www.w3.org/1999/02/22-rdf-syntax-ns#"
   xmlns:svg="http://www.w3.org/2000/svg"
   xmlns="http://www.w3.org/2000/svg"
   xmlns:sodipodi="http://sodipodi.sourceforge.net/DTD/sodipodi-0.dtd"
   xmlns:inkscape="http://www.inkscape.org/namespaces/inkscape"
   id="svg2952"
   sodipodi:version="0.32"
   inkscape:version="0.45.1"
   width="300"
   height="300"
   version="1.0"
   sodipodi:docbase="/home/michelet/Images/Temp"
   sodipodi:docname="龠-bronze.svg"
   inkscape:output_extension="org.inkscape.output.svg.inkscape">
  <metadata
     id="metadata2957">
    <rdf:RDF>
      <cc:Work
         rdf:about="">
        <dc:format>image/svg+xml</dc:format>
        <dc:type
           rdf:resource="http://purl.org/dc/dcmitype/StillImage" />
      </cc:Work>
    </rdf:RDF>
  </metadata>
  <defs
     id="defs2955" />
  <sodipodi:namedview
     inkscape:window-height="941"
     inkscape:window-width="1269"
     inkscape:pageshadow="2"
     inkscape:pageopacity="0.0"
     guidetolerance="10.0"
     gridtolerance="10.0"
     objecttolerance="10.0"
     borderopacity="1.0"
     bordercolor="#666666"
     pagecolor="#ffffff"
     id="base"
     width="300px"
     height="300px"
     inkscape:zoom="2"
     inkscape:cx="28.5"
     inkscape:cy="138.5"
     inkscape:window-x="0"
     inkscape:window-y="27"
     inkscape:current-layer="svg2952" />
  <path
     style="fill:#000000"
     d="M 187.79886,293.90735 C 184.28205,283.46032 189.58725,262.51732 171.6695,266.03299 C 162.46251,269.9448 171.79257,288.62004 159.6499,291.84037 C 147.82328,287.65212 156.98118,266.63578 143.04267,265.58587 C 126.2293,261.7342 135.01365,284.72838 123.29849,288.25263 C 107.36653,288.79436 126.49844,263.28219 110.86313,265.05788 C 94.992316,260.6793 100.24353,282.61362 89.12121,285.97113 C 78.484215,280.50391 88.754623,263.82568 78.551809,257.68377 C 68.646684,251.44492 53.434229,244.86332 53.165279,231.4613 C 54.199895,216.62672 64.00039,200.69693 79.806471,198.75028 C 91.079136,195.29054 85.252485,173.46145 102.80768,179.67269 C 106.89801,184.25991 104.29331,197.1801 115.44666,191.32411 C 120.73034,187.47264 124.89116,171.57498 132.87996,182.69494 C 130.31167,194.34326 154.0279,200.84603 155.11801,188.80202 C 151.68839,172.3616 172.06293,178.44037 173.804,189.72776 C 178.24057,202.61392 191.98219,194.28585 193.29723,184.16234 C 205.64455,176.68215 204.38346,199.33482 209.34514,205.69797 C 218.86364,213.2743 227.70188,222.77905 224.9559,236.13851 C 227.53438,249.38027 214.85276,256.00299 206.65914,263.46349 C 196.19532,272.0123 207.8519,293.81097 192.05837,297.19566 C 190.1465,297.07471 188.44565,295.68878 187.79886,293.90735 z M 117.83282,229.97565 C 117.83282,221.86315 117.83282,213.75065 117.83282,205.63815 C 111.98814,206.99619 102.42465,204.4708 100.99147,212.36311 C 100.34963,224.20071 97.416676,236.97775 101.59128,248.3703 C 107.10068,256.98268 119.96961,255.71768 117.48626,243.58675 C 117.80397,239.05763 117.82294,234.51375 117.83282,229.97565 z M 151.37109,230.07626 C 151.66723,222.4447 151.96337,214.81314 152.25951,207.18158 C 145.63524,207.13284 136.78524,204.30325 132.29765,210.48639 C 129.76137,224.00227 129.51264,238.24245 131.95832,251.77614 C 143.24224,259.65089 154.68429,248.39797 151.13786,235.78955 C 151.22224,233.8854 151.29702,231.98083 151.37109,230.07626 z M 186.24203,232.83829 C 186.24203,225.68001 186.24203,218.52174 186.24203,211.36346 C 180.02302,211.36346 173.804,211.36346 167.58498,211.36346 C 167.58498,225.68002 167.58498,239.99657 167.58498,254.31313 C 173.804,254.31313 180.02302,254.31313 186.24203,254.31313 C 186.24203,247.15485 186.24203,239.99657 186.24203,232.83829 z M 206.19952,247.31505 C 217.46351,242.90974 208.91525,214.31193 199.77933,221.94687 C 199.99597,229.48059 193.37903,252.48694 206.19953,247.31505 L 206.19952,247.31505 z M 86.737724,226.12741 C 88.642608,217.07662 83.962228,201.95173 74.521728,214.34138 C 64.454924,222.3973 69.945111,236.83688 80.259188,241.64804 C 88.741384,248.98262 85.740914,229.82031 86.737724,226.12741 z M 173.14882,158.34747 C 164.26123,148.50895 164.22374,134.13506 162.19331,121.71609 C 158.44527,110.67469 170.21002,95.225883 176.41507,112.04236 C 180.7999,124.03657 198.70781,122.44459 196.53744,108.49414 C 206.66319,96.82619 208.37762,119.68103 207.81336,126.71311 C 207.59024,138.34186 209.65924,154.10472 197.25237,160.42375 C 189.80762,164.03582 179.52086,164.23222 173.14882,158.34747 z M 192.46104,139.94089 C 195.27119,123.04403 167.49776,132.71117 179.06628,145.28146 C 183.35956,156.14752 193.65246,149.15101 192.46104,139.94089 z M 113.31817,145.34247 C 98.316197,133.50391 97.73712,112.22146 101.63151,95.109635 C 111.63817,81.597423 116.09874,108.64805 128.52677,104.36624 C 136.72697,106.54749 143.24452,84.899996 146.30525,99.713671 C 147.25279,112.57921 146.66784,126.23917 141.69297,138.26963 C 136.68339,148.40063 122.3368,153.58468 113.31817,145.34247 z M 129.66019,126.46395 C 133.92905,113.2623 110.74044,113.43783 111.61181,125.57093 C 111.90789,137.09125 129.59191,139.81184 129.66019,126.46395 z M 197.60725,91.027245 C 191.77232,82.871023 188.28418,70.13749 175.34285,71.669013 C 158.76254,69.489236 142.63013,64.938556 126.36233,61.190521 C 115.26716,69.118044 105.10231,79.404511 91.431914,82.602118 C 79.657217,80.834267 97.10453,67.782604 100.0762,63.148759 C 108.68772,54.685164 114.56218,44.028002 124.05903,36.168528 C 131.2534,28.062882 139.69309,20.441015 144.10581,10.431676 C 151.75885,-0.96778919 165.59025,12.422653 167.83034,21.281805 C 175.9895,27.119743 177.27293,39.721964 185.66623,47.092363 C 190.63042,59.454238 203.14662,67.820431 205.81252,81.276613 C 215.95986,84.5842 211.17881,104.9256 197.60725,91.027245 z M 165.11469,44.422443 C 160.87957,36.520306 152.41905,23.212019 145.3298,36.42716 C 137.64908,42.662698 132.07748,55.814675 147.171,54.856963 C 153.81917,54.355517 168.81415,60.641899 171.11629,55.789645 C 169.481,51.822955 167.3019,48.104007 165.11469,44.422443 z "
     id="path2961" />
</svg>
