<?xml version="1.0" encoding="UTF-8" standalone="no"?>
<!-- Created with Inkscape (http://www.inkscape.org/) -->
<svg
   xmlns:dc="http://purl.org/dc/elements/1.1/"
   xmlns:cc="http://web.resource.org/cc/"
   xmlns:rdf="http://www.w3.org/1999/02/22-rdf-syntax-ns#"
   xmlns:svg="http://www.w3.org/2000/svg"
   xmlns="http://www.w3.org/2000/svg"
   xmlns:sodipodi="http://sodipodi.sourceforge.net/DTD/sodipodi-0.dtd"
   xmlns:inkscape="http://www.inkscape.org/namespaces/inkscape"
   id="svg2178"
   sodipodi:version="0.32"
   inkscape:version="0.45.1"
   width="300"
   height="300"
   version="1.0"
   sodipodi:docbase="C:\Documents and Settings\L'équipage\Mes documents\Bertrand\Gifs"
   sodipodi:docname="龠-oracle.svg"
   inkscape:output_extension="org.inkscape.output.svg.inkscape">
  <metadata
     id="metadata2183">
    <rdf:RDF>
      <cc:Work
         rdf:about="">
        <dc:format>image/svg+xml</dc:format>
        <dc:type
           rdf:resource="http://purl.org/dc/dcmitype/StillImage" />
      </cc:Work>
    </rdf:RDF>
  </metadata>
  <defs
     id="defs2181" />
  <sodipodi:namedview
     inkscape:window-height="610"
     inkscape:window-width="954"
     inkscape:pageshadow="2"
     inkscape:pageopacity="0.0"
     guidetolerance="10.0"
     gridtolerance="10.0"
     objecttolerance="10.0"
     borderopacity="1.0"
     bordercolor="#666666"
     pagecolor="#ffffff"
     id="base"
     width="300px"
     height="300px"
     inkscape:zoom="2"
     inkscape:cx="30.5"
     inkscape:cy="136.5"
     inkscape:window-x="66"
     inkscape:window-y="66"
     inkscape:current-layer="svg2178" />
  <path
     style="fill:#000000"
     d="M 173.96564,235.59312 C 173.9509,218.05711 174.53544,193.36281 175.96877,175.9687 C 166.85283,175.64164 151.67917,176.9733 141.87175,174.86001 C 135.00111,174.08558 128.13048,173.31115 121.25984,172.53671 C 120.61746,198.26151 123.22437,224.47971 116.79728,249.65965 C 110.73583,262.20427 107.50091,239.58663 107.69252,234.37715 C 104.9499,213.82158 108.40543,192.11518 100.54201,172.49493 C 96.223301,160.9679 84.124112,161.73305 77.136664,155.08464 C 70.149216,148.43624 52.825787,143.54764 68.293634,136.15414 C 79.592554,128.48619 95.025289,128.30917 104.79745,118.38525 C 104.30189,107.50894 86.333751,110.29285 80.613226,101.88082 C 69.015323,89.695253 70.650987,71.361252 70.06365,55.751467 C 71.685321,44.419495 66.667488,27.419783 77.195329,20.27983 C 89.355961,22.094477 90.043955,37.663508 90.527405,47.515952 C 86.857315,64.254698 106.8526,61.862828 117.09059,58.44767 C 129.09643,53.134844 124.33629,37.230117 128.15108,26.940698 C 127.86006,19.950547 135.98284,3.8806129 139.01117,18.50948 C 142.8035,38.612701 142.27353,59.401141 140.45662,79.694648 C 140.68792,94.097013 125.4704,101.33696 123.74203,114.82777 C 124.26907,128.02027 140.65649,113.47556 147.92311,121.99596 C 153.27025,124.60514 158.4428,127.55931 163.71204,130.32225 C 150.54155,134.50233 136.35569,136.49653 124.4735,143.87194 C 119.29233,154.9387 142.34288,152.53489 149.90025,153.38365 C 160.75407,152.49869 174.83948,155.30294 182.81864,146.6674 C 180.51293,136.92049 161.96958,129.77417 175.38363,118.83249 C 182.27445,114.43176 181.3342,117.6521 193.34088,123.25589 C 194.44629,117.84175 197.09212,115.60346 197.82838,110.5419 C 189.45774,108.97177 184.7262,115.39792 179.04389,105.54276 C 171.59259,87.645937 171.72968,67.583732 171.9781,48.481388 C 171.98534,41.919796 173.67309,18.97705 182.70211,30.603561 C 189.04418,39.495015 183.83873,53.744192 193.70107,60.181594 C 204.36408,61.663264 216.98696,57.748051 224.40069,49.709921 C 232.6387,38.305894 228.85534,22.251874 237.148,11.010585 C 245.8881,15.12 242.97942,30.592255 244.12456,39.700897 C 243.88375,62.798082 238.8962,86.920682 225.28777,105.97526 C 222.52734,109.73275 216.33415,112.63845 209.80219,112.89411 C 207.8187,116.78349 205.00879,120.85519 206.39376,127.20212 C 214.80426,134.03801 232.67345,134.12343 239.89922,136.88819 C 246.97158,139.59425 261.40821,143.14335 250.76514,152.44973 C 239.20382,162.11717 213.47999,165.54667 199.17923,169.27709 C 197.24899,181.25208 195.80098,193.68507 194.43439,206.63584 C 192.83642,221.76461 195.17072,237.85276 188.85567,252.0967 C 178.78405,260.88002 186.38641,276.36455 178.8974,286.19269 C 172.43803,279.93815 175.53897,264.97656 174.0305,255.55417 C 173.87391,248.90181 173.86535,242.24639 173.96564,235.59312 z M 223.65221,81.118408 C 222.7197,67.568325 204.10999,70.930571 195.09982,74.019526 C 179.54103,77.678512 186.95692,94.667963 199.88784,93.749503 C 208.94225,94.875271 222.66402,92.051514 223.65221,81.118408 z M 121.25984,84.275063 C 118.31086,72.776066 96.895375,74.421274 92.436799,84.000336 C 96.350398,91.909651 119.14102,96.212659 121.25984,84.275063 z "
     id="path2216"
     sodipodi:nodetypes="ccccccczccccccccccccccccccccccccccccczcccccccccccccc" />
</svg>
