<?xml version="1.0" encoding="UTF-8" standalone="no"?>
<!-- Created with Inkscape (http://www.inkscape.org/) -->
<svg
   xmlns:dc="http://purl.org/dc/elements/1.1/"
   xmlns:cc="http://web.resource.org/cc/"
   xmlns:rdf="http://www.w3.org/1999/02/22-rdf-syntax-ns#"
   xmlns:svg="http://www.w3.org/2000/svg"
   xmlns="http://www.w3.org/2000/svg"
   xmlns:sodipodi="http://sodipodi.sourceforge.net/DTD/sodipodi-0.dtd"
   xmlns:inkscape="http://www.inkscape.org/namespaces/inkscape"
   id="svg2858"
   sodipodi:version="0.32"
   inkscape:version="0.45.1"
   width="300"
   height="300"
   version="1.0"
   sodipodi:docbase="/home/michelet/Images/Temp"
   sodipodi:docname="龠-bigseal.svg"
   inkscape:output_extension="org.inkscape.output.svg.inkscape">
  <metadata
     id="metadata2863">
    <rdf:RDF>
      <cc:Work
         rdf:about="">
        <dc:format>image/svg+xml</dc:format>
        <dc:type
           rdf:resource="http://purl.org/dc/dcmitype/StillImage" />
      </cc:Work>
    </rdf:RDF>
  </metadata>
  <defs
     id="defs2861" />
  <sodipodi:namedview
     inkscape:window-height="941"
     inkscape:window-width="1269"
     inkscape:pageshadow="2"
     inkscape:pageopacity="0.0"
     guidetolerance="10.0"
     gridtolerance="10.0"
     objecttolerance="10.0"
     borderopacity="1.0"
     bordercolor="#666666"
     pagecolor="#ffffff"
     id="base"
     width="300px"
     height="300px"
     inkscape:zoom="2"
     inkscape:cx="33.5"
     inkscape:cy="141.5"
     inkscape:window-x="0"
     inkscape:window-y="27"
     inkscape:current-layer="svg2858" />
  <path
     style="fill:#000000"
     d="M 43.10291,261.59483 C 44.66764,246.6243 45.947873,225.70076 45.947873,215.09809 C 45.947873,200.73904 47.678092,195.8205 52.729245,195.8205 C 56.458997,195.8205 60.657631,198.80958 62.059543,202.46289 C 63.721257,206.79325 70.60897,209.10528 81.847737,209.10528 C 96.134831,209.10528 99.087006,207.58863 99.087006,200.24876 C 99.087006,188.17372 107.27621,189.06051 112.06426,201.65404 C 115.60383,210.96379 118.87177,211.96972 147.28833,212.49664 C 172.54408,212.96495 179.43078,211.62064 182.84401,205.55604 C 186.70781,198.69087 187.89002,198.90395 196.39372,207.99822 C 208.03941,220.45268 223.10982,221.01199 226.2235,209.10528 C 228.44543,200.60858 242.8113,196.6772 246.4504,203.56996 C 247.4148,205.39661 247.03422,224.82561 245.60467,246.7455 C 243.25908,282.71145 242.14565,286.59985 234.19246,286.59985 C 227.85837,286.59985 224.73895,282.86309 223.10243,273.31507 C 221.16621,262.01845 218.59055,259.81636 205.89199,258.60081 C 191.83167,257.25492 191.12572,257.83747 193.81801,268.5644 C 197.68332,283.96502 184.6349,284.24506 178.79571,268.88681 C 175.54214,260.3293 171.43703,257.81616 160.71221,257.81616 C 148.30148,257.81616 147.11748,258.93063 149.48915,268.38012 C 151.07979,274.71773 149.78012,280.90304 146.24057,283.84061 C 138.52994,290.23987 134.5131,285.78582 134.5131,270.83667 C 134.5131,250.94394 109.89018,248.53487 107.09539,268.15416 C 105.28411,280.86924 97.255389,280.4417 95.42545,267.53272 C 94.171171,258.68465 91.807485,257.50281 77.712405,258.6762 C 62.931467,259.90669 61.320129,261.34393 60.059156,274.42214 C 58.981467,285.59937 56.615062,288.81398 49.464736,288.81398 C 40.83119,288.81398 40.435082,287.11923 43.10291,261.59483 z M 226.7075,236.78192 C 227.94121,228.0952 226.15755,226.81833 212.78943,226.81833 C 196.46735,226.81833 186.87471,238.40326 197.46583,245.32447 C 208.24245,252.36692 225.19755,247.41372 226.7075,236.78192 z M 92.08244,241.84347 C 95.934952,240.36512 99.087006,235.38332 99.087006,230.77281 C 99.087006,223.98351 95.810058,222.39007 81.847737,222.39007 C 65.587224,222.39007 59.232656,227.46899 59.232656,240.46529 C 59.232656,245.03572 81.345918,245.96346 92.08244,241.84347 z M 133.71402,234.56779 C 132.80464,228.16471 128.73845,224.09853 122.33538,223.18914 C 114.22067,222.03667 112.37179,223.88555 112.37179,233.15273 C 112.37179,242.41991 114.48326,244.53137 123.75043,244.53137 C 133.01761,244.53137 134.86649,242.68249 133.71402,234.56779 z M 177.99663,232.35365 C 179.23735,223.61761 177.46423,222.39007 163.60478,222.39007 C 151.22905,222.39007 147.79788,224.15233 147.79788,230.50854 C 147.79788,241.80345 152.27628,245.15168 165.3452,243.62761 C 173.11865,242.72108 177.01768,239.24657 177.99663,232.35365 z M 128.97777,191.09437 C 119.12347,185.2825 118.62595,159.20112 128.18701,149.64006 C 136.42206,141.40501 157.10155,140.47156 164.62527,147.99528 C 170.47028,153.84029 171.68789,177.43781 166.55018,185.30058 C 161.7343,192.67082 137.88605,196.3483 128.97777,191.09437 z M 155.84147,168.106 C 157.03302,157.78258 155.6131,155.96615 146.35166,155.96615 C 133.77753,155.96615 127.53199,167.48161 135.13653,176.64452 C 143.13687,186.28434 154.27338,181.69175 155.84147,168.106 z M 195.40169,188.85938 C 185.70221,183.59733 183.22397,179.10521 183.22397,166.78577 C 183.22397,149.39733 193.70845,142.68137 220.85406,142.68137 C 237.86562,142.68137 243.31443,152.11088 238.62924,173.44242 C 236.61847,182.5974 231.87778,187.66118 222.13953,191.05595 C 214.62235,193.67645 208.27112,195.74072 208.02567,195.6432 C 207.78023,195.54569 202.09943,192.49297 195.40169,188.85938 z M 222.76671,169.83317 C 228.10905,159.85092 224.96142,155.96615 211.53096,155.96615 C 200.00245,155.96615 194.60297,162.32555 198.1915,171.67712 C 201.70274,180.82726 217.51794,179.6406 222.76671,169.83317 z M 62.553852,182.18102 C 52.953417,176.58927 52.565293,161.13355 61.697887,148.09494 C 73.314828,131.50944 112.37179,138.04435 112.37179,156.57357 C 112.37179,162.96597 102.99498,179.78369 97.317013,183.57497 C 90.355326,188.22342 71.639528,187.47294 62.553852,182.18102 z M 92.444615,162.60854 C 92.444615,156.23874 89.025373,153.35859 80.266896,152.35082 C 70.763835,151.25737 68.089178,152.79732 68.089178,159.36223 C 68.089178,170.51924 72.443904,174.32809 83.405865,172.75893 C 89.061153,171.94939 92.444615,168.14982 92.444615,162.60854 z M 28.234828,131.7128 C 28.234828,122.68191 41.414498,114.84672 92.635831,93.426996 C 133.93484,76.156587 137.98924,75.291508 156.6544,79.767533 C 239.28097,99.58192 264.11398,109.05026 266.52888,121.66052 C 268.53248,132.12306 255.10666,136.60511 243.52596,129.33978 C 215.23074,111.58831 170.17096,89.826487 156.6544,87.384762 C 141.5304,84.652657 135.73369,86.423683 81.373962,110.38465 C 72.849559,114.14208 59.531674,121.94962 51.778661,127.73472 C 35.587477,139.81619 28.234828,141.05853 28.234828,131.7128 z M 100.16648,122.02637 C 97.106878,120.79286 95.729941,117.9611 97.106626,115.73358 C 100.29757,110.57053 183.22397,110.3768 183.22397,115.5324 C 183.22397,122.97436 115.62719,128.25953 100.16648,122.02637 z M 200.98233,69.669662 C 197.92542,65.986315 190.73246,62.972666 184.99796,62.972666 C 167.04322,62.972666 152.79091,29.564146 168.51265,24.329804 C 171.50213,23.334494 174.33742,27.90334 175.15504,35.0335 C 176.35725,45.517501 178.8807,47.694642 191.20222,48.878449 C 205.63096,50.264708 205.80533,50.061265 204.48701,33.379535 C 203.34926,18.982811 204.46461,16.475924 212.00767,16.475924 C 219.04536,16.475924 221.14644,19.886225 222.23856,33.081903 C 223.8655,52.739406 234.32131,55.634745 240.92821,38.257292 C 246.00126,24.914166 255.6506,26.095347 257.73727,40.314892 C 259.74184,53.9749 252.18985,61.512239 232.88413,65.119837 C 223.83762,66.81033 214.20942,70.03243 211.48814,72.28006 C 208.32151,74.89552 204.5395,73.955799 200.98233,69.669662 z M 74.101499,63.892199 C 49.943138,62.071873 38.016511,49.828015 45.150334,34.170981 C 51.171339,20.95631 59.232656,19.634049 59.232656,31.86112 C 59.232656,37.059084 64.517183,43.336658 72.266131,47.343796 C 87.272335,55.103805 91.858866,51.075314 87.55248,33.917317 C 84.561473,22.000184 90.374278,14.4733 102.67954,14.329603 C 107.07315,14.278293 107.74422,19.209622 105.43717,34.594114 L 102.38815,54.926431 L 116.23649,47.76518 C 123.85308,43.82649 130.08483,37.499962 130.08483,33.70623 C 130.08483,23.884799 140.89326,28.691371 142.45748,39.208416 C 145.19802,57.634406 118.58617,67.244113 74.101499,63.892199 z "
     id="path2867" />
</svg>
